<?xml version="1.0" encoding="UTF-8"?><svg xmlns="http://www.w3.org/2000/svg" viewBox="0 0 460.48 96.53"><defs><style>.cls-1{fill:#602c12;font-family:Arial-Black, 'Arial Black';font-size:62px;stroke:#ccba37;stroke-miterlimit:10;stroke-width:4px;}.cls-2{fill:#f2d265;}.cls-3,.cls-4,.cls-5{fill:#6d3415;}.cls-6{fill:#b66e29;}.cls-7{opacity:.6;}.cls-8{isolation:isolate;}.cls-9{fill:#fff;mix-blend-mode:overlay;opacity:.3;}.cls-4{opacity:.51;}.cls-5{opacity:.67;}</style></defs><g class="cls-8"><g id="Layer_2"><g id="Layer_1-2"><g><path class="cls-3" d="M454.5,6.3c-13.51-.63-83.18-1.3-96.69-1.8l-20.26-.82-20.27-.73c-27.02-.92-107.12-1.59-134.16-1.93l-56.92-.51c-13.53-.14-27.04-.33-40.57-.41C58.58-.16,31.51,.16,4.45,.28l-4.45,.02L.75,3.59c1.64,7.18,3.17,14.37,4.72,21.56,1.5,7.19,2.95,14.39,4.36,21.6,1.37,7.21,2.72,14.42,3.95,21.64,1.27,7.22,2.39,14.46,3.49,21.7l.25,1.69,2.25,.07c6.28,.2,12.56,.41,18.83,.68,6.28,.25,12.56,.49,18.83,.79,12.55,.56,25.11,1.18,37.66,1.66,12.55,.52,25.11,.92,37.67,1.16,12.56,.27,41.48,.31,54.04,.37,25.13,.09,103.31-.03,128.45-.46,25.14-.48,106.45-1.07,131.6-2.4l.63-.03,.09-.5c1.23-6.82,2.38-13.65,3.49-20.48,1.07-6.83,2.17-13.66,3.15-20.5,1.02-6.84,2.03-13.67,2.94-20.51,.93-6.84,1.92-13.67,2.76-20.52l.55-4.52-5.98-.28Zm-11.89,64.38c-.54,5.68-1.14,11.36-1.8,17.03-23.75-.69-103.65-1.99-127.38-3.02l-18.37-.71c-6.13-.21-65.31-.37-71.43-.51-12.25-.26-24.51-.35-36.76-.4-24.52-.08-65.39,.02-89.91,.46-24.31,.48-48.61,1.09-72.93,2.42-.56-6.56-1.19-13.11-1.88-19.66-.74-6.72-1.45-13.44-2.28-20.14l-1.2-10.06-1.3-10.06c-.63-4.88-1.26-9.75-1.93-14.62l13.16,.63c6.57,.31,13.13,.55,19.69,.83l19.69,.81,19.69,.7c26.26,.88,68.89,1.52,95.17,1.81l19.71,.26,19.71,.21c13.14,.14,79.34,.29,92.49,.36,25.14,.16,106.46-.16,131.61-.31-.26,5.35-.56,10.7-.84,16.04-.44,6.32-.81,12.65-1.3,18.97-.49,6.32-1.02,12.64-1.63,18.96Z"/><polygon class="cls-6" points="444.96 91.41 21.58 88.18 6.72 4.88 452.13 12.36 444.96 91.41"/><path class="cls-4" d="M23.45,68.01s261.6-3.62,279.38-2.99c17.77,.63,125.82,9.05,125.82,9.05l17.26-3.36,3.65,.2-3.08,21.52H131.03l-112.1-2.05-3.66-22.37h8.18Z"/><polygon class="cls-5" points="447.94 12.26 441.43 83.92 20.25 80.71 21.58 88.18 444.96 91.41 452.13 12.36 447.94 12.26"/><polygon class="cls-2" points="12.7 11.65 55.07 10.14 451.68 17.44 452.13 12.36 6.72 4.88 21.58 88.18 27.83 88.24 12.7 11.65"/><polygon class="cls-3" points="15.69 64.5 7.74 22.6 76.17 25.56 9.11 18.29 5.69 13.38 16.2 73.31 183.8 66.55 15.69 64.5"/><g><path class="cls-3" d="M434.03,75.08c1.02-.27,14.01-1.78,14.01-1.78l.45-3.75c-2.84,1.06-15.37,5.77-14.46,5.52Z"/><path class="cls-3" d="M449.06,69.35l4.45-38.34h-.35l-4.67,38.55,.57-.21Z"/><polygon class="cls-3" points="453.51 26.75 320.79 31.01 453.16 31.01 453.51 28.2 453.51 26.75"/></g><g class="cls-7"><path class="cls-3" d="M158.45,31.71c-64.9,2.49-122.78,16.68-135.01,17.06-12.23,.38,28.15,2.56,87.03,4.74,58.88,2.18,196.77,6.23,218.78,1.87,22.01-4.36,27.73-5.71,27.73-5.71,0,0-51.51,4.15-66.93,4.15s-172.06-4.81-187.54-5.05c-15.49-.24-34.55-1.49-34.55-1.49,0,0,96.52-14.92,136.07-12.13,39.55,2.79,126.03,8.52,123.58,9.23-2.44,.71-33.64,.53-39.23,0-5.6-.53-121.48-4.27-134.52-2.4-13.05,1.87,33.44,4.67,50.17,4.98,16.72,.31,110.54,3.28,123.58,1.8,13.04-1.49,13-4.38,13-4.38l88.01,1.65S223.35,29.22,158.45,31.71Z"/><path class="cls-9" d="M339.46,37.48c-39.54-6.85-164.39-8.57-201.88-8.02-37.5,.55-114.13,19.32-114.13,19.32,0,0,30.1-4.76,47.74-7.74,17.63-2.98,70.12-7.92,119.91-9.01,49.8-1.09,248.12,15.1,248.12,15.1,0,0-60.23-2.8-99.76-9.66Z"/><path class="cls-9" d="M71.12,47.48s83.22,1.99,116.61,5.57c33.4,3.58,136.77-.97,136.77-.97-21.3,1.54-119.21-1.68-136.77-3.31-17.55-1.63-116.61-1.29-116.61-1.29Z"/></g><polygon class="cls-9" points="91.46 71.4 22.09 75.49 22.09 88.18 18.93 73.31 134.68 68.01 91.46 71.4"/><path class="cls-9" d="M80.52,26.18c-1.02-.14-70.63-3.49-70.63-3.49l2.82,15.8s3.91,.63,3.23,.58c-.68-.05-2.7,2.37-2.6,2.9,.09,.54,3.8-1.18,4.49-1.59,.68-.41,.85-4.29,.85-4.29,0,0-3.24-2.26-3.24-2.95v-6.1l65.09-.86Z"/></g><text class="cls-1" transform="translate(102.75 72.01)"><tspan x="0" y="0">ENTER</tspan></text></g></g></g></svg>