<?xml version="1.0" encoding="UTF-8"?><svg xmlns="http://www.w3.org/2000/svg" viewBox="0 0 445.81 373.98"><defs><style>.cls-1{mix-blend-mode:overlay;opacity:.84;}.cls-2{fill:#eeb980;}.cls-3{fill:#fff;}.cls-4,.cls-5{fill:#ffeab6;}.cls-6{fill:#993429;}.cls-7,.cls-8{fill:#aa784f;}.cls-9{fill:#840414;}.cls-10,.cls-11{mix-blend-mode:multiply;}.cls-12{fill:#ba492c;stroke:#533e38;stroke-miterlimit:10;stroke-width:.25px;}.cls-11{fill:#a15542;opacity:.26;}.cls-8{fill-rule:evenodd;opacity:.32;}.cls-13{fill:#2e3fff;stroke:#000;}.cls-14{isolation:isolate;}.cls-15{fill:#c48a57;opacity:.55;}.cls-5{opacity:.29;}.cls-16{fill:#d8a16a;}.cls-16,.cls-17{opacity:.63;}.cls-17{fill:#a57142;}</style></defs><g class="cls-14"><g id="Layer_2"><g id="Layer_7"><g><g><g><path class="cls-11" d="M217.45,373.07c1.86-.02,3.75-.03,5.64-.05l2.91-.1-2.68-140.85V7.15l-14.97-1.09-.74,12.17-4.74-12.57-4.62-.34L3.2,34.12l3.74,11.1,6.76,5.31-5.76-2.35,.07,.21-.89,84.06,.53,10.7H27.4l-19.6,8.18-3.04,10.46,.55,18.28,14.59,3.94-14.35,4.04,.05,1.48s2.83,123.23,2.83,135.94c0,10.81-3.78,40.02-4.9,48.51l28.45-1.42,2.61-5.45,3.59,5.45,104.06-1.17,11.74-24.13-2.44,24.51h3.91l3.59-10.69,3.42,9.92,11.58,1.17s4.08-10.12,5.22-10.9c1.14-.78,0,10.7,0,10.7l38.21,1.1Z"/><path class="cls-2" d="M154.22,344.79l-11.74,24.13-104.06,1.17-3.59-5.45-2.61,5.45-31.15,1.56s5.87-62.07,3.75-114.8c-2.12-52.73-1.96-70.44-1.96-70.44l17.29-4.86-17.29-4.67,1.47-26.46,23.32-9.73H4.34L1.08,42.81l12.88,5.25L1.08,37.94,.26,2.53s140.58-.39,170.43,0c29.84,.39,32.13-.17,32.13-.17l5.06,13.4,.82-13.4,103.06,3.09,4.73,21.99,4.4-22.57L445,0l-2.45,43.2-13.54,6.62,13.05-1.75-1.79,44.17,.65,49.81-4.24,7.98,5.06,12.65-1.63,99.24-10.93,6.42,9.46,7,7.17,98.46-35.88-1.56-3.43-13.43-2.77,12.65-76.01-5.84-13.86,2.14-9.13-9.15-6.2,9.34-78.6,2.72-40.44-1.17s1.14-11.48,0-10.7c-1.14,.78-5.22,10.9-5.22,10.9l-11.58-1.17-3.43-9.92-3.59,10.7h-3.91l2.45-24.52Z"/><path class="cls-16" d="M223.32,229.6V2.8l-14.9-.45-.81,13.4-5.06-13.4s-2.28,.56-32.13,.17C140.58,2.14,0,2.53,0,2.53L.82,37.94l12.88,10.12L.82,42.81l3.26,97.87H27.4l-23.32,9.73-1.47,26.46,17.29,4.67-17.29,4.86s-.16,17.71,1.96,70.44c2.12,52.73-3.75,114.8-3.75,114.8l31.15-1.56,2.61-5.45,3.59,5.45,104.06-1.17,11.74-24.13-2.44,24.52h3.91l3.59-10.7,3.42,9.92,11.58,1.17s4.08-10.12,5.22-10.9c1.14-.78,0,10.7,0,10.7l40.44,1.17,6.33-.22-2.68-140.85Z"/><path class="cls-15" d="M.26,2.53l.82,35.41,12.88,10.12L1.08,42.81l.7,20.99,10.55-7.76L93.25,2.36C49.21,2.38,.26,2.53,.26,2.53Z"/><polygon class="cls-5" points="327.73 365.61 403.74 371.45 406.51 358.8 409.93 372.23 445.81 373.78 438.74 276.84 325.97 365.88 327.73 365.61"/><g class="cls-1"><polygon class="cls-4" points="208.85 17.71 209.66 4.3 312.16 7.38 311.75 5.45 208.69 2.36 207.9 15.2 208.85 17.71"/><polygon class="cls-4" points="22.99 142.63 4.34 150.41 2.87 176.87 3.94 177.16 5.32 152.36 28.64 142.63 22.99 142.63"/><path class="cls-4" d="M2.03,38.69L1.24,4.48s140.58-.39,170.43,0c25.43,.33,30.85-.03,31.89-.14l-.75-1.98s-2.28,.56-32.13,.17C140.85,2.14,.26,2.53,.26,2.53l.82,35.41,.95,.75Z"/><polygon class="cls-4" points="317.46 29.38 321.86 6.81 444.88 1.99 445 0 320.88 4.86 316.74 26.07 317.46 29.38"/><polygon class="cls-4" points="438.64 275.33 431.07 269.73 430.16 270.27 438.73 276.62 438.64 275.33"/><polygon class="cls-4" points="441.97 50.15 442.06 48.06 435.85 48.89 429.99 51.76 441.97 50.15"/><polygon class="cls-4" points="407.49 360.75 407.26 361.77 409.93 372.23 410.42 372.25 407.49 360.75"/><polygon class="cls-4" points="160.25 360.55 160.1 361 162.7 368.53 163.02 368.56 160.25 360.55"/><path class="cls-4" d="M180.64,369.54c.27-3.23,.67-9.37-.17-8.79-.12,.08-.29,.29-.47,.57,0,3.18-.51,8.19-.51,8.19l1.15,.03Z"/><path class="cls-4" d="M5.81,258.79c-2.12-52.73-1.96-70.44-1.96-70.44l17.29-4.86-4.03-1.09-14.24,4.01s-.16,17.71,1.96,70.44c2.12,52.73-3.75,114.8-3.75,114.8l1.16-.06c.97-11.03,5.47-65.65,3.57-112.8Z"/><polygon class="cls-4" points="4.34 140.68 5.25 140.68 2.06 44.75 14.94 50.01 10.84 46.79 1.08 42.81 4.34 140.68"/><polygon class="cls-4" points="155.2 346.74 153.72 349.77 151.77 369.31 152.94 369.31 155.2 346.74"/></g><polygon class="cls-17" points="223.04 14.69 223.58 95.73 223.04 288.36 225.89 364.56 225.89 179.01 223.04 14.69"/><polygon class="cls-17" points="21.14 184.52 112.13 183.48 343.41 183.2 443.96 179.43 220.63 180.32 21.14 184.52"/><polygon class="cls-17" points="438.73 276.62 325.97 365.03 384.82 327.28 438.73 276.62"/><polygon class="cls-17" points="89.41 4.9 1.52 63.8 44.07 37.62 54.08 47.48 45.46 36.06 89.41 4.9"/><polygon class="cls-5" points="437.66 296.28 443.96 371.64 412.65 368.4 406.13 354.39 401.13 368.14 380.47 366.5 437.66 296.28"/></g><path class="cls-8" d="M363.64,77.03c-13.89-20.11-32.46-42.14-40.45-32.86-7.99,9.29-9.46,30.14-32.32,22.26-22.86-7.88-41.32-17.82-62.04-10.22-20.73,7.61-26.48,16.88-39.15,36.43-12.67,19.55-16.19,26.97-39.76,31.32-23.58,4.35-53.6,21.59-65.05,39.97-11.45,18.38-19.43,73.93-19.43,73.93,0,0,19.02,35.28,32.48,34.84,13.46-.44,23.39-17.22,39.15-10.56,15.76,6.66,44.26,3.46,26.56,18.88-17.7,15.42-46.81,15.27-51.01,25.97-4.2,10.7-12.43,27.65,4.68,32.16,17.11,4.51,36.57-15.27,54.48-15.75,17.91-.47,12.23,25.88,49.04,9.82,36.81-16.05,47.92-22.35,43.51-44.54-4.4-22.19-22.3-29.11,10.83-49.26,33.13-20.15,50.21-20.49,56.07-48.54,5.85-28.04,7.72-25.43,20.03-28.47,12.31-3.03,29.66-18,35.38-36.43,5.72-18.43-23-48.98-23-48.98Z"/><g><g><path class="cls-9" d="M161.72,84.4l-1.15-1.8s-.69,.44-1.93,1.27l1.19,1.78c1.22-.81,1.9-1.25,1.9-1.25Z"/><path class="cls-9" d="M151.29,88.92l1.23,1.75c1.28-.9,2.45-1.72,3.51-2.45l-1.21-1.76c-1.06,.73-2.24,1.55-3.52,2.46Z"/><path class="cls-9" d="M167.97,183.58c1.3,.26,2.66,.58,4.1,.96l.55-2.06c-1.48-.4-2.89-.72-4.22-.99l-.43,2.1Z"/><path class="cls-9" d="M159.69,182.62c1.31,.02,2.71,.12,4.15,.29l.25-2.12c-1.51-.18-2.98-.29-4.37-.31l-.03,2.14Z"/><path class="cls-9" d="M137.49,99.16l1.31,1.69c1.15-.9,2.28-1.76,3.39-2.6l-1.29-1.7c-1.11,.84-2.25,1.72-3.41,2.62Z"/><path class="cls-9" d="M142.92,184.98l1.01,1.89c1.17-.62,2.43-1.28,3.75-1.86l-.86-1.96c-1.39,.61-2.7,1.29-3.9,1.93Z"/><path class="cls-9" d="M176.13,185.73c1.28,.41,2.62,.86,4.01,1.36l.73-2.01c-1.42-.51-2.78-.97-4.09-1.39l-.65,2.04Z"/><path class="cls-9" d="M150.97,181.55l.58,2.06c1.32-.37,2.63-.63,4.02-.79l-.25-2.12c-1.5,.18-2.92,.46-4.35,.85Z"/><path class="cls-9" d="M144.33,93.96l1.27,1.72c1.19-.89,2.34-1.73,3.44-2.53l-1.25-1.73c-1.11,.8-2.27,1.65-3.46,2.54Z"/><path class="cls-9" d="M191.59,192.22c1.2,.73,2.35,1.51,3.41,2.33l1.3-1.69c-1.12-.86-2.33-1.69-3.61-2.46l-1.11,1.83Z"/><path class="cls-9" d="M208.32,210.77l-2.04,.63c.4,1.28,.75,2.6,1.09,4.05l2.08-.48c-.35-1.5-.72-2.87-1.13-4.2Z"/><polygon class="cls-9" points="211.6 227.71 209.48 228 210.06 232.25 212.18 231.95 211.6 227.71"/><path class="cls-9" d="M210.31,219.22l-2.1,.38c.25,1.38,.47,2.78,.68,4.19l2.11-.32c-.21-1.43-.44-2.85-.69-4.25Z"/><path class="cls-9" d="M212.8,236.16l-2.11,.34c.23,1.41,.47,2.83,.75,4.25l2.1-.41c-.27-1.39-.51-2.79-.73-4.18Z"/><path class="cls-9" d="M135.36,188.51l.65,2.04c1.3-.42,2.6-.95,4.09-1.68l-.94-1.92c-1.4,.68-2.6,1.18-3.81,1.56Z"/><path class="cls-9" d="M204.9,202.73l-1.86,1.06c.66,1.16,1.27,2.41,1.82,3.71l1.97-.83c-.58-1.38-1.23-2.7-1.93-3.93Z"/><path class="cls-9" d="M184.89,186.61l-.78,1.99,.72,.28c1.09,.44,2.13,.9,3.12,1.37l.93-1.93c-1.03-.49-2.12-.97-3.25-1.43l-.73-.29Z"/><path class="cls-9" d="M198.09,197.26c.96,.96,1.87,2,2.7,3.09l1.7-1.29c-.89-1.16-1.86-2.28-2.89-3.31l-1.51,1.51Z"/><path class="cls-9" d="M102.92,131.35c-.93,1.12-1.84,2.24-2.71,3.36l1.69,1.31c.85-1.1,1.74-2.21,2.66-3.3l-1.64-1.37Z"/><path class="cls-9" d="M103.68,181.25l-1.01,1.88c.37,.2,.75,.4,1.14,.6,.93,.47,1.84,.92,2.72,1.35l.92-1.93c-.87-.42-1.76-.86-2.68-1.32-.37-.19-.74-.38-1.09-.57Z"/><path class="cls-9" d="M99.39,139.42l-1.75-1.23c-.85,1.2-1.65,2.41-2.4,3.61l1.81,1.14c.73-1.17,1.52-2.34,2.34-3.51Z"/><path class="cls-9" d="M214.43,244.47l-2.08,.5c.34,1.4,.71,2.79,1.14,4.18l2.05-.63c-.41-1.35-.78-2.7-1.1-4.06Z"/><path class="cls-9" d="M91.12,149.47l1.96,.86c.54-1.23,1.16-2.5,1.84-3.76l-1.88-1.02c-.71,1.32-1.36,2.64-1.92,3.92Z"/><path class="cls-9" d="M134.12,101.82c-1.1,.88-2.22,1.78-3.34,2.7l1.35,1.65c1.12-.92,2.22-1.81,3.32-2.69l-1.33-1.67Z"/><path class="cls-9" d="M90.07,171.01c.63,1.32,1.42,2.61,2.35,3.83l1.69-1.3c-.84-1.09-1.55-2.25-2.11-3.44l-1.93,.92Z"/><path class="cls-9" d="M91.61,154.21l-2.04-.65c-.46,1.45-.81,2.89-1.05,4.28l2.1,.37c.23-1.3,.56-2.64,.99-4Z"/><path class="cls-9" d="M90.27,162.27h-2.14c0,1.54,.17,3.04,.48,4.47l2.09-.46c-.28-1.28-.43-2.64-.43-4.02Z"/><path class="cls-9" d="M95.45,178.11c1.03,.94,2.2,1.86,3.47,2.74l1.21-1.76c-1.19-.82-2.28-1.68-3.24-2.55l-1.44,1.58Z"/><path class="cls-9" d="M118.58,189.89c1.47,.44,2.9,.8,4.24,1.07l.42-2.1c-1.27-.26-2.63-.6-4.05-1.02l-.61,2.05Z"/><path class="cls-9" d="M127.48,107.27c-1.09,.92-2.17,1.85-3.26,2.79l1.4,1.61c1.08-.94,2.16-1.87,3.24-2.78l-1.38-1.63Z"/><path class="cls-9" d="M127.32,189.43l-.14,2.13c.62,.04,1.22,.06,1.81,.06,.9,0,1.79-.05,2.64-.14l-.24-2.12c-1.26,.14-2.61,.17-4.08,.07Z"/><path class="cls-9" d="M110.45,186.86c1.4,.61,2.74,1.15,4.01,1.63l.75-2c-1.24-.47-2.54-.99-3.91-1.59l-.85,1.96Z"/><path class="cls-9" d="M105.74,128.08l1.59,1.42c.93-1.05,1.89-2.1,2.87-3.13l-1.56-1.47c-.99,1.05-1.96,2.11-2.91,3.18Z"/><path class="cls-9" d="M111.64,121.8l1.52,1.5c1-1.01,2.01-2.01,3.03-2.99l-1.49-1.54c-1.03,1-2.06,2.01-3.06,3.03Z"/><path class="cls-9" d="M122.42,114.5l-1.43-1.59c-1.06,.95-2.12,1.92-3.17,2.9l1.46,1.56c1.04-.97,2.09-1.93,3.14-2.87Z"/><path class="cls-9" d="M333.54,220.27c1.21,.72,2.39,1.47,3.55,2.26l1.2-1.77c-1.19-.81-2.41-1.59-3.66-2.33l-1.09,1.84Z"/><path class="cls-9" d="M326.07,216.42c1.29,.57,2.56,1.17,3.79,1.81l.98-1.9c-1.28-.66-2.58-1.28-3.92-1.87l-.86,1.96Z"/><path class="cls-9" d="M340.51,224.99c1.12,.86,2.22,1.74,3.28,2.66l1.39-1.62c-1.1-.94-2.22-1.85-3.38-2.73l-1.3,1.7Z"/><path class="cls-9" d="M346.93,230.48c1.03,.97,2.03,1.97,3,2.98l1.54-1.48c-1-1.04-2.02-2.06-3.07-3.06l-1.47,1.55Z"/><path class="cls-9" d="M352.8,236.59c.93,1.06,1.83,2.15,2.71,3.24l1.67-1.34c-.9-1.12-1.82-2.23-2.78-3.31l-1.61,1.41Z"/><path class="cls-9" d="M358.09,243.19c.84,1.14,1.66,2.29,2.45,3.46l1.77-1.2c-.81-1.19-1.64-2.36-2.5-3.52l-1.72,1.27Z"/><path class="cls-9" d="M301.63,210.81c1.42,.06,2.82,.17,4.2,.31l.22-2.12c-1.42-.14-2.85-.25-4.32-.32l-.1,2.13Z"/><path class="cls-9" d="M318.18,213.54c1.36,.4,2.68,.84,3.99,1.32l.73-2.01c-1.35-.49-2.72-.95-4.12-1.36l-.61,2.05Z"/><path class="cls-9" d="M309.99,211.67c1.4,.23,2.77,.5,4.12,.81l.48-2.08c-1.39-.32-2.81-.6-4.26-.83l-.34,2.11Z"/><path class="cls-9" d="M384.53,296.59l-2.07,.53c.39,1.53,.73,2.92,1,4.14l2.08-.47c-.28-1.24-.62-2.65-1.02-4.2Z"/><path class="cls-9" d="M382.21,288.29l-2.05,.63c.44,1.42,.83,2.79,1.2,4.09l2.06-.58c-.37-1.31-.77-2.69-1.21-4.13Z"/><path class="cls-9" d="M214.89,253.25c.52,1.37,1.09,2.72,1.7,4l1.93-.91c-.58-1.24-1.13-2.53-1.64-3.85l-2,.76Z"/><path class="cls-9" d="M292.91,210.18l1.12,1.82c1.13-.7,2.31-1.11,3.49-1.23l-.21-2.13c-1.51,.15-2.99,.67-4.4,1.54Z"/><path class="cls-9" d="M369.04,256.49l-1.87,1.02c.68,1.25,1.34,2.51,1.97,3.76l1.91-.96c-.64-1.27-1.31-2.54-2.01-3.82Z"/><path class="cls-9" d="M376.42,272.06l-1.97,.81c.55,1.34,1.07,2.65,1.57,3.95l2-.76c-.5-1.32-1.03-2.65-1.59-4.01Z"/><path class="cls-9" d="M362.87,250.19c.76,1.2,1.49,2.41,2.2,3.63l1.85-1.08c-.72-1.23-1.47-2.46-2.24-3.68l-1.81,1.14Z"/><path class="cls-9" d="M372.95,264.18l-1.93,.91c.61,1.3,1.2,2.59,1.76,3.87l1.96-.86c-.57-1.3-1.17-2.61-1.79-3.92Z"/><path class="cls-9" d="M379.5,280.11l-2.01,.72c.49,1.38,.95,2.72,1.38,4.03l2.03-.67c-.44-1.32-.9-2.68-1.4-4.07Z"/><path class="cls-9" d="M243.93,284.13c1.24,.65,2.52,1.3,3.85,1.93l.92-1.93c-1.3-.62-2.56-1.25-3.77-1.89l-1,1.89Z"/><path class="cls-9" d="M251.71,287.84c1.29,.55,2.62,1.09,3.99,1.63l.77-1.99c-1.35-.52-2.66-1.06-3.92-1.6l-.84,1.97Z"/><path class="cls-9" d="M264.32,281.41l1.92,.93c.57-1.18,1.15-2.53,1.73-4.01l-1.99-.78c-.56,1.43-1.12,2.73-1.67,3.86Z"/><path class="cls-9" d="M259.64,287.56l.99,1.9c1.19-.62,2.3-1.68,3.41-3.25l-1.74-1.23c-.89,1.26-1.78,2.13-2.65,2.58Z"/><path class="cls-9" d="M236.51,279.71c1.16,.78,2.38,1.55,3.65,2.31l1.09-1.84c-1.24-.74-2.42-1.49-3.55-2.25l-1.19,1.77Z"/><path class="cls-9" d="M229.64,274.44c1.08,.95,2.21,1.88,3.35,2.75l1.29-1.7c-1.1-.84-2.19-1.73-3.24-2.65l-1.41,1.61Z"/><path class="cls-9" d="M218.61,261.11c.72,1.25,1.51,2.49,2.33,3.67l1.75-1.22c-.79-1.13-1.54-2.32-2.24-3.51l-1.85,1.07Z"/><path class="cls-9" d="M223.58,268.24c.92,1.1,1.9,2.18,2.91,3.22l1.53-1.49c-.98-1-1.92-2.04-2.8-3.1l-1.64,1.37Z"/><path class="cls-9" d="M267.44,273.57l2.02,.69c.45-1.31,.89-2.69,1.33-4.11l-2.04-.63c-.44,1.4-.87,2.76-1.31,4.05Z"/><path class="cls-9" d="M286.79,216.68l1.8,1.16c.81-1.26,1.64-2.36,2.47-3.27l-1.59-1.43c-.9,1-1.8,2.19-2.67,3.55Z"/><path class="cls-9" d="M282.75,224.42l1.96,.86c.58-1.34,1.18-2.61,1.8-3.81l-1.9-.98c-.63,1.24-1.25,2.55-1.86,3.93Z"/><path class="cls-9" d="M276.99,240.68l2.05,.62c.42-1.37,.84-2.73,1.27-4.07l-2.03-.66c-.44,1.35-.86,2.73-1.28,4.11Z"/><path class="cls-9" d="M279.63,232.49l2.02,.7c.47-1.37,.96-2.7,1.46-3.99l-2-.77c-.51,1.31-1,2.67-1.48,4.06Z"/><path class="cls-9" d="M274.6,248.94l2.06,.58c.39-1.37,.77-2.74,1.17-4.11l-2.05-.59c-.4,1.37-.79,2.75-1.18,4.13Z"/><path class="cls-9" d="M269.98,265.44l2.05,.6c.39-1.35,.78-2.73,1.18-4.13l-2.06-.58c-.39,1.4-.78,2.77-1.18,4.11Z"/><polygon class="cls-9" points="272.31 257.2 274.36 257.77 275.51 253.64 273.45 253.07 272.31 257.2"/><path class="cls-9" d="M386.36,304.54l-2.1,.42c.29,1.42,.41,2.2,.42,2.21l2.11-.34s-.13-.81-.43-2.29Z"/></g><g><path class="cls-3" d="M130.5,56.93l12.26-.2s-1.41,0-3.07-1.53c-1.67-1.51-1.6-5.24-1.6-5.24,0,0-7.85-1.4-9.36-1.9-1.52-.51-2.24-3.46-6.68-4.75-4.45-1.29-6.42,.63-5.33,4.79,1.1,4.17,.25,4.6-1.35,5.69-1.6,1.09-5.03,2.85-.55,6.29,4.47,3.44,8.69-.39,11.04-1.45,2.34-1.07,4.65-1.68,4.65-1.68Z"/><path class="cls-3" d="M148.9,63.85s.02,.09,.02,.11c.18-.13,.29-.21,.29-.21l-.32,.09Z"/><path class="cls-3" d="M148.92,63.96c-1.3,.9-6.39,4.41-7.33,5.01-1.08,.68-1.73,1.05-7.51,1.13-5.77,.09-8.79,6.2-7.79,7.73,1,1.55,5.78,3.09,6.55,5.24,.77,2.15-.07,6.53,3.71,5.57,3.79-.97,4.48-8.77,4.48-8.77l11.19-10.88s-1.01-.75-2.02-2.02c-.92-1.16-1.23-2.72-1.28-3.02Z"/><path class="cls-3" d="M200.82,27.81c-1.94-.03-2.88,.09-4.29-3.98-1.42-4.05-4.12-4.56-7.09-1.01-2.97,3.54-1.94,6.39-2.91,7.66-.98,1.26-6.73,6.79-6.73,6.79,0,0,2.13,3.06,1.61,5.25-.55,2.19-1.71,2.98-1.71,2.98l10.29-6.66s2.27-.77,4.81-1.2c2.54-.41,8.17,.43,9.98-4.92,1.81-5.34-2.01-4.91-3.96-4.91Z"/><path class="cls-3" d="M194.35,51.78c-4.84,3.14-5.59,3.2-6.87,3.24-1.12,.03-7.29-.07-8.88-.1,.12,.28,.72,1.75,.61,3.22-.12,1.63-.55,2.81-.55,2.81l15.36,2.82s4.9,6.08,8.59,4.77c3.69-1.29,.55-4.48,0-6.68-.55-2.2,2.57-6.15,2.53-7.98-.03-1.85-5.94-5.24-10.78-2.1Z"/><path class="cls-3" d="M178.24,54.93h.37s-.05-.11-.05-.11l-.33,.11Z"/><path class="cls-3" d="M177.06,48.19c-.67,.66-1.73,1.5-2.73,1.37-1.62-.2-.86,1.71-.28,3.64,.59,1.94-.49,3.16-.49,3.16,0,0-.76-2.2-.86-3-.1-.8-2.22-3.24-2.94-5.49-.73-2.24,3.71-.2,4.95,.08,.8,.18,1.79-.24,2.4-.57,0-.13,0-.2,0-.2,1.66-1.2,3.61-5.24,2.38-7.25-1.23-2-1.05-3.72-1.33-9.57-.28-5.86-7.17-14.34-13.07-17.81-5.91-3.49-15.53,.22-15.53,.22,0,0-10.05,2.28-13.01,8.45-2.97,6.18-3.98,17.06-.95,22.08,3.02,5.02,4.13,6.35,4.24,8.7,.09,2.36,3.94,4.61,6,4.7,0,0,.04,.06,.12,.16,.69-.07,1.75-.27,2.31-.85,.86-.92,3.43-5.09,4.08-2.83,.64,2.27,.24,5.48,.6,6.21,.34,.73,.95,2.97,.95,2.97,0,0-1.57-.4-2.17-2.34-.57-1.93-1.02-3.97-2.25-2.89-.76,.66-2.1,.57-3.03,.38,.91,1.22,2.54,3.49,3.06,4.59,.74,1.53,1.66,6.88,7.13,7.52,5.47,.62,4.69,.95,6.37,.34,1.66-.58,2.88-1.22,3.2-1.32l.32-.1,.33-.1c.32-.09,1.69-.25,3.4-.69,1.72-.43,.88-.27,5.09-3.82,4.19-3.58,1.98-8.54,1.74-10.22-.18-1.2-.08-4-.01-5.51Zm-27.08-.26c-3.57,1.93-4.57-.46-5.11-3.12-.55-2.66-.47-3.96,2.85-6.04,3.33-2.07,5.6-1.29,6.13,.59,1.29,4.69-.31,6.63-3.87,8.57Zm13.32,3.52c-1.01,.13-1.67,.02-1.94,.14-.3,.05-.77,.5-1.69,.96-.92,.46-1.53-.98-1.31-2.12,.23-1.13-.08-5.52,.09-6.24,.09-.32,.3-.47,.51-.52,.2-.07,.45-.08,.7,.15,.54,.49,2.73,4.32,3.54,5.13,.82,.81,1.11,2.35,.09,2.48Zm-2.49-14.21c-.61-1.86,.85-3.76,4.76-3.88,3.91-.14,4.7,.91,5.73,3.42,1.03,2.51,1.55,5.07-2.5,5.44-4.05,.37-6.45-.34-7.98-4.97Z"/></g><g><path class="cls-12" d="M430.66,298.23c-6.1-.83-11.89-.52-17.61,.08-3.87,.44-7.67,1.16-11.45,1.98-1.15-3.68-2.42-7.33-3.97-10.9-2.33-5.26-4.93-10.45-8.68-15.33-.82,6.1-.49,11.89,.09,17.62,.44,3.87,1.15,7.67,1.97,11.44-3.67,1.16-7.33,2.43-10.91,3.97-5.25,2.34-10.43,4.94-15.32,8.68,6.1,.83,11.9,.5,17.62-.08,3.86-.45,7.66-1.16,11.43-1.98,1.16,3.68,2.42,7.33,3.97,10.91,2.32,5.26,4.93,10.44,8.69,15.32,.84-6.1,.52-11.9-.07-17.62-.44-3.87-1.15-7.67-1.97-11.43,3.67-1.15,7.31-2.43,10.9-3.96,5.25-2.33,10.44-4.93,15.31-8.7Z"/><path class="cls-6" d="M430.66,298.23c-.85-.12-1.7-.16-2.55-.23-3.36,2.17-18.27,7.8-27.52,10.16-11.16,2.86-22,4.02-33.54,6.03-.76,.52-1.51,1.01-2.26,1.58,6.1,.83,11.9,.5,17.62-.08,3.86-.45,7.66-1.16,11.43-1.98,1.16,3.68,2.42,7.33,3.97,10.91,2.32,5.26,4.93,10.44,8.69,15.32,.84-6.1,.52-11.9-.07-17.62-.44-3.87-1.15-7.67-1.97-11.43,3.67-1.15,7.31-2.43,10.9-3.96,5.25-2.33,10.44-4.93,15.31-8.7Z"/></g></g><g><path class="cls-7" d="M355.83,63.8c-4.28-4.11-8.69-8.07-13.12-12-4.43-3.93-8.92-7.79-13.42-11.63l-1.25-1.07-1.11,1.31c-3.35,3.96-6.75,7.88-10.03,11.89-2.71,3.27-5.42,6.54-8.09,9.84-1.8-3.18-3.66-6.31-5.66-9.38-1.27-1.93-2.56-3.86-3.99-5.73-.73-.93-1.48-1.85-2.35-2.74-.45-.45-.9-.89-1.54-1.33-.36-.21-.68-.46-1.4-.59-.26-.08-.91,0-1.28,.18-.39,.2-.84,.7-.82,.72-2.68,3.88-4.97,7.76-7.36,11.69-2.35,3.93-4.67,7.88-6.87,11.9,2.84-3.6,5.6-7.25,8.34-10.91,2.6-3.47,5.21-7.05,7.81-10.41,.27,.23,.57,.53,.85,.86,.68,.78,1.33,1.68,1.95,2.59,1.27,1.82,2.47,3.73,3.63,5.67,2.3,3.89,4.55,7.85,6.7,11.82l1.36,2.51,1.84-2.2c3.33-3.98,6.58-8.02,9.83-12.05,2.94-3.59,5.79-7.26,8.67-10.91,4.25,3.25,8.51,6.49,12.82,9.66,4.77,3.51,9.56,6.99,14.48,10.32Zm-61.79-18.74l.02-.02c.1-.14,.07-.06-.02,.02Z"/><path class="cls-7" d="M394.93,81.26c-4.43-3.93-8.92-7.79-13.42-11.63l-1.25-1.07-1.11,1.31c-3.35,3.96-6.75,7.88-10.03,11.89-2.71,3.27-5.42,6.54-8.09,9.84-1.8-3.18-3.66-6.31-5.66-9.38-1.27-1.93-2.56-3.86-3.99-5.73-.73-.93-1.48-1.85-2.35-2.74-.45-.45-.9-.89-1.54-1.33-.36-.21-.68-.46-1.4-.59-.26-.08-.91,0-1.28,.18-.39,.2-.84,.7-.82,.72-2.68,3.88-4.97,7.76-7.36,11.69-2.35,3.93-4.67,7.88-6.87,11.9,2.84-3.6,5.6-7.25,8.34-10.91,2.6-3.47,5.22-7.05,7.81-10.41,.27,.23,.57,.53,.85,.86,.68,.78,1.33,1.68,1.95,2.59,1.27,1.82,2.47,3.73,3.63,5.67,2.3,3.89,4.55,7.85,6.7,11.82l1.36,2.51,1.84-2.2c3.33-3.98,6.58-8.01,9.83-12.05,2.94-3.59,5.79-7.26,8.67-10.91,4.25,3.25,8.51,6.49,12.82,9.66,4.77,3.51,9.56,6.99,14.48,10.32-4.28-4.11-8.69-8.07-13.12-12Zm-48.67-6.74l.02-.02c.1-.14,.07-.06-.02,.02Z"/></g><g><path class="cls-7" d="M249.88,312.1c-4.28-4.11-8.69-8.07-13.12-12-4.43-3.93-8.92-7.79-13.42-11.63l-1.25-1.07-1.11,1.31c-3.35,3.96-6.75,7.88-10.03,11.89-2.71,3.27-5.42,6.54-8.09,9.84-1.8-3.18-3.66-6.31-5.66-9.38-1.27-1.93-2.56-3.86-3.99-5.73-.73-.93-1.48-1.85-2.35-2.74-.45-.45-.9-.89-1.54-1.33-.36-.21-.68-.46-1.4-.59-.26-.08-.91,0-1.28,.18-.39,.2-.84,.7-.82,.72-2.68,3.88-4.97,7.76-7.36,11.69-2.35,3.93-4.67,7.88-6.87,11.9,2.84-3.6,5.6-7.25,8.34-10.91,2.6-3.47,5.22-7.05,7.81-10.41,.27,.23,.57,.53,.85,.86,.68,.78,1.33,1.68,1.95,2.59,1.27,1.82,2.47,3.73,3.63,5.67,2.3,3.89,4.55,7.85,6.7,11.82l1.36,2.51,1.84-2.2c3.33-3.98,6.58-8.02,9.83-12.05,2.94-3.59,5.79-7.26,8.67-10.91,4.25,3.25,8.51,6.49,12.82,9.66,4.77,3.51,9.56,6.99,14.48,10.32Zm-61.79-18.74l.02-.02c.1-.14,.07-.06-.02,.02Z"/><path class="cls-7" d="M288.98,329.56c-4.43-3.93-8.92-7.79-13.42-11.63l-1.25-1.07-1.11,1.31c-3.35,3.96-6.75,7.88-10.03,11.89-2.71,3.27-5.42,6.54-8.09,9.84-1.8-3.18-3.66-6.31-5.66-9.38-1.27-1.93-2.56-3.86-3.99-5.73-.73-.93-1.48-1.85-2.35-2.74-.45-.45-.9-.89-1.54-1.33-.36-.21-.68-.46-1.4-.59-.26-.08-.91,0-1.28,.18-.39,.2-.84,.7-.82,.72-2.68,3.88-4.97,7.76-7.36,11.69-2.35,3.93-4.67,7.88-6.87,11.9,2.84-3.6,5.6-7.25,8.34-10.91,2.6-3.47,5.22-7.05,7.81-10.41,.27,.23,.57,.53,.85,.86,.68,.78,1.33,1.68,1.95,2.59,1.27,1.82,2.47,3.73,3.63,5.67,2.3,3.89,4.55,7.85,6.7,11.82l1.36,2.51,1.84-2.2c3.33-3.98,6.58-8.01,9.83-12.05,2.94-3.59,5.79-7.26,8.67-10.91,4.25,3.25,8.51,6.49,12.82,9.66,4.77,3.51,9.56,6.99,14.48,10.32-4.28-4.11-8.69-8.07-13.12-12Zm-48.67-6.74l.02-.02c.1-.14,.07-.06-.02,.02Z"/></g></g><g class="cls-10"><path class="cls-13" d="M138.14,56.89l-11.83,273.57-70.59-3.67,7.14-190.95-18.36,18.77L10.63,114.01l62.22-61.41,65.28,4.28Z"/><path class="cls-13" d="M295.23,49.34c11.69,0,23.02,1.67,33.97,5,10.95,3.34,21.18,8.06,30.7,14.18,9.52,6.12,18.26,13.46,26.22,22.03,7.96,8.57,14.76,18.09,20.4,28.56,5.64,10.48,10.03,21.73,13.16,33.76,3.13,12.04,4.69,24.58,4.69,37.64s-1.56,25.57-4.69,37.54c-3.13,11.97-7.52,23.12-13.16,33.46-5.64,10.34-12.44,19.76-20.4,28.25-7.96,8.5-16.7,15.78-26.22,21.83-9.52,6.05-19.76,10.71-30.7,13.98-10.95,3.26-22.27,4.89-33.97,4.89s-23.23-1.63-34.17-4.89c-10.95-3.26-21.22-7.92-30.81-13.98-9.59-6.05-18.36-13.33-26.32-21.83-7.96-8.5-14.76-17.92-20.4-28.25-5.64-10.33-10.03-21.49-13.16-33.46-3.13-11.97-4.69-24.48-4.69-37.54s1.56-25.6,4.69-37.64c3.13-12.04,7.51-23.29,13.16-33.76,5.64-10.47,12.44-19.99,20.4-28.56,7.95-8.57,16.73-15.91,26.32-22.03,9.59-6.12,19.86-10.84,30.81-14.18,10.95-3.33,22.34-5,34.17-5Zm0,230.53c6.53,0,13.39-1.56,20.6-4.69,7.21-3.13,13.87-7.72,19.99-13.77,6.12-6.05,11.18-13.57,15.2-22.54,4.01-8.98,6.02-19.38,6.02-31.22s-1.77-22.1-5.31-31.21c-3.54-9.11-8.23-16.79-14.08-23.05-5.85-6.25-12.44-11.02-19.79-14.28-7.34-3.26-14.89-4.9-22.64-4.9s-15.51,1.63-22.85,4.9c-7.34,3.26-13.87,8.03-19.58,14.28-5.71,6.26-10.3,13.94-13.77,23.05-3.47,9.11-5.2,19.52-5.2,31.21s1.9,22.24,5.71,31.22c3.81,8.97,8.7,16.49,14.69,22.54,5.98,6.05,12.58,10.64,19.79,13.77,7.21,3.13,14.28,4.69,21.22,4.69Z"/></g><g><path class="cls-7" d="M106.84,52.42c-5.46-.73-11.01-1.38-16.61-2.02-5.59-.64-11.23-1.31-16.9-1.86l-1.67-.16-1.46,1.33c-10.77,9.83-21.48,19.72-32.12,29.68-10.69,9.91-21.2,20-31.81,30l-4.31,4.06,3.89,4.74c11.17,13.63,22.16,27.41,33.51,40.89l4.98,5.91,5.36-5.51,6.05-6.22c-.62,25.95-1.3,51.89-1.71,77.84l-.48,95.59v2.39l2.25,.07c11.78,.35,23.55,.87,35.31,1.43,11.76,.67,23.52,1.31,35.27,2.28l2.37,.19,.17-2.5c1.53-22.9,3.77-45.96,5.5-69.21,1.73-23.23,2.88-46.57,3.38-69.61,.35-11.55,.64-23.08,.8-34.51,.24-11.47,.35-22.85,.44-34.17,.15-22.61,.18-44.99-.21-66.62l-32-4.03Zm24.9,75.07c-.9,11.48-1.78,22.9-2.52,34.22-.83,11.36-1.52,22.64-2.16,33.88-1.47,22.56-2.3,44.82-2.54,67.18-.23,21.56,0,43.3-.38,65.19-10.95-.28-21.88-.8-32.81-1.31-10.96-.61-21.92-1.28-32.87-2.07l6.5-93.07c1.88-31.8,3.33-63.62,5.01-95.42l.96-18.11-12.8,13.02-13.03,13.25c-8.42-10.05-16.95-20-25.46-29.97,8.75-9,17.53-17.97,26.19-27.05,9.72-10.11,19.36-20.29,28.95-30.52,4.56,.12,9.14,.17,13.76,.24l16.03,.12,33.29,.25c-2.36,23.97-4.3,47.19-6.12,70.17Z"/><path class="cls-7" d="M391.6,90.28c-25.2-26.34-60.6-41.76-96.16-41.59-35.57-.33-71.03,14.99-96.46,41.17-25.85,26.06-39.79,63.15-40.04,100.01-.53,36.95,13.28,74.07,38.25,101.37,12.4,13.63,27.47,24.95,44.36,32.4,16.81,7.51,35.35,10.99,53.51,10.4,9.08-.22,18.14-1.42,26.92-3.64,8.77-2.26,17.26-5.37,25.36-9.28,16.2-7.88,30.6-19.05,42.69-32.27,6.08-6.6,11.57-13.76,16.38-21.37,4.88-7.57,9.05-15.64,12.46-24.02,6.86-16.72,10.72-34.93,11.14-53.19,.94-36.55-12.81-73.83-38.4-99.98Zm26.27,125.58c-1.17,8.47-3.16,16.88-5.82,25.08-2.67,8.2-6.09,16.17-10.25,23.78-4.23,7.57-9.22,14.73-14.93,21.3-11.46,13.08-25.57,23.99-41.41,31.08-15.82,7.22-33.25,10.35-50.38,9.78-17.21-.53-33.93-5.14-49.07-12.73-15.11-7.61-28.58-18.32-39.65-31.08-11.06-12.75-19.55-27.64-25.09-43.56-2.73-7.98-4.96-16.16-6.37-24.42-1.44-8.29-2.01-16.72-2.04-25.18-.07-8.46,.58-16.9,1.98-25.21,1.4-8.29,3.61-16.51,6.3-24.54,5.57-15.98,13.53-31.22,24.26-44.61,10.75-13.32,24.05-24.98,39.54-33.02,7.7-4.09,15.97-7.15,24.44-9.36,8.51-2.12,17.29-3.09,26.07-3.2,8.78,.08,17.57,1.05,26.08,3.17,8.47,2.22,16.75,5.27,24.44,9.39,15.47,8.09,28.7,19.85,39.5,33.16,5.39,6.68,10,13.9,14.14,21.33,2.05,3.73,3.92,7.56,5.61,11.46,1.76,3.87,3.34,7.82,4.75,11.83,2.75,8.05,5.09,16.26,6.59,24.59,1.45,8.35,2.43,16.82,2.58,25.37,.21,8.54-.09,17.1-1.28,25.58Z"/><path class="cls-7" d="M356.84,179.53c-3.54-8.58-8.12-16.55-13.99-23.57-11.54-13.99-28.39-24.1-47.38-25.32-9.38-.59-19.13,1.05-27.89,5.06-8.85,3.99-16.55,10.25-22.67,17.75-6.15,7.57-10.55,16.09-13.64,25.23-3.08,9.18-4.19,18.76-4.19,28.1,.05,9.36,1.25,18.96,4.48,28.09,.81,2.27,1.78,4.51,2.83,6.68,1.07,2.1,2.23,4.17,3.47,6.18,2.45,4.05,5.4,7.81,8.65,11.25,13.22,13.55,31.06,21.36,48.94,21.55,9.01-.07,17.76-2.56,26.09-6.16,8.29-3.79,16.04-8.96,22.63-15.77,3.23-3.42,6.17-7.14,8.65-11.14,1.25-1.99,2.38-4.05,3.44-6.14,1.05-2.17,2.01-4.39,2.8-6.66,3.2-9.1,4.14-18.71,3.65-27.96-.53-9.24-2.36-18.52-5.84-27.16Zm-5.04,27.25c-.35,8.39-1.42,16.56-3.75,24.27-.58,1.93-1.21,3.83-1.97,5.7-.74,1.94-1.58,3.84-2.44,5.73-1.75,3.75-3.65,7.45-5.97,10.91-4.55,6.89-10.51,13.39-17.75,18.04-7.21,4.67-15.77,7.81-24.49,7.8-8.73-.02-17.3-2.99-24.54-7.61-7.24-4.59-13.19-11.09-17.6-18.02-2.24-3.48-4.05-7.21-5.71-10.97-.81-1.89-1.54-3.83-2.21-5.78-.69-1.9-1.25-3.8-1.76-5.74-2.06-7.74-2.79-15.93-2.61-24.21,.13-8.3,1.12-16.46,3.28-24.17,2.24-7.68,5.73-15.28,10.37-21.71,4.69-6.45,10.74-11.95,17.66-15.96,6.99-4,14.84-6.72,23.15-7.25,8.24-.59,16.8,.97,24.48,4.67,7.67,3.64,14.48,9.29,19.6,16.12,5.07,6.86,8.53,14.94,10.43,23.14,1.87,8.22,2.2,16.67,1.83,25.07Z"/></g></g></g></g></g></svg>