<?xml version="1.0" encoding="UTF-8"?><svg xmlns="http://www.w3.org/2000/svg" viewBox="0 0 445.81 373.98"><defs><style>.cls-1{mix-blend-mode:overlay;opacity:.84;}.cls-2{fill:#eeb980;}.cls-3{fill:#fff;}.cls-4,.cls-5{fill:#ffeab6;}.cls-6{fill:#993429;}.cls-7,.cls-8{fill:#aa784f;}.cls-9{fill:#840414;}.cls-10{fill:#ba492c;stroke:#533e38;stroke-miterlimit:10;stroke-width:.25px;}.cls-11{fill:#a15542;opacity:.26;}.cls-11,.cls-12{mix-blend-mode:multiply;}.cls-12{fill:#ad0000;opacity:.69;}.cls-8{fill-rule:evenodd;opacity:.32;}.cls-13{isolation:isolate;}.cls-14{fill:#c48a57;opacity:.55;}.cls-5{opacity:.29;}.cls-15{fill:#d8a16a;}.cls-15,.cls-16{opacity:.63;}.cls-16{fill:#a57142;}</style></defs><g class="cls-13"><g id="Layer_2"><g id="Layer_8"><g><g><g><path class="cls-11" d="M217.45,373.07c1.86-.02,3.75-.03,5.64-.05l2.91-.1-2.68-140.85V7.15l-14.97-1.09-.74,12.17-4.74-12.57-4.62-.34L3.2,34.12l3.74,11.1,6.76,5.31-5.76-2.35,.07,.21-.89,84.06,.53,10.7H27.4l-19.6,8.18-3.04,10.46,.55,18.28,14.59,3.94-14.35,4.04,.05,1.48s2.83,123.23,2.83,135.94c0,10.81-3.78,40.02-4.9,48.51l28.45-1.42,2.61-5.45,3.59,5.45,104.06-1.17,11.74-24.13-2.44,24.51h3.91l3.59-10.69,3.42,9.92,11.58,1.17s4.08-10.12,5.22-10.9c1.14-.78,0,10.7,0,10.7l38.21,1.1Z"/><path class="cls-2" d="M154.22,344.79l-11.74,24.13-104.06,1.17-3.59-5.45-2.61,5.45-31.15,1.56s5.87-62.07,3.75-114.8c-2.12-52.73-1.96-70.44-1.96-70.44l17.29-4.86-17.29-4.67,1.47-26.46,23.32-9.73H4.34L1.08,42.81l12.88,5.25L1.08,37.94,.26,2.53s140.58-.39,170.43,0c29.84,.39,32.13-.17,32.13-.17l5.06,13.4,.82-13.4,103.06,3.09,4.73,21.99,4.4-22.57L445,0l-2.45,43.2-13.54,6.61,13.05-1.75-1.79,44.17,.65,49.81-4.24,7.98,5.06,12.65-1.63,99.24-10.93,6.42,9.46,7,7.17,98.46-35.88-1.56-3.43-13.43-2.77,12.65-76.01-5.84-13.86,2.14-9.13-9.15-6.2,9.34-78.6,2.72-40.44-1.17s1.14-11.48,0-10.7c-1.14,.78-5.22,10.9-5.22,10.9l-11.58-1.17-3.43-9.92-3.59,10.7h-3.91l2.45-24.52Z"/><path class="cls-15" d="M223.32,229.6V2.8l-14.9-.45-.81,13.4-5.06-13.4s-2.28,.56-32.13,.17C140.58,2.14,0,2.53,0,2.53L.82,37.94l12.88,10.12L.82,42.81l3.26,97.87H27.4l-23.32,9.73-1.47,26.46,17.29,4.67-17.29,4.86s-.16,17.71,1.96,70.44c2.12,52.73-3.75,114.8-3.75,114.8l31.15-1.56,2.61-5.45,3.59,5.45,104.06-1.17,11.74-24.13-2.44,24.52h3.91l3.59-10.7,3.42,9.92,11.58,1.17s4.08-10.12,5.22-10.9c1.14-.78,0,10.7,0,10.7l40.44,1.17,6.32-.22-2.68-140.85Z"/><path class="cls-14" d="M.26,2.53l.82,35.41,12.88,10.12L1.08,42.81l.7,20.99,10.55-7.76L93.25,2.36C49.21,2.38,.26,2.53,.26,2.53Z"/><polygon class="cls-5" points="327.73 365.61 403.74 371.45 406.51 358.8 409.93 372.23 445.81 373.78 438.74 276.84 325.97 365.88 327.73 365.61"/><g class="cls-1"><polygon class="cls-4" points="208.85 17.71 209.66 4.3 312.16 7.38 311.75 5.45 208.69 2.36 207.9 15.2 208.85 17.71"/><polygon class="cls-4" points="22.99 142.63 4.34 150.41 2.87 176.87 3.94 177.16 5.32 152.36 28.64 142.63 22.99 142.63"/><path class="cls-4" d="M2.03,38.69L1.24,4.48s140.58-.39,170.43,0c25.43,.33,30.85-.03,31.89-.14l-.75-1.98s-2.28,.56-32.13,.17C140.85,2.14,.26,2.53,.26,2.53l.82,35.41,.95,.75Z"/><polygon class="cls-4" points="317.46 29.38 321.86 6.81 444.88 1.99 445 0 320.88 4.86 316.74 26.07 317.46 29.38"/><polygon class="cls-4" points="438.64 275.33 431.07 269.73 430.16 270.27 438.73 276.62 438.64 275.33"/><polygon class="cls-4" points="441.97 50.15 442.06 48.06 435.85 48.89 429.99 51.76 441.97 50.15"/><polygon class="cls-4" points="407.49 360.75 407.26 361.76 409.93 372.23 410.42 372.25 407.49 360.75"/><polygon class="cls-4" points="160.25 360.55 160.1 361 162.7 368.53 163.02 368.56 160.25 360.55"/><path class="cls-4" d="M180.64,369.54c.27-3.23,.67-9.37-.17-8.79-.13,.09-.29,.29-.47,.57,0,3.18-.51,8.19-.51,8.19l1.15,.03Z"/><path class="cls-4" d="M5.81,258.79c-2.12-52.73-1.96-70.44-1.96-70.44l17.29-4.86-4.03-1.09-14.24,4.01s-.16,17.71,1.96,70.44c2.12,52.73-3.75,114.8-3.75,114.8l1.16-.06c.97-11.03,5.47-65.65,3.57-112.8Z"/><polygon class="cls-4" points="4.34 140.68 5.25 140.68 2.06 44.75 14.94 50.01 10.84 46.79 1.08 42.81 4.34 140.68"/><polygon class="cls-4" points="155.2 346.74 153.72 349.77 151.77 369.31 152.94 369.31 155.2 346.74"/></g><polygon class="cls-16" points="223.04 14.69 223.58 95.73 223.04 288.36 225.89 364.56 225.89 179.01 223.04 14.69"/><polygon class="cls-16" points="21.14 184.52 112.12 183.48 343.41 183.2 443.96 179.43 220.63 180.32 21.14 184.52"/><polygon class="cls-16" points="438.73 276.62 325.97 365.03 384.82 327.28 438.73 276.62"/><polygon class="cls-16" points="89.41 4.9 1.52 63.8 44.07 37.62 54.08 47.48 45.46 36.06 89.41 4.9"/><polygon class="cls-5" points="437.66 296.28 443.96 371.64 412.65 368.4 406.13 354.39 401.13 368.14 380.47 366.5 437.66 296.28"/></g><path class="cls-8" d="M363.64,77.03c-13.89-20.11-32.46-42.14-40.45-32.86-7.99,9.29-9.46,30.14-32.32,22.26-22.86-7.88-41.32-17.82-62.04-10.22-20.73,7.61-26.48,16.88-39.15,36.43-12.67,19.55-16.19,26.97-39.76,31.32-23.58,4.35-53.6,21.59-65.05,39.97-11.45,18.38-19.43,73.93-19.43,73.93,0,0,19.02,35.28,32.48,34.84,13.46-.44,23.39-17.22,39.15-10.56,15.76,6.66,44.26,3.46,26.55,18.88-17.7,15.42-46.81,15.27-51.01,25.97-4.2,10.7-12.43,27.65,4.68,32.16,17.11,4.51,36.57-15.27,54.48-15.75,17.91-.47,12.23,25.88,49.04,9.82,36.81-16.05,47.92-22.35,43.51-44.54-4.4-22.19-22.3-29.11,10.83-49.26,33.13-20.15,50.21-20.49,56.07-48.54,5.85-28.04,7.72-25.43,20.03-28.47,12.31-3.03,29.66-18,35.38-36.43,5.72-18.43-23-48.98-23-48.98Z"/><g><g><path class="cls-9" d="M92.56,106.99l1.51-1.72s-.56,.61-1.51,1.72Z"/><path class="cls-9" d="M170.57,184.67c1.33,.23,2.7,.52,4.08,.87l.52-2.07c-1.43-.36-2.86-.66-4.23-.9l-.36,2.1Z"/><path class="cls-9" d="M186.52,189.6c1.29,.57,2.54,1.19,3.7,1.83l1.04-1.87c-1.22-.68-2.52-1.32-3.87-1.92l-.86,1.95Z"/><path class="cls-9" d="M162.28,181.83l.02,2.14h.54c1.17,0,2.38,.05,3.6,.16l.18-2.13c-1.27-.11-2.54-.17-3.77-.17h-.58Z"/><path class="cls-9" d="M178.68,186.67c1.28,.4,2.6,.86,3.97,1.37l.75-2c-1.4-.52-2.75-.99-4.07-1.4l-.64,2.04Z"/><path class="cls-9" d="M130.95,194.99l1.15,1.8c1.19-.76,2.38-1.55,3.57-2.35l-1.19-1.77c-1.18,.79-2.35,1.57-3.53,2.32Z"/><path class="cls-9" d="M138.03,190.32l1.17,1.79c1.16-.76,2.35-1.51,3.56-2.23l-1.09-1.84c-1.24,.73-2.45,1.5-3.64,2.28Z"/><path class="cls-9" d="M145.47,185.97l.95,1.92c1.29-.64,2.53-1.18,3.8-1.65l-.75-2c-1.33,.5-2.63,1.06-3.99,1.73Z"/><path class="cls-9" d="M153.63,182.94l.52,2.07c1.31-.33,2.68-.58,4.05-.76l-.27-2.12c-1.45,.18-2.9,.45-4.3,.8Z"/><path class="cls-9" d="M213.19,238.45l-2.1,.37c.25,1.4,.52,2.81,.82,4.21l2.09-.45c-.3-1.38-.57-2.75-.81-4.13Z"/><path class="cls-9" d="M210.73,221.63l-2.11,.34c.22,1.38,.42,2.78,.62,4.18l2.12-.3c-.2-1.42-.4-2.83-.62-4.23Z"/><path class="cls-9" d="M211.92,230.08l-2.12,.29c.19,1.4,.38,2.81,.6,4.23l2.11-.32c-.21-1.4-.4-2.81-.59-4.2Z"/><path class="cls-9" d="M193.72,193.61c1.13,.8,2.21,1.65,3.2,2.54l1.43-1.59c-1.06-.95-2.2-1.86-3.41-2.71l-1.23,1.75Z"/><path class="cls-9" d="M214.99,246.65l-2.06,.56c.38,1.38,.79,2.75,1.26,4.12l2.02-.69c-.45-1.33-.86-2.66-1.22-3.99Z"/><path class="cls-9" d="M199.77,199.08c.88,1.03,1.69,2.14,2.42,3.28l1.8-1.15c-.78-1.23-1.66-2.41-2.6-3.51l-1.63,1.38Z"/><path class="cls-9" d="M209.01,213.21l-2.07,.54c.35,1.34,.66,2.7,.93,4.08l2.1-.41c-.28-1.43-.6-2.83-.96-4.21Z"/><path class="cls-9" d="M206.1,205.03l-1.93,.92c.57,1.19,1.09,2.48,1.57,3.82l2.02-.71c-.5-1.41-1.05-2.76-1.65-4.02Z"/><path class="cls-9" d="M73.12,139.98l-1.97-.81c-.55,1.33-1.06,2.67-1.54,4.02l2.02,.71c.47-1.32,.97-2.63,1.5-3.92Z"/><path class="cls-9" d="M68.26,164.33l-2.13,.13c.09,1.49,.26,2.95,.5,4.34l2.1-.37c-.23-1.31-.39-2.69-.47-4.1Z"/><path class="cls-9" d="M67.65,173.05c.43,1.4,.95,2.78,1.55,4.1l1.95-.89c-.56-1.24-1.05-2.53-1.45-3.84l-2.05,.63Z"/><path class="cls-9" d="M71.26,181.02c.76,1.23,1.61,2.43,2.53,3.57l1.67-1.34c-.87-1.07-1.67-2.21-2.38-3.36l-1.82,1.12Z"/><path class="cls-9" d="M68.61,156.05l-2.12-.28c-.19,1.47-.33,2.93-.39,4.33l2.14,.09c.06-1.34,.18-2.73,.37-4.14Z"/><path class="cls-9" d="M72.87,135.23l1.94,.91c.6-1.28,1.22-2.54,1.86-3.78l-1.9-.98c-.65,1.26-1.29,2.54-1.9,3.85Z"/><path class="cls-9" d="M123.65,198.96l.84,1.97c1.27-.54,2.55-1.17,3.91-1.92l-1.04-1.87c-1.29,.71-2.5,1.31-3.71,1.83Z"/><path class="cls-9" d="M80.81,125.02l-1.82-1.11c-.73,1.19-1.46,2.43-2.18,3.7l1.86,1.05c.71-1.24,1.42-2.46,2.14-3.63Z"/><path class="cls-9" d="M215.74,255.37c.57,1.34,1.2,2.65,1.86,3.91l1.89-.99c-.63-1.2-1.23-2.47-1.78-3.75l-1.97,.84Z"/><path class="cls-9" d="M70.34,147.89l-2.05-.59c-.4,1.4-.76,2.81-1.05,4.2l2.09,.45c.29-1.33,.63-2.7,1.02-4.05Z"/><path class="cls-9" d="M90.92,197.64c1.35,.66,2.65,1.26,3.91,1.8l.84-1.97c-1.23-.52-2.5-1.11-3.81-1.75l-.95,1.92Z"/><path class="cls-9" d="M98.86,201.01c1.42,.49,2.82,.92,4.16,1.26l.53-2.07c-1.28-.33-2.62-.73-3.98-1.2l-.71,2.02Z"/><path class="cls-9" d="M76.71,187.84c1,.99,2.09,1.97,3.24,2.91l1.35-1.66c-1.1-.9-2.14-1.83-3.08-2.77l-1.51,1.52Z"/><path class="cls-9" d="M115.78,201.14l.27,2.12c1.45-.18,2.9-.48,4.31-.87l-.58-2.06c-1.31,.37-2.65,.64-4,.81Z"/><path class="cls-9" d="M86.21,113.27l1.72,1.27c.92-1.23,1.78-2.35,2.57-3.35l-1.67-1.33c-.8,1.01-1.68,2.15-2.61,3.4Z"/><path class="cls-9" d="M83.7,116.74c-.79,1.12-1.59,2.31-2.41,3.55l1.79,1.17c.8-1.22,1.59-2.39,2.37-3.49l-1.75-1.23Z"/><path class="cls-9" d="M83.44,193.33c1.16,.79,2.4,1.56,3.67,2.29l1.06-1.85c-1.23-.71-2.42-1.45-3.54-2.21l-1.2,1.77Z"/><path class="cls-9" d="M107.29,203.13c1.48,.21,2.95,.34,4.37,.37l.04-2.14c-1.33-.03-2.7-.14-4.1-.34l-.31,2.12Z"/><path class="cls-9" d="M302.97,210.88c1.41,.09,2.8,.22,4.16,.38l.25-2.12c-1.4-.17-2.83-.3-4.29-.39l-.13,2.13Z"/><path class="cls-9" d="M341.38,225.67c1.1,.87,2.18,1.77,3.23,2.69l1.41-1.61c-1.08-.95-2.19-1.87-3.32-2.76l-1.32,1.68Z"/><path class="cls-9" d="M347.7,231.21c1.01,.98,1.99,1.98,2.95,3l1.56-1.46c-.98-1.05-1.99-2.07-3.02-3.07l-1.49,1.53Z"/><path class="cls-9" d="M353.46,237.36c.91,1.07,1.8,2.15,2.67,3.25l1.68-1.32c-.88-1.13-1.79-2.23-2.73-3.32l-1.62,1.39Z"/><path class="cls-9" d="M319.38,213.9c1.34,.42,2.65,.89,3.94,1.38l.77-2c-1.33-.51-2.69-.99-4.07-1.42l-.64,2.04Z"/><path class="cls-9" d="M219.77,263.01c.76,1.19,1.6,2.38,2.48,3.54l1.7-1.29c-.85-1.11-1.65-2.26-2.38-3.4l-1.8,1.15Z"/><path class="cls-9" d="M327.16,216.91c1.27,.59,2.52,1.21,3.74,1.87l1.01-1.88c-1.26-.68-2.54-1.32-3.86-1.92l-.89,1.94Z"/><path class="cls-9" d="M358.66,243.97c.83,1.14,1.63,2.3,2.41,3.46l1.77-1.19c-.79-1.18-1.61-2.36-2.45-3.52l-1.73,1.25Z"/><path class="cls-9" d="M334.53,220.87c1.19,.74,2.35,1.51,3.49,2.3l1.23-1.75c-1.17-.82-2.37-1.61-3.6-2.37l-1.12,1.82Z"/><path class="cls-9" d="M382.41,288.95l-2.05,.62c.43,1.42,.82,2.78,1.18,4.07l2.06-.57c-.36-1.31-.76-2.68-1.19-4.12Z"/><path class="cls-9" d="M384.69,297.21l-2.07,.52c.39,1.54,.71,2.92,.99,4.12l2.08-.47c-.27-1.22-.6-2.62-1-4.17Z"/><path class="cls-9" d="M379.75,280.8l-2.02,.71c.48,1.37,.93,2.71,1.36,4.01l2.03-.66c-.43-1.32-.89-2.67-1.38-4.06Z"/><path class="cls-9" d="M363.36,250.97c.75,1.2,1.47,2.41,2.16,3.62l1.85-1.06c-.71-1.24-1.44-2.46-2.2-3.68l-1.82,1.13Z"/><path class="cls-9" d="M369.47,257.27l-1.88,1.01c.67,1.25,1.32,2.5,1.94,3.75l1.91-.96c-.63-1.26-1.29-2.54-1.97-3.81Z"/><path class="cls-9" d="M373.3,264.94l-1.94,.9c.6,1.29,1.18,2.58,1.74,3.86l1.96-.86c-.56-1.29-1.15-2.59-1.76-3.9Z"/><path class="cls-9" d="M376.72,272.79l-1.98,.8c.54,1.33,1.05,2.65,1.54,3.94l2-.75c-.49-1.31-1.01-2.64-1.56-3.99Z"/><path class="cls-9" d="M311.27,211.9c1.39,.25,2.75,.55,4.08,.88l.51-2.07c-1.38-.34-2.78-.65-4.21-.91l-.38,2.1Z"/><path class="cls-9" d="M254.34,286.62l-.81,1.98c.91,.37,1.83,.74,2.78,1.1,.52,.2,1.04,.32,1.56,.35l.15-2.13c-.3-.02-.62-.09-.94-.22-.93-.36-1.85-.72-2.74-1.08Z"/><path class="cls-9" d="M260.9,286.62l1.48,1.54c.93-.89,1.82-2.07,2.71-3.63l-1.85-1.07c-.78,1.35-1.57,2.42-2.34,3.16Z"/><path class="cls-9" d="M294.28,209.46l.87,1.95c1-.45,2.04-.67,3.09-.67h.56l.02-2.14h-.58c-1.35,0-2.68,.29-3.96,.85Z"/><path class="cls-9" d="M265.08,279.76l1.96,.85c.54-1.24,1.07-2.59,1.6-4.02l-2.01-.73c-.51,1.39-1.02,2.7-1.55,3.9Z"/><path class="cls-9" d="M245.72,285.06c1.24,.63,2.53,1.24,3.87,1.85l.88-1.95c-1.31-.59-2.57-1.2-3.79-1.81l-.96,1.91Z"/><path class="cls-9" d="M238.24,280.84c1.18,.74,2.4,1.48,3.69,2.2l1.05-1.86c-1.25-.71-2.45-1.42-3.59-2.15l-1.14,1.81Z"/><path class="cls-9" d="M225.01,269.88c.95,1.05,1.96,2.09,3.01,3.09l1.47-1.55c-1.02-.97-1.99-1.97-2.9-2.97l-1.59,1.43Z"/><path class="cls-9" d="M231.26,275.82c1.08,.88,2.21,1.76,3.41,2.62l1.25-1.74c-1.16-.83-2.26-1.68-3.31-2.54l-1.35,1.65Z"/><path class="cls-9" d="M268.01,271.86l2.03,.66c.43-1.32,.85-2.68,1.28-4.09l-2.05-.62c-.42,1.39-.84,2.74-1.27,4.05Z"/><path class="cls-9" d="M283.38,223.01l1.94,.89c.62-1.34,1.25-2.6,1.87-3.74l-1.87-1.03c-.65,1.18-1.31,2.49-1.95,3.87Z"/><path class="cls-9" d="M270.47,263.74l2.05,.59c.39-1.35,.77-2.72,1.16-4.11l-2.06-.57c-.39,1.38-.77,2.75-1.16,4.09Z"/><path class="cls-9" d="M287.64,215.42l1.74,1.24c.86-1.2,1.74-2.24,2.61-3.07l-1.47-1.55c-.97,.92-1.94,2.06-2.88,3.38Z"/><path class="cls-9" d="M280.16,230.99l2.01,.72c.49-1.35,.99-2.67,1.49-3.95l-1.98-.8c-.52,1.3-1.03,2.64-1.52,4.02Z"/><path class="cls-9" d="M277.47,239.13l2.04,.63c.42-1.37,.85-2.72,1.29-4.04l-2.03-.67c-.44,1.34-.87,2.7-1.3,4.08Z"/><polygon class="cls-9" points="272.76 255.54 274.83 256.11 275.96 252.01 273.9 251.43 272.76 255.54"/><path class="cls-9" d="M275.05,247.33l2.06,.58c.39-1.37,.78-2.73,1.18-4.08l-2.05-.61c-.4,1.36-.8,2.73-1.19,4.11Z"/><path class="cls-9" d="M385.31,304.75l.42,2.25s-.13-.8-.42-2.25Z"/></g><g><path class="cls-3" d="M59.11,85.82l12.26-.2s-1.41,0-3.07-1.53c-1.67-1.51-1.6-5.24-1.6-5.24,0,0-7.85-1.4-9.36-1.9-1.52-.51-2.24-3.46-6.68-4.75-4.45-1.29-6.42,.63-5.33,4.79,1.1,4.17,.25,4.6-1.35,5.69-1.6,1.09-5.03,2.85-.55,6.29,4.47,3.44,8.69-.39,11.04-1.45,2.34-1.07,4.65-1.68,4.65-1.68Z"/><path class="cls-3" d="M77.5,92.74s.02,.09,.02,.11c.18-.13,.29-.21,.29-.21l-.32,.09Z"/><path class="cls-3" d="M77.53,92.85c-1.3,.9-6.39,4.41-7.33,5.01-1.08,.68-1.73,1.05-7.51,1.13-5.77,.09-8.79,6.2-7.79,7.73,1,1.55,5.78,3.09,6.55,5.24,.77,2.15-.07,6.53,3.71,5.57,3.79-.97,4.48-8.77,4.48-8.77l11.19-10.88s-1.01-.75-2.02-2.02c-.92-1.16-1.23-2.72-1.28-3.02Z"/><path class="cls-3" d="M129.42,56.7c-1.94-.03-2.88,.09-4.29-3.98-1.42-4.05-4.12-4.56-7.09-1.01-2.97,3.54-1.94,6.39-2.91,7.66-.98,1.26-6.73,6.79-6.73,6.79,0,0,2.13,3.06,1.61,5.25-.55,2.19-1.71,2.98-1.71,2.98l10.29-6.66s2.27-.77,4.81-1.2c2.54-.41,8.17,.43,9.98-4.92,1.81-5.34-2.01-4.91-3.96-4.91Z"/><path class="cls-3" d="M122.96,80.68c-4.84,3.14-5.59,3.2-6.87,3.24-1.12,.03-7.29-.07-8.88-.1,.12,.28,.72,1.75,.61,3.22-.12,1.63-.55,2.81-.55,2.81l15.36,2.82s4.9,6.08,8.59,4.77c3.69-1.29,.55-4.48,0-6.68-.55-2.2,2.57-6.15,2.53-7.98-.03-1.85-5.94-5.24-10.78-2.1Z"/><path class="cls-3" d="M106.84,83.82s.14,0,.37,0c0-.03-.05-.11-.05-.11l-.33,.11Z"/><path class="cls-3" d="M105.67,77.08c-.67,.66-1.73,1.5-2.73,1.37-1.62-.2-.86,1.71-.29,3.64,.59,1.94-.49,3.16-.49,3.16,0,0-.76-2.2-.87-3-.1-.8-2.22-3.24-2.94-5.49-.73-2.24,3.71-.2,4.95,.08,.8,.18,1.79-.24,2.4-.57,0-.13,0-.2,0-.2,1.66-1.2,3.61-5.24,2.38-7.25-1.23-2-1.05-3.72-1.33-9.57-.28-5.86-7.17-14.34-13.07-17.81-5.91-3.49-15.53,.22-15.53,.22,0,0-10.05,2.28-13.01,8.45-2.97,6.18-3.98,17.06-.95,22.08,3.02,5.02,4.13,6.35,4.24,8.7,.09,2.36,3.94,4.61,6,4.7,0,0,.04,.06,.12,.16,.69-.07,1.75-.27,2.31-.86,.86-.92,3.43-5.09,4.08-2.83,.64,2.27,.24,5.48,.6,6.21,.34,.73,.95,2.97,.95,2.97,0,0-1.57-.4-2.17-2.34-.57-1.93-1.02-3.97-2.25-2.89-.76,.66-2.1,.57-3.03,.38,.91,1.22,2.54,3.49,3.06,4.59,.74,1.53,1.66,6.88,7.13,7.52,5.47,.62,4.69,.95,6.37,.34,1.66-.58,2.88-1.22,3.2-1.32l.32-.1,.33-.09c.32-.09,1.69-.25,3.4-.69,1.72-.43,.88-.27,5.09-3.82,4.19-3.58,1.98-8.54,1.74-10.22-.18-1.2-.08-4-.01-5.51Zm-27.08-.26c-3.57,1.93-4.57-.46-5.11-3.12-.55-2.66-.47-3.96,2.85-6.04,3.33-2.07,5.6-1.29,6.13,.59,1.29,4.69-.31,6.63-3.87,8.57Zm13.32,3.52c-1.01,.13-1.67,.02-1.94,.14-.3,.05-.77,.5-1.69,.96-.92,.46-1.53-.98-1.31-2.12,.23-1.13-.08-5.52,.09-6.24,.09-.32,.3-.47,.51-.52,.2-.07,.45-.08,.7,.15,.54,.49,2.73,4.32,3.54,5.13,.82,.81,1.11,2.35,.09,2.48Zm-2.49-14.21c-.61-1.86,.85-3.76,4.76-3.88,3.91-.14,4.7,.91,5.73,3.42,1.03,2.51,1.55,5.07-2.5,5.44-4.05,.37-6.45-.34-7.98-4.97Z"/></g><g><path class="cls-10" d="M430.66,298.23c-6.1-.83-11.89-.51-17.61,.08-3.87,.44-7.67,1.16-11.45,1.98-1.15-3.68-2.42-7.33-3.97-10.9-2.33-5.26-4.93-10.45-8.68-15.33-.82,6.1-.5,11.89,.09,17.62,.44,3.87,1.15,7.67,1.97,11.44-3.67,1.16-7.33,2.43-10.91,3.97-5.25,2.34-10.43,4.94-15.32,8.68,6.1,.83,11.9,.5,17.62-.08,3.86-.45,7.66-1.16,11.43-1.98,1.16,3.68,2.42,7.33,3.97,10.91,2.32,5.26,4.93,10.44,8.69,15.32,.84-6.1,.52-11.9-.07-17.62-.44-3.87-1.15-7.67-1.97-11.43,3.67-1.15,7.31-2.43,10.9-3.96,5.25-2.33,10.44-4.93,15.31-8.7Z"/><path class="cls-6" d="M430.66,298.23c-.85-.12-1.7-.16-2.55-.23-3.35,2.17-18.27,7.8-27.52,10.16-11.16,2.86-22,4.02-33.54,6.03-.76,.52-1.51,1.01-2.26,1.58,6.1,.83,11.9,.5,17.62-.08,3.86-.45,7.66-1.16,11.43-1.98,1.16,3.68,2.42,7.33,3.97,10.91,2.32,5.26,4.93,10.44,8.69,15.32,.84-6.1,.52-11.9-.07-17.62-.44-3.87-1.15-7.67-1.97-11.43,3.67-1.15,7.31-2.43,10.9-3.96,5.25-2.33,10.44-4.93,15.31-8.7Z"/></g></g><g><path class="cls-7" d="M355.83,63.8c-4.28-4.11-8.69-8.07-13.12-12-4.43-3.93-8.92-7.79-13.42-11.63l-1.25-1.07-1.11,1.31c-3.35,3.96-6.75,7.88-10.03,11.89-2.71,3.27-5.42,6.54-8.09,9.84-1.8-3.18-3.66-6.31-5.66-9.38-1.27-1.93-2.56-3.86-3.99-5.73-.73-.93-1.48-1.85-2.35-2.74-.45-.45-.9-.89-1.54-1.33-.36-.21-.68-.46-1.4-.59-.26-.08-.91,0-1.28,.18-.39,.2-.84,.7-.82,.72-2.68,3.88-4.97,7.76-7.36,11.69-2.35,3.93-4.67,7.88-6.87,11.9,2.84-3.6,5.6-7.25,8.34-10.91,2.6-3.47,5.22-7.05,7.81-10.41,.27,.23,.57,.53,.85,.86,.68,.78,1.33,1.68,1.95,2.59,1.27,1.82,2.47,3.73,3.63,5.67,2.3,3.89,4.55,7.85,6.7,11.82l1.36,2.51,1.84-2.2c3.33-3.98,6.58-8.02,9.83-12.05,2.94-3.59,5.79-7.26,8.67-10.91,4.25,3.25,8.51,6.49,12.82,9.66,4.77,3.51,9.56,6.99,14.48,10.32Zm-61.79-18.74l.02-.02c.1-.14,.07-.06-.02,.02Z"/><path class="cls-7" d="M394.93,81.26c-4.43-3.93-8.92-7.79-13.42-11.63l-1.25-1.07-1.11,1.31c-3.35,3.96-6.75,7.88-10.03,11.89-2.71,3.27-5.42,6.54-8.09,9.84-1.8-3.18-3.65-6.31-5.66-9.38-1.27-1.93-2.56-3.86-3.99-5.73-.73-.93-1.48-1.85-2.35-2.74-.45-.45-.9-.89-1.54-1.33-.36-.21-.68-.46-1.4-.59-.26-.08-.91,0-1.28,.18-.39,.2-.84,.7-.82,.72-2.68,3.88-4.97,7.76-7.36,11.69-2.35,3.93-4.67,7.88-6.87,11.9,2.84-3.6,5.6-7.25,8.34-10.91,2.6-3.47,5.22-7.05,7.81-10.41,.27,.23,.57,.53,.85,.86,.68,.78,1.33,1.68,1.95,2.59,1.27,1.82,2.47,3.73,3.63,5.67,2.3,3.89,4.55,7.85,6.7,11.82l1.36,2.51,1.84-2.2c3.33-3.98,6.58-8.01,9.83-12.05,2.94-3.59,5.79-7.26,8.67-10.91,4.25,3.25,8.51,6.49,12.82,9.66,4.77,3.51,9.56,6.99,14.48,10.32-4.28-4.11-8.69-8.07-13.12-12Zm-48.67-6.74l.02-.02c.1-.14,.07-.06-.02,.02Z"/></g><g><path class="cls-7" d="M249.88,312.1c-4.28-4.11-8.69-8.07-13.12-12-4.43-3.93-8.92-7.79-13.42-11.63l-1.25-1.07-1.11,1.31c-3.35,3.96-6.75,7.88-10.03,11.89-2.71,3.27-5.42,6.54-8.09,9.84-1.8-3.18-3.66-6.31-5.66-9.38-1.27-1.93-2.56-3.86-3.99-5.73-.73-.93-1.48-1.85-2.35-2.74-.45-.45-.9-.89-1.54-1.33-.36-.21-.68-.46-1.4-.59-.26-.08-.91,0-1.28,.18-.39,.2-.84,.7-.82,.72-2.68,3.88-4.97,7.76-7.36,11.69-2.35,3.93-4.67,7.88-6.87,11.9,2.84-3.6,5.6-7.25,8.34-10.91,2.6-3.47,5.22-7.05,7.81-10.41,.27,.23,.57,.53,.85,.86,.68,.78,1.33,1.68,1.95,2.59,1.27,1.82,2.47,3.73,3.63,5.67,2.3,3.89,4.55,7.85,6.7,11.82l1.36,2.51,1.84-2.2c3.33-3.98,6.58-8.02,9.83-12.05,2.94-3.59,5.79-7.26,8.67-10.91,4.25,3.25,8.51,6.49,12.82,9.66,4.77,3.51,9.56,6.99,14.48,10.32Zm-61.79-18.74l.02-.02c.1-.14,.07-.06-.02,.02Z"/><path class="cls-7" d="M288.98,329.56c-4.43-3.93-8.92-7.79-13.42-11.63l-1.25-1.07-1.11,1.31c-3.35,3.96-6.75,7.88-10.03,11.89-2.71,3.27-5.42,6.54-8.09,9.84-1.8-3.18-3.65-6.31-5.66-9.38-1.27-1.93-2.56-3.86-3.99-5.73-.73-.93-1.48-1.85-2.35-2.74-.45-.45-.9-.89-1.54-1.33-.36-.21-.68-.46-1.4-.59-.26-.08-.91,0-1.28,.18-.39,.2-.84,.7-.82,.72-2.68,3.88-4.97,7.76-7.36,11.69-2.35,3.93-4.67,7.88-6.87,11.9,2.84-3.6,5.6-7.25,8.34-10.91,2.6-3.47,5.22-7.05,7.81-10.41,.27,.23,.57,.53,.85,.86,.68,.78,1.33,1.68,1.95,2.59,1.27,1.82,2.47,3.73,3.63,5.67,2.3,3.89,4.55,7.85,6.7,11.82l1.36,2.51,1.84-2.2c3.33-3.98,6.58-8.01,9.83-12.05,2.94-3.59,5.79-7.26,8.67-10.91,4.25,3.25,8.51,6.49,12.82,9.66,4.77,3.51,9.56,6.99,14.48,10.32-4.28-4.11-8.69-8.07-13.12-12Zm-48.67-6.74l.02-.02c.1-.14,.07-.06-.02,.02Z"/></g></g><path class="cls-12" d="M270.55,247.49h-92.77l-28.56,85.05-72.55-20.01L185.92,33.61l60.24,3.96,113.2,270.58-56.49,20.64-32.31-81.3Zm-16.26-36.27l-36.27-84.84-28.14,84.84h64.41Z"/><g><path class="cls-7" d="M270.24,247.95l-46.77,1.81c-15.39,.58-30.56,1.03-45.69,1.36l3.44-2.47c-4.48,14.27-8.93,28.55-13.54,42.77-4.56,14.24-9.14,28.48-13.85,42.67l-1.44,4.35-4.45-1.21c-12.1-3.29-24.24-6.45-36.31-9.86-12.09-3.35-24.17-6.72-36.2-10.26l-5.12-1.51,1.96-4.8c9.44-23.11,19.24-46.08,28.87-69.12,9.7-23.01,19.38-46.03,28.53-69.25,9.28-23.17,18.16-46.5,26.96-69.87l25.85-70.3,.9-2.45,2.79,.11c20.12,.79,40.21,1.89,60.31,2.89l2.87,.14,1.22,2.78c9.83,22.38,19.31,44.91,28.98,67.36,9.6,22.48,19.34,44.9,28.72,67.47,9.54,22.51,18.73,45.15,28.01,67.76l27.33,68.05,1.83,4.55-4.5,1.56-28.42,9.86-28.51,9.61-3.19,1.08-1.09-2.99c-4.9-13.42-9.92-26.81-14.72-40.53l-14.78-41.55Zm.63-.93l17.53,39.75c5.97,13.38,11.71,27.09,17.59,40.77l-4.28-1.92,27.99-11.03,28.08-10.78-2.67,6.11-29.27-67.24c-9.58-22.49-19.25-44.94-28.58-67.53-9.49-22.53-18.62-45.2-27.88-67.82-9.19-22.65-18.58-45.22-27.61-67.93l4.09,2.92c-20.06-1.63-40.13-3.18-60.17-5.03l3.69-2.34-28.77,69.16c-9.41,23.12-18.73,46.28-27.66,69.59-9.06,23.26-17.58,46.73-26.09,70.21-8.57,23.45-16.98,46.97-25.75,70.34l-3.16-6.31c12.15,3.13,24.25,6.43,36.34,9.75,12.11,3.27,24.15,6.78,36.23,10.16l-5.9,3.14c4.81-14.16,9.75-28.27,14.71-42.38,4.9-14.13,9.97-28.2,15.01-42.28l.9-2.53,2.54,.05c15.8,.33,31.55,.77,47.08,1.36l46,1.81Z"/><path class="cls-7" d="M253.82,210.91l-12.13-22.2c-3.8-7.02-7.25-13.71-10.48-20.36-3.34-6.65-5.9-13.19-8.04-20.08-2.11-6.88-4.12-14.1-6.82-21.18l3.37-.14c-2.61,6.98-4.71,14.13-6.55,21.37l-5.08,21.86c-1.77,7.26-3.92,14.4-5.96,21.57-2.1,7.15-4.15,14.32-6.57,21.36l-5.7-7.89c9.9,.04,19.64,.9,30.07,2.02l16.22,1.84,17.66,1.84Zm.93,.62l-14.55,1.84c-5.11,.63-10.45,1.3-15.99,1.84-11.05,1.13-22.78,1.98-34.35,2.02l-8.23,.03,2.53-7.92c2.27-7.1,4.91-14.07,7.5-21.06,2.65-6.97,5.19-13.97,8.12-20.85l8.99-20.56c2.86-6.9,5.45-13.89,7.52-21.05l1.31-4.51,2.07,4.37c3.34,7.06,7.38,13.98,11.31,21.24,3.91,7.24,7.39,14.84,10.1,22.34,2.82,7.49,5.42,14.94,7.66,22.06,2.28,7.12,4.36,14.01,6.01,20.22Z"/></g></g></g></g></g></svg>