<?xml version="1.0" encoding="UTF-8"?><svg xmlns="http://www.w3.org/2000/svg" xmlns:xlink="http://www.w3.org/1999/xlink" viewBox="0 0 364.96 442.43"><defs><style>.cls-1{mask:url(#mask-11);}.cls-2{mask:url(#mask-10);}.cls-3{fill:url(#linear-gradient);}.cls-4{filter:url(#luminosity-noclip-6);}.cls-5{filter:url(#luminosity-noclip-8);}.cls-6{filter:url(#luminosity-noclip-4);}.cls-7,.cls-8,.cls-9{mix-blend-mode:overlay;}.cls-7,.cls-9{opacity:.91;}.cls-10{mask:url(#mask);}.cls-11{filter:url(#luminosity-noclip-2);}.cls-12{fill:#010414;}.cls-13{fill:#fff;}.cls-14{fill:#f5c15e;}.cls-15{fill:#d39d3b;}.cls-16{fill:#201600;}.cls-17{fill:#593c12;}.cls-18{filter:url(#luminosity-noclip-10);}.cls-19{filter:url(#luminosity-noclip-12);}.cls-20{fill:url(#linear-gradient-6);}.cls-20,.cls-21,.cls-22,.cls-23,.cls-24,.cls-25{mix-blend-mode:multiply;}.cls-21{fill:url(#linear-gradient-8);}.cls-22{fill:url(#linear-gradient-4);}.cls-23{fill:url(#linear-gradient-2);}.cls-8{fill:url(#linear-gradient-9);}.cls-26{fill:url(#linear-gradient-7);}.cls-27{fill:url(#linear-gradient-5);}.cls-28{opacity:.3;}.cls-29{opacity:.35;}.cls-30{opacity:.54;}.cls-9{fill:url(#linear-gradient-3);}.cls-31{fill:url(#linear-gradient-14);}.cls-32{fill:url(#linear-gradient-13);}.cls-33{fill:url(#linear-gradient-11);}.cls-34{isolation:isolate;}.cls-24{fill:url(#linear-gradient-12);}.cls-25{fill:url(#linear-gradient-10);}.cls-35{mask:url(#mask-3);}.cls-36{mask:url(#mask-2);}.cls-37{mask:url(#mask-5);}.cls-38{mask:url(#mask-4);}.cls-39{mask:url(#mask-1);}.cls-40{mask:url(#mask-7);}.cls-41{mask:url(#mask-6);}.cls-42{mask:url(#mask-8);}.cls-43{mask:url(#mask-9);}</style><linearGradient id="linear-gradient" x1="64.06" y1="55.39" x2="278.11" y2="389.42" gradientTransform="matrix(1, 0, 0, 1, 0, 0)" gradientUnits="userSpaceOnUse"><stop offset=".05" stop-color="#d3d3d3"/><stop offset="1" stop-color="#444468"/></linearGradient><filter id="luminosity-noclip-2" x="89.49" y="9.3" width="82.73" height="82.73" color-interpolation-filters="sRGB" filterUnits="userSpaceOnUse"><feFlood flood-color="#fff" result="bg"/><feBlend in="SourceGraphic" in2="bg"/></filter><filter id="luminosity-noclip-3" x="89.49" y="-8928.05" width="82.73" height="32766" color-interpolation-filters="sRGB" filterUnits="userSpaceOnUse"><feFlood flood-color="#fff" result="bg"/><feBlend in="SourceGraphic" in2="bg"/></filter><mask id="mask-1" x="89.49" y="-8928.05" width="82.73" height="32766" maskUnits="userSpaceOnUse"/><linearGradient id="linear-gradient-2" x1="143.97" y1="69.83" x2="124.1" y2="40.79" gradientTransform="translate(74.15 -77.69) rotate(45)" gradientUnits="userSpaceOnUse"><stop offset="0" stop-color="#000"/><stop offset=".98" stop-color="#fff"/></linearGradient><mask id="mask" x="89.49" y="9.3" width="82.73" height="82.73" maskUnits="userSpaceOnUse"><g class="cls-11"><g class="cls-39"><circle class="cls-23" cx="130.86" cy="50.67" r="41.37" transform="translate(2.5 107.37) rotate(-45)"/></g></g></mask><linearGradient id="linear-gradient-3" x1="143.97" y1="69.83" x2="124.1" y2="40.79" gradientTransform="translate(74.15 -77.69) rotate(45)" gradientUnits="userSpaceOnUse"><stop offset="0" stop-color="#fff"/><stop offset=".98" stop-color="#fff"/></linearGradient><filter id="luminosity-noclip-4" x="94.31" y="24.62" width="23.01" height="50.64" color-interpolation-filters="sRGB" filterUnits="userSpaceOnUse"><feFlood flood-color="#fff" result="bg"/><feBlend in="SourceGraphic" in2="bg"/></filter><filter id="luminosity-noclip-5" x="94.31" y="-8928.05" width="23.01" height="32766" color-interpolation-filters="sRGB" filterUnits="userSpaceOnUse"><feFlood flood-color="#fff" result="bg"/><feBlend in="SourceGraphic" in2="bg"/></filter><mask id="mask-3" x="94.31" y="-8928.05" width="23.01" height="32766" maskUnits="userSpaceOnUse"/><linearGradient id="linear-gradient-4" x1="115.79" y1="59.92" x2="105.8" y2="45.31" gradientTransform="matrix(1, 0, 0, 1, 0, 0)" xlink:href="#linear-gradient-2"/><mask id="mask-2" x="94.31" y="24.62" width="23.01" height="50.64" maskUnits="userSpaceOnUse"><g class="cls-6"><g class="cls-35"><path class="cls-22" d="M109.46,25.22c-12.6,5.51-22.5,32.38-7.84,45.67,14.66,13.29,8.18-7.16,12.27-16.36,4.09-9.2,6.48-34.08-4.43-29.31Z"/></g></g></mask><linearGradient id="linear-gradient-5" x1="115.79" y1="59.92" x2="105.8" y2="45.31" gradientTransform="matrix(1, 0, 0, 1, 0, 0)" xlink:href="#linear-gradient-3"/><filter id="luminosity-noclip-6" x="123.76" y="14.01" width="23.48" height="15" color-interpolation-filters="sRGB" filterUnits="userSpaceOnUse"><feFlood flood-color="#fff" result="bg"/><feBlend in="SourceGraphic" in2="bg"/></filter><filter id="luminosity-noclip-7" x="123.76" y="-8928.05" width="23.48" height="32766" color-interpolation-filters="sRGB" filterUnits="userSpaceOnUse"><feFlood flood-color="#fff" result="bg"/><feBlend in="SourceGraphic" in2="bg"/></filter><mask id="mask-5" x="123.76" y="-8928.05" width="23.48" height="32766" maskUnits="userSpaceOnUse"/><linearGradient id="linear-gradient-6" x1="137.99" y1="25.37" x2="133.65" y2="19.02" gradientTransform="matrix(1, 0, 0, 1, 0, 0)" xlink:href="#linear-gradient-2"/><mask id="mask-4" x="123.76" y="14.01" width="23.48" height="15" maskUnits="userSpaceOnUse"><g class="cls-4"><g class="cls-37"><path class="cls-20" d="M136.38,14.31c-13.4-2.55-17.53,11.59-5.52,14.32,12,2.73,27-10.23,5.52-14.32Z"/></g></g></mask><linearGradient id="linear-gradient-7" x1="137.99" y1="25.37" x2="133.65" y2="19.02" gradientTransform="matrix(1, 0, 0, 1, 0, 0)" xlink:href="#linear-gradient-3"/><filter id="luminosity-noclip-8" x="31.03" y="60" width="228.86" height="77.28" color-interpolation-filters="sRGB" filterUnits="userSpaceOnUse"><feFlood flood-color="#fff" result="bg"/><feBlend in="SourceGraphic" in2="bg"/></filter><filter id="luminosity-noclip-9" x="31.03" y="-8928.05" width="228.86" height="32766" color-interpolation-filters="sRGB" filterUnits="userSpaceOnUse"><feFlood flood-color="#fff" result="bg"/><feBlend in="SourceGraphic" in2="bg"/></filter><mask id="mask-7" x="31.03" y="-8928.05" width="228.86" height="32766" maskUnits="userSpaceOnUse"/><linearGradient id="linear-gradient-8" x1="56.88" y1="131.1" x2="274" y2="63.95" gradientTransform="matrix(1, 0, 0, 1, 0, 0)" gradientUnits="userSpaceOnUse"><stop offset="0" stop-color="#dadada"/><stop offset=".54" stop-color="#000"/><stop offset=".98" stop-color="#fff"/></linearGradient><mask id="mask-6" x="31.03" y="60" width="228.86" height="77.28" maskUnits="userSpaceOnUse"><g class="cls-5"><g class="cls-40"><path class="cls-21" d="M109.46,103.62c-2.41-.05-27.26-2.1-50.79,7.16-23.52,9.26-28.07,19.49-27.61,25.56,.46,6.07,42.65-19.43,63.25-18.41,20.6,1.02,51.61,7.84,66.95,.68,15.34-7.16,51.74-41.99,79.76-43.35,28.02-1.36,19.79-9.69,7.5-14.25-12.29-4.56-43.29,6.82-71.92,23.18-28.63,16.36-53.83,19.68-67.15,19.43Z"/></g></g></mask><linearGradient id="linear-gradient-9" x1="56.88" y1="131.1" x2="274" y2="63.95" gradientTransform="matrix(1, 0, 0, 1, 0, 0)" gradientUnits="userSpaceOnUse"><stop offset="0" stop-color="#fff"/><stop offset=".54" stop-color="#fff"/><stop offset=".98" stop-color="#fff"/></linearGradient><filter id="luminosity-noclip-10" x="21.69" y="249.54" width="154.37" height="113.47" color-interpolation-filters="sRGB" filterUnits="userSpaceOnUse"><feFlood flood-color="#fff" result="bg"/><feBlend in="SourceGraphic" in2="bg"/></filter><filter id="luminosity-noclip-11" x="21.69" y="-8928.05" width="154.37" height="32766" color-interpolation-filters="sRGB" filterUnits="userSpaceOnUse"><feFlood flood-color="#fff" result="bg"/><feBlend in="SourceGraphic" in2="bg"/></filter><mask id="mask-9" x="21.69" y="-8928.05" width="154.37" height="32766" maskUnits="userSpaceOnUse"/><linearGradient id="linear-gradient-10" x1="134.52" y1="369.09" x2="94.98" y2="266.84" gradientTransform="matrix(1, 0, 0, 1, 0, 0)" xlink:href="#linear-gradient-2"/><mask id="mask-8" x="21.69" y="249.54" width="154.37" height="113.47" maskUnits="userSpaceOnUse"><g class="cls-18"><g class="cls-43"><path class="cls-25" d="M172.96,300.51c-2.52,31.57-9.95,42.98-30.59,40.25-13.36-1.77-23.25-5.28-30.54-8.38-15.65-6.8-33.49-19.12-35.94-21.36-5.11-5.07-3.09-3.92-5.66-6.56,2.52-3.15,9.85-7.6,5.46-17.02-.02-2.04-.56-4.23-1.95-6.57-7.49-12.59-45.52-34.46-51.1-30.95,0,0,0,.01,0,.01-.16,.06-.39,.06-.52,.14,0,0-.02,.04-.03,.04-.13,.03-.26,.05-.39,.07,8.43,17.39,29.49,57.9,50.61,75.33,27.27,22.5,72.26,47.04,93.39,33.74,13.79-8.67,11.03-41.43,7.45-63.15-.02,1.56-.08,3.05-.19,4.42Z"/></g></g></mask><linearGradient id="linear-gradient-11" x1="134.52" y1="369.09" x2="94.98" y2="266.84" gradientTransform="matrix(1, 0, 0, 1, 0, 0)" xlink:href="#linear-gradient-3"/><filter id="luminosity-noclip-12" x="237.06" y="162.48" width="97.81" height="165.93" color-interpolation-filters="sRGB" filterUnits="userSpaceOnUse"><feFlood flood-color="#fff" result="bg"/><feBlend in="SourceGraphic" in2="bg"/></filter><filter id="luminosity-noclip-13" x="237.06" y="-8928.05" width="97.81" height="32766" color-interpolation-filters="sRGB" filterUnits="userSpaceOnUse"><feFlood flood-color="#fff" result="bg"/><feBlend in="SourceGraphic" in2="bg"/></filter><mask id="mask-11" x="237.06" y="-8928.05" width="97.81" height="32766" maskUnits="userSpaceOnUse"/><linearGradient id="linear-gradient-12" x1="312.39" y1="300.31" x2="272.86" y2="198.06" gradientTransform="matrix(1, 0, 0, 1, 0, 0)" xlink:href="#linear-gradient-2"/><mask id="mask-10" x="237.06" y="162.48" width="97.81" height="165.93" maskUnits="userSpaceOnUse"><g class="cls-19"><g class="cls-1"><path class="cls-24" d="M331.3,162.48h0c-.27,0-.57,.08-.89,.2-6.94,1.19-27.12,38.7-26.89,53.1,0,.38,.07,.71,.1,1.08,.03,.4,.06,.81,.11,1.18,.05,.27,.11,.53,.17,.79,.12,.53,.25,1.04,.42,1.52,.04,.12,.08,.24,.13,.35,0,.03,.02,.06,.03,.09,.03,.24,.05,.48,.07,.72,.02,.39,.05,.79,.11,1.15,.05,.28,.1,.54,.17,.82,.1,.52,.24,1,.41,1.46,.05,.13,.1,.27,.14,.4,2.66,6.83,10.58,8.47,14.97,9.57,0-.03,.01-.05,0-.09,.71,.18,1.34,.35,1.85,.52-.17,1.54-.47,3.5-.97,5.9-1.62,4.01-3.87,9.24-11.03,22.85-5.98,11.39-13.48,21.73-29.57,37.56-7.7,7.57-15.09,9.52-21.79,8.04-.99-.21-1.98-.53-2.96-.91-.31-.13-.63-.26-.94-.41-.87-.39-1.74-.87-2.61-1.39-.38-.24-.74-.45-1.13-.69-.82-.55-1.65-1.21-2.49-1.87-.92-.75-1.85-1.57-2.8-2.45-.57-.53-1.14-1.04-1.73-1.63-.96-.98-1.94-2.05-2.94-3.17-.2-.22-.41-.44-.61-.68-1.16-1.33-2.35-2.78-3.57-4.31,10.51,16.86,28.53,32.07,41.79,35.69,18.75,5.11,41.24-28.29,51.47-69.19,8.19-32.78,3.26-79.1,.97-96.22Z"/></g></g></mask><linearGradient id="linear-gradient-13" x1="312.39" y1="300.31" x2="272.86" y2="198.06" gradientTransform="matrix(1, 0, 0, 1, 0, 0)" xlink:href="#linear-gradient-3"/><linearGradient id="linear-gradient-14" x1="331.02" y1="304.11" x2="209.68" y2="140.5" xlink:href="#linear-gradient"/></defs><g class="cls-34"><g id="Layer_2"><g id="Layer_2-2"><g><g><path class="cls-16" d="M364.67,222.66c.07-1.88-.11-4.13-.54-6.85l-.16-1.01c-.38-2.13-.94-4.62-1.62-7.19-1.26-5.89-3.27-11.92-5.74-17.31-.64-1.54-1.28-2.99-1.86-4.2-4.22-9.44-11.02-21.58-19.7-26.46l-.14-.43-1.18-.35c-.2-.09-.39-.16-.59-.21l-.88-.49h-.06l-4.8,1.63c-10.8,6.96-27.86,42.58-27.64,56.05,0,.41,.04,.78,.09,1.15l.05,.49c.03,.4,.07,.8,.14,1.28,.06,.33,.13,.65,.2,.94,.14,.67,.32,1.31,.56,2.01v.14c.05,.51,.08,1.02,.17,1.55,.06,.35,.13,.68,.18,.9,.13,.68,.32,1.35,.58,2.07l.17,.49c3.07,7.87,11.04,10.35,16.05,11.62-.09,.52-.2,1.06-.31,1.6-1.53,3.77-3.83,9.03-10.72,22.14-5.35,10.18-12.3,20.29-28.82,36.55-6.04,5.94-12.11,8.28-18.06,6.96-.72-.16-1.51-.4-2.22-.68l-.26-.11c-.17-.07-.33-.14-.63-.28-.61-.27-1.3-.64-2.07-1.1l-1.07-.65c-.66-.44-1.33-.97-2.01-1.51l-.16-.12c-.85-.7-1.71-1.45-2.61-2.29l-.35-.32c-.41-.38-.83-.76-1.24-1.17-.92-.94-1.85-1.97-2.94-3.17l-.45-.49c-3.7-4.25-7.95-9.85-13.36-17.61-7.69-13.04-15.21-27.88-21.71-42.79-2.71-6.84-5.42-14.26-8.04-21.97l-1.03-3.34c-1.46-4.78-2.75-9.06-3.82-12.6-1.27-4.27-2.52-8.54-3.74-12.81-.52-4.74-.7-9.86-.52-15.24,1.52-14.82,6.81-50.27,23.17-62.77,10.38-7.93,17.17-11.81,25.79-14.73,.23-.05,.44-.1,.64-.17,24.98-6.31,30.62-10.44,31.56-14.91l.1-.33c.3-1,.52-1.8,.56-2.57,.1-.7,.09-1.43-.01-2.14-.05-.35-.15-.73-.27-1.08-.07-.27-.15-.55-.29-.93-.21-.53-.48-1.08-.8-1.63l-.27-.48c-4.79-7.62-22.16-17.53-48.34-11.69-14.55,3.23-29.34,10.3-40.54,16.59,1.33-4.23,2.12-8.65,2.31-13.15,.02-.15,.03-.31,.04-.46,.74-2.09,.91-6.06-.19-13.83,.39-.95,.44-2.09-.07-3.33-.27-.66-.74-1.81-1.51-2.76l-.28-.54c-2.94-9.38-8.47-17.61-15.91-23.72-.14-.12-.28-.26-.41-.39-.29-.28-.58-.55-.91-.83-15.99-13.27-38.88-15.39-57.06-5.32-5.77,2.11-10.72,5.47-14.71,9.99-13.04,14.79-16.83,32.95-11.24,53.95,1.59,9.23,7.16,17.84,11.64,22.72,.15,.35,.4,.74,.76,1.2-11.7,.77-25.51,2.64-37.7,6.87-18.7,6.49-29.8,18.23-33.56,28.37l-1.21-.36-.11,5.37s0,.11,0,.29c-.25,2.21-.06,4.14,.58,5.75,.14,.87,.42,1.69,.82,2.44,.78,1.95,1.98,2.71,3.03,2.98,.99,.44,2.16,.66,3.5,.63,5.9,1.81,14.48,.55,26.86-3.9,11.59-2.55,22.01-3.31,31.84-2.32,6.98,.69,14.97,4.39,23.91,11.1l.63,.48c17.28,13.23,32.1,33.44,35.79,38.65,1.26,4.41,2.52,8.96,3.81,13.83,2.17,8.79,4.56,18.53,6.9,28.16,6.79,30.4,9.95,54.44,8.89,67.67-1.49,18.71-4.68,29.1-10.35,33.68-3.55,2.87-8.52,3.77-15.62,2.83-13.58-1.8-23.33-5.48-29.45-8.08-15.48-6.72-32.87-18.85-34.69-20.51-2.03-2.01-2.77-2.88-3.15-3.41,3.13-3.24,7.92-9.16,4.12-18.22-.18-2.64-1.01-5.23-2.49-7.72-7.23-12.15-36.75-29.83-49.14-32.81-2.97-.71-5.2-.69-6.94,.1-.11,.03-.24,.07-.37,.12-.43,.09-1.03,.25-1.65,.63-.31,.18-.62,.42-.92,.74l-1.91,1.54,.78,2.28c-.7,2.31-1.35,5.51-1.84,9.09-2.21,11.19-1.99,22.55,.68,33.76,1.72,9.75,4.86,17.39,7.21,22.12,3.18,7.3,5.81,10.96,8.91,12.33l1.01,.44c.9,.26,3.33,.95,8.14-1.67,4.73,5.93,16.8,20.61,32.88,36.7,19.91,19.91,34.6,31.3,68.99,46.14,1.48,.64,3.05,1.26,5.07,2.02,.16,.07,.33,.13,.49,.19,.29,.12,.58,.24,.84,.33,4.03,1.6,8.01,2.88,12.14,3.91l1.22,.3c.8,.19,1.61,.36,2.42,.53,.69,.14,1.4,.28,2.14,.41l.46,.09c.28,.06,.57,.11,.69,.13,17.57,3.66,33.08,3.72,41.02,3.41,.51,.09,.87,.18,1.13,.24,1.79,2.34,5.6,5.65,12.86,5.65,2.49,0,5.39-.39,8.74-1.34l2.23-.64c5.02-1.41,6.73-1.9,6.74-1.91l2.03-.58c14.41-4.09,16.11-12.59,16.17-16.11,0-.2,0-.45-.04-.73,1.42-1.34,4.87-4.16,13.15-9.74l.09-.06c2.86-1.8,5.77-3.78,8.58-5.85,17.7-12.37,30.47-24.9,47.26-55.61,.17-.32,.34-.64,.5-.96l.54-1.01c8.79-16.08,15.62-38.4,20.28-66.16,2.53-11.91,3.97-21.39,4.29-28.22,.81,0,1.77-.1,2.86-.41,.14-.04,.28-.07,.43-.1,6.63-1.46,7.45-7.21,6.58-15.41Zm-59.93-2.08h0Z"/><path class="cls-3" d="M360.57,222.79c.09-1.62-.07-3.72-.48-6.35-.05-.31-.09-.6-.14-.93-.36-2.01-.88-4.36-1.59-7.04-1.08-5.04-2.85-10.77-5.51-16.6-.61-1.47-1.22-2.86-1.82-4.11-5.16-11.56-11.68-21.32-18.46-24.83,0,0,.01,.05,.02,.06-.37-.41-.64-.54-.85-.38,0-.03-.02-.07-.03-.1-.02,0-.06-.03-.08-.03-.27,0-.57,.08-.89,.2-6.94,1.19-27.12,38.7-26.89,53.1,0,.38,.07,.71,.1,1.08,.03,.4,.06,.81,.11,1.18,.05,.27,.11,.53,.17,.79,.12,.53,.25,1.04,.42,1.52,.04,.12,.08,.24,.13,.35,.01,.03,.02,.06,.03,.09,.03,.24,.05,.48,.07,.72,.02,.39,.05,.79,.11,1.15,.05,.28,.1,.54,.17,.82,.1,.52,.24,1,.41,1.46,.05,.13,.1,.27,.14,.4,2.66,6.83,10.58,8.47,14.97,9.57,0-.03,.01-.05,.01-.09,.71,.18,1.33,.35,1.85,.52-.17,1.54-.47,3.5-.97,5.9-1.62,4.01-3.87,9.24-11.03,22.85-5.98,11.39-13.48,21.73-29.57,37.56-7.7,7.57-15.09,9.52-21.79,8.04-.99-.21-1.98-.53-2.96-.91-.31-.13-.63-.26-.94-.41-.87-.39-1.74-.87-2.61-1.39-.38-.24-.74-.45-1.13-.69-.82-.55-1.66-1.21-2.49-1.87-.92-.75-1.85-1.57-2.8-2.45-.57-.53-1.14-1.04-1.73-1.63-.96-.98-1.94-2.05-2.94-3.17-.21-.22-.41-.44-.61-.68-4.17-4.78-8.68-10.86-13.72-18.09-7.26-12.31-15.05-27.39-22.06-43.5-2.73-6.9-5.45-14.34-8.14-22.25-.35-1.11-.69-2.24-1.04-3.36-1.46-4.79-2.76-9.07-3.83-12.63-1.3-4.39-2.59-8.79-3.85-13.18-.62-5.45-.76-10.98-.58-16.31,1.92-18.84,7.71-52.71,24.77-65.74,10.11-7.72,17.5-12.18,27.26-15.45,.56-.07,.39-.06,.13-.03,15.22-3.82,28.3-8.14,29.13-12.06,.1-.4,.6-1.89,.54-2.28,.09-.4,.08-.8,.02-1.2-.03-.19-.12-.4-.17-.6-.04-.16-.09-.32-.14-.48-.14-.36-.33-.73-.55-1.11-.06-.1-.1-.2-.17-.3-4.12-6.54-20.06-15.21-44-9.88-19.75,4.39-40.02,16.08-50.94,23.08,4.89-7.31,7.41-15.61,7.75-23.95,.07-.54,.07-1.09,.12-1.63,1.22-.25-1.41-16.56-1.85-17.43-2.75-9.02-8.01-16.61-14.82-22.21-.42-.37-.8-.77-1.23-1.13-15.34-12.73-36.37-13.95-52.75-4.73-5.19,1.84-9.73,4.87-13.34,8.96-13.2,14.97-15.12,32.46-10.31,50.38,2.49,15.09,15.25,25.11,13.28,23.47-4.44-3.69,.15,.87,6.01,4.95-13.3,.24-31.68,1.7-47.24,7.09-21.39,7.43-30.72,21.42-32.07,29.61-.01,0-.06-.02-.06-.02,0,0,0,.17,0,.45-.24,1.85-.08,3.37,.48,4.41,.04,.7,.24,1.3,.56,1.82,.19,.55,.41,1.02,.38,.58,.57,.6,1.62,.76,2.99,.65,3.79,1.42,10.78,1.49,25.14-3.71,9.74-2.16,21.32-3.67,33.38-2.46,8.6,.86,17.48,5.53,25.81,11.78,.28,.21,.54,.41,.82,.62,18.36,14.06,33.82,35.5,37.04,40.11,1.4,4.86,2.74,9.75,4.04,14.63,2.17,8.8,4.56,18.54,6.92,28.25,6.39,28.62,10.14,54.37,8.98,68.88-2.52,31.57-9.95,42.98-30.59,40.25-13.36-1.77-23.25-5.28-30.54-8.38-15.65-6.8-33.49-19.12-35.94-21.36-5.11-5.07-3.09-3.92-5.66-6.56,2.52-3.15,9.85-7.6,5.46-17.02-.02-2.04-.56-4.23-1.95-6.57-7.49-12.59-45.52-34.46-51.1-30.95,0,0,0,.01,0,.01-.16,.06-.39,.06-.52,.14,0,0-.02,.04-.03,.04-.29,.06-.63,.09-.83,.22-.05,0-.09,.12-.14,.16,.09,.27,.2,.59,.3,.88-.67,1.77-1.5,5.21-2.13,9.78-2.39,11.97-1.56,23.01,.65,32.25,1.49,8.52,4.2,15.8,6.91,21.21,3.2,7.39,5.41,9.84,7.13,10.42,.07,.03,.15,.11,.2,.13,2.29,.65,6.34-2.04,7.57-2.89,.15-.02,.27-.1,.44-.07,.05,0,.12,.07,.21,.13,1.93,2.51,15.38,19.7,34.58,38.9,20.77,20.77,35.22,31.25,67.72,45.27,1.65,.72,3.32,1.36,4.97,1.98,.15,.07,.3,.12,.44,.17,.28,.12,.57,.23,.86,.34,4.07,1.61,7.87,2.8,11.66,3.75,.37,.1,.75,.19,1.15,.29,.76,.18,1.52,.34,2.28,.5,.66,.13,1.34,.26,2.06,.39,.42,.07,.83,.17,1.25,.24,17.97,3.74,33.81,3.59,40.46,3.31,2.72,.46,3.44,.88,3.62,1.16,.42,.62,4.07,7.43,17.7,3.57,.82-.24,1.57-.45,2.27-.65,5.04-1.42,6.73-1.91,6.73-1.91,.64-.18,1.28-.37,2.03-.58,13.63-3.86,13.16-11.58,13.2-12.32,.02-.75-5.49,.02,14.92-13.71,.02-.02,.04-.03,.06-.04,2.66-1.67,5.53-3.61,8.55-5.82,16.06-11.23,28.82-22.77,46.02-54.22,.24-.44,.46-.88,.69-1.32,.13-.22,.23-.42,.36-.65,10.67-19.52,16.52-45.1,19.87-65.05,3.36-15.83,4.22-24.7,4.27-29.68,.16-.88,.29-1.41,.4-1.5,1.28-1.09,2.64,.23,5.36-.52,2.17-.62,5.3-.02,4.03-11.45Z"/><g class="cls-30"><path d="M27.03,134.44s0,.17,0,.45c-.24,1.85-.08,3.37,.48,4.41,.04,.7,.24,1.3,.55,1.82,.19,.55,.41,1.02,.38,.58,.57,.6,1.62,.76,2.99,.65,3.79,1.42,10.78,1.49,25.14-3.71,9.74-2.16,21.32-3.67,33.38-2.46,8.6,.86,17.48,5.54,25.81,11.78,.28,.21,.54,.41,.82,.62,5.87,4.49,11.43,9.74,16.4,14.95-6.61-7.8-15.21-16.87-24.57-24.04-.28-.21-.54-.41-.82-.62-8.32-6.25-17.21-10.93-25.81-11.78-12.06-1.21-23.64,.3-33.38,2.46-10.45,3.78-16.98,4.77-21.23,4.49-.03,.14-.07,.3-.1,.44-.01,0-.06-.02-.06-.02Z"/><path d="M312.44,225.77c-1.99-.49-4.7-1.11-7.32-2.26,.1,.49,.23,.95,.39,1.39,.05,.13,.1,.27,.14,.4,1.43,3.68,4.4,5.85,7.51,7.24,.06-.15,.12-.3,.18-.44,.5-2.4,.8-4.36,.97-5.9-.52-.18-1.14-.35-1.85-.52,0,.04,0,.06-.01,.09Z"/><path d="M68.32,301.86c.45,.41,1.43,1.17,2.82,2.17,2.74-3.13,9.37-7.59,5.15-16.66-.02-2.04-.56-4.23-1.95-6.57-1.53-2.58-4.36-5.55-7.92-8.61,1.18,2.15,1.68,4.18,1.7,6.08,4.38,9.42-2.95,13.87-5.46,17.02,2.57,2.64,.55,1.49,5.66,6.57Z"/><path d="M261.34,62.46c.06,.4-.45,1.88-.54,2.28-.83,3.92-13.9,8.24-29.13,12.06,.27-.03,.44-.04-.13,.03-9.76,3.27-17.15,7.73-27.26,15.45-17.06,13.03-22.84,46.9-24.77,65.74-.18,5.33-.05,10.86,.58,16.31,1.26,4.39,2.54,8.79,3.85,13.18,1.07,3.56,2.37,7.84,3.83,12.63,.35,1.12,.69,2.25,1.04,3.36,2.69,7.91,5.41,15.35,8.14,22.25,7.01,16.1,14.8,31.19,22.06,43.5,5.04,7.23,9.55,13.3,13.72,18.09,.21,.23,.41,.45,.61,.68,1,1.12,1.98,2.19,2.94,3.17,.41,.41,.81,.78,1.21,1.15-3.2-4.01-6.62-8.68-10.31-13.99-7.26-12.31-15.05-27.4-22.06-43.5-2.73-6.9-5.45-14.34-8.14-22.25-.35-1.11-.69-2.24-1.04-3.36-1.46-4.79-2.76-9.07-3.83-12.63-1.3-4.39-2.59-8.79-3.85-13.18-.62-5.45-.76-10.98-.58-16.31,1.92-18.84,7.71-52.71,24.77-65.74,10.11-7.72,17.5-12.18,27.26-15.45,.56-.07,.39-.06,.13-.03,15.22-3.82,28.3-8.14,29.13-12.06,.1-.4,.6-1.89,.54-2.28,.09-.4,.08-.8,.02-1.2-.03-.19-.12-.4-.17-.6-.04-.16-.09-.32-.14-.48-.14-.36-.33-.73-.55-1.11-.06-.1-.1-.2-.17-.3-1.27-2.02-3.68-4.25-7.1-6.2,.01,.27,0,.54-.05,.81Z"/><path class="cls-12" d="M360.5,222.73c.09-1.62-.07-3.72-.48-6.35-.05-.31-.09-.6-.14-.93-.36-2.01-.88-4.36-1.59-7.04-1.08-5.04-2.85-10.77-5.51-16.6-.61-1.47-1.22-2.86-1.82-4.11-4.49-10.05-10-18.74-15.83-23.15,2.76,4.06,5.35,8.87,7.66,14.05,.6,1.25,1.2,2.64,1.82,4.11,2.66,5.82,4.43,11.56,5.51,16.6,.71,2.69,1.24,5.03,1.59,7.04,.06,.32,.09,.62,.14,.93,.41,2.62,.57,4.73,.48,6.35,1.26,11.44-1.86,10.83-4.04,11.45-2.72,.76-4.08-.56-5.36,.52-.11,.09-.24,.62-.4,1.5-.05,4.98-.91,13.85-4.27,29.68-3.35,19.94-9.2,45.52-19.87,65.04-.13,.23-.23,.42-.36,.65-.23,.44-.45,.89-.68,1.32-17.19,31.45-29.96,42.99-46.02,54.22-3.02,2.21-5.89,4.15-8.55,5.82-.02,.02-.04,.03-.06,.04-20.41,13.73-14.89,12.96-14.92,13.71-.04,.74,.43,8.46-13.2,12.32-.75,.21-1.39,.4-2.03,.58,0,0-1.7,.49-6.73,1.91-.7,.2-1.45,.41-2.27,.65-13.63,3.86-17.28-2.95-17.7-3.57-.18-.27-.89-.69-3.62-1.16-6.65,.28-22.5,.43-40.46-3.31-.42-.07-.83-.16-1.25-.24-.72-.13-1.39-.26-2.06-.39-.76-.16-1.52-.32-2.28-.5-.4-.09-.78-.19-1.15-.29-3.79-.95-7.59-2.14-11.66-3.75-.29-.11-.58-.22-.86-.34-.14-.05-.29-.1-.44-.17-1.65-.61-3.32-1.26-4.97-1.98-32.51-14.03-46.95-24.5-67.72-45.27-4.46-4.46-8.59-8.8-12.36-12.89,5.58,6.38,12.55,14,20.53,21.98,20.77,20.77,35.22,31.25,67.72,45.27,1.65,.72,3.32,1.36,4.97,1.98,.15,.07,.3,.12,.44,.17,.28,.12,.57,.23,.86,.34,4.07,1.61,7.87,2.8,11.66,3.75,.37,.1,.75,.19,1.15,.29,.76,.18,1.52,.34,2.28,.5,.66,.13,1.34,.26,2.06,.39,.42,.07,.83,.17,1.25,.24,17.97,3.74,33.81,3.59,40.46,3.31,2.72,.46,3.44,.88,3.62,1.16,.42,.62,4.07,7.43,17.7,3.57,.82-.24,1.57-.45,2.27-.65,5.03-1.42,6.73-1.91,6.73-1.91,.64-.18,1.28-.37,2.03-.58,13.63-3.86,13.16-11.58,13.2-12.32,.02-.75-5.49,.02,14.92-13.71,.02-.02,.04-.03,.06-.04,2.66-1.67,5.53-3.61,8.55-5.82,16.06-11.23,28.83-22.77,46.02-54.22,.24-.44,.46-.88,.69-1.32,.13-.22,.22-.42,.36-.65,10.67-19.52,16.52-45.1,19.87-65.05,3.36-15.83,4.22-24.7,4.27-29.68,.16-.88,.29-1.41,.4-1.5,1.28-1.09,2.64,.23,5.36-.52,2.17-.62,5.3-.02,4.03-11.45Z"/><path d="M34.83,313.18c-.09-.06-.16-.13-.21-.13-.17-.03-.29,.04-.44,.07-.99,.69-3.8,2.54-6.06,2.91,2.84,6.21,4.86,8.41,6.46,8.95,.07,.03,.15,.11,.2,.13,2.22,.63,6.06-1.86,7.43-2.8-4.02-4.81-6.62-8.13-7.38-9.13Z"/></g><g class="cls-10"><circle class="cls-9" cx="130.86" cy="50.67" r="41.37" transform="translate(2.5 107.37) rotate(-45)"/></g><g class="cls-36"><path class="cls-27" d="M109.46,25.22c-12.6,5.51-22.5,32.38-7.84,45.67,14.66,13.29,8.18-7.16,12.27-16.36,4.09-9.2,6.48-34.08-4.43-29.31Z"/></g><g class="cls-38"><path class="cls-26" d="M136.38,14.31c-13.4-2.55-17.53,11.59-5.52,14.32,12,2.73,27-10.23,5.52-14.32Z"/></g><g class="cls-41"><path class="cls-8" d="M109.46,103.62c-2.41-.05-27.26-2.1-50.79,7.16-23.52,9.26-28.07,19.49-27.61,25.56,.46,6.07,42.65-19.43,63.25-18.41,20.6,1.02,51.61,7.84,66.95,.68,15.34-7.16,51.74-41.99,79.76-43.35,28.02-1.36,19.79-9.69,7.5-14.25-12.29-4.56-43.29,6.82-71.92,23.18-28.63,16.36-53.83,19.68-67.15,19.43Z"/></g><g class="cls-7"><g class="cls-42"><path class="cls-33" d="M172.96,300.51c-2.52,31.57-9.95,42.98-30.59,40.25-13.36-1.77-23.25-5.28-30.54-8.38-15.65-6.8-33.49-19.12-35.94-21.36-5.11-5.07-3.09-3.92-5.66-6.56,2.52-3.15,9.85-7.6,5.46-17.02-.02-2.04-.56-4.23-1.95-6.57-7.49-12.59-45.52-34.46-51.1-30.95,0,0,0,.01,0,.01-.16,.06-.39,.06-.52,.14,0,0-.02,.04-.03,.04-.13,.03-.26,.05-.39,.07,8.43,17.39,29.49,57.9,50.61,75.33,27.27,22.5,72.26,47.04,93.39,33.74,13.79-8.67,11.03-41.43,7.45-63.15-.02,1.56-.08,3.05-.19,4.42Z"/></g><g class="cls-2"><path class="cls-32" d="M331.3,162.48h0c-.27,0-.57,.08-.89,.2-6.94,1.19-27.12,38.7-26.89,53.1,0,.38,.07,.71,.1,1.08,.03,.4,.06,.81,.11,1.18,.05,.27,.11,.53,.17,.79,.12,.53,.25,1.04,.42,1.52,.04,.12,.08,.24,.13,.35,0,.03,.02,.06,.03,.09,.03,.24,.05,.48,.07,.72,.02,.39,.05,.79,.11,1.15,.05,.28,.1,.54,.17,.82,.1,.52,.24,1,.41,1.46,.05,.13,.1,.27,.14,.4,2.66,6.83,10.58,8.47,14.97,9.57,0-.03,.01-.05,0-.09,.71,.18,1.34,.35,1.85,.52-.17,1.54-.47,3.5-.97,5.9-1.62,4.01-3.87,9.24-11.03,22.85-5.98,11.39-13.48,21.73-29.57,37.56-7.7,7.57-15.09,9.52-21.79,8.04-.99-.21-1.98-.53-2.96-.91-.31-.13-.63-.26-.94-.41-.87-.39-1.74-.87-2.61-1.39-.38-.24-.74-.45-1.13-.69-.82-.55-1.65-1.21-2.49-1.87-.92-.75-1.85-1.57-2.8-2.45-.57-.53-1.14-1.04-1.73-1.63-.96-.98-1.94-2.05-2.94-3.17-.2-.22-.41-.44-.61-.68-1.16-1.33-2.35-2.78-3.57-4.31,10.51,16.86,28.53,32.07,41.79,35.69,18.75,5.11,41.24-28.29,51.47-69.19,8.19-32.78,3.26-79.1,.97-96.22Z"/></g></g><path class="cls-31" d="M243.07,316.64c25.44,7.93,40.94-5.54,46.12-23.37-2.46,2.63-5.19,5.41-8.21,8.39-7.7,7.57-15.09,9.52-21.79,8.04-.99-.21-1.98-.53-2.96-.91-.31-.13-.63-.26-.94-.41-.87-.39-1.74-.87-2.61-1.39-.38-.24-.74-.45-1.13-.69-.82-.55-1.66-1.21-2.49-1.87-.92-.75-1.85-1.57-2.8-2.45-.57-.53-1.14-1.04-1.73-1.63-.96-.98-1.94-2.05-2.94-3.17-.21-.22-.41-.44-.61-.68-4.17-4.78-8.68-10.86-13.72-18.09-7.26-12.31-15.05-27.39-22.06-43.5-2.73-6.9-5.45-14.34-8.14-22.25-.35-1.11-.69-2.24-1.04-3.36-1.46-4.79-2.76-9.07-3.83-12.63-1.3-4.39-2.59-8.79-3.85-13.18-.62-5.45-.76-10.98-.58-16.31,1.92-18.84,7.71-52.71,24.77-65.74,10.11-7.72,17.5-12.18,27.26-15.45,.56-.08,.39-.06,.13-.03,13.45-3.38,25.2-7.14,28.33-10.67-15.96,2.67-70.07,13.38-83.98,37.55-16.36,28.44-21.54,35.6-12.05,75.99,9.49,40.39,38.57,117.76,70.84,127.82Z"/><path class="cls-13" d="M243.44,61.65c-10.95,.57-27.38,4.72-28.7,9.44-1.32,4.72,41.29,2.27,42.68-3.21,1.39-5.48-13.98-6.23-13.98-6.23Z"/><path class="cls-13" d="M330.5,178.29c-.85-9.35-7.08-5.59-9.35,6.13-2.27,11.72,7.08,43.22,9.35,28.74,2.27-14.47,0-34.87,0-34.87Z"/></g><g><g><path class="cls-17" d="M275.88,303.13c-.04-1.11-1.03-27.51-16.42-59.57-14.22-29.61-43.87-69.01-104.35-88.56-64.38-20.8-74.68-41.69-76.12-49.71-2.47-13.71,8.85-23.75,8.85-23.76l1.72-1.34-6.41-27.16-4.2,3.35c-19.15,15.28-27.86,34.14-24.54,53.12,4.82,27.54,36.13,50.82,93.03,69.21,99.04,32,103.34,121.21,103.48,124.99l.06,1.76,1.47,.97c1.03,.68,6.26,3.96,10.57,3.96,.14,0,.28,0,.41,0,6.69-.34,11.18-4.49,11.37-4.67l1.12-1.05-.05-1.53Zm-12.79,.47c-1.18,.08-3.58-.95-5.48-2-1.04-14.04-11.28-98.07-108.08-129.34-54.32-17.55-84.07-39.05-88.43-63.91-3.27-18.66,7.1-33.3,17.93-43.11l2.96,12.56c-3.72,3.92-12.23,14.68-9.71,28.71,2.52,13.99,18.57,34.89,80.73,54.97,58.19,18.8,86.66,56.62,100.31,85.03,12.76,26.58,15.21,48.86,15.66,55.12-1.22,.78-3.31,1.84-5.9,1.97Z"/><path class="cls-17" d="M57.69,389.05c-2.14-2.18-7.83-7.96-20.81-22.98-8.25-9.54-12.47-18.46-11.89-25.14,.41-4.72,4.19-12.48,5.42-14.68l1.68-1.36-5.92-11.52-5.25-11.64-3.39,2.53c-1.65,1.23-15.66,18.63-17.29,33.7-1.53,14.06,4.46,29,17.79,44.41,24.78,28.64,26.48,29.79,32.52,30.19,.03,0,.07,0,.13,0,.78,0,4.09-.19,6.73-3.24,3.04-3.52,3.85-9.3,2.41-17.18-.21-1.16-.73-1.69-2.12-3.1Zm-5.34,15.72c-.74,.93-1.59,.99-1.47,1.01-2.8-.18-3.85-.25-27.72-27.85-12.04-13.93-17.48-27.13-16.17-39.23,1-9.16,7.66-19.71,11.74-25.29l1.32,2.92,3.89,7.59c-2.17,3.98-5.3,11.53-5.72,16.43-.75,8.64,3.92,19.08,13.52,30.18,13.13,15.18,18.93,21.08,21.11,23.3,.17,.17,.31,.32,.43,.44,1.1,6.72-.1,9.47-.93,10.52Z"/><path class="cls-17" d="M167.56,414.88c-16.24-4.42-69.35-21.05-70.85-49.5-.83-15.83,2.58-32.89,5.88-49.39,6.03-30.2,12.87-64.44-17.61-77.85-18.43-8.11-34.26,5.28-40.06,13.49l-1.95,2.77,20.28,14.42,1.98-2.73c.05-.07,5.3-7.09,9.71-5.13,10.4,4.58,9.92,16.54,3.21,50.16-3.43,17.17-7.32,36.63-6.32,55.58,2.93,55.77,87.92,72.78,97.67,74.54,1.23,.2,7.75,1.2,14.74,1.2,5.84,0,12.01-.7,15.69-3.17,7.68-5.16,14.06-15.2,14.32-15.62l3.08-4.89-5.77-.31c-.36-.02-36.1-1.96-43.98-3.56Zm28.56,18.74c-4.41,2.96-18.01,2.12-25.49,.91-3.65-.66-89.33-16.78-92.03-68.2-.95-18.1,2.85-37.11,6.2-53.89,6.4-32.04,9.22-50.51-7.13-57.71-1.47-.65-2.93-.93-4.35-.93-4.51,0-8.62,2.83-11.43,5.71l-9.31-6.62c5.76-6.45,17.04-14.09,29.65-8.54,25.48,11.22,19.75,39.91,13.68,70.3-3.38,16.91-6.87,34.4-6,51.08,1.69,32.11,53.61,49.65,76.07,55.75,6.5,1.32,28.19,2.74,39,3.39-2.3,2.91-5.49,6.48-8.86,8.75Z"/></g><g><path class="cls-15" d="M256.4,245.03c-13.93-29.01-42.99-67.62-102.33-86.79-63.75-20.6-76.5-41.64-78.43-52.34-2.82-15.69,9.95-26.91,10.11-27.04l-4.67-19.81c-6.85,5.46-27.95,23.4-23.31,49.88,4.59,26.2,35.11,48.59,90.73,66.56,101.3,32.73,105.69,124.19,105.83,128.1,0,0,5.45,3.58,8.94,3.4,5.52-.28,9.21-3.75,9.21-3.75-.04-1.13-1.01-26.79-16.09-58.2Z"/><g class="cls-29"><path class="cls-17" d="M85.7,78.86l-.73-3.08c-2.41,2.87-5.69,7.71-7.07,13.86,3.08-6.62,7.7-10.71,7.8-10.78Z"/><path class="cls-17" d="M265.28,300.97c-3.49,.18-8.94-3.4-8.94-3.4-.14-3.92-4.53-95.37-105.83-128.1-55.61-17.97-86.14-40.36-90.73-66.56-1.17-6.69-.7-12.83,.77-18.37-2.94,6.98-4.45,15.17-2.83,24.39,4.59,26.2,35.11,48.59,90.73,66.56,101.3,32.73,105.69,124.19,105.83,128.1,0,0,5.45,3.58,8.94,3.4,5.52-.28,9.21-3.75,9.21-3.75,0-.26-.07-1.78-.32-4.34-1.62,.93-3.97,1.93-6.83,2.07Z"/></g><path class="cls-15" d="M34.3,368.3c-8.98-10.39-13.38-19.95-12.7-27.66,.56-6.45,6.03-16.51,6.2-16.64l-4.73-9.22-3.51-7.79c-1.04,.78-14.43,17.32-15.95,31.34-1.42,13.09,4.29,27.16,16.98,41.82,24.8,28.67,25.81,28.74,30.07,29.02,0,0,8.87,.32,5.81-16.41-.08-.46-4.05-3.52-22.16-24.47Z"/><g class="cls-28"><path class="cls-17" d="M27.74,324l-3.14-6.11c-.31,.41-5.62,10.25-6.18,16.61-.45,5.11,1.38,11.05,5.25,17.49-1.67-4.08-2.44-7.91-2.14-11.35,.56-6.45,6.03-16.51,6.2-16.64Z"/><path class="cls-17" d="M56.4,392.76c-.03-.19-.71-.81-2.65-2.81,1.34,13.32-6.28,13.07-6.28,13.07-4.26-.28-5.27-.34-30.07-29.02-4.05-4.69-7.38-9.31-10.01-13.86,2.87,6.51,7.23,13.2,13.12,20.01,24.8,28.67,25.81,28.74,30.07,29.02,0,0,8.87,.32,5.81-16.41Z"/><path class="cls-17" d="M19.89,308.63l2.85,5.55-3.24-7.19s-.15,.14-.24,.23l.63,1.4Z"/></g><path class="cls-15" d="M93.32,365.55c-.85-16.25,2.6-33.52,5.94-50.23,6.06-30.37,12.34-61.76-15.65-74.08-16.41-7.22-30.67,4.91-35.92,12.34l14.77,10.51c.28-.38,6.88-9.32,13.84-6.25,13.27,5.84,11.76,20.92,5.17,53.94-3.39,16.97-7.23,36.21-6.26,54.73,2.85,54.22,90.66,70.61,94.82,71.37,0,0,20.81,3.39,27.99-1.43,7.18-4.82,13.34-14.61,13.34-14.61,0,0-36.25-1.96-44.69-3.68-28.9-7.86-71.92-25.36-73.35-52.6Z"/><g class="cls-28"><path class="cls-17" d="M205.75,421.47c-2.33,2.79-5.3,5.88-8.46,8.01-7.18,4.82-27.99,1.43-27.99,1.43-4-.73-85.41-15.95-94.1-65.4,.01,.32,0,.64,.02,.95,2.85,54.22,90.66,70.61,94.82,71.37,0,0,20.81,3.39,27.99-1.43,7.18-4.82,13.34-14.61,13.34-14.61,0,0-2.19-.12-5.62-.32Z"/><path class="cls-17" d="M98.52,308.36c-3.34,16.71-6.79,33.98-5.94,50.23,.09,1.61,.33,3.19,.69,4.74-.46-15.61,2.79-32.08,5.98-48.04,3.37-16.86,6.79-34.04,4.38-48.09,.59,12.58-2.29,26.99-5.12,41.17Z"/><path class="cls-17" d="M85.63,269.35c-.16-9.62-3.01-15.37-10.06-18.48-6.95-3.07-13.56,5.87-13.84,6.25l-10.67-7.59c-1.35,1.39-2.49,2.76-3.37,4l14.77,10.51c.28-.38,6.88-9.32,13.84-6.25,5.16,2.27,8.07,5.97,9.33,11.55Z"/></g></g><g><path class="cls-14" d="M205.16,187.96c-31.69-22.34-68.13-33.47-89.95-44.52-21.81-11.05-35.36-14.73-41.47-30.03-6.11-15.3,7.17-33.71,7.19-40.22,.02-8.18-13.58-2.52-17.55,16.3-3.97,18.83-3.07,35.83,23.82,51.69,26.89,15.86,87.44,38.52,106.88,50.7,19.44,12.18,42.88,28.33,48.44,48.44,5.56,20.11,20.73,46.61,20.25,32.5-.48-14.11-25.91-62.53-57.6-84.87Z"/><path class="cls-14" d="M177.82,421.9s-33.62-2.63-59.58-21.43c-25.97-18.8-29.27-24.13-28.75-48.37,.52-24.25,22.33-74.15,10.03-91.59-12.29-17.44-21.09-21.46-34.56-16.42-13.47,5.04-9.8,14.37-2.29,10.4,7.51-3.97,26.2-3.97,28.19,9.63,1.98,13.6-6.8,60.52-10.06,84.79-3.26,24.27,.71,40.74,31.87,60.26,31.16,19.53,107.08,29.16,65.15,12.73Z"/><path class="cls-14" d="M17.7,341.92c2.61-20.02,3.75-20.87,2.33-23.98-3.05-6.71-10.39,12.87-13.03,26.34-2.64,13.48,9.29,26,19.38,37.36,10.08,11.36,10.46,3.33,6.59-4.41-3.87-7.74-17.88-15.3-15.27-35.31Z"/></g><g><path class="cls-17" d="M75.95,100.61l2.23-3.95c-2.29-1.29-8.69-5.49-10.84-9.36-2.04-3.69-1.37-11.92-.85-14.11l-4.11,2.07c-.09,.39-2.32,8.25,.99,14.23,3.2,5.78,12.2,10.9,12.58,11.11Z"/><path class="cls-17" d="M66.92,120.39c2.23,.23,4.4,.31,6.38,.31,5.59,0,9.75-.67,9.98-.71l-.73-4.47c-.07,.01-7.26,1.17-15.17,.36-6.09-.62-8.28-3.07-9-3.88-.35-.39-.93-1.04-1.99-1.04v2.53l.12,2.34c1.01,1.13,2.58,3.76,10.42,4.56Z"/><path class="cls-17" d="M78.67,142.88h.35l.94,2.2c.16,.05,.7,.86,4.69,.86,2,0,4.36-.22,6.94-.86,7.73-1.93,13.32-7.76,13.56-8l-3.29-3.12c-.05,.05-4.91,5.11-11.37,6.73-6.36,1.59-13.9-.62-13.94-.63l2.12,2.83Z"/><path class="cls-17" d="M111.74,163.52c.31,1.32,2.06,2.36,2.79,2.36,3,0,7.93-.73,12.46-4.67,6.22-5.4,7.73-11.01,7.79-11.24l-4.38-1.15s-1.29,4.55-6.38,8.98c-4.3,3.73-11.09,3.84-12.91,3.65l.35,.43,.28,1.66Z"/><path class="cls-17" d="M153.84,179.69c3.47,0,8.04-.66,11.53-3.52,6.59-5.41,4.61-13.87,4.52-14.22l-4.4-.51c.02,.06,1.41,7.62-3,11.23-4.63,3.8-13.55,2.54-15.56,2.72l1.79,3.83c.19,.04,2.29,.48,5.11,.48Z"/><path class="cls-17" d="M196.9,186.97c-2.15,1.89-10.33,3.83-13.92,4.49l2.51,4.26c1.08-.2,10.61-2.01,14.4-5.34,3.97-3.49,5.21-9.79,5.26-10.06l-4.45-.86c-.01,.05-1.02,5.06-3.8,7.51Z"/><path class="cls-17" d="M237.25,211.39l-3.82-2.44s-1.95,2.58-9.2,3.44c-7.87,.94-10.86,.1-10.86,.1l-2.98-.78,1.55,5.08c.25,.08,1.89,.58,5.63,.58,1.85,0,4.23-.12,7.21-.48,9.55-1.13,12.21-5.06,12.48-5.5Z"/><path class="cls-17" d="M245.06,243.82c7.62-.36,10.34-6.08,10.45-6.32l-4.12-1.9s-1.65,3.46-6.55,3.69c-5.67,.29-14.79-4.92-14.87-4.96l-.47,5.58c.34,.17,8.09,3.93,14.76,3.93,.27,0,.53,0,.79-.02Z"/><path class="cls-17" d="M265.96,267.94s-2.29,.92-9.33-.2c-7.34-1.17-13.21-7.19-13.25-7.23l.07,5.31c.95,.47,3.47,4.96,12.46,6.39,2.86,.46,5.1,.62,6.83,.62,3.37,0,4.83-.61,5.3-.88l-2.09-4.02Z"/><path class="cls-17" d="M184.66,430.26c-6.43,3.93-17.79,6.42-20.16,7.13l6.47,2.93c.42-.11,9.06-1.91,16.05-6.19,7.43-4.54,10.3-13.34,10.42-13.71l-4.32-1.38c-.02,.08-2.5,7.58-8.47,11.22Z"/><path class="cls-17" d="M138.9,420.11c-11.51,.57-20.01,.95-20.01,.95l3.6,3.81s5.11,.33,16.64-.24c11.98-.59,24.09-7.84,24.53-8.12l-3.95-3.24c-.1,.06-10.05,6.3-20.8,6.83Z"/><path class="cls-17" d="M102.6,395.93c-8.69-.15-21.68-8.47-21.8-8.54l.78,5.89c.53,.34,10.96,7.02,20.94,7.19,.35,0,.69,0,1.02,0,9.12,0,14.33-2.49,14.69-2.75l-4.32-3.41s-3.01,1.77-11.31,1.62Z"/><path class="cls-17" d="M94.34,367.8l-.74-5.24c-.24-.04-6.02-.94-9.08-6.5-3.61-6.55-7.62-15.18-8.36-16.69l-3.22,4.11c.04,.08,3.94,8.11,7.61,14.77,4.19,7.59,13.46,9.5,13.79,9.55Z"/><path class="cls-17" d="M87.43,319.03c5.79,6.79,10.8,7.19,11.35,7.21l.24-4.53s-3.66-.37-8.14-5.63c-5.02-5.89-8.12-12.9-8.14-12.97l-2.79,2.87c.13,.31,2.01,6.62,7.48,13.04Z"/><path class="cls-17" d="M98.66,280.94c-7.17,.7-13.65-1.72-13.71-1.75l-1.62,4.23c.26,.1,5.77,2.17,12.65,2.17,1.01,0,2.05-.04,3.11-.15,4.28-.41,5.61-1.15,7.01-3.01,1.06-1.41,1.25-4.5,1.18-4.86,0,0-3.36,1.76-3.35,1.75,0,.01-.74,1.18-5.27,1.62Z"/><path class="cls-17" d="M80.02,261.66l1.27,4.35c.35-.1,8.76-2.59,13.64-7.69,5.18-5.41,4.28-9.04,4.19-9.55l-4.27-.15c.02,.11,.34,2.87-3.2,6.56-4.03,4.21-11.56,6.45-11.63,6.47Z"/><path class="cls-17" d="M66.84,245.78c-4.64-5.09-10.97-4.21-11.26-4.19l-.67,4.01c.05,0,5.43-.22,8.58,3.23,3.59,3.93,5.92,10.83,5.94,10.9l4.3-1.43c-.11-.32-2.65-7.88-6.9-12.52Z"/><path class="cls-17" d="M16.5,329.43c2.99,5.91,4.11,9.18,5.03,12.49l3.18-3.28c-.03-.19-.85-4.7-4.17-11.26-3.36-6.64-8.01-11.34-10.43-12.28l-2.43,3.52c1,.43,5.71,4.65,8.82,10.8Z"/><path class="cls-17" d="M31.45,360.39c-.3-.22-4.74-3.7-12.88-6.8-8.73-3.32-15.84-.07-16.14,.07l1.93,4.1c.06-.03,5.64-2.58,12.6,.07,7.52,2.87,15.94,8.31,16.01,8.36l-1.52-5.8Z"/><path class="cls-17" d="M53.03,387.97l-.44-3.79c-.2-.1-3.95-2.66-13.56-5.7-10.11-3.2-20.7-.15-21.15-.01l1.28,4.35c.1-.03,9.69-2.8,18.5-.01,9.26,2.93,15.32,5.15,15.37,5.17Z"/><path class="cls-17" d="M49.5,398.04c-8.59-1.46-13.26,1.31-13.46,1.43l2.33,3.88s3.6-2,10.36-.85c2.71,.46,7.21,1.17,9.18,1.17,.26,0,.47-.01,.64-.04l-.57-4.49c-.06,0-1.6,.06-8.48-1.11Z"/></g></g></g></g></g></g></svg>