<?xml version="1.0" encoding="UTF-8"?><svg xmlns="http://www.w3.org/2000/svg" xmlns:xlink="http://www.w3.org/1999/xlink" viewBox="0 0 461.01 522.68"><defs><style>.cls-1{fill:url(#linear-gradient);}.cls-2{filter:url(#luminosity-noclip-6);}.cls-3{filter:url(#luminosity-noclip-4);}.cls-4{mask:url(#mask);}.cls-5{filter:url(#luminosity-noclip-2);}.cls-6{fill:#f58206;}.cls-7{fill:#051149;}.cls-8,.cls-9,.cls-10{fill:#fff;}.cls-11{fill:#f5c15e;}.cls-12{fill:#ffd21d;}.cls-13{fill:#fbf8f2;}.cls-14{fill:#e6b554;}.cls-15,.cls-16{fill:#9f5e26;}.cls-17{fill:#91671e;}.cls-18{fill:#cf8d1c;}.cls-19{fill:#d39d3b;}.cls-20{fill:#242833;}.cls-21{fill:#260503;}.cls-22{fill:#201600;}.cls-23{fill:#723609;}.cls-24{fill:#6d717e;}.cls-25{fill:#635951;}.cls-26{fill:#3d1900;}.cls-27{fill:#593c12;}.cls-28,.cls-29,.cls-30,.cls-31,.cls-32{fill:#512303;}.cls-33{fill:url(#linear-gradient-5);}.cls-33,.cls-34,.cls-35,.cls-29,.cls-30,.cls-31,.cls-36{mix-blend-mode:multiply;}.cls-34{fill:url(#linear-gradient-8);}.cls-35{fill:url(#linear-gradient-3);}.cls-29,.cls-32,.cls-10{opacity:.39;}.cls-30{opacity:.25;}.cls-31{opacity:.5;}.cls-37{fill:url(#linear-gradient-2);}.cls-38{opacity:.78;}.cls-39{isolation:isolate;}.cls-40{fill:url(#linear-gradient-7);opacity:.21;}.cls-36{opacity:.3;}.cls-41{fill:url(#linear-gradient-6);}.cls-41,.cls-42,.cls-43{opacity:.91;}.cls-42{fill:url(#linear-gradient-4);}.cls-43{fill:url(#linear-gradient-9);}.cls-9{mix-blend-mode:overlay;opacity:.54;}.cls-44{mask:url(#mask-3);}.cls-45{mask:url(#mask-2);}.cls-46{mask:url(#mask-5);}.cls-47{mask:url(#mask-4);}.cls-48{mask:url(#mask-1);}.cls-16{opacity:.38;}</style><linearGradient id="linear-gradient" x1="275.28" y1="483.43" x2="235.46" y2="247.12" gradientTransform="matrix(1, 0, 0, 1, 0, 0)" gradientUnits="userSpaceOnUse"><stop offset=".02" stop-color="#00000f"/><stop offset="1" stop-color="#010733"/></linearGradient><linearGradient id="linear-gradient-2" x1="124.19" y1="212.78" x2="233.65" y2="212.78" xlink:href="#linear-gradient"/><filter id="luminosity-noclip-2" x="124.19" y="167.15" width="88" height="58.68" color-interpolation-filters="sRGB" filterUnits="userSpaceOnUse"><feFlood flood-color="#fff" result="bg"/><feBlend in="SourceGraphic" in2="bg"/></filter><filter id="luminosity-noclip-3" x="124.19" y="-8484.38" width="88" height="32766" color-interpolation-filters="sRGB" filterUnits="userSpaceOnUse"><feFlood flood-color="#fff" result="bg"/><feBlend in="SourceGraphic" in2="bg"/></filter><mask id="mask-1" x="124.19" y="-8484.38" width="88" height="32766" maskUnits="userSpaceOnUse"/><linearGradient id="linear-gradient-3" x1="124.19" y1="196.49" x2="212.19" y2="196.49" gradientTransform="matrix(1, 0, 0, 1, 0, 0)" gradientUnits="userSpaceOnUse"><stop offset="0" stop-color="#000"/><stop offset=".98" stop-color="#fff"/></linearGradient><mask id="mask" x="124.19" y="167.15" width="88" height="58.68" maskUnits="userSpaceOnUse"><g class="cls-5"><g class="cls-48"><path class="cls-35" d="M178.6,197.5c12.66-8.32,30.32-23.59,32.51-30.35,.36,.05,.63,.1,.78,.15,3.07,4.58-17.98,23.16-32.44,32.67-27.13,17.87-49.81,31-55.12,23.88l-.15-.19s.1-.5,.33-1.34c6.74,4.7,28.41-7.93,54.08-24.83Z"/></g></g></mask><linearGradient id="linear-gradient-4" x1="124.19" y1="196.49" x2="212.19" y2="196.49" gradientTransform="matrix(1, 0, 0, 1, 0, 0)" gradientUnits="userSpaceOnUse"><stop offset="0" stop-color="#fff"/><stop offset=".98" stop-color="#fff"/></linearGradient><filter id="luminosity-noclip-4" x="170.42" y="176.67" width="58.39" height="62.74" color-interpolation-filters="sRGB" filterUnits="userSpaceOnUse"><feFlood flood-color="#fff" result="bg"/><feBlend in="SourceGraphic" in2="bg"/></filter><filter id="luminosity-noclip-5" x="170.42" y="-8484.38" width="58.39" height="32766" color-interpolation-filters="sRGB" filterUnits="userSpaceOnUse"><feFlood flood-color="#fff" result="bg"/><feBlend in="SourceGraphic" in2="bg"/></filter><mask id="mask-3" x="170.42" y="-8484.38" width="58.39" height="32766" maskUnits="userSpaceOnUse"/><linearGradient id="linear-gradient-5" x1="235.62" y1="170.27" x2="175.02" y2="237.81" gradientTransform="matrix(1, 0, 0, 1, 0, 0)" gradientUnits="userSpaceOnUse"><stop offset=".02" stop-color="#fff"/><stop offset="1" stop-color="#000"/></linearGradient><mask id="mask-2" x="170.42" y="176.67" width="58.39" height="62.74" maskUnits="userSpaceOnUse"><g class="cls-3"><g class="cls-44"><path class="cls-33" d="M214.77,177.58c.24,.68,16.03,20.15,13.83,25.5-2.19,5.35-34.66,34.89-48.93,36.27-14.27,1.38-10.71-22.65,1.7-34.08,12.41-11.43,31.41-33.35,33.39-27.69Z"/></g></g></mask><linearGradient id="linear-gradient-6" x1="235.62" y1="170.27" x2="175.02" y2="237.81" gradientTransform="matrix(1, 0, 0, 1, 0, 0)" gradientUnits="userSpaceOnUse"><stop offset=".02" stop-color="#fff"/><stop offset="1" stop-color="#fff"/></linearGradient><linearGradient id="linear-gradient-7" x1="1308.02" y1="134.62" x2="1373.77" y2="134.62" gradientTransform="translate(1447.76 -135.53) rotate(173.78) scale(1 -1)" gradientUnits="userSpaceOnUse"><stop offset="0" stop-color="#9e8177"/><stop offset=".59" stop-color="#0e0000"/><stop offset="1" stop-color="#000"/></linearGradient><filter id="luminosity-noclip-6" x="102.94" y="91.72" width="64.59" height="98.11" color-interpolation-filters="sRGB" filterUnits="userSpaceOnUse"><feFlood flood-color="#fff" result="bg"/><feBlend in="SourceGraphic" in2="bg"/></filter><filter id="luminosity-noclip-7" x="102.94" y="-8484.38" width="64.59" height="32766" color-interpolation-filters="sRGB" filterUnits="userSpaceOnUse"><feFlood flood-color="#fff" result="bg"/><feBlend in="SourceGraphic" in2="bg"/></filter><mask id="mask-5" x="102.94" y="-8484.38" width="64.59" height="32766" maskUnits="userSpaceOnUse"/><linearGradient id="linear-gradient-8" x1="102.94" y1="140.77" x2="167.53" y2="140.77" xlink:href="#linear-gradient-3"/><mask id="mask-4" x="102.94" y="91.72" width="64.59" height="98.11" maskUnits="userSpaceOnUse"><g class="cls-2"><g class="cls-46"><path class="cls-34" d="M115.18,91.72s-4.03,28.48-9.76,42.16c-5.72,13.68-1.48,26.44,12.13,29.96,13.61,3.52,34.85,7.34,40.62,17.27,5.77,9.94,7.67,10.09,9.19,6.78,1.52-3.31-7.19-15.87-19.02-20.6-16.49-6.57-28.59-1.67-37.1-13.17-6.3-8.53,.12-22.39,3.58-31.33,3.48-8.93,4.93-30.86,4.93-30.86l-4.56-.22Z"/></g></g></mask><linearGradient id="linear-gradient-9" x1="102.94" y1="140.77" x2="167.53" y2="140.77" xlink:href="#linear-gradient-4"/></defs><g class="cls-39"><g id="Layer_2"><g id="Layer_13"><g><g><circle class="cls-26" cx="248.1" cy="309.04" r="175.27" transform="translate(-145.85 265.95) rotate(-45)"/><g><g><g><path class="cls-26" d="M247.37,95.39c-117.8,0-213.64,95.84-213.64,213.64s95.84,213.64,213.64,213.64,213.64-95.84,213.64-213.64S365.17,95.39,247.37,95.39Zm0,362.95c-82.33,0-149.31-66.98-149.31-149.31s66.98-149.31,149.31-149.31,149.31,66.98,149.31,149.31-66.98,149.31-149.31,149.31Z"/><path class="cls-23" d="M247.37,97.21c-116.8,0-211.83,95.03-211.83,211.83s95.02,211.83,211.83,211.83,211.83-95.02,211.83-211.83S364.17,97.21,247.37,97.21Zm0,362.95c-83.33,0-151.12-67.79-151.12-151.12s67.79-151.12,151.12-151.12,151.12,67.79,151.12,151.12-67.79,151.12-151.12,151.12Z"/><path class="cls-15" d="M247.37,103.56c-113.3,0-205.47,92.18-205.47,205.47s92.17,205.47,205.47,205.47,205.47-92.17,205.47-205.47S360.66,103.56,247.37,103.56Zm0,367.49c-89.34,0-162.01-72.68-162.01-162.01s72.68-162.01,162.01-162.01,162.01,72.68,162.01,162.01-72.68,162.01-162.01,162.01Z"/><path class="cls-16" d="M398.24,251.01c-.9,7.27-2.35,14.4-4.31,21.36,2.96,11.79,4.56,24.12,4.56,36.82,0,83.33-67.79,151.12-151.12,151.12-51.26,0-96.6-25.68-123.94-64.82-6.63-1.86-13.1-3.99-19.41-6.37,27.75,50.16,81.19,84.14,142.58,84.14,89.93,0,162.84-72.9,162.84-162.83,0-20.97-3.97-41.01-11.18-59.42Z"/><g><path class="cls-14" d="M247.37,103.4c-113.3,0-205.47,92.18-205.47,205.48,0,1.21,.02,2.42,.05,3.63,1.95-111.63,93.34-201.84,205.42-201.84s203.48,90.21,205.43,201.84c.02-1.21,.05-2.42,.05-3.63,0-113.3-92.17-205.48-205.47-205.48Z"/><path class="cls-14" d="M247.37,470.89c-88.12,0-160.03-70.71-161.97-158.38-.02,1.21-.05,2.42-.05,3.63,0,89.33,72.68,162.01,162.01,162.01s162.01-72.68,162.01-162.01c0-1.21-.02-2.42-.05-3.63-1.94,87.67-73.85,158.38-161.97,158.38Z"/></g><g class="cls-36"><path class="cls-21" d="M247.37,140.11c-89.34,0-162.01,72.68-162.01,162.02,0,1.18,.02,2.34,.04,3.51,1.88-87.72,73.81-158.5,161.97-158.5s160.1,70.79,161.97,158.5c.02-1.17,.04-2.34,.04-3.51,0-89.33-72.68-162.02-162.01-162.02Z"/><path class="cls-21" d="M247.37,507.6c-112.12,0-203.54-90.27-205.43-201.96-.02,1.17-.04,2.34-.04,3.51,0,113.3,92.17,205.47,205.47,205.47s205.47-92.17,205.47-205.47c0-1.17-.03-2.34-.04-3.51-1.88,111.68-93.3,201.96-205.43,201.96Z"/></g><g><path class="cls-28" d="M409.48,324.3s4.83,3.83,5.73,13.32c.9,9.49-8.22,61.29-30.61,88.61-22.39,27.32-53.38,41.51-67.3,44.74-13.92,3.24-57.4,21.65-60.36,22.1-2.97,.45,45.54-15.32,62.16-16.87,16.62-1.55,57.8-28.82,65.5-36.96,7.7-8.15,18.82-36.85,24.71-46.53,5.89-9.68,12.75-47.52,12.69-55.1-.06-7.58-12.69-19.97-12.69-19.97l.17,6.65Z"/><path class="cls-14" d="M250.69,494.65s46-14.68,58.49-16.77c12.48-2.08,9.13-.58,23.57-5.83,14.43-5.25,50.61-30.41,53.5-34.77,2.9-4.36,14.8-31.68,20.54-39.93,5.74-8.25,9.09-24.03,9.09-24.03,0,0-20.42,53.98-24.68,61.27-4.26,7.28-38.63,28.62-46.04,34.57-7.41,5.95-20.21,12.43-31.21,13.46-11,1.03-63.25,12.03-63.25,12.03Z"/><g><path class="cls-30" d="M179.93,143.27s-53.79,12.72-72.74,34.23c-18.96,21.5-23.81,39.02-30.19,59.54-6.37,20.52,23.31-44,39.62-49.32,16.3-5.33,13.74-14.19,25.43-22.36,11.7-8.17,37.89-22.08,37.89-22.08Z"/><path class="cls-28" d="M144.22,159.41s-23.3,11.1-35.07,20.83c-11.77,9.73-20.55,34.57-21.3,37.04-.75,2.47,9.75-19.9,17.55-25.35,7.8-5.45,16.31-6.34,20.42-10.8,4.11-4.46,13.03-19.74,18.4-21.72Z"/><path class="cls-14" d="M185.44,139.68s-41.5,21.98-49.05,30.71c-7.55,8.74-9.48,13.14-14.63,15.22-5.15,2.09-8.39,2.96-18.79,15.48-10.41,12.52-28.02,42.96-28.02,42.96,0,0,28.21-44.37,34.85-46.89,6.65-2.51,18.66-7.66,22.03-13.34,3.38-5.67,12.08-15.53,17.38-19.05,5.31-3.52,36.23-25.11,36.23-25.11Z"/></g><path class="cls-28" d="M303.08,111.08s22.16,8.43,29.35,13.22c7.19,4.79,14.16,16.13,14.3,16.3,.15,.17,0,20.24,0,20.24,0,0,.9-14.67,2.84-18.56,1.95-3.89,6.29-6.52,5.24-7.53-1.05-1.01-9.43-10.73-9.43-10.73,0,0-26.7-9.23-42.3-12.93Z"/><path class="cls-14" d="M346.58,164.27c0-.45-.66-17.26,2.99-22.01,3.65-4.75,5.24-7.53,5.24-7.53,0,0,26.94,17.66,39.82,31.35,12.88,13.69-26.49-20.68-31.59-23.23-5.09-2.54-7.93-3.89-10.03-.6-2.09,3.29-6.43,22.01-6.43,22.01Z"/><path class="cls-28" d="M57.93,295.5s.9,68.03,16.62,89.59c15.72,21.56,30.09,32.46,39.07,50.82,8.99,18.35,40.27,36.36,55.32,43.38,15.05,7.01,59.78,16.3,59.78,16.3,0,0-77.36-25.87-89.64-37.19-12.28-11.32-20.06-31.08-26.65-39.17-6.59-8.08-19.46-17.55-23.35-21.2-3.89-3.65-16.99-27.6-20.02-41.08-3.04-13.47-11.12-61.45-11.12-61.45Z"/><path class="cls-14" d="M60.85,346.24s5.04,29.44,19.26,46.15c14.23,16.71,27.89,32.81,33.51,43.52,5.62,10.71,16.96,23.52,38.47,34.4,21.52,10.89,30.18,13.77,30.18,13.77,0,0-47.31-19.27-53.82-24.66-6.52-5.39-22.23-24.31-24.03-28.77-1.79-4.46-5.17-13.49-15.27-21.89-10.11-8.4-29.46-35.53-28.29-62.52Z"/><g><path class="cls-14" d="M92.08,261.07l1.46-3.17-14.32-3.74-5.3,3.83,1.02,8.57s.15-9.69,2.48-9.92c2.33-.22,2.6,2.47,8.18,2.7,5.57,.22,2.7,4.92,2.7,4.92l-1.21,17.47,4.99-20.65Z"/><path class="cls-14" d="M73.46,263.45s-1.67-6.2-1.67-6.87,3.16-3.76,3.16-3.76l-22.24-5.6s-3.97,14-4.31,15.43c-.34,1.43,7.13-11.01,7.13-11.01l12.58,4.2,3.72,12.34,1.63-4.73Z"/><path class="cls-28" d="M71.78,256.58l2.92-3.63c-9.73-2.6-23.26-6.02-23.26-6.02l-5.58-6.17,59.54,17.94-4.46,15.15s-3.93-15.19-5.33-15.42c-.61-.1-8.25-2.11-16.7-4.36l-4.98,3.91,1.01,8.39s-3.72,22.76-3.65,22.16c.08-.6,2.17-25.08,2.17-25.08l-1.67-6.87Z"/></g><path class="cls-28" d="M430.99,272.82s-2.7,28.49-.9,34.68c1.8,6.19,11.45,24.38,7.86,38.08-3.59,13.7-15.95,51.1-15.95,51.1,0,0,18.42-47.96,19.54-56.26,1.12-8.31-5.39-29.03-7.18-35.85-1.8-6.82-3.37-31.74-3.37-31.74Z"/><path class="cls-29" d="M438.18,269.32s-6.51,15.52-1.35,32.53c5.17,17.01,8.76,33.53,10.1,28.75,1.35-4.79,4.04-35.1,1.8-42.96-2.25-7.86-9.25-22.28-10.56-18.32Z"/><path class="cls-28" d="M436.86,279.37s-3.93,9.38-.81,19.66c3.12,10.28,5.29,20.27,6.11,17.38,.82-2.89,2.44-21.21,1.08-25.96-1.35-4.75-5.59-13.46-6.38-11.07Z"/><g><path class="cls-29" d="M126.02,439.45s3.86,11.69,14.88,18.6c11.02,6.91,20.94,14.31,19.38,11.02-1.55-3.29-14.63-21.32-19.64-24.58-5.01-3.26-15.8-7.86-14.62-5.04Z"/><path class="cls-29" d="M130.12,445.63s2.33,7.07,8.99,11.24c6.66,4.18,12.65,8.65,11.71,6.66-.94-1.98-8.84-12.88-11.86-14.85-3.03-1.97-9.55-4.75-8.84-3.05Z"/></g><path class="cls-28" d="M130.7,153.04s45.81-33.24,85.63-36.23c39.83-2.99,46.95-.9,62.85,6.59,15.9,7.48,60.21,17.19,60.21,17.19,0,0-53.51-10.9-69.87-15.1-16.36-4.19-57.68-6.89-63.07-4.49-5.39,2.4-75.75,32.04-75.75,32.04Z"/><path class="cls-14" d="M122.61,156.63s75.95-35.04,88.58-36.38c12.63-1.35,43.98,2.01,60.63,5.81,16.64,3.8,72.07,16.2,72.07,16.2,0,0-76.62-14.37-94-14.97-17.38-.6-37.74-5.39-43.43-2.99-5.69,2.4-83.84,32.34-83.84,32.34Z"/><path class="cls-28" d="M378.76,176.39c-7.63-7.93-21.86-18.71-21.86-18.71,0,0,.3,7.79,7.94,15.57,7.64,7.79,14.68,9.28,19.31,17.37,4.64,8.09,6.88,16.32,15.42,29.04,8.53,12.73,12.73,24.7,12.88,25.9,.15,1.2-4.49-22.9-8.24-28.89-3.74-5.98-25.45-40.27-25.45-40.27Z"/><path class="cls-14" d="M353.61,153.94s6.89,15.95,12.43,20.49c5.54,4.54,14.56,8.33,20.78,21.3,6.22,12.98,26.38,51.19,26.38,51.19,0,0-20.37-31.44-23.21-38.33-2.84-6.89-3.3-15.72-13.03-21.86-9.73-6.14-23.95-25.6-23.36-32.79Z"/><path class="cls-28" d="M371.87,171c-5.83-3.89-10.92-8.23-10.92-8.23,0,0,1.65,6.89,9.28,12.28,7.63,5.39,14.45,14.07,14.45,14.07,0,0-6.98-14.22-12.81-18.11Z"/><g><path class="cls-30" d="M80.22,264.91c-.25,.39-7.34,19.39-6.57,38.12,.77,18.72,5.07,23.73,6.43,38.15,1.37,14.42,1.98,18.99,1.98,18.99,0,0,1.69-28.25,.33-33.24-1.36-4.98-1.18-9.84,3.14-30.54,4.32-20.69-5.31-31.47-5.31-31.47Z"/><path class="cls-31" d="M78.99,282.82c.58,.77-3.98,7.8-2.83,20.92,1.14,13.13,3.25,20.59,3.25,20.59,0,0-.32-15.67,3.03-25.06,3.34-9.38-1.9-23.15-1.9-23.15l-1.55,6.69Z"/></g></g><path class="cls-28" d="M410.12,317.65s-2.88-.29-6.35,3.34c-3.47,3.63-7.72,21.33-8.03,28.6-.3,7.26,0,18.31,0,18.31,0,0,1.67-15.28,4.99-27.84,3.33-12.56,6.66-14.37,8.74-15.75,2.09-1.38,2.45,.32,2.45,.32l2.87,1.36-4.69-8.33Z"/></g><path class="cls-28" d="M423.72,191.8s.08,7.26,6.48,18.17c6.39,10.9,18.83,33.44,19.18,33.08,1.13-1.16-9.48-32.19-25.66-51.24Z"/></g><g><g><g><path class="cls-32" d="M190.38,136.41l-10.88,1.88-22.29,15.59,28.16,4.38s-.37,5.13,.43,5.56c.81,.43,9.41,3.78,9.41,3.78l2.63-.74,4.86-1.38-3.11-13.43-6.16-6.45,8.76,2.33,9.3-18.8-17.97,10.76-3.16-3.49Z"/><path class="cls-32" d="M182.41,112.24c-4.14,4.34-5.83,16.94-5.73,17.68,.1,.74,13.18,1.41,13.18,1.41,0,0,3.44-4.8,4.63-6.23,1.19-1.43,25.87-11.03,26.95-11.66,1.08-.63-23.06,2.8-23.06,2.8,0,0-5.08-9.49-5.56-10.23-.48-.74-2.93-.04-2.93-.04,0,0-3.34,1.93-7.48,6.26Z"/></g><path class="cls-28" d="M194.43,167.29s-4.13-16.64-4.89-17.3c-.76-.66-25.72,2.68-25.72,2.68l26.02-10.09s.44-4.5-.29-5.06c-.73-.56-10.36,1.29-10.06,.77,.31-.52,10.29-7.61,10.17-10.85-.12-3.24-.56-22.57-1.92-21.74-1.37,.83,13.82-5.22,14.83-5.28,1.01-.07-8.77,5.1-9.96,9.26-1.19,4.16,.59,27.04,2.08,25.85,1.49-1.19,17.29-6.74,16.81-6.39-.48,.35-16.98,16.27-17.55,17.09-.57,.82,3.89,20.64,3.89,20.64l-3.28,.93-.14-.51Z"/><g><path class="cls-14" d="M185.75,163.18c-.06-.65-.37-4.92-.37-4.92l-27.82-4.33s23.39,5.36,24.46,5.51c1.07,.15,.55,3.15,.44,3.98-.11,.83,1.01,1.61,2.8,2.24,1.79,.62,7.83,1.11,7.83,1.11,0,0-7.28-2.95-7.34-3.59Z"/><path class="cls-14" d="M154.81,134.27s11.7-14.29,15.95-15.03c4.24-.74,6.79-.2,6.04,2.41-.74,2.61-6.77,6.57-10.36,7.33-3.59,.76-6.19,1.75-6.19,1.75,0,0,11.92-1.6,13.13-.57,1.21,1.03,4.16,2.59,5.74,2.94,1.58,.35,.37,5.2,.37,5.2,0,0,8.58-7.07,7.47-7.14-1.11-.07-10.59-1.28-10.76-1.69-.17-.41,4.96-16.03,5.32-16.15-.31,.1-8.06,3.06-13.09,5.33-5.12,2.31-13.63,15.63-13.63,15.63Z"/><path class="cls-14" d="M201.31,147.7c-.88-.23-7.41-.99-7.41-.99l5.11,5.51,3.42,12.1s.36-4.82,1.86-5.59c1.5-.76,23.88-4.35,23.88-4.35,0,0-4.66,.58-14.34,.97-9.68,.39-11.62,.89-12.18-1.58-.56-2.47-.49-2.03,3.98-3.18,4.47-1.15,29.88-9.36,22.61-9.26-7.28,.11-23.16,6.1-23.05,5.39,.1-.72,5.89-16.75,6.3-17.58,.41-.84-9.3,18.8-10.19,18.56Z"/><path class="cls-14" d="M194.17,135.02c.69,1.62,2.65-.54,5.48-1.69,2.83-1.14,14.69-5.93,13.8-5.62-18.49,6.47-17.65-.76-17.65-.76l25.64-13.51s-26.95,11.66-27.87,12.08c-.92,.43-.08,7.88,.6,9.5Z"/><path class="cls-14" d="M214.75,114.03s-9.72-.36-11.68-.5c-1.95-.14-3.38-.17-4.09-2.26-.71-2.09,9.3-3.42,11.29-4.46,1.99-1.04-15.14,3.41-15.14,3.41l3.24,6.02,16.37-2.21Z"/></g></g><g><path class="cls-28" d="M175.58,125.2l-12.18,1.6s-11.85,18.57-9.92,16.51c5.67-6.05,9.18-9.66,9.18-9.66l2.57-3.47,4.23,2.64,4.83-.85s-3.17-2.38-3.15-2.75c.02-.37,4.43-4.02,4.43-4.02Z"/><path class="cls-28" d="M172.67,132.01c-1.5,3.14-5.26,4.48-8.41,2.97-3.14-1.5-4.47-5.27-2.97-8.41,1.5-3.14,5.27-4.47,8.41-2.97,3.15,1.5,4.47,5.27,2.97,8.41Z"/><g><g><path class="cls-24" d="M165.55,125.23c2.24-.79,4.7,.39,5.49,2.63,.79,2.24-.38,4.7-2.63,5.49-2.24,.79-4.7-.39-5.49-2.63-.79-2.24,.38-4.7,2.62-5.49Z"/><polygon class="cls-20" points="162.68 129.09 170.87 131.11 171.22 130.02 162.83 128.15 162.68 129.09"/></g><path class="cls-10" d="M163.55,129.8l6.36,1.66s-.53,1.65-2.89,1.64c-2.36,0-4.77-3.29-3.47-3.3Z"/><path class="cls-10" d="M163.93,127.77l4.98,1.14s-1.12-3.72-2.89-3.2c-1.77,.52-3.17,1.94-2.09,2.06Z"/><path class="cls-8" d="M164.04,130.33s2.47,.57,2.8,1.34c.33,.77-.69,1.32-1.89,.25-1.19-1.07-1.74-1.82-.91-1.59Z"/></g></g><g><path class="cls-28" d="M178.42,160.08l-12.18,1.6s-15.84,8.54-13.06,8.07c19.54-3.34,12.32-1.22,12.32-1.22l2.57-3.47,4.23,2.64,4.83-.85s-3.17-2.38-3.15-2.75c.02-.37,4.44-4.01,4.44-4.01Z"/><path class="cls-28" d="M175.51,166.89c-1.5,3.14-5.26,4.47-8.41,2.97-3.14-1.5-4.47-5.27-2.97-8.41,1.5-3.14,5.27-4.47,8.41-2.97,3.15,1.5,4.47,5.27,2.97,8.41Z"/><g><g><path class="cls-24" d="M165.94,162.31c1.03-2.14,3.6-3.05,5.74-2.02,2.15,1.02,3.05,3.59,2.03,5.74-1.03,2.14-3.59,3.05-5.74,2.02-2.14-1.03-3.05-3.6-2.03-5.74Z"/><polygon class="cls-20" points="166.64 167.07 173.86 162.7 173.33 161.69 166.08 166.3 166.64 167.07"/></g><path class="cls-10" d="M167.75,166.95l5.67-3.33s.79,1.54-.88,3.2c-1.68,1.66-5.7,1.04-4.79,.12Z"/><path class="cls-10" d="M166.59,165.25l4.33-2.71s-3.42-1.84-4.3-.22c-.88,1.62-.88,3.62-.02,2.93Z"/><path class="cls-8" d="M168.47,166.99s2.15-1.34,2.93-1.03c.78,.31,.44,1.43-1.16,1.51-1.6,.08-2.52-.06-1.77-.48Z"/></g></g><g><path class="cls-28" d="M223.73,111.58l-12.18,1.6s-15.84,8.54-13.06,8.07c19.54-3.34,12.32-1.22,12.32-1.22l2.57-3.47,4.23,2.64,4.83-.85s-3.17-2.38-3.15-2.75c.02-.37,4.44-4.01,4.44-4.01Z"/><path class="cls-28" d="M220.82,118.39c-1.5,3.14-5.27,4.47-8.41,2.97-3.14-1.5-4.47-5.27-2.97-8.41,1.5-3.14,5.27-4.47,8.41-2.97,3.15,1.5,4.47,5.27,2.97,8.41Z"/><g><g><path class="cls-24" d="M211.25,113.82c1.03-2.15,3.6-3.05,5.74-2.03,2.15,1.03,3.05,3.6,2.03,5.74-1.02,2.14-3.6,3.05-5.74,2.02-2.14-1.02-3.05-3.59-2.03-5.74Z"/><polygon class="cls-20" points="211.95 118.58 219.17 114.22 218.64 113.2 211.4 117.81 211.95 118.58"/></g><path class="cls-10" d="M213.06,118.46l5.67-3.33s.79,1.54-.88,3.21c-1.68,1.67-5.71,1.05-4.79,.12Z"/><path class="cls-10" d="M211.9,116.76l4.33-2.71s-3.42-1.84-4.3-.21c-.88,1.62-.88,3.61-.02,2.93Z"/><path class="cls-8" d="M213.79,118.5s2.15-1.34,2.93-1.03c.78,.31,.44,1.43-1.16,1.51-1.6,.09-2.52-.06-1.77-.48Z"/></g></g><g><path class="cls-28" d="M223.63,147.29l-12.18,1.6s-7.7,5.17-5.67,5.1c.95-.03,4.93,1.74,4.93,1.74l2.57-3.47,4.23,2.64,4.83-.85s-3.17-2.38-3.15-2.74c.02-.37,4.43-4.02,4.43-4.02Z"/><path class="cls-28" d="M220.72,154.1c-1.5,3.14-5.27,4.47-8.41,2.97-3.14-1.5-4.47-5.27-2.97-8.41,1.5-3.14,5.27-4.47,8.41-2.97,3.15,1.5,4.47,5.27,2.97,8.41Z"/><g><g><path class="cls-24" d="M211.15,149.53c1.03-2.14,3.6-3.05,5.74-2.02,2.14,1.02,3.05,3.59,2.03,5.74-1.02,2.14-3.59,3.05-5.74,2.03-2.14-1.02-3.05-3.6-2.03-5.74Z"/><polygon class="cls-20" points="211.85 154.28 219.07 149.92 218.54 148.9 211.3 153.52 211.85 154.28"/></g><path class="cls-10" d="M212.96,154.17l5.67-3.33s.79,1.54-.88,3.2c-1.68,1.67-5.7,1.05-4.79,.12Z"/><path class="cls-10" d="M211.8,152.47l4.33-2.71s-3.42-1.83-4.3-.21c-.88,1.62-.88,3.62-.02,2.93Z"/><path class="cls-8" d="M213.69,154.21s2.15-1.35,2.93-1.03c.78,.31,.44,1.43-1.16,1.51-1.6,.08-2.52-.06-1.78-.48Z"/></g></g></g><g><g><g><path class="cls-32" d="M77.94,375.42l1.91,11.04,15.81,22.6,4.45-28.56s5.2,.38,5.64-.44c.43-.82,3.84-9.55,3.84-9.55l-.75-2.67-1.39-4.93-13.62,3.16-6.55,6.25,2.36-8.89-19.07-9.44,10.91,18.23-3.54,3.2Z"/><path class="cls-32" d="M53.42,383.51c4.4,4.2,17.18,5.91,17.93,5.81,.75-.1,1.43-13.37,1.43-13.37,0,0-4.87-3.49-6.32-4.7-1.45-1.21-11.19-26.24-11.83-27.33-.64-1.09,2.84,23.39,2.84,23.39,0,0-9.63,5.15-10.37,5.64-.75,.49-.05,2.98-.05,2.98,0,0,1.95,3.38,6.35,7.58Z"/></g><path class="cls-28" d="M109.26,371.31s-16.88,4.19-17.55,4.96c-.67,.77,2.72,26.09,2.72,26.09l-10.23-26.39s-4.56-.45-5.13,.29c-.57,.74,1.31,10.51,.78,10.2-.53-.31-7.72-10.44-11.01-10.32-3.29,.12-22.89,.57-22.06,1.95,.84,1.39-5.29-14.01-5.36-15.04-.07-1.02,5.18,8.9,9.39,10.11,4.22,1.21,27.42-.6,26.22-2.11-1.2-1.51-6.84-17.53-6.48-17.05,.36,.49,16.5,17.23,17.33,17.8,.83,.58,20.93-3.95,20.93-3.95l.94,3.32-.51,.14Z"/><g><path class="cls-14" d="M105.09,380.12c-.65,.06-4.99,.38-4.99,.38l-4.39,28.22s5.43-23.72,5.59-24.81c.16-1.08,3.2-.56,4.04-.45,.84,.11,1.63-1.03,2.27-2.84,.63-1.82,1.13-7.94,1.13-7.94,0,0-2.99,7.38-3.65,7.44Z"/><path class="cls-14" d="M75.77,411.49s-14.5-11.87-15.24-16.18c-.75-4.3-.2-6.89,2.44-6.13,2.64,.75,6.66,6.87,7.43,10.51,.77,3.64,1.77,6.27,1.77,6.27,0,0-1.63-12.09-.58-13.31,1.04-1.22,2.63-4.22,2.99-5.82,.35-1.61,5.28-.38,5.28-.38,0,0-7.17-8.7-7.24-7.58-.07,1.13-1.3,10.74-1.72,10.91-.42,.17-16.26-5.03-16.38-5.4,.1,.31,3.1,8.18,5.41,13.28,2.35,5.19,15.85,13.83,15.85,13.83Z"/><path class="cls-14" d="M89.39,364.33c-.24,.89-1,7.51-1,7.51l5.59-5.19,12.27-3.47s-4.89-.37-5.67-1.88c-.78-1.52-4.41-24.22-4.41-24.22,0,0,.59,4.73,.98,14.54,.39,9.81,.9,11.78-1.6,12.35-2.5,.57-2.06,.49-3.23-4.04-1.17-4.53-9.49-30.31-9.39-22.93,.11,7.38,6.19,23.49,5.46,23.38-.73-.1-16.99-5.97-17.83-6.39-.85-.42,19.07,9.44,18.83,10.34Z"/><path class="cls-14" d="M76.53,371.58c1.65-.7-.55-2.69-1.72-5.56-1.16-2.87-6.01-14.9-5.7-14,6.56,18.75-.77,17.9-.77,17.9l-13.71-26s11.83,27.33,12.25,28.27c.43,.93,7.99,.08,9.64-.61Z"/><path class="cls-14" d="M55.24,350.7s-.36,9.86-.51,11.84c-.14,1.98-.17,3.43-2.3,4.15-2.12,.72-3.47-9.44-4.52-11.45-1.05-2.02,3.46,15.36,3.46,15.36l6.11-3.29-2.24-16.6Z"/></g></g><g><path class="cls-28" d="M66.56,390.44l1.62,12.35s18.83,12.02,16.75,10.07c-6.13-5.75-9.8-9.32-9.8-9.32l-3.52-2.61,2.67-4.29-.86-4.9s-2.41,3.21-2.79,3.19c-.37-.02-4.07-4.5-4.07-4.5Z"/><path class="cls-28" d="M73.47,393.38c3.19,1.52,4.54,5.34,3.01,8.53-1.52,3.19-5.34,4.54-8.53,3.01-3.19-1.52-4.54-5.34-3.01-8.53,1.53-3.19,5.34-4.54,8.53-3.01Z"/><g><g><path class="cls-24" d="M66.6,400.61c-.8-2.27,.39-4.77,2.66-5.57,2.27-.8,4.77,.39,5.57,2.67,.8,2.27-.39,4.76-2.66,5.57-2.27,.8-4.77-.39-5.57-2.66Z"/><polygon class="cls-20" points="70.51 403.52 72.56 395.21 71.45 394.86 69.56 403.36 70.51 403.52"/></g><path class="cls-10" d="M71.23,402.64l1.68-6.45s1.67,.53,1.67,2.93c0,2.4-3.34,4.84-3.35,3.52Z"/><path class="cls-10" d="M69.17,402.25l1.16-5.05s-3.77,1.14-3.25,2.93c.53,1.79,1.97,3.22,2.09,2.11Z"/><path class="cls-8" d="M71.77,402.14s.58-2.5,1.36-2.84c.78-.34,1.34,.7,.26,1.91-1.09,1.21-1.85,1.76-1.62,.93Z"/></g></g><g><path class="cls-28" d="M101.94,387.55l1.62,12.35s8.67,16.06,8.18,13.25c-3.39-19.82-1.24-12.49-1.24-12.49l-3.52-2.6,2.67-4.29-.86-4.9s-2.41,3.22-2.78,3.19c-.37-.02-4.07-4.5-4.07-4.5Z"/><path class="cls-28" d="M108.85,390.5c3.19,1.52,4.54,5.34,3.01,8.53-1.52,3.19-5.35,4.53-8.53,3.01-3.19-1.52-4.53-5.35-3.01-8.53,1.52-3.19,5.34-4.53,8.53-3.01Z"/><g><g><path class="cls-24" d="M104.21,400.21c-2.18-1.04-3.09-3.65-2.05-5.82,1.04-2.18,3.64-3.1,5.82-2.06,2.17,1.04,3.09,3.65,2.05,5.82-1.04,2.17-3.65,3.1-5.82,2.06Z"/><polygon class="cls-20" points="109.03 399.5 104.6 392.17 103.57 392.72 108.25 400.06 109.03 399.5"/></g><path class="cls-10" d="M108.92,398.37l-3.37-5.75s1.56-.8,3.25,.89c1.69,1.7,1.05,5.79,.12,4.86Z"/><path class="cls-10" d="M107.19,399.55l-2.75-4.39s-1.86,3.47-.22,4.37c1.64,.9,3.67,.89,2.97,.02Z"/><path class="cls-8" d="M108.95,397.64s-1.36-2.18-1.05-2.97c.31-.79,1.45-.45,1.53,1.17,.08,1.62-.06,2.56-.49,1.8Z"/></g></g><g><path class="cls-28" d="M52.76,341.6l1.62,12.35s8.67,16.07,8.18,13.25c-3.38-19.81-1.24-12.49-1.24-12.49l-3.52-2.61,2.67-4.29-.86-4.9s-2.41,3.22-2.79,3.19c-.37-.02-4.07-4.5-4.07-4.5Z"/><path class="cls-28" d="M59.67,344.54c3.19,1.52,4.54,5.34,3.01,8.53-1.52,3.18-5.35,4.54-8.53,3.01-3.19-1.52-4.53-5.35-3.01-8.53,1.52-3.19,5.34-4.54,8.53-3.01Z"/><g><g><path class="cls-24" d="M55.02,354.25c-2.18-1.04-3.09-3.65-2.06-5.82,1.04-2.18,3.65-3.1,5.82-2.06,2.17,1.04,3.09,3.65,2.05,5.82-1.04,2.17-3.64,3.09-5.82,2.05Z"/><polygon class="cls-20" points="59.85 353.54 55.43 346.21 54.39 346.76 59.07 354.1 59.85 353.54"/></g><path class="cls-10" d="M59.73,352.41l-3.37-5.75s1.57-.8,3.25,.89c1.69,1.7,1.06,5.79,.12,4.86Z"/><path class="cls-10" d="M58.01,353.59l-2.75-4.39s-1.86,3.47-.22,4.37c1.64,.9,3.66,.89,2.97,.02Z"/><path class="cls-8" d="M59.77,351.68s-1.36-2.18-1.05-2.97c.32-.79,1.45-.45,1.53,1.17,.09,1.62-.06,2.56-.49,1.8Z"/></g></g><g><path class="cls-28" d="M88.98,341.7l1.62,12.35s5.25,7.81,5.18,5.75c-.03-.96,1.77-5,1.77-5l-3.52-2.6,2.67-4.29-.86-4.91s-2.41,3.22-2.78,3.19c-.37-.02-4.07-4.5-4.07-4.5Z"/><path class="cls-28" d="M95.88,344.64c3.19,1.52,4.54,5.34,3.01,8.53-1.52,3.19-5.35,4.54-8.53,3.01-3.19-1.53-4.53-5.35-3.01-8.53,1.52-3.19,5.34-4.54,8.53-3.01Z"/><g><g><path class="cls-24" d="M91.24,354.36c-2.18-1.04-3.09-3.65-2.05-5.82,1.04-2.17,3.64-3.1,5.82-2.06,2.18,1.04,3.09,3.65,2.05,5.82-1.04,2.18-3.65,3.1-5.82,2.06Z"/><polygon class="cls-20" points="96.07 353.64 91.64 346.31 90.61 346.85 95.29 354.2 96.07 353.64"/></g><path class="cls-10" d="M95.95,352.51l-3.37-5.75s1.56-.8,3.25,.89c1.69,1.7,1.06,5.79,.12,4.86Z"/><path class="cls-10" d="M94.23,353.69l-2.75-4.39s-1.86,3.47-.22,4.37c1.64,.89,3.67,.89,2.97,.02Z"/><path class="cls-8" d="M95.99,351.78s-1.37-2.18-1.05-2.97c.31-.79,1.45-.45,1.53,1.17,.08,1.62-.06,2.56-.49,1.8Z"/></g></g></g><g><g><g><path class="cls-32" d="M418.47,251.03l2.49,10.92,16.98,21.74,2.94-28.76s5.22,.11,5.61-.73c.39-.84,3.33-9.74,3.33-9.74l-.89-2.63-1.65-4.85-13.44,3.87-6.21,6.58,1.89-9-19.54-8.42,11.85,17.63-3.36,3.38Z"/><path class="cls-32" d="M394.41,260.39c4.61,3.96,17.47,5,18.21,4.86,.74-.14,.73-13.43,.73-13.43,0,0-5.04-3.23-6.55-4.36-1.51-1.14-12.55-25.62-13.25-26.68-.7-1.06,4.07,23.21,4.07,23.21,0,0-9.34,5.65-10.06,6.18-.72,.53,.11,2.97,.11,2.97,0,0,2.13,3.28,6.74,7.24Z"/></g><path class="cls-28" d="M449.53,245.28s-16.64,5.07-17.26,5.88c-.63,.8,4.09,25.91,4.09,25.91l-11.6-25.82s-4.58-.21-5.11,.56c-.53,.77,1.86,10.43,1.31,10.14-.55-.28-8.26-10.02-11.53-9.73-3.28,.29-22.83,1.77-21.92,3.11,.91,1.34-6.02-13.72-6.14-14.74-.12-1.02,5.64,8.61,9.91,9.6,4.28,.99,27.35-2.04,26.07-3.49-1.28-1.45-7.75-17.15-7.37-16.69,.38,.47,17.39,16.34,18.24,16.87,.86,.53,20.7-5.04,20.7-5.04l1.11,3.27-.5,.17Z"/><g><path class="cls-14" d="M445.84,254.3c-.65,.1-4.96,.64-4.96,.64l-2.9,28.41s4.18-23.98,4.28-25.07c.1-1.09,3.17-.72,4.01-.66,.85,.07,1.58-1.11,2.11-2.95,.54-1.85,.71-7.99,.71-7.99,0,0-2.6,7.53-3.25,7.62Z"/><path class="cls-14" d="M418.2,287.17s-15.1-11.09-16.07-15.35c-.97-4.26-.56-6.87,2.12-6.25,2.68,.61,7.01,6.51,7.97,10.1,.97,3.6,2.1,6.17,2.1,6.17,0,0-2.26-11.99-1.28-13.27,.98-1.28,2.4-4.35,2.68-5.97,.27-1.62,5.25-.65,5.25-.65,0,0-7.62-8.32-7.63-7.19-.02,1.13-.73,10.8-1.14,10.99-.41,.19-16.5-4.17-16.64-4.53,.12,.31,3.53,8,6.1,12.97,2.61,5.06,16.55,12.98,16.55,12.98Z"/><path class="cls-14" d="M429.32,239.35c-.19,.91-.61,7.56-.61,7.56l5.31-5.47,12.07-4.11s-4.91-.11-5.76-1.58c-.85-1.47-5.68-23.96-5.68-23.96,0,0,.84,4.69,1.74,14.47,.91,9.78,1.52,11.72-.95,12.42-2.47,.7-2.03,.6-3.43-3.87-1.4-4.47-11.07-29.77-10.58-22.41,.5,7.36,7.41,23.13,6.69,23.06-.73-.07-17.28-5.07-18.15-5.45-.88-.37,19.54,8.42,19.34,9.33Z"/><path class="cls-14" d="M416.86,247.27c1.61-.78-.69-2.66-2.01-5.46-1.31-2.81-6.79-14.56-6.43-13.68,7.54,18.38,.17,17.92,.17,17.92l-15.05-25.25s13.25,26.68,13.72,27.59c.48,.91,7.98-.34,9.59-1.12Z"/><path class="cls-14" d="M394.51,227.54s.15,9.86,.11,11.85c-.04,1.99,0,3.44-2.08,4.26-2.08,.83-3.96-9.24-5.12-11.2-1.16-1.96,4.27,15.15,4.27,15.15l5.93-3.61-3.11-16.46Z"/></g></g><g><path class="cls-28" d="M407.9,266.62l2.27,12.25s19.44,11.02,17.25,9.17c-6.43-5.42-10.28-8.79-10.28-8.79l-3.65-2.42,2.45-4.43-1.12-4.85s-2.24,3.34-2.61,3.33c-.37,0-4.3-4.28-4.3-4.28Z"/><path class="cls-28" d="M414.96,269.2c3.26,1.36,4.81,5.09,3.45,8.36-1.35,3.26-5.1,4.81-8.36,3.45-3.26-1.36-4.81-5.1-3.45-8.36,1.36-3.27,5.1-4.81,8.36-3.46Z"/><g><g><path class="cls-24" d="M408.47,276.78c-.92-2.23,.14-4.78,2.37-5.7,2.23-.92,4.78,.14,5.7,2.37,.92,2.23-.14,4.78-2.37,5.7-2.22,.92-4.78-.14-5.7-2.37Z"/><polygon class="cls-20" points="412.53 279.48 414.14 271.07 413.01 270.78 411.58 279.37 412.53 279.48"/></g><path class="cls-10" d="M413.2,278.56l1.34-6.53s1.7,.45,1.82,2.84c.12,2.39-3.08,5.01-3.16,3.69Z"/><path class="cls-10" d="M411.13,278.29l.89-5.1s-3.71,1.33-3.09,3.1c.63,1.76,2.13,3.11,2.19,2Z"/><path class="cls-8" d="M413.72,278.04s.45-2.53,1.21-2.9c.77-.38,1.38,.63,.36,1.9-1.02,1.26-1.75,1.86-1.56,1.01Z"/></g></g><g><path class="cls-28" d="M443.08,261.89l2.27,12.25s9.5,15.59,8.87,12.8c-4.42-19.61-1.9-12.41-1.9-12.41l-3.65-2.41,2.45-4.43-1.12-4.85s-2.24,3.34-2.61,3.33c-.38,0-4.3-4.28-4.3-4.28Z"/><path class="cls-28" d="M450.13,264.47c3.26,1.36,4.81,5.1,3.46,8.36-1.35,3.26-5.1,4.81-8.36,3.46-3.26-1.36-4.81-5.1-3.46-8.36,1.36-3.27,5.1-4.81,8.36-3.46Z"/><g><g><path class="cls-24" d="M446.01,274.41c-2.23-.93-3.28-3.48-2.35-5.71,.92-2.23,3.48-3.28,5.7-2.36,2.22,.93,3.28,3.48,2.35,5.71-.92,2.22-3.48,3.28-5.7,2.36Z"/><polygon class="cls-20" points="450.79 273.44 445.98 266.36 444.98 266.95 450.04 274.05 450.79 273.44"/></g><path class="cls-10" d="M450.61,272.32l-3.67-5.56s1.52-.89,3.29,.72c1.78,1.61,1.36,5.72,.38,4.84Z"/><path class="cls-10" d="M448.95,273.59l-2.98-4.24s-1.68,3.57,0,4.37c1.69,.81,3.71,.7,2.97-.13Z"/><path class="cls-8" d="M450.61,271.59s-1.47-2.11-1.2-2.91c.27-.81,1.42-.53,1.59,1.09,.17,1.62,.07,2.56-.39,1.82Z"/></g></g><g><path class="cls-28" d="M391.55,218.58l2.27,12.25s9.5,15.59,8.87,12.8c-4.42-19.61-1.9-12.41-1.9-12.41l-3.65-2.42,2.44-4.43-1.12-4.85s-2.24,3.34-2.61,3.34c-.37,0-4.3-4.28-4.3-4.28Z"/><path class="cls-28" d="M398.6,221.16c3.26,1.36,4.81,5.1,3.46,8.36-1.36,3.26-5.1,4.81-8.36,3.46-3.26-1.36-4.81-5.1-3.45-8.36,1.36-3.26,5.1-4.81,8.36-3.45Z"/><g><g><path class="cls-24" d="M394.48,231.1c-2.23-.92-3.28-3.48-2.36-5.7,.93-2.23,3.48-3.29,5.71-2.36,2.23,.93,3.28,3.48,2.35,5.71-.92,2.22-3.48,3.28-5.7,2.36Z"/><polygon class="cls-20" points="399.26 230.13 394.45 223.05 393.45 223.64 398.51 230.73 399.26 230.13"/></g><path class="cls-10" d="M399.08,229.01l-3.67-5.57s1.52-.89,3.3,.72c1.78,1.61,1.36,5.72,.38,4.84Z"/><path class="cls-10" d="M397.42,230.28l-2.98-4.24s-1.68,3.57,.01,4.37c1.69,.81,3.7,.69,2.96-.13Z"/><path class="cls-8" d="M399.08,228.28s-1.48-2.11-1.2-2.91c.27-.8,1.42-.53,1.59,1.09,.17,1.62,.07,2.56-.39,1.82Z"/></g></g><g><path class="cls-28" d="M427.72,216.77l2.27,12.25s5.65,7.53,5.47,5.47c-.08-.96,1.5-5.08,1.5-5.08l-3.65-2.41,2.44-4.43-1.12-4.85s-2.24,3.34-2.61,3.33c-.37,0-4.3-4.28-4.3-4.28Z"/><path class="cls-28" d="M434.77,219.35c3.26,1.36,4.81,5.1,3.46,8.36-1.35,3.26-5.1,4.81-8.36,3.46-3.26-1.36-4.81-5.1-3.46-8.36,1.35-3.27,5.1-4.81,8.36-3.46Z"/><g><g><path class="cls-24" d="M430.65,229.29c-2.23-.93-3.28-3.48-2.36-5.71,.92-2.23,3.48-3.28,5.7-2.36,2.23,.92,3.28,3.48,2.36,5.71-.92,2.23-3.48,3.28-5.71,2.36Z"/><polygon class="cls-20" points="435.43 228.33 430.63 221.24 429.62 221.84 434.68 228.93 435.43 228.33"/></g><path class="cls-10" d="M435.26,227.21l-3.67-5.57s1.52-.89,3.29,.72c1.78,1.61,1.36,5.72,.38,4.84Z"/><path class="cls-10" d="M433.6,228.48l-2.98-4.24s-1.67,3.56,.01,4.37c1.69,.81,3.71,.69,2.97-.14Z"/><path class="cls-8" d="M435.25,226.48s-1.48-2.11-1.2-2.92c.27-.8,1.42-.53,1.59,1.09,.17,1.62,.08,2.56-.39,1.83Z"/></g></g></g></g><g><g><path class="cls-27" d="M407.58,419.22h0c-11.01-4.85-21.67-13.17-29.22-22.81-5.67-7.24-7.62-13.59-5.78-18.87,2.29-6.58,9.48-8.51,9.78-8.58l3.68-.95-.52,3.54c.28,.88,2.35,5.63,16.98,16.09,3.78,2.71,7.84,5.02,12.05,6.88,12.89,5.67,23.35,5.33,23.46,5.32l1.62-.06,.72,1.48c1.48,3.1,.72,13.93-9.77,20.03-6.87,3.99-17.35,.42-22.99-2.06Zm-26.33-44.02c-1.39,.76-3.07,2.04-3.75,4.02-1.12,3.27,.6,7.97,4.99,13.57,6.96,8.89,17.18,16.87,27.33,21.34h0c7.88,3.46,14.93,4.38,18.38,2.37,6.05-3.51,7.35-8.58,7.47-11.17-4.02-.18-12.91-1.11-23.36-5.72-4.52-1.99-8.87-4.47-12.93-7.37-11.5-8.23-16.3-13.62-18.13-17.04Z"/><path class="cls-19" d="M437.99,402.59s-18.25,.79-37.04-12.66c-18.79-13.45-18.08-18.3-18.08-18.3,0,0-16.99,4.38-2.44,22.96,14.55,18.58,39.42,29.83,48.96,24.29,9.54-5.54,9.34-14.76,8.6-16.3Z"/><path class="cls-17" d="M438.1,406.98c-1.35,2.35-3.48,4.74-6.83,6.68-9.54,5.54-34.41-5.71-48.96-24.29-4.53-5.78-6-10.19-5.88-13.52-2.62,3.38-3.51,9.18,4,18.76,14.55,18.58,39.42,29.83,48.96,24.3,5.96-3.46,8.12-8.36,8.72-11.92Z"/><path class="cls-11" d="M406.81,396.45c-13.3-8.46-22.71-18.92-24.65-20.98-1.55-1.66-5.67,2.99-.77,9.92,4.91,6.93,21.24,23.53,37.23,24.71,15.98,1.17,1.48-5.18-11.82-13.65Z"/><g><path class="cls-27" d="M388.12,406.63c-.14-.44-3.26-10.76-2.18-17.26,.99-5.98,1.15-10.95,1.15-11l3.15-.06c0,.21-.17,5.26-1.2,11.47-.94,5.7,2.06,15.61,2.09,15.7l-3.01,1.15Z"/><path class="cls-27" d="M409.05,419.76c-.14-.2-1.44-2.03-1.68-5.35-.06-.82-.2-1.62-.36-2.55-.35-2.14-.8-4.8-.55-9.31,.32-5.8-1.45-10.58-1.47-10.63l2.95-1.35c.08,.22,2.04,5.51,1.68,12.01-.23,4.11,.16,6.46,.51,8.54,.16,.97,.32,1.88,.39,2.86,.17,2.36,1.07,3.66,1.08,3.67l-2.55,2.09Z"/><path class="cls-27" d="M429.13,419.75c0-.07,.84-7.05,.93-11.01,.08-3.54-2.14-7.33-2.16-7.37l2.7-1.85c.11,.18,2.73,4.61,2.62,9.13-.09,4.12-.92,11.05-.96,11.34l-3.13-.25Z"/></g></g><g><path class="cls-27" d="M430.54,392.45h0c-11.97,1.3-25.35-.58-36.71-5.17-8.53-3.44-13.39-7.97-14.43-13.46-1.3-6.84,3.97-12.11,4.19-12.32l2.72-2.67,1.31,3.32c.68,.63,4.85,3.71,22.74,5.46,4.63,.46,9.3,.43,13.88-.06,14-1.52,22.89-7.04,22.99-7.1l1.36-.87,1.36,.93c2.83,1.93,7.58,11.7,1.53,22.23-3.96,6.88-14.82,9.03-20.95,9.69Zm-44.8-24.98c-.83,1.35-1.65,3.3-1.24,5.35,.66,3.39,4.5,6.59,11.11,9.26,10.47,4.23,23.31,6.04,34.33,4.84h0c8.56-.93,15.11-3.66,17.11-7.12,3.48-6.07,2.08-11.1,.89-13.41-3.57,1.86-11.74,5.49-23.09,6.72-4.91,.53-9.92,.56-14.88,.06-14.07-1.39-20.92-3.66-24.22-5.7Z"/><path class="cls-19" d="M448.58,362.86s-15.41,9.8-38.41,7.53c-23-2.27-24.8-6.83-24.8-6.83,0,0-12.53,12.29,9.35,21.12,21.88,8.83,49.05,6.16,54.55-3.4,5.5-9.57,.72-17.45-.69-18.42Z"/><path class="cls-17" d="M450.87,366.6c0,2.71-.66,5.85-2.58,9.2-5.5,9.56-32.67,12.22-54.55,3.4-6.82-2.75-10.29-5.83-11.85-8.78-.58,4.23,1.54,9.71,12.83,14.26,21.88,8.83,49.05,6.16,54.55-3.4,3.43-5.97,2.86-11.29,1.6-14.68Z"/><path class="cls-11" d="M418.49,373.11c-15.75-.69-29.13-5.05-31.83-5.87-2.18-.66-3.42,5.42,4.29,8.97,7.71,3.55,30.15,9.79,44.59,2.81,14.44-6.97-1.3-5.23-17.05-5.92Z"/><g><path class="cls-27" d="M407.39,391.26c-.33-.31-8.2-7.7-10.51-13.87-2.13-5.68-4.47-10.06-4.5-10.1l2.7-1.64c.1,.19,2.48,4.64,4.69,10.54,2.03,5.41,9.57,12.5,9.65,12.57l-2.03,2.5Z"/><path class="cls-27" d="M432.09,392.19c-.22-.1-2.27-1.05-4.13-3.79-.46-.68-.98-1.31-1.58-2.03-1.38-1.68-3.1-3.76-5.12-7.78-2.62-5.19-6.54-8.45-6.58-8.48l1.87-2.64c.18,.15,4.51,3.74,7.45,9.57,1.86,3.68,3.37,5.52,4.71,7.15,.62,.75,1.22,1.47,1.77,2.28,1.33,1.95,2.76,2.63,2.78,2.64l-1.16,3.08Z"/><path class="cls-27" d="M449.47,382.15c-.03-.07-2.79-6.53-4.69-10.01-1.7-3.1-5.51-5.28-5.55-5.3l1.41-2.95c.19,.1,4.67,2.63,6.83,6.6,1.98,3.62,4.72,10.03,4.84,10.31l-2.84,1.35Z"/></g></g><g><path class="cls-27" d="M313.1,125.05h0c-2.13,11.85-7.71,24.15-15.32,33.76-5.71,7.22-11.42,10.59-16.98,10.05-6.93-.68-10.49-7.22-10.64-7.49l-1.79-3.36,3.56-.32c.79-.48,4.92-3.61,11.65-20.28,1.74-4.31,3.04-8.8,3.86-13.33,2.49-13.86-.3-23.95-.33-24.05l-.44-1.56,1.27-1.04c2.66-2.17,13.38-3.97,21.76,4.8,5.49,5.74,4.48,16.77,3.39,22.83Zm-36.61,35.93c1.06,1.17,2.7,2.51,4.79,2.7,3.45,.32,7.6-2.46,12.02-8.04,7.01-8.85,12.36-20.66,14.32-31.58h0c1.52-8.48,.75-15.54-2.01-18.42-4.84-5.05-10.07-5.13-12.61-4.64,.77,3.95,1.95,12.81-.07,24.05-.87,4.86-2.26,9.67-4.13,14.29-5.3,13.11-9.41,19.04-12.31,21.63Z"/><path class="cls-19" d="M289.8,99.39s5.05,17.55-3.61,38.98c-8.66,21.42-13.55,21.87-13.55,21.87,0,0,8.25,15.48,22.89-3.02,14.64-18.5,19.75-45.32,12.12-53.29-7.63-7.97-16.54-5.61-17.86-4.53Z"/><path class="cls-17" d="M294.03,98.25c2.6,.76,5.43,2.27,8.1,5.07,7.62,7.98,2.52,34.79-12.12,53.3-4.56,5.76-8.5,8.23-11.77,8.89,3.9,1.75,9.74,1.26,17.3-8.29,14.64-18.5,19.75-45.32,12.12-53.29-4.76-4.98-10.03-5.93-13.63-5.67Z"/><path class="cls-11" d="M291.14,131.15c-5.11,14.92-13.06,26.52-14.61,28.88-1.25,1.9,4.24,4.81,9.82-1.58,5.58-6.4,17.89-26.17,15.28-41.99-2.62-15.81-5.38-.23-10.49,14.69Z"/><g><path class="cls-27" d="M305.42,146.92c-.39,.23-9.7,5.7-16.27,6.18-6.05,.44-10.91,1.45-10.96,1.46l-.8-3.05c.21-.05,5.15-1.07,11.43-1.53,5.77-.42,14.69-5.66,14.77-5.72l1.83,2.65Z"/><path class="cls-27" d="M313.28,123.49c-.16,.18-1.64,1.88-4.8,2.89-.79,.26-1.53,.57-2.39,.94-1.99,.85-4.48,1.91-8.92,2.72-5.71,1.05-9.95,3.89-9.99,3.92l-2-2.55c.2-.13,4.87-3.27,11.29-4.45,4.05-.74,6.24-1.67,8.18-2.5,.9-.39,1.75-.75,2.69-1.05,2.25-.72,3.31-1.9,3.32-1.92l2.63,1.98Z"/><path class="cls-27" d="M308.56,103.98c-.07,.01-7.06,.84-10.92,1.68-3.46,.75-6.62,3.81-6.65,3.83l-2.43-2.19c.15-.16,3.84-3.73,8.26-4.69,4.03-.88,10.96-1.7,11.25-1.73l.49,3.1Z"/></g></g><g><path class="cls-27" d="M281.68,109.01h0c4.07,11.33,5.38,24.78,3.59,36.9-1.34,9.1-4.61,14.88-9.69,17.19-6.34,2.87-12.7-1.01-12.96-1.18l-3.23-2.01,2.92-2.06c.45-.81,2.47-5.59-.03-23.39-.64-4.61-1.76-9.14-3.32-13.47-4.77-13.25-12.22-20.6-12.3-20.68l-1.16-1.12,.59-1.54c1.22-3.21,9.6-10.12,21.25-6.71,7.62,2.23,12.25,12.29,14.34,18.09Zm-13.77,49.41c1.5,.49,3.59,.83,5.5-.05,3.14-1.44,5.35-5.93,6.39-12.97,1.65-11.17,.4-24.07-3.36-34.51h0c-2.91-8.11-7.1-13.84-10.94-14.96-6.72-1.96-11.28,.58-13.25,2.28,2.65,3.04,8.09,10.12,11.95,20.87,1.67,4.65,2.87,9.51,3.56,14.45,1.96,14,1.36,21.19,.14,24.88Z"/><path class="cls-19" d="M248.69,98.43s13.14,12.68,16.34,35.56c3.2,22.89-.82,25.71-.82,25.71,0,0,14.88,9.29,18.33-14.05,3.45-23.34-5.53-49.13-16.11-52.23-10.59-3.1-17.13,3.4-17.74,5Z"/><path class="cls-17" d="M251.78,95.32c2.63-.64,5.85-.74,9.55,.35,10.58,3.1,19.55,28.89,16.11,52.23-1.07,7.27-3.26,11.37-5.76,13.58,4.25-.43,9.07-3.78,10.85-15.82,3.45-23.34-5.53-49.13-16.11-52.23-6.61-1.93-11.65-.13-14.64,1.89Z"/><path class="cls-11" d="M265.71,125.26c3.02,15.47,1.93,29.5,1.77,32.32-.13,2.28,6.07,2.05,7.72-6.27,1.64-8.33,2.44-31.6-7.73-44-10.17-12.4-4.78,2.49-1.75,17.96Z"/><g><path class="cls-27" d="M285.96,131.8c-.23,.4-5.56,9.78-11.01,13.47-5.02,3.4-8.73,6.71-8.77,6.74l-2.22-2.24c.16-.14,3.93-3.5,9.14-7.03,4.79-3.24,9.9-12.24,9.95-12.33l2.91,1.39Z"/><path class="cls-27" d="M281.06,107.57c-.04,.24-.49,2.45-2.72,4.91-.56,.61-1.05,1.26-1.6,2.01-1.31,1.73-2.93,3.89-6.36,6.8-4.43,3.76-6.68,8.35-6.7,8.39l-3.01-1.2c.11-.21,2.58-5.26,7.56-9.49,3.14-2.67,4.57-4.57,5.84-6.25,.58-.78,1.14-1.53,1.8-2.26,1.59-1.75,1.91-3.3,1.92-3.32l3.27,.41Z"/><path class="cls-27" d="M267.23,93.03c-.06,.05-5.69,4.25-8.63,6.91-2.62,2.38-3.83,6.6-3.85,6.64l-3.2-.68c.06-.21,1.46-5.15,4.81-8.19,3.05-2.77,8.64-6.95,8.88-7.12l1.98,2.44Z"/></g></g><g><path class="cls-27" d="M70.45,341.89h0c-12.48-2.88-25.27-9.46-35.09-18.05-7.37-6.44-10.67-12.7-9.8-18.58,1.08-7.34,8.22-10.78,8.52-10.92l3.66-1.72,.15,3.8c.47,.86,3.58,5.42,20.96,13.45,4.49,2.08,9.2,3.69,13.97,4.8,14.61,3.37,25.48,.93,25.59,.91l1.68-.39,1.04,1.41c2.16,2.94,3.53,14.43-6.24,22.89-6.39,5.54-18.06,3.89-24.45,2.41Zm-36.28-40.81c-1.3,1.07-2.81,2.74-3.12,4.95-.52,3.65,2.21,8.21,7.92,13.2,9.05,7.91,21.32,14.23,32.82,16.88h0c8.93,2.06,16.48,1.61,19.69-1.17,5.63-4.88,5.98-10.43,5.59-13.17-4.24,.62-13.72,1.4-25.57-1.34-5.12-1.18-10.16-2.91-14.98-5.14-13.66-6.32-19.75-11-22.35-14.22Z"/><path class="cls-19" d="M98.95,318.46s-18.93,4.46-41.25-5.88c-22.32-10.33-22.54-15.55-22.54-15.55,0,0-16.89,7.96,2.01,24.5,18.91,16.54,47.15,23.37,56.03,15.68,8.88-7.69,6.83-17.29,5.75-18.76Z"/><path class="cls-17" d="M99.94,323.02c-.94,2.73-2.7,5.65-5.81,8.34-8.88,7.69-37.13,.86-56.03-15.68-5.89-5.15-8.3-9.47-8.84-12.98-2.07,4.05-1.85,10.3,7.91,18.82,18.91,16.54,47.15,23.37,56.03,15.68,5.54-4.8,6.83-10.35,6.75-14.19Z"/><path class="cls-11" d="M65.11,318.22c-15.59-6.21-27.51-15.27-29.95-17.04-1.96-1.43-5.33,4.26,1.17,10.52,6.51,6.27,26.89,20.39,43.85,18.44,16.95-1.95,.52-5.71-15.07-11.93Z"/><g><path class="cls-27" d="M47.6,332.59c-.23-.43-5.55-10.61-5.71-17.62-.15-6.45-.97-11.68-.98-11.73l3.28-.69c.04,.22,.87,5.53,1.03,12.23,.15,6.15,5.25,15.91,5.3,16.01l-2.92,1.8Z"/><path class="cls-27" d="M72.1,342.16c-.19-.18-1.91-1.84-2.82-5.26-.23-.85-.53-1.66-.88-2.59-.8-2.16-1.8-4.86-2.42-9.62-.81-6.13-3.62-10.78-3.65-10.83l2.81-2c.13,.21,3.23,5.35,4.14,12.23,.57,4.35,1.45,6.73,2.23,8.83,.36,.98,.71,1.9,.98,2.92,.65,2.43,1.85,3.62,1.86,3.63l-2.25,2.69Z"/><path class="cls-27" d="M93.09,338.17c0-.07-.52-7.55-1.21-11.7-.62-3.72-3.7-7.24-3.73-7.27l2.46-2.47c.16,.17,3.77,4.28,4.55,9.03,.72,4.33,1.23,11.74,1.25,12.05l-3.32,.36Z"/></g></g><g><path class="cls-27" d="M89.14,309.33h0c-12.26,3.74-26.63,4.43-39.42,1.89-9.61-1.9-15.58-5.68-17.77-11.2-2.72-6.9,1.74-13.45,1.93-13.72l2.31-3.33,2.04,3.21c.83,.52,5.81,2.91,24.87,1.2,4.93-.44,9.81-1.39,14.5-2.82,14.34-4.37,22.54-11.92,22.63-11.99l1.25-1.18,1.61,.7c3.35,1.46,10.26,10.73,6.02,22.95-2.77,7.98-13.71,12.39-19.98,14.3Zm-51.81-17.23c-.6,1.57-1.07,3.77-.24,5.85,1.37,3.42,6.02,6,13.45,7.48,11.79,2.34,25.58,1.68,36.86-1.76h0c8.77-2.68,15.08-6.83,16.48-10.84,2.44-7.04-.03-12.02-1.73-14.21-3.37,2.66-11.18,8.07-22.81,11.62-5.03,1.53-10.26,2.55-15.55,3.02-14.99,1.35-22.61,.33-26.46-1.15Z"/><path class="cls-19" d="M102.12,274.8s-14.17,13.31-38.67,15.51c-24.51,2.2-27.3-2.22-27.3-2.22,0,0-10.66,15.34,13.97,20.23,24.64,4.89,52.52-3.3,56.38-14.4,3.85-11.1-2.72-18.39-4.39-19.12Z"/><path class="cls-17" d="M105.27,278.26c.55,2.83,.48,6.25-.87,10.14-3.85,11.09-31.74,19.28-56.37,14.39-7.68-1.52-11.92-4.06-14.14-6.83,.23,4.54,3.54,9.84,16.25,12.36,24.64,4.89,52.52-3.31,56.37-14.4,2.4-6.93,.75-12.38-1.24-15.67Z"/><path class="cls-11" d="M72.7,291.5c-16.61,2.4-31.47,.51-34.45,.19-2.41-.26-2.5,6.35,6.27,8.53,8.77,2.18,33.48,4.24,47.19-5.92,13.71-10.16-2.39-5.21-19-2.8Z"/><g><path class="cls-27" d="M64.69,312.69c-.41-.26-10.11-6.42-13.75-12.41-3.35-5.51-6.68-9.63-6.71-9.67l2.5-2.25c.14,.18,3.51,4.36,7,10.09,3.2,5.26,12.49,11.17,12.59,11.23l-1.63,3.02Z"/><path class="cls-27" d="M90.7,308.75c-.25-.06-2.58-.65-5.08-3.15-.62-.62-1.28-1.18-2.05-1.81-1.78-1.48-3.99-3.32-6.9-7.12-3.77-4.91-8.52-7.54-8.57-7.56l1.44-3.13c.22,.12,5.46,3.02,9.69,8.53,2.67,3.48,4.62,5.1,6.34,6.54,.8,.66,1.57,1.29,2.3,2.04,1.78,1.78,3.41,2.21,3.43,2.21l-.6,3.45Z"/><path class="cls-27" d="M106.89,294.8c-.05-.06-4.22-6.27-6.89-9.53-2.4-2.91-6.82-4.42-6.86-4.44l.89-3.37c.22,.07,5.4,1.82,8.46,5.55,2.79,3.39,6.93,9.55,7.11,9.82l-2.7,1.98Z"/></g></g></g></g><g><path class="cls-22" d="M324.15,220.46c-25.87-19.14-57.56-27.67-89.51-24.15l-18.89-30.9-.8-1.29-1.79-.47c-.13-.04-.3-.08-.48-.11l-.82-.14c-3.34-.52-12.41-1.15-26.36,3.71-9.16,2.88-18.52,7.21-27.83,12.89-32.9,20.05-36.77,42.15-36.92,43.08l-.25,1.58,21.46,28.62c-36.88,56.44-23.6,131.36,30.89,171.67,22.7,16.8,49.2,24.9,75.49,24.9,38.98,0,77.49-17.82,102.41-51.49,41.72-56.38,29.79-136.18-26.59-177.9Z"/><path class="cls-1" d="M347.4,396.11c-40.54,54.79-117.82,66.34-172.6,25.81-54.79-40.54-66.34-117.82-25.8-172.6,40.54-54.79,117.81-66.34,172.6-25.8,54.79,40.54,66.33,117.82,25.8,172.6Z"/><g class="cls-38"><path class="cls-8" d="M291.31,317.14c-8.28-8.32-9.82-1.36-14.21-16.67-4.39-15.31-9.81-24.82-37.16-19.68-1.43,.27-2.78,.6-4.08,.97-2.69,.61-5.39,1.7-8.08,3.27-2.72,1.51-5.03,3.28-6.93,5.28-.98,.93-1.95,1.93-2.91,3.02-18.38,20.89-12.96,30.41-2.03,42,10.93,11.59,4.15,9.36,7.09,20.73,2.64,10.22,16.38,5.87,22.42,3.16,.11,4.35,.53,9.69,1.87,11.25,2.37,2.78,4.04,2.26,8.2-.11,4.16-2.37,3.23-14,3.23-14,0,0,2.07,7.08,2.89,9.22,.82,2.14,8.68,.05,11.8-1.72,3.12-1.78,1.97-4.82,.29-7.77-1.68-2.95,.14-7.69,.14-7.69,0,0,3.06,4.34,6.8,6.77,3.74,2.43,9.31-5.74,11.22-7.91,1.29-1.46-5.47-5.93-10.02-8.69,5.07-3.38,17.29-13.56,9.48-21.41Zm-47.31,11.04c3.03,6.36,3.49,11.31-4.08,15.62-7.57,4.31-17.82,2.54-16.54-17.3,.47-7.27,17.59-4.68,20.62,1.68Zm16.22,14.05c-7.28,3.06-6.59,.89-8.45-5.83-2.24-8.07,3.64-7.07,8.04-3.49,4.4,3.58,7.7,6.26,.42,9.32Zm-3.59-21.24c-3.92-5.85,2.58-21.9,9.07-18.59,17.72,9.02,14.01,18.74,6.44,23.05-7.57,4.31-11.59,1.39-15.52-4.46Z"/><path class="cls-8" d="M301.55,252.8c-7.38-6.33-11.15-1.89-11.61-1.29,.21-.32,.99-1.86,.06-6.16-1.07-4.91-8.01-9.67-13.54-6.95-5.53,2.73,.49,8,1.18,11.23,.68,3.22-5.04,13.83-5.04,13.83l-5.44,9.7c5.39,3.59,8.22,9.44,10.53,16.7l8.53-15.21c2.08-1.49,6.25-4.25,11.13-6.29,6.99-2.92,12.1-8.8,4.21-15.57Z"/><path class="cls-8" d="M181.94,330.99l26.6,.64c-5.38-5.81-9.43-11.23-10.29-17.61l-16.81-.41c-.51-4.63-2.33-12.31-8.85-12.45-9.34-.2-12.69,5.74-12.77,10.67-.08,4.93,10.34,10.05,10.34,10.05,0,0-12.42,6.22-4.59,15.57,5.79,6.92,14.15,4.11,16.37-6.48Z"/><path class="cls-8" d="M323.37,319.81c-2.59,1.69-5.31,2.02-6.76,2.06l-1.07-.03h0l-15.3-.37c1.56,6.29-4.68,13-9.75,17.12l24.63,.6s5.83,2.19,9.83,5.33c4,3.14,10.52,1.76,9.95-5.66-.58-7.43-6.17-8.81-6.17-8.81l2.65-1.93c2.65-1.93,7.72-9.07,2.43-13.28-5.28-4.21-6.65,2.51-10.43,4.98Z"/><path class="cls-8" d="M221.73,364.32l-8.8,15.69s-3.86,6.5-8.22,8.98c-4.36,2.48-7.34,7.37-1.45,12.3,5.89,4.93,9.37-1.93,9.37-1.93,0,0,2.59,12.12,9.48,7.35,6.89-4.78,3.42-11.1,5.14-16.75h0l13.05-23.27c-6.48,2.04-14.85,3.13-18.57-2.37Z"/></g><path class="cls-9" d="M307.76,258.18c-12.5-7.76-34.66-25.65-60.77-20.08-26.09,5.57-40.68-15.84-11.96-25.14,28.71-9.29,64.8,9.02,80.39,28.95,15.59,19.93,7.99,25.98-7.66,16.27Z"/><path class="cls-25" d="M233.65,202.44s-7.32,15.58-38.95,34.79c-27.08,16.45-44.51,21.12-44.51,21.12l-26-34.67s7.39-22.46,39.2-41.84c31.78-19.38,48.83-14.45,48.83-14.45l21.43,35.06Z"/><path class="cls-37" d="M233.65,202.44s-7.32,15.58-38.95,34.79c-27.08,16.45-44.51,21.12-44.51,21.12l-26-34.67s6.8-20.52,38.59-39.9c31.78-19.37,49.44-16.39,49.44-16.39l21.43,35.06Z"/><path class="cls-7" d="M159.34,183.23c29.43-17.94,50.23-16.62,52.55-15.92,3.07,4.58-17.98,23.16-32.44,32.67-27.13,17.87-49.81,31-55.12,23.88l-.15-.19s3.37-21.08,35.15-40.45Z"/><g class="cls-4"><path class="cls-42" d="M178.6,197.5c12.66-8.32,30.32-23.59,32.51-30.35,.36,.05,.63,.1,.78,.15,3.07,4.58-17.98,23.16-32.44,32.67-27.13,17.87-49.81,31-55.12,23.88l-.15-.19s.1-.5,.33-1.34c6.74,4.7,28.41-7.93,54.08-24.83Z"/></g><g class="cls-45"><path class="cls-41" d="M214.77,177.58c.24,.68,16.03,20.15,13.83,25.5-2.19,5.35-34.66,34.89-48.93,36.27-14.27,1.38-10.71-22.65,1.7-34.08,12.41-11.43,31.41-33.35,33.39-27.69Z"/></g><g><path class="cls-8" d="M297.45,231.76c-7.41-8.06-20.57-5.43-12.2,3.29,8.37,8.72,21.68,7.01,12.2-3.29Z"/><path class="cls-8" d="M255.35,217.17c-15.05-1.05-26.38,4.25-13,7.16,13.38,2.92,31.39,9.46,34.05,4.44,2.66-5.02-3.91-10.4-21.05-11.6Z"/><path class="cls-8" d="M213.06,184.59s-7.12,1.02-6.6,7.55c.52,6.52,11.37,15.59,15.77,10.39,4.41-5.2-9.17-17.94-9.17-17.94Z"/></g><path class="cls-18" d="M127.04,174.16c-8.83-1.21-17.16-2.36-23.89-10.74-10.52-13.1-6.06-25.76-1.34-39.19,4.56-12.94,5.97-33.59,5.99-33.78l11.98,.79c-.05,.91-1.53,22.47-6.64,36.98-5.16,14.66-6.44,20.43-.63,27.67,3.58,4.46,7.77,5.2,16.16,6.36,4.89,.68,10.44,1.44,16.79,3.47,19.15,6.08,22.01,19.39,22.24,20.23,1.06,1.15,.38,4.68-2.24,7.1-2.63,2.43-5.61,3.46-6.67,2.31-.02-.02-.04-.07-.05-.09l-.17,.17c-.03-.15-3.99-14.22-16.74-18.28-5.38-1.71-10.17-2.37-14.8-3Z"/><path class="cls-40" d="M127.04,174.16c-8.83-1.21-17.16-2.36-23.89-10.74-10.52-13.1-6.06-25.76-1.34-39.19,4.56-12.94,5.97-33.59,5.99-33.78l11.98,.79c0,.08-.02,.35-.05,.7l-8.2-.4c-.03,.21-1.77,20.48-6.48,33.27-4.87,13.24-9.48,25.76,.66,38.43,6.48,8.1,14.66,9.09,23.33,10.13,4.54,.56,9.24,1.12,14.5,2.71,12.48,3.76,16.14,17.5,16.18,17.64l.16-.16s.03,.06,.06,.09c1.02,1.11,3.98,.04,6.61-2.39,.36-.33,.67-.68,.96-1.04-.45,.99-1.12,1.97-2.05,2.83-2.63,2.43-5.61,3.46-6.67,2.31-.02-.02-.04-.07-.05-.09l-.17,.17c-.03-.15-3.99-14.22-16.74-18.28-5.38-1.71-10.17-2.37-14.8-3Z"/><g class="cls-47"><path class="cls-43" d="M115.18,91.72s-4.03,28.48-9.76,42.16c-5.72,13.68-1.48,26.44,12.13,29.96,13.61,3.52,34.85,7.34,40.62,17.27,5.77,9.94,7.67,10.09,9.19,6.78,1.52-3.31-7.19-15.87-19.02-20.6-16.49-6.57-28.59-1.67-37.1-13.17-6.3-8.53,.12-22.39,3.58-31.33,3.48-8.93,4.93-30.86,4.93-30.86l-4.56-.22Z"/></g><g><path class="cls-6" d="M128.66,67.66c.46-2.62,1.8-4.88,3.6-7.17L169.97,1.68c-12.24,15.41-24.55,30.8-37.07,45.93-3.14,3.76-6.31,7.53-9.56,11.09-.81,.88-1.63,1.76-2.43,2.53-.14,.14-.33,.31-.5,.46-.01,0-.01,0-.09-.02-1.43-.3-3.32-1.47-4.76-2.91-3.12-2.9-4.69-6.91-6.31-11.57-1.59-4.53-10.55-12.61-10.55-12.61,1,8.5,1.72,17.28,1.32,25.63-.12,2.07-.34,4.12-.76,5.93-.21,.89-.49,1.73-.78,2.25-.06,.11-.12,.2-.17,.27h-.13l-.56-.02c-.4-.03-.87-.09-1.34-.16-.95-.15-1.95-.36-2.96-.6-2.02-.48-4.08-1.06-6.13-1.68-8.22-2.52-16.43-5.56-24.57-8.66-8.15-3.11-27.21-2.89-27.21-2.89,10.82,4.69,21.66,9.57,32.14,14.86,2.61,1.33,5.2,2.69,7.69,4.12,1.24,.72,2.46,1.45,3.58,2.2,.56,.38,1.11,.76,1.55,1.12,.09,.07,.18,.15,.27,.22-.04,.04-.05,.07-.1,.12-.54,.58-1.57,1.27-2.66,1.82-2.24,1.14-4.89,2-7.55,2.6-1.34,.3-2.69,.54-4.05,.72-1.4,.19-2.57,.24-4.26,.35-3.09,.25-6.03,.6-9.01,.96l-17.73,2.31c-11.79,1.6-23.53,3.49-35.29,5.31,0,0,25.52,3.66,37.9,2.46,12.37-1.25,24.77-2.45,37.13-3.18,3.09-.16,6.18-.31,9.21-.28,1.42,.01,3.2,.09,4.03,.32,0,.01,.02,.02,.03,.03,.01,.03,.02,.08,.02,.14,0,.32-.17,.92-.47,1.5-1.24,2.4-3.35,4.75-5.43,6.95-2.12,2.21-4.36,4.33-6.65,6.41-9.06,8.49-28.99,23.53-28.99,23.53,8.75-4.92,17.54-9.81,26.42-14.51,4.45-2.34,8.9-4.65,13.41-6.87,2.25-1.11,4.51-2.2,6.8-3.23,1.14-.52,2.29-1.01,3.45-1.47,1.1-.41,2.47-.97,3.36-.92,1.84,.72,2.88,2.59,3.61,4.44,.72,1.89,1.17,3.9,1.54,5.92,.71,4.04,1.1,8.15,1.45,12.26,.43,5.25,.84,10.51,1.17,15.76-.29,6.47-.35,12.92-.4,19.38,0,13.06,3.63,39.05,3.64,39.03h0c-.2-12.98-.1-25.99,.37-38.95,.53-12.93,1.21-25.99,3.52-38.46,.6-3.07,1.35-6.19,2.52-8.67,.38-.97,1.09-1.69,1.29-1.86,.01,0-.01,0,.04,0,.47,.1,.62,.16,.91,.25,.61,.19,1.27,.47,1.92,.78,5.29,2.63,10.46,6.67,15.41,10.66,9.88,8.17,19.31,17.14,28.48,26.18,0,0-7.72-18.9-13.67-26.42-2.97-3.76-5.9-7.55-8.73-11.39-2.76-3.82-5.72-7.73-7.79-11.58-.48-.93-.66-1.47-.72-2.06,.54,.02,1.36,.17,2.14,.41,1.02,.29,2.08,.69,3.14,1.13,4.33,1.82,8.67,3.82,12.91,6.02l25.63,13.26s-13.34-12.52-20.86-17.27c-3.76-2.38-7.48-4.8-11.13-7.32-1.82-1.25-3.6-2.56-5.32-3.92-.85-.68-1.69-1.38-2.45-2.1-.38-.36-.74-.73-1.03-1.08-.15-.18-.25-.34-.32-.46-.01-.04-.24-.53-.21-.57-.43-1.28,.71-3.08,2.24-4.43,1.53-1.39,3.35-2.58,5.23-3.68,3.78-2.16,7.87-4.08,11.79-6.19l22.79-14.33c-10.65,4.55-21.4,8.98-32.29,12.88-2.72,.96-5.46,1.89-8.21,2.69-1.37,.4-2.75,.76-4.11,1.03-.68,.13-1.36,.24-1.96,.26-.32,.01-.52,0-.75-.06-.4-.09-.61-.16-.87-.26-2.23-.76-2.98-3.29-2.48-5.86Zm-40.35,23.07s0,0,0-.02c.06,.05,.11,.09,.11,.1-.05-.01-.08-.05-.11-.09Z"/><path class="cls-12" d="M108.89,60.87s3.85,13.15,6.63,11.4c2.8-1.75,16.27-17.73,16.27-17.73,0,0-10.62,20.56-8.96,22.15,1.64,1.58,17-1.67,17-1.67,0,0-11.61,8.81-11.35,11.06,.23,2.25,8,5.67,8,5.67,0,0-12.18-1.79-13.14,.62-.92,2.43,11.71,18.66,11.71,18.66,0,0-14.88-9.81-18.85-7.47-4.04,2.35-7.38,9.99-7.38,9.99,0,0-2.15-13.69-4.78-16.86-2.62-3.19-27.01,11.43-27.01,11.43,0,0,21.52-13.05,20.73-15.55-.8-2.49-4.53-5.73-13-5.97-8.48-.21-16.44,1.06-16.44,1.06,0,0,27.71-2.98,27.31-4.76-.43-1.76-18.06-11.94-18.06-11.94,0,0,20.87,9.77,23.72,8.65,2.88-1.16,8.31-15.59,7.6-18.74Z"/><path class="cls-13" d="M106.2,84.37l-17.7-8.26s17.99,7.53,21.38,6.26c3.42-1.24,2.23-8.63,2.23-8.63,0,0,2.59,6.3,3.99,5.54,1.39-.77,6.54-9.41,6.54-9.41,0,0-7.2,11.68-5.14,12.59,2.06,.93,10.35-1.89,10.35-1.89,0,0-7.69,3.42-7.22,4.7,.48,1.3,8.89,3.34,8.89,3.34,0,0-10.3-1.93-11.63-1.36-1.31,.59,10.01,14.55,10.01,14.55,0,0-12.25-11.58-14-11.66-1.71-.09-2.17,23.05-2.17,23.05,0,0-.28-20.68-1.97-22.51-1.7-1.83-12.71,7.25-12.71,7.25,0,0,12.98-10.38,9.17-13.57Z"/><path class="cls-12" d="M122.04,119.57c2.06,2.15,3.93,4.42,5.7,6.7,1.82,2.31,3.5,4.66,5.18,7.02,1.63,2.4,3.22,4.8,4.69,7.26,1.49,2.46,2.91,4.95,4.14,7.56-2.06-2.16-3.94-4.42-5.71-6.73-1.8-2.28-3.49-4.64-5.15-7.02-1.63-2.38-3.22-4.79-4.68-7.26-1.53-2.46-2.92-4.94-4.17-7.53Z"/><path class="cls-12" d="M170.97,124.98c2.48,1.72,4.79,3.61,7.01,5.52,2.28,1.94,4.43,3.95,6.6,5.98,2.1,2.04,4.18,4.13,6.17,6.28,2.01,2.17,3.97,4.35,5.76,6.72-2.49-1.74-4.79-3.61-7.05-5.55-2.25-1.93-4.4-3.93-6.55-5.97-2.1-2.05-4.2-4.13-6.2-6.28-1.99-2.17-3.94-4.37-5.73-6.7Z"/><path class="cls-12" d="M162.05,82.4c2.36-1.31,4.81-2.41,7.28-3.44,2.48-1.05,5.02-1.98,7.57-2.86,2.56-.85,5.15-1.68,7.81-2.38,2.66-.7,5.32-1.33,8.13-1.75-2.34,1.33-4.78,2.45-7.27,3.47-2.47,1.04-5.01,1.95-7.57,2.84-2.58,.85-5.16,1.67-7.83,2.37-2.64,.7-5.3,1.32-8.13,1.75Z"/><path class="cls-12" d="M131.95,66.5c1.87-1.82,3.9-3.48,5.97-5.07,2.08-1.59,4.23-3.07,6.41-4.52,2.2-1.43,4.41-2.83,6.77-4.11,2.28-1.31,4.66-2.53,7.21-3.56-1.87,1.85-3.91,3.49-5.99,5.09-2.07,1.57-4.21,3.04-6.4,4.51-2.2,1.42-4.44,2.82-6.76,4.11-2.31,1.28-4.68,2.5-7.2,3.53Z"/><path class="cls-12" d="M179.55,17.25c1.84-1.84,3.88-3.49,5.95-5.07,2.06-1.58,4.22-3.08,6.39-4.53,2.23-1.43,4.45-2.82,6.77-4.1,2.32-1.31,4.67-2.54,7.21-3.56-1.88,1.84-3.89,3.5-5.97,5.07-2.07,1.61-4.22,3.07-6.39,4.52-2.22,1.42-4.48,2.83-6.77,4.1-2.31,1.3-4.69,2.52-7.19,3.56Z"/><path class="cls-13" d="M156.81,59.46c1.31-1.23,2.78-2.26,4.31-3.23,1.5-.92,3.07-1.82,4.67-2.61,1.64-.79,3.29-1.51,5.01-2.17,1.72-.64,3.47-1.2,5.38-1.58-1.35,1.24-2.8,2.26-4.32,3.21-1.52,.95-3.06,1.82-4.69,2.63-1.62,.77-3.29,1.49-5.01,2.15-1.72,.66-3.46,1.22-5.36,1.6Z"/><path class="cls-12" d="M122.72,47.52c.82-2.52,1.87-4.91,2.99-7.25,1.12-2.37,2.37-4.63,3.62-6.9,1.3-2.24,2.63-4.47,4.09-6.63,1.48-2.16,2.99-4.28,4.73-6.24-.82,2.51-1.87,4.89-3,7.24-1.11,2.36-2.35,4.64-3.63,6.92-1.32,2.23-2.62,4.45-4.07,6.59-1.48,2.17-3,4.29-4.74,6.27Z"/><path class="cls-12" d="M93.82,127.34c-.2,2.22-.61,4.35-1.15,6.45-.53,2.06-1.12,4.13-1.8,6.15-.69,2.03-1.47,4-2.32,5.98-.87,1.94-1.81,3.86-3.01,5.69,.21-2.22,.63-4.36,1.15-6.45,.54-2.08,1.13-4.15,1.82-6.16,.71-2.01,1.48-4.01,2.35-5.96,.84-1.97,1.78-3.89,2.97-5.7Z"/><path class="cls-12" d="M71.98,153.18c-.31,3.57-1,7-1.84,10.36-.82,3.36-1.78,6.67-2.91,9.95-1.1,3.24-2.35,6.45-3.77,9.58-1.37,3.15-2.9,6.24-4.8,9.17,.34-3.57,1.03-7,1.83-10.37,.85-3.37,1.8-6.67,2.94-9.92,1.1-3.26,2.36-6.48,3.73-9.61,1.41-3.13,2.93-6.24,4.82-9.16Z"/><path class="cls-13" d="M69.2,76.75c-1.81-.04-3.53-.3-5.3-.62-1.74-.32-3.47-.73-5.2-1.21-1.69-.49-3.38-1.07-5.06-1.7-1.68-.65-3.38-1.37-4.99-2.32,1.81,.02,3.57,.28,5.31,.6,1.75,.32,3.47,.73,5.17,1.22,1.74,.49,3.42,1.05,5.1,1.7,1.69,.66,3.35,1.37,4.97,2.32Z"/><path class="cls-12" d="M83.9,48.93c-1.43-1.21-2.66-2.5-3.83-3.85-1.16-1.35-2.26-2.75-3.3-4.17-1.01-1.42-1.95-2.9-2.81-4.41-.89-1.51-1.68-3.06-2.27-4.73,1.42,1.21,2.65,2.52,3.83,3.86,1.16,1.35,2.27,2.74,3.29,4.17,1.02,1.44,1.94,2.92,2.82,4.43,.88,1.51,1.7,3.05,2.29,4.7Z"/><path class="cls-12" d="M62.96,50.38c-2.99-1.22-5.84-2.6-8.63-4.06-2.8-1.45-5.51-2.95-8.19-4.53-2.69-1.57-5.29-3.22-7.86-4.9-2.56-1.71-5.07-3.45-7.45-5.36,3.02,1.19,5.86,2.6,8.64,4.04,2.79,1.46,5.53,2.96,8.19,4.54,2.69,1.59,5.3,3.23,7.83,4.91,2.6,1.69,5.1,3.43,7.46,5.36Z"/><path class="cls-13" d="M93.16,113.73c-.79,2.04-1.78,3.93-2.86,5.78-1.04,1.82-2.2,3.63-3.43,5.36-1.21,1.74-2.5,3.43-3.89,5.06-1.36,1.65-2.82,3.22-4.48,4.67,.77-2.05,1.77-3.95,2.85-5.79,1.06-1.84,2.18-3.63,3.42-5.37,1.21-1.73,2.52-3.42,3.9-5.06,1.38-1.64,2.81-3.22,4.49-4.66Z"/><path class="cls-12" d="M66.98,104.76c-4.48,2.39-9.07,4.62-13.72,6.75-4.64,2.15-9.35,4.17-14.06,6.17-4.77,1.95-9.52,3.88-14.34,5.68-4.83,1.81-9.73,3.57-14.7,5.08,4.49-2.41,9.08-4.62,13.73-6.75,4.63-2.14,9.32-4.17,14.07-6.15,4.76-1.97,9.5-3.88,14.35-5.7,4.81-1.82,9.67-3.55,14.67-5.08Z"/></g></g></g></g></g></g></svg>