<?xml version="1.0" encoding="UTF-8"?><svg xmlns="http://www.w3.org/2000/svg" xmlns:xlink="http://www.w3.org/1999/xlink" viewBox="0 0 386.05 402.16"><defs><style>.cls-1{mask:url(#mask-11);}.cls-2{mask:url(#mask-10);}.cls-3{fill:url(#linear-gradient);}.cls-4{filter:url(#luminosity-noclip-6);}.cls-5{filter:url(#luminosity-noclip-8);}.cls-6{filter:url(#luminosity-noclip-4);}.cls-7{mask:url(#mask);}.cls-8{filter:url(#luminosity-noclip-2);}.cls-9,.cls-10,.cls-11,.cls-12{fill:#fff;}.cls-13{fill:#6d390c;}.cls-14,.cls-15{fill:#9e5708;}.cls-16{filter:url(#luminosity-noclip-10);}.cls-17{filter:url(#luminosity-noclip-12);}.cls-18{fill:url(#linear-gradient-7);}.cls-18,.cls-19,.cls-20,.cls-21,.cls-22,.cls-23{mix-blend-mode:multiply;}.cls-19{fill:url(#linear-gradient-9);}.cls-24{fill:url(#linear-gradient-8);}.cls-25{fill:url(#linear-gradient-3);}.cls-26{fill:url(#linear-gradient-4);}.cls-27{fill:url(#linear-gradient-2);}.cls-28{fill:url(#linear-gradient-6);}.cls-29{fill:url(#linear-gradient-5);}.cls-30{opacity:.91;}.cls-31{fill:url(#linear-gradient-14);}.cls-32{fill:url(#linear-gradient-18);}.cls-33{fill:url(#linear-gradient-16);}.cls-34{fill:url(#linear-gradient-12);}.cls-35{fill:url(#linear-gradient-10);}.cls-36{isolation:isolate;}.cls-10{opacity:.17;}.cls-10,.cls-11,.cls-12{mix-blend-mode:overlay;}.cls-20{fill:url(#linear-gradient-17);}.cls-21{fill:url(#linear-gradient-15);}.cls-22{fill:url(#linear-gradient-13);}.cls-23{fill:url(#linear-gradient-11);}.cls-11{opacity:.5;}.cls-12{opacity:.48;}.cls-37{mask:url(#mask-3);}.cls-38{mask:url(#mask-2);}.cls-39{mask:url(#mask-5);}.cls-40{mask:url(#mask-4);}.cls-41{mask:url(#mask-1);}.cls-42{mask:url(#mask-7);}.cls-43{mask:url(#mask-6);}.cls-44{mask:url(#mask-8);}.cls-45{mask:url(#mask-9);}.cls-15{opacity:.23;}</style><linearGradient id="linear-gradient" x1="192.4" y1="376.53" x2="192.4" y2="5.55" gradientTransform="matrix(1, 0, 0, 1, 0, 0)" gradientUnits="userSpaceOnUse"><stop offset="0" stop-color="#cc7c1d"/><stop offset="1" stop-color="#f5e236"/></linearGradient><linearGradient id="linear-gradient-2" x1="192.4" y1="342.37" x2="192.4" y2="39.7" gradientTransform="matrix(1, 0, 0, 1, 0, 0)" gradientUnits="userSpaceOnUse"><stop offset="0" stop-color="#f5e236"/><stop offset="1" stop-color="#cc7c1d"/></linearGradient><linearGradient id="linear-gradient-3" x1="89.71" y1="54.68" x2="89.71" y2="35.88" xlink:href="#linear-gradient"/><linearGradient id="linear-gradient-4" x1="139.45" y1="19.86" x2="139.45" y2="13.82" xlink:href="#linear-gradient"/><linearGradient id="linear-gradient-5" x1="102.57" y1="168.64" x2="282.64" y2="168.64" xlink:href="#linear-gradient-2"/><linearGradient id="linear-gradient-6" x1="65.87" y1="190.85" x2="314.26" y2="190.85" gradientTransform="matrix(1, 0, 0, 1, 0, 0)" gradientUnits="userSpaceOnUse"><stop offset="0" stop-color="#eed132"/><stop offset=".96" stop-color="#f3f02a"/></linearGradient><filter id="luminosity-noclip-2" x="111.98" y="249.79" width="21.44" height="43.98" color-interpolation-filters="sRGB" filterUnits="userSpaceOnUse"><feFlood flood-color="#fff" result="bg"/><feBlend in="SourceGraphic" in2="bg"/></filter><filter id="luminosity-noclip-3" x="111.98" y="-8897.88" width="21.44" height="32766" color-interpolation-filters="sRGB" filterUnits="userSpaceOnUse"><feFlood flood-color="#fff" result="bg"/><feBlend in="SourceGraphic" in2="bg"/></filter><mask id="mask-1" x="111.98" y="-8897.88" width="21.44" height="32766" maskUnits="userSpaceOnUse"/><linearGradient id="linear-gradient-7" x1="119.65" y1="325.43" x2="123.31" y2="263.69" gradientTransform="matrix(1, 0, 0, 1, 0, 0)" gradientUnits="userSpaceOnUse"><stop offset=".02" stop-color="#fff"/><stop offset="1" stop-color="#000"/></linearGradient><mask id="mask" x="111.98" y="249.79" width="21.44" height="43.98" maskUnits="userSpaceOnUse"><g class="cls-8"><g class="cls-41"><path class="cls-18" d="M121.42,249.79s-10.36,17.34-9.37,27.42c1,10.08,15.88,16.56,15.88,16.56,0,0,8.35-16.25,4.46-30.13-1.49-5.31-4.76-10.27-10.97-13.85Z"/></g></g></mask><linearGradient id="linear-gradient-8" x1="119.65" y1="325.43" x2="123.31" y2="263.69" gradientTransform="matrix(1, 0, 0, 1, 0, 0)" gradientUnits="userSpaceOnUse"><stop offset=".02" stop-color="#fff"/><stop offset="1" stop-color="#fff"/></linearGradient><filter id="luminosity-noclip-4" x="147.81" y="271.78" width="42.84" height="36.4" color-interpolation-filters="sRGB" filterUnits="userSpaceOnUse"><feFlood flood-color="#fff" result="bg"/><feBlend in="SourceGraphic" in2="bg"/></filter><filter id="luminosity-noclip-5" x="147.81" y="-8897.88" width="42.84" height="32766" color-interpolation-filters="sRGB" filterUnits="userSpaceOnUse"><feFlood flood-color="#fff" result="bg"/><feBlend in="SourceGraphic" in2="bg"/></filter><mask id="mask-3" x="147.81" y="-8897.88" width="42.84" height="32766" maskUnits="userSpaceOnUse"/><linearGradient id="linear-gradient-9" x1="167.02" y1="328.24" x2="170.69" y2="266.5" xlink:href="#linear-gradient-7"/><mask id="mask-2" x="147.81" y="271.78" width="42.84" height="36.4" maskUnits="userSpaceOnUse"><g class="cls-6"><g class="cls-37"><path class="cls-19" d="M155.35,271.78s-9.31,24.06-7.24,27.17c2.07,3.1,38.25,12.94,38.27,7.76,.02-5.17,4.38-16.56,4.27-22.25-.11-5.69-27.02-10.87-35.29-12.68Z"/></g></g></mask><linearGradient id="linear-gradient-10" x1="167.02" y1="328.24" x2="170.69" y2="266.5" xlink:href="#linear-gradient-8"/><filter id="luminosity-noclip-6" x="198.58" y="275.43" width="37.17" height="31.32" color-interpolation-filters="sRGB" filterUnits="userSpaceOnUse"><feFlood flood-color="#fff" result="bg"/><feBlend in="SourceGraphic" in2="bg"/></filter><filter id="luminosity-noclip-7" x="198.58" y="-8897.88" width="37.17" height="32766" color-interpolation-filters="sRGB" filterUnits="userSpaceOnUse"><feFlood flood-color="#fff" result="bg"/><feBlend in="SourceGraphic" in2="bg"/></filter><mask id="mask-5" x="198.58" y="-8897.88" width="37.17" height="32766" maskUnits="userSpaceOnUse"/><linearGradient id="linear-gradient-11" x1="214.55" y1="331.05" x2="218.21" y2="269.32" xlink:href="#linear-gradient-7"/><mask id="mask-4" x="198.58" y="275.43" width="37.17" height="31.32" maskUnits="userSpaceOnUse"><g class="cls-4"><g class="cls-39"><path class="cls-23" d="M198.58,277.73s.76,21.21,6.45,24.84c5.69,3.62,28.46,7.24,30.01,0,1.55-7.24,.52-19.66-2.59-24.84-3.1-5.17-33.87,0-33.87,0Z"/></g></g></mask><linearGradient id="linear-gradient-12" x1="214.55" y1="331.05" x2="218.21" y2="269.32" xlink:href="#linear-gradient-8"/><filter id="luminosity-noclip-8" x="239.14" y="253.29" width="33.99" height="39.22" color-interpolation-filters="sRGB" filterUnits="userSpaceOnUse"><feFlood flood-color="#fff" result="bg"/><feBlend in="SourceGraphic" in2="bg"/></filter><filter id="luminosity-noclip-9" x="239.14" y="-8897.88" width="33.99" height="32766" color-interpolation-filters="sRGB" filterUnits="userSpaceOnUse"><feFlood flood-color="#fff" result="bg"/><feBlend in="SourceGraphic" in2="bg"/></filter><mask id="mask-7" x="239.14" y="-8897.88" width="33.99" height="32766" maskUnits="userSpaceOnUse"/><linearGradient id="linear-gradient-13" x1="252.67" y1="333.32" x2="256.33" y2="271.58" xlink:href="#linear-gradient-7"/><mask id="mask-6" x="239.14" y="253.29" width="33.99" height="39.22" maskUnits="userSpaceOnUse"><g class="cls-5"><g class="cls-42"><path class="cls-22" d="M239.17,275.43s11.38,14.98,13.71,16.79c2.33,1.81,13.45-5.17,18.37-11.12,4.92-5.95-1.03-22.77-3.88-27.17-2.85-4.4-29.29,15.16-28.2,21.5Z"/></g></g></mask><linearGradient id="linear-gradient-14" x1="252.67" y1="333.32" x2="256.33" y2="271.58" xlink:href="#linear-gradient-8"/><filter id="luminosity-noclip-10" x="273.14" y="232.7" width="30.76" height="40.28" color-interpolation-filters="sRGB" filterUnits="userSpaceOnUse"><feFlood flood-color="#fff" result="bg"/><feBlend in="SourceGraphic" in2="bg"/></filter><filter id="luminosity-noclip-11" x="273.14" y="-8897.88" width="30.76" height="32766" color-interpolation-filters="sRGB" filterUnits="userSpaceOnUse"><feFlood flood-color="#fff" result="bg"/><feBlend in="SourceGraphic" in2="bg"/></filter><mask id="mask-9" x="273.14" y="-8897.88" width="30.76" height="32766" maskUnits="userSpaceOnUse"/><linearGradient id="linear-gradient-15" x1="283.79" y1="335.16" x2="287.45" y2="273.43" xlink:href="#linear-gradient-7"/><mask id="mask-8" x="273.14" y="232.7" width="30.76" height="40.28" maskUnits="userSpaceOnUse"><g class="cls-16"><g class="cls-45"><path class="cls-21" d="M303.85,261.95c-1.03-3.88-9.46-30.01-15.34-29.23-5.88,.78-15.38,16.04-15.38,16.04,0,0,10.28,23.2,12.09,24.15,1.81,.95,19.66-7.07,18.63-10.95Z"/></g></g></mask><linearGradient id="linear-gradient-16" x1="283.79" y1="335.16" x2="287.45" y2="273.43" xlink:href="#linear-gradient-8"/><filter id="luminosity-noclip-12" x="82.37" y="234.27" width="29.65" height="38.69" color-interpolation-filters="sRGB" filterUnits="userSpaceOnUse"><feFlood flood-color="#fff" result="bg"/><feBlend in="SourceGraphic" in2="bg"/></filter><filter id="luminosity-noclip-13" x="82.37" y="-8897.88" width="29.65" height="32766" color-interpolation-filters="sRGB" filterUnits="userSpaceOnUse"><feFlood flood-color="#fff" result="bg"/><feBlend in="SourceGraphic" in2="bg"/></filter><mask id="mask-11" x="82.37" y="-8897.88" width="29.65" height="32766" maskUnits="userSpaceOnUse"/><linearGradient id="linear-gradient-17" x1="93.05" y1="323.85" x2="96.72" y2="262.11" xlink:href="#linear-gradient-7"/><mask id="mask-10" x="82.37" y="234.27" width="29.65" height="38.69" maskUnits="userSpaceOnUse"><g class="cls-17"><g class="cls-1"><path class="cls-20" d="M96.88,234.27s-13.97,21.47-14.49,24.06c-.52,2.59,8.54,13.37,11.38,14.57,2.85,1.21,17.27-18.71,18.21-23.11,.94-4.4-15.1-15.52-15.1-15.52Z"/></g></g></mask><linearGradient id="linear-gradient-18" x1="93.05" y1="323.85" x2="96.72" y2="262.11" xlink:href="#linear-gradient-8"/></defs><g class="cls-36"><g id="Layer_2"><g id="Layer_3"><g><g><path class="cls-13" d="M386.05,190.04l-.03-11.06h-.29c-2-34.84-13.51-67.94-33.6-96.61l.44-.27-5.54-7.16C311.27,28.76,257.03,1.48,198.22,.07c-.59-.01-1.18-.02-1.77-.03l-1.49-.03c-.52,0-1.02-.02-1.53-.02h-.4C142.01,0,93.9,19.4,57.57,54.62,23.18,87.96,3.03,131.86,.32,178.97h-.32v35.99c0,103.22,86.59,187.2,193.03,187.2s193.02-83.97,193.02-187.2v-24.92Zm-193.02,195.83c-97.46,0-176.74-76.67-176.74-170.91v-25.42l.03-2.3C17.77,92.98,97.03,16.29,192.99,16.29h.44c.4,0,.81,0,1.21,0l1.63,.03c.51,0,1.01,.01,1.53,.03,50.85,1.21,97.94,23.51,130.59,61.5l-.04,.03,5.53,7.15c22.88,29.61,35.27,64.95,35.85,102.2l.03,27.72c0,94.24-79.29,170.91-176.74,170.91Z"/><g><path class="cls-14" d="M380.05,188.18c-9.81-131.96-90.08-154.3-187.65-154.3S14.46,54.83,4.73,188.18h-.99v28.41c0,100.91,84.46,182.71,188.65,182.71s188.66-81.81,188.66-182.71v-28.41h-1.01Z"/><path class="cls-13" d="M192.75,391.43C88.55,391.43,4,309.47,2.87,207.98c-.03,2.1-.05,4.2-.05,6.36,0,102.44,85.03,185.49,189.93,185.49s189.92-83.05,189.92-185.49c0-2.14-.04-4.25-.06-6.34-1.13,101.5-85.69,183.43-189.87,183.43Z"/><path class="cls-3" d="M381.06,191.03c0,102.45-84.46,185.5-188.66,185.5S3.74,293.48,3.74,191.03,88.21,5.55,192.4,5.55s188.66,83.05,188.66,185.49Z"/><path class="cls-11" d="M192.4,5.55C88.21,5.55,3.74,88.6,3.74,191.03c0,2.26,.09,4.48,.17,6.72,48.06,42.38,114.22,68.57,187.26,68.57s141.52-27.13,189.77-70.83c.04-1.49,.11-2.97,.11-4.47,0-102.44-84.46-185.49-188.66-185.49Z"/><path class="cls-11" d="M342.97,78.79C308.51,34.29,254.09,5.55,192.81,5.55S76.25,34.72,41.84,79.8c42.64,25.9,94.2,41.06,149.75,41.06s108.42-15.55,151.38-42.07Z"/><path class="cls-11" d="M192.41,16.17c102.37,0,185.65,80.2,188.51,180.18,.06-1.77,.14-3.53,.14-5.31,0-102.44-84.46-185.49-188.65-185.49S3.74,88.6,3.74,191.03c0,1.78,.09,3.55,.13,5.31C6.75,96.37,90.03,16.17,192.41,16.17Z"/><path class="cls-11" d="M192.4,368.69C89.55,368.69,5.97,287.74,3.84,187.11c-.02,1.31-.1,2.61-.1,3.92,0,102.45,84.46,185.5,188.65,185.5s188.66-83.05,188.66-185.5c0-1.31-.07-2.61-.11-3.92-2.13,100.63-85.7,181.58-188.55,181.58Z"/><path class="cls-27" d="M346.32,191.03c0,83.59-68.91,151.34-153.92,151.34S38.48,274.62,38.48,191.03,107.4,39.7,192.4,39.7s153.92,67.75,153.92,151.33Z"/><path class="cls-14" d="M192.4,58.5c81.7,0,148.5,62.59,153.58,141.64,.2-3.2,.35-6.43,.35-9.68,0-83.58-68.91-151.34-153.92-151.34S38.48,106.87,38.48,190.45c0,3.26,.15,6.48,.35,9.68C43.91,121.08,110.71,58.5,192.4,58.5Z"/><path class="cls-11" d="M192.4,334.11c-83.52,0-151.46-65.42-153.8-147-.06,1.45-.12,2.9-.12,4.36,0,83.59,68.92,151.34,153.92,151.34s153.92-67.76,153.92-151.34c0-1.46-.07-2.9-.11-4.36-2.35,81.57-70.28,147-153.81,147Z"/></g><g><path class="cls-13" d="M113.27,19.8s5.23,15.69-15.08,28.93c-20.31,13.24-31.08,0-31.08,0l46.17-28.93Z"/><path class="cls-25" d="M84.26,46.42h-10.01l-5.35,4.01s6.23,7.02,19.56,3c13.33-4.01,19.84-12.47,21.89-16.74,2.07-4.28-17.56,9.73-26.1,9.73Z"/></g><g><path class="cls-13" d="M152.45,6.28s.65,8.41-11.03,12.45c-11.68,4.04-15.37-3.84-15.37-3.84l26.4-8.61Z"/><path class="cls-26" d="M134.82,15.85c-4.22-1.05-4.95-1.23-4.95-1.23h0s-.92,5.56,6.17,5.22c7.09-.34,11.35-3.71,12.9-5.57,1.55-1.86-9.89,2.64-14.11,1.58Z"/></g><g><path class="cls-14" d="M236.81,376.5s-1.99-12.1,14.42-19.4c16.42-7.3,22.75,3.64,22.75,3.64l-37.17,15.76Z"/><path class="cls-13" d="M254.49,357.56s-7.28,6.58-8.2,8.77c-.93,2.19-1.85,3.46-4.62,4.28-2.77,.8-4.43,.85-4.43,.85,0,0,3.04-9.4,10.55-13.08,7.5-3.68,12.93-3.78,12.93-3.78l-6.23,2.97Z"/></g><g><path class="cls-13" d="M376.06,131.99s-12.24,.7-16.94-9.91c-4.71-10.62,7.05-14.09,7.05-14.09l9.89,24.01Z"/><path class="cls-10" d="M360.07,120.06c3.37,4.78,8.74,5.82,8.74,5.82,0,0-.36,.45,.02,2.22,.37,1.77,.37,2.97,.37,2.97,0,0-6.86-1.9-9.36-6.77-2.49-4.87-1.77-8.28-1.77-8.28,0,0,1.34,3.12,1.99,4.04Z"/></g><path class="cls-13" d="M126.56,383.33s5.31-11.06,22.95-7.62c17.64,3.43,16.54,16.03,16.54,16.03l-39.49-8.41Z"/><g><path class="cls-14" d="M25.34,285.44s8.03-4.69,16.77,6.68c8.75,11.37,2.49,19.26,2.49,19.26l-19.26-25.94Z"/><path class="cls-13" d="M42.49,294.85s-6.21-4.18-7.94-4.37c-1.74-.18-2.83-.6-4.01-2.63-1.18-2.03-1.58-3.35-1.58-3.35,0,0,7.25,.05,11.49,5.16,4.24,5.11,5.51,9.46,5.51,9.46l-3.47-4.27Z"/></g><g><path class="cls-13" d="M359.12,269.06c-4.06,4.41-8.51,8.2-13.06,11.85-4.58,3.61-9.3,7-14.15,10.19-4.85,3.18-9.84,6.17-14.97,8.91-5.16,2.71-10.42,5.29-16.09,7.23,4.05-4.42,8.5-8.21,13.05-11.86,4.58-3.62,9.3-6.99,14.15-10.18,4.86-3.18,9.85-6.16,14.99-8.91,5.16-2.71,10.42-5.28,16.08-7.23Z"/><path class="cls-12" d="M360.62,267.3s-19.45,19.34-34.92,27.72c-15.47,8.37-26.31,12.22-26.31,12.22,0,0,17.29-3.97,30.6-11.31,13.31-7.34,30.64-28.63,30.64-28.63Z"/><path class="cls-13" d="M346.3,278.61s-20.85,11.75-23.94,13.65c-3.08,1.91-14.27,9.92-14.27,9.92,0,0,24.26-8.3,38.21-23.57Z"/></g><g><path class="cls-13" d="M357.16,310.17l-14.62,2.92h-8.08s5.47,.93,7.47,1.39c2,.46,8.48,.71,9.09,2.43,.6,1.72-2.63,8.19-1.24,7.26,1.38-.92,7.39-14,7.39-14Z"/><path class="cls-10" d="M341.93,314.48l-7.85-.96s6.93,1.96,7.31,2.04c.39,.07,8.7,1.15,9.11,.75,.42-.4-8.57-1.83-8.57-1.83Z"/></g><g><g><path class="cls-13" d="M5.42,143.24l20.87,19.78,13.19,8.29s-9.87-4.11-13.61-5.4c-3.74-1.3-14.58-7.54-17.33-5.35-2.76,2.18-4.12,16.05-5.43,13.12-1.31-2.93,2.31-30.44,2.31-30.44Z"/><path class="cls-10" d="M25.87,165.91l13.79,6.5s-13.31-3.92-14.02-4.19c-.7-.27-15.38-7.04-15.65-8.12-.28-1.07,15.87,5.81,15.87,5.81Z"/></g><path class="cls-14" d="M11.78,136.52s12.58,18.82,14.08,20.49c1.5,1.66,13.62,14.31,13.62,14.31l-13.19-8.29-17.97-13.58,3.47-12.93Z"/></g><g><g><path class="cls-13" d="M251.52,391.87l4.8-22.8-.46-12.38s2.08,8.24,3.08,11.24c1,3,1.85,12.9,5.19,13.58,3.34,.68,15.57-5.18,13.87-2.94-1.69,2.25-26.48,13.31-26.48,13.31Z"/><path class="cls-10" d="M257.1,370.5l-2.96-11.88s4.83,10.33,5,10.9c.16,.58,2.7,13.15,1.96,13.85-.74,.69-4-12.87-4-12.87Z"/></g><path class="cls-13" d="M240.06,394.06s8.6-17.09,9.15-18.85c.55-1.76,4.93-16.6,4.93-16.6l1.22,12.85-2.68,18.52-12.62,4.08Z"/></g></g><g><ellipse class="cls-29" cx="192.61" cy="168.64" rx="90.04" ry="81.14"/><ellipse class="cls-15" cx="167.03" cy="190.85" rx="36.98" ry="44.11"/><ellipse class="cls-15" cx="262.03" cy="190.85" rx="36.98" ry="44.11"/><path class="cls-13" d="M321.53,201.69c1.49-27.01-14.98-129.64-122.76-138.24-2.19-.18-4.48-.28-7.17-.32-1.21-.03-2.49-.03-3.65,0-2.73,.04-5.03,.14-7.22,.32-107.77,8.6-124.25,111.23-122.76,138.25,.05,.81,.1,1.6,.16,2.37-.26,3.81-.32,7.31-.16,10.15,1.32,24,10.17,32,15.83,34.65l-.71,3.98c-4.03,6.84-3.33,12.97-2.86,17.07,.16,1.38,.3,2.57,.23,3.43-.38,4.97,2.94,9.81,11.09,16.18,13.7,10.7,18.99,10.27,21.01,9.7,1.26,2.57,3.23,4.86,5.88,6.86,2.05,1.53,3.78,3.08,5.31,4.44,4.38,3.91,8.92,7.95,16.76,7.95,1.93,0,3.91-.53,5.91-1.58,4.14,13.11,39.31,14.38,39.69,14.39,1.86,.05,3.54,.07,5.04,.07,7.32,0,11.99-.62,15.16-3.77,4.2,3.31,10.52,3.14,23.68,2.81,22.56-.56,28.24-8.26,29.48-13.46,1.98,1.02,3.92,1.54,5.83,1.54,7.84,0,12.38-4.04,16.81-7.99,1.52-1.36,3.24-2.9,5.26-4.41,2.65-1.99,4.62-4.28,5.88-6.85,2.03,.56,7.31,1,21.01-9.71,8.15-6.37,11.47-11.2,11.08-16.17-.07-.95,.12-2.14,.34-3.52,.65-4,1.54-9.46-2.73-16.32-.93-2.01-2.14-4.36-3.61-7.01,5.04-4.1,11.12-13.01,12.18-32.29,.16-2.81,.1-6.32-.16-10.15,.06-.77,.11-1.56,.16-2.37Zm-58.15-11.91c-.11,.15-.23,.3-.36,.44-6.31,7.18-23.78,8.62-37.02,6.34-2.46-.43-4.11-1.43-5.35-3.25-1.17-1.72-1.98-4.18-2.41-7.3,.63-6.42,1.91-12.54,2.69-16.22,.25-1.18,.46-2.21,.62-3.05,.87-4.5,3.83-10.08,7.82-12.05,1.49-.73,3.68-1.33,7.4,.53,.18,.09,17.88,9.48,26.61,34.57Zm-89.94-33.17c-1.07,8.04-3.92,16.48-8.07,23.81-7.26,12.84-17.57,21.35-25.28,20.65-5.04-.45-7.83-5.52-9.29-9.7-.74-2.13-1.29-4.51-1.63-7.08,.94-8,3.57-16.15,7.44-22.97,5.2-9.16,12-15.02,19.15-16.5,6.95-1.43,11.8-.26,14.65,3.64,1.45,2,2.47,4.73,3.03,8.14Z"/><path class="cls-14" d="M317.78,201.36c1.45-26.24-14.57-125.94-119.31-134.29-2.13-.17-4.35-.27-6.95-.3-1.15-.03-2.38-.03-3.52,0-2.63,.04-4.84,.13-6.97,.3-104.74,8.36-120.75,108.05-119.31,134.29,1.55,28.22,13.89,31.9,16.33,32.35l9.02,2.19c-5.18,8.23-12.54,20.61-12.88,25.09-.18,2.37,.75,5.98,9.65,12.93,4.03,3.15,13.87,10.33,18.01,8.94,.83-.28,1.54-.51,2.83-2.38,.3,3.23,1.78,6.78,6,9.95,2.17,1.62,3.97,3.23,5.55,4.65,4.21,3.76,7.85,7,14.26,7,3.34,0,6.76-2.43,9.89-5.78-.37,2.34-.62,4.28-.62,5.34,0,9.4,26.7,12.99,36.42,13.24,1.83,.05,3.47,.07,4.95,.07,7.41,0,10.77-.67,12.84-3.02,2.09-2.38,1.63-5.4,1.32-7.39-.02-.16-.11-1.05,.3-3.98,.58,3.23,.5,4.2,.48,4.36-.38,2.46,.13,4.5,1.52,6.08,3.05,3.47,8.68,3.33,22.29,2.98,16.36-.41,26.13-5.03,26.13-12.35,0-1.06-.24-3-.62-5.34,3.13,3.35,6.56,5.77,9.89,5.77,6.41,0,10.05-3.25,14.26-7,1.59-1.42,3.39-3.02,5.55-4.65,4.22-3.17,5.69-6.72,6-9.95,1.29,1.87,1.99,2.1,2.83,2.38,4.15,1.39,13.98-5.8,18.01-8.95,8.9-6.95,9.83-10.56,9.65-12.93-.36-4.73-8.54-18.26-13.72-26.42l3.56-.87c2.44-.45,14.78-4.12,16.34-32.35Zm-115.13,34.87c-.57,1-1.04,1.68-1.4,2.14-1.76-3.51-3.41-13.74-4.15-25.27,8.15,5.6,13.24,9.67,5.55,23.13Zm63.18-43.66c-7.29,8.29-25.89,10.08-40.48,7.56-3.45-.59-6.01-2.18-7.82-4.84-6.47-9.52-2.14-30.13-.29-38.93,.24-1.15,.45-2.16,.61-2.99,1.01-5.24,4.52-12.08,9.85-14.71,3.27-1.61,6.78-1.44,10.76,.55,.2,.1,20.5,10.52,29.42,39.55,1.76,5.72,1.09,10.24-2.06,13.81Zm-97.2-10.43c-8.09,14.31-19.69,23.36-28.89,22.54-7.03-.63-10.68-6.98-12.5-12.2-4.51-12.92-2.06-31.27,6.09-45.66,5.74-10.12,13.43-16.63,21.65-18.33,2.15-.44,4.15-.66,6-.66,5.47,0,9.65,1.93,12.44,5.77,7.15,9.81,5.04,31.13-4.8,48.54Zm13.76,30.95c-.73,11.52-2.39,21.76-4.15,25.27-.36-.45-.83-1.13-1.41-2.14-7.69-13.46-2.59-17.53,5.55-23.13Z"/><path class="cls-14" d="M317.78,213.88c1.45-26.24-14.57-125.94-119.31-134.29-2.13-.17-4.35-.27-6.95-.3-1.15-.03-2.38-.03-3.52,0-2.63,.04-4.84,.13-6.97,.3-104.74,8.36-120.75,108.05-119.31,134.29,1.55,28.22,13.89,31.9,16.33,32.35l-1.39,7.85c-5.18,8.23-2.12,14.96-2.46,19.44-.18,2.37,.75,5.98,9.65,12.93,4.03,3.15,13.87,10.33,18.01,8.94,.83-.28,1.54-.51,2.83-2.38,.3,3.23,1.78,6.78,6,9.95,2.17,1.62,3.97,3.23,5.55,4.65,4.21,3.76,7.85,7,14.26,7,3.34,0,6.76-2.43,9.89-5.78-.37,2.34-.62,4.28-.62,5.34,0,9.4,26.7,12.99,36.42,13.24,1.83,.05,3.47,.07,4.95,.07,7.41,0,10.77-.67,12.84-3.02,2.09-2.38,1.63-5.4,1.32-7.39-.02-.16-.11-1.05,.3-3.98,.58,3.23,.5,4.2,.48,4.36-.38,2.46,.13,4.5,1.52,6.08,3.05,3.47,8.68,3.33,22.29,2.98,16.36-.41,26.13-5.03,26.13-12.35,0-1.06-.24-3-.62-5.34,3.13,3.35,6.56,5.77,9.89,5.77,6.41,0,10.05-3.25,14.26-7,1.59-1.42,3.39-3.02,5.55-4.65,4.22-3.17,5.69-6.72,6-9.95,1.29,1.87,1.99,2.1,2.83,2.38,4.15,1.39,13.98-5.8,18.01-8.95,8.9-6.95,9.83-10.56,9.65-12.93-.36-4.73,3.24-10.17-1.95-18.33l-8.21-8.95c2.44-.45,14.78-4.12,16.34-32.35Zm-115.13,34.87c-.57,1-1.04,1.68-1.4,2.14-1.76-3.51-3.41-13.74-4.15-25.27,8.15,5.6,13.24,9.67,5.55,23.13Zm63.18-43.66c-7.29,8.29-25.89,10.08-40.48,7.56-3.45-.59-6.01-2.18-7.82-4.84-6.47-9.52-2.14-30.13-.29-38.93,.24-1.15,.45-2.16,.61-2.99,1.01-5.24,4.52-12.08,9.85-14.71,3.27-1.61,6.78-1.44,10.76,.55,.2,.1,20.5,10.52,29.42,39.55,1.76,5.72,1.09,10.24-2.06,13.81Zm-97.2-10.43c-8.09,14.31-19.69,23.36-28.89,22.54-7.03-.63-10.68-6.98-12.5-12.2-4.51-12.92-2.06-31.27,6.09-45.66,5.74-10.12,13.43-16.63,21.65-18.33,2.15-.44,4.15-.66,6-.66,5.47,0,9.65,1.93,12.44,5.77,7.15,9.81,5.04,31.13-4.8,48.54Zm13.76,30.95c-.73,11.52-2.39,21.76-4.15,25.27-.36-.45-.83-1.13-1.41-2.14-7.69-13.46-2.59-17.53,5.55-23.13Z"/><path class="cls-28" d="M300.97,229.86s11.72-1.55,13.21-28.72c1.5-27.17-15.58-122.18-115.7-130.17-2.28-.18-4.51-.26-6.72-.29-.56-.01-1.13-.02-1.69-.02-.57,0-1.13,0-1.69,.02-2.21,.03-4.44,.11-6.72,.29-100.12,7.99-117.2,103-115.7,130.17,1.5,27.17,13.21,28.72,13.21,28.72l14.5,3.52s-14.84,22.86-15.23,27.91c-.39,5.04,20.18,18.63,22.51,17.85,2.33-.78,16.3-34.15,13.97-28.33-2.33,5.82-4.66,16.69-4.66,20.18s-4.66,10.48,3.1,16.3c7.76,5.82,10.48,10.87,17.46,10.87s17.46-20.18,17.46-20.18c0,0-4.27,19.79-4.27,23.67s17.08,8.93,32.6,9.31c15.52,.39,15.91-.78,15.14-5.82-.52-3.37,2.08-15.05,3.86-22.44,2.13,7.62,5.19,19.48,4.67,22.82-.78,5.05,4.31,4.94,19.83,4.55,15.52-.39,22.3-4.55,22.3-8.43s-4.27-23.67-4.27-23.67c0,0,10.48,20.18,17.46,20.18s9.7-5.04,17.46-10.87c7.76-5.82,3.1-12.81,3.1-16.3s-2.33-14.36-4.66-20.18c-2.33-5.82,11.64,27.55,13.97,28.33,2.33,.78,22.9-12.81,22.51-17.85-.39-5.05-15.23-27.91-15.23-27.91,0,0,.64-.85,1.76-1.96l6.44-1.57Zm-177.1-36.08c-8.54-24.45,6.16-64.07,30.66-69.12,32.21-6.64,32.99,32.64,17.85,59.42-15.13,26.78-39.97,34.15-48.51,9.7Zm49.9,44.4c-12.03-21.05,4.21-25.26,13.23-33.08,0,0-1.2,54.12-13.23,33.08Zm32.62,0c-12.03,21.05-13.23-33.08-13.23-33.08,9.02,7.82,25.26,12.03,13.23,33.08Zm18.63-34.18c-22.51-3.88-12.63-41.28-10.69-51.37,1.94-10.09,11.46-24.31,26.21-16.94,0,0,21.85,10.73,31.43,41.91,7.51,24.45-24.45,30.27-46.96,26.39Z"/><g><path class="cls-9" d="M83.21,262.6c.39-5.05,15.23-27.91,15.23-27.91l-5.13-1.25c-.82,1.27-14.82,22.95-15.19,27.85-.39,5.04,20.18,18.63,22.51,17.85,.13-.04,.31-.21,.52-.45-6.75-3.73-18.23-12.31-17.94-16.09Z"/><path class="cls-9" d="M203.2,242.01c1.9,3.36,4.47,3.56,7.95-2.52,12.03-21.05-4.21-25.26-13.23-33.08,0,0,.02,.95,.09,2.55,8.64,5.93,18,11.83,8.06,29.22-1.03,1.81-1.98,3.05-2.86,3.83Z"/><path class="cls-9" d="M82.77,230.81c-3-1.22-10.84-6.48-12.04-28.36-1.5-27.17,15.58-122.18,115.7-130.17,2.28-.18,4.51-.26,6.72-.29,.56-.01,1.13-.02,1.69-.02,.57,0,1.13,0,1.69,.02,2.21,.03,4.44,.11,6.72,.29,7.76,.62,15.01,1.76,21.8,3.35-8.22-2.28-17.16-3.89-26.89-4.66-2.28-.18-4.51-.26-6.72-.29-.56-.01-1.13-.02-1.69-.02-.57,0-1.13,0-1.69,.02-2.21,.03-4.44,.11-6.72,.29-100.12,7.99-117.2,103-115.7,130.17,1.5,27.17,13.21,28.72,13.21,28.72l3.92,.95Z"/><path class="cls-9" d="M177.15,185.38c13.38-23.67,14.31-57.09-7.91-59.95,16.9,7.03,15.09,36.94,2.82,58.64-9.22,16.32-22.04,25.41-32.59,24.51,11.23,5.07,26.9-4.14,37.67-23.2Z"/><path class="cls-9" d="M180.32,242.17c10.36,12.86,11.44-35.76,11.44-35.76-1.6,1.39-3.44,2.67-5.3,3.94-.48,9.19-1.94,27.62-6.14,31.82Z"/><path class="cls-9" d="M276.74,178.92c-9.58-31.19-31.43-41.91-31.43-41.91-2.32-1.16-4.5-1.78-6.55-1.97,.48,.2,.97,.42,1.47,.67,0,0,21.85,10.73,31.43,41.91,7.38,24.02-23.32,30.05-45.75,26.58,1.17,.5,2.46,.87,3.88,1.12,22.51,3.88,54.47-1.93,46.96-26.39Z"/><path class="cls-9" d="M242.93,279.29s-6.1-6.17-5.04-.76c8.11,13.98,14.28,19.63,17.42,19.63,.53,0,1.02-.04,1.51-.09-6.5-4.57-13.88-18.78-13.88-18.78Z"/><path class="cls-9" d="M276.3,252.12c-3.16-5.19-5.12-5.68-5.04-1.99,1.93,3.91,13.25,28.79,13.92,29.01,.47,.16,1.68-.27,3.3-1.09-4.44-7.69-9.42-21.4-12.18-25.93Z"/><path class="cls-9" d="M149.08,302.69c0-3.88,4.27-23.67,4.27-23.67,0,0,1.37-17.06-2.97-11.35-.8,4.29-6.38,32.18-6.38,33.71,0,2.39,6.5,5.23,15.13,7.14-5.97-1.77-10.04-3.94-10.04-5.84Z"/><path class="cls-9" d="M205.06,306.84c.51-3.34-2.55-15.2-4.67-22.83-3.05-11.12-4.83-9.03-5.53-5.62,1.21,5.11,5.42,25.22,5.12,27.14-.47,3.06,1.24,4.22,6.1,4.57-.94-.72-1.24-1.76-1.01-3.27Z"/><path class="cls-9" d="M118.13,288.6c-7.76-5.82-3.84-12.88-3.1-16.3,6.95-32.41,2.93-30.83,2.39-29.16-1.96,6.08-5.44,11.44-8.29,31.89-.87,3.61-1.48,8.21,3.92,12.26,7.59,5.69,10.36,10.62,17.01,10.85-3.61-1.88-6.57-5.52-11.92-9.54Z"/></g><g class="cls-30"><g class="cls-7"><path class="cls-24" d="M121.42,249.79s-10.36,17.34-9.37,27.42c1,10.08,15.88,16.56,15.88,16.56,0,0,8.35-16.25,4.46-30.13-1.49-5.31-4.76-10.27-10.97-13.85Z"/></g><g class="cls-38"><path class="cls-35" d="M155.35,271.78s-9.31,24.06-7.24,27.17c2.07,3.1,38.25,12.94,38.27,7.76,.02-5.17,4.38-16.56,4.27-22.25-.11-5.69-27.02-10.87-35.29-12.68Z"/></g><g class="cls-40"><path class="cls-34" d="M198.58,277.73s.76,21.21,6.45,24.84c5.69,3.62,28.46,7.24,30.01,0,1.55-7.24,.52-19.66-2.59-24.84-3.1-5.17-33.87,0-33.87,0Z"/></g><g class="cls-43"><path class="cls-31" d="M239.17,275.43s11.38,14.98,13.71,16.79c2.33,1.81,13.45-5.17,18.37-11.12,4.92-5.95-1.03-22.77-3.88-27.17-2.85-4.4-29.29,15.16-28.2,21.5Z"/></g><g class="cls-44"><path class="cls-33" d="M303.85,261.95c-1.03-3.88-9.46-30.01-15.34-29.23-5.88,.78-15.38,16.04-15.38,16.04,0,0,10.28,23.2,12.09,24.15,1.81,.95,19.66-7.07,18.63-10.95Z"/></g><g class="cls-2"><path class="cls-32" d="M96.88,234.27s-13.97,21.47-14.49,24.06c-.52,2.59,8.54,13.37,11.38,14.57,2.85,1.21,17.27-18.71,18.21-23.11,.94-4.4-15.1-15.52-15.1-15.52Z"/></g></g><path class="cls-15" d="M253.35,87.34c11.94,27.89,33.89,86.25,24.51,119.26-12.63,44.46-29.85,36.06-21.05,91.47v.04c6.13-.55,8.97-5.34,16.27-10.81,7.76-5.82,3.1-12.81,3.1-16.3s-2.33-14.36-4.66-20.18c-2.33-5.82,11.64,27.55,13.97,28.33,2.33,.78,22.9-12.81,22.51-17.85-.39-5.05-15.23-27.91-15.23-27.91,0,0,.64-.85,1.76-1.96l6.44-1.57s11.72-1.55,13.21-28.72c1.17-21.17-8.95-83.51-60.83-113.8Z"/><path class="cls-15" d="M110.16,268.41c2.19-8.05,4.18-15.94,5.26-20.68,2.89-12.74-2.89-13.16-17.28-22.37-14.39-9.21-14.39-30.29-14.91-54.65-.37-17.19-2.92-25.73-4.39-29.28-11.09,24.23-13.83,48.12-13.2,59.7,1.5,27.17,13.21,28.72,13.21,28.72l14.5,3.52s-14.84,22.86-15.23,27.91c-.39,5.04,20.18,18.63,22.51,17.85,2.33-.78,16.3-34.15,13.97-28.33-1.9,4.76-3.8,12.88-4.44,17.6Z"/></g><path class="cls-13" d="M291.9,173.92c-9.14-6.63-18.41-13.36-24.67-17.9-7.66-5.56-42.51-30.85-42.51-30.85,0,0-18.81-11.13-39.48-33.57-20.67-22.43-19.43-23.76-19.43-23.76l-10.84,1.42,51.1,67.25s-6.47,58.02,11.47,71.29c17.94,13.27,60.2-9.48,65.1-11.46,4.91-1.98,28.82,14.14,28.82,14.14l7.71,10.96,.94-29.4s-13.05-7.14-28.21-18.13Z"/></g></g></g></g></svg>