<?xml version="1.0" encoding="UTF-8"?><svg xmlns="http://www.w3.org/2000/svg" xmlns:xlink="http://www.w3.org/1999/xlink" viewBox="0 0 436.13 421.79"><defs><style>.cls-1{fill:url(#linear-gradient);}.cls-2{filter:url(#luminosity-noclip-6);}.cls-3{filter:url(#luminosity-noclip-4);}.cls-4,.cls-5,.cls-6{opacity:.5;}.cls-4,.cls-6{mix-blend-mode:overlay;}.cls-7{mask:url(#mask);}.cls-8{filter:url(#luminosity-noclip-2);}.cls-9,.cls-6,.cls-10{fill:#fff;}.cls-11{fill:#f5c15e;}.cls-12,.cls-13{fill:#e6b554;}.cls-14,.cls-15{fill:#9f5e26;}.cls-16{fill:#91671e;}.cls-17{fill:#d39d3b;}.cls-18{fill:#d19733;}.cls-19{fill:#242833;}.cls-20{fill:#723609;}.cls-21{fill:#6d717e;}.cls-22{fill:#3d1900;}.cls-23{fill:#593c12;}.cls-24,.cls-5,.cls-25,.cls-26,.cls-27{fill:#512303;}.cls-28{fill:url(#linear-gradient-6);}.cls-28,.cls-29,.cls-30,.cls-5{mix-blend-mode:multiply;}.cls-29{fill:url(#linear-gradient-4);}.cls-30{fill:url(#linear-gradient-2);}.cls-31{fill:url(#linear-gradient-3);}.cls-32{fill:url(#linear-gradient-7);}.cls-33{fill:url(#linear-gradient-5);}.cls-34,.cls-26{opacity:.42;}.cls-35{opacity:.4;}.cls-36{opacity:.66;}.cls-37{opacity:.78;}.cls-38{isolation:isolate;}.cls-39{mask:url(#mask-3);}.cls-40{mask:url(#mask-2);}.cls-41{mask:url(#mask-5);}.cls-42{mask:url(#mask-4);}.cls-43{mask:url(#mask-1);}.cls-25{opacity:.49;}.cls-27,.cls-10{opacity:.39;}.cls-15{opacity:.38;}.cls-13{opacity:.35;}</style><linearGradient id="linear-gradient" x1="334.84" y1="286.27" x2="216.54" y2="47.94" gradientTransform="matrix(1, 0, 0, 1, 0, 0)" gradientUnits="userSpaceOnUse"><stop offset=".02" stop-color="#00000f"/><stop offset="1" stop-color="#010733"/></linearGradient><filter id="luminosity-noclip-2" x="334.26" y="148.68" width="63.3" height="24.71" color-interpolation-filters="sRGB" filterUnits="userSpaceOnUse"><feFlood flood-color="#fff" result="bg"/><feBlend in="SourceGraphic" in2="bg"/></filter><filter id="luminosity-noclip-3" x="334.26" y="-8387.03" width="63.3" height="32766" color-interpolation-filters="sRGB" filterUnits="userSpaceOnUse"><feFlood flood-color="#fff" result="bg"/><feBlend in="SourceGraphic" in2="bg"/></filter><mask id="mask-1" x="334.26" y="-8387.03" width="63.3" height="32766" maskUnits="userSpaceOnUse"/><linearGradient id="linear-gradient-2" x1="431.22" y1="24.63" x2="418.18" y2="283.58" gradientTransform="translate(-71.68 27.53) rotate(-5.16)" gradientUnits="userSpaceOnUse"><stop offset=".02" stop-color="#fff"/><stop offset="1" stop-color="#000"/></linearGradient><mask id="mask" x="334.26" y="148.68" width="63.3" height="24.71" maskUnits="userSpaceOnUse"><g class="cls-8"><g class="cls-43"><path class="cls-30" d="M388.98,150.47c-4.36-2.35-29.15-2.05-38.39-1.02-2.51,.8-3.9,1.11-3.42,.7,.29-.25,1.54-.49,3.42-.7,.53-.17,1.13-.37,1.75-.58-1.33,.24-2.52,.5-3.48,.81-1.46,.16-11.41,2.52-14.6,3.19,10.49-.88,50.96,.84,55.21,3.13,2.56,1.38,5.64,8.59,8.05,17.4,.02-1.15,.04-2.3,.04-3.48-2.46-9.72-5.83-17.96-8.59-19.44Z"/></g></g></mask><linearGradient id="linear-gradient-3" x1="431.22" y1="24.63" x2="418.18" y2="283.58" gradientTransform="translate(-71.68 27.53) rotate(-5.16)" gradientUnits="userSpaceOnUse"><stop offset=".02" stop-color="#fff"/><stop offset="1" stop-color="#fff"/></linearGradient><filter id="luminosity-noclip-4" x="86.83" y="25.27" width="305.08" height="93.66" color-interpolation-filters="sRGB" filterUnits="userSpaceOnUse"><feFlood flood-color="#fff" result="bg"/><feBlend in="SourceGraphic" in2="bg"/></filter><filter id="luminosity-noclip-5" x="86.83" y="-8387.03" width="305.08" height="32766" color-interpolation-filters="sRGB" filterUnits="userSpaceOnUse"><feFlood flood-color="#fff" result="bg"/><feBlend in="SourceGraphic" in2="bg"/></filter><mask id="mask-3" x="86.83" y="-8387.03" width="305.08" height="32766" maskUnits="userSpaceOnUse"/><linearGradient id="linear-gradient-4" x1="307.87" y1="18.41" x2="294.83" y2="277.37" xlink:href="#linear-gradient-2"/><mask id="mask-2" x="86.83" y="25.27" width="305.08" height="93.66" maskUnits="userSpaceOnUse"><g class="cls-3"><g class="cls-39"><path class="cls-29" d="M391.52,118.93c.14-.51,.27-1.01,.38-1.49-9.91-46.94-29.48-81.52-29.48-81.52,0,0-26.84,13.54-62.76,16.21-35.93,2.66-83.2-30.57-142.07-26.51-58.87,4.06-70.77,32.02-70.77,32.02,.62,.96,1.25,2,1.89,3.07,4.47-6.9,21.17-26.25,69.38-29.57,58.87-4.06,106.14,29.17,142.07,26.51,35.93-2.66,62.76-16.21,62.76-16.21,0,0,18.45,32.61,28.59,77.49Z"/></g></g></mask><linearGradient id="linear-gradient-5" x1="307.87" y1="18.41" x2="294.83" y2="277.37" xlink:href="#linear-gradient-3"/><filter id="luminosity-noclip-6" x="345.87" y="240.49" width="37.98" height="7.32" color-interpolation-filters="sRGB" filterUnits="userSpaceOnUse"><feFlood flood-color="#fff" result="bg"/><feBlend in="SourceGraphic" in2="bg"/></filter><filter id="luminosity-noclip-7" x="345.87" y="-8387.03" width="37.98" height="32766" color-interpolation-filters="sRGB" filterUnits="userSpaceOnUse"><feFlood flood-color="#fff" result="bg"/><feBlend in="SourceGraphic" in2="bg"/></filter><mask id="mask-5" x="345.87" y="-8387.03" width="37.98" height="32766" maskUnits="userSpaceOnUse"/><linearGradient id="linear-gradient-6" x1="427" y1="24.41" x2="413.95" y2="283.37" xlink:href="#linear-gradient-2"/><mask id="mask-4" x="345.87" y="240.49" width="37.98" height="7.32" maskUnits="userSpaceOnUse"><g class="cls-2"><g class="cls-41"><path class="cls-28" d="M348.74,241.16s-5.33-1.52-1.45,0c2.28,.89,17.26,6.56,28.29,6.64,4.86-2.45,7.63-4.2,7.63-4.2,0,0,.24-.46,.65-1.3-2.1,0-4.7,0-7.52-.02-3.42,.94-27.59-1.13-27.59-1.13Z"/></g></g></mask><linearGradient id="linear-gradient-7" x1="427" y1="24.41" x2="413.95" y2="283.37" xlink:href="#linear-gradient-3"/></defs><g class="cls-38"><g id="Layer_2"><g id="Layer_11"><g><g><rect class="cls-22" x="30.99" y="23.86" width="373.77" height="373.77"/><g><path class="cls-24" d="M428.26,54.1c0-29.88-24.22-54.1-54.1-54.1H60.57C30.69,0,6.47,24.22,6.47,54.1V367.69c0,29.88,24.22,54.1,54.1,54.1H374.16c29.88,0,54.1-24.22,54.1-54.1V54.1Zm-4.54,313.59c0,27.37-22.19,49.56-49.56,49.56H60.57c-27.37,0-49.56-22.19-49.56-49.56V54.1C11.01,26.73,33.2,4.54,60.57,4.54H374.16c27.37,0,49.56,22.19,49.56,49.56V367.69Z"/><path class="cls-22" d="M376.86,57.66c0-3.46-2.8-6.26-6.26-6.26H65.65c-3.46,0-6.26,2.8-6.26,6.26V362.61c0,3.46,2.8,6.26,6.26,6.26H370.6c3.46,0,6.26-2.8,6.26-6.26V57.66Zm-4.54,304.95c0,.95-.77,1.73-1.73,1.73H65.65c-.95,0-1.73-.77-1.73-1.73V57.66c0-.95,.77-1.73,1.73-1.73H370.6c.95,0,1.73,.77,1.73,1.73V362.61Z"/></g><path class="cls-20" d="M426.75,53.34c0-28.63-23.21-51.83-51.83-51.83H61.33C32.7,1.51,9.5,24.72,9.5,53.34V366.93c0,28.63,23.21,51.83,51.83,51.83H374.92c28.63,0,51.83-23.21,51.83-51.83V53.34Zm-51.4,308.51c0,2.21-1.79,3.99-3.99,3.99H66.4c-2.21,0-3.99-1.79-3.99-3.99V56.91c0-2.21,1.79-3.99,3.99-3.99H371.36c2.21,0,3.99,1.79,3.99,3.99V361.86Z"/><path class="cls-15" d="M372.11,365.85H67.16c-1.31,0-2.47-.64-3.2-1.62l-13.84,13.53s53.48,8.31,62.93,9.83c9.45,1.51,264.56-3.5,267.21-1.98,2.65,1.51,6.42-11.32,6.42-11.32l-11.75-9.6c-.72,.72-1.72,1.17-2.82,1.17Z"/><path class="cls-14" d="M419.19,366.93c0,24.45-19.82,44.27-44.27,44.27H61.33c-24.45,0-44.27-19.82-44.27-44.27V53.34c0-24.45,19.82-44.27,44.27-44.27H374.92c24.45,0,44.27,19.82,44.27,44.27V366.93ZM385.93,53.98c0-6.44-5.22-11.65-11.65-11.65H61.97c-6.44,0-11.65,5.22-11.65,11.65V366.29c0,6.44,5.22,11.65,11.65,11.65H374.28c6.44,0,11.65-5.22,11.65-11.65V53.98Z"/><g><path class="cls-24" d="M418.76,240.22c3.12,11.07,6.82,65.01,6.32,75.38-.4,8.34,1.97,28.9,2.18,39.55l1.02,17.01s-.49-50.79-.27-64.63c.22-13.84,0-100.5,0-112s.35-134.2,.25-145.76c-.95,.11-1.9,10.49-3.27,14.74-3.02,9.32-6.51,65.84-6.23,77.2,.28,11.36-3.12,87.44,0,98.51Z"/><path class="cls-26" d="M405.25,389.58s11.92-36.1,10.79-47.65c-1.13-11.55-3.98-25.94-6.81-37.05-2.84-11.12-13.8-38.14-12.86-50.78,.94-12.65-1.33-48.17-1.33-48.17,0,0-4.26,52.53-3.69,60.59,.57,8.07,14.74,46.43,16.32,59.07,1.57,12.64-3.82,18.75-5.24,28.99-1.42,10.24-.94,40.11-.94,40.11l3.77-5.1Z"/><path class="cls-24" d="M405.39,381.93s9.66-33.57,9.37-38.69c-.28-5.12-5.11-19.62-4.68-18.53,.42,1.09-.31,19.18-2.43,24.41-2.12,5.23-2.26,32.8-2.26,32.8Z"/><path class="cls-12" d="M400.32,370.72s1.91-19.77,5.24-30.48c3.33-10.71-.21-18.98-2.24-25.9-2.03-6.92-12.04-39.91-12.04-39.91,0,0,5.14,30.4,6.84,36.45,1.71,6.05,7.24,18.31,5.97,23.05-1.28,4.74-3.78,36.79-3.78,36.79Z"/><g><path class="cls-24" d="M404.11,179.24s-8.19-54.58-1.32-68.4c6.87-13.83-2.52-75.09-2.52-75.09,0,0,7.28,15.86,7.8,23.3,.52,7.43,3.23,43.61,3.56,50.63,.76,16.53-6.89,47.94-7.52,69.56Z"/><path class="cls-12" d="M399.63,35.5l8.79,21.56s3.05,43.91,3.12,45.51c.07,1.59-4.26,38.02-4.26,38.02l-3.17,38.65s11.45-55.78,12.4-65.27c.96-9.5-4.32-61.61-4.32-61.61l-12.56-16.85Z"/></g><path class="cls-24" d="M17.91,177.61c-3.12-11.07-6.82-65.01-6.32-75.38,.4-8.34-1.97-28.9-2.18-39.55l-1.02-17.01s.49,50.79,.27,64.63c-.22,13.84,0,100.5,0,112s-.35,134.2-.25,145.76c.95-.11,1.9-10.49,3.27-14.74,3.02-9.32,6.51-65.84,6.23-77.2-.28-11.36,3.13-87.44,0-98.51Z"/><path class="cls-26" d="M36.16,37.38s-11.92,52.59-10.79,69.43c1.13,16.83,3.98,37.79,6.81,53.99,2.84,16.2,13.8,55.58,12.86,73.99-.94,18.42,1.33,70.19,1.33,70.19,0,0,4.26-76.54,3.69-88.29-.57-11.75-14.74-67.64-16.32-86.06-1.57-18.42,3.82-27.31,5.24-42.24,1.42-14.93,.94-58.44,.94-58.44l-3.78,7.43Z"/><path class="cls-24" d="M36.02,48.53s-9.66,48.91-9.37,56.37c.28,7.46,5.11,28.58,4.68,26.99-.42-1.59,.31-27.94,2.43-35.57,2.12-7.62,2.26-47.79,2.26-47.79Z"/><path class="cls-12" d="M41.09,64.87s-1.91,28.81-5.24,44.41c-3.33,15.61,.21,27.65,2.24,37.73,2.03,10.09,12.04,58.14,12.04,58.14,0,0-5.14-44.3-6.84-53.11-1.71-8.81-7.24-26.68-5.97-33.58,1.28-6.91,3.78-53.6,3.78-53.6Z"/><path class="cls-24" d="M40.99,171.44s7.65,65.49,5.72,98.84c-1.93,33.34,.38,24.64-1.41,43.86-1.79,19.23-2.66,40.43-2.21,47.64,.45,7.22,2.45,23.16,2.45,23.16,0,0,.07-40.17,2.32-49.48,2.25-9.32,2.96-75.36,1.34-91.96-1.62-16.6-8.21-72.06-8.21-72.06Z"/><g><path class="cls-26" d="M33.77,186.12s-3.08,76.35,0,95.4c3.08,19.05,1.08,107.45,1.08,107.45,0,0,2.42-23.37,2.42-34.04s.43-62.74,0-72.65c-.43-9.9-4.46-58.7-3.51-96.16Z"/><path class="cls-12" d="M34.61,389.38l2.86-31.66s-.01-63-.03-65.29c-.01-2.29-2.73-53.86-2.73-53.86l-2.31-54.86s6.04,78.49,6.68,91.95c.64,13.47,0,88.4,0,88.4l-4.47,25.31Z"/></g><g><g class="cls-34"><path class="cls-5" d="M84.24,387.21c4.18,0,26.54-4.92,44.51-4.69,40.69,.52,39.47,5.99,58.48,5.99h50.27s-58.48,2.43-83.98,1.78c-25.5-.65-30.25-1.72-38.17,.11-7.92,1.83-45.38-3.02-50.57-3.51-5.18-.48-15.12-1.13-15.12-1.13,0,0,30.4,1.46,34.57,1.46Z"/><path class="cls-24" d="M50.39,392.55c.58-.16,34.14,2.1,43.79,2.91,9.65,.81,12.82,2.1,16.85,3.56,4.03,1.46,9.51,1.46,17.29,0,7.78-1.46,39.47-2.8,53.01-2.69,13.54,.1,30.97-.11,31.84,0,.87,.1-31.4,1.4-43.65,1.88-12.25,.49-29.39,2.1-36.3,2.75-6.92,.65-14.84,3.07-22.04,1.13-7.2-1.94-14.26-3.64-19.16-4.41-4.9-.77-41.63-5.14-41.63-5.14Z"/><path class="cls-24" d="M85.28,387.13s8.83,1.13,13.88,.57c5.04-.57,26.65-2.26,34.21-2.67,7.56-.4,24.49,2.99,26.8,3.23,2.3,.25-21.54,0-25.86-.48-4.32-.48-12.46-.54-19.95,.58-7.49,1.12-6.19,2.01-15.2,1.44-9-.57-13.88-2.67-13.88-2.67Z"/></g><path class="cls-6" d="M215.62,395.82s-62.57,1.51-80.48,4.96c-17.9,3.45-20.5,2.54-28.13,0-7.63-2.54-27.6-4.74-34.76-5.6-7.16-.87-23.43-2.64-23.43-2.64,0,0,51.57,8.89,57.33,10.29,5.76,1.4,14.55,3.67,19.02,2.21,4.46-1.45,90.46-9.22,90.46-9.22Z"/><path class="cls-6" d="M237.13,388.34s-60.55,2.14-71.94,2.47c-11.38,.32-44.64-3.14-47.97-1.66-3.33,1.48-13.82,2.03-24.63,.83-10.81-1.2-49.99-5.61-49.99-4.98s56.76,7.83,62.81,7.55c6.05-.28,14.55-2.38,18.58-1.74,4.03,.65,30.4,1.46,73.9,0,43.51-1.46,39.24-2.47,39.24-2.47Z"/><path class="cls-24" d="M177.68,417.25c-12.69,1.78-18.97-.96-47.41-1.17-28.44-.2-55.31-1.28-64.71-1.28s-30.35-10.55-30.11-11.03c.07-.15-4.33-4.18-4.35-5.22,5.84,2.04,28.88,9.76,41.51,9.76,14.28,0,67.06,3.17,78.35,2.81,11.28-.36,23.86-1.99,30.38-3.08,6.52-1.09,30.62-1.58,42.96,0,12.34,1.58,52.52,2.86,70.14,2.13,17.62-.73,73.39-2.05,77.44-2.05,2.77,0,16.17,3.09,16.17,3.09,0,0-48.6,1.44-57.77,1.44s-78.5,3.89-105.99,3.4c-27.5-.48-33.91-.57-46.6,1.21Z"/><g><path class="cls-26" d="M233.59,403.37s52.98-.28,66.2,1.48c13.22,1.75,74.56,.62,74.56,.62,0,0-16.22,1.38-23.62,1.38s-43.54,.3-50.41,0c-46.37-2.01-40.74-4.02-66.73-3.47Z"/><path class="cls-26" d="M380.34,389.97s-42.83,3.1-52.88,3.22c-10.05,.12-55.7-1.7-78.79,0-23.09,1.7-34.9,2.06-34.9,2.06,0,0,62.57-1.82,83.29-1.09,20.71,.73,42.39-.36,50.85-.49,8.46-.12,32.43-3.7,32.43-3.7Z"/><path class="cls-6" d="M380.01,390.03l-32.1,3.65-42.88,.68s41.29,1.26,45.88,.9c4.58-.36,29.1-5.23,29.1-5.23Z"/><path class="cls-6" d="M388.05,404.02l-35.39,2.93s-43.71,0-45.3-.01c-1.59-.01-37.37-1.55-37.37-1.55l-38.07-1.32s54.47,3.44,63.8,3.8c9.35,.36,61.34,0,61.34,0l30.98-3.85Z"/></g><path class="cls-26" d="M390.66,397.14c-1.06-.21-75.83-3.83-124.24-1.88-48.41,1.94-60.63,6.36-97.77,8.6-37.13,2.24-48.88,3.12-48.88,3.12,0,0,73.56-.23,86.25-1.85,12.69-1.62,25.31-1.76,79.74,1,54.43,2.76,104.9-8.99,104.9-8.99Z"/><path class="cls-24" d="M319.76,399.03c-1.88,.6-20.92-3.28-54.76-1.34-33.84,1.94-52.82,4.44-52.82,4.44,0,0,40.59-1.32,65.51,1.25,24.91,2.57,59.69-3.31,59.69-3.31l-17.62-1.03Z"/></g><g><g class="cls-34"><path class="cls-5" d="M341.13,35.61c-4.02,0-25.56,4.92-42.88,4.69-39.2-.52-38.03-5.99-56.34-5.99h-48.43s56.34-2.43,80.91-1.78c24.56,.65,29.14,1.72,36.77-.11,7.64-1.83,43.72,3.02,48.71,3.51,5,.48,14.57,1.13,14.57,1.13,0,0-29.28-1.46-33.3-1.46Z"/><path class="cls-24" d="M373.75,30.27c-.56,.16-32.89-2.1-42.19-2.91-9.3-.81-12.35-2.1-16.24-3.56-3.88-1.46-9.16-1.46-16.65,0-7.5,1.46-38.02,2.8-51.07,2.69-13.05-.1-29.84,.11-30.67,0-.83-.1,30.25-1.4,42.05-1.88,11.8-.49,28.31-2.1,34.97-2.75,6.66-.65,14.29-3.07,21.23-1.13,6.94,1.94,13.74,3.64,18.46,4.41,4.72,.77,40.11,5.14,40.11,5.14Z"/><path class="cls-24" d="M340.14,35.69s-8.51-1.13-13.37-.57c-4.85,.56-25.67,2.26-32.96,2.67-7.29,.4-23.59-2.99-25.81-3.23-2.22-.24,20.75,0,24.91,.48,4.16,.48,12,.54,19.22-.58,7.22-1.12,5.97-2.01,14.64-1.44,8.67,.56,13.37,2.67,13.37,2.67Z"/></g><path class="cls-6" d="M214.57,27s60.28-1.51,77.53-4.96c17.25-3.45,19.75-2.54,27.1,0,7.35,2.53,26.59,4.74,33.49,5.6,6.9,.87,22.57,2.63,22.57,2.63,0,0-49.68-8.89-55.23-10.29-5.55-1.4-14.01-3.67-18.32-2.21-4.3,1.45-87.15,9.22-87.15,9.22Z"/><path class="cls-6" d="M193.84,34.48s58.34-2.14,69.3-2.47c10.96-.32,43,3.14,46.21,1.66,3.2-1.48,13.32-2.03,23.73-.83,10.42,1.2,48.16,5.62,48.16,4.98s-54.68-7.83-60.51-7.55c-5.83,.28-14.02,2.39-17.9,1.74-3.89-.65-29.28-1.46-71.19,0-41.91,1.46-37.8,2.47-37.8,2.47Z"/><g><path class="cls-26" d="M197.26,19.45s-51.04,.28-63.77-1.48c-12.74-1.75-71.83-.61-71.83-.61,0,0,15.62-1.38,22.75-1.38s41.95-.3,48.57,0c44.67,2.01,39.24,4.02,64.28,3.47Z"/><path class="cls-26" d="M55.88,32.84s41.26-3.09,50.94-3.22c9.68-.12,53.66,1.7,75.91,0,22.25-1.7,33.62-2.06,33.62-2.06,0,0-60.28,1.82-80.24,1.09-19.95-.73-40.84,.36-48.99,.48-8.15,.12-31.24,3.7-31.24,3.7Z"/><path class="cls-6" d="M56.2,32.79l30.93-3.65,41.31-.68s-39.78-1.26-44.2-.9c-4.41,.36-28.04,5.23-28.04,5.23Z"/><path class="cls-6" d="M48.45,18.8l34.09-2.93s42.11,0,43.64,.01c1.53,.01,36,1.55,36,1.55l36.67,1.32s-52.47-3.44-61.47-3.81c-9-.36-59.1,0-59.1,0l-29.85,3.85Z"/></g><path class="cls-26" d="M45.94,25.68c1.02,.2,73.05,3.83,119.7,1.88,46.64-1.95,58.41-6.36,94.19-8.6,35.77-2.24,47.1-3.12,47.1-3.12,0,0-70.87,.23-83.1,1.85-12.23,1.62-24.39,1.77-76.82-1-52.44-2.76-101.06,8.99-101.06,8.99Z"/><path class="cls-24" d="M114.24,23.79c1.81-.6,20.15,3.28,52.75,1.34,32.6-1.94,50.88-4.44,50.88-4.44,0,0-39.11,1.32-63.11-1.25-24-2.57-57.51,3.31-57.51,3.31l16.98,1.03Z"/></g></g><g class="cls-36"><path class="cls-24" d="M374.92,403.65H61.33c-24.45,0-44.27-19.82-44.27-44.27v7.56c0,24.45,19.82,44.27,44.27,44.27H374.92c24.45,0,44.27-19.82,44.27-44.27v-7.56c0,24.45-19.82,44.27-44.27,44.27Z"/><path class="cls-24" d="M374.28,34.77H61.97c-6.44,0-11.65,5.22-11.65,11.65v7.56c0-6.44,5.22-11.65,11.65-11.65H374.28c6.44,0,11.65,5.22,11.65,11.65v-7.56c0-6.44-5.22-11.65-11.65-11.65Z"/></g><g class="cls-4"><path class="cls-9" d="M61.97,385.51H374.28c6.44,0,11.65-5.22,11.65-11.65v-7.56c0,6.44-5.22,11.65-11.65,11.65H61.97c-6.44,0-11.65-5.22-11.65-11.65v7.56c0,6.44,5.22,11.65,11.65,11.65Z"/><path class="cls-9" d="M374.92,9.07H61.33c-24.45,0-44.27,19.82-44.27,44.27v7.56c0-24.45,19.82-44.27,44.27-44.27H374.92c24.45,0,44.27,19.82,44.27,44.27v-7.56c0-24.45-19.82-44.27-44.27-44.27Z"/></g><g><path class="cls-23" d="M1.26,73.93c-3.83-10.53,2.04-18.65,4.93-19.97l1.38-.62,1.11,1c.07,.07,7.28,6.5,19.77,10.1,4.08,1.18,8.33,1.94,12.61,2.26,16.55,1.24,20.83-.89,21.55-1.35l1.72-2.82,2.05,2.85c.17,.24,4.12,5.85,1.85,11.87-1.82,4.82-6.95,8.17-15.26,9.94-11.06,2.36-23.52,1.95-34.19-1.13h0c-5.47-1.58-15-5.25-17.51-12.14Zm39.27-2.13c-4.59-.35-9.14-1.16-13.52-2.43-10.13-2.92-16.97-7.51-19.93-9.77-1.45,1.91-3.53,6.26-1.32,12.33,1.26,3.46,6.79,6.98,14.42,9.19h0c9.83,2.84,21.79,3.23,31.98,1.06,6.42-1.38,10.42-3.68,11.57-6.66,.69-1.8,.26-3.71-.28-5.07-3.32,1.34-9.91,2.32-22.92,1.34Z"/><path class="cls-17" d="M7.06,56.3s12.46,11.36,33.73,12.95c21.27,1.59,23.63-2.27,23.63-2.27,0,0,9.44,13.15-11.86,17.71-21.29,4.55-45.57-2.19-49.05-11.75C.03,63.36,5.63,56.96,7.06,56.3Z"/><path class="cls-16" d="M4.39,59.34c-.44,2.47-.34,5.42,.88,8.77,3.48,9.57,27.76,16.31,49.05,11.75,6.63-1.41,10.28-3.67,12.17-6.1-.14,3.94-2.94,8.58-13.93,10.92-21.29,4.55-45.57-2.19-49.05-11.75-2.17-5.97-.81-10.72,.88-13.6Z"/><path class="cls-11" d="M32.78,70.39c14.43,1.87,27.28,.04,29.87-.28,2.08-.26,2.24,5.47-5.33,7.48-7.57,2.01-28.96,4.11-40.99-4.52-12.01-8.63,2.01-4.55,16.44-2.68Z"/><g><path class="cls-23" d="M40,88.66c.35-.23,8.68-5.69,11.76-10.93,2.83-4.82,5.66-8.44,5.69-8.47l-2.19-1.91c-.12,.15-2.99,3.82-5.94,8.83-2.71,4.6-10.69,9.84-10.77,9.89l1.45,2.6Z"/><path class="cls-23" d="M17.4,85.58c.22-.05,2.23-.59,4.36-2.79,.53-.54,1.1-1.03,1.76-1.59,1.52-1.3,3.41-2.93,5.9-6.27,3.2-4.3,7.29-6.64,7.33-6.66l-1.29-2.7c-.19,.11-4.7,2.69-8.29,7.52-2.27,3.05-3.94,4.48-5.41,5.75-.69,.59-1.34,1.14-1.97,1.8-1.52,1.57-2.93,1.96-2.94,1.96l.57,2.99Z"/><path class="cls-23" d="M3.19,73.7c.04-.05,3.58-5.49,5.85-8.35,2.04-2.56,5.86-3.92,5.89-3.94l-.82-2.91c-.19,.06-4.66,1.65-7.26,4.92-2.37,2.98-5.89,8.37-6.03,8.6l2.36,1.68Z"/></g></g><g><path class="cls-23" d="M5.2,31.98c1.94-11.04,11.09-15.15,14.24-14.84l1.51,.15,.45,1.42c.03,.09,3.07,9.26,12.08,18.63,2.95,3.06,6.25,5.84,9.79,8.25,13.72,9.34,18.49,9.63,19.35,9.58l2.9-1.58,.35,3.5c.03,.29,.65,7.13-4.32,11.21-3.98,3.27-10.1,3.6-18.18,.99-10.76-3.47-21.35-10.05-29.06-18.05h0c-3.94-4.09-10.37-12.04-9.11-19.26Zm35.09,17.77c-3.81-2.59-7.34-5.57-10.5-8.85-7.31-7.59-10.95-14.99-12.38-18.42-2.21,.93-6.18,3.67-7.31,10.03-.64,3.63,2.39,9.44,7.91,15.16h0c7.1,7.37,17.26,13.68,27.18,16.88,6.25,2.02,10.86,2.02,13.34,.01,1.5-1.22,2.07-3.09,2.29-4.53-3.55-.5-9.74-2.94-20.53-10.29Z"/><path class="cls-17" d="M19.04,19.6s5.12,16.06,22.75,28.06c17.63,12,21.61,9.83,21.61,9.83,0,0,1.6,16.11-19.12,9.43C23.56,60.23,5.89,42.27,7.65,32.24c1.76-10.03,9.81-12.79,11.38-12.63Z"/><path class="cls-16" d="M15.2,20.9c-1.61,1.91-3,4.54-3.61,8.05-1.76,10.02,15.91,27.99,36.63,34.68,6.46,2.09,10.74,1.96,13.59,.79-2.09,3.34-6.83,5.96-17.52,2.51C23.56,60.23,5.89,42.27,7.65,32.24c1.1-6.26,4.65-9.69,7.55-11.34Z"/><path class="cls-11" d="M34.28,44.66c11.57,8.83,23.62,13.65,26.01,14.67,1.94,.82-.78,5.86-8.35,3.82-7.56-2.04-27.15-10.9-33.25-24.39-6.1-13.48,4.01-2.94,15.58,5.89Z"/><g><path class="cls-23" d="M31.41,64.09c.42-.03,10.36-.61,15.65-3.61,4.86-2.76,9.12-4.48,9.16-4.5l-.94-2.76c-.18,.08-4.5,1.82-9.55,4.69-4.64,2.64-14.17,3.19-14.27,3.2l-.04,2.97Z"/><path class="cls-23" d="M13.37,50.13c.22,.06,2.23,.6,5.17-.24,.73-.21,1.47-.35,2.32-.5,1.97-.37,4.42-.83,8.23-2.48,4.92-2.13,9.64-2.12,9.68-2.11l.23-2.98c-.22,0-5.41-.02-10.94,2.37-3.49,1.51-5.65,1.91-7.56,2.28-.89,.16-1.73,.32-2.6,.57-2.1,.6-3.52,.23-3.53,.23l-1,2.87Z"/><path class="cls-23" d="M6.99,32.74c.06-.03,5.84-2.97,9.24-4.31,3.04-1.19,7.03-.48,7.07-.47l.74-2.93c-.2-.04-4.86-.9-8.74,.64-3.54,1.39-9.28,4.31-9.52,4.44l1.21,2.64Z"/></g></g><g><g><g><path class="cls-27" d="M219.93,24.52l8.41-.18,18.58-9.21-20.72-6.52s.87-3.82,.31-4.24c-.56-.41-6.66-3.93-6.66-3.93l-2.07,.26-3.82,.48,.81,10.48,3.91,5.57-6.34-2.76-9.16,13.1,14.77-6.05,1.98,2.99Z"/><path class="cls-27" d="M225.05,52.91c3.61-2.8,4.46-21.37,4.47-21.93,.01-.56-9.77-2.57-9.77-2.57,0,0-3.14,3.22-4.2,4.17-1.06,.94-20.76,5.36-21.64,5.71-.88,.36,17.7,.52,17.7,.52,0,0-5.77,14.16-5.48,14.77,.28,.61,10.72-6.06,10.72-6.06,0,0,4.6,8.19,8.22,5.39Z"/></g><path class="cls-24" d="M220.4,.79s1.22,13.01,1.71,13.6c.5,.58,19.69,.91,19.69,.91l-20.76,4.63s-.85,3.34-.36,3.84c.48,.5,7.96,.21,7.66,.57-.29,.36-8.62,4.56-8.91,7.02-.28,2.46,4.49,23.09,5.61,22.62,1.12-.47-18.16-.35-18.93-.41-.77-.06,7.71-6.16,9.08-9.16,1.37-3,2.64-20.45,1.38-19.72-1.26,.72-13.8,3.11-13.4,2.9,.4-.21,14.66-10.32,15.18-10.87,.52-.55-.58-16-.58-16l2.57-.32,.05,.4Z"/><g><path class="cls-12" d="M226.48,4.87c-.03,.49-.28,3.75-.28,3.75l20.48,6.44s-17.02-6.71-17.81-6.94c-.79-.24-.05-2.44,.12-3.05,.18-.61-.58-1.33-1.85-2-1.28-.67-5.77-1.73-5.77-1.73,0,0,5.15,3.05,5.12,3.55Z"/><path class="cls-12" d="M246.49,30.19s-10.45,9.43-13.73,9.51c-3.28,.07-5.14-.62-4.28-2.51,.86-1.88,5.85-4.17,8.65-4.34,2.79-.17,4.86-.61,4.86-.61,0,0-9.17-.15-9.96-1.07-.79-.91-2.84-2.43-3.99-2.87-1.15-.44,.31-3.96,.31-3.96,0,0-7.27,4.35-6.45,4.53,.83,.18,7.84,2.17,7.92,2.5,.08,.33-5.57,11.52-5.86,11.56,.25-.04,6.43-1.39,10.47-2.52,4.12-1.16,12.06-10.22,12.06-10.22Z"/><path class="cls-12" d="M212.98,14.76c.64,.28,5.47,1.59,5.47,1.59l-3.22-4.74-1.2-9.51s-.82,3.59-2.04,4c-1.21,.4-18.49,.55-18.49,.55,0,0,3.58,.09,10.92,.91s8.86,.66,9,2.58c.14,1.92,.14,1.59-3.36,1.94-3.5,.36-23.59,3.65-18.1,4.4s18.15-1.96,17.99-1.43c-.16,.53-6.35,11.95-6.75,12.53-.41,.59,9.16-13.1,9.8-12.83Z"/><path class="cls-12" d="M216.92,25.13c-.33-1.3-2.06,.11-4.32,.65-2.27,.54-11.75,2.79-11.04,2.66,14.67-2.77,13.21,2.59,13.21,2.59l-20.87,7.26s21.64-5.71,22.39-5.92c.74-.22,.96-5.93,.63-7.23Z"/></g></g><g><path class="cls-24" d="M234.17,31.85l9.36,.18s11.05-12.64,9.37-11.31c-4.96,3.91-8.03,6.23-8.03,6.23l-2.33,2.32-2.89-2.47-3.74,.09s2.12,2.15,2.06,2.43c-.06,.27-3.8,2.52-3.8,2.52Z"/><path class="cls-24" d="M237.13,27.05c1.49-2.2,4.48-2.77,6.68-1.28,2.2,1.49,2.77,4.48,1.28,6.68-1.49,2.2-4.48,2.77-6.68,1.28-2.2-1.49-2.77-4.48-1.28-6.68Z"/><g><g><path class="cls-21" d="M241.73,32.97c-1.78,.34-3.5-.83-3.84-2.61-.34-1.78,.82-3.5,2.61-3.84,1.78-.34,3.5,.83,3.84,2.61,.34,1.77-.83,3.5-2.61,3.84Z"/><polygon class="cls-19" points="244.33 30.38 238.39 27.93 238 28.71 244.11 31.07 244.33 30.38"/></g><path class="cls-10" d="M243.76,29.75l-4.6-1.97s.58-1.18,2.37-.91c1.78,.28,3.22,3.03,2.24,2.88Z"/><path class="cls-10" d="M243.24,31.24l-3.62-1.43s.42,2.93,1.81,2.74c1.4-.19,2.62-1.1,1.81-1.31Z"/><path class="cls-9" d="M243.45,29.29s-1.8-.71-1.96-1.33c-.16-.62,.67-.92,1.45,.03,.78,.94,1.1,1.57,.51,1.3Z"/></g></g><g><path class="cls-24" d="M231.65,8.05l9.36,.18s12.91-4.63,10.76-4.59c-15.1,.29-9.42-.48-9.42-.48l-2.33,2.32-2.89-2.47-3.74,.09s2.12,2.16,2.06,2.43c-.06,.28-3.8,2.52-3.8,2.52Z"/><path class="cls-24" d="M234.62,3.25c1.49-2.2,4.48-2.77,6.68-1.28,2.2,1.49,2.77,4.48,1.28,6.68-1.49,2.2-4.48,2.77-6.68,1.28-2.2-1.49-2.77-4.48-1.28-6.68Z"/><g><g><path class="cls-21" d="M241.31,7.79c-1.02,1.5-3.06,1.89-4.56,.87-1.5-1.02-1.89-3.06-.87-4.56,1.02-1.5,3.06-1.89,4.56-.87,1.5,1.02,1.89,3.06,.87,4.56Z"/><polygon class="cls-19" points="241.32 4.13 235.38 6.59 235.67 7.42 241.65 4.77 241.32 4.13"/></g><path class="cls-10" d="M240.47,4.08l-4.65,1.86s-.42-1.25,1.03-2.32c1.45-1.06,4.42-.13,3.62,.45Z"/><path class="cls-10" d="M241.16,5.5l-3.57,1.55s2.37,1.77,3.22,.66c.85-1.12,1.07-2.63,.35-2.21Z"/><path class="cls-9" d="M239.93,3.98s-1.77,.77-2.33,.44c-.55-.32-.17-1.13,1.05-1.01,1.22,.12,1.89,.33,1.28,.57Z"/></g></g><g><path class="cls-24" d="M191.97,39.43l9.36,.18s12.91-4.63,10.77-4.59c-15.1,.28-9.43-.48-9.43-.48l-2.33,2.32-2.89-2.47-3.74,.09s2.12,2.15,2.06,2.43c-.06,.27-3.8,2.52-3.8,2.52Z"/><path class="cls-24" d="M194.94,34.62c1.49-2.2,4.48-2.77,6.68-1.28,2.19,1.49,2.77,4.48,1.28,6.68-1.49,2.2-4.48,2.77-6.68,1.28-2.2-1.49-2.77-4.48-1.28-6.68Z"/><g><g><path class="cls-21" d="M201.63,39.17c-1.02,1.5-3.06,1.89-4.55,.88-1.5-1.02-1.89-3.06-.88-4.56,1.02-1.5,3.06-1.89,4.56-.87,1.5,1.02,1.89,3.06,.87,4.56Z"/><polygon class="cls-19" points="201.64 35.5 195.7 37.96 195.99 38.79 201.97 36.14 201.64 35.5"/></g><path class="cls-10" d="M200.79,35.46l-4.65,1.86s-.42-1.26,1.03-2.32c1.45-1.06,4.42-.14,3.62,.46Z"/><path class="cls-10" d="M201.47,36.87l-3.57,1.55s2.37,1.77,3.22,.65c.85-1.12,1.07-2.62,.35-2.2Z"/><path class="cls-9" d="M200.25,35.35s-1.77,.77-2.33,.44c-.55-.32-.17-1.13,1.04-1.01,1.22,.12,1.89,.33,1.28,.56Z"/></g></g><g><path class="cls-24" d="M196.12,12.53l9.36,.18s6.4-3.02,4.85-3.2c-.72-.09-3.51-1.88-3.51-1.88l-2.33,2.32-2.89-2.47-3.74,.09s2.12,2.15,2.06,2.43c-.06,.27-3.8,2.52-3.8,2.52Z"/><path class="cls-24" d="M199.08,7.73c1.49-2.2,4.48-2.77,6.68-1.28,2.2,1.49,2.77,4.48,1.28,6.68-1.49,2.2-4.48,2.77-6.68,1.28-2.2-1.49-2.77-4.48-1.28-6.68Z"/><g><g><path class="cls-21" d="M205.78,12.27c-1.02,1.5-3.06,1.89-4.56,.87-1.5-1.02-1.89-3.05-.87-4.55,1.02-1.5,3.06-1.89,4.56-.87,1.5,1.02,1.89,3.06,.87,4.56Z"/><polygon class="cls-19" points="205.79 8.6 199.85 11.07 200.13 11.89 206.12 9.24 205.79 8.6"/></g><path class="cls-10" d="M204.94,8.56l-4.65,1.86s-.42-1.25,1.03-2.31c1.45-1.06,4.42-.14,3.62,.45Z"/><path class="cls-10" d="M205.62,9.97l-3.57,1.55s2.37,1.77,3.22,.65c.85-1.12,1.07-2.63,.35-2.2Z"/><path class="cls-9" d="M204.4,8.45s-1.77,.77-2.33,.44c-.55-.32-.17-1.12,1.04-1.01,1.22,.12,1.89,.33,1.28,.57Z"/></g></g></g><g><g><g><path class="cls-27" d="M33.7,215.11l-.18-8.41-9.21-18.58-6.52,20.72s-3.82-.87-4.24-.31c-.41,.56-3.93,6.66-3.93,6.66l.26,2.07,.48,3.82,10.48-.81,5.57-3.91-2.76,6.34,13.1,9.16-6.05-14.77,2.99-1.98Z"/><path class="cls-27" d="M62.09,209.99c-2.8-3.61-21.37-4.46-21.93-4.47-.56-.01-2.57,9.77-2.57,9.77,0,0,3.22,3.14,4.17,4.2,.94,1.06,5.36,20.76,5.71,21.64,.36,.88,.52-17.7,.52-17.7,0,0,14.16,5.77,14.77,5.48,.61-.28-6.06-10.72-6.06-10.72,0,0,8.19-4.6,5.39-8.22Z"/></g><path class="cls-24" d="M9.97,214.64s13.01-1.22,13.6-1.71c.58-.5,.91-19.69,.91-19.69l4.63,20.76s3.34,.85,3.84,.36c.5-.48,.21-7.96,.57-7.67,.36,.29,4.56,8.62,7.02,8.91,2.46,.28,23.09-4.49,22.62-5.61-.46-1.13-.35,18.16-.41,18.93-.06,.77-6.16-7.71-9.16-9.08-3-1.37-20.45-2.64-19.72-1.38,.72,1.26,3.11,13.8,2.9,13.4-.21-.4-10.32-14.66-10.87-15.18-.55-.52-16,.58-16,.58l-.32-2.57,.4-.05Z"/><g><path class="cls-12" d="M39.37,188.55s9.43,10.45,9.51,13.73c.07,3.28-.62,5.14-2.51,4.28-1.88-.86-4.17-5.85-4.34-8.64-.17-2.79-.61-4.86-.61-4.86,0,0-.15,9.17-1.07,9.96-.91,.79-2.43,2.84-2.87,3.99-.44,1.15-3.96-.31-3.96-.31,0,0,4.35,7.27,4.53,6.44,.18-.83,2.17-7.84,2.5-7.91,.33-.08,11.52,5.57,11.56,5.86-.04-.24-1.39-6.42-2.52-10.47-1.16-4.12-10.22-12.06-10.22-12.06Z"/><path class="cls-12" d="M34.31,218.12c-1.3,.34,.11,2.06,.65,4.33,.54,2.27,2.79,11.75,2.66,11.04-2.77-14.67,2.59-13.21,2.59-13.21l7.26,20.86s-5.71-21.64-5.92-22.39c-.22-.74-5.93-.96-7.23-.63Z"/></g></g><g><path class="cls-24" d="M41.03,200.88l.18-9.36s-12.64-11.05-11.31-9.37c3.91,4.96,6.23,8.02,6.23,8.02l2.32,2.33-2.47,2.89,.09,3.74s2.15-2.12,2.43-2.06c.27,.06,2.52,3.8,2.52,3.8Z"/><path class="cls-24" d="M36.22,197.91c-2.2-1.49-2.77-4.48-1.28-6.68,1.49-2.2,4.48-2.77,6.68-1.28,2.2,1.49,2.77,4.48,1.28,6.68-1.49,2.2-4.48,2.77-6.68,1.28Z"/><g><g><path class="cls-21" d="M42.15,193.31c.34,1.78-.83,3.5-2.61,3.84-1.78,.34-3.5-.83-3.84-2.61-.34-1.78,.83-3.5,2.61-3.84,1.77-.34,3.5,.83,3.84,2.61Z"/><polygon class="cls-19" points="39.56 190.71 37.11 196.65 37.89 197.04 40.25 190.93 39.56 190.71"/></g><path class="cls-10" d="M38.93,191.29l-1.97,4.6s-1.18-.58-.91-2.37c.28-1.78,3.03-3.22,2.88-2.24Z"/><path class="cls-10" d="M40.42,191.8l-1.43,3.62s2.93-.42,2.74-1.81c-.19-1.39-1.1-2.61-1.31-1.81Z"/><path class="cls-9" d="M38.47,191.59s-.71,1.8-1.33,1.96c-.62,.16-.92-.67,.03-1.45,.94-.78,1.57-1.1,1.3-.51Z"/></g></g><g><path class="cls-24" d="M20.51,212.79l.18-9.36s-4.63-12.91-4.59-10.76c.29,15.1-.48,9.42-.48,9.42l2.32,2.33-2.47,2.89,.09,3.74s2.16-2.12,2.43-2.06c.28,.06,2.52,3.8,2.52,3.8Z"/><path class="cls-24" d="M15.71,209.82c-2.2-1.49-2.77-4.48-1.28-6.68,1.49-2.2,4.48-2.77,6.68-1.28,2.2,1.49,2.77,4.48,1.28,6.68-1.49,2.2-4.48,2.77-6.68,1.28Z"/><g><g><path class="cls-21" d="M20.25,203.13c1.5,1.02,1.89,3.06,.87,4.56-1.02,1.5-3.06,1.89-4.56,.87-1.5-1.02-1.89-3.06-.87-4.56,1.02-1.5,3.06-1.89,4.56-.87Z"/><polygon class="cls-19" points="16.59 203.12 19.05 209.06 19.88 208.77 17.23 202.79 16.59 203.12"/></g><path class="cls-10" d="M16.54,203.97l1.86,4.65s-1.25,.42-2.32-1.03c-1.06-1.45-.13-4.42,.45-3.62Z"/><path class="cls-10" d="M17.96,203.28l1.55,3.57s1.77-2.37,.66-3.22c-1.12-.85-2.62-1.07-2.21-.35Z"/><path class="cls-9" d="M16.44,204.51s.77,1.77,.44,2.33c-.32,.55-1.13,.17-1.01-1.04,.12-1.22,.33-1.89,.57-1.28Z"/></g></g><g><path class="cls-24" d="M48.61,243.07l.18-9.36s-4.63-12.91-4.59-10.77c.29,15.1-.48,9.42-.48,9.42l2.32,2.33-2.47,2.89,.09,3.74s2.15-2.12,2.43-2.06c.27,.06,2.52,3.8,2.52,3.8Z"/><path class="cls-24" d="M43.8,240.11c-2.2-1.49-2.77-4.48-1.28-6.68,1.49-2.19,4.48-2.77,6.68-1.28,2.2,1.49,2.77,4.48,1.28,6.68-1.49,2.2-4.48,2.77-6.68,1.28Z"/><g><g><path class="cls-21" d="M48.35,233.42c1.5,1.02,1.89,3.06,.88,4.55-1.02,1.5-3.06,1.89-4.56,.87-1.5-1.02-1.89-3.06-.87-4.56,1.02-1.5,3.06-1.89,4.56-.87Z"/><polygon class="cls-19" points="44.68 233.4 47.14 239.34 47.97 239.06 45.32 233.07 44.68 233.4"/></g><path class="cls-10" d="M44.64,234.25l1.86,4.65s-1.25,.42-2.32-1.03c-1.06-1.45-.14-4.42,.46-3.62Z"/><path class="cls-10" d="M46.05,233.57l1.55,3.57s1.77-2.37,.65-3.22c-1.12-.85-2.62-1.07-2.2-.35Z"/><path class="cls-9" d="M44.53,234.79s.77,1.77,.44,2.33c-.32,.55-1.13,.17-1.01-1.05,.12-1.22,.33-1.89,.56-1.28Z"/></g></g><g><path class="cls-24" d="M27.4,240.08l.18-9.36s-3.02-6.39-3.2-4.85c-.09,.72-1.87,3.51-1.87,3.51l2.32,2.33-2.47,2.89,.09,3.74s2.15-2.12,2.43-2.06c.27,.06,2.52,3.8,2.52,3.8Z"/><path class="cls-24" d="M22.59,237.11c-2.2-1.49-2.77-4.48-1.28-6.68,1.49-2.2,4.48-2.77,6.68-1.28,2.19,1.49,2.77,4.48,1.28,6.68-1.49,2.2-4.48,2.77-6.68,1.28Z"/><g><g><path class="cls-21" d="M27.14,230.42c1.5,1.02,1.89,3.06,.87,4.56-1.02,1.5-3.05,1.89-4.55,.87-1.5-1.02-1.89-3.06-.87-4.56,1.02-1.5,3.06-1.89,4.56-.87Z"/><polygon class="cls-19" points="23.47 230.4 25.93 236.34 26.76 236.06 24.11 230.07 23.47 230.4"/></g><path class="cls-10" d="M23.43,231.25l1.86,4.65s-1.25,.42-2.31-1.03c-1.06-1.45-.14-4.42,.45-3.62Z"/><path class="cls-10" d="M24.84,230.57l1.55,3.57s1.77-2.37,.65-3.22c-1.12-.85-2.62-1.07-2.2-.35Z"/><path class="cls-9" d="M23.32,231.8s.77,1.77,.44,2.33c-.32,.55-1.13,.17-1.01-1.04,.12-1.22,.33-1.89,.57-1.28Z"/></g></g></g><g><g><g><path class="cls-27" d="M399.67,208.72l-.19,8.97-9.69,19.8-6.86-22.09s-4.02,.93-4.46,.33c-.44-.6-4.13-7.1-4.13-7.1l.27-2.2,.51-4.07,11.03,.86,5.86,4.16-2.9-6.76,13.8-9.76-6.38,15.75,3.14,2.11Z"/><path class="cls-27" d="M426.19,214.41c-2.95,3.85-19.12,4.51-19.72,4.53-.59,.01-2.7-10.42-2.7-10.42,0,0,3.39-3.35,4.39-4.48,.99-1.14,5.64-22.13,6.01-23.07,.37-.94,.55,18.87,.55,18.87,0,0,11.52-5.91,12.17-5.61,.64,.3-3,11.19-3,11.19,0,0,5.25,5.14,2.3,9Z"/></g><path class="cls-24" d="M374.68,209.22s13.7,1.3,14.32,1.82c.61,.53,.96,20.99,.96,20.99l4.88-22.13s3.52-.9,4.05-.39c.53,.52,.22,8.48,.6,8.17,.38-.31,4.8-9.19,7.39-9.49,2.59-.3,20.93,5.02,20.44,6.22-.49,1.2-.36-19.36-.43-20.18-.07-.82-3.1,7.98-6.26,9.44-3.16,1.46-21.53,2.81-20.77,1.47,.76-1.34,3.27-14.71,3.05-14.28-.22,.43-10.87,15.63-11.45,16.18-.58,.56-16.85-.62-16.85-.62l-.34,2.74,.42,.05Z"/><g><path class="cls-12" d="M378.99,215.7c.52-.03,3.94-.3,3.94-.3l6.78,21.83s-7.06-18.14-7.31-18.98c-.25-.84-2.57-.06-3.21,.13-.65,.19-1.4-.62-2.11-1.98-.71-1.36-1.83-6.16-1.83-6.16,0,0,3.22,5.49,3.73,5.46Z"/><path class="cls-12" d="M405.65,237.03s9.93-11.14,10.01-14.64c.07-3.5-.66-5.48-2.64-4.56-1.98,.91-4.4,6.24-4.57,9.22-.17,2.98-.65,5.18-.65,5.18,0,0-.16-9.77-1.12-10.61-.96-.84-2.55-3.03-3.02-4.25-.47-1.23-4.17,.34-4.17,.34,0,0,4.58-7.76,4.77-6.87,.19,.88,2.29,8.35,2.64,8.44,.34,.08,12.13-5.93,12.18-6.24-.04,.26-1.46,6.85-2.66,11.16-1.22,4.39-10.76,12.85-10.76,12.85Z"/><path class="cls-12" d="M389.4,201.31c.29,.68,1.68,5.83,1.68,5.83l-4.99-3.44-10.01-1.28s3.78-.88,4.21-2.17c.43-1.29,.58-19.72,.58-19.72,0,0,.1,3.82,.96,11.64,.85,7.82,.69,9.44,2.71,9.59,2.03,.15,1.67,.14,2.05-3.59,.38-3.73,3.84-25.15,4.63-19.29,.79,5.86-2.06,19.35-1.5,19.18,.56-.17,12.58-6.77,13.2-7.2,.62-.43-13.8,9.76-13.5,10.45Z"/><path class="cls-12" d="M400.32,205.51c-1.37-.36,.11-2.19,.69-4.61,.57-2.42,2.94-12.52,2.8-11.77-2.91,15.64,2.73,14.09,2.73,14.09l7.64-22.24s-6.01,23.07-6.23,23.87c-.23,.79-6.24,1.02-7.62,.67Z"/></g></g><g><path class="cls-24" d="M407.39,223.89l.19,9.98s-13.31,11.78-11.91,9.98c4.12-5.29,6.57-8.55,6.57-8.55l2.44-2.48-2.6-3.08,.1-3.98s2.27,2.26,2.56,2.19c.29-.06,2.65-4.05,2.65-4.05Z"/><path class="cls-24" d="M402.33,227.05c-2.31,1.59-2.92,4.77-1.34,7.12,1.57,2.34,4.72,2.95,7.03,1.36,2.31-1.59,2.92-4.78,1.34-7.12-1.57-2.34-4.72-2.95-7.03-1.36Z"/><g><g><path class="cls-21" d="M408.57,231.95c.36-1.9-.87-3.73-2.74-4.1-1.87-.36-3.68,.88-4.04,2.78-.36,1.9,.87,3.73,2.74,4.09,1.87,.36,3.68-.88,4.04-2.78Z"/><polygon class="cls-19" points="405.85 234.73 403.26 228.39 404.09 227.98 406.57 234.49 405.85 234.73"/></g><path class="cls-10" d="M405.18,234.11l-2.08-4.91s-1.25,.62-.96,2.52c.29,1.9,3.19,3.43,3.04,2.39Z"/><path class="cls-10" d="M406.75,233.56l-1.5-3.86s3.09,.45,2.89,1.93c-.2,1.49-1.16,2.79-1.38,1.93Z"/><path class="cls-9" d="M404.7,233.79s-.75-1.92-1.4-2.08c-.66-.18-.97,.72,.03,1.54,.99,.83,1.65,1.17,1.37,.54Z"/></g></g><g><path class="cls-24" d="M382.33,221.21l.2,9.98s-4.88,13.76-4.84,11.47c.3-16.1-.51-10.05-.51-10.05l2.45-2.48-2.6-3.08,.09-3.98s2.27,2.26,2.56,2.2c.29-.06,2.65-4.05,2.65-4.05Z"/><path class="cls-24" d="M377.28,224.37c-2.32,1.59-2.92,4.78-1.35,7.12,1.57,2.34,4.72,2.95,7.03,1.36,2.31-1.59,2.91-4.78,1.35-7.12-1.57-2.34-4.72-2.95-7.03-1.36Z"/><g><g><path class="cls-21" d="M382.06,231.51c1.58-1.09,1.99-3.26,.92-4.86-1.07-1.6-3.22-2.02-4.8-.93-1.58,1.09-1.98,3.26-.91,4.86,1.07,1.6,3.22,2.01,4.8,.93Z"/><polygon class="cls-19" points="378.2 231.52 380.8 225.19 381.66 225.49 378.88 231.87 378.2 231.52"/></g><path class="cls-10" d="M378.15,230.61l1.96-4.96s-1.32-.45-2.44,1.1c-1.12,1.55-.14,4.71,.48,3.86Z"/><path class="cls-10" d="M379.65,231.34l1.63-3.81s1.87,2.53,.69,3.43c-1.18,.91-2.76,1.15-2.32,.38Z"/><path class="cls-9" d="M378.04,230.04s.81-1.89,.47-2.48c-.34-.59-1.19-.18-1.06,1.11,.13,1.29,.35,2.02,.6,1.37Z"/></g></g><g><path class="cls-24" d="M415.37,178.9l.19,9.98s-4.88,13.77-4.84,11.48c.3-16.1-.51-10.05-.51-10.05l2.44-2.48-2.6-3.08,.09-3.99s2.27,2.26,2.56,2.19c.29-.06,2.65-4.05,2.65-4.05Z"/><path class="cls-24" d="M410.31,182.07c-2.31,1.59-2.92,4.78-1.35,7.12,1.57,2.34,4.72,2.95,7.03,1.36,2.32-1.59,2.91-4.78,1.34-7.12-1.57-2.34-4.72-2.95-7.03-1.36Z"/><g><g><path class="cls-21" d="M415.09,189.2c1.58-1.08,1.99-3.26,.92-4.85-1.08-1.6-3.22-2.02-4.8-.93-1.58,1.08-1.99,3.26-.92,4.86,1.07,1.59,3.22,2.01,4.8,.93Z"/><polygon class="cls-19" points="411.23 189.22 413.83 182.88 414.7 183.19 411.91 189.57 411.23 189.22"/></g><path class="cls-10" d="M411.19,188.31l1.96-4.96s-1.32-.45-2.44,1.1c-1.12,1.55-.14,4.71,.48,3.86Z"/><path class="cls-10" d="M412.68,189.04l1.63-3.81s1.87,2.53,.68,3.43c-1.18,.91-2.76,1.14-2.32,.37Z"/><path class="cls-9" d="M411.08,187.73s.81-1.89,.47-2.48c-.34-.59-1.19-.18-1.06,1.11,.12,1.3,.35,2.02,.59,1.37Z"/></g></g><g><path class="cls-24" d="M387.04,183.33l.19,9.98s-3.18,6.82-3.37,5.17c-.09-.77-1.98-3.75-1.98-3.75l2.45-2.48-2.6-3.08,.09-3.99s2.27,2.26,2.56,2.19c.29-.06,2.65-4.05,2.65-4.05Z"/><path class="cls-24" d="M381.99,186.49c-2.32,1.59-2.92,4.78-1.35,7.12,1.57,2.34,4.72,2.95,7.03,1.36,2.31-1.59,2.92-4.78,1.35-7.12-1.57-2.35-4.72-2.95-7.03-1.36Z"/><g><g><path class="cls-21" d="M386.77,193.63c1.58-1.09,1.99-3.26,.92-4.86-1.07-1.6-3.22-2.01-4.8-.93-1.58,1.09-1.99,3.26-.92,4.86,1.07,1.6,3.22,2.02,4.8,.93Z"/><polygon class="cls-19" points="382.91 193.64 385.5 187.31 386.38 187.61 383.58 193.99 382.91 193.64"/></g><path class="cls-10" d="M382.86,192.73l1.96-4.96s-1.32-.45-2.43,1.1c-1.12,1.55-.14,4.71,.48,3.86Z"/><path class="cls-10" d="M384.35,193.46l1.63-3.81s1.87,2.53,.69,3.43c-1.18,.91-2.77,1.14-2.32,.37Z"/><path class="cls-9" d="M382.75,192.16s.81-1.89,.47-2.48c-.34-.59-1.18-.18-1.06,1.11,.13,1.3,.35,2.02,.6,1.37Z"/></g></g></g><g><path class="cls-23" d="M22.23,411.64c-9.69-5.63-10.39-15.63-9.02-18.49l.66-1.37,1.49,.06c.1,0,9.75,.32,21.65-4.91,3.89-1.71,7.63-3.85,11.12-6.35,13.5-9.65,15.42-14.04,15.67-14.85l-.48-3.26,3.4,.87c.28,.07,6.92,1.85,9.03,7.92,1.69,4.87-.1,10.73-5.34,17.41-6.97,8.9-16.8,16.58-26.97,21.05h0c-5.21,2.29-14.88,5.59-21.22,1.9Zm28.78-26.8c-3.75,2.68-7.76,4.97-11.93,6.8-9.65,4.25-17.84,5.11-21.56,5.27,.11,2.39,1.31,7.07,6.89,10.31,3.18,1.85,9.68,1.01,16.96-2.19h0c9.37-4.12,18.8-11.49,25.22-19.69,4.05-5.17,5.64-9.5,4.61-12.52-.62-1.83-2.18-3.01-3.46-3.71-1.69,3.16-6.12,8.13-16.73,15.72Z"/><path class="cls-17" d="M15.38,394.39s16.84,.73,34.19-11.68c17.34-12.41,16.68-16.89,16.68-16.89,0,0,15.68,4.05,2.25,21.19-13.43,17.14-36.38,27.53-45.18,22.42-8.81-5.11-8.62-13.62-7.94-15.04Z"/><path class="cls-16" d="M15.28,398.44c1.25,2.17,3.22,4.37,6.3,6.17,8.81,5.11,31.76-5.27,45.18-22.42,4.18-5.34,5.54-9.41,5.43-12.48,2.42,3.12,3.24,8.47-3.69,17.31-13.43,17.14-36.38,27.53-45.18,22.42-5.5-3.19-7.49-7.71-8.04-11Z"/><path class="cls-11" d="M44.16,388.72c12.28-7.81,20.96-17.46,22.75-19.36,1.43-1.53,5.23,2.76,.71,9.15-4.53,6.39-19.6,21.72-34.36,22.8-14.75,1.08-1.37-4.78,10.9-12.6Z"/><g><path class="cls-23" d="M61.41,398.11c.13-.4,3.01-9.93,2.02-15.93-.91-5.52-1.06-10.11-1.06-10.15l-2.91-.06c0,.2,.16,4.85,1.1,10.59,.87,5.26-1.9,14.4-1.93,14.49l2.78,1.06Z"/><path class="cls-23" d="M42.09,410.23c.13-.18,1.33-1.88,1.55-4.93,.06-.76,.18-1.5,.33-2.35,.33-1.97,.74-4.43,.51-8.59-.3-5.35,1.34-9.77,1.35-9.81l-2.72-1.24c-.08,.2-1.88,5.08-1.54,11.09,.22,3.8-.15,5.96-.47,7.88-.15,.89-.3,1.73-.36,2.64-.16,2.18-.99,3.38-1,3.39l2.35,1.93Z"/><path class="cls-23" d="M23.56,410.23c0-.07-.78-6.51-.86-10.16-.08-3.27,1.98-6.77,2-6.8l-2.49-1.71c-.11,.17-2.52,4.25-2.42,8.43,.09,3.81,.85,10.2,.88,10.47l2.89-.23Z"/></g></g><g><path class="cls-23" d="M2.93,376.08c-5.58-9.72-1.2-18.73,1.42-20.52l1.25-.86,1.26,.8c.08,.05,8.29,5.15,21.21,6.55,4.22,.46,8.54,.48,12.81,.06,16.51-1.62,20.37-4.46,20.99-5.04l1.21-3.07,2.51,2.46c.21,.2,5.07,5.06,3.87,11.37-.96,5.06-5.44,9.24-13.32,12.42-10.48,4.23-22.83,5.97-33.88,4.77h0c-5.65-.61-15.68-2.59-19.33-8.94Zm38.32-8.85c-4.58,.45-9.2,.43-13.73-.06-10.48-1.14-18.01-4.48-21.31-6.2-1.1,2.13-2.4,6.78,.82,12.38,1.84,3.2,7.89,5.71,15.79,6.57h0c10.17,1.11,22.02-.56,31.68-4.46,6.09-2.46,9.64-5.41,10.25-8.54,.37-1.9-.39-3.7-1.15-4.94-3.04,1.89-9.37,3.98-22.35,5.26Z"/><path class="cls-17" d="M5.61,357.72s14.22,9.04,35.45,6.95c21.23-2.09,22.89-6.31,22.89-6.31,0,0,11.56,11.34-8.63,19.49-20.2,8.15-45.27,5.69-50.34-3.14-5.07-8.83-.66-16.1,.64-17Z"/><path class="cls-16" d="M3.5,361.17c0,2.5,.61,5.4,2.38,8.49,5.07,8.82,30.15,11.28,50.34,3.14,6.29-2.54,9.5-5.38,10.94-8.11,.54,3.9-1.42,8.96-11.84,13.16-20.19,8.15-45.27,5.68-50.34-3.14-3.17-5.51-2.64-10.42-1.48-13.54Z"/><path class="cls-11" d="M33.38,367.18c14.53-.64,26.88-4.66,29.37-5.41,2.01-.61,3.16,5-3.95,8.28-7.11,3.28-27.83,9.03-41.15,2.6-13.32-6.44,1.2-4.83,15.73-5.46Z"/><g><path class="cls-23" d="M43.63,383.93c.31-.29,7.57-7.11,9.7-12.8,1.96-5.24,4.13-9.28,4.15-9.33l-2.49-1.51c-.09,.18-2.29,4.28-4.33,9.72-1.87,5-8.83,11.53-8.9,11.6l1.88,2.31Z"/><path class="cls-23" d="M20.83,384.78c.21-.09,2.09-.97,3.82-3.5,.43-.63,.9-1.21,1.45-1.87,1.27-1.55,2.86-3.47,4.73-7.18,2.42-4.79,6.04-7.8,6.07-7.83l-1.73-2.44c-.17,.14-4.16,3.46-6.88,8.83-1.71,3.39-3.11,5.09-4.34,6.59-.58,.69-1.13,1.35-1.63,2.11-1.23,1.8-2.55,2.43-2.56,2.44l1.07,2.84Z"/><path class="cls-23" d="M4.79,375.53c.03-.06,2.58-6.03,4.33-9.24,1.57-2.86,5.09-4.87,5.13-4.89l-1.3-2.72c-.18,.09-4.31,2.43-6.3,6.09-1.82,3.34-4.36,9.26-4.46,9.51l2.62,1.25Z"/></g></g><g><path class="cls-23" d="M417.37,86.06h0c-10.67,3.08-23.13,3.49-34.19,1.13-8.3-1.77-13.43-5.12-15.26-9.94-2.27-6.02,1.68-11.63,1.85-11.87l2.05-2.85,1.72,2.82c.72,.46,5,2.6,21.55,1.35,4.28-.32,8.52-1.08,12.61-2.26,12.48-3.61,19.69-10.04,19.77-10.1l1.11-1,1.38,.62c2.88,1.32,8.76,9.44,4.92,19.97-2.5,6.89-12.04,10.56-17.51,12.14Zm-44.69-15.61c-.54,1.36-.97,3.26-.28,5.07,1.14,2.98,5.14,5.28,11.56,6.66,10.19,2.18,22.15,1.78,31.98-1.06h0c7.63-2.21,13.16-5.73,14.42-9.19,2.21-6.07,.13-10.43-1.32-12.33-2.95,2.26-9.8,6.85-19.93,9.77-4.38,1.26-8.93,2.08-13.52,2.43-13.01,.97-19.6,0-22.92-1.34Z"/><path class="cls-17" d="M429.07,56.3s-12.46,11.36-33.73,12.95c-21.27,1.59-23.63-2.27-23.63-2.27,0,0-9.44,13.15,11.85,17.71,21.29,4.55,45.57-2.19,49.05-11.75,3.48-9.57-2.12-15.98-3.55-16.63Z"/><path class="cls-16" d="M431.75,59.34c.44,2.47,.34,5.42-.88,8.77-3.48,9.57-27.76,16.31-49.05,11.75-6.63-1.41-10.28-3.67-12.17-6.1,.14,3.94,2.94,8.58,13.92,10.92,21.29,4.55,45.57-2.19,49.05-11.75,2.17-5.97,.81-10.72-.88-13.6Z"/><path class="cls-11" d="M403.35,70.39c-14.43,1.87-27.28,.04-29.87-.28-2.08-.26-2.24,5.47,5.32,7.48,7.57,2.01,28.97,4.11,40.99-4.52,12.01-8.63-2.01-4.55-16.44-2.68Z"/><g><path class="cls-23" d="M396.14,88.66c-.35-.23-8.68-5.69-11.76-10.93-2.84-4.82-5.66-8.44-5.69-8.47l2.2-1.91c.12,.15,2.99,3.82,5.94,8.83,2.71,4.6,10.69,9.84,10.77,9.89l-1.45,2.6Z"/><path class="cls-23" d="M418.73,85.58c-.22-.05-2.23-.59-4.36-2.79-.53-.54-1.1-1.03-1.76-1.59-1.52-1.3-3.41-2.93-5.9-6.27-3.2-4.3-7.29-6.64-7.33-6.66l1.29-2.7c.19,.11,4.7,2.69,8.29,7.52,2.27,3.05,3.94,4.48,5.41,5.75,.69,.59,1.34,1.14,1.97,1.8,1.52,1.57,2.93,1.96,2.94,1.96l-.57,2.99Z"/><path class="cls-23" d="M432.95,73.7c-.04-.05-3.58-5.49-5.85-8.35-2.03-2.56-5.86-3.92-5.89-3.94l.82-2.91c.19,.06,4.66,1.65,7.26,4.92,2.37,2.98,5.89,8.37,6.03,8.6l-2.36,1.68Z"/></g></g><g><path class="cls-23" d="M421.82,51.23h0c-7.71,8-18.3,14.59-29.06,18.06-8.08,2.61-14.2,2.27-18.18-.99-4.97-4.08-4.35-10.92-4.32-11.21l.35-3.5,2.9,1.58c.85,.04,5.63-.24,19.34-9.58,3.55-2.41,6.84-5.19,9.79-8.25,9.02-9.36,12.05-18.53,12.08-18.63l.45-1.42,1.51-.15c3.15-.31,12.3,3.8,14.24,14.84,1.27,7.22-5.16,15.16-9.11,19.25Zm-46.51,8.8c.21,1.44,.78,3.31,2.29,4.53,2.48,2.01,7.09,2.01,13.34-.01,9.92-3.2,20.08-9.51,27.18-16.88h0c5.52-5.73,8.55-11.53,7.91-15.17-1.13-6.36-5.09-9.09-7.31-10.03-1.43,3.43-5.07,10.83-12.38,18.42-3.16,3.28-6.7,6.26-10.5,8.85-10.79,7.34-16.98,9.79-20.53,10.29Z"/><path class="cls-17" d="M417.1,19.6s-5.12,16.06-22.75,28.06c-17.64,12-21.61,9.83-21.61,9.83,0,0-1.6,16.11,19.12,9.43,20.73-6.69,38.39-24.65,36.63-34.68-1.77-10.03-9.81-12.79-11.39-12.63Z"/><path class="cls-16" d="M420.94,20.9c1.61,1.91,3,4.54,3.61,8.05,1.76,10.02-15.91,27.99-36.63,34.68-6.46,2.09-10.74,1.96-13.59,.79,2.09,3.34,6.83,5.96,17.52,2.51,20.72-6.69,38.39-24.65,36.63-34.68-1.1-6.26-4.66-9.69-7.55-11.34Z"/><path class="cls-11" d="M401.85,44.66c-11.57,8.83-23.62,13.65-26.01,14.67-1.94,.82,.78,5.86,8.34,3.82,7.56-2.04,27.15-10.9,33.25-24.39,6.1-13.48-4.01-2.94-15.58,5.89Z"/><g><path class="cls-23" d="M404.72,64.09c-.42-.03-10.36-.61-15.65-3.61-4.87-2.76-9.12-4.48-9.16-4.5l.94-2.76c.19,.08,4.5,1.82,9.55,4.69,4.64,2.64,14.17,3.19,14.27,3.2l.04,2.97Z"/><path class="cls-23" d="M422.76,50.13c-.22,.06-2.23,.6-5.17-.24-.73-.21-1.47-.35-2.32-.5-1.97-.37-4.42-.83-8.23-2.48-4.92-2.13-9.64-2.12-9.68-2.11l-.23-2.98c.22,0,5.41-.02,10.94,2.37,3.49,1.51,5.65,1.91,7.56,2.28,.89,.16,1.73,.32,2.6,.57,2.1,.6,3.52,.23,3.53,.23l1,2.87Z"/><path class="cls-23" d="M429.15,32.74c-.06-.03-5.84-2.97-9.24-4.31-3.04-1.19-7.03-.48-7.07-.47l-.74-2.93c.19-.04,4.86-.9,8.74,.64,3.54,1.39,9.28,4.31,9.52,4.44l-1.21,2.64Z"/></g></g><g><path class="cls-23" d="M392.69,409.74h0c-10.16-4.48-19.99-12.15-26.97-21.05-5.24-6.68-7.03-12.54-5.34-17.41,2.11-6.07,8.75-7.85,9.03-7.92l3.4-.87-.48,3.26c.26,.81,2.17,5.2,15.67,14.85,3.49,2.5,7.24,4.63,11.12,6.35,11.9,5.23,21.55,4.92,21.65,4.91l1.49-.06,.66,1.37c1.37,2.86,.67,12.86-9.02,18.49-6.34,3.68-16.01,.39-21.22-1.9Zm-24.3-40.62c-1.28,.7-2.84,1.88-3.46,3.71-1.03,3.02,.56,7.35,4.61,12.52,6.43,8.2,15.86,15.57,25.22,19.69h0c7.28,3.2,13.77,4.04,16.96,2.19,5.58-3.24,6.78-7.92,6.89-10.31-3.71-.16-11.91-1.03-21.56-5.27-4.17-1.84-8.18-4.13-11.93-6.8-10.61-7.59-15.04-12.57-16.74-15.72Z"/><path class="cls-17" d="M420.75,394.39s-16.84,.73-34.18-11.68c-17.34-12.41-16.68-16.89-16.68-16.89,0,0-15.68,4.05-2.25,21.19,13.43,17.14,36.38,27.53,45.18,22.42,8.81-5.11,8.62-13.62,7.94-15.04Z"/><path class="cls-16" d="M420.86,398.44c-1.25,2.17-3.22,4.37-6.3,6.17-8.81,5.11-31.76-5.27-45.19-22.42-4.18-5.34-5.54-9.41-5.43-12.48-2.42,3.12-3.24,8.47,3.69,17.31,13.43,17.14,36.38,27.53,45.18,22.42,5.5-3.19,7.49-7.71,8.04-11Z"/><path class="cls-11" d="M391.97,388.72c-12.27-7.81-20.96-17.46-22.75-19.36-1.44-1.53-5.23,2.76-.71,9.15,4.53,6.39,19.6,21.72,34.36,22.8,14.75,1.08,1.37-4.78-10.9-12.6Z"/><g><path class="cls-23" d="M374.73,398.11c-.13-.4-3.01-9.93-2.02-15.93,.91-5.52,1.06-10.11,1.06-10.15l2.91-.06c0,.2-.15,4.85-1.1,10.59-.87,5.26,1.9,14.4,1.93,14.49l-2.78,1.06Z"/><path class="cls-23" d="M394.05,410.23c-.13-.18-1.33-1.88-1.55-4.93-.06-.76-.18-1.5-.33-2.35-.33-1.97-.74-4.43-.51-8.59,.3-5.35-1.34-9.77-1.36-9.81l2.72-1.24c.08,.2,1.88,5.08,1.55,11.09-.22,3.8,.15,5.96,.47,7.88,.15,.89,.3,1.73,.36,2.64,.16,2.18,.99,3.38,1,3.39l-2.35,1.93Z"/><path class="cls-23" d="M412.57,410.23c0-.07,.78-6.51,.86-10.16,.08-3.27-1.98-6.77-2-6.8l2.49-1.71c.11,.17,2.52,4.25,2.42,8.43-.09,3.81-.85,10.2-.88,10.47l-2.89-.23Z"/></g></g><g><path class="cls-23" d="M413.88,385.03h0c-11.04,1.2-23.4-.54-33.88-4.77-7.87-3.18-12.35-7.36-13.32-12.42-1.2-6.31,3.66-11.17,3.87-11.37l2.51-2.46,1.21,3.07c.62,.58,4.48,3.42,20.99,5.04,4.27,.42,8.58,.4,12.81-.06,12.92-1.41,21.13-6.5,21.21-6.55l1.26-.8,1.26,.86c2.61,1.78,7,10.8,1.42,20.52-3.65,6.35-13.68,8.33-19.33,8.94Zm-41.34-23.06c-.76,1.24-1.52,3.04-1.15,4.94,.61,3.13,4.16,6.09,10.25,8.54,9.66,3.9,21.51,5.57,31.68,4.46h0c7.9-.86,13.95-3.37,15.79-6.57,3.22-5.6,1.92-10.24,.82-12.38-3.3,1.72-10.83,5.07-21.31,6.2-4.53,.49-9.15,.51-13.73,.06-12.99-1.28-19.31-3.37-22.35-5.26Z"/><path class="cls-17" d="M430.52,357.72s-14.22,9.04-35.44,6.95c-21.23-2.09-22.89-6.31-22.89-6.31,0,0-11.56,11.34,8.63,19.49,20.2,8.15,45.27,5.69,50.35-3.14,5.07-8.83,.66-16.1-.64-17Z"/><path class="cls-16" d="M432.64,361.17c0,2.5-.61,5.4-2.38,8.49-5.08,8.82-30.15,11.28-50.34,3.14-6.29-2.54-9.5-5.38-10.94-8.11-.54,3.9,1.42,8.96,11.84,13.16,20.19,8.15,45.27,5.68,50.34-3.14,3.17-5.51,2.64-10.42,1.48-13.54Z"/><path class="cls-11" d="M402.76,367.18c-14.54-.64-26.88-4.66-29.37-5.41-2.01-.61-3.16,5,3.96,8.28,7.11,3.28,27.82,9.03,41.15,2.6,13.32-6.44-1.2-4.83-15.73-5.46Z"/><g><path class="cls-23" d="M392.51,383.93c-.31-.29-7.57-7.11-9.7-12.8-1.96-5.24-4.13-9.28-4.15-9.33l2.49-1.51c.09,.18,2.29,4.28,4.33,9.72,1.87,5,8.83,11.53,8.9,11.6l-1.88,2.31Z"/><path class="cls-23" d="M415.3,384.78c-.21-.09-2.09-.97-3.81-3.5-.43-.63-.9-1.21-1.46-1.87-1.27-1.55-2.86-3.47-4.73-7.18-2.42-4.79-6.04-7.8-6.08-7.83l1.73-2.44c.17,.14,4.16,3.46,6.87,8.83,1.71,3.39,3.11,5.09,4.34,6.59,.58,.69,1.13,1.35,1.63,2.11,1.23,1.8,2.55,2.43,2.56,2.44l-1.07,2.84Z"/><path class="cls-23" d="M431.35,375.53c-.03-.06-2.58-6.03-4.33-9.24-1.57-2.86-5.09-4.87-5.13-4.89l1.3-2.72c.18,.09,4.31,2.43,6.3,6.09,1.82,3.34,4.36,9.26,4.46,9.51l-2.62,1.25Z"/></g></g></g><g><g><g><path class="cls-24" d="M194.2,334.49c-.38-1.31-38.27-131.5-71.57-209.47-30.78-72.07-43.47-88.31-45.73-90.86-5.28-7.34-24.91-.48-25.12-.41-6.01,2.13-8.3,3.81-9.17,4.85l-.04,.05-1.11-.32-1.64,1.49c-3.28,2.98-13.59,13.26-8.41,20.69,1.02,1.47,3.03,4.45,5.29,7.82,7.3,11.66,21.93,38.06,37.91,83.97,22.94,65.88,45.87,167.23,46.32,181.82,.45,14.32-.91,22.63-.92,22.71l-.6,3.61,3.54,.89c2.87,.72,10.69,2.69,12.48,3.22,1.74,.52,4.56,.34,7.21-.02l4.48,1.44c.09-.02,9.29-1.74,20.04-4.03,2.82-.6,5.16-1.53,7-2.79l4.4,.62,16.67-14.18-.94-10.36-.14-.75Z"/><path class="cls-18" d="M78.7,51.24s-2.71-11.01-4.91-14.62c-2.2-3.61-14.42-1.35-20.67,.87-6.26,2.22-7.45,3.65-7.45,3.65l1.6,3-4.76-1.39s-11.41,10.34-7.82,15.5c3.59,5.15,19.08,28.52,19.08,28.52,0,0,25.67-7.28,26.43-8.01,.76-.73,5.4-17.21-1.49-27.52Z"/><path class="cls-14" d="M34.68,58.25s20.45,25.97,43.69,92.75c23.25,66.78,46.07,168.03,46.54,183,.47,14.97-.97,23.49-.97,23.49,0,0,10.39,2.59,12.66,3.27s9.63-.87,9.63-.87l.2,2.19s9.12-1.71,19.95-4.01c10.83-2.3,8.45-9.15,8.45-9.15l2.38,6.85,13.94-11.85-.75-8.32s-37.82-130.37-71.41-209.01C85.41,47.93,73.79,36.61,73.79,36.61c0,0,2.17,6.26-1.85,11.26l-4.02,5,4.65,14.81s-5.19-11.62-7.68-11.72-3.74,4.48-12.19,4.41c-8.45-.07-10.18-.9-10.18-.9l4.92,6.84-8.1-7.22s-2.31,.65-4.66-.85Z"/><path class="cls-25" d="M119,126.58C85.41,47.93,73.79,36.61,73.79,36.61c0,0,1.52,4.45-.4,8.84,6.45,10.48,19.85,41.65,40.49,89.97,33.59,78.65,62.07,216.72,62.07,216.72l1.26,3.63,13.94-11.85-.75-8.32s-37.82-130.37-71.41-209.01Z"/><path class="cls-13" d="M157.34,359.91c-7.79-33.9-44.34-192.47-49.28-207.02-4.24-12.5-32.29-70.07-45.15-96.27-1.8,1.23-4.08,3.82-10.44,3.77-8.45-.07-10.18-.9-10.18-.9l4.92,6.84-8.1-7.22s-.44,.11-1.12,.13c6.05,9.27,27.63,42.45,29.36,46.85,2.02,5.12,36.79,107.1,47.57,147.1,10.78,40,17.85,87.19,17.84,87.13,0-.06-.08,19.46-.08,19.46,1.62,.42,3.01,.79,3.68,.99,2.27,.68,9.63-.87,9.63-.87l.2,2.19s4.6-.86,11.14-2.18Z"/><path class="cls-24" d="M46.25,65.25s25.84,36.86,26.57,41.88c.73,5.01,16.21,44.45,14.82,41.27-1.39-3.19-13.61-45.57-14.62-49.45-1.01-3.88-27.23-38.88-27.23-38.88l-3.26-.59,3.73,5.78Z"/><path class="cls-12" d="M50,65.74l21.87,30.95,19.2,63.09s-14.81-61.58-15.91-63.91c-1.09-2.33-25.16-30.14-25.16-30.14Z"/><path class="cls-24" d="M141.01,361.73s1.52-5.59,1.66-6.62c.14-1.03-4.05-32.37-4.05-32.37l8.79,39.74-6.41-.75Z"/><path class="cls-12" d="M137.88,320.08l9.44,41.92s1.68-1.69,1.52-2.53c-.15-.84-4.61-27.8-5.06-29.32-.45-1.52-5.9-10.07-5.9-10.07Z"/><path class="cls-12" d="M75.09,43.28s-2.31,8.08-3.76,8.45c-1.45,.36,1.6,17.78,1.6,17.78l-8.14-11.58s-6.19,3.1-9.91,3.3c-3.72,.2-1.1,8.91-1.1,8.91,0,0-7.19-7.44-7.6-7.72-.41-.27,.3,3.28,.3,3.28l-6.91-4.86s-2.72,.09-3.79-.98-1.57-1.81-1.83-4.12c-.27-2.31,2.02-5.3,2.02-5.3,0,0,.22,4,1.11,5.25,.89,1.24,4.29,2.57,10.26,3.13s11.86-.75,14.7-2.1c2.84-1.35,3.73-2.76,3.73-2.76l1.45-.36-.17-2.71s7.05-6.56,6.8-10.98c-.24-4.42-2.05-4.65-2.05-4.65,0,0,3.6-.63,3.3,8.05Z"/></g><g><g><path d="M400.27,169.22c-1.74-6.85-5.34-18.72-9.97-21.22-3.17-1.71-13.06-2.18-22.44-2.12,4.74-2.01,9.48-4.22,13.18-6.3,8.03-4.52,11.82-14.18,13.58-21.49l.15-.61-.13-.62c-9.88-46.82-29.58-81.97-29.78-82.32l-1.31-2.32-2.38,1.2c-.26,.13-26.8,13.34-61.71,15.92-15.27,1.13-32.75-4.48-53-10.98-26.05-8.36-55.56-17.84-89.06-15.53-59.86,4.14-72.63,32.51-73.15,33.72l-.68,1.61,1.14,1.32c6.66,7.69,41.32,49.9,69.6,125.65,11.29,30.23,5.07,58.4,5,58.68l-1.11,4.87,4.73-1.59c.19-.07,19.09-6.3,55.59-6.75,18.3-.22,31.51,5.83,45.49,12.24,13.79,6.32,28.05,12.86,47.75,13.4,4.59,.13,9.09-.04,13.46-.43,32.87-2.97,58.26-18.81,59.46-19.57l.63-.4,.35-.65s.26-.49,.7-1.41l1.92-4h-4.44c-2.63,0-5.09,0-7.4-.02,4.48-1.23,8.64-2.48,11.9-3.48l1.33-.41,.47-1.31c4.66-12.98,10.21-34.68,10.21-64.38v-.35l-.09-.34Zm-14.92,61.86c-5.6,1.71-13.35,3.95-20.77,5.66-8.51,1.96-14.62,1.32-16.63,1.11-2.12-.22-3.39,.48-3.78,2.08-.59,2.42,1.63,3.28,2.69,3.7h0c.85,.33,3.24,1.27,27.87,1.44-11.46,5.8-35.73,16.05-62.81,15.31-18.56-.51-32.29-6.8-45.57-12.89-13.93-6.38-28.33-12.99-47.89-12.75-8.98,.11-16.9,.56-23.77,1.18-14.22,1.28-23.93,3.31-29.11,4.61,1.4-9.48,3.26-32.49-6.02-57.37-27.15-72.71-60.24-115.04-69.35-125.87,3.47-5.59,19.16-25.54,67.58-28.89,32.42-2.24,61.4,7.07,86.96,15.27,20.8,6.68,38.76,12.45,55.12,11.23,30.26-2.24,53.87-11.93,61.35-15.33,4.4,8.37,19.51,38.91,27.81,77.81-1.56,6.14-4.66,13.9-10.74,17.32-8.14,4.58-21.57,9.81-28.3,11.99-3.02,.35-3.95,.72-4.65,1.32l-1.82,1.64,1.11,1.99c1.21,2.17,3.33,1.56,6.53,.54,11.01-1.17,33.33-.96,36.48,.73,1.04,.6,4.12,5.63,7.12,17.34-.04,27.73-5.03,48.19-9.42,60.83Z"/><path class="cls-1" d="M347.89,241.03c-3.88-1.52,3.88,1.52,17.32-1.56,8.23-1.89,16.85-4.43,22.31-6.12,4.24-11.8,10.05-33.5,10.04-63.43-2.46-9.72-5.83-17.96-8.59-19.44-4.36-2.35-29.15-2.05-38.39-1.02-2.51,.8-3.9,1.11-3.42,.7,.29-.25,1.54-.49,3.42-.7,6.5-2.08,20.52-7.48,29.08-12.3,7.25-4.08,10.67-13.21,12.23-19.71-9.91-46.94-29.48-81.52-29.48-81.52,0,0-26.84,13.54-62.76,16.21-35.93,2.66-83.2-30.57-142.07-26.51-58.87,4.06-70.77,32.02-70.77,32.02,14.67,16.94,45.44,60.43,70.11,126.5,11.74,31.45,5.11,60.29,5.11,60.29,0,0,19.08-6.44,56.45-6.89,37.37-.46,54.6,24.58,93.35,25.64,38.76,1.06,71.34-19.57,71.34-19.57,0,0,.24-.46,.65-1.3-10.46,0-32.99-.12-35.96-1.28Z"/><g class="cls-35"><g class="cls-7"><path class="cls-31" d="M388.98,150.47c-4.36-2.35-29.15-2.05-38.39-1.02-2.51,.8-3.9,1.11-3.42,.7,.29-.25,1.54-.49,3.42-.7,.53-.17,1.13-.37,1.75-.58-1.33,.24-2.52,.5-3.48,.81-1.46,.16-11.41,2.52-14.6,3.19,10.49-.88,50.96,.84,55.21,3.13,2.56,1.38,5.64,8.59,8.05,17.4,.02-1.15,.04-2.3,.04-3.48-2.46-9.72-5.83-17.96-8.59-19.44Z"/></g><g class="cls-40"><path class="cls-33" d="M391.52,118.93c.14-.51,.27-1.01,.38-1.49-9.91-46.94-29.48-81.52-29.48-81.52,0,0-26.84,13.54-62.76,16.21-35.93,2.66-83.2-30.57-142.07-26.51-58.87,4.06-70.77,32.02-70.77,32.02,.62,.96,1.25,2,1.89,3.07,4.47-6.9,21.17-26.25,69.38-29.57,58.87-4.06,106.14,29.17,142.07,26.51,35.93-2.66,62.76-16.21,62.76-16.21,0,0,18.45,32.61,28.59,77.49Z"/></g><g class="cls-42"><path class="cls-32" d="M348.74,241.16s-5.33-1.52-1.45,0c2.28,.89,17.26,6.56,28.29,6.64,4.86-2.45,7.63-4.2,7.63-4.2,0,0,.24-.46,.65-1.3-2.1,0-4.7,0-7.52-.02-3.42,.94-27.59-1.13-27.59-1.13Z"/></g></g></g><g class="cls-37"><path class="cls-9" d="M319.29,160.84c-3.59-13.29-9.21-7.09-4.78-25.24,4.43-18.15,4.44-30.99-26.4-41.64-1.61-.56-3.18-1-4.72-1.39-3.09-.94-6.48-1.41-10.13-1.37-3.65-.05-7.04,.42-10.13,1.35-1.54,.38-3.11,.83-4.72,1.38-30.86,10.6-30.88,23.43-26.49,41.59,4.39,18.16-1.21,11.95-4.83,25.23-3.26,11.94,13.27,15.5,21,16.25-2.42,4.5-5.09,10.17-4.64,12.55,.8,4.21,2.8,4.65,8.41,4.66,5.61,0,11.43-12.39,11.43-12.39,0,0-2.01,8.41-2.41,11.07-.4,2.66,8.81,5.1,13.02,5.1,4.21,0,4.81-3.76,4.82-7.74,0-3.98,4.62-7.74,4.62-7.74,0,0,.59,6.2,2.99,10.85,2.4,4.65,12.82-.43,16.03-1.53,2.16-.74-2.12-9.22-5.15-14.68,7.13-.5,25.49-3.76,22.1-16.3Zm-54.61-16.26c-.61,8.24-3.02,13.55-13.24,13.54-10.22-.01-19.63-7.77-6.78-27.24,4.7-7.13,20.63,5.46,20.02,13.7Zm8.36,23.74c-9.19-1.12-7.23-2.93-5.22-10.85,2.41-9.52,7.82-5.08,10.22,1.12,2.4,6.2,4.2,10.85-4.99,9.74Zm8.69-23.72c-.59-8.24,15.36-20.8,20.05-13.66,12.8,19.49,3.38,27.23-6.84,27.22-10.22-.01-12.62-5.33-13.21-13.56Z"/><path class="cls-9" d="M367.12,101.26c-3.84-10.74-10.26-8.41-11.07-8.06,.4-.2,2.09-1.31,3.64-6.24,1.77-5.63-2.53-14.51-9.75-14.95-7.22-.44-4.15,8.44-5.33,12.12-1.18,3.68-13.18,11.16-13.18,11.16l-11.18,6.72c3.4,6.79,2.89,14.39,1.01,23.13l17.54-10.53c2.98-.31,8.84-.7,14.99,.06,8.82,1.09,17.44-1.93,13.34-13.41Z"/><path class="cls-9" d="M199.83,111.36l26.72,16.12c-2.1-9.05-3.07-16.92-.24-23.91l-16.89-10.19c2.17-5.01,4.78-13.89-1.78-17.82-9.4-5.64-16.26-1.53-19.21,3.45-2.94,4.98,4.69,16.24,4.69,16.24,0,0-16.26-.88-13.73,13.19,1.88,10.42,12.02,12.41,20.44,2.92Z"/><path class="cls-9" d="M350.38,182.2c-3.62,.22-6.58-1.03-8.08-1.83l-1.08-.65h0l-15.36-9.27c-2.06,7.31-12.33,10.51-19.88,11.77l24.74,14.93s4.66,5.61,6.91,11.14c2.25,5.52,9.69,7.91,13.42,.01,3.73-7.9-1.16-12.56-1.16-12.56l3.82-.43c3.82-.43,13.13-4.75,10.2-12.11-2.93-7.36-8.23-1.31-13.52-.99Z"/><path class="cls-9" d="M220.99,168.43l-18.08,10.86s-7.71,4.37-13.59,4.37c-5.88,0-11.76,3.24-8.63,11.68,3.13,8.45,10.66,3.47,10.66,3.47,0,0-4.41,13.85,5.39,13,9.8-.86,9.94-9.32,14.97-14.07h0l26.82-16.11c-7.79-1.69-16.94-5.44-17.53-13.2Z"/></g></g></g><g><path class="cls-23" d="M48.78,93.05c-8.75-5.08-9.38-14.12-8.15-16.7l.6-1.23,1.35,.05c.09,0,8.81,.29,19.56-4.44,3.51-1.55,6.9-3.48,10.05-5.73,12.19-8.72,13.93-12.68,14.16-13.41l-.44-2.95,3.07,.79c.25,.07,6.25,1.67,8.16,7.16,1.53,4.4-.09,9.69-4.82,15.73-6.3,8.04-15.18,14.97-24.36,19.02h0c-4.7,2.07-13.44,5.05-19.17,1.72Zm26-24.21c-3.38,2.42-7.01,4.49-10.78,6.14-8.71,3.84-16.12,4.62-19.47,4.77,.1,2.16,1.18,6.38,6.23,9.31,2.88,1.67,8.75,.91,15.32-1.98h0c8.46-3.73,16.98-10.38,22.79-17.79,3.66-4.67,5.1-8.58,4.16-11.31-.56-1.65-1.97-2.72-3.13-3.35-1.53,2.85-5.53,7.35-15.12,14.2Z"/><path class="cls-17" d="M42.59,77.47s15.21,.66,30.88-10.55c15.67-11.21,15.07-15.26,15.07-15.26,0,0,14.16,3.66,2.03,19.15-12.13,15.49-32.86,24.87-40.82,20.25-7.96-4.62-7.78-12.3-7.17-13.59Z"/><path class="cls-16" d="M42.5,81.12c1.13,1.96,2.91,3.95,5.69,5.57,7.96,4.62,28.69-4.76,40.82-20.25,3.78-4.82,5.01-8.5,4.9-11.27,2.18,2.81,2.93,7.65-3.33,15.64-12.13,15.49-32.86,24.87-40.82,20.25-4.97-2.88-6.77-6.97-7.27-9.93Z"/><path class="cls-11" d="M68.59,72.34c11.09-7.06,18.94-15.77,20.55-17.49,1.3-1.38,4.73,2.5,.64,8.27-4.09,5.78-17.7,19.62-31.04,20.6-13.33,.97-1.24-4.32,9.85-11.38Z"/><g><path class="cls-23" d="M84.17,80.83c.11-.36,2.72-8.97,1.82-14.39-.83-4.99-.96-9.13-.96-9.17l-2.63-.05c0,.18,.14,4.38,1,9.56,.79,4.75-1.71,13.01-1.74,13.09l2.51,.96Z"/><path class="cls-23" d="M66.72,91.78c.12-.16,1.2-1.7,1.4-4.46,.05-.69,.17-1.35,.3-2.12,.3-1.78,.67-4.01,.46-7.76-.27-4.83,1.21-8.82,1.22-8.87l-2.46-1.12c-.07,.18-1.7,4.59-1.4,10.02,.19,3.43-.14,5.39-.42,7.12-.14,.81-.27,1.56-.33,2.39-.14,1.97-.9,3.05-.9,3.06l2.12,1.74Z"/><path class="cls-23" d="M49.98,91.78c0-.06-.7-5.88-.78-9.18-.07-2.95,1.79-6.11,1.8-6.14l-2.25-1.54c-.1,.15-2.27,3.84-2.18,7.61,.08,3.44,.77,9.21,.8,9.46l2.61-.21Z"/></g></g><g><path class="cls-23" d="M113.64,280.76c-8.85-6.92-8.17-16.95-6.41-19.6l.85-1.27,1.47,.26c.1,.02,9.64,1.66,22.18-1.9,4.1-1.17,8.11-2.77,11.92-4.77,14.73-7.73,17.24-11.82,17.61-12.59l-.03-3.31,3.26,1.34c.27,.11,6.61,2.79,7.88,9.11,1.01,5.07-1.57,10.64-7.7,16.56-8.15,7.88-18.97,14.15-29.68,17.2h0c-5.49,1.56-15.55,3.5-21.34-1.03Zm32.27-22.66c-4.09,2.14-8.39,3.86-12.78,5.11-10.17,2.89-18.43,2.62-22.14,2.27-.22,2.39,.33,7.2,5.43,11.19,2.91,2.27,9.48,2.33,17.14,.16h0c9.87-2.81,20.25-8.82,27.76-16.09,4.73-4.58,6.91-8.66,6.3-11.8-.37-1.9-1.75-3.29-2.93-4.16-2.12,2.9-7.2,7.23-18.78,13.31Z"/><path class="cls-17" d="M109.21,262.69s16.63,3.05,35.56-6.89c18.93-9.94,18.89-14.48,18.89-14.48,0,0,15.01,6.18-.68,21.36-15.7,15.18-39.92,22.34-47.96,16.05-8.04-6.29-6.68-14.71-5.81-16.03Z"/><path class="cls-16" d="M108.55,266.69c.94,2.33,2.59,4.79,5.41,6.99,8.04,6.29,32.27-.87,47.96-16.05,4.89-4.72,6.8-8.58,7.11-11.65,1.97,3.43,2.05,8.86-6.04,16.69-15.7,15.18-39.92,22.34-47.96,16.05-5.02-3.93-6.38-8.69-6.47-12.03Z"/><path class="cls-11" d="M138.58,261.01c13.27-6.07,23.22-14.45,25.26-16.1,1.63-1.32,4.81,3.46-.56,9.19-5.38,5.73-22.45,18.87-37.26,17.92-14.8-.96-.7-4.94,12.56-11.01Z"/><g><path class="cls-23" d="M154.41,272.72c.18-.38,4.36-9.45,4.2-15.54-.15-5.61,.34-10.18,.34-10.23l-2.88-.46c-.02,.2-.51,4.84-.36,10.67,.14,5.35-3.86,14.04-3.91,14.13l2.61,1.44Z"/><path class="cls-23" d="M133.56,282.1c.16-.16,1.58-1.68,2.22-4.69,.16-.75,.39-1.46,.65-2.29,.6-1.91,1.35-4.3,1.69-8.46,.44-5.36,2.67-9.52,2.7-9.56l-2.53-1.61c-.1,.19-2.57,4.79-3.06,10.8-.31,3.8-.97,5.9-1.55,7.76-.27,.87-.53,1.68-.72,2.57-.46,2.14-1.45,3.22-1.46,3.23l2.07,2.24Z"/><path class="cls-23" d="M115.16,279.54c0-.07,.12-6.57,.54-10.21,.37-3.26,2.9-6.45,2.92-6.48l-2.24-2.04c-.13,.15-3.09,3.88-3.56,8.04-.44,3.79-.56,10.25-.56,10.52l2.9,.17Z"/></g></g></g></g></g></g></g></svg>