<?xml version="1.0" encoding="UTF-8"?><svg xmlns="http://www.w3.org/2000/svg" xmlns:xlink="http://www.w3.org/1999/xlink" viewBox="0 0 525.16 467.5"><defs><style>.cls-1{fill:url(#linear-gradient);}.cls-2{filter:url(#luminosity-noclip-4);}.cls-3{mask:url(#mask);}.cls-4{opacity:.12;}.cls-5{filter:url(#luminosity-noclip-2);}.cls-6{fill:#f58206;}.cls-7{fill:#fff;}.cls-8{fill:#f2a408;}.cls-9{fill:#2a2829;}.cls-10{fill:url(#linear-gradient-5);}.cls-10,.cls-11{mix-blend-mode:multiply;}.cls-11{fill:url(#linear-gradient-2);}.cls-12{fill:url(#linear-gradient-3);mix-blend-mode:overlay;}.cls-13{fill:url(#linear-gradient-4);}.cls-14{opacity:.78;}.cls-15{isolation:isolate;}.cls-16{fill:url(#linear-gradient-6);opacity:.31;}.cls-17{mask:url(#mask-3);}.cls-18{mask:url(#mask-2);}.cls-19{mask:url(#mask-1);}.cls-20{fill:#663d01;opacity:.3;}</style><linearGradient id="linear-gradient" x1="71.93" y1="434.71" x2="62.1" y2="351.66" gradientTransform="matrix(1, 0, 0, 1, 0, 0)" gradientUnits="userSpaceOnUse"><stop offset=".02" stop-color="#454545"/><stop offset="1" stop-color="#000"/></linearGradient><filter id="luminosity-noclip-2" x="4.04" y="4.04" width="517.09" height="180.02" color-interpolation-filters="sRGB" filterUnits="userSpaceOnUse"><feFlood flood-color="#fff" result="bg"/><feBlend in="SourceGraphic" in2="bg"/></filter><filter id="luminosity-noclip-3" x="4.04" y="-8900.03" width="517.09" height="32766" color-interpolation-filters="sRGB" filterUnits="userSpaceOnUse"><feFlood flood-color="#fff" result="bg"/><feBlend in="SourceGraphic" in2="bg"/></filter><mask id="mask-1" x="4.04" y="-8900.03" width="517.09" height="32766" maskUnits="userSpaceOnUse"/><linearGradient id="linear-gradient-2" x1="221.97" y1="32.02" x2="259.81" y2="167.76" gradientTransform="matrix(1, 0, 0, 1, 0, 0)" gradientUnits="userSpaceOnUse"><stop offset=".02" stop-color="#fff"/><stop offset="1" stop-color="#000"/></linearGradient><mask id="mask" x="4.04" y="4.04" width="517.09" height="180.02" maskUnits="userSpaceOnUse"><g class="cls-5"><g class="cls-19"><path class="cls-11" d="M6.24,171.95c5.95-22.81,45.68-22.49,69.57-26.71,23.9-4.22,47.79-28.11,61.85-64.66,14.05-36.54,61.14-67.46,78.71-67.46l45.92,52.71,45.91-52.71c17.57,0,64.67,30.93,78.72,67.46,14.05,36.55,37.95,60.44,61.85,64.66,23.9,4.21,62.44,4.24,69.58,26.71,1.36,4.29,2.19,8.32,2.56,12.11,.65-6.23-.05-13.26-2.56-21.19-7.13-22.47-45.68-22.49-69.58-26.71-23.9-4.22-47.8-28.11-61.85-64.66-14.05-36.54-61.14-67.46-78.72-67.46l-45.91,52.71L216.37,4.04c-17.57,0-64.65,30.93-78.71,67.46-14.06,36.55-37.95,60.44-61.85,64.66-23.89,4.21-63.62,3.89-69.57,26.71-2,7.67-2.55,14.48-2,20.53,.3-3.59,.94-7.39,2-11.45Z"/></g></g></mask><linearGradient id="linear-gradient-3" x1="221.97" y1="32.02" x2="259.81" y2="167.76" gradientTransform="matrix(1, 0, 0, 1, 0, 0)" gradientUnits="userSpaceOnUse"><stop offset=".02" stop-color="#fff"/><stop offset="1" stop-color="#fff"/></linearGradient><linearGradient id="linear-gradient-4" x1="66.15" y1="158.25" x2="447.74" y2="158.25" gradientTransform="matrix(1, 0, 0, 1, 0, 0)" gradientUnits="userSpaceOnUse"><stop offset=".02" stop-color="#00000f"/><stop offset=".52" stop-color="#010733"/><stop offset="1" stop-color="#000113"/></linearGradient><filter id="luminosity-noclip-4" x="40.94" y="303.62" width="46.7" height="117.45" color-interpolation-filters="sRGB" filterUnits="userSpaceOnUse"><feFlood flood-color="#fff" result="bg"/><feBlend in="SourceGraphic" in2="bg"/></filter><filter id="luminosity-noclip-5" x="40.94" y="-8900.03" width="46.7" height="32766" color-interpolation-filters="sRGB" filterUnits="userSpaceOnUse"><feFlood flood-color="#fff" result="bg"/><feBlend in="SourceGraphic" in2="bg"/></filter><mask id="mask-3" x="40.94" y="-8900.03" width="46.7" height="32766" maskUnits="userSpaceOnUse"/><linearGradient id="linear-gradient-5" x1="40.94" y1="362.35" x2="87.64" y2="362.35" xlink:href="#linear-gradient-2"/><mask id="mask-2" x="40.94" y="303.62" width="46.7" height="117.45" maskUnits="userSpaceOnUse"><g class="cls-2"><g class="cls-17"><path class="cls-10" d="M41.27,303.62s-2.69,20.91,7.4,44.1c10.09,23.18,28.59,61.2,25.57,70.95-3.03,9.76,22.2-11.1,10.09-48.11-12.11-37.01-43.06-66.95-43.06-66.95Z"/></g></g></mask><linearGradient id="linear-gradient-6" x1="40.94" y1="362.35" x2="87.64" y2="362.35" xlink:href="#linear-gradient-3"/></defs><g class="cls-15"><g id="Layer_2"><g id="Layer_4"><g><path d="M525.16,179.04c0-.78-.04-1.58-.08-2.39l-.05-.64c-.05-.66-.11-1.33-.18-2l-.1-.85c-.08-.62-.16-1.24-.26-1.87l-.16-.96c-.11-.61-.23-1.23-.36-1.87l-.21-.99c-.15-.66-.31-1.32-.48-1.98l-.23-.9c-.26-.96-.54-1.94-.86-2.93-3.13-9.86-11.5-16.82-25.59-21.27-1.05-.33-2.11-.65-3.18-.94-.86-.24-1.73-.47-2.61-.68-1.74-.43-3.52-.83-5.32-1.19-1.78-.36-3.59-.69-5.41-1-.9-.15-1.81-.3-2.72-.44-4.53-.71-9.07-1.3-13.45-1.86-5.18-.67-10.07-1.3-14.44-2.07-6.15-1.09-12.37-3.61-18.48-7.5-1.36-.87-2.73-1.81-4.06-2.81-1.34-1-2.69-2.07-4.01-3.2-2.66-2.27-5.28-4.82-7.79-7.57-1.26-1.38-2.52-2.84-3.74-4.35-1.22-1.5-2.44-3.09-3.63-4.72-2.38-3.28-4.68-6.8-6.83-10.48-1.09-1.88-2.16-3.81-3.17-5.75-2.59-4.97-4.97-10.27-7.08-15.76-6.13-15.94-19.02-32.54-36.3-46.75-4.9-4.02-9.97-7.71-15.09-10.97-1.97-1.25-3.95-2.44-5.9-3.54-1.93-1.08-3.84-2.09-5.69-2.99-2.8-1.37-5.49-2.51-7.99-3.41-1.7-.61-3.34-1.11-4.89-1.49-2.45-.61-4.68-.91-6.64-.91h-1.84l-44.07,50.6L218.2,0h-1.84c-1.33,0-2.79,.14-4.34,.42-22.21,3.98-64.81,34.97-78.14,69.63-6.2,16.13-14.66,30.33-24.45,41.06-.63,.69-1.27,1.37-1.91,2.04-5.3,5.48-10.93,9.92-16.72,13.2-.89,.5-1.78,.98-2.68,1.43-.91,.46-1.83,.89-2.75,1.29-3.43,1.48-6.88,2.53-10.27,3.12-2.1,.37-4.33,.7-6.62,1.02l-.65,.09c-2.48,.34-5.05,.66-7.68,.98-2.42,.3-4.89,.61-7.38,.94-1.02,.14-2.04,.27-3.05,.42-3.07,.43-5.77,.86-8.26,1.3-1.83,.33-3.65,.68-5.44,1.07-1.91,.41-3.65,.84-5.31,1.29-16.28,4.39-25.57,11.77-28.38,22.56-.26,.99-.49,1.97-.71,2.93l-.14,.7c-.15,.74-.31,1.47-.44,2.21l-.1,.63c-.13,.74-.24,1.46-.35,2.19l-.06,.51c-.1,.76-.19,1.52-.26,2.27l-.03,.36c-.07,.79-.13,1.58-.17,2.35v.23c-.05,.83-.07,1.64-.07,2.54,0,.65,0,1.29,.02,1.85,.09,5.76,1.06,11.2,2.88,16.18,1.58,5.81,5.37,12.58,11.25,20.13l.72,.92,1,.36c.41,.5,.82,1,1.24,1.5l.37,.45c1.53,1.81,3.18,3.67,5.01,5.65,9.29,10.03,19.77,19.19,27,25.18,.39,.32,.77,.64,1.14,.94-14.21,16.78-33.23,47.11-20.56,78.88l.86,2.14c.31,.86,.61,1.72,.9,2.63l.32,1.07c.28,.92,.55,1.85,.81,2.81l.32,1.2c.27,1.05,.54,2.12,.79,3.22l.21,.9c.99,4.42,1.84,9.25,2.52,14.34l4-.54-3.97,.79c.45,3.39,.83,6.9,1.13,10.44l.1,1.15h0c2.68,33.38-1.93,60.68-7.84,64.58l-.41,.24c-.06,.03-.11,.05-.15,.07l1.16,7.96c.12,0,1.27-.09,3.2-.42l.39-.07-.12-.81,.18-.11,.19,.88,1.12-.22c.34-.07,.7-.15,1.24-.28,.39-.09,.79-.2,1.08-.27l.3-.08c.43-.12,.87-.24,1.48-.42,.46-.14,.93-.29,1.32-.42l.25-.08c.5-.17,1.01-.35,1.39-.49l.27-.09c.53-.2,1.07-.41,1.7-.67,.57-.24,1.16-.49,1.75-.76l.21-.1c4.07-1.89,7.79-4.29,11.07-7.13l.26-.22c.51-.45,1.02-.92,1.54-1.42l.26-.26c.34-.33,.68-.67,1.02-1.03-.43,6.87-2.32,12.39-5.68,16.73l-16.65,21.46,22.17-15.69c.49-.35,48.59-35.06,33.96-82.06-9.47-30.43-16.89-73.07-17.99-102.37,12.6,4.55,31.54,8.51,57.02,6.23,9.83-.89,17.41,.7,27.95,3.93,1.77,.54,3.58,1.12,5.46,1.71,4.28,1.36,9.13,2.89,14.62,4.4,2.25,.62,4.61,1.23,7.1,1.83l.36,.08c2.48,.59,5.06,1.16,7.7,1.68l.53,.1c1.29,.25,2.61,.5,3.96,.75l.27,.05c1.36,.24,2.77,.47,4.21,.7l.68,.11c1.47,.23,2.97,.45,4.51,.66l.5,.07c1.42,.19,2.88,.37,4.38,.54l.78,.09c1.6,.18,3.25,.35,4.92,.51l.88,.08c1.54,.14,3.11,.27,4.74,.4l.75,.06c1.77,.13,3.58,.24,5.44,.35l1.19,.06c1.74,.09,3.52,.17,5.37,.24l.56,.02c1.96,.07,3.98,.12,6.03,.16l1.45,.03c4.19,.06,8.66,.07,12.86,0l1.86-.05c1.46-.03,2.91-.07,4.32-.12l1.98-.08c1.41-.06,2.8-.13,4.14-.2l1.62-.09c3.6-.22,7.21-.5,10.72-.85l1.27-.13c1.28-.13,2.54-.27,3.77-.42l1.33-.16c1.3-.16,2.57-.33,3.83-.51l.83-.11c2.99-.44,6-.94,8.92-1.49l.49-.1c1.26-.24,2.5-.49,3.72-.74l.49-.1c10.94-2.32,19.52-5.04,27.09-7.44,7.09-2.25,13.22-4.2,19.41-5.19,5.59-.9,10.81-.95,16.43-.16,15.14,2.11,30.11,2.16,44.51,.17l.27-.04c3.91-.55,7.77-1.24,11.58-2.09,3.44-.77,6.84-1.66,10.13-2.66l.14-.05c2.87-.87,5.69-1.84,8.39-2.86l.37-.14c2.39-.92,4.7-1.88,6.92-2.89,1.87-.86,3.67-1.74,5.27-2.58l.2-.1c1.48-.78,2.69-1.47,3.74-2.1,.91-.55,1.53-.95,1.95-1.23l11.35-9.15,12.93-11.53c.62-.59,1.25-1.18,1.88-1.79l6.02-5.98c.64-.66,1.28-1.33,1.93-2.01l.84-.9c.64-.69,1.27-1.37,1.9-2.06,8.22-9.08,13.85-17.22,16.73-24.19,3.33-6.35,4.99-13.36,4.93-20.81v-.23Zm-12.16,17.43l-.17,.37c-2.5,6.14-7.65,13.55-15.31,22.01-.6,.66-1.21,1.32-1.81,1.97l-.82,.87c-.61,.65-1.23,1.29-1.85,1.93l-5.83,5.79c-.61,.58-1.21,1.16-1.82,1.73l-7.44,6.78-13.24,11.08,2.45,3.21-2.65-3.05-2.44,1.88c-.27,.18-.79,.51-1.66,1.03-.83,.49-1.91,1.11-3.35,1.88-1.54,.81-3.2,1.63-4.76,2.34l-.23,.1c-2.02,.92-4.18,1.82-6.43,2.68l-.16,.06c-2.6,.99-5.33,1.92-8.12,2.77l-.13,.04c-3.06,.92-6.24,1.76-9.56,2.5-3.5,.78-7.15,1.44-10.84,1.96l.56,4-.81-3.96c-13.66,1.89-27.89,1.84-42.29-.17-6.43-.9-12.41-.84-18.82,.19-6.79,1.08-13.18,3.11-20.58,5.46-7.39,2.35-15.77,5-26.32,7.24l-.47,.1c-1.16,.24-2.35,.48-3.55,.71l-.48,.09c-2.83,.53-5.72,1.01-8.61,1.43l-.81,.11c-1.2,.17-2.43,.34-3.68,.49l-1.29,.16c-1.19,.14-2.41,.28-3.65,.41l-1.24,.13c-3.4,.34-6.9,.61-10.4,.83l-1.57,.08c-1.33,.07-2.68,.14-4.04,.2l-1.94,.07c-1.38,.05-2.78,.09-4.21,.12l-1.83,.04c-4.11,.07-8.49,.06-12.59,0l-1.42-.03c-2.01-.04-3.99-.09-6.07-.16l-.41-.02c-1.78-.07-3.52-.15-5.21-.23l-1.17-.06c-1.81-.1-3.58-.21-5.29-.34l-.76-.06c-1.56-.12-3.09-.25-4.7-.4l-.74-.07c-1.63-.15-3.23-.32-4.78-.49l-.76-.09c-1.45-.17-2.86-.35-4.22-.52l-.48-.06c-1.49-.2-2.94-.42-4.37-.64l-.67-.1c-1.33-.21-2.64-.43-3.91-.65l-.27-.05c-1.35-.24-2.67-.49-3.98-.75l-.52-.1c-2.52-.5-5-1.05-7.39-1.61l-.34-.08c-2.4-.58-4.68-1.16-6.95-1.79-5.24-1.44-9.8-2.88-14.22-4.28-1.9-.6-3.74-1.18-5.53-1.73-9.36-2.87-18.78-5.35-31.04-4.26-28.04,2.52-47.48-2.91-58.85-7.89l-5.7-2.5,.04,6.23c.2,29.89,8.15,77.51,18.5,110.75,8.25,26.52-6.6,48.94-18.44,61.7,.72-4.99,.69-10.56-.06-16.76l-1.53-12.56-6.03,11.13-.32,.56c-.25,.45-.5,.88-.77,1.31l-.43,.68c-.28,.43-.56,.85-.93,1.37l-.34,.47c-.31,.42-.62,.83-.94,1.22l-.4,.49c-.34,.42-.69,.82-1.05,1.21l-.33,.37c-.39,.42-.79,.83-1.19,1.22l-.23,.23c-.48,.46-.96,.9-1.32,1.22l-.38,.32c-2.7,2.3-5.76,4.24-9.19,5.82h0c-.47,.21-.93,.42-1.42,.62l-.16,.07c-.1,.04-.2,.08-.29,.12,6.5-16.24,6.22-46.75,4.77-63.83l-.07-.77v-.02c-.31-3.4-.68-6.78-1.12-10.05l-.03-.27c-.71-5.32-1.6-10.38-2.64-15.03l-.22-.96c-.27-1.17-.55-2.31-.84-3.43l-.34-1.29c-.28-1.04-.58-2.05-.88-3.04l-.36-1.17c-.32-1-.65-1.95-1.05-3.05l-.91-2.26c-11.78-29.54,8.39-58.57,21.46-73.25l2.3-2.58-2.2-2.67c-.37-.45-.74-.96-1.09-1.5l-.35-.54-.5-.41c-.78-.63-1.65-1.35-2.46-2.01l-.17-.14c-6.96-5.76-17.15-14.67-26.12-24.35l-.14-.16c-1.63-1.76-3.19-3.52-4.69-5.29l-.32-.39c-.63-.75-1.25-1.5-1.85-2.26l-.72-.91-.92-.32c-4.85-6.37-7.92-11.92-9.14-16.49l-.12-.37c-1.55-4.16-2.37-8.75-2.44-13.73-.02-.54-.02-1.09-.02-1.73,0-.69,.02-1.39,.05-2.06v-.23c.04-.67,.09-1.35,.15-2.05l.02-.32c.06-.65,.14-1.31,.23-2l.05-.44c.09-.63,.19-1.28,.31-1.94l.09-.57c.12-.64,.25-1.3,.39-1.95l.13-.63c.19-.87,.4-1.74,.63-2.64,2.05-7.85,9.25-13.19,22.67-16.8,1.61-.43,3.25-.83,4.92-1.19,1.69-.37,3.41-.7,5.15-1.01,2.39-.43,5-.84,7.97-1.26,1-.14,1.99-.28,2.98-.41,2.46-.33,4.91-.63,7.31-.93,2.66-.33,5.26-.65,7.86-1.01l.55-.08c2.42-.33,4.75-.68,6.94-1.07,4-.71,8.06-1.94,12.06-3.66,1.06-.46,2.11-.96,3.16-1.48,1.02-.51,2.04-1.05,3.05-1.62,6.46-3.66,12.7-8.57,18.54-14.61,.7-.72,1.39-1.46,2.08-2.21,10.46-11.47,19.46-26.55,26.02-43.6,13.03-33.89,54.62-61.46,72.03-64.58,.41-.07,.8-.13,1.17-.18l47.66,54.7,47.65-54.7c.9,.11,1.89,.3,2.96,.56,1.28,.32,2.66,.74,4.1,1.26,2.22,.8,4.63,1.83,7.17,3.06,1.7,.83,3.48,1.77,5.26,2.77,1.82,1.03,3.68,2.14,5.53,3.32,4.85,3.08,9.66,6.57,14.3,10.39,16.22,13.33,28.25,28.75,33.89,43.41,2.22,5.77,4.73,11.36,7.46,16.6,1.07,2.05,2.2,4.1,3.35,6.08,2.28,3.91,4.73,7.67,7.27,11.16,1.27,1.74,2.58,3.45,3.89,5.06,1.32,1.63,2.68,3.21,4.04,4.7,2.74,3,5.6,5.78,8.5,8.27,1.45,1.24,2.95,2.43,4.43,3.54,1.49,1.11,3.02,2.16,4.54,3.13,7,4.46,14.21,7.37,21.41,8.64,4.56,.8,9.54,1.44,14.81,2.12,4.33,.56,8.81,1.14,13.23,1.83,.88,.14,1.75,.28,2.62,.43,1.73,.29,3.46,.61,5.16,.95,1.69,.34,3.35,.71,4.99,1.12,.81,.2,1.61,.41,2.41,.63,.98,.27,1.94,.56,2.89,.86,11.4,3.6,18.05,8.84,20.33,16.01,.28,.88,.53,1.75,.76,2.6l.2,.79c.15,.59,.3,1.17,.42,1.73l.18,.88c.11,.54,.22,1.08,.31,1.62l.14,.83c.08,.54,.16,1.07,.23,1.61l.09,.72c.06,.57,.11,1.14,.15,1.69l.04,.56c.04,.68,.06,1.35,.07,1.96v.21c.05,6.2-1.32,11.97-4.08,17.17Z"/><g><g><g><path class="cls-8" d="M62.96,245.63s-40.86,52.03-28.55,85.02c12.31,33,11.37,105.62-3.84,109.13,0,0,34.12-2.05,39.51-39.73,5.39-37.69,6.07-92.69,6.07-92.69l-13.19-61.73Z"/><path class="cls-20" d="M65.28,256.47c-3.29-.53-6.44-.86-9.47-.74-11.11,16.74-30.38,50.89-21.4,74.92,3.81,10.21,6.35,24.24,7.58,38.81,3.75,6.63,7.75,15.51,9.29,25.18,.29,1.43,.47,3.08,.55,4.97,.41,6.49-.42,13.2-3.27,19.74-.01,.05-.04,.07-.06,.12-3.54,9.02-9.67,16.34-17.47,20.28,3.98-.38,34.03-4.51,39.06-39.69,5.39-37.69,6.07-92.69,6.07-92.69l-10.87-50.89Z"/></g><path class="cls-1" d="M66.69,241.19s-50.88,42.93-32.87,88.12c18.02,45.2,43.48,94.89,24.62,119.19,0,0,46.37-32.82,32.44-77.57-13.93-44.77-23.79-117.44-15-133.66l-9.19,3.91Z"/><path class="cls-9" d="M69.65,211s-21.53,2.19-19.17,25.8c2.36,23.62,21.54,24.05,25.21,16.39,3.68-7.68-.13-19.33-3.92-25.94-3.79-6.62-2.12-16.25-2.12-16.25Z"/></g><path class="cls-6" d="M464.58,229.98s71.37-11.6,53.76-67.11c-7.13-22.47-45.68-22.49-69.58-26.71-23.9-4.22-47.8-28.11-61.85-64.66-14.05-36.54-61.14-67.46-78.72-67.46l-45.91,52.71L216.37,4.04c-17.57,0-64.65,30.93-78.71,67.46-14.06,36.55-37.95,60.44-61.85,64.66-23.89,4.21-63.62,3.89-69.57,26.71-15.28,58.59,53.76,67.11,53.76,67.11,0,0,25.28,18.3,74.9,13.86,31.15-2.79,71.56,11.09,121.17,11.09,46.63,0,86.98-14.9,119.18-10.42,56.64,7.88,89.32-14.53,89.32-14.53Z"/><g class="cls-3"><path class="cls-12" d="M6.24,171.95c5.95-22.81,45.68-22.49,69.57-26.71,23.9-4.22,47.79-28.11,61.85-64.66,14.05-36.54,61.14-67.46,78.71-67.46l45.92,52.71,45.91-52.71c17.57,0,64.67,30.93,78.72,67.46,14.05,36.55,37.95,60.44,61.85,64.66,23.9,4.21,62.44,4.24,69.58,26.71,1.36,4.29,2.19,8.32,2.56,12.11,.65-6.23-.05-13.26-2.56-21.19-7.13-22.47-45.68-22.49-69.58-26.71-23.9-4.22-47.8-28.11-61.85-64.66-14.05-36.54-61.14-67.46-78.72-67.46l-45.91,52.71L216.37,4.04c-17.57,0-64.65,30.93-78.71,67.46-14.06,36.55-37.95,60.44-61.85,64.66-23.89,4.21-63.62,3.89-69.57,26.71-2,7.67-2.55,14.48-2,20.53,.3-3.59,.94-7.39,2-11.45Z"/></g><path class="cls-13" d="M464.58,254.22s57.98-43.92,53.76-67.11c-4.21-23.19-45.68-22.49-69.58-26.71-23.9-4.22-47.8-28.11-61.85-64.65-14.05-36.55-61.14-67.47-78.72-67.47l-45.91,75.9L216.37,28.28c-17.57,0-64.65,30.92-78.71,67.47-14.06,36.55-37.95,60.44-61.85,64.65-23.89,4.22-65.36,3.52-69.57,26.71-4.22,23.19,53.76,67.11,53.76,67.11,0,0,23.77,19.8,73.4,15.35,31.15-2.79,42.8,18.64,121.17,18.64s86.98-22.45,119.18-17.96c56.64,7.88,90.83-16.04,90.83-16.04Z"/><g class="cls-14"><path class="cls-7" d="M316.04,196.52c-4.22-16.06-10.85-8.59-5.61-30.52,5.24-21.93,5.28-37.45-31.08-50.38-1.9-.67-3.75-1.22-5.56-1.69-3.64-1.14-7.64-1.71-11.94-1.67-4.3-.06-8.3,.5-11.95,1.62-1.82,.46-3.67,.99-5.57,1.66-36.42,12.76-36.45,28.28-31.3,50.24,5.15,21.95-1.45,14.45-5.74,30.49-3.86,14.43,15.63,18.75,24.74,19.67-2.86,5.44-6.02,12.29-5.49,15.16,.93,5.09,3.3,5.63,9.91,5.64,6.62,.01,13.5-14.95,13.5-14.95,0,0-2.38,10.16-2.86,13.37-.48,3.21,10.38,6.18,15.35,6.19,4.96,.01,5.68-4.54,5.69-9.35,.01-4.82,5.46-9.35,5.46-9.35,0,0,.69,7.49,3.52,13.12,2.82,5.63,15.12-.5,18.91-1.83,2.55-.9-2.49-11.15-6.06-17.75,8.41-.59,30.07-4.51,26.09-19.67Zm-64.38-19.73c-.73,9.95-3.58,16.37-15.63,16.34-12.05-.03-23.14-9.42-7.96-32.93,5.56-8.61,24.32,6.63,23.59,16.59Zm9.82,28.71c-10.84-1.36-8.52-3.55-6.14-13.13,2.86-11.5,9.23-6.13,12.05,1.36,2.82,7.5,4.93,13.12-5.91,11.76Zm10.28-28.66c-.69-9.96,18.14-25.12,23.67-16.48,15.07,23.58,3.95,32.92-8.1,32.9-12.05-.03-14.87-6.46-15.56-16.41Z"/><path class="cls-7" d="M372.53,124.57c-4.51-12.98-12.09-10.18-13.05-9.76,.47-.24,2.47-1.59,4.3-7.53,2.09-6.8-2.97-17.54-11.48-18.08-8.52-.54-4.91,10.2-6.3,14.64-1.4,4.45-15.56,13.47-15.56,13.47l-13.2,8.11c4,8.21,3.38,17.4,1.16,27.96l20.7-12.71c3.52-.37,10.43-.83,17.68,.1,10.4,1.33,20.57-2.31,15.75-16.19Z"/><path class="cls-7" d="M175.22,136.53l31.49,19.53c-2.47-10.94-3.6-20.45-.25-28.9l-19.9-12.34c2.57-6.05,5.66-16.78-2.07-21.55-11.08-6.83-19.18-1.87-22.66,4.14-3.48,6.01,5.5,19.64,5.5,19.64,0,0-19.18-1.09-16.21,15.93,2.2,12.59,14.16,15.02,24.1,3.56Z"/><path class="cls-7" d="M352.68,222.38c-4.28,.26-7.76-1.25-9.53-2.23l-1.27-.79h0l-18.11-11.23c-2.44,8.83-14.55,12.69-23.47,14.2l29.15,18.08s5.49,6.79,8.13,13.47c2.64,6.68,11.42,9.58,15.83,.04,4.41-9.54-1.35-15.18-1.35-15.18l4.51-.51c4.51-.51,15.5-5.72,12.05-14.63-3.45-8.91-9.7-1.59-15.94-1.21Z"/><path class="cls-7" d="M200.09,205.56l-21.34,13.1s-9.1,5.27-16.03,5.26c-6.93-.02-13.87,3.89-10.2,14.11,3.68,10.21,12.57,4.22,12.57,4.22,0,0-5.22,16.74,6.34,15.72,11.56-1.02,11.73-11.25,17.68-16.98h0l31.65-19.43c-9.18-2.05-19.98-6.6-20.66-15.99Z"/></g><g class="cls-18"><path class="cls-16" d="M41.27,303.62s-2.69,20.91,7.4,44.1c10.09,23.18,28.59,61.2,25.57,70.95-3.03,9.76,22.2-11.1,10.09-48.11-12.11-37.01-43.06-66.95-43.06-66.95Z"/></g><g class="cls-4"><path class="cls-7" d="M106.13,269.62c-18.87-27.83-40.62-78.41-35.47-108.41-12.84,1.81-29.03,2.91-42.02,6.75-4.34,6.54-7.76,13.97-9.38,21.93-1.53,7.55-2.07,15.58-1.92,23.69,15.83,20.3,42.66,40.64,42.66,40.64,0,0,15.04,12.5,46.13,15.4Z"/><path class="cls-7" d="M498.97,189.89c-1.78-8.74-5.71-16.85-10.66-23.83-13.28-2.78-28.35-3.68-39.55-5.66-.47-.08-.94-.19-1.41-.29,6,30.41-16.98,83.24-36.31,111.03,33.99-3.27,53.54-16.92,53.54-16.92,0,0,20.28-15.36,35.97-32.71,.74-10.75,.46-21.62-1.58-31.62Z"/><path class="cls-7" d="M384.52,142.12c2.17-20.5,1.16-38.81-1.31-54.47-17.25-32.9-58.75-59.37-75.01-59.37l-45.91,75.9L216.37,28.28c-17.57,0-64.65,30.92-78.71,67.47-1.47,3.83-3.06,7.51-4.74,11.05-.67,10.87-.55,22.67,.79,35.31,5.37,50.83,22.36,102.71,29.18,131.56,18.2,5.58,40.97,14.55,91.68,14.55,60.33,0,79.77-14.31,101.56-17.79,7.26-29.38,23.22-79.34,28.39-128.32Z"/></g></g></g></g></g></g></svg>