<?xml version="1.0" encoding="UTF-8"?><svg xmlns="http://www.w3.org/2000/svg" xmlns:xlink="http://www.w3.org/1999/xlink" viewBox="0 0 487.16 402.6"><defs><style>.cls-1{mask:url(#mask-15);}.cls-2{mask:url(#mask-14);}.cls-3{mask:url(#mask-13);}.cls-4{mask:url(#mask-12);}.cls-5{mask:url(#mask-11);}.cls-6{mask:url(#mask-10);}.cls-7{filter:url(#luminosity-noclip-6);}.cls-8{filter:url(#luminosity-noclip-8);}.cls-9{filter:url(#luminosity-noclip-4);}.cls-10{mask:url(#mask);}.cls-11{filter:url(#luminosity-noclip-2);}.cls-12,.cls-13,.cls-14{fill:#fff;}.cls-15{fill:#998775;}.cls-16{fill:#ad0000;}.cls-17{fill:#3d1900;}.cls-18{fill:#720909;}.cls-19{fill:#512303;}.cls-20{filter:url(#luminosity-noclip-16);}.cls-21{filter:url(#luminosity-noclip-14);}.cls-22{filter:url(#luminosity-noclip-10);}.cls-23{filter:url(#luminosity-noclip-12);}.cls-24{fill:url(#linear-gradient-7);}.cls-24,.cls-25,.cls-26,.cls-27,.cls-28,.cls-29,.cls-30,.cls-31{mix-blend-mode:multiply;}.cls-25{fill:url(#linear-gradient-5);}.cls-26{fill:url(#linear-gradient-9);}.cls-27{fill:url(#linear-gradient-3);}.cls-13,.cls-14{mix-blend-mode:overlay;}.cls-32{fill:url(#linear-gradient-8);}.cls-33{fill:url(#linear-gradient-4);}.cls-34{fill:url(#linear-gradient-2);}.cls-35{fill:url(#linear-gradient-6);}.cls-36,.cls-37{opacity:.91;}.cls-28{fill:url(#linear-gradient);}.cls-38{fill:url(#radial-gradient);}.cls-37{fill:url(#linear-gradient-14);}.cls-39{fill:url(#linear-gradient-16);}.cls-40{fill:url(#linear-gradient-12);}.cls-41{fill:url(#linear-gradient-10);}.cls-42{isolation:isolate;}.cls-29{fill:url(#linear-gradient-15);}.cls-30{fill:url(#linear-gradient-13);}.cls-31{fill:url(#linear-gradient-11);}.cls-14{opacity:.38;}.cls-43{mask:url(#mask-3);}.cls-44{mask:url(#mask-2);}.cls-45{mask:url(#mask-5);}.cls-46{mask:url(#mask-4);}.cls-47{mask:url(#mask-1);}.cls-48{mask:url(#mask-7);}.cls-49{mask:url(#mask-6);}.cls-50{mask:url(#mask-8);}.cls-51{mask:url(#mask-9);}.cls-52{fill:#7f6c59;opacity:.26;}</style><radialGradient id="radial-gradient" cx="188.16" cy="209.94" fx="188.16" fy="209.94" r="161.84" gradientTransform="matrix(1, 0, 0, 1, 0, 0)" gradientUnits="userSpaceOnUse"><stop offset="0" stop-color="#fff"/><stop offset="1" stop-color="#c8c8c8"/></radialGradient><filter id="luminosity-noclip-2" x="71.88" y="309.54" width="30.61" height="62.8" color-interpolation-filters="sRGB" filterUnits="userSpaceOnUse"><feFlood flood-color="#fff" result="bg"/><feBlend in="SourceGraphic" in2="bg"/></filter><filter id="luminosity-noclip-3" x="71.88" y="-8898.1" width="30.61" height="32766" color-interpolation-filters="sRGB" filterUnits="userSpaceOnUse"><feFlood flood-color="#fff" result="bg"/><feBlend in="SourceGraphic" in2="bg"/></filter><mask id="mask-1" x="71.88" y="-8898.1" width="30.61" height="32766" maskUnits="userSpaceOnUse"/><linearGradient id="linear-gradient" x1="82.83" y1="417.54" x2="88.06" y2="329.39" gradientTransform="matrix(1, 0, 0, 1, 0, 0)" gradientUnits="userSpaceOnUse"><stop offset=".02" stop-color="#fff"/><stop offset="1" stop-color="#000"/></linearGradient><mask id="mask" x="71.88" y="309.54" width="30.61" height="62.8" maskUnits="userSpaceOnUse"><g class="cls-11"><g class="cls-47"><path class="cls-28" d="M85.35,309.54s-14.8,24.76-13.37,39.16c1.42,14.4,22.67,23.64,22.67,23.64,0,0,11.92-23.2,6.37-43.03-2.12-7.58-6.8-14.67-15.67-19.77Z"/></g></g></mask><linearGradient id="linear-gradient-2" x1="82.83" y1="417.54" x2="88.06" y2="329.39" gradientTransform="matrix(1, 0, 0, 1, 0, 0)" gradientUnits="userSpaceOnUse"><stop offset=".02" stop-color="#fff"/><stop offset="1" stop-color="#fff"/></linearGradient><filter id="luminosity-noclip-4" x="123.03" y="340.94" width="61.17" height="51.98" color-interpolation-filters="sRGB" filterUnits="userSpaceOnUse"><feFlood flood-color="#fff" result="bg"/><feBlend in="SourceGraphic" in2="bg"/></filter><filter id="luminosity-noclip-5" x="123.03" y="-8898.1" width="61.17" height="32766" color-interpolation-filters="sRGB" filterUnits="userSpaceOnUse"><feFlood flood-color="#fff" result="bg"/><feBlend in="SourceGraphic" in2="bg"/></filter><mask id="mask-3" x="123.03" y="-8898.1" width="61.17" height="32766" maskUnits="userSpaceOnUse"/><linearGradient id="linear-gradient-3" x1="150.48" y1="421.56" x2="155.71" y2="333.4" xlink:href="#linear-gradient"/><mask id="mask-2" x="123.03" y="340.94" width="61.17" height="51.98" maskUnits="userSpaceOnUse"><g class="cls-9"><g class="cls-43"><path class="cls-27" d="M133.81,340.94s-13.3,34.36-10.34,38.79c2.96,4.43,54.62,18.47,54.65,11.08,.03-7.39,6.25-23.64,6.09-31.77-.16-8.13-38.58-15.52-50.4-18.1Z"/></g></g></mask><linearGradient id="linear-gradient-4" x1="150.48" y1="421.56" x2="155.71" y2="333.4" xlink:href="#linear-gradient-2"/><filter id="luminosity-noclip-6" x="195.53" y="346.15" width="53.08" height="44.72" color-interpolation-filters="sRGB" filterUnits="userSpaceOnUse"><feFlood flood-color="#fff" result="bg"/><feBlend in="SourceGraphic" in2="bg"/></filter><filter id="luminosity-noclip-7" x="195.53" y="-8898.1" width="53.08" height="32766" color-interpolation-filters="sRGB" filterUnits="userSpaceOnUse"><feFlood flood-color="#fff" result="bg"/><feBlend in="SourceGraphic" in2="bg"/></filter><mask id="mask-5" x="195.53" y="-8898.1" width="53.08" height="32766" maskUnits="userSpaceOnUse"/><linearGradient id="linear-gradient-5" x1="218.33" y1="425.58" x2="223.56" y2="337.43" xlink:href="#linear-gradient"/><mask id="mask-4" x="195.53" y="346.15" width="53.08" height="44.72" maskUnits="userSpaceOnUse"><g class="cls-7"><g class="cls-45"><path class="cls-25" d="M195.53,349.44s1.08,30.29,9.21,35.46c8.13,5.17,40.64,10.34,42.85,0,2.22-10.34,.74-28.08-3.69-35.46-4.43-7.39-48.37,0-48.37,0Z"/></g></g></mask><linearGradient id="linear-gradient-6" x1="218.33" y1="425.58" x2="223.56" y2="337.43" xlink:href="#linear-gradient-2"/><filter id="luminosity-noclip-8" x="253.45" y="314.54" width="48.54" height="56" color-interpolation-filters="sRGB" filterUnits="userSpaceOnUse"><feFlood flood-color="#fff" result="bg"/><feBlend in="SourceGraphic" in2="bg"/></filter><filter id="luminosity-noclip-9" x="253.45" y="-8898.1" width="48.54" height="32766" color-interpolation-filters="sRGB" filterUnits="userSpaceOnUse"><feFlood flood-color="#fff" result="bg"/><feBlend in="SourceGraphic" in2="bg"/></filter><mask id="mask-7" x="253.45" y="-8898.1" width="48.54" height="32766" maskUnits="userSpaceOnUse"/><linearGradient id="linear-gradient-7" x1="272.77" y1="428.81" x2="278" y2="340.66" xlink:href="#linear-gradient"/><mask id="mask-6" x="253.45" y="314.54" width="48.54" height="56" maskUnits="userSpaceOnUse"><g class="cls-8"><g class="cls-48"><path class="cls-24" d="M253.5,346.15s16.25,21.39,19.58,23.97c3.32,2.59,19.21-7.39,26.23-15.89,7.02-8.5-1.48-32.51-5.54-38.79-4.06-6.28-41.83,21.65-40.27,30.7Z"/></g></g></mask><linearGradient id="linear-gradient-8" x1="272.77" y1="428.81" x2="278" y2="340.66" xlink:href="#linear-gradient-2"/><filter id="luminosity-noclip-10" x="301.99" y="285.14" width="43.92" height="57.52" color-interpolation-filters="sRGB" filterUnits="userSpaceOnUse"><feFlood flood-color="#fff" result="bg"/><feBlend in="SourceGraphic" in2="bg"/></filter><filter id="luminosity-noclip-11" x="301.99" y="-8898.1" width="43.92" height="32766" color-interpolation-filters="sRGB" filterUnits="userSpaceOnUse"><feFlood flood-color="#fff" result="bg"/><feBlend in="SourceGraphic" in2="bg"/></filter><mask id="mask-9" x="301.99" y="-8898.1" width="43.92" height="32766" maskUnits="userSpaceOnUse"/><linearGradient id="linear-gradient-9" x1="317.21" y1="431.45" x2="322.44" y2="343.29" xlink:href="#linear-gradient"/><mask id="mask-8" x="301.99" y="285.14" width="43.92" height="57.52" maskUnits="userSpaceOnUse"><g class="cls-22"><g class="cls-51"><path class="cls-26" d="M345.85,326.9c-1.48-5.54-13.51-42.85-21.9-41.74-8.39,1.11-21.96,22.9-21.96,22.9,0,0,14.68,33.12,17.26,34.48,2.59,1.36,28.08-10.1,26.6-15.64Z"/></g></g></mask><linearGradient id="linear-gradient-10" x1="317.21" y1="431.45" x2="322.44" y2="343.29" xlink:href="#linear-gradient-2"/><filter id="luminosity-noclip-12" x="29.6" y="287.38" width="42.34" height="55.24" color-interpolation-filters="sRGB" filterUnits="userSpaceOnUse"><feFlood flood-color="#fff" result="bg"/><feBlend in="SourceGraphic" in2="bg"/></filter><filter id="luminosity-noclip-13" x="29.6" y="-8898.1" width="42.34" height="32766" color-interpolation-filters="sRGB" filterUnits="userSpaceOnUse"><feFlood flood-color="#fff" result="bg"/><feBlend in="SourceGraphic" in2="bg"/></filter><mask id="mask-11" x="29.6" y="-8898.1" width="42.34" height="32766" maskUnits="userSpaceOnUse"/><linearGradient id="linear-gradient-11" x1="44.85" y1="415.29" x2="50.08" y2="327.14" xlink:href="#linear-gradient"/><mask id="mask-10" x="29.6" y="287.38" width="42.34" height="55.24" maskUnits="userSpaceOnUse"><g class="cls-23"><g class="cls-5"><path class="cls-31" d="M50.32,287.38s-19.95,30.66-20.69,34.36c-.74,3.69,12.19,19.08,16.25,20.81,4.06,1.72,24.66-26.72,26-33,1.34-6.28-21.56-22.17-21.56-22.17Z"/></g></g></mask><linearGradient id="linear-gradient-12" x1="44.85" y1="415.29" x2="50.08" y2="327.14" xlink:href="#linear-gradient-2"/><filter id="luminosity-noclip-14" x="18.93" y="126.83" width="100.53" height="155.88" color-interpolation-filters="sRGB" filterUnits="userSpaceOnUse"><feFlood flood-color="#fff" result="bg"/><feBlend in="SourceGraphic" in2="bg"/></filter><filter id="luminosity-noclip-15" x="18.93" y="-8898.1" width="100.53" height="32766" color-interpolation-filters="sRGB" filterUnits="userSpaceOnUse"><feFlood flood-color="#fff" result="bg"/><feBlend in="SourceGraphic" in2="bg"/></filter><mask id="mask-13" x="18.93" y="-8898.1" width="100.53" height="32766" maskUnits="userSpaceOnUse"/><linearGradient id="linear-gradient-13" x1="18.93" y1="204.77" x2="119.46" y2="204.77" xlink:href="#linear-gradient"/><mask id="mask-12" x="18.93" y="126.83" width="100.53" height="155.88" maskUnits="userSpaceOnUse"><g class="cls-21"><g class="cls-3"><path class="cls-30" d="M119.46,127.04s-37.2,21.26-40.01,72.81c-2.8,51.55,32.5,60.51,35.3,65,2.8,4.48-39.44,25.21-63.99,15.13-24.54-10.09-40.04-29.74-27.25-75.1,12.79-45.36,44.62-81.17,95.94-77.83Z"/></g></g></mask><linearGradient id="linear-gradient-14" x1="18.93" y1="204.77" x2="119.46" y2="204.77" xlink:href="#linear-gradient-2"/><filter id="luminosity-noclip-16" x="240.44" y="177.28" width="110.84" height="107.48" color-interpolation-filters="sRGB" filterUnits="userSpaceOnUse"><feFlood flood-color="#fff" result="bg"/><feBlend in="SourceGraphic" in2="bg"/></filter><filter id="luminosity-noclip-17" x="240.44" y="-8898.1" width="110.84" height="32766" color-interpolation-filters="sRGB" filterUnits="userSpaceOnUse"><feFlood flood-color="#fff" result="bg"/><feBlend in="SourceGraphic" in2="bg"/></filter><mask id="mask-15" x="240.44" y="-8898.1" width="110.84" height="32766" maskUnits="userSpaceOnUse"/><linearGradient id="linear-gradient-15" x1="276.08" y1="191.21" x2="305.78" y2="278.62" xlink:href="#linear-gradient"/><mask id="mask-14" x="240.44" y="177.28" width="110.84" height="107.48" maskUnits="userSpaceOnUse"><g class="cls-20"><g class="cls-1"><path class="cls-29" d="M308.73,186.41s19.38,35.16,6.84,49.24c-12.55,14.08-46.71,22.78-64.09,21.51-17.38-1.27-20.18,36.7,36.41,25.56,56.59-11.14,65.17-17.78,63.12-49.8-2.05-32.02-47.77-74.52-42.28-46.51Z"/></g></g></mask><linearGradient id="linear-gradient-16" x1="276.08" y1="191.21" x2="305.78" y2="278.62" xlink:href="#linear-gradient-2"/></defs><g class="cls-42"><g id="Layer_2"><g id="Layer_5"><g><g><g><ellipse class="cls-19" cx="187" cy="193.68" rx="128.56" ry="115.87"/><ellipse class="cls-17" cx="150.49" cy="225.39" rx="52.8" ry="62.99"/><ellipse class="cls-17" cx="286.14" cy="225.39" rx="52.81" ry="62.99"/><path class="cls-15" d="M365.74,240.39c2.06-37.47-20.8-179.83-170.36-191.76-3.04-.24-6.21-.38-9.92-.43-1.64-.04-3.39-.04-5.03,0-3.75,.05-6.91,.19-9.96,.43C20.92,60.56-1.94,202.92,.12,240.39c2.22,40.3,19.84,45.54,23.32,46.19l12.89,3.13c-7.4,11.75-17.9,29.43-18.39,35.83-.26,3.38,1.07,8.54,13.78,18.46,5.76,4.5,19.8,14.75,25.72,12.77,1.19-.4,2.2-.73,4.03-3.4,.43,4.62,2.54,9.69,8.56,14.2,3.09,2.32,5.66,4.61,7.93,6.63,6.02,5.37,11.21,10,20.37,10,4.76,0,9.65-3.46,14.12-8.25-.54,3.35-.89,6.11-.89,7.63,0,13.43,38.12,18.55,52.01,18.9,2.61,.07,4.95,.1,7.07,.1,10.58,0,15.38-.96,18.33-4.31,2.99-3.4,2.33-7.7,1.89-10.55-.04-.23-.16-1.5,.43-5.68,.83,4.62,.72,5.99,.69,6.23-.54,3.51,.19,6.43,2.17,8.68,4.36,4.95,12.4,4.75,31.82,4.26,23.36-.58,37.31-7.18,37.31-17.64,0-1.52-.35-4.28-.89-7.63,4.47,4.78,9.36,8.24,14.12,8.24,9.16,0,14.35-4.64,20.37-10,2.27-2.02,4.84-4.32,7.93-6.63,6.02-4.52,8.13-9.59,8.56-14.2,1.84,2.67,2.84,3,4.04,3.4,5.93,1.98,19.96-8.28,25.72-12.78,12.71-9.92,14.04-15.08,13.78-18.46-.52-6.75-12.19-26.08-19.59-37.73l5.09-1.24c3.49-.64,21.11-5.89,23.32-46.19Zm-164.39,49.79c-.82,1.43-1.49,2.4-2,3.05-2.51-5.01-4.87-19.62-5.92-36.08,11.63,8,18.91,13.8,7.93,33.03Zm90.22-62.34c-10.42,11.83-36.96,14.39-57.8,10.8-4.93-.85-8.58-3.11-11.16-6.91-9.23-13.59-3.05-43.02-.42-55.58,.35-1.65,.65-3.09,.87-4.27,1.44-7.48,6.45-17.25,14.07-21.01,4.67-2.3,9.69-2.05,15.37,.79,.29,.15,29.27,15.02,42.01,56.47,2.51,8.17,1.55,14.62-2.94,19.72Zm-138.79-14.89c-11.55,20.43-28.12,33.36-41.25,32.19-10.03-.9-15.25-9.97-17.85-17.43-6.44-18.45-2.95-44.65,8.7-65.2,8.19-14.45,19.17-23.75,30.92-26.17,3.07-.63,5.92-.95,8.57-.95,7.81,0,13.77,2.76,17.77,8.24,10.21,14,7.2,44.45-6.85,69.31Zm19.65,44.2c-1.05,16.45-3.41,31.07-5.92,36.08-.51-.65-1.19-1.62-2.01-3.05-10.99-19.23-3.7-25.03,7.93-33.03Z"/><path class="cls-38" d="M341.73,281.08s16.73-2.22,18.86-41.01c2.14-38.79-22.25-174.46-165.21-185.86-3.25-.26-6.44-.37-9.59-.42-.8-.02-1.61-.03-2.42-.03-.81,0-1.61,.01-2.42,.03-3.16,.04-6.34,.16-9.59,.42C28.4,65.62,4.02,201.29,6.16,240.08c2.14,38.79,18.86,41.01,18.86,41.01l20.7,5.03s-21.2,32.65-21.75,39.85c-.55,7.2,28.81,26.6,32.14,25.49,3.32-1.11,23.27-48.76,19.95-40.45-3.32,8.31-6.65,23.83-6.65,28.81s-6.65,14.96,4.43,23.27c11.08,8.31,14.96,15.52,24.94,15.52s24.94-28.81,24.94-28.81c0,0-6.1,28.26-6.1,33.8s24.38,12.74,46.55,13.3c22.17,.55,22.72-1.11,21.61-8.31-.74-4.81,2.97-21.49,5.52-32.04,3.04,10.89,7.41,27.82,6.68,32.59-1.11,7.2,6.15,7.05,28.32,6.49,22.17-.55,31.85-6.49,31.85-12.04s-6.1-33.8-6.1-33.8c0,0,14.96,28.81,24.94,28.81s13.85-7.2,24.94-15.52c11.08-8.31,4.43-18.29,4.43-23.27s-3.32-20.5-6.65-28.81c-3.32-8.31,16.62,39.34,19.95,40.45s32.69-18.29,32.14-25.49c-.55-7.2-21.75-39.85-21.75-39.85,0,0,.91-1.21,2.51-2.8l9.19-2.24Zm-252.89-51.53c-12.19-34.91,8.79-91.48,43.78-98.7,45.99-9.48,47.1,46.61,25.49,84.85-21.61,38.23-57.08,48.76-69.27,13.85Zm71.25,63.4c-17.17-30.05,6.01-36.07,18.89-47.23,0,0-1.72,77.28-18.89,47.23Zm46.57,0c-17.17,30.05-18.89-47.23-18.89-47.23,12.88,11.16,36.07,17.17,18.89,47.23Zm26.6-48.8c-32.14-5.54-18.03-58.94-15.26-73.34,2.77-14.41,16.37-34.71,37.42-24.18,0,0,31.2,15.32,44.88,59.85,10.73,34.92-34.91,43.22-67.05,37.68Z"/><g><path class="cls-12" d="M30.79,327.84c.55-7.2,21.75-39.85,21.75-39.85l-7.32-1.78c-1.17,1.81-21.16,32.77-21.69,39.76-.55,7.2,28.81,26.6,32.14,25.49,.19-.06,.44-.3,.74-.65-9.64-5.33-26.03-17.58-25.61-22.97Z"/><path class="cls-12" d="M202.13,298.43c2.71,4.8,6.38,5.09,11.35-3.6,17.17-30.05-6.01-36.07-18.89-47.23,0,0,.03,1.36,.12,3.64,12.34,8.47,25.7,16.89,11.51,41.72-1.47,2.58-2.83,4.35-4.09,5.47Z"/><path class="cls-12" d="M30.17,282.44c-4.29-1.74-15.47-9.25-17.19-40.5-2.14-38.79,22.25-174.46,165.21-185.86,3.25-.26,6.44-.37,9.59-.42,.8-.02,1.61-.03,2.42-.03,.81,0,1.61,.01,2.42,.03,3.16,.04,6.34,.16,9.59,.42,11.07,.88,21.43,2.52,31.13,4.79-11.74-3.25-24.5-5.55-38.39-6.66-3.25-.26-6.43-.37-9.59-.42-.8-.02-1.61-.03-2.42-.03-.81,0-1.61,.01-2.42,.03-3.16,.04-6.34,.16-9.59,.42C27.96,65.62,3.58,201.29,5.72,240.08c2.14,38.79,18.86,41.01,18.86,41.01l5.59,1.36Z"/><path class="cls-12" d="M164.93,217.57c19.1-33.8,20.43-81.52-11.29-85.6,24.13,10.04,21.54,52.74,4.03,83.73-13.17,23.3-31.48,36.28-46.53,34.99,16.03,7.24,38.42-5.92,53.79-33.12Z"/><path class="cls-12" d="M169.47,298.66c14.79,18.37,16.33-51.06,16.33-51.06-2.29,1.98-4.91,3.81-7.56,5.63-.68,13.12-2.77,39.44-8.77,45.43Z"/><path class="cls-12" d="M307.13,208.34c-13.68-44.53-44.88-59.85-44.88-59.85-3.31-1.65-6.43-2.55-9.36-2.82,.69,.29,1.39,.6,2.09,.95,0,0,31.2,15.32,44.88,59.85,10.54,34.3-33.3,42.91-65.32,37.95,1.67,.71,3.51,1.25,5.53,1.6,32.14,5.54,77.78-2.76,67.05-37.68Z"/><path class="cls-12" d="M258.85,351.66s-8.72-8.81-7.2-1.09c11.58,19.97,20.39,28.04,24.87,28.04,.75,0,1.46-.05,2.15-.13-9.28-6.52-19.82-26.81-19.82-26.81Z"/><path class="cls-12" d="M306.51,312.88c-4.52-7.4-7.31-8.11-7.19-2.84,2.76,5.58,18.92,41.1,19.88,41.42,.67,.22,2.39-.39,4.71-1.56-6.34-10.98-13.44-30.56-17.39-37.03Z"/><path class="cls-12" d="M124.86,385.08c0-5.54,6.1-33.8,6.1-33.8,0,0,1.95-24.36-4.24-16.2-1.15,6.13-9.11,45.95-9.11,48.14,0,3.42,9.29,7.47,21.6,10.2-8.52-2.53-14.34-5.63-14.34-8.33Z"/><path class="cls-12" d="M204.79,391.01c.73-4.77-3.64-21.71-6.68-32.59-4.36-15.87-6.9-12.9-7.9-8.03,1.72,7.3,7.74,36.01,7.32,38.75-.67,4.37,1.76,6.02,8.71,6.53-1.34-1.02-1.78-2.51-1.45-4.66Z"/><path class="cls-12" d="M80.66,364.96c-11.08-8.31-5.48-18.4-4.43-23.27,9.92-46.28,4.18-44.02,3.41-41.63-2.8,8.68-7.76,16.34-11.84,45.53-1.24,5.15-2.11,11.73,5.6,17.51,10.83,8.12,14.8,15.17,24.28,15.49-5.16-2.68-9.37-7.88-17.02-13.62Z"/></g><path class="cls-52" d="M13.07,189.99s58.54-56.63,120.18-63.17c61.63-6.54,125.51,8.59,156.32,27.64,30.82,19.05,64.51,56.59,64.51,56.59,0,0,12.09-43.03-12.59-67.34-66.21-65.22-211.05-72.61-235.42-64.27-24.37,8.34-86.08,30.94-93,110.55Z"/><g class="cls-36"><g class="cls-10"><path class="cls-34" d="M85.35,309.54s-14.8,24.76-13.37,39.16c1.42,14.4,22.67,23.64,22.67,23.64,0,0,11.92-23.2,6.37-43.03-2.12-7.58-6.8-14.67-15.67-19.77Z"/></g><g class="cls-44"><path class="cls-33" d="M133.81,340.94s-13.3,34.36-10.34,38.79c2.96,4.43,54.62,18.47,54.65,11.08,.03-7.39,6.25-23.64,6.09-31.77-.16-8.13-38.58-15.52-50.4-18.1Z"/></g><g class="cls-46"><path class="cls-35" d="M195.53,349.44s1.08,30.29,9.21,35.46c8.13,5.17,40.64,10.34,42.85,0,2.22-10.34,.74-28.08-3.69-35.46-4.43-7.39-48.37,0-48.37,0Z"/></g><g class="cls-49"><path class="cls-32" d="M253.5,346.15s16.25,21.39,19.58,23.97c3.32,2.59,19.21-7.39,26.23-15.89,7.02-8.5-1.48-32.51-5.54-38.79-4.06-6.28-41.83,21.65-40.27,30.7Z"/></g><g class="cls-50"><path class="cls-41" d="M345.85,326.9c-1.48-5.54-13.51-42.85-21.9-41.74-8.39,1.11-21.96,22.9-21.96,22.9,0,0,14.68,33.12,17.26,34.48,2.59,1.36,28.08-10.1,26.6-15.64Z"/></g><g class="cls-6"><path class="cls-40" d="M50.32,287.38s-19.95,30.66-20.69,34.36c-.74,3.69,12.19,19.08,16.25,20.81,4.06,1.72,24.66-26.72,26-33,1.34-6.28-21.56-22.17-21.56-22.17Z"/></g></g><g class="cls-4"><path class="cls-37" d="M119.46,127.04s-37.2,21.26-40.01,72.81c-2.8,51.55,32.5,60.51,35.3,65,2.8,4.48-39.44,25.21-63.99,15.13-24.54-10.09-40.04-29.74-27.25-75.1,12.79-45.36,44.62-81.17,95.94-77.83Z"/></g><g class="cls-2"><path class="cls-39" d="M308.73,186.41s19.38,35.16,6.84,49.24c-12.55,14.08-46.71,22.78-64.09,21.51-17.38-1.27-20.18,36.7,36.41,25.56,56.59-11.14,65.17-17.78,63.12-49.8-2.05-32.02-47.77-74.52-42.28-46.51Z"/></g><path class="cls-52" d="M273.74,77.58c17.04,39.82,48.39,123.16,34.99,170.29-18.04,63.48-42.63,51.49-30.06,130.61,0,.02,0,.04,.01,.05,8.74-.79,12.8-7.62,23.22-15.44,11.08-8.31,4.43-18.29,4.43-23.27s-3.32-20.5-6.65-28.81c-3.32-8.31,16.62,39.34,19.95,40.45,3.32,1.11,32.69-18.29,32.14-25.49-.55-7.2-21.75-39.85-21.75-39.85,0,0,.91-1.21,2.51-2.8l9.19-2.24s16.73-2.22,18.86-41.01c1.66-30.22-12.78-119.25-86.86-162.5Z"/><path class="cls-52" d="M69.28,336.14c3.13-11.49,5.97-22.76,7.51-29.53,4.13-18.19-4.12-18.79-24.67-31.93-20.54-13.15-20.54-43.26-21.29-78.04-.53-24.55-4.17-36.75-6.27-41.8C8.72,189.43,4.81,223.55,5.72,240.08c2.14,38.79,18.86,41.01,18.86,41.01l20.7,5.03s-21.2,32.65-21.75,39.85c-.55,7.2,28.81,26.6,32.14,25.49,3.32-1.11,23.27-48.76,19.95-40.45-2.72,6.79-5.43,18.39-6.33,25.13Z"/></g><path class="cls-18" d="M483.81,87.45l3.35-5.97-6.81-.68c-2.22-.22-54.81-5.11-97.15,24.56-16.14,11.31-25.78,23.12-31.49,33.67-3.16-21.21-10.51-49.38-27.47-74.63C296.69,23.36,252.67,1.74,193.41,.12,104.91-2.3,58.83,33.29,35.78,63.58,7.02,101.37,.59,149.27,9.1,177.05l3.97,12.94,4.54-12.77c.07-.19,6.89-18.83,29.69-36.61,21.15-16.5,60.78-35.61,129.49-33.02,83.88,3.17,154.51,58.82,167.31,69.48l1.13,3.16c.23,2.46,.64,5.84,1.37,9.91l.33,1.78c3.8,19.71,14.84,53.47,46.92,78.41,32.98,25.66,60.93,29.71,75.31,29.71,6.21,0,9.89-.76,10.35-.86l3.47-.76,.05-3.55c.02-1.11,.25-27.63-15.25-56.21-11.76-21.68-34.75-47.84-79.3-60.57,14.18-2.77,29.53-8.17,41.02-18.5,27.52-24.75,53.23-70.25,54.31-72.17Z"/><path class="cls-16" d="M13.38,175.74s27.16-77.77,163.57-72.61c95.04,3.6,172.46,72.61,172.46,72.61,0,0,11.04-166.57-156.13-171.14C29.36,.11-1.38,127.55,13.38,175.74Z"/><path class="cls-13" d="M196.46,12.07c72.77,1.99,111.76,34.67,132.6,70.95C309.37,43.88,270.18,6.72,192.45,4.6,28.52,.11-2.21,127.55,12.55,175.74c0,0,.48-1.38,1.63-3.73C6.76,117.84,43.99,7.9,196.46,12.07Z"/><path class="cls-16" d="M349.42,175.74s1.08,55.21,47.17,91.07c46.1,35.86,81.96,28.02,81.96,28.02,0,0,1.71-108.19-129.13-119.09Z"/><path class="cls-16" d="M385.77,109.03c-41.46,29.06-38.1,60.59-37.29,67.01,0,0,50.74,4.79,78.02-19.75,27.29-24.54,53.4-71.03,53.4-71.03,0,0-52.67-5.28-94.13,23.78Z"/><path class="cls-18" d="M7.64,144.72s7.47-24.32,37.73-45.24c30.26-20.92,82.92-28.02,82.92-28.02,0,0-55.35,3.35-85.54,20.17C12.56,108.45,10.1,126.74,10.1,126.74l-2.46,17.98Z"/><path class="cls-18" d="M246.39,44.19s42.89,16.44,60.82,35.11c17.93,18.68,40.59,80.61,40.59,80.61,0,0-21.82-31.32-37.04-46.71-25.21-25.49-55.14-31.1-55.14-31.1,0,0,36.64,14.69,63.54,50.01,26.89,35.32,27.87,46.17,27.87,46.17l3.98-32.4s-19.76-91.61-104.62-101.7Z"/><path class="cls-18" d="M349.42,179.41s36.61,18.68,48.56,29.88c11.95,11.21,26.52,38.57,26.52,38.57l-75.08-68.46Z"/><path class="cls-18" d="M401.34,120.02s-19.05,27.64-29.14,34.74c-10.09,7.1-22.79,7.45-22.79,7.45,0,0-4.58,17.96-1.35,17.21,3.22-.75,31.52-3.35,30.12-3.67-1.4-.32-15.69-4.92-12.7-7.53,2.99-2.61,31.36-25.91,35.86-48.19Z"/><path class="cls-14" d="M58.44,77.81c-2.77-7.29,24.76-51.29,84.52-62,59.76-10.71,106.27,6.49,122.8,12.7,16.52,6.21,43.86,31,32.95,28.02-10.91-2.99-34.44-13.07-49.76-14.19l-15.31-1.12s35.86,14.57,52.67,28.02c16.81,13.45,19.21,21.29,12.4,23.53-6.8,2.24-28.19-12.33-46.44-16.81-18.26-4.48-32.82-4.48-32.82-4.48,0,0,47.07,13.82,62.38,31.75,15.32,17.93-15.69,16.81-15.69,16.81,0,0-42.59-19.42-86.29-20.17-43.7-.75-89.64,8.22-100.1,13.45-10.46,5.23-19.78-13.07-21.42-16.81-1.64-3.74,28.34-15.95,67.19-19.69,38.85-3.74,51.01-5.34,51.01-5.34-48.22-10.04-117.01,9.13-118.07,6.35Z"/><path class="cls-13" d="M356.43,144.72s32.21-40.62,66.68-50.01c34.47-9.38,50.43-8.12,50.43-8.12,0,0-20.73,35.02-44.82,55.19-24.09,20.17-50.99,25.77-50.99,25.77,0,0,24.93-32.28,26.05-47.52,1.12-15.24-3.64-8.79-6.72-2.07-3.08,6.72-14.01,25.47-25.21,32.06-11.21,6.6-22.86,10.48-15.41-5.31Z"/><path class="cls-13" d="M371.27,182.68s34.49,9.01,63.87,29.7c29.38,20.69,38.38,77.04,38.38,77.04,0,0-37.54,3.08-65.56-22.69-28.02-25.77-47.26-63.59-47.26-63.59,0,0,46.97,47.07,63.78,52.95,16.81,5.88,12.98-15.41-7.38-40.9-20.35-25.49-45.85-32.5-45.85-32.5Z"/><path class="cls-13" d="M147.53,22.8c-10.3,1.43-47.07,14.32-59.39,29.29-12.33,14.97,39.13,5.16,83.58,8.53,44.45,3.36,68.4,4.87,62.83-6.44-7.45-15.13-32.39-38.94-87.02-31.38Z"/></g><path class="cls-12" d="M119.46,37.6c-14.33,4.51-24.64,14.78-16.95,16.16,7.69,1.39,30.7-13.44,41.06-14.58,10.36-1.14-.44-9.03-24.11-1.58Z"/><path class="cls-12" d="M169.16,27.45c-12.76,.2-9.91,6.27-1.54,6.72,8.37,.45,22.1-7.05,1.54-6.72Z"/></g></g></g></g></svg>