<?xml version="1.0" encoding="UTF-8"?><svg xmlns="http://www.w3.org/2000/svg" viewBox="0 0 1860.05 1086.38"><defs><style>.cls-1{fill:#44260d;}.cls-2{fill:#3d1c06;}.cls-3{isolation:isolate;}.cls-4{mix-blend-mode:multiply;opacity:.58;}</style></defs><g class="cls-3"><g id="Layer_2"><g id="Layer_33"><rect class="cls-1" width="1860.05" height="1086.38"/><g class="cls-4"><path class="cls-2" d="M1035.56,729.3c-.4-2.28-.81-4.48-1.27-6.55,0,0,.47,2.35,1.27,6.55Z"/><path class="cls-2" d="M1054.14,620.88l-33.25-103.65s-26.91,19.77-30.75,65.31c-3.84,45.53-9.6,146.2,5.76,262.44,15.36,116.24,48.95,166.57,58.24,94.67,8.11-62.8-13.08-181.33-18.57-210.36,10.37,59.92-.41,190.43-3.18,201.97-2.88,11.99-27.84-35.61-28.8-180.95-.96-145.35,12.47-208.52,12.47-208.52l38.09,79.09Z"/><path class="cls-2" d="M1013.79,794.59c5.01,23.43,15.69-33.23,9.32-53.14-6.37-19.92-3.69-131.47-3.69-131.47,0,0-12.19,153.85-5.63,184.61Z"/><path class="cls-2" d="M476.76,236.66c-.4-2.28-.81-4.49-1.27-6.55,0,0,.47,2.34,1.27,6.55Z"/><path class="cls-2" d="M495.34,128.25l-33.26-103.65s-26.91,19.77-30.74,65.31c-3.84,45.53-9.6,146.2,5.76,262.44,15.36,116.23,48.95,166.57,58.24,94.67,8.11-62.8-13.08-181.33-18.58-210.36,10.37,59.91-.41,190.43-3.18,201.97-2.88,11.98-27.84-35.61-28.8-180.96-.95-145.35,12.48-208.52,12.48-208.52l38.09,79.09Z"/><path class="cls-2" d="M454.99,301.95c5.01,23.43,15.68-33.23,9.32-53.13-6.37-19.92-3.69-131.48-3.69-131.48,0,0-12.19,153.86-5.62,184.61Z"/><path class="cls-2" d="M698.09,806.99l2.83-29.67s13.78-151.06-2.83-285.79c-16.61-134.73-18.13-148.33-18.13-148.33,10.09,175.55,11.77,176.26,7.52,250.4-3.43,59.89,10.6,213.39,10.6,213.39Z"/><path class="cls-2" d="M1055.6,289.88l1.88-14.07s7.47-44.79,2.67-122.28c-5.09-82.1-16.05-116.71-16.05-116.71,6.72,83.2,7.26,116.79,4.44,151.93-2.28,28.38,7.07,101.14,7.07,101.14Z"/><polygon class="cls-2" points="1116.54 384.44 1135.8 73.72 1127.21 14.57 1116.54 8.05 1121.12 35.65 1121.12 166.31 1116.54 384.44"/><path class="cls-2" d="M573.65,289.88l1.88-14.07s7.47-44.79,2.67-122.28c-5.09-82.1-16.05-116.71-16.05-116.71,6.72,83.2,7.26,116.79,4.44,151.93-2.28,28.38,7.07,101.14,7.07,101.14Z"/><polygon class="cls-2" points="634.59 384.44 653.85 73.72 645.25 14.57 634.59 8.05 639.16 35.65 639.16 166.31 634.59 384.44"/><polygon class="cls-2" points="230.51 390 251.09 80.03 236.89 1.74 219.5 14.36 227.01 41.96 227.01 172.62 230.51 390"/><path class="cls-2" d="M1059.95,1028.3s7.68,2.41,15.54,4.85c.27,3.25,.44,5.03,.44,5.03,0,0-.14-1.83-.34-5,7.48,2.33,15.09,4.67,16.34,5,2.56,.67-15.99-85.97-16-86.07,.61-6.37,1.43-12.44,2.52-17.92,7.52-37.92,16.06-149.17-1.81-208.81-17.87-59.63,4.83-164.32,4.83-164.32,0,0-29.09,116.17-19.63,153.73,9.45,37.56,9.77,96.78,7.87,166.12-.34,12.63-.36,25.88-.15,39.1l-3.27,56.38-6.35,51.9Z"/><path class="cls-2" d="M1589.02,355.94c.4,2.28,.81,4.48,1.27,6.55,0,0-.47-2.35-1.27-6.55Z"/><path class="cls-2" d="M1570.45,464.35l33.25,103.65s26.91-19.77,30.75-65.31c3.84-45.53,9.6-146.2-5.76-262.44-15.36-116.24-48.95-166.57-58.24-94.67-8.11,62.8,13.08,181.33,18.57,210.36-10.37-59.92,.41-190.43,3.18-201.97,2.88-11.99,27.84,35.61,28.8,180.95,.96,145.35-12.47,208.53-12.47,208.53l-38.09-79.09Z"/><path class="cls-2" d="M1610.79,290.65c-5.01-23.43-15.69,33.23-9.32,53.14,6.37,19.92,3.69,131.47,3.69,131.47,0,0,12.19-153.85,5.63-184.61Z"/><path class="cls-2" d="M1564.64,56.94s-7.68-2.41-15.54-4.85c-.27-3.25-.44-5.03-.44-5.03,0,0,.14,1.83,.34,5-7.48-2.33-15.09-4.67-16.34-5-2.56-.67,15.99,85.97,16,86.07-.61,6.37-1.43,12.44-2.52,17.92-7.52,37.92-16.06,149.17,1.81,208.81,17.87,59.63-4.83,164.32-4.83,164.32,0,0,29.09-116.17,19.63-153.73-9.45-37.56-9.77-96.78-7.87-166.12,.34-12.63,.36-25.88,.15-39.1l3.27-56.38,6.35-51.9Z"/><path class="cls-2" d="M289.51,375.25c6.12,137.77,40.98,260.64,41.92,286.59,.94,25.96,6.3-59.75,11.65-184.75,5.36-125,15.3-270.36,4.59-317.09-10.71-46.72-14.02-58.86-14.02-58.86,0,0,10.2,109.35,10.2,142.08s-11.83,217.89-12.42,250.77c-.59,32.88-3.65,73.33-3.65,73.33,0,0-36.65-170.16-29.81-254.13,6.85-83.96,20.94-154.92,22.69-149.73,1.75,5.19,1.31,71.41,0,83.29-1.31,11.89-10.49,110.53-5.9,138.21,4.59,27.69,11.48-36.26,12.24-71.77,.77-35.51,8.07-122.04,4.42-149.73-3.65-27.68-10.76-27.6-10.76-27.6l4.05-67.58s-41.33,169.19-35.2,306.96Z"/><polygon class="cls-2" points="1171.87 423.28 1192.45 113.31 1178.25 35.02 1160.86 47.64 1168.37 75.24 1168.37 205.9 1171.87 423.28"/><path class="cls-2" d="M1190.16,525.09c6.12,137.77,40.98,260.64,41.92,286.59,.94,25.96,6.3-59.75,11.65-184.75,5.36-125,15.3-270.36,4.59-317.09-10.71-46.72-14.02-58.86-14.02-58.86,0,0,10.2,109.35,10.2,142.08s-11.83,217.89-12.42,250.77c-.59,32.88-3.65,73.33-3.65,73.33,0,0-36.65-170.16-29.8-254.13,6.85-83.96,20.94-154.92,22.69-149.73,1.75,5.19,1.31,71.41,0,83.29-1.31,11.89-10.49,110.53-5.9,138.21,4.59,27.69,11.47-36.26,12.24-71.77,.77-35.51,8.07-122.04,4.42-149.73-3.65-27.68-10.76-27.6-10.76-27.6l4.05-67.58s-41.33,169.19-35.2,306.96Z"/><path class="cls-2" d="M810.55,330.97c7.42,112.98,49.66,213.75,50.8,235.03,1.14,21.29,7.63-49,14.12-151.51,6.5-102.52,18.55-221.73,5.57-260.04-12.99-38.31-17-48.27-17-48.27,0,0,12.36,89.67,12.36,116.51s-14.34,178.68-15.06,205.65c-.71,26.97-4.42,60.15-4.42,60.15,0,0-44.43-139.55-36.13-208.41,8.3-68.86,25.39-127.04,27.51-122.79,2.12,4.26,1.58,58.56,0,68.31-1.58,9.75-12.71,90.64-7.15,113.35,5.57,22.7,13.91-29.74,14.84-58.86,.93-29.13,9.78-100.09,5.35-122.79-4.42-22.7-13.04-22.64-13.04-22.64l4.9-55.42s-50.08,138.75-42.66,251.74Z"/><path class="cls-2" d="M514.21,818.73c5.13,63.76,24.11,222.53,24.11,222.53l21.99-.14s-48.93-249.64-36.62-310.21c12.31-60.57,44.09-193.79,42.94-236.07-1.16-42.27-11.41-198.67-24.22-212.5,0,0,29.47,152.38,5.13,252.63-24.35,100.24-38.44,220-33.32,283.76Z"/><path class="cls-2" d="M437.38,584.56c0-66.32-28.84-200.77-28.84-200.77,0,0,21.13,206.1,12.96,270.38-8.15,64.28-19.27,136.98-5.54,170.7,13.72,33.72,31.02,84.3,31.02,84.3,0,0,3.47-85.35,6.06-116.97,2.6-31.61-15.06,16.86-11.52,31.61,3.54,14.75,0,35.83,0,35.83,0,0-26.27-20.02-20.02-87.46,6.26-67.44,15.87-121.31,15.87-187.63Z"/><path class="cls-2" d="M945.47,172.86c-13.73-47.38-31.03-118.45-31.03-118.45,0,0-3.47,119.94-6.06,164.35-2.58,44.43,15.07-23.69,11.53-44.41-3.54-20.74,0-50.34,0-50.34,0,0,4.73,5.06,9.69,18.11,6.74,17.73,13.93,50.2,10.32,104.78-6.25,94.76-15.87,170.46-15.87,263.65s28.83,282.11,28.83,282.11c0,0-21.13-289.6-12.97-379.93,8.16-90.32,19.27-192.48,5.55-239.87Z"/><path class="cls-2" d="M151.63,603.39c-13.72-32.6-31.02-81.5-31.02-81.5,0,0-3.47,82.52-6.06,113.08-2.59,30.56,15.07-16.3,11.53-30.57-3.54-14.26,0-34.63,0-34.63,0,0,4.73,3.48,9.69,12.46,6.74,12.2,13.93,34.54,10.33,72.1-6.26,65.2-15.86,117.29-15.86,181.4,0,35.32,6.88,140.99,14.74,183.54,6.41,34.72,14.09,10.57,14.09,10.57,0,0-21.13-199.27-12.97-261.41,8.16-62.15,19.27-132.44,5.54-165.04Z"/><path class="cls-2" d="M853.54,585.08c-.3-4.33-.49-6.74-.49-6.74,0,0,.17,2.42,.49,6.74Z"/><path class="cls-2" d="M851.23,832.2c-15.57,74.91-16.85,199.1-16.85,199.1l19.12-5.11s-9.42-56.73-6.98-84.13c2.44-27.4,17.81-106.95,17.81-158.06,0-44.72-8.63-168.65-10.78-198.91,2.3,33.19,11.46,180.85-2.32,247.11Z"/><path class="cls-2" d="M1161.42,619.2s-.13,166.15,0,218.53c.12,52.37-13.18,190.84-13.18,190.84v6.72c10,6.63,30.52-5.81,30.52-5.81l-17.34-410.29Z"/><path class="cls-2" d="M672.97,637.78c-4.8-37.04-33.64-160.74-33.64-160.74,0,0,35.08,152.59,23.07,256.29-12.02,103.7-15.87,175.48-15.87,199.22s8.65,77.07,8.65,77.07c0,0-8.16-126.66,6.73-194.81,14.9-68.14,15.86-139.99,11.05-177.02Z"/><path class="cls-2" d="M1451.25,749.15l2.83-37.59s13.78-191.38-2.83-362.08c-16.61-170.69-18.13-187.93-18.13-187.93,10.09,222.41,11.77,223.31,7.52,317.24-3.43,75.87,10.6,270.36,10.6,270.36Z"/><path class="cls-2" d="M1267.37,764.02c5.13,80.77,24.11,281.93,24.11,281.93l21.99-.18s-48.93-316.28-36.62-393.02c12.31-76.74,44.09-245.53,42.94-299.09-1.16-53.56-11.41-251.7-24.22-269.22,0,0,29.47,193.06,5.13,320.07-24.35,127-38.44,278.73-33.32,359.51Z"/><path class="cls-2" d="M1394.8,534.76c-4.8-46.93-33.64-203.65-33.64-203.65,0,0,35.08,193.32,23.07,324.7-12.02,131.38-15.87,222.33-15.87,252.39s8.65,97.64,8.65,97.64c0,0-8.17-160.47,6.73-246.81,14.9-86.33,15.86-177.36,11.05-224.28Z"/><path class="cls-2" d="M1818.94,822.68l2.83-29.67s13.78-151.06-2.83-285.79c-16.61-134.73-18.13-148.33-18.13-148.33,10.09,175.55,11.77,176.26,7.52,250.4-3.43,59.89,10.6,213.39,10.6,213.39Z"/><path class="cls-2" d="M1694.5,305.57l1.88-14.07s7.47-44.79,2.67-122.28c-5.09-82.1-16.05-116.71-16.05-116.71,6.72,83.2,7.26,116.79,4.44,151.93-2.28,28.38,7.07,101.14,7.07,101.14Z"/><polygon class="cls-2" points="1755.44 400.13 1774.7 89.41 1766.11 30.26 1755.44 23.73 1760.02 51.34 1760.02 182 1755.44 400.13"/><path class="cls-2" d="M1635.06,834.41c5.13,63.76,24.11,222.53,24.11,222.53l21.99-.14s-48.93-249.64-36.62-310.21c12.31-60.57,44.09-193.79,42.94-236.07-1.16-42.27-11.41-198.67-24.22-212.5,0,0,29.47,152.38,5.13,252.63-24.35,100.24-38.44,220-33.32,283.76Z"/><path class="cls-2" d="M1793.82,653.46c-4.8-37.04-33.64-160.74-33.64-160.74,0,0,35.08,152.59,23.07,256.29-12.02,103.7-15.87,175.48-15.87,199.22s8.65,77.07,8.65,77.07c0,0-8.16-126.66,6.73-194.81,14.9-68.14,15.86-139.99,11.05-177.02Z"/><path class="cls-2" d="M232.65,743.85c14.03-15.66,11.52-163.2,11.52-163.2,0,0-7.13,62.25-7.4,99.41-.27,37.16-17.28,79.46-35.7,24.24-18.42-55.22-28.26-163.96-28.26-163.96,5.07,178.44,45.81,219.18,59.84,203.52Z"/><path class="cls-2" d="M236.77,776.62s-15.53,25.05-35.7,0c-20.17-25.04-30.63-96.56-30.63-96.56,13.22,186.08,66.33,96.56,66.33,96.56Z"/><path class="cls-2" d="M282.72,1037.49s-5.02-17.56-6.94-33.37c-1.92-15.81-30.76-119.77-30.76-119.77,0,0,13.45,80.78,15.24,103.27,1.78,22.48-9.08,46.01-9.08,46.01-7.29,3.87,31.53,3.86,31.53,3.86Z"/><path class="cls-2" d="M426.58,1036.42s-5.02-17.57-6.94-33.37c-1.92-15.81-30.76-119.77-30.76-119.77,0,0,13.46,80.79,15.24,103.26,1.78,22.48-9.07,46.02-9.07,46.02-7.3,3.87,31.53,3.86,31.53,3.86Z"/></g></g></g></g></svg>