<?xml version="1.0" encoding="UTF-8"?><svg xmlns="http://www.w3.org/2000/svg" viewBox="0 0 709 148.62"><defs><style>.cls-1{fill:#f2d265;}.cls-2,.cls-3,.cls-4{fill:#6d310c;}.cls-5{fill:#b66c13;}.cls-6{fill:#471d06;}.cls-7{opacity:.6;}.cls-8{isolation:isolate;}.cls-9{fill:#fff;mix-blend-mode:overlay;opacity:.3;}.cls-3{opacity:.51;}.cls-4{opacity:.67;}</style></defs><g class="cls-8"><g id="Layer_2"><g id="Layer_3"><g><g><path class="cls-2" d="M699.8,9.69c-20.79-.97-128.08-1.99-148.88-2.77l-31.2-1.26-31.2-1.12c-41.6-1.41-164.93-2.45-206.57-2.97l-87.64-.79c-20.83-.21-41.64-.51-62.47-.63C90.19-.24,48.52,.24,6.85,.44L0,.47,1.15,5.53c2.53,11.06,4.89,22.12,7.26,33.19,2.32,11.07,4.54,22.16,6.72,33.25,2.12,11.1,4.2,22.2,6.09,33.33,1.95,11.12,3.68,22.26,5.37,33.4l.39,2.6,3.46,.11c9.67,.3,19.33,.63,29,1.04,9.66,.39,19.33,.76,29,1.22,19.33,.86,38.66,1.81,57.99,2.55,19.33,.8,38.67,1.41,58,1.79,19.34,.42,63.87,.47,83.21,.57,38.69,.13,159.07-.05,197.78-.71,38.7-.74,163.9-1.64,202.62-3.69l.98-.05,.14-.77c1.9-10.5,3.67-21.01,5.37-31.53,1.65-10.52,3.35-21.04,4.85-31.56,1.57-10.53,3.12-21.05,4.53-31.58,1.43-10.53,2.96-21.05,4.25-31.6l.85-6.97-9.2-.43Zm-18.31,99.13c-.83,8.75-1.75,17.49-2.77,26.23-36.57-1.06-159.59-3.06-196.13-4.64l-28.29-1.09c-9.43-.32-100.56-.56-109.99-.79-18.86-.41-37.74-.54-56.6-.61-37.75-.13-100.68,.04-138.43,.71-37.43,.74-74.85,1.68-112.3,3.73-.86-10.1-1.83-20.19-2.89-30.27-1.13-10.34-2.23-20.69-3.51-31.01l-1.84-15.49-2-15.48c-.97-7.51-1.95-15.01-2.97-22.51l20.27,.97c10.11,.48,20.22,.85,30.32,1.28l30.32,1.24,30.32,1.08c40.43,1.36,106.07,2.34,146.54,2.78l30.35,.4,30.35,.32c20.24,.22,122.16,.44,142.4,.55,38.7,.25,163.91-.25,202.64-.47-.4,8.24-.86,16.47-1.29,24.69-.67,9.74-1.25,19.48-2.01,29.22-.75,9.73-1.57,19.46-2.5,29.19Z"/><polygon class="cls-5" points="685.11 140.75 33.23 135.77 10.34 7.51 696.16 19.03 685.11 140.75"/><path class="cls-3" d="M36.1,104.72s402.8-5.58,430.16-4.6c27.36,.97,193.72,13.93,193.72,13.93l26.57-5.17,5.61,.31-4.74,33.13H201.74l-172.6-3.15-5.64-34.45h12.59Z"/><polygon class="cls-4" points="689.7 18.88 679.68 129.21 31.17 124.27 33.23 135.77 685.11 140.75 696.16 19.03 689.7 18.88"/><polygon class="cls-1" points="19.55 17.94 84.79 15.61 695.45 26.85 696.16 19.03 10.34 7.51 33.23 135.77 42.85 135.87 19.55 17.94"/><polygon class="cls-2" points="24.15 99.31 11.92 34.79 117.27 39.35 14.03 28.16 8.76 20.6 24.94 112.87 283.01 102.46 24.15 99.31"/><g><path class="cls-2" d="M668.28,115.61c1.58-.42,21.57-2.74,21.57-2.74l.7-5.77c-4.37,1.63-23.67,8.88-22.27,8.51Z"/><path class="cls-2" d="M691.42,106.78l6.85-59.03h-.54l-7.19,59.36c.55-.21,.88-.33,.88-.33Z"/><polygon class="cls-2" points="698.27 41.19 493.93 47.74 697.73 47.74 698.27 43.41 698.27 41.19"/></g><g class="cls-7"><path class="cls-2" d="M243.97,48.83c-99.93,3.84-189.05,25.68-207.87,26.27-18.82,.59,43.34,3.95,134.01,7.3,90.66,3.36,302.98,9.59,336.86,2.88,33.89-6.71,42.7-8.79,42.7-8.79,0,0-79.31,6.39-103.05,6.39s-264.92-7.41-288.77-7.78c-23.85-.37-53.19-2.29-53.19-2.29,0,0,148.61-22.97,209.52-18.68,60.9,4.29,194.05,13.12,190.29,14.22-3.76,1.1-51.79,.82-60.41,0-8.62-.82-187.05-6.57-207.13-3.69-20.09,2.88,51.49,7.19,77.25,7.67,25.75,.48,170.2,5.06,190.29,2.77,20.08-2.29,20.02-6.75,20.02-6.75l135.5,2.54s-316.08-25.9-416.01-22.06Z"/><path class="cls-9" d="M522.66,57.7c-60.88-10.55-253.11-13.19-310.85-12.35-57.74,.84-175.72,29.74-175.72,29.74,0,0,46.35-7.32,73.5-11.91,27.15-4.59,107.96-12.2,184.63-13.88,76.68-1.68,382.04,23.26,382.04,23.26,0,0-92.74-4.31-153.61-14.87Z"/><path class="cls-9" d="M109.5,73.11s128.13,3.06,179.55,8.57c51.42,5.51,210.59-1.49,210.59-1.49-32.79,2.37-183.56-2.59-210.59-5.09-27.03-2.51-179.55-1.99-179.55-1.99Z"/></g><polygon class="cls-9" points="140.82 109.93 34.02 116.24 34.02 135.78 29.15 112.87 207.38 104.72 140.82 109.93"/><path class="cls-9" d="M123.98,40.3c-1.58-.21-108.75-5.37-108.75-5.37l4.34,24.32s6.02,.97,4.97,.89c-1.05-.08-4.16,3.64-4.01,4.47,.15,.83,5.85-1.81,6.91-2.44,1.05-.63,1.3-6.61,1.3-6.61,0,0-4.98-3.49-4.98-4.54v-9.4l100.23-1.33Z"/></g><polygon class="cls-6" points="679.89 45.21 670.46 114.05 371.05 111.36 364.38 31.79 682.66 35.2 679.89 45.21"/><g><g><g><path class="cls-1" d="M82.62,61.16c.19,.88,.25,1.95,.26,2.89,.02,.49-.01,1.01-.04,1.45-.06,.47-.08,1.01-.16,1.49-.29,1.95-.79,3.89-1.78,5.89l-.31,.65c-.12,.23-.31,.5-.47,.75-.34,.53-.67,.94-1.05,1.41l-1.14,1.21c-.46,.42-.88,.78-1.36,1.13-.55,.37-.74,.59-1.38,.95l-1.41,.84c-1.12,.58-1.87,.94-2.84,1.39l1.13-7.68c1.13,.43,2.29,.94,3.43,1.64,1.13,.66,2.28,1.55,3.4,2.81,1.08,1.33,1.93,2.78,2.41,4.29l.31,1,.06,.19,.09,.39,.16,.8c.05,.43,.1,.87,.11,1.28v1.17c0,.17-.04,.81-.08,1.21-.05,.4-.11,.77-.19,1.15l-.12,.56-.1,.41-.06,.19-.12,.4-.22,.67c-.16,.48-.32,.76-.49,1.14l-.27,.52-.36,.67-.54,.8c-.3,.43-.61,.82-.88,1.11-.28,.32-.59,.62-.9,.91l-.31,.29-.16,.12-.36,.27c-.76,.59-1.35,.91-2.03,1.29-.67,.33-1.36,.62-2.04,.85-.38,.13-.61,.18-1.1,.33l-.78,.14c-5.08,1.03-9.49,.26-13.79-.06-4.17-.41-8.34-.45-12.51-.18l-1.82,.12-.17-2.05c-.35-4.12-1.1-8.23-1.86-12.33-.8-4.11-1.52-8.21-2.02-12.33-.46-4.12-.79-8.24-1.18-12.35-.38-4.12-.67-8.24-.78-12.36l-.17-6.28,6.31-.38c3.75-.23,7.52-.21,11.28-.18l1.42,.04,.71,.03h.68l.35,.04c.99,.13,1.89,.22,2.93,.4,2.18,.34,4.19,.89,6.15,1.63l.76,.28,.67,.28c.46,.18,1,.4,1.46,.62l1.38,.66,.34,.17,.17,.08,.08,.04h0c.26,.08,.08,.03,.14,.05h.02l.04,.03,.63,.36c2.05,1.04,3.81,2.53,5.21,4.01,.78,.79,1.37,1.58,2.02,2.46,.5,.74,1.11,1.73,1.54,2.6,.9,1.82,1.49,3.71,1.72,5.67h0Zm-1.2,.16c-.44-3.55-3.12-6.72-6.17-8-1.62-.75-3.25-1.01-4.81-1.03l-.73-.03h-.07c.05,.01-.14-.04,.12,.03h-.62l-1.37,.06-1.31,.08-.72,.03-.64,.06c-1.76,.16-3.5,.38-5.08,.61l-2.71,.34-.35,.03h-.12c.65,0,.17,0,.31,0h-.04l-.17,.03-.7,.1-1.4,.19c-3.74,.43-7.48,.85-11.24,1.03l6.14-6.66c.12,4.12,.05,8.26-.11,12.39-.17,4.13-.27,8.27-.51,12.4-.27,4.14-.77,8.28-1.35,12.42-.54,4.14-1.06,8.29-1.18,12.42l-1.99-1.94c4.17,.27,8.34,.24,12.51-.18,1.92-.26,4.11-.65,5.88-1.22,1.81-.61,3.65-1.36,4.99-2.27l.68-.4c-.01-.05,.24-.2,.34-.29,.27-.21,.49-.44,.7-.66,.18-.2,.44-.49,.46-.6,0-.02,.14-.18,.21-.26l.13-.15c-.14,.13-.02,0-.04,0,.04-.09,.09-.18,.13-.27,.06-.11,.04-.15,.02-.16h0l.08-.19,.17-.36,.02-.05c-.04,.08,.1-.19-.09,.18h0v-.02l.02-.05,.03-.1c.02-.06,.05-.13,.06-.19,.02-.11,.08-.3,.07-.32l.1-.43,.04-.19v-.05l.02-.02s-.08,.32-.04,.16h0v-.06l.03-.21,.06-.75v-.39c.01,.06,.01-.16,0,.14h0v-.15c0-.11-.03-.18-.02-.27,0,0,0,.02,.02,.03,0,0,.02,.02,.02,0l-.04-.19-.11-.51c-.12-.48-.22-.92-.38-1.27-.13-.4-.53-.94-1.03-1.57-.51-.59-1.09-1.24-1.76-1.85l-8.38-7.72,9.51,.04c.84,0,1.9-.07,2.57-.04,.44-.03,.98-.08,1.24-.08,.24,.05,.89-.14,1.19-.16,.36-.06,.75-.16,1.08-.24l1.14-.41c.32-.15,.73-.32,.99-.5,.15-.1,.3-.16,.47-.3l.53-.47c1.16-1.05,2.24-2.58,2.78-4.27,.16-.42,.26-.81,.36-1.26,.08-.48,.15-.9,.19-1.34,.07-.92,.03-1.71-.14-2.66h0v-.02Z"/><path class="cls-1" d="M60.11,68.6c.19-.14,.36-.32,.56-.44,.1-.2,.67-.36,.83-.55,.21-.14,.41-.31,.68-.45,.25-.12,.49-.29,.74-.4l.05-.02h.02v-.02h.02c-.4,.08-.11,.02-.2,.04l.12-.05,.24-.1c.12-.07,.4-.14,.4-.18,0-.12,.31-.26,.57-.25h.07c-.55,.35-.15,.1-.27,.18h.02l.06-.03,.25-.08c.08-.03,.18-.04,.27-.06l.13-.03s0,.03,0,.05c-.04,.17,.02,.4,.25,.44,.21,.1,.44,.14,.72,.17-.05,.32,.37-.2,.38,0,.07,.1,.18,.17,.32,.11,.51-.08,.96-.53,1.16-1.05,.43-1.12-.09-2.04-1-2.22-.41-.07-.98,.04-1.45,.24l-.36,.17-.18,.1-.09,.05-.04,.02h-.02c-.15-.04,.2,.08,.16,.07h-.03c-.36,.1-.82,.16-1.09,.29-.22,.15-.34,.27-.58,.37-.25,.1-.49,.19-.73,.25-.53,.14-.88,.27-1.66,.43-1.05,.32-2.17,.7-3.36,.78l5.94-6.59c.02,2.01-.55,4.04-1.4,6.06-.41,.9-.91,1.79-1.49,2.7Zm-3.99,3.43c-1.14-.99-2-1.98-2.7-2.97-.72-1-1.3-1.99-1.79-2.99-.92-2-1.56-4-1.61-6.01l-.15-6.04,6.09-.55c1.52-.14,3.12,.1,4.79,.45,.58,.17,1.59,.37,2.42,.63,.43,.13,.87,.33,1.29,.51,.44,.21,.98,.49,1.43,.78,.39,.29,.58,.56,.87,.84h.01v.02s.32,.11,.18,.06l.04,.03,.08,.07,.15,.14,.29,.28c.19,.2,.38,.39,.56,.6,.74,.81,1.32,1.71,1.83,2.64,1.02,1.79,1.26,3.69,1.76,5.26,.23,.83,.55,1.76,.66,2.98,.04,.28,.03,.66-.04,1.07-.12,.52,.13,.29-.09,.91-.12,.58-.22,1.22-.5,1.81-.2,.57-.65,1.24-1.22,1.85l-.2,.21-.08,.11c-.05,.07-.1,.15-.16,.22l-.17,.2-.04,.05h-.01v.02c-.13,.08,.27-.16-.29,.18l-.04,.03-.17,.12c-.93,.67-1.9,1.02-3.2,1.28-.33,.07-.39,.05-.59,.06h-.39c-.09,.03,.2-.03-.21,.05h-.15c-.42,0-.85-.05-1.27-.09-.41-.04-.88-.15-1.35-.23-.52-.12-.63-.26-1.21-.42-.77-.33-1.58-.78-2.36-1.39-.73-.61-1.25-1.3-1.85-2.19l-.13-.18-.47-.41Z"/><path class="cls-1" d="M56.17,91.77l1.26-1.84c1.13-1.66,2.22-2.58,2.93-3.37,.1-.11,.2-.18,.3-.27,0-.04,.22-.09,.03-.12,.06-.05,.12-.09,.18-.13,.25-.15,.49-.33,.74-.44,.29-.12,.35-.27,.53-.36,.08-.05,.15-.09,.23-.13l.11-.05h.01c-.4,.07-.11,.01-.2,.03h.02l.05-.03,.09-.04,.37-.13c.06-.03-.02-.03-.02-.03-.07,.04,.03,.03,.09,.12l.1,.13,.03,.04h0v.02c.23-.14-.3,.19-.24,.15h.06c.07-.01,.14-.02,.22-.02,.48-.1,.21,.25,.31,.5,.13,.18,.32,.35,.52,.46,.21,.14,.44,.16,.57,.44,.41,.19,.82-.04,.97-.38,.29-.82-.29-1.47-.91-1.17l-.06,.03-.03,.02h-.02c-.12-.08,.16,.14,.13,.12h0l-.23-.02h-.49c-.32,.01-.37,.28-.5,.43l-.46,.46-.22,.25-.09,.11-.04,.05-.02,.03h0v.02c-.15-.03,.18,.04,.15,.04h0c-.28,.11-.57,.2-.84,.27-.11,.12-.19,.2-.27,.28-.29,.15-.58,.32-.87,.5-.92,.38-1.83,.7-2.7,.68l5.81-6.52c-.13,1.43-.72,2.86-1.59,4.3-.21,.36-.49,.72-.77,1.08-.26,.36-.56,.72-.91,1.08-.66,.72-1.44,1.44-2.51,2.17l-1.82,1.24Zm.61-1.23c-1.08-.7-1.88-1.4-2.56-2.11-.36-.35-.67-.71-.93-1.06-.29-.35-.57-.71-.79-1.06-.91-1.41-1.52-2.83-1.69-4.26l-.62-5.29,6.43-1.24c1.19-.23,2.36-.06,3.51,.22,.76,.14,1.51,.32,2.25,.54,.43,.13,.87,.27,1.27,.45,.25,.16,.47,.35,.7,.55h0s.3,.07,.17,.04h.02l.04,.04,.07,.05,.15,.1,.29,.21,.53,.46c.36,.35,.65,.67,.97,1.06,.31,.41,.74,.89,.84,1.21l.14,.47,.08,.22h0s.25,.21,.14,.12v.02l.03,.04,.04,.08,.09,.17c.91,1.74,.97,3.22,1.44,4.45,.23,.69,.58,1.51,.63,2.69-.06,.76-.06,1.25-.17,1.8-.09,.55-.27,1.08-.49,1.64-.3,.58-.95,1.29-.92,1.45-.03,.07-.06,.14-.1,.2l-.03,.05h0c.06-.03-.48,.3-.26,.17l-.02,.02-.04,.03-.14,.13c-.19,.18-.39,.33-.6,.48-.43,.27-.8,.49-1.37,.65-.25,.08-.58,.16-.77,.19l-.39,.03h-.17l-.21,.04h-.3l-.54-.02c-.33-.03-.78-.06-1.01-.15-.27-.06-.54-.2-.81-.3-.07-.02-.14-.06-.2-.09-.32-.02-.23-.07-.36-.1-.16-.08-.32-.14-.48-.23-1.37-.71-2.35-1.78-3.29-3.56l-.19-.35-.38-.25Z"/></g><g><path class="cls-1" d="M117.91,84.41c-2.42,.76-4.83,1.36-7.25,1.86-2.58,.56-5.16,.98-7.74,1.34l3.73-2.68c-.93,4.95-2.1,9.82-3.49,14.62l-1.33,4.6-5.09-1.19c-4.08-.95-8.14-1.96-12.07-3.46l-5.73-2.2,2.31-4.65c1.85-3.75,4.12-7.33,6.3-10.95,2.18-3.62,4.24-7.29,5.88-11.12,1.63-3.83,3.01-7.77,4.15-11.8,1.13-4.03,2.02-8.16,2.96-12.26l.52-2.26,3.48-.28c3.38-.27,6.76-.48,10.13-.55l2.81-.06,1.67,3.26c1.86,3.64,3.63,7.32,5.45,10.98,1.79,3.67,3.55,7.36,5.17,11.1,3.17,7.52,5.82,15.25,8.13,23.13l1.64,5.58-4.58,1.14c-3.26,.82-6.58,1.49-9.89,2.16l-4.04,.82-.68-2.94c-.28-1.2-.5-2.42-.76-3.63-.26-1.21-.49-2.42-.69-3.65-.41-2.28-.74-4.59-.99-6.93Zm1.05-.95c1.55,2,2.98,4.05,4.34,6.13,.7,1.03,1.36,2.08,2,3.13,.65,1.05,1.32,2.09,1.94,3.16l-4.72-2.11c2.97-1.62,5.94-3.25,8.96-4.73l-2.94,6.73c-3.98-7.18-7.63-14.49-10.76-22.03-1.53-3.78-2.92-7.62-4.28-11.48-1.33-3.86-2.71-7.71-4-11.59l4.48,3.2c-3.33-.51-6.66-1.16-9.98-1.87l4-2.54c-2.09,3.65-4.24,7.29-6.15,11.01-1.9,3.73-3.56,7.55-4.97,11.48-1.4,3.93-2.37,8.02-3.24,12.15-.86,4.14-1.63,8.31-2.81,12.32l-3.43-6.85c4.14,.72,8.15,1.94,12.14,3.22l-6.41,3.41c1.79-4.66,3.79-9.25,6.04-13.76l1.5-2.99,2.23,.31c2.58,.36,5.16,.78,7.74,1.34,2.58,.54,5.16,1.14,7.74,1.99l.36,.12,.2,.27Z"/><path class="cls-1" d="M116.68,78.23l-1.55-.37c-2.1-.5-3.51-1.29-4.72-2.17-1.17-.9-2.05-1.91-2.71-3.03-.72-1.09-.87-2.42-.5-3.98,.34-1.54,.87-3.16,.63-4.46l3.63-.15c-.67,1.09-.84,2.34-.66,3.71,.22,1.38,.74,2.86,.97,4.25,.23,1.39,.03,2.63-.02,3.92-.09,1.28-.21,2.55-.66,3.71l-6.16-8.54c1.79,.09,3.58,.71,5.37,1.59,.45,.23,.9,.48,1.35,.79,.45,.28,.89,.57,1.34,.93,.9,.67,1.79,1.49,2.69,2.58l.99,1.21Zm-.99,0c-.89,1.09-1.79,1.91-2.69,2.58-.45,.37-.9,.66-1.34,.93-.45,.3-.9,.56-1.35,.79-1.79,.88-3.58,1.5-5.37,1.59l-8.63,.42,2.46-8.95c.33-1.2,.99-2.29,1.68-3.37,.73-1.07,1.31-2.18,2.32-3.16,1.02-.97,2.31-1.85,3.32-2.83,.96-.99,1.58-2.1,1.69-3.37l.4-4.59,3.23,4.44c.77,1.06,2.31,1.8,3.66,2.62,1.38,.81,2.25,1.83,2.53,3.1,.35,1.25,.48,2.59,.32,4.05-.19,1.48-.6,3.04-1.69,4.91l-.34,.58-.22,.26Z"/></g><path class="cls-1" d="M138.08,97.9c-1.63-4.07-2.72-8.16-3.63-12.26-.87-4.1-1.5-8.22-1.95-12.33-.42-4.12-.79-8.24-.61-12.39,.14-4.14,.88-8.31,1.5-12.48l.56-3.74,2.51,.38c4.58,.69,9.14,1.01,13.67,.75l1.83-.11,.07,1.86c.14,3.41,.46,6.82,1.07,10.22,.55,3.4,1.32,6.79,1.98,10.19,.67,3.4,1.22,6.8,1.57,10.2l1.04,10.22-6.55-5.9c2.53-.34,5.06-.66,7.59-.88,2.54-.24,5.08-.39,7.62-.47l6.73-.19,.11,6.29c.03,1.5-.02,3-.05,4.5-.02,1.5-.1,3-.16,4.5l-.27,6.26-5.25-.22c-2.39-.1-4.78-.25-7.17-.44-2.39-.18-4.79-.45-7.18-.75-2.39-.26-4.8-.67-7.2-1.07-2.4-.44-4.81-.91-7.22-1.57l-.45-.12-.18-.45Zm1.42-.9c2.07-.75,4.12-1.4,6.2-1.98,2.35-.63,4.7-1.26,7.07-1.74,2.36-.53,4.72-1.02,7.08-1.43,2.36-.42,4.73-.79,7.09-1.12l-5.52,6.04c-.19-1.49-.4-2.98-.54-4.47-.16-1.49-.33-2.98-.43-4.48l6.84,6.1c-2.53,.29-5.07,.49-7.61,.61-2.54,.14-5.09,.18-7.64,.2l-6.76,.06,.21-5.96,.36-10.27c.13-3.42,.45-6.85,.89-10.29,.43-3.43,.98-6.87,1.3-10.3,.38-3.43,.47-6.85,.39-10.27l1.91,1.75c-4.54,.18-9.05,.94-13.53,2.07l3.07-3.36c.96,4.1,2.04,8.19,2.53,12.31,.53,4.11,.5,8.26,.42,12.4-.11,4.14-.39,8.29-.92,12.45-.53,3.88-1.25,7.76-2.39,11.67Z"/><g><path class="cls-1" d="M204.08,84.41c-2.42,.76-4.83,1.36-7.25,1.86-2.58,.56-5.16,.98-7.74,1.34l3.73-2.68c-.92,4.95-2.1,9.82-3.49,14.62l-1.33,4.6-5.09-1.19c-4.08-.95-8.14-1.96-12.07-3.46l-5.73-2.2,2.31-4.65c1.85-3.75,4.12-7.33,6.3-10.95,2.18-3.62,4.24-7.29,5.88-11.12,1.63-3.83,3.01-7.77,4.15-11.8,1.13-4.03,2.02-8.16,2.96-12.26l.52-2.26,3.48-.28c3.38-.27,6.76-.48,10.13-.55l2.81-.06,1.66,3.26c1.86,3.64,3.63,7.32,5.45,10.98,1.8,3.67,3.55,7.36,5.17,11.1,3.17,7.52,5.82,15.25,8.14,23.13l1.64,5.58-4.58,1.14c-3.26,.82-6.58,1.49-9.89,2.16l-4.04,.82-.68-2.94c-.28-1.2-.5-2.42-.76-3.63-.26-1.21-.49-2.42-.69-3.65-.41-2.28-.74-4.59-.99-6.93Zm1.05-.95c1.55,2,2.97,4.05,4.33,6.13,.7,1.03,1.36,2.08,2.01,3.13,.65,1.05,1.32,2.09,1.94,3.16l-4.72-2.11c2.97-1.62,5.94-3.25,8.96-4.73l-2.94,6.73c-3.98-7.18-7.63-14.49-10.76-22.03-1.53-3.78-2.92-7.62-4.28-11.48-1.33-3.86-2.71-7.71-3.99-11.59l4.48,3.2c-3.33-.51-6.65-1.16-9.97-1.87l4-2.54c-2.1,3.65-4.25,7.29-6.15,11.01-1.9,3.73-3.56,7.55-4.97,11.48-1.4,3.93-2.37,8.02-3.23,12.15-.86,4.14-1.63,8.31-2.81,12.32l-3.43-6.85c4.14,.72,8.15,1.94,12.14,3.22l-6.41,3.41c1.79-4.66,3.79-9.25,6.04-13.76l1.5-2.99,2.23,.31c2.58,.36,5.16,.78,7.74,1.34,2.58,.54,5.16,1.14,7.74,1.99l.36,.12,.2,.27Z"/><path class="cls-1" d="M202.85,78.23l-1.55-.37c-2.1-.5-3.51-1.29-4.71-2.17-1.17-.9-2.05-1.91-2.71-3.03-.72-1.09-.87-2.42-.5-3.98,.34-1.54,.87-3.16,.63-4.46l3.63-.15c-.67,1.09-.84,2.34-.66,3.71,.22,1.38,.74,2.86,.97,4.25,.23,1.39,.03,2.63-.02,3.92-.09,1.28-.21,2.55-.66,3.71l-6.16-8.54c1.79,.09,3.58,.71,5.37,1.59,.45,.23,.9,.48,1.35,.79,.45,.28,.89,.57,1.34,.93,.9,.67,1.79,1.49,2.69,2.58l.99,1.21Zm-.99,0c-.89,1.09-1.79,1.91-2.69,2.58-.45,.37-.9,.66-1.34,.93-.45,.3-.9,.56-1.35,.79-1.79,.88-3.58,1.5-5.37,1.59l-8.62,.42,2.46-8.95c.33-1.2,.99-2.29,1.68-3.37,.73-1.07,1.31-2.18,2.32-3.16,1.02-.97,2.31-1.85,3.32-2.83,.96-.99,1.58-2.1,1.69-3.37l.4-4.59,3.23,4.44c.77,1.06,2.31,1.8,3.66,2.62,1.38,.81,2.25,1.83,2.53,3.1,.35,1.25,.48,2.59,.32,4.05-.19,1.48-.6,3.04-1.69,4.91l-.34,.58-.22,.26Z"/></g><path class="cls-1" d="M236.92,71.72c.22,1.15,.48,2.3,.69,3.46l1.2,7.53c.72,5.02,1.31,10.04,1.78,15.06l.39,4.15-4.78,.35c-4.47,.33-8.93,.56-13.39,.74l-4.94,.2-.2-5.33c-.16-4.16-.25-8.31-.3-12.47-.03-4.16,.07-8.32,.32-12.47,.47-8.31,1.67-16.63,2.41-24.94l.27-2.96,2.45,.25c3.37,.34,6.75,.56,10.12,.72l1.12,.05,.51,.79c3.48,5.44,7.25,10.69,11.18,15.82,3.94,5.12,8.14,10.06,12.34,15.01l-6.48,2.21-1.1-7.77c-.39-2.59-.67-5.18-1-7.77-.63-5.18-1.05-10.38-1.51-15.57l-.48-5.48,5.93-.46,11.46-.89,6.01-.47,.34,6.48c.42,8.07,.72,16.15,.73,24.23,.02,8.08-.22,16.16-.56,24.24l-.22,5.46-4.86,.13c-3.14,.08-6.3,.05-9.44,.08l-3.08,.02-1.26-2.05c-1.59-2.58-3.13-5.19-4.63-7.83-1.53-2.62-3.04-5.26-4.49-7.93-2.29-4.11-4.4-8.32-6.5-12.57Zm-.93-4.4c4.39,4.3,8.55,8.76,12.6,13.3,2.05,2.25,4.04,4.55,6.01,6.85,2,2.29,3.96,4.6,5.87,6.95l-4.34-2.03c3.11-.46,6.22-.98,9.34-1.38l-5.09,5.58c-.59-8.07-1.09-16.14-1.33-24.22-.25-8.07-.21-16.15-.04-24.24l6.35,6.01-11.5,.02,5.44-5.94c.04,5.21,.12,10.42-.01,15.64-.08,2.61-.11,5.22-.25,7.83l-.36,7.84-.57,12.6-5.91-10.38c-3.21-5.64-6.42-11.27-9.89-16.72-3.48-5.44-7.13-10.77-11.05-15.91l1.63,.85c-3.37,.16-6.75,.38-10.12,.72l2.71-2.71c.74,8.31,1.94,16.63,2.41,24.94,.25,4.16,.35,8.31,.32,12.47-.06,4.16-.15,8.31-.3,12.47l-5.14-5.14c4.46,.18,8.93,.41,13.39,.74l-4.4,4.5c.24-5.04,.6-10.08,1.08-15.13l.85-7.57c.34-2.52,.68-5.05,1.16-7.58l.23-1.21,.87,.85Z"/><path class="cls-1" d="M277.39,83.29c1.11,.53,2.16,1.01,3.21,1.45,1.04,.45,2.11,.79,3.09,1.06,.97,.26,1.93,.34,2.55,.17,.63-.17,.77-.45,.97-.8l-.28,.25c-.09,0-.46,.34-.58,.92-.06,.27-.06,.53-.04,.7,0,.04,0,.08,.01,.12,.02,.06-.03-.05,.05,.15l-.04-.07c-.05-.09-.12-.21-.1-.13-.06,.09-.48-.37-.88-.58-1.23-.89-2.09-1.33-3.69-2.24-1.4-.83-2.74-1.54-4.23-2.44l-2.21-1.37c-.85-.56-1.64-1.13-2.55-1.98l.43,.38c-2.7-2.02-4.69-4.14-6.61-7.49-.43-.82-.76-1.58-1.07-2.49l-.16-.48-.22-.76c-.16-.54-.24-.97-.31-1.41-.09-.44-.13-.87-.18-1.31l-.04-.33-.03-.38-.03-.62c-.04-1.12,.06-1.94,.19-2.87,.07-.45,.16-.88,.25-1.31l.16-.63,.15-.56,.05-.11,.09-.23,.51-1.22c.2-.43,.39-.81,.61-1.2,.87-1.53,2.01-2.98,3.21-4.07,2.47-2.33,5.38-3.82,8.26-4.73,5.78-1.86,11.65-1.4,16.88-.8,5.43,.55,10.88,2.08,15.74,5.29l1.57,1.03-.98,2.04c-1.94,4.07-3.67,8.26-5.48,12.41l-1.69,3.89-4.5-3.13c-.61-.42-1.21-.83-1.87-1.15-.32-.18-.66-.32-.99-.48-.05-.01-.25-.13-.17-.06l-.32-.14-.64-.3c-.6-.2-1.28-.45-1.99-.62-.13-.02-.45-.13-.41-.09l-.69-.15c-.49-.11-.57-.07-.89-.12-.31-.01-.62-.06-.92-.05-.13,0-.35-.01-.4,0h-.35l-.11,.02c-.42,.05-.81,.17-1.02,.28-.35,.15,.06,.04-.02,.09,.03,.01,.06,0,.08,.03v.02h0c-.15,.2,.21-.26,.16-.2v.02l-.11,.15c-.26,.36,.09-.05,.1-.1,.06-.06,.08-.04,.08,.03l.02,.41v.03c.02-1.02,0-.27,0-.49v.06l.02,.18c0,.12,.02,.26,.03,.2,0-.04,.03,0,.05,.06,.04,.09,.08,.13,.11,.14,.02,0,.03,0,.04,0h0c-.05-.09,.11,.2-.11-.2v.02l.04,.04,.1,.15,.19,.29c.17,.27,.18,.22,.21,.25,.03,.02,.05,.05,.15,.14,.15,.16,.33,.31,.51,.47,.08,.05,.72,.62,.81,.64l.74,.53,2.15,1.37,1.17,.76,1.29,.87,1.15,.8,1.35,1.04,.67,.54,.68,.6,.27,.24,.41,.4,.78,.8c.43,.5,.88,.99,1.27,1.53l.3,.4,.15,.2,.25,.39,.37,.6c.29,.5,.83,1.48,1.07,2.08,.28,.65,.53,1.3,.73,1.96l.15,.49,.11,.39,.04,.17,.23,1.06c.15,.83,.19,1.49,.22,2.2,.04,1.42-.04,2.62-.25,3.97l-.19,1.04c-.08,.44-.18,.75-.28,1.12-.21,.73-.49,1.46-.84,2.18-.34,.72-.77,1.44-1.25,2.11l-.17,.24-.05,.07-.11,.13-.27,.33c-.28,.34-.58,.68-.82,.93-1.03,1.08-2.27,2-3.57,2.71-.55,.3-.45,.22-.85,.42-.37,.17-.75,.34-1.05,.45-.64,.25-1.29,.45-1.93,.62-.65,.16-1.29,.28-1.93,.36l-.24,.03-.28,.04h-.09l-.35,.02-.72,.04c-1.4,.06-2.58,.02-3.74-.13l-.93-.12-.71-.13c-.62-.11-1.18-.24-1.71-.37l-.92-.26-.66-.24-1.48-.56c-4.01-1.64-7.4-3.83-10.47-6.54l-2.11-1.87,1.24-1.56c1.06-1.33,2.09-2.69,3.18-4l1.63-1.97,.84-.99,.41-.48,.2-.24,.1-.11,.04-.05h.02s-.03,.11-.02,.17l1-.46Zm-.1,1.81l-.05,.2-.33,1.24-.73,2.47c-.49,1.65-1.05,3.25-1.57,4.88l-.87-3.42c3.19,1.37,6.66,2.32,9.8,2.8,.48,.05,2.01,.25,2.38,.2,.39,.02,.75,.02,1.06,0h.68c.06-.03,.32-.04,.47-.06,.7-.05,1.39-.2,1.85-.32l.67-.17,.34-.09,.08-.02h.02c-.07,0,.19-.04-.16,.02h.03l.1-.05c.28-.09,.53-.22,.78-.34,.24-.12,.47-.24,.68-.38,.13-.07,.16-.12,.21-.16,.01-.02,.52-.33,.37-.27,.29-.27,.52-.54,.72-.86,.07-.09,.06-.12,.07-.14l.15-.23,.09-.15,.05-.07c.08-.12-.1,.14-.08,.11h0v-.02c.03-.11,.06-.21,.08-.34l.07-.46c0-.08,.04-.22,.02-.25,0-.05,0-.03,.02-.35,.02-.5,0-1.18-.08-1.62-.04-.21-.1-.49-.14-.57v-.02l-.09-.28-.05-.17v-.04l-.02-.02s.09,.32,.04,.16l-.02-.04-.07-.17c-.08-.24-.19-.44-.29-.65-.14-.25-.06-.08-.23-.39l-.4-.58-.05-.07-.03-.04v-.02c-.05-.06,.28,.43,.14,.22l-.07-.08-.13-.16c-.16-.22-.35-.41-.52-.62l-.2-.2-.09-.1-.25-.22-.26-.23-.13-.12-.06-.06-.03-.03h-.02c.31,.25,.08,.05,.14,.11l-.42-.33-.85-.7-1.12-.83-2.15-1.55-2.45-1.82c-.47-.38-.91-.73-1.44-1.22-.64-.57-.67-.65-1.26-1.24-.48-.51-.94-1.03-1.37-1.61-.37-.45-1.07-1.54-1.25-1.89l-.49-.92c-.2-.42-.38-.84-.54-1.27-.3-.86-.5-1.72-.61-2.56-.05-.4-.09-.83-.11-1.33-.01-.29,0-.39,0-.5v-.17l.02-.6,.02-.14c.08-.74,.21-1.52,.44-2.36,.24-.84,.56-1.71,1.05-2.59,.25-.46,.82-1.28,.85-1.28l.11-.14,.2-.26,.06-.06,.12-.13c.16-.17,.3-.34,.48-.5,.66-.65,1.43-1.24,2.26-1.71,.72-.44,1.98-.93,2.53-1.05,1.58-.43,3.06-.53,4.51-.45l.59,.04,.35,.05c.42,.04,.66,.09,.99,.15,.63,.1,1.23,.27,1.84,.42,.58,.18,1.41,.42,1.81,.61l.64,.28c.48,.18,.59,.27,.89,.41,1.04,.5,2.03,1.09,3.07,1.76l1.27,.94c.45,.36,.89,.72,1.31,1.12,.86,.77,1.63,1.63,2.36,2.51l-6.19,.76c2.74-3.6,5.55-7.16,8.16-10.83l.59,3.07c-3.33-3.3-8.23-5.1-13.15-5.32-2.48-.1-5.09-.03-7.37,.51-2.31,.57-4.51,1.5-6.35,2.78-3.72,2.45-5.72,6.37-5.67,9.05-.01,.37,.04,.85,.05,1.03l.04,.36v.12s.03,.16,0-.06v.04l.04,.16c.04,.21,.07,.43,.13,.62l.12,.5,.04,.18,.15,.44c.1,.32,.31,.76,.46,1.1,.57,1.22,2.02,3.16,3.4,4.35l.39,.33,.04,.05c.25,.3,.74,.76,1.21,1.16l1.8,1.46,3.86,3.12c1.09,.95,2.9,2.43,4.01,3.83,.78,.92,1.44,1.73,2.1,3.29,.11,.27,.12,.34,.15,.43l.02,.08c.1,.25,.06,.18,.1,.29l.1,.41c.12,.56,.16,1.24,.05,1.92-.21,1.39-1.02,2.47-1.7,3.04l-.35,.3,.07-.05c-1.62,1.14-3.88,1.53-5.58,1.17-1.71-.35-2.99-1.11-4.11-1.88-1.11-.77-2.01-1.71-2.86-2.62-.59-.63-1.08-1.35-1.58-2.04Z"/><path class="cls-1" d="M325.76,60.68c.57,2.49,1.06,4.97,1.5,7.46,.44,2.73,.89,5.46,1.25,8.2l-3.29-3.25c5.08-.61,10.16-1.06,15.24-1.39l4.32-.29,.36,4.97c.16,2.23,.27,4.45,.38,6.68l.25,4.82-5.31,.23c-4.99,.22-9.97,.37-14.96,.38l5.44-5.57c.06,1.81,.04,3.62,.04,5.43l-5.51-5.2c3.77,.02,7.54,.2,11.32,.47l11.33,.95,3.56,.3-.27,2.79c-.16,1.59-.24,3.18-.36,4.76-.12,1.59-.23,3.17-.29,4.76l-.09,2.45-2.12-.13c-5.96-.36-11.91-.29-17.85-.03-2.97,.14-5.94,.33-8.91,.62-2.97,.27-5.94,.58-8.91,.94l-2.82,.35-.39-3.46c-.93-8.29-2-16.58-2.49-24.88-.47-8.3-.97-16.6-1.32-24.9l-.27-6.2,6.6-.21c13.46-.44,26.93,.07,40.39,.98l5.76,.39-.4,4.97-.48,5.95c-.17,1.98-.29,3.97-.52,5.95l-.53,4.75-3.83-.39-6.89-.7-6.89-.84c-4.34-.6-8.68-1.24-13.03-2.09Zm-.75-1.33c4.59-.93,9.18-1.57,13.78-2.21l6.89-.84,6.89-.7-4.36,4.36c-.22-1.98-.34-3.97-.52-5.95l-.48-5.95,5.36,5.36c-13.46,.91-26.93,1.42-40.39,.98l6.34-6.42c-.15,8.31-.43,16.61-.69,24.92-.28,8.31-1.14,16.62-1.86,24.94l-3.21-3.11c2.98,.26,5.96,.46,8.94,.63,2.98,.19,5.96,.27,8.93,.31,5.95,.05,11.9-.08,17.84-.66l-2.21,2.32c-.15-1.58-.35-3.16-.57-4.74-.21-1.58-.39-3.16-.64-4.73l3.28,3.09-11.24,1.68c-3.75,.52-7.5,.94-11.26,1.2l-5.22,.36-.29-5.56c-.09-1.81-.21-3.62-.24-5.42l-.09-5.58h5.53c4.99,.01,9.97,.16,14.96,.39l-5.06,5.06c.11-2.23,.22-4.45,.38-6.68l4.68,4.68c-5.08-.33-10.16-.78-15.24-1.39l-3.59-.43,.3-2.82c.29-2.74,.67-5.48,1.04-8.22,.41-2.74,.85-5.49,1.44-8.23l.11-.51,.5-.1Z"/></g><g><path class="cls-2" d="M82.02,61.24c.21,1.02,.27,2.15,.17,3.38-.09,1.23-.35,2.45-.77,3.65-.42,1.21-1,2.35-1.74,3.44-.74,1.09-1.65,1.99-2.71,2.71-.58,.4-1.14,.73-1.69,.99-.54,.27-1.1,.5-1.65,.7-.56,.2-1.14,.38-1.74,.54-.6,.16-1.24,.33-1.91,.49,1.72,1,3.1,2.04,4.14,3.13,1.04,1.09,1.77,2.42,2.19,4,.21,.69,.31,1.45,.31,2.26s-.09,1.63-.28,2.45c-.19,.82-.48,1.62-.87,2.4-.4,.78-.89,1.47-1.5,2.07-1.02,1.02-2.26,1.82-3.7,2.4-1.45,.58-2.95,1.01-4.51,1.3-1.55,.29-3.06,.48-4.52,.56-1.46,.08-2.7,.13-3.72,.16h-12.9l-1.36-49.5,13.6-.73c.84,0,1.73,0,2.7,.02,.96,.01,2.01,.06,3.13,.16,1.12,.09,2.34,.24,3.63,.45,1.3,.21,2.7,.5,4.21,.87,1.48,.37,2.89,.94,4.21,1.71,1.32,.76,2.49,1.68,3.51,2.75,1.02,1.07,1.85,2.25,2.5,3.55,.65,1.3,1.07,2.67,1.25,4.11Zm-25.29,10.78c.25,0,.77,.04,1.53,.1,.77,.07,1.64,.09,2.63,.05,.99-.04,2.01-.15,3.08-.35,1.07-.2,2.04-.54,2.91-1.04,.87-.5,1.56-1.18,2.07-2.04,.51-.86,.72-1.98,.63-3.37-.12-1.27-.51-2.31-1.18-3.1-.67-.79-1.58-1.38-2.73-1.77-1.15-.4-2.49-.63-4.03-.7-1.54-.07-3.24-.02-5.1,.14l.21,12.07Zm.66,18.51c.35,.02,.85,.05,1.51,.09,.66,.04,1.38,.03,2.16-.02,.78-.05,1.57-.14,2.36-.28,.8-.14,1.51-.38,2.12-.73,.61-.35,1.1-.81,1.46-1.38,.36-.57,.49-1.29,.4-2.17-.14-1.25-.57-2.19-1.3-2.8-.73-.61-1.6-1.03-2.61-1.25-1.01-.22-2.07-.3-3.18-.24-1.11,.06-2.12,.13-3.03,.23l.1,8.56Z"/><path class="cls-2" d="M118.4,83.68h-15.48l-4.77,14.19-12.11-3.34,18.23-46.55,10.05,.66,18.89,45.16-9.43,3.44-5.39-13.57Zm-2.71-6.05l-6.05-14.16-4.7,14.16h10.75Z"/><path class="cls-2" d="M138.68,97.88l-2.05-49.57,13.6-.66,1.36,40.98,15.24-1.08,.38,8.98-28.52,1.36Z"/><path class="cls-2" d="M204.57,83.68h-15.48l-4.77,14.19-12.11-3.34,18.23-46.55,10.05,.66,18.89,45.16-9.43,3.44-5.39-13.57Zm-2.71-6.05l-6.05-14.16-4.7,14.16h10.75Z"/><path class="cls-2" d="M235.5,67.68l.69,30.2h-13.39V47.99h10.12l22.23,31.73-1.49-31.21,11.48-.45,.77,48.46-9.39,.73-21.01-29.57Z"/><path class="cls-2" d="M277,83.75c2.76,2.41,5.16,3.97,7.2,4.66,2.04,.7,3.74,.5,5.11-.59,.56-.56,.71-1.18,.45-1.88-.26-.7-.77-1.43-1.53-2.19-.77-.77-1.71-1.55-2.84-2.35-1.13-.8-2.26-1.59-3.41-2.36-1.15-.78-2.23-1.52-3.25-2.24-1.02-.72-1.82-1.37-2.4-1.95-.12-.09-.39-.32-.83-.7-.44-.37-.95-.87-1.51-1.5-.57-.63-1.15-1.37-1.76-2.23-.6-.86-1.11-1.83-1.53-2.9-.42-1.08-.7-2.26-.84-3.55-.14-1.29-.05-2.67,.28-4.16,.53-1.88,1.42-3.57,2.66-5.08,1.24-1.51,2.74-2.79,4.49-3.85,1.75-1.05,3.71-1.87,5.88-2.45,2.17-.58,4.44-.87,6.8-.87,2.02,0,3.9,.09,5.64,.28,1.74,.18,3.38,.49,4.92,.92,1.54,.43,3.02,.99,4.44,1.69,1.41,.7,2.8,1.57,4.14,2.61l-6.82,11.62c-1.02-1.04-2.19-1.97-3.5-2.78-1.31-.81-2.66-1.47-4.04-1.96-1.38-.5-2.74-.81-4.07-.92-1.33-.12-2.54,0-3.62,.33-1.08,.34-1.97,.94-2.68,1.81-.71,.87-1.11,2.05-1.2,3.53,0,1.28,.27,2.41,.8,3.39s1.23,1.89,2.09,2.73c.86,.83,1.83,1.62,2.92,2.37,1.09,.74,2.2,1.5,3.32,2.26,1.13,.77,2.21,1.58,3.25,2.45,1.04,.87,1.95,1.85,2.73,2.94,.78,1.09,1.37,2.32,1.77,3.69,.41,1.37,.53,2.95,.37,4.73-.16,1.72-.65,3.17-1.46,4.36-.81,1.2-1.82,2.15-3.03,2.87-1.21,.72-2.56,1.22-4.05,1.49-1.5,.28-3.02,.36-4.57,.24-.95-.07-1.89-.2-2.82-.38-.93-.18-1.83-.42-2.71-.69-.88-.28-1.73-.58-2.54-.9-.81-.32-1.57-.65-2.26-.97-1.65-.77-3.21-1.64-4.7-2.61,.88-1.65,1.67-3.12,2.36-4.42,.3-.56,.59-1.1,.87-1.63,.28-.53,.53-1.01,.75-1.43,.22-.42,.39-.75,.52-1.01,.13-.26,.19-.4,.19-.42Z"/><path class="cls-2" d="M325.01,59.96l.21,16.42h15.24v6.68h-14.96l.14,5.43,22.58-.73,.28,9.5-35.69,.63-.63-49.82h40.39v11.9h-27.55Z"/></g></g></g></g></g></g></svg>