<?xml version="1.0" encoding="UTF-8"?><svg xmlns="http://www.w3.org/2000/svg" viewBox="0 0 709 151.66"><defs><style>.cls-1{fill:#f2d265;}.cls-2,.cls-3,.cls-4{fill:#6d3415;}.cls-5{fill:#b66e29;}.cls-6{opacity:.6;}.cls-7{fill:#612c12;font-family:Arial-Black, 'Arial Black';font-size:106.75px;stroke:#f0cc5b;stroke-miterlimit:10;stroke-width:6px;}.cls-8{isolation:isolate;}.cls-9{fill:#fff;mix-blend-mode:overlay;opacity:.3;}.cls-3{opacity:.51;}.cls-4{opacity:.67;}</style></defs><g class="cls-8"><g id="Layer_2"><g id="Layer_1-2"><g><path class="cls-2" d="M699.8,9.69c-20.79-.97-128.08-1.99-148.88-2.77l-31.2-1.26-31.2-1.12c-41.6-1.41-164.93-2.45-206.57-2.97l-87.64-.79c-20.83-.21-41.64-.51-62.47-.63C90.19-.24,48.52,.24,6.85,.44L0,.47,1.15,5.53c2.53,11.06,4.89,22.12,7.26,33.19,2.32,11.07,4.54,22.16,6.72,33.25,2.12,11.1,4.2,22.2,6.09,33.33,1.95,11.12,3.68,22.26,5.37,33.4l.39,2.6,3.46,.11c9.67,.3,19.33,.63,29,1.04,9.66,.39,19.33,.76,29,1.22,19.33,.86,38.66,1.81,57.99,2.55,19.33,.8,38.67,1.41,58,1.79,19.34,.42,63.87,.47,83.21,.57,38.69,.13,159.07-.05,197.78-.71,38.7-.74,163.9-1.64,202.62-3.69l.98-.05,.14-.77c1.9-10.5,3.67-21.01,5.37-31.53,1.65-10.52,3.35-21.04,4.85-31.56,1.57-10.53,3.12-21.05,4.53-31.58,1.43-10.53,2.96-21.05,4.25-31.6l.85-6.97-9.2-.43Zm-18.31,99.13c-.83,8.75-1.75,17.49-2.77,26.23-36.57-1.06-159.59-3.06-196.13-4.64l-28.29-1.09c-9.43-.32-100.56-.56-109.99-.79-18.86-.41-37.74-.54-56.6-.61-37.75-.13-100.68,.04-138.43,.71-37.43,.74-74.85,1.68-112.3,3.73-.86-10.1-1.83-20.19-2.89-30.27-1.13-10.34-2.23-20.69-3.51-31.01l-1.84-15.49-2-15.48c-.97-7.51-1.95-15.01-2.97-22.51l20.27,.97c10.11,.48,20.22,.85,30.32,1.28l30.32,1.24,30.32,1.08c40.43,1.36,106.07,2.34,146.54,2.78l30.35,.4,30.35,.32c20.24,.22,122.16,.44,142.4,.55,38.7,.25,163.91-.25,202.64-.47-.4,8.24-.86,16.47-1.29,24.69-.67,9.74-1.25,19.48-2.01,29.22-.75,9.73-1.57,19.46-2.5,29.19Z"/><polygon class="cls-5" points="685.11 140.75 33.23 135.77 10.34 7.51 696.16 19.03 685.11 140.75"/><path class="cls-3" d="M36.1,104.72s402.8-5.58,430.16-4.6c27.36,.97,193.72,13.93,193.72,13.93l26.57-5.17,5.61,.31-4.74,33.13H201.74l-172.6-3.15-5.64-34.45h12.59Z"/><polygon class="cls-4" points="689.7 18.88 679.68 129.21 31.17 124.27 33.23 135.77 685.11 140.75 696.16 19.03 689.7 18.88"/><polygon class="cls-1" points="19.55 17.94 84.79 15.61 695.45 26.85 696.16 19.03 10.34 7.51 33.23 135.77 42.85 135.87 19.55 17.94"/><polygon class="cls-2" points="24.15 99.31 11.92 34.79 117.27 39.35 14.03 28.16 8.76 20.6 24.94 112.87 283.01 102.46 24.15 99.31"/><g class="cls-6"><path class="cls-2" d="M243.97,48.83c-99.93,3.84-189.05,25.68-207.87,26.27-18.82,.59,43.34,3.95,134.01,7.3,90.66,3.36,302.98,9.59,336.86,2.88,33.89-6.71,42.7-8.79,42.7-8.79,0,0-79.31,6.39-103.05,6.39s-264.92-7.41-288.77-7.78c-23.85-.37-53.19-2.29-53.19-2.29,0,0,148.61-22.97,209.52-18.68,60.9,4.29,194.05,13.12,190.29,14.22-3.76,1.1-51.79,.82-60.41,0-8.62-.82-187.05-6.57-207.13-3.69-20.09,2.88,51.49,7.19,77.25,7.67,25.75,.48,170.2,5.06,190.29,2.77,20.08-2.29,20.02-6.75,20.02-6.75l135.5,2.54s-316.08-25.9-416.01-22.06Z"/><text/><path class="cls-9" d="M109.5,73.11s128.13,3.06,179.55,8.57c51.42,5.51,210.59-1.49,210.59-1.49-32.79,2.37-183.56-2.59-210.59-5.09-27.03-2.51-179.55-1.99-179.55-1.99Z"/></g><polygon class="cls-9" points="140.82 109.93 34.02 116.24 34.02 135.78 29.15 112.87 207.38 104.72 140.82 109.93"/><path class="cls-9" d="M123.98,40.3c-1.58-.21-108.75-5.37-108.75-5.37l4.34,24.32s6.02,.97,4.97,.89c-1.05-.08-4.16,3.64-4.01,4.47,.15,.83,5.85-1.81,6.91-2.44,1.05-.63,1.3-6.61,1.3-6.61,0,0-4.98-3.49-4.98-4.54v-9.4l100.23-1.33Z"/></g><text class="cls-7" transform="translate(68.87 115.92) scale(.97 1)"><tspan x="0" y="0">CASHOUT</tspan></text></g></g></g></svg>