<?xml version="1.0" encoding="UTF-8"?><svg id="Layer_2" xmlns="http://www.w3.org/2000/svg" xmlns:xlink="http://www.w3.org/1999/xlink" viewBox="0 0 291.88 216.07"><defs><style>.cls-1{fill:none;}.cls-2{clip-path:url(#clippath);}.cls-3{fill:#e6b555;}.cls-4{fill:#a05f26;}.cls-5,.cls-6{fill:#622e10;}.cls-7,.cls-6{opacity:.5;}</style><clipPath id="clippath"><path class="cls-1" d="M158.23,209.69L289.12,23.67c7-9.95-.12-23.67-12.29-23.67H15.05C2.88,0-4.24,13.71,2.76,23.67L133.65,209.69c5.98,8.5,18.59,8.5,24.57,0Z"/></clipPath></defs><g id="Layer_1-2"><g class="cls-2"><g><g><path class="cls-4" d="M-164.84,91.92L-69.22-1129.12s126.47-11.37,129.52,0c3.05,11.37-34.67,1259.7-34.67,1259.7l-79.24,40.94-7.62-70.5-41.14,97.8-82.28-36.39,19.81-70.5Z"/><path class="cls-3" d="M14.82,98.47l-71.94,40.56,3.51,32.49L25.63,130.58S63.35-1117.75,60.31-1129.12c-.52-1.93-4.61-3.21-11.03-3.99C45.4-979.41,14.82,98.47,14.82,98.47Z"/><g class="cls-7"><path class="cls-5" d="M-161.95,172.46l19.81-70.5L-46.52-1119.08s69.87-6.28,107-4.83c0-2.99-.06-4.76-.17-5.2-3.05-11.37-129.52,0-129.52,0L-164.84,91.92l-19.81,70.5,22.7,10.04Z"/></g><g><path class="cls-6" d="M-14.75-688.56c1.87,26.57-11.46,131.82-14.42,154.92-2.39,18.59-4.21,429.97-6.26,454.06l-9.44,144.6S-20.11-501.02-16.77-532.09c3.33-31.08,22.04-226.46,24.57-252.37,2.4-24.62,29.92-302.23,32.32-328.32-1.33-.24-4.92,22.66-7.74,31.51-6.21,19.43-23.41,144.99-25.51,170.72-2.1,25.74-23.48,195.42-21.61,221.99Z"/><path class="cls-6" d="M-9.8,143.29S6.98-12.29,10.79-95.61c3.81-83.32,19.03-566.91,19.03-566.91C29.83-662.52-10.41,8.58-10.68,12.94c-5.05,81.26,.88,130.35,.88,130.35Z"/><path class="cls-3" d="M-18.66,21.71C-14.13-33.93,28.35-654.28,28.35-654.28c0,0-38.87,665.3-40.39,694.51-1.51,29.21,1.55,108.6,1.55,108.6,0,0-12.72-71.47-8.18-127.11Z"/></g></g><g><path class="cls-4" d="M2044.34,153.19s-418.53-14.22-1066.65,54.86c-648.12,69.08-1181.32,24.38-1181.32,24.38V106.46s71.11-10.16,65.01-14.22c-6.1-4.06-54.86-28.44-54.86-28.44l4.06-107.68s1254.46,18.29,1565.31,12.19c310.85-6.1,656.24,4.06,656.24,4.06l12.19,30.48-58.92,16.25,93.46,28.44-34.54,105.65Z"/><path class="cls-3" d="M2029.72,144.01s-418.53-14.22-1066.65,54.86c-498.33,53.11-1126.76,38.96-1166.7,29.59v3.98s533.2,44.7,1181.32-24.38c648.12-69.08,1066.65-54.86,1066.65-54.86l34.54-105.65-16.03-4.88-33.13,101.34Z"/><g class="cls-7"><path class="cls-5" d="M-153.65-24.79S1100.81-6.5,1411.66-12.6c257.68-5.05,539.09,1.06,627.82,3.3l-7.33-18.34s-345.39-10.16-656.24-4.06c-310.85,6.1-1565.31-12.19-1565.31-12.19l-4.06,107.68s19.84,9.92,35.79,18.16l4.03-106.75Z"/></g><path class="cls-6" d="M1183.78,91.28c-49.79,9.58-262.06,2.94-308.68,1.41-37.52-1.24-160.44,8.06-208.3,8.69L-102.86,111.34s921.74,7.65,983.98,8.32c62.24,.66,451.92,0,503.63,0s603.49,1.07,655.46,.77c-.51-2.91-47.18-5.82-66.28-10.04-41.92-9.27-296.09-19.97-347.15-19.1-51.07,.87-393.22-9.59-443,0Z"/><path class="cls-6" d="M-84.33,51.94s720.95,36.57,796.64,33.09c75.7-3.47,169.96-12.19,242.78-20.9,72.84-8.71,249.92-42.33,332.74-39.45,82.85,2.88,315.62-4.09,315.62-4.09,0,0-344.17-13.07-397.01-11.32-52.85,1.74-304.19,45.21-387.02,50.04-82.83,4.83-122.82-11.72-189.94-16.07-67.13-4.36-747.24-2.87-747.24-2.87l33.41,11.58Z"/><path class="cls-6" d="M-34.18,52.37s704.37,29.62,737.92,28.74c33.57-.87,128.54-15.66,121.39-14.36-7.13,1.3-125.66-.96-159.94-7.45-34.27-6.49-699.37-6.93-699.37-6.93Z"/><path class="cls-6" d="M-152.88,209.26s674.57-4.88,773.58-18.53c99.01-13.65,264.79-16.58,264.79-16.58,0,0-881.97-1.42-887.19-.86-97.28,10.47-151.18,35.96-151.18,35.96Z"/><path class="cls-3" d="M-16.24,158.55c67.2-4.88,891.34,14.61,891.34,14.61,0,0-874.48-.03-909.28,4.38-34.81,4.41-125.5,31.71-125.5,31.71,0,0,76.23-45.83,143.44-50.71Z"/></g></g></g></g></svg>