<?xml version="1.0" encoding="utf-8"?>
<!-- Generator: Adobe Illustrator 26.3.1, SVG Export Plug-In . SVG Version: 6.00 Build 0)  -->
<svg version="1.1" id="Layer_1" xmlns="http://www.w3.org/2000/svg" xmlns:xlink="http://www.w3.org/1999/xlink" x="0px" y="0px"
	 viewBox="0 0 2282.5 1380.8" style="enable-background:new 0 0 2282.5 1380.8;" xml:space="preserve">
<style type="text/css">
	.st0{fill:#351906;}
	.st1{fill:#8B5526;}
	.st2{fill:#9F5E26;}
	.st3{fill:#E6B554;}
	.st4{opacity:0.5;}
	.st5{fill:#632A02;}
	.st6{opacity:0.5;fill:#632A02;enable-background:new    ;}
	.st7{fill:#512303;}
	.st8{fill:#6D717E;}
	.st9{fill:#242833;}
	.st10{opacity:0.39;fill:#FFFFFF;enable-background:new    ;}
	.st11{fill:#FFFFFF;}
	.st12{opacity:0.36;}
	.st13{fill:#602C08;}
	.st14{fill:#773E17;}
	.st15{opacity:0.71;}
	.st16{fill:#2B1303;}
	.st17{opacity:0.76;}
	.st18{fill:#593C12;}
	.st19{fill:#D39D3B;}
	.st20{fill:#91671E;}
	.st21{fill:#F5C15E;}
</style>
<g>
	<g id="Layer_2_00000124126665539673487930000009550355047168454058_">
		<g id="Layer_33">
			<path id="DARK_DIVIDER" class="st0" d="M1470.1,473.3l-0.4-135.9l-0.7-135.9v-2.4l-1.7,0l-17,0.2l-1.6,0v2.2l0.3,68l0.2,34
				l0.1,34c0.1,45.3,0.2,90.6,0,135.9l-0.2,67.9l-0.4,68l-0.8,135.9c-0.2,45.3-0.3,90.6-0.2,135.9l0.3,135.9
				c0,45.3,0.4,90.6,0.6,135.9c0.2,45.3,0.7,90.6,1.1,135.9v0.8h0.6l17.3-0.4v-0.4c1-90.6,1.5-181.2,2-271.8
				c0.3-90.6,0.8-181.2,0.8-271.8l0-135.9L1470.1,473.3L1470.1,473.3z"/>
			<path id="DARK_DIVIDER-2" class="st0" d="M849.8,472.7l-0.4-135.9l-0.7-135.9v-2.4l-1.7,0l-16.8,0.2l-1.6,0v2.2l0.3,68l0.2,34
				l0.1,34c0.1,45.3,0.2,90.6,0,135.9l-0.2,67.9l-0.4,68L828,744.5c-0.2,45.3-0.3,90.6-0.2,135.9l0.3,135.9
				c0,45.3,0.4,90.6,0.6,135.9c0.2,45.3,0.7,90.6,1.1,135.9v0.8h0.6l17-0.4v-0.4c0.9-90.6,1.5-181.2,2-271.8
				c0.3-90.6,0.7-181.2,0.8-271.8l0-135.9L849.8,472.7L849.8,472.7z"/>
			<path id="LIGHT_DIVIDER" class="st1" d="M861.6,475.8l-0.4-135.9l-0.7-135.9v-2.4l-1.8,0l-17.5,0.2l-1.7,0v2.2l0.3,68l0.2,34
				l0.1,34c0.1,45.3,0.2,90.6,0,135.9l-0.2,67.9l-0.4,68l-0.8,135.9c-0.2,45.3-0.3,90.6-0.2,135.9l0.3,135.9
				c0,45.3,0.4,90.6,0.7,135.9c0.2,45.3,0.7,90.6,1.1,135.9v0.8h0.6l17.8-0.4v-0.4c1-90.6,1.5-181.2,2-271.8
				c0.3-90.6,0.8-181.2,0.9-271.8l0-135.9L861.6,475.8L861.6,475.8z"/>
			<path id="LIGHT_DIVIDER-2" class="st1" d="M1489.1,473.3l-0.4-135.9l-0.7-135.9v-2.4l-1.8,0l-17.2,0.2l-1.6,0v2.2l0.3,68l0.2,34
				l0.1,34c0.1,45.3,0.2,90.6,0,135.9l-0.2,67.9l-0.4,68l-0.8,135.9c-0.2,45.3-0.3,90.6-0.2,135.9l0.3,135.9
				c0,45.3,0.4,90.6,0.6,135.9c0.2,45.3,0.7,90.6,1.1,135.9v0.8h0.6l17.5-0.4v-0.4c1-90.6,1.5-181.2,2-271.8
				c0.3-90.6,0.8-181.2,0.8-271.8l0-135.9L1489.1,473.3L1489.1,473.3z"/>
		</g>
		<g id="FRAME">
			<g>
				<g>
					<g>
						<path class="st2" d="M2243.7,154.7l-95.6,1221c0,0-126.5,11.4-129.5,0s34.7-1259.7,34.7-1259.7l79.2-40.9l7.6,70.5l41.1-97.8
							l82.3,36.4L2243.7,154.7L2243.7,154.7z"/>
						<g>
							<polygon class="st3" points="2145,186.1 2192.1,79.9 2256.7,108.5 2263.5,84.2 2181.2,47.8 2140.3,145.2 							"/>
							<path class="st3" d="M2064.1,148.2l71.9-40.6l-3.5-32.5l-79.2,40.9c0,0-37.7,1248.3-34.7,1259.7c0.5,1.9,4.6,3.2,11,4
								C2033.5,1226.1,2064.1,148.2,2064.1,148.2L2064.1,148.2z"/>
						</g>
						<g class="st4">
							<path class="st5" d="M2240.8,74.2l-19.8,70.5l-95.6,1221c0,0-69.9,6.3-107,4.8c0,3,0.1,4.8,0.2,5.2c3.1,11.4,129.5,0,129.5,0
								l95.6-1221l19.8-70.5L2240.8,74.2L2240.8,74.2z"/>
							<polygon class="st5" points="2124.9,204.6 2146.1,131.4 2140.1,145.6 2132.5,75.1 2112,85.7 							"/>
						</g>
						<g>
							<path class="st6" d="M2093.6,935.2c-1.9-26.6,11.5-131.8,14.4-154.9c2.4-18.6,4.2-430,6.3-454.1l9.4-144.6
								c0,0-24.8,566-28.1,597.1c-3.3,31.1-22,226.5-24.6,252.4c-2.4,24.6-29.9,302.2-32.3,328.3c1.3,0.2,4.9-22.7,7.7-31.5
								c6.2-19.4,23.4-145,25.5-170.7C2074.1,1131.5,2095.5,961.8,2093.6,935.2L2093.6,935.2z"/>
							<path class="st6" d="M2215.6,95.8c0,0-31.9,129.1-35.3,173.3c-3.4,44.2-5.8,448.3-6.7,491.8c-0.9,43.5,2.4,151.7-4.3,198.8
								c-6.7,47.1-19,182.3-19,182.3s28.5-195.5,31.2-226.2c2.7-30.7-0.1-531.7,3.2-580.2c3.3-48.5,13.3-68.4,19.7-106.2
								c6.4-37.8,18.6-150.6,18.6-150.6L2215.6,95.8L2215.6,95.8z"/>
							<path class="st6" d="M2212.1,124.6c0,0-27.7,120.9-29.5,140.4c-1.8,19.5-1.5,76.9-1.6,72.5c-0.1-4.4,8.7-72.1,13.9-90.6
								C2200,228.4,2212.1,124.6,2212.1,124.6L2212.1,124.6z"/>
							<path class="st3" d="M2214.2,169.8c0,0-11.1,73.4-20.3,111.8c-9.2,38.4-7.9,419.8-8.1,447.1c-0.2,27.2-0.8,157.3-0.8,157.3
								s6.1-117.5,6.4-141.3c0.3-23.8-2-421.4,1.8-438.5C2196.9,289,2214.2,169.7,2214.2,169.8L2214.2,169.8z"/>
							<path class="st6" d="M2182.5,793.5c0,0-8.9,173.8-21.5,258.9c-12.5,85.1-6.8,63.9-14.9,112.6c-8.1,48.7-15.6,103-17.1,121.9
								c-1.5,18.9-3.5,61.3-3.5,61.3s12-103.9,17.8-126.6c5.8-22.8,26.4-193.2,29.1-237C2175,940.8,2182.5,793.5,2182.5,793.5
								L2182.5,793.5z"/>
							<g>
								<path class="st6" d="M2144.7,875.1c0,0-23.9,174.7-24.5,220.4s-26.1,248.9-26.1,248.9s9.3-52.6,12.1-77.3
									c2.7-24.7,16.7-144.7,18.7-167.9C2126.8,1076.1,2133.8,961.1,2144.7,875.1L2144.7,875.1z"/>
								<path class="st3" d="M2093.6,1345.2l12.1-71.6c0,0,16.2-145.6,16.8-150.9c0.6-5.3,10.1-126,10.1-126l10.9-128.1
									c0,0-11.9,184.8-14.5,216.2c-2.6,31.5-22.7,204.3-22.7,204.3L2093.6,1345.2L2093.6,1345.2z"/>
							</g>
							<path class="st6" d="M2088.7,103.4c0,0-16.8,155.6-20.6,238.9c-3.8,83.3-19,566.9-19,566.9s40.2-671.1,40.5-675.5
								C2094.6,152.5,2088.7,103.4,2088.7,103.4L2088.7,103.4z"/>
							<path class="st3" d="M2097.6,224.9c-4.5,55.6-47,676-47,676s38.9-665.3,40.4-694.5c1.5-29.2-1.6-108.6-1.6-108.6
								S2102.1,169.3,2097.6,224.9L2097.6,224.9z"/>
						</g>
					</g>
					<g>
						<polygon class="st2" points="2164.9,1214 2164.9,1270.4 2131.6,1280 2202.2,1290.2 2202.2,1356.1 99.9,1299.3 75.5,1244.5 
							127.4,1241.4 60.9,1233.8 60.9,1195.7 						"/>
						<g class="st4">
							<polygon class="st5" points="2151.4,1258.2 2081.8,1281.5 2133.4,1279.8 2131.6,1279.6 2164.9,1270 2164.9,1213.6 
								2151.4,1213.4 							"/>
							<polygon class="st5" points="2188.8,1287.8 2188.8,1343.8 94.8,1287.4 99.9,1298.9 2202.2,1355.6 2202.2,1289.8 							"/>
							<polygon class="st5" points="62.1,1232.3 114,1229.2 60.9,1223.1 60.9,1233.4 62.7,1233.6 							"/>
						</g>
						<g>
							<polygon class="st3" points="73.2,1205.8 2164.9,1224 2164.9,1214 60.9,1195.7 60.9,1233.8 73.2,1235.2 							"/>
							<polygon class="st3" points="2071,1281.5 2202.2,1298.5 2202.2,1290.2 2133.4,1279.8 							"/>
							<polygon class="st3" points="87.8,1254.6 167.5,1240.7 102,1242.9 75.5,1244.5 99.9,1299.3 107.8,1299.6 							"/>
						</g>
						<g>
							<path class="st6" d="M179.3,1247.6c0,0,252.1-29.8,332.6-26.3c80.6,3.5,180.9,11.8,258.4,19.8c77.5,8,265.8,38.3,354,36.4
								c88.2-1.9,671.5,5.8,671.5,5.8s-702,8.8-758.2,6.9c-56.3-1.9-323.6-41.2-411.7-45.9s-130.9,9.2-202.3,12.5
								c-71.5,3.3-279.8,0.6-279.8,0.6L179.3,1247.6L179.3,1247.6z"/>
							<path class="st6" d="M232.7,1247.6c0,0,234.4-23.9,270.1-22.9c35.7,1,136.8,14.4,129.1,13.3c-7.6-1.2-133.8-0.1-170.4,5.3
								C425,1248.6,232.7,1247.6,232.7,1247.6L232.7,1247.6z"/>
							<path class="st3" d="M310.8,1261.6c0,0,138-4.1,212.8-12.4s132.4,1.4,180.6,7.1c48.2,5.7,278.1,33.7,278.1,33.7
								s-212-15.1-254.1-19.8c-42.2-4.8-127.6-20-160.7-16.9C534.4,1256.5,310.8,1261.6,310.8,1261.6L310.8,1261.6z"/>
						</g>
						<path class="st6" d="M2063.2,1270.8c0,0-602.2,6.4-736.8-8.2c-134.5-14.6-99.8-5.2-177.2-15.7c-77.4-10.5-163-18.7-192.3-19.2
							c-29.3-0.5-94.3,1.5-94.3,1.5s162.6,10.7,199.8,20c37.2,9.3,304.4,28.7,371.9,28C1501.8,1276.5,2063.2,1270.8,2063.2,1270.8z"
							/>
						<g>
							<path class="st6" d="M2160,1303.5c0,0-700.7-20.1-792.2-7.7c-91.5,12.4-514.5-3.7-514.5-3.7s111.7,12.9,162.8,13.7
								c51.1,0.9,300.3,7,347.8,5.8C1411.4,1310.5,1980.8,1296.1,2160,1303.5L2160,1303.5z"/>
							<path class="st3" d="M851.4,1290.9l151.3,15.5c0,0,301.6,5,312.6,5.1c10.9,0.1,593.5-8,593.5-8l262.8-6.1
								c0,0-711.8,21.1-776.2,22.9c-64.5,1.8-423.2-7.1-423.2-7.1L851.4,1290.9L851.4,1290.9z"/>
						</g>
						<path class="st6" d="M2149.8,1226.3c0,0-182.2-3.5-277.5,4.7c-95.3,8.2-589.6,4-589.6,4s715.8,17.7,720.8,17.4
							C2097,1247,2149.7,1226.3,2149.8,1226.3L2149.8,1226.3z"/>
						<path class="st3" d="M2016.8,1266.2c-64.5,1.6-724.2-29.9-724.2-29.9s708.7,16.1,742.2,13.6s121.5-23.3,121.5-23.3
							S2081.3,1264.7,2016.8,1266.2L2016.8,1266.2z"/>
					</g>
					<g>
						<polygon class="st2" points="254,1323.1 173.2,1357.2 38.2,206.3 113.4,206.3 117.9,231.9 133.2,206.3 160.6,206.3 180.4,266 
							185,172.2 210.9,172.2 						"/>
						<g>
							<polygon class="st3" points="188.8,287.8 199.9,184.5 211.5,184.5 210.9,172.2 185,172.2 180.5,264.4 							"/>
							<polygon class="st3" points="53.1,218.6 115.6,218.6 120.1,259.5 138.8,215.3 164,217.6 169.9,234.3 160.6,206.3 
								133.2,206.3 117.9,231.9 113.4,206.3 38.2,206.3 173.2,1357.2 185.7,1351.9 							"/>
						</g>
						<g class="st4">
							<polygon class="st5" points="182,289.4 180.6,262.5 180.4,266 160.6,206.3 155.4,206.3 							"/>
							<polygon class="st5" points="117.4,245.5 119.1,230 117.9,231.9 113.4,206.3 107.2,206.3 							"/>
							<polygon class="st5" points="210.9,172.2 201.6,172.2 244,1308.3 170.7,1339.3 173.2,1357.2 254,1323.1 							"/>
						</g>
						<path class="st6" d="M197.3,1135.7c0,0-24.8-135.3-25.8-180.5c-1-45.2-0.3-101.9,1.2-146c1.5-44.1,16.8-298.6,12.6-347.2
							c-4.1-48.6-8.9-187-8.9-187s17.7,201.8,18.8,233.2c1,31.4-16.2,331-15.6,380.5c0.6,49.5,9.5,71.2,13.8,110.3
							s10.3,154.9,10.3,154.9L197.3,1135.7L197.3,1135.7z"/>
						<path class="st6" d="M195.4,1106.1c0,0-21-126.3-21.8-146.3c-0.8-19.9,2.7-77.9,2.4-73.5c-0.4,4.4,4.7,74.1,8.9,93.6
							C189,999.4,195.4,1106.1,195.4,1106.1z"/>
						<path class="st3" d="M200,1060.8c0,0-7.1-75.8-14.2-116.1s-4-73.5-2.7-101.1S197,538.9,197,538.9s-6.4,265.4-7.4,289.4
							c-1,24.1-6,73.6-3.2,91.5C189.3,937.7,200,1060.8,200,1060.8L200,1060.8z"/>
						<g>
							<path class="st6" d="M121.5,249.8c0,0,12.1,138.2,20.6,172.2s24.7,193.8,24.7,193.8s-1.6-42.5-3.9-61.8
								c-2.3-19.3-12.9-113.3-15.6-131.2C144.5,405.1,128.3,317.5,121.5,249.8L121.5,249.8z"/>
							<path class="st3" d="M166.5,616.6l-2.8-57.5c0,0-13.6-113.7-14.1-117.9c-0.5-4.1-15.5-96.9-15.5-96.9l-15.1-98.8
								c0,0,25.5,141,29.3,165.2c3.8,24.2,19.1,159.6,19.1,159.6L166.5,616.6L166.5,616.6z"/>
						</g>
						<path class="st6" d="M84.8,317.1c0,0,32.3,446.3,60.1,602.7c27.8,156.4,60.3,418.5,60.3,418.5S139.2,564,137.9,555.8
							C112.7,402,84.8,317.1,84.8,317.1L84.8,317.1z"/>
						<path class="st3" d="M145.6,532.6c15.8,106.2,58.4,789.3,58.4,789.3s-65.5-762.5-75-817.5c-9.5-55-45.4-198.1-45.4-198.1
							S129.8,426.4,145.6,532.6L145.6,532.6z"/>
					</g>
					<g>
						<path class="st7" d="M215.5,1276.4l1.1-30.1c0,0-14.2-41.8-14.2-34.9c0.1,48.6-2.1,30.3-2.1,30.3l7.4,7.6l-8.1,9.2l0.1,12
							c0,0,7.1-6.7,7.9-6.5C208.5,1264.2,215.5,1276.4,215.5,1276.4L215.5,1276.4z"/>
						<path class="st7" d="M200.2,1266.6c-7-4.9-8.7-14.6-3.7-21.6c4.9-7,14.6-8.7,21.6-3.7c7,4.9,8.6,14.6,3.7,21.6
							C216.9,1269.8,207.2,1271.5,200.2,1266.6L200.2,1266.6z"/>
						<g>
							<g>
								<path class="st8" d="M215.2,1245.3c4.8,3.4,5.9,9.9,2.5,14.7c-3.4,4.8-9.9,5.9-14.7,2.6c-4.8-3.4-5.9-9.9-2.5-14.7
									C203.9,1243.1,210.5,1241.9,215.2,1245.3z"/>
								<polygon class="st9" points="203.4,1245.1 211,1264.3 213.7,1263.4 205.5,1244 								"/>
							</g>
							<path class="st10" d="M203.2,1247.8l5.7,15.1c0,0-4.1,1.3-7.4-3.4S201.4,1245.2,203.2,1247.8L203.2,1247.8z"/>
							<path class="st10" d="M207.8,1245.7l4.8,11.6c0,0,5.8-7.5,2.3-10.3C211.3,1244.1,206.5,1243.3,207.8,1245.7L207.8,1245.7z"/>
							<path class="st11" d="M202.9,1249.5c0,0,2.4,5.8,1.3,7.5c-1.1,1.8-3.6,0.5-3.2-3.4C201.4,1249.7,202.1,1247.5,202.9,1249.5
								L202.9,1249.5z"/>
						</g>
					</g>
					<g>
						<path class="st7" d="M2057,1282.2l29,9.1c0,0,22.7-3.6,18-5.5c-2.2-0.9-9.2-9.1-9.2-9.1l-9.4,5.1l-6.7-10.3l-11.7-3.1
							c0,0,4.6,8.7,4.2,9.4C2070.8,1278.7,2057.1,1282.2,2057,1282.2L2057,1282.2z"/>
						<path class="st7" d="M2070.7,1270c6.6-5.5,16.5-4.5,22,2.1c5.5,6.7,4.5,16.5-2.1,22c-6.6,5.5-16.5,4.5-22-2.1
							C2063.1,1285.3,2064,1275.5,2070.7,1270L2070.7,1270z"/>
						<g>
							<g>
								<path class="st8" d="M2087.4,1290.2c-4.5,3.7-11.3,3.1-15-1.4c-3.7-4.5-3.1-11.2,1.4-15s11.2-3.1,15,1.4
									C2092.5,1279.8,2091.9,1286.5,2087.4,1290.2L2087.4,1290.2z"/>
								<polygon class="st9" points="2090.8,1278.8 2070,1281.1 2070.1,1283.9 2091.2,1281.1 								"/>
							</g>
							<path class="st10" d="M2088.1,1277.9l-16.2,1.6c0,0-0.2-4.3,5.3-6.3S2091.2,1276.8,2088.1,1277.9L2088.1,1277.9z"/>
							<path class="st10" d="M2089,1283l-12.5,1.6c0,0,5.8,7.7,9.4,5C2089.5,1286.8,2091.6,1282.3,2089,1283L2089,1283z"/>
							<path class="st11" d="M2086.6,1277.1c0,0-6.2,0.8-7.7-0.7c-1.4-1.5,0.5-3.7,4.2-2.2
								C2086.7,1275.7,2088.7,1276.9,2086.6,1277.1L2086.6,1277.1z"/>
						</g>
					</g>
					<g class="st12">
						<polygon class="st13" points="240.1,1197 247.8,1304.5 272.2,1304.5 267.2,1197 						"/>
						<path class="st13" d="M2022.3,1193.2v19.7h139.6l3.9-15.4C2165.8,1197.4,2022.5,1193.2,2022.3,1193.2L2022.3,1193.2z"/>
					</g>
				</g>
				<g>
					<path class="st2" d="M34.5,93.5c0,0,418.5,14.2,1066.7-54.9c648.1-69.1,1181.3-24.4,1181.3-24.4v126c0,0-71.1,10.2-65,14.2
						s54.9,28.4,54.9,28.4l-4.1,107.7c0,0-1254.5-18.3-1565.3-12.2s-656.2-4.1-656.2-4.1l-12.2-30.5l58.9-16.2L0,199.1L34.5,93.5z"
						/>
					<g>
						<path class="st3" d="M49.2,253l76.3-17.2l-32.5-8.1l-58.4,16.1l12.2,30.5c0,0,3.8,0.1,11.1,0.3L49.2,253L49.2,253z"/>
						<path class="st3" d="M49.2,102.7c0,0,418.5,14.2,1066.7-54.9c498.3-53.1,1126.8-39,1166.7-29.6v-4c0,0-533.2-44.7-1181.3,24.4
							S34.5,93.5,34.5,93.5L0,199.1l16,4.9L49.2,102.7z"/>
						<path class="st3" d="M2232.1,163.6c3.9,2.6,25.3,13.5,40.2,21.1l0.1-1.8c0,0-23.7-11.9-40.2-20.4
							C2231.7,162.9,2231.6,163.2,2232.1,163.6L2232.1,163.6z"/>
					</g>
					<g class="st4">
						<polygon class="st5" points="2.4,191.6 0,199.1 43.5,212.4 57.7,208.5 						"/>
						<path class="st5" d="M2246.8,5.3v115.8c0,0-71.1,10.2-65,14.2c3.5,2.3,21.1,11.4,35.4,18.6c-0.8-4.3,65.4-13.8,65.4-13.8v-126
							C2282.5,14.2,2277.2,9.4,2246.8,5.3z"/>
						<path class="st5" d="M2232.5,271.4c0,0-1254.5-18.3-1565.3-12.2c-257.7,5-539.1-1.1-627.8-3.3l7.3,18.3
							c0,0,345.4,10.2,656.2,4.1s1565.3,12.2,1565.3,12.2l4.1-107.7c0,0-19.8-9.9-35.8-18.2L2232.5,271.4L2232.5,271.4z"/>
					</g>
					<path class="st6" d="M895.1,155.4c49.8-9.6,262.1-2.9,308.7-1.4c37.5,1.2,160.4-8.1,208.3-8.7l769.6-9.9c0,0-921.7-7.7-984-8.3
						c-62.2-0.7-451.9,0-503.6,0s-603.5-1.1-655.5-0.8c0.5,2.9,47.2,5.8,66.3,10c41.9,9.3,296.1,20,347.1,19.1
						C503.2,154.5,845.3,165,895.1,155.4L895.1,155.4z"/>
					<path class="st6" d="M2163.2,194.7c0,0-720.9-36.6-796.6-33.1c-75.7,3.5-170,12.2-242.8,20.9c-72.8,8.7-249.9,42.3-332.7,39.4
						c-82.8-2.9-315.6,4.1-315.6,4.1s344.2,13.1,397,11.3c52.8-1.7,304.2-45.2,387-50c82.8-4.8,122.8,11.7,189.9,16.1
						c67.1,4.4,747.2,2.9,747.2,2.9L2163.2,194.7L2163.2,194.7z"/>
					<path class="st6" d="M2113.1,194.3c0,0-704.4-29.6-737.9-28.7c-33.6,0.9-128.5,15.7-121.4,14.4c7.1-1.3,125.7,1,159.9,7.4
						C1448,193.8,2113.1,194.3,2113.1,194.3L2113.1,194.3z"/>
					<path class="st3" d="M1555.2,209.8c0,0-129.6-5.9-199.7-16.1c-70.2-10.2-124.3,0.6-169.7,6.9c-45.3,6.2-261.5,36.9-261.5,36.9
						s199.2-15.8,238.8-21c39.6-5.2,120-22.2,151-18.3C1345.2,202.2,1555.2,209.8,1555.2,209.8L1555.2,209.8z"/>
					<path class="st6" d="M1075.9,209.5c0,0-294.5,23.5-444.5,17.5c-150-5.9-110.8,1.2-197.2-4.3c-86.5-5.5-181.8-8.2-214.2-6.8
						c-32.4,1.4-104.2,7.5-104.2,7.5s180.7,0.2,222.5,7.1c41.9,6.9,338.9,9.1,413.5,4.1C826.5,229.7,1076,209.5,1075.9,209.5
						L1075.9,209.5z"/>
					<g>
						<path class="st6" d="M1009.9,187.4c0,0-343.3-9.4-429,0s-483.2,3.3-483.2,3.3s105.1,7.4,153.1,7.4s282.1,1.3,326.7,0
							C622.1,196.9,841.5,184.5,1009.9,187.4L1009.9,187.4z"/>
						<path class="st3" d="M95.9,190l142.4,8.8c0,0,283.3,0,293.6-0.1c10.3-0.1,242.2-8.4,242.2-8.4l246.7-7.1
							c0,0-353,18.5-413.5,20.5c-60.5,2-397.5,0-397.5,0L95.9,190L95.9,190z"/>
					</g>
					<path class="st6" d="M2231.8,37.4c0,0-674.6,4.9-773.6,18.5s-264.8,16.6-264.8,16.6s882,1.4,887.2,0.9
						C2177.9,62.9,2231.8,37.4,2231.8,37.4L2231.8,37.4z"/>
					<path class="st3" d="M2095.1,88.1c-67.2,4.9-891.3-14.6-891.3-14.6s874.5,0,909.3-4.4c34.8-4.4,125.5-31.7,125.5-31.7
						S2162.3,83.2,2095.1,88.1L2095.1,88.1z"/>
				</g>
				<g>
					<g>
						<path class="st7" d="M2189.6,206.8l-29.3-6.9c0,0-43.8,5.8-37,7.1c47.7,9.4,29.3,7.9,29.3,7.9l8.9-5.7l7.4,9.7l11.8,2.3
							c0,0-5.2-8.2-4.8-9C2176.3,211.3,2189.6,206.8,2189.6,206.8L2189.6,206.8z"/>
						<path class="st7" d="M2177,219.9c-6.2,5.9-16,5.7-21.9-0.5c-5.9-6.2-5.7-16,0.5-21.9c6.2-5.9,16-5.7,21.9,0.5
							C2183.4,204.2,2183.2,214,2177,219.9z"/>
						<g>
							<g>
								<path class="st8" d="M2159,201.1c4.2-4,10.9-3.9,14.9,0.4c4,4.2,3.9,10.9-0.4,14.9c-4.2,4-10.9,3.9-14.9-0.4
									C2154.7,211.8,2154.8,205.1,2159,201.1z"/>
								<polygon class="st9" points="2156.5,212.6 2176.9,208.9 2176.5,206.1 2155.9,210.4 								"/>
							</g>
							<path class="st10" d="M2159.2,213.3l15.9-2.7c0,0,0.5,4.2-4.8,6.6C2164.9,219.5,2156.3,214.6,2159.2,213.3L2159.2,213.3z"/>
							<path class="st10" d="M2158,208.4l12.3-2.4c0,0-6.2-7.2-9.7-4.2C2157.1,204.6,2155.4,209.2,2158,208.4z"/>
							<path class="st11" d="M2160.8,214c0,0,6.1-1.2,7.6,0.2c1.5,1.4-0.2,3.7-4,2.5C2160.7,215.5,2158.7,214.3,2160.8,214
								L2160.8,214z"/>
						</g>
					</g>
					<g>
						<path class="st7" d="M2220.7,49.2l-30.1-0.6c0,0-41.6,14.8-34.6,14.7c48.6-0.8,30.3,1.6,30.3,1.6l7.5-7.5l9.3,8l12-0.3
							c0,0-6.8-6.9-6.6-7.8C2208.6,56.4,2220.7,49.2,2220.7,49.2L2220.7,49.2z"/>
						<path class="st7" d="M2211.1,64.6c-4.8,7.1-14.4,8.9-21.5,4.1c-7.1-4.8-8.9-14.4-4.1-21.5c4.8-7.1,14.4-8.9,21.5-4.1
							C2214.1,47.9,2215.9,57.6,2211.1,64.6z"/>
						<g>
							<g>
								<path class="st8" d="M2189.6,50c3.3-4.8,9.9-6.1,14.7-2.8c4.8,3.3,6.1,9.8,2.8,14.7c-3.3,4.8-9.8,6.1-14.7,2.8
									C2187.6,61.4,2186.3,54.8,2189.6,50z"/>
								<polygon class="st9" points="2189.5,61.8 2208.7,53.9 2207.8,51.2 2188.5,59.7 								"/>
							</g>
							<path class="st10" d="M2192.3,61.9l15-6c0,0,1.4,4-3.3,7.4C2199.2,66.8,2189.7,63.8,2192.3,61.9L2192.3,61.9z"/>
							<path class="st10" d="M2190.1,57.3l11.5-5c0,0-7.6-5.7-10.4-2.1C2188.5,53.9,2187.8,58.7,2190.1,57.3L2190.1,57.3z"/>
							<path class="st11" d="M2194,62.3c0,0,5.7-2.5,7.5-1.4c1.8,1,0.6,3.6-3.4,3.2C2194.2,63.7,2192.1,63,2194,62.3L2194,62.3z"/>
						</g>
					</g>
				</g>
				<g>
					<g>
						<path class="st7" d="M86.9,131.4l29,9.1c0,0,22.7-3.6,18-5.5c-2.2-0.9-9.2-9.1-9.2-9.1l-9.4,5.1l-6.7-10.3l-11.7-3.1
							c0,0,4.6,8.7,4.2,9.4C100.7,127.8,87,131.4,86.9,131.4L86.9,131.4z"/>
						<path class="st7" d="M100.6,119.1c6.7-5.5,16.5-4.5,22,2.1c5.5,6.7,4.5,16.5-2.1,22c-6.7,5.5-16.5,4.5-22-2.1
							C93,134.5,93.9,124.6,100.6,119.1L100.6,119.1z"/>
						<g>
							<g>
								<path class="st8" d="M117.3,139.4c-4.5,3.7-11.3,3.1-15-1.4c-3.7-4.5-3.1-11.2,1.4-15s11.2-3.1,15,1.4
									C122.4,128.9,121.8,135.7,117.3,139.4L117.3,139.4z"/>
								<polygon class="st9" points="120.7,128 99.9,130.2 100,133.1 121.1,130.3 								"/>
							</g>
							<path class="st10" d="M118,127.1l-16.2,1.6c0,0-0.2-4.3,5.3-6.3S121.1,126,118,127.1z"/>
							<path class="st10" d="M118.9,132.1l-12.5,1.6c0,0,5.8,7.7,9.4,5C119.4,135.9,121.5,131.5,118.9,132.1z"/>
							<path class="st11" d="M116.4,126.2c0,0-6.2,0.8-7.7-0.7c-1.4-1.5,0.5-3.7,4.2-2.2C116.6,124.8,118.6,126.1,116.4,126.2z"/>
						</g>
					</g>
					<g>
						<path class="st7" d="M121.7,227.8l29,9.1c0,0,22.7-3.6,18-5.5c-2.2-0.9-9.2-9.1-9.2-9.1l-9.4,5.1l-6.7-10.3l-11.7-3.1
							c0,0,4.6,8.6,4.2,9.4C135.4,224.2,121.7,227.8,121.7,227.8L121.7,227.8z"/>
						<path class="st7" d="M135.3,215.6c6.6-5.5,16.5-4.5,22,2.1c5.5,6.6,4.5,16.5-2.1,22s-16.5,4.5-22-2.1
							C127.7,230.9,128.7,221.1,135.3,215.6L135.3,215.6z"/>
						<g>
							<g>
								<path class="st8" d="M152,235.8c-4.5,3.7-11.3,3.1-15-1.4c-3.7-4.5-3.1-11.2,1.4-15c4.5-3.7,11.2-3.1,15,1.4
									S156.5,232.1,152,235.8L152,235.8z"/>
								<polygon class="st9" points="155.4,224.4 134.6,226.7 134.8,229.5 155.8,226.7 								"/>
							</g>
							<path class="st10" d="M152.8,223.5l-16.2,1.6c0,0-0.2-4.3,5.3-6.3S155.8,222.4,152.8,223.5z"/>
							<path class="st10" d="M153.6,228.6l-12.5,1.6c0,0,5.8,7.7,9.4,5C154.2,232.4,156.2,227.9,153.6,228.6z"/>
							<path class="st11" d="M151.2,222.7c0,0-6.2,0.8-7.6-0.7c-1.4-1.5,0.5-3.7,4.2-2.2C151.4,221.2,153.3,222.5,151.2,222.7
								L151.2,222.7z"/>
						</g>
					</g>
				</g>
			</g>
		</g>
		<g id="PIRATES_TITLE">
			<g>
				<g>
					<g>
						<path class="st14" d="M776.7,132.5c0.4-1.5,0.8-3,1.2-4.5c0.3-1.4,0.6-2.9,0.8-4.4c0.4-2.9,0.7-5.8,0.7-8.7l0-8l0-4
							c0-1.4-0.1-2.9-0.2-4.4c-0.3-2.9-0.8-5.9-1.4-8.7c-1.3-5.8-3.7-11.2-6.6-16.2c-2.9-5-6.5-9.5-10.6-13.5
							c-8.2-7.9-18.1-13.6-28.8-16.7c-2.6-0.7-5.4-1.4-8-1.7l-7.8-1.1l-7.8-1.1c-2.6-0.4-5.2-0.5-7.8-0.7l-7.8-0.7
							c-2.6-0.2-5.2-0.2-7.8-0.3c-2.6-0.1-5.2-0.2-7.8-0.3l-7.8,0c-10.4,0.3-20.7,0.7-31,0.7c-10.3,0-20.7-0.1-31-0.2L602,38
							l-0.2,5.5c-0.7,17.6-1.3,35.4-1,53.3c0.3,17.8,1.2,35.5,2.3,53.1c0.5,8.8,1.2,17.5,1.8,26.1l2.1,25.6
							c1.5,16.9-2,26.1-0.1,41.9l36,8.5c5.4,0.2,10.8,0.3,16.4,0.5c5.5,0.1,11.1,0.2,16.7,0.2h5.2l0.3-5.9c0.3-6.2,0.8-12.3,1-18.5
							l0.8-18.5c0.3-6.2,0.4-12.3,0.7-18.5l0.3-9.6l2.5-0.1c3.8-0.2,7.5-0.1,11.3-0.5l11.2-1.2c3.7-0.3,7.6-1,11.4-1.9
							c3.8-0.8,7.6-1.8,11.3-3.1c3.8-1.3,7.5-2.8,11.1-4.5c1.8-0.9,3.5-1.8,5.3-2.8c1.8-1.1,3.6-2.2,5.4-3.5
							c3.5-2.6,6.7-5.5,9.4-8.9l-0.4,0.5c4-4.2,7.8-9.1,10.6-14.8C774.7,138.2,775.8,135.4,776.7,132.5L776.7,132.5z M746.5,89.7
							c1,2.3,1.7,4.4,2.1,6.7c0.2,1.1,0.4,2.3,0.5,3.5c0,0.6,0.1,1.2,0.1,1.8l0,0.9v1.1l-0.1,8.9c0,0.8,0,1.4,0,2
							c0,0.6-0.1,1.2-0.1,1.9c-0.1,1.2-0.3,2.5-0.5,3.7c-0.2,1.3-0.5,2.2-0.8,3.3c-0.3,1.1-0.8,2.1-1.2,3.2
							c-0.5,1.1-0.9,1.9-1.6,2.9c-0.6,0.9-1.3,1.9-2.1,2.8l-1.2,1.4c-0.4,0.4-1.5,1.6-1.7,1.9c-0.7,0.8-1.5,1.6-2.3,2.4
							c-0.8,0.8-1.8,1.5-2.7,2.1c-0.5,0.3-1,0.6-1.5,1l-1.8,1c-4.7,2.6-9.8,4.5-15.3,6.1c-2.7,0.8-5.5,1.4-8.3,1.9
							c-2.9,0.4-5.8,0.9-8.7,1.5c-2.9,0.5-5.8,1.1-8.8,1.3l-8.9,1c-6,0.5-12.2,0.9-18.3,1.3l-5.2,0.3l0.3,4.6
							c0.4,6.2,0.8,12.4,1.1,18.7l0.5,9.3l0.3,9.3c0.2,6.2,0.3,12.4,0.3,18.7c0,5.3,0,10.5-0.2,15.8c-5.5,0.1-11,0.2-16.5,0.1
							c-4.5,0-9.1-0.1-13.6-0.2c0.7-13.2,1.3-26.2,1.2-39.2c-0.1-14.6-1-29.2-1.9-44c-0.5-7.4-1.1-14.9-1.7-22.4l-2-22.8
							c-1.5-15.4-3.1-31.1-5.2-47.7c13.3,0.5,25.5,1.5,36.9,2l8.5,0.3c2.9,0.1,6,0.4,9,0.6c3,0.2,5.9,0.6,8.9,0.9
							c3,0.4,5.9,0.5,8.8,1.1l8.8,1.5l2.2,0.4l2.2,0.5l4.3,1l8.6,2c2.6,0.7,4.9,1.5,7.2,2.6c4.5,2.2,8.7,5.2,12.3,8.7
							C741.7,81.2,744.5,85.2,746.5,89.7L746.5,89.7z"/>
						<path class="st14" d="M718,83.4c-3.3-2-6.8-3.3-10.3-4.1c-3.5-0.8-6.9-1.1-10.2-1.2c-6.7-0.1-13,0.8-19.2,1.2
							c-6.2,0.5-12.3,1-18.4,0.8l-2.7-0.1l-0.3,3.4c-0.5,5.2-1.5,10.3-2.4,15.5c-0.9,5.2-1.6,10.4-1.7,15.5
							c-0.1,5.2,0.3,10.3,1.3,15.4c1,5.1,2.6,10.3,3.9,15.4l1,3.9l2.4-0.6c1.6-0.4,3.2-0.8,4.8-1.1c1.6-0.4,3.2-0.5,4.8-0.7
							c3.2-0.3,6.5-0.4,9.7-0.3c6.1,0.1,12.3,0.5,18.8,0.9c3.3,0.2,6.8,0,10.3-0.5c1.8-0.3,3.5-0.7,5.2-1.2c1.8-0.6,3.6-1.4,5.3-2.3
							c3.4-1.9,6.5-4.6,8.9-7.8c1.2-1.5,2.4-3.5,3.3-5.4c0.9-1.9,1.6-3.9,2.1-5.9c1-4,1.1-7.9,0.9-11.7c-0.3-3.8-1.1-7.5-2.5-11.2
							c-1.4-3.7-3.4-7.3-6.1-10.4C724.3,87.9,721.3,85.3,718,83.4L718,83.4z M706.6,104.8c2.8,1.8,4.3,5.6,3.8,9.4
							c-0.2,1.9-0.9,3.7-1.9,4.8c-0.5,0.6-1,0.8-1.5,1c-0.7,0.4-1.3,0.7-2,0.9c-0.6,0.2-1.2,0.4-1.8,0.6c-0.6,0.1-1.1,0.3-1.9,0.6
							c-1.4,0.4-2.8,1.1-4.4,1.6c-0.8,0.2-1.5,0.5-2.4,0.8c-0.9,0.2-1.9,0.6-2.8,0.8c-1.9,0.6-3.8,1.2-5.7,1.8c-1.9,0.6-3.9,1.2-6,2
							c-1,0.4-2,0.8-3.1,1.3c-0.5,0.2-1,0.5-1.6,0.8l-0.8,0.4c0,0,0,0,0,0l3-10.9c1-3.5,1.8-6.7,2.6-9.7c0.7-2.6,1.1-4.9,1.5-7.2
							c1.1-0.1,2.2-0.2,3.4-0.3c3.9-0.3,7.5-0.3,11.2-0.4C700,103,703.7,102.9,706.6,104.8L706.6,104.8z M674.4,132.3l0.1-0.3
							C674.5,132.1,674.5,132.2,674.4,132.3z"/>
						<path class="st14" d="M1205.9,181.5c-6.8-15.4-13.6-30.7-20.7-46c-7-15.3-14.5-30.3-21.7-45.5c-7.3-15.1-14.4-30.4-21.2-45.8
							l-5.9-9l-3.3,3.1c-15.9-0.8-25.1,2.2-40.9,0.7l-2.2-0.2l-0.9,2.2c-6.8,15.9-14.1,31.5-21.3,47.1
							c-7.3,15.7-14.4,31.4-20.8,47.3c-6.5,16-12.5,32.1-18.5,48.3c-3.5,9.5-6.8,19-10.2,28.5l-1.6-1.6l-24.2-23.7l-14.7-14.3
							c1.7-0.7,3.3-1.4,5-2.1c3-1.4,5.9-2.9,8.7-4.6c2.8-1.7,5.7-3.8,8.3-6c2.6-2.2,5.1-4.8,7.2-7.2c2.2-2.5,4.2-5.2,6-8
							c3.6-5.8,6.2-12.1,7.5-18.8c0.6-3.3,1-6.6,1-9.9c0-3.3-0.1-6.4-0.4-9.6c-0.2-3.1-0.6-6.4-1.3-9.6c-0.7-3.2-1.6-6.3-2.7-9.3
							c-2.3-6.1-5.5-11.6-9.2-16.8s-8.1-9.8-13-13.7c-4.9-4-10.2-7.4-16.1-9.9c-2.9-1.2-6-2.2-9-3c-3.1-0.7-6-1.3-9-1.9
							c-6-1.2-12-2.2-18.2-3c-6.2-0.9-12.3-1-18.4-1.5l-9.2-0.7c-1.5-0.1-3.1-0.3-4.6-0.3h-4.5l-18.2,0c-7.9,0-15.8,0-23.7,0.1v-0.9
							l-8-0.2c-11-0.3-22-0.6-33-0.5c-11,0-22,0.3-33.1,0.4l-5.3,0.1l0.2,4.6c0.6,17.3,0.8,34.6,0.1,51.9
							c-0.3,8.6-0.8,17.3-1.6,25.9c-0.4,4.3-0.8,8.6-1.3,12.9c-0.5,4.3-1,8.6-1.5,12.9c-2.2,17.2-4.3,34.4-5.1,51.7
							c-0.8,17.3-6.3,33.7-6.2,51c0,0,35.3,7.8,46.6,7.2c5.7-0.2,11.1-0.7,16.5-0.9l15.5-1.1c1.9-13,3.7-26.6,5.3-40.6
							c1.2,13.5-2.8,19.4-1.4,32.2l36.1,8.1c10.7,0.3,21.7,0.4,32.8,0.4h4.8l0.1-5.3l0.8-29.9l0.1-8.6l13.5,16.2
							c9,10.6,18,21.2,27.1,31.7l6.3,7.3l7.2-6.5l18.1-16.2c5-4.5,10.9-1.9,10.9-1.9l5.8,1.4c5.3,1.2,10.7,2.3,16,3.4
							c5.3,1.1,10.6,2.1,15.7,3.1c10.4,1.9,20.4,3.7,29.9,5.3l11.7-26.9c3.5-8.1,7-16.5,10.5-25l22.3,1.1l20.3,0.8l8.3,23
							c3.3,9.2,5,8,8.4,17.1l-0.2,11.6c0,0,54.6-10.5,62.7-13.5l9.4-3.5l-4-9L1205.9,181.5L1205.9,181.5z M837.8,101.3
							c-0.6,15.2-2.6,30.3-4.9,45.4c-2.3,15.1-3.9,30.2-4.2,45.4c-0.4,13.4-0.4,26.8,0,40.3c-1,0.1-1.9,0.1-2.9,0.2
							c-3.2,0.2-6.4,0.5-9.7,0.8l-10.3,1l-11.1,0.9c2.5-16.8,4.6-32.7,6.5-48.2c1.9-15.5,3.7-30.6,5-45.4
							c1.4-14.8,2.4-29.3,2.7-43.8c0.3-12,0.4-24.1,0.4-36.3c4.1,0,8.2-0.1,12.2-0.2l16.1-0.5C838.2,74.4,838.4,87.9,837.8,101.3
							L837.8,101.3z M887.9,228.7c-3.6,0-7.2,0.1-10.9,0.2c-0.2-12-0.7-24-1.2-35.9c-0.7-14.6-1.6-29.2-2.7-44.1
							c-1.1-14.9-2.3-29.8-3.7-45.1c-1.4-15.3-2.8-30.8-4.5-47c11.7,0.2,22.8,0.8,33.3,1.1c2.6,0.1,5.2,0.2,7.8,0.2
							c2.6,0.1,5.1,0,7.9,0.3c5.4,0.5,10.8,1,16.3,1.4c10.7,0.7,21,3,31.5,5.5l1.9,0.5c0.6,0.2,1.1,0.3,1.6,0.5
							c1.1,0.3,2.1,0.8,3.1,1.2c2.1,0.9,4.1,2.1,6,3.4c3.9,2.7,7.4,5.9,10.4,9.6c2.9,3.6,5.3,7.7,7,12c0.8,2.1,1.5,4.2,1.9,6.4
							c0.2,1.1,0.4,2.2,0.5,3.2c0.1,1.1,0.2,2.1,0.2,3.4l0,7.5c0,2.3-0.4,4.2-0.8,6.4c-0.9,3.9-2.9,7.6-5.6,11
							c-1.3,1.7-3,3.6-4.6,5.1c-1.5,1.4-3.2,2.7-5,3.9c-1.9,1.2-4.1,2.4-6.2,3.4c-1.1,0.6-2.3,1.1-3.5,1.5c2.2-1.8,4.2-3.9,5.8-6.3
							c2.3-3.5,3.9-7.5,4.6-11.4c0.8-3.9,0.9-7.6,0.6-11.3c-0.2-2.2-0.5-3.8-1-5.7c-0.4-1.8-1-3.6-1.7-5.4
							c-1.4-3.6-3.5-7.1-6.1-10.1c-2.6-3-5.6-5.5-8.8-7.5c-3.2-2-6.7-3.4-10.1-4.3c-3.4-0.9-6.8-1.3-10.2-1.4
							c-6.7-0.2-13,0.8-19.1,1.4c-6.1,0.7-12.2,1.3-18.2,1.3l-2.5,0l-0.2,2.9c-0.4,5.2-1.4,10.4-2.4,15.7c-1,5.2-2.1,10.4-2.4,15.7
							c-0.4,5.2-0.3,10.5,0.4,15.7c0.6,5.2,2,10.4,3.3,15.7l1.2,4.8l0.9-0.2c0.2,13.4,0.1,26.9-0.4,40.3
							c-0.3,11.5-0.8,23.1-1.2,34.6C896.8,228.7,892.4,228.8,887.9,228.7L887.9,228.7z M954.6,118.2c-0.3,1.9-1,3.8-2,5
							c-0.3,0.3-0.5,0.5-0.8,0.7c-0.3,0.2-0.5,0.2-0.8,0.5c-0.7,0.4-1.3,0.8-2,1c-0.6,0.2-1.2,0.4-1.8,0.6c-0.3,0.1-0.6,0.1-0.9,0.2
							l-1.1,0.3c-1.4,0.5-2.8,1.1-4.3,1.6c-1.4,0.5-3.4,1-5.3,1.6c-1.9,0.6-3.8,1.1-5.7,1.7c-1.9,0.6-4,1.1-6.1,1.9
							c-1,0.4-2.1,0.8-3.2,1.3c-0.5,0.2-1.1,0.4-1.6,0.7c-0.8,0.2-0.4,0.6-1.1,1.1l3.5-11.7c1-3.5,2-6.8,2.8-9.8
							c0.7-2.8,1.3-5.3,1.8-7.9c1.2-0.1,2.5-0.3,3.7-0.3c3.9-0.3,7.5-0.3,11.2-0.4c3.6,0,7.3,0.1,10.1,2.2c1.4,1,2.4,2.5,3,4.3
							C954.6,114.4,954.9,116.4,954.6,118.2L954.6,118.2z M910.4,151.9c1.8-0.4,3.6-0.6,5.5-0.8c1.8-0.2,3.8-0.3,5.6-0.4
							c1.9-0.1,3.8,0,5.6,0l10.5,0.3l-2.7,0.4l-18.4,2.5l13.1,12.7l28.5,27.7l14.3,13.8c3.1,3,6.2,5.9,9.4,8.9
							c-2.3,2.2-4.5,4.5-6.8,6.7l-14-14.4c-6.1-6.3-12.2-12.6-18.2-19c-11.7-12.4-23.2-25-34.3-37.9
							C909.1,152.2,909.7,152,910.4,151.9L910.4,151.9z M1178.4,228.4c-2.5-7.6-5-15.3-7.4-23l-4.2-13.2l-4.4-13.1l-1.5-4.4
							l-5.3-0.2c-5.2-0.2-10.4-0.4-15.6-0.5c4.1-0.9,7.8-1.8,11-2.8c-0.8-5.4-2.2-11.6-3.6-18.2c-1.5-6.6-3.3-13.8-5.4-21.1
							c-2.1-7.3-4.6-14.9-7.7-22.2c-3.1-7.4-6.6-14.5-10.1-21.5L1113.8,68l-5.5,20.9c-1.8,6.7-3.4,13.5-4.5,20.5
							c-1.1,6.9-2,14-3.6,20.8s-3.8,13.4-6.8,19.7c-3,6.3-6.9,12.4-10.1,18.6l-4,7.8l0.9,0.1l-0.9,3c-2.8,9.1-5.5,18.2-8,27.4
							l-3.8,13.8l-2.6,10.2c-4-0.7-8-1.3-12.3-2c-5.9-0.8-12-1.8-18.5-2.9l20.8-43.6c6.7-14.2,13.2-28.1,19.5-41.8
							c3.2-6.9,6.2-13.7,9.2-20.5c3-6.8,6.1-13.6,8.9-20.3c4.9-11.4,9.6-22.9,14.1-34.4c6.2,0.3,12.3,0.6,18.5,0.9l16.1,36
							c6.2,13.7,12.7,27.3,19.4,40.9c6.6,13.5,13.3,27.1,19.7,40.7c5.9,12.8,11.5,25.6,16.8,38.7c-3.3,1.1-6.6,2.2-9.8,3.3
							C1184.4,226.5,1181.4,227.5,1178.4,228.4L1178.4,228.4z M1115.4,148.1l4.9-5.8c0.5,0.5,0.9,1,1.3,1.6c1.6,2.2,2.8,4.5,3.2,7.2
							c-0.7,0.2-1.4,0.5-2.2,0.9l-5.9,2.6c-2.3,1-5.1,2-8.5,3.2C1110.9,153.8,1113.2,150.8,1115.4,148.1L1115.4,148.1z"/>
						<path class="st14" d="M1748.8,56.8c-4.3-3.2-8.7-3-13.9-6c-5.2-3.1-10.7-5.6-16.3-7.6c-11.2-4.2-23-6.2-34.6-6.8
							c-5.8-0.3-11.5-0.4-17.2-0.3c-5.7,0.1-11.6,0.4-17.3,1.3c-11.5,1.6-22.7,5-33.2,10c-10.4,5.1-20,12-27.6,20.9
							c-3.8,4.4-7.1,9.3-9.6,14.6c-1.2,2.4-2.2,4.9-3.1,7.5c0-6,0-12.1,0-18.1c0.1-9.8-4.6-40-4.6-40l-5.3,1.3
							c-14.2-0.3-21.2,5.1-35.4,4.6l-42.6-1.8c-14.2-0.5-28.4-1-42.6-1.2c-13-0.3-26-0.3-39-0.3l0-0.7l-7.2,0.5l-3.6,0.2h-0.9v0.1
							l-18.5,1.3l-22.9,1.8c-15.3,1.2-30.6,2.5-45.8,3.5c-15.3,0.9-30.6,1.7-45.9,2.1c-15.3,0.4-30.6,0.5-45.9,0.2l-3.7-0.1
							l-0.1,4.1c-0.1,9-0.3,18-0.6,26.9c-0.2,9-5.8,26.2-5.8,26.2s44.7,7,60.8,6.2c0.7,23.4,1.8,46.9,3.5,69.7
							c0.8,12.8,1.9,25.4,2.9,37.7c1.1,12.3-2.7,17.6-1.5,29.2c0,0,57.2,9,68.3,9.2l5,0.1l0.2-5.6c0.4-12.6,0.9-25.2,1.1-37.8
							l0.4-18.9l0.2-18.9c0.2-12.6,0.2-25.2,0.3-37.8c0-9.5-0.1-19-0.2-28.5c7.6-0.4,15.2-0.7,22.8-1.2l27.2-1.6
							c0.6,15.3,1.2,30.7,2,45.8c0.8,17.5,1.9,34.7,2.9,51.7c1.1,17-2.7,26.5-1.4,42.8l79.6,10c12.8,0.4,25.7,0.7,38.7,1.1
							c13,0.3,26.1,0.4,39.2,0.6l7.5,0.1l0-7.9c0-8.3-0.1-16.6-0.1-24.9l-0.2-24.9l-5.9-15.9l-24.1,7.8l-5.8-51.6l-3.1,7.4
							l-29.8,0.5c-7.6,0.2-15.2,0.3-22.8,0.5l-0.8-18.4l-1-20.3c16-0.6,31.9-1.2,47.9-1.6c9-0.3,17.9-0.5,26.9-0.6l13.4-0.2
							l13.4-0.1h0.1c-0.3,4.3,0,8.7,0.6,12.9c0.8,5.8,2.5,11.7,4.9,17.2c1.2,2.7,2.6,5.4,4.3,8c1.6,2.5,3.2,4.9,5,7.3
							c1.8,2.4,3.7,4.7,5.7,6.9c1,1.1,2.1,2.2,3.3,3.3l3.2,2.9l-0.4-0.4c2.1,2.3,4.3,4.3,6.6,6.2c0.2,0.2,0.5,0.4,0.8,0.6l-3.4,5.9
							c-1.6,2.8-3.1,5.6-4.6,8.3l-0.3,0.5l-24.5,35.4l5.2,7.3l2.7,1.5c5.6,3.2,11.5,6.5,17.4,9.3c6,2.8,12.2,5,18.3,7.3l9.4,3
							c3.2,0.9,6.3,1.7,9.6,2.3c6.4,1.3,13,2,19.5,2.1c4.2,0,8.3-0.3,12.5-0.9c4.1-0.6,8.2-1.6,12.2-3.1c7.9-2.8,15.3-7.7,20.9-14.4
							c2.8-3.2,5.2-7.1,6.8-11.2c1.7-4.1,2.8-8.4,3.4-12.7c0.6-4.3,0.9-8.7,0.7-13.1c-0.2-4.4-1.1-9.1-2.4-13.3
							c-1.3-4.3-3.1-8.5-5.5-12.5c-2.4-3.9-5-7.5-8.1-10.9c-1.5-1.7-3.1-3.3-4.8-4.9c-1.6-1.5-3.2-2.9-4.8-4.3
							c-3.2-2.8-6.7-5.5-10.1-8l-10-7.3l-2.4-1.7l-2.2-1.7c-1.4-1.2-2.8-2.4-4.1-3.6c-0.6-0.6-1.3-1.3-1.9-1.9
							c-0.6-0.6-1.1-1.2-1.6-1.8c-1-1.2-1.9-2.5-2.7-3.8c-0.9-1.5-1.1-2.1-1.4-3.3c-0.2-1-0.3-2.1-0.3-3.4c0.2-2.4,1-4.2,1.3-4.4
							c0.5-0.6,1-1,1.6-1.3c0.6-0.3,1.2-0.6,2.4-0.8c4.3-1,10.7-0.2,16.4,1.6c5.9,1.8,11.8,4.7,17.1,8.1c2.6,1.7,5.1,3.6,7.4,5.7
							c0.6,0.5,1.1,1,1.7,1.6l1.9,1.9l3.8,3.8l8.6,8.5l5.8-10.3l16.3-28.9l16.2-28.9l3.5-6.2L1748.8,56.8L1748.8,56.8z M1552.5,80.4
							c-15.1-0.3-30.2-0.5-45.4-0.7c-17.9-0.2-35.9-0.1-53.8,0l-9.7,0.1l0.2,9.5l1,38.3l1.1,38.3l0.2,8.4l8.1-0.1l29.7-0.6
							c7.7-0.1,15.3-0.4,23-0.6c0,0.1,0,0.1,0,0.2l-51.9,2.1l-4.3,0.2l0.2,4l1,16.9c0.3,5.6,0.6,11.3,0.8,16.9l0.1,3.2l3.1-0.2
							c7.3-0.4,14.7-0.8,22-1.1l22-0.8c7.3-0.2,14.7-0.4,22.1-0.5l18.5-0.1c0,3,0,5.9-0.1,8.9l-0.1,7.6l-27.5-0.8
							c-10.6-0.3-21.1-0.6-31.7-0.8c-10.6-0.2-21.1-0.2-31.7-0.2c-7.9,0.1-15.8,0.2-23.8,0.4c-0.3-12-0.6-24-1.1-36.1
							c-0.6-14.7-1.2-29.5-2.2-44.5c-0.8-14.9-1.8-30.1-2.8-45.5l-3.3-47.1l73.9,4.2l35.5,1.8l27,1L1552.5,80.4L1552.5,80.4z
							 M1235.9,67l13.2,0.2l19.8,0c6.6,0,13.2,0,19.8-0.1c6.6,0,13.2-0.1,19.8-0.3c13.2-0.2,26.4-0.7,39.7-1.2l31.2-1.6l0.6,10.6
							l-7.9,0.6l-16,1.3c-5.3,0.4-10.7,1-16,1.5l-16,1.6l-5.2,0.5l0.3,4.6c0.9,12.6,1.8,25.2,2.4,37.7c0.6,12.6,1,25.2,1.1,37.8
							c0.1,12.6-0.1,25.2-0.6,37.8c-0.4,10.4-0.9,20.8-1.5,31.2l-13-0.2c-3.6,0-7.1,0-10.7,0c-0.2-10.5-0.5-21-1-31.4
							c-0.5-13.1-1.3-26.1-2.2-38.9l-1.5-19.1l-1.6-18.7c-1.2-12.3-2.3-24.4-3.7-35.9l-27.7-1.3c-4.8-0.2-9.7-0.4-14.7-0.5
							c-3-0.1-6.1-0.2-9.2-0.2C1235.7,77.6,1235.8,72.3,1235.9,67L1235.9,67z M1629.6,96.9c-2.3,3.4-3.7,7.3-4.6,11.2
							c-0.4,2-0.8,3.7-1,6c-0.1,2.1-0.1,4,0.1,6.1c0.4,4,1.3,8.1,3.1,11.9c1.7,3.7,3.7,7.1,6.1,10.3c1.2,1.6,2.5,3.1,3.8,4.5
							c1.3,1.4,2.7,2.8,4,4.1c2.8,2.6,5.7,5.1,8.7,7.3c2.9,2.1,5.7,4.2,8.6,6.2l4.3,3.1c1.4,1,2.7,1.9,4.1,2.9
							c2.7,2,5.3,4.1,7.8,6.2c2.3,1.9,4.4,4.1,6.3,6.4c2,2.4,3.4,4.6,4.7,7.2c1.2,2.6,2.3,5.4,2.8,8c0.5,2.7,0.7,5.7,0.6,8.8
							c-0.1,3.1-0.4,5.8-1.3,8.3c-0.4,1.2-0.9,2.4-1.5,3.5c-0.6,1-1.4,2.3-2.3,3.3c-1.7,2.2-3.8,3.9-6.2,5.4
							c-4.9,3.1-10.9,4.8-17.3,5.6c-6.3,0.7-13,0.6-19.6-0.6c-1.6-0.3-3.3-0.6-5-0.9c-1.7-0.3-3.3-0.6-5-1.1l-5-1.4l-2.5-0.7
							l-2.5-0.8c-3.3-1.1-6.6-2.1-9.8-3.4c-1.6-0.6-3.2-1.3-4.9-1.9l-2.4-1l-1.2-0.5c-0.6-0.3-0.4-0.1-0.8,0c2.4-3.7,5-7,7.1-10.2
							l3.4-5.4c0.5-0.7,0.9-1.5,1.4-2.2c5,4.4,10.3,8.4,16.4,11.7c3.6,1.9,7.5,3.6,11.8,4.5c4.3,1,8.9,1.2,13.6,0.2
							c2.3-0.5,4.6-1.2,6.7-2.3c1.1-0.5,2.1-1.1,3.1-1.7s2.2-1.4,3.2-2.5c2-2,3.6-4.2,4.7-6.9c1.1-2.7,1.5-5.7,1.3-8.6
							c-0.1-1.4-0.4-2.9-0.8-4.2c-0.4-1.4-0.8-2.4-1.3-3.6c-1-2.2-2.3-4.3-3.6-6.1c-2.7-3.7-5.7-6.7-8.7-9.5c-3-2.7-6.3-5.3-9.4-7.6
							l-9.2-6.8l-9.1-6.7c-3-2.2-6.2-4.4-8.7-6.5c-1.3-1.1-2.6-2.1-3.6-3.1c-0.2-0.3-2-1.9-2.4-2.2l-2.1-1.9c-2.2-2.4-4.5-4.3-6.5-7
							c-1-1.3-2-2.7-3-4.1c-0.5-0.8-0.9-1.3-1.3-1.9c-0.4-0.6-0.8-1.2-1.1-1.9c-0.7-1.3-1.4-2.7-1.9-4.1c-0.6-1.4-1-2.7-1.4-4.2
							c-0.4-1.4-0.7-2.9-0.9-4.5c-0.1-0.7-0.2-1.6-0.3-2.3c-0.1-0.7-0.1-1.4-0.1-2.1c0-1.4,0-2.9,0.2-4.4c0.1-0.8,0.2-1.5,0.3-2.3
							l0.2-1.1c0.1-0.2,0.1-0.5,0.2-0.7c0.1-0.4,0.4-1.3,0.6-2c0.2-0.7,0.5-1.4,0.8-2.1c0.6-1.4,1.2-2.8,2-4.1
							c1.5-2.7,3.2-5.1,5.4-7.5c8.4-9.6,20.9-15.9,34.3-19.2c6.7-1.6,13.6-2.4,20.7-2.5c7.3-0.1,14.6-0.1,21.7,0.5
							c12.8,1,25.5,4.3,36.8,10.5c-2.3,4.4-4.6,8.8-7,13.2c-2.5,4.8-5.1,9.5-7.7,14.2c-4.9-3.5-10.2-6.5-15.6-9.1
							c-6.5-3.1-13.5-5.5-20.7-6.8c-7.1-1.3-14.8-1.7-22.2,0.1C1641.2,85.4,1634.1,90.1,1629.6,96.9L1629.6,96.9z"/>
					</g>
					<g class="st15">
						<path class="st16" d="M771.5,125.2c0.4-1.5,0.8-3,1.2-4.5c0.3-1.4,0.6-2.9,0.8-4.4c0.4-2.9,0.7-5.8,0.7-8.7l0-8l0-4
							c0-1.4-0.1-2.9-0.2-4.4c-0.3-2.9-0.8-5.9-1.4-8.7c-1.3-5.8-3.7-11.2-6.6-16.2c-2.9-5-6.5-9.5-10.6-13.5
							c-8.2-7.9-18.1-13.6-28.8-16.7c-2.6-0.7-5.4-1.4-8-1.7l-7.8-1.1l-7.8-1.1c-2.6-0.4-5.2-0.5-7.8-0.7l-7.8-0.7
							c-2.6-0.2-5.2-0.2-7.8-0.3c-2.6-0.1-5.2-0.2-7.8-0.3l-7.8,0c-10.4,0.3-20.7,0.7-31,0.7c-10.3,0-20.7-0.1-31-0.2l-4.8-0.1
							l-0.2,5.5c-0.7,17.6-1.3,35.4-1,53.3c0.3,17.8,1.2,35.5,2.3,53.1c0.5,8.8,1.2,17.5,1.8,26.1l2.1,25.6
							c1.5,16.9,3.2,33.4,5.1,49.2l30.8,1.2c5.4,0.2,10.8,0.3,16.4,0.5c5.5,0.1,11.1,0.2,16.7,0.2h5.2l0.3-5.9
							c0.3-6.2,0.8-12.3,1-18.5l0.8-18.5c0.3-6.2,0.4-12.3,0.7-18.5l0.3-9.6l2.5-0.1c3.8-0.2,7.5-0.1,11.3-0.5l11.2-1.2
							c3.7-0.3,7.6-1,11.4-1.9c3.8-0.8,7.6-1.8,11.3-3.1c3.8-1.3,7.5-2.8,11.1-4.5c1.8-0.9,3.5-1.8,5.3-2.8c1.8-1.1,3.6-2.2,5.4-3.5
							c3.4-2.5,6.6-5.5,9.4-8.8c3.9-4.1,7.6-8.9,10.2-14.4C769.4,130.9,770.6,128.1,771.5,125.2L771.5,125.2z M741.3,82.4
							c1,2.3,1.7,4.4,2.1,6.7c0.2,1.1,0.4,2.3,0.5,3.5c0,0.6,0.1,1.2,0.1,1.8l0,0.9v1.1l-0.1,8.9c0,0.8,0,1.4,0,2
							c0,0.6-0.1,1.2-0.1,1.9c-0.1,1.2-0.3,2.5-0.5,3.7c-0.2,1.3-0.5,2.2-0.8,3.3c-0.3,1.1-0.8,2.1-1.2,3.2
							c-0.5,1.1-0.9,1.9-1.6,2.9c-0.6,0.9-1.3,1.9-2.1,2.8l-1.2,1.4c-0.4,0.4-1.5,1.6-1.7,1.9c-0.7,0.8-1.5,1.6-2.3,2.4
							c-0.8,0.8-1.8,1.5-2.7,2.1c-0.5,0.3-1,0.6-1.5,1l-1.8,1c-4.7,2.6-9.8,4.5-15.3,6.1c-2.7,0.8-5.5,1.4-8.3,1.9
							c-2.9,0.4-5.8,0.9-8.7,1.5c-2.9,0.5-5.8,1.1-8.8,1.3l-8.9,1c-6,0.5-12.2,0.9-18.3,1.3l-5.2,0.3l0.3,4.6
							c0.4,6.2,0.8,12.4,1.1,18.7l0.5,9.3l0.3,9.3c0.2,6.2,0.3,12.4,0.3,18.7c0,5.3,0,10.5-0.2,15.8c-5.5,0.1-11,0.2-16.5,0.1
							c-4.5,0-9.1-0.1-13.6-0.2c0.7-13.2,1.3-26.2,1.2-39.2c-0.1-14.6-1-29.2-1.9-44c-0.5-7.4-1.1-14.9-1.7-22.4l-2-22.8
							c-1.5-15.4-3.1-31.1-5.2-47.7c13.3,0.5,25.5,1.5,36.9,2l8.5,0.3c2.9,0.2,6,0.4,9,0.6c3,0.2,5.9,0.6,8.9,0.9
							c3,0.4,5.9,0.5,8.8,1.1l8.8,1.5l2.2,0.4l2.2,0.5l4.3,1l8.6,2c2.6,0.7,4.9,1.5,7.2,2.6c4.5,2.2,8.8,5.2,12.3,8.7
							C736.5,73.9,739.3,78,741.3,82.4L741.3,82.4z"/>
						<path class="st16" d="M712.8,76.1c-3.3-2-6.8-3.3-10.3-4.1c-3.5-0.8-6.9-1.1-10.2-1.2c-6.7-0.1-13,0.8-19.2,1.2
							c-6.2,0.5-12.3,1-18.4,0.8l-2.7-0.1l-0.3,3.4c-0.5,5.2-1.5,10.3-2.4,15.5c-0.9,5.2-1.6,10.4-1.7,15.5
							c-0.1,5.2,0.3,10.3,1.3,15.4c1,5.1,2.6,10.3,3.9,15.4l1,3.9l2.4-0.6c1.6-0.4,3.2-0.8,4.8-1.1c1.6-0.4,3.2-0.5,4.8-0.7
							c3.2-0.3,6.5-0.4,9.7-0.3c6.1,0.1,12.3,0.5,18.8,0.9c3.3,0.2,6.8,0,10.3-0.5c1.8-0.3,3.5-0.7,5.2-1.2c1.8-0.6,3.6-1.4,5.3-2.3
							c3.4-1.9,6.5-4.6,8.9-7.8c1.2-1.5,2.4-3.5,3.3-5.4c0.9-1.9,1.6-3.9,2.1-5.9c1-4,1.1-7.9,0.9-11.7c-0.3-3.8-1.1-7.5-2.5-11.2
							c-1.4-3.7-3.4-7.3-6.1-10.4C719.1,80.6,716.1,78,712.8,76.1z M701.4,97.5c2.8,1.8,4.3,5.6,3.8,9.4c-0.2,1.9-0.9,3.7-1.9,4.8
							c-0.5,0.6-1,0.8-1.5,1c-0.7,0.4-1.3,0.7-2,0.9c-0.6,0.2-1.2,0.4-1.8,0.6c-0.6,0.1-1.1,0.3-1.9,0.6c-1.4,0.4-2.8,1.1-4.4,1.6
							c-0.8,0.2-1.5,0.5-2.4,0.8c-0.9,0.2-1.9,0.6-2.8,0.8c-1.9,0.6-3.8,1.2-5.7,1.8c-1.9,0.6-3.9,1.2-6,2c-1,0.4-2,0.8-3.1,1.3
							c-0.5,0.2-1,0.5-1.6,0.8l-0.8,0.4c0,0,0,0,0,0l3-10.9c1-3.5,1.8-6.7,2.6-9.7c0.7-2.6,1.1-4.9,1.5-7.3c1.1-0.1,2.2-0.2,3.4-0.3
							c3.9-0.3,7.5-0.3,11.2-0.4C694.8,95.7,698.5,95.6,701.4,97.5L701.4,97.5z M669.2,125l0.1-0.3
							C669.3,124.8,669.3,124.9,669.2,125z"/>
						<path class="st16" d="M1200.7,174.2c-6.8-15.4-13.6-30.7-20.7-46c-7-15.3-14.5-30.3-21.7-45.5c-7.3-15.1-14.3-30.4-21.2-45.8
							l-0.7-1.7l-1.7-0.1c-15.9-0.8-31.8-1.9-47.7-3.4l-2.2-0.2l-0.9,2.2c-6.8,15.9-14.1,31.5-21.3,47.1
							c-7.3,15.7-14.4,31.4-20.8,47.3c-6.5,16-12.5,32.1-18.5,48.3c-3.5,9.5-6.8,19-10.2,28.5l-1.6-1.6l-24.2-23.7l-14.7-14.3
							c1.7-0.7,3.3-1.4,5-2.1c3-1.4,5.9-2.9,8.7-4.6c2.8-1.7,5.7-3.8,8.3-6c2.6-2.2,5.1-4.8,7.2-7.2c2.2-2.5,4.2-5.2,6-8
							c3.6-5.8,6.2-12.1,7.5-18.8c0.6-3.3,1-6.6,1-9.9c0-3.3-0.1-6.4-0.4-9.6c-0.2-3.1-0.6-6.4-1.3-9.6c-0.7-3.2-1.6-6.3-2.7-9.3
							c-2.3-6.1-5.5-11.6-9.2-16.8s-8.1-9.8-13-13.7c-4.9-4-10.2-7.4-16.1-9.9c-2.9-1.2-6-2.2-9-3c-3.1-0.7-6-1.3-9-1.9
							c-6-1.2-12-2.2-18.2-3c-6.2-0.9-12.3-1-18.4-1.5l-9.2-0.7c-1.5-0.1-3.1-0.3-4.6-0.3h-4.5l-18.2,0c-7.9,0-15.8,0-23.7,0.1v-0.9
							l-8-0.2c-11-0.3-22-0.6-33-0.5c-11,0-22,0.3-33.1,0.4l-5.3,0.1l0.2,4.6c0.6,17.3,0.8,34.6,0.1,51.9
							c-0.3,8.6-0.8,17.3-1.6,25.9c-0.4,4.3-0.8,8.6-1.3,12.9c-0.5,4.3-1,8.6-1.5,12.9c-2.2,17.2-4.3,34.4-5.1,51.7
							c-0.8,17.3-1,34.6-1,51.9l0,7.1l6.4,0.1c11.8,0.1,23.6-0.2,34.9-0.8c5.7-0.2,11.1-0.7,16.5-0.9l15.5-1.1
							c1.9-13,3.7-26.6,5.3-40.6c1.2,13.5,2.4,26.7,3.8,39.5l30.9,0.8c10.7,0.3,21.7,0.4,32.8,0.4h4.8l0.1-5.3l0.8-29.9l0.1-8.6
							l13.5,16.2c9,10.6,18,21.2,27.1,31.7l6.3,7.3l7.2-6.5l18.1-16.2c5-4.5,10-9,14.9-13.6c-0.6,1.9-1.3,3.7-1.9,5.6l-2.1,6.1
							l5.8,1.4c5.3,1.2,10.7,2.3,16,3.4c5.3,1.1,10.6,2.1,15.7,3.1c10.4,1.9,20.4,3.7,29.9,5.3l11.7-26.9c3.5-8.1,7-16.5,10.5-25
							l22.3,1.1l20.3,0.8l8.3,23c3.3,9.2,6.8,18.4,10.3,27.6l3.2,8.4l8.8-3.1c8.2-2.9,16.3-5.7,24.4-8.7c8.1-2.9,16.2-6,24.3-9
							l9.4-3.5l-4-9L1200.7,174.2L1200.7,174.2z M832.5,94c-0.6,15.2-2.6,30.3-4.9,45.4c-2.3,15.1-3.9,30.2-4.2,45.4
							c-0.4,13.4-0.4,26.8,0,40.2c-1,0.1-1.9,0.1-2.9,0.2c-3.2,0.2-6.4,0.5-9.7,0.8l-10.3,1l-11.1,0.9c2.5-16.8,4.6-32.7,6.5-48.2
							c1.9-15.5,3.7-30.6,5-45.4c1.4-14.8,2.4-29.3,2.7-43.9c0.3-12,0.4-24.1,0.4-36.3c4.1,0,8.2-0.1,12.2-0.2l16.1-0.5
							C833,67.1,833.2,80.6,832.5,94L832.5,94z M882.7,221.4c-3.6,0-7.2,0.1-10.9,0.2c-0.2-12-0.7-24-1.2-35.9
							c-0.7-14.6-1.6-29.2-2.7-44.1c-1.1-14.8-2.3-29.8-3.7-45.1c-1.4-15.3-2.8-30.8-4.5-47c11.7,0.2,22.8,0.8,33.3,1.1
							c2.6,0.1,5.2,0.2,7.8,0.2c2.6,0.1,5.1,0,7.9,0.3c5.4,0.5,10.8,1,16.3,1.4c10.7,0.7,21,3,31.5,5.5l1.9,0.5
							c0.6,0.2,1.1,0.3,1.6,0.5c1.1,0.3,2.1,0.8,3.1,1.2c2.1,0.9,4.1,2.1,6,3.4c3.9,2.7,7.4,5.9,10.4,9.6c2.9,3.6,5.3,7.7,7,12
							c0.8,2.1,1.5,4.2,1.9,6.4c0.2,1.1,0.4,2.2,0.5,3.2c0.1,1.1,0.2,2.1,0.2,3.4l0,7.5c0,2.3-0.4,4.2-0.8,6.4
							c-0.9,3.9-2.9,7.6-5.6,11c-1.3,1.7-3,3.6-4.6,5.1c-1.5,1.4-3.2,2.7-5,3.9c-1.9,1.2-4.1,2.4-6.2,3.4c-1.1,0.6-2.3,1.1-3.5,1.5
							c2.2-1.8,4.2-3.9,5.8-6.3c2.3-3.5,3.9-7.5,4.6-11.4c0.8-3.9,0.9-7.6,0.6-11.3c-0.2-2.2-0.5-3.8-1-5.7c-0.4-1.8-1-3.6-1.7-5.4
							c-1.4-3.6-3.5-7.1-6.1-10.1c-2.6-3-5.6-5.5-8.8-7.5c-3.2-2-6.7-3.4-10.1-4.3c-3.4-0.9-6.8-1.3-10.2-1.4
							c-6.7-0.2-13,0.8-19.1,1.4c-6.1,0.7-12.2,1.3-18.2,1.3l-2.5,0l-0.2,2.9c-0.4,5.2-1.4,10.4-2.4,15.7c-1,5.2-2.1,10.4-2.4,15.7
							c-0.4,5.2-0.3,10.4,0.4,15.7c0.6,5.2,2,10.4,3.3,15.7l1.2,4.8l0.9-0.2c0.2,13.4,0.1,26.9-0.4,40.3
							c-0.3,11.5-0.8,23.1-1.2,34.6C891.6,221.4,887.2,221.4,882.7,221.4L882.7,221.4z M949.4,110.9c-0.3,1.9-1,3.8-2,5
							c-0.3,0.3-0.5,0.5-0.8,0.7c-0.3,0.2-0.5,0.2-0.8,0.5c-0.7,0.4-1.3,0.8-2,1c-0.6,0.2-1.2,0.4-1.8,0.6c-0.3,0.1-0.6,0.1-0.9,0.2
							l-1.1,0.3c-1.4,0.5-2.8,1.1-4.3,1.6c-1.4,0.5-3.4,1-5.3,1.6c-1.9,0.6-3.8,1.1-5.7,1.7c-1.9,0.6-4,1.1-6.1,1.9
							c-1,0.4-2.1,0.8-3.2,1.3c-0.5,0.2-1.1,0.4-1.6,0.7c-0.8,0.2-0.4,0.6-1.1,1.1l3.5-11.7c1-3.5,2-6.8,2.8-9.8
							c0.7-2.8,1.3-5.4,1.8-7.9c1.2-0.1,2.4-0.2,3.6-0.3c3.9-0.3,7.5-0.3,11.2-0.4c3.6,0,7.3,0.1,10.1,2.2c1.4,1,2.4,2.5,3,4.3
							C949.4,107.1,949.7,109.1,949.4,110.9L949.4,110.9z M905.1,144.6c1.8-0.4,3.6-0.6,5.5-0.8c1.8-0.2,3.8-0.3,5.6-0.4
							c1.9-0.1,3.8,0,5.6,0l10.5,0.3l-2.7,0.4l-18.4,2.5l13.1,12.7l28.5,27.7l14.3,13.8c3.1,3,6.2,5.9,9.4,8.9
							c-2.3,2.2-4.5,4.5-6.8,6.7l-14-14.4c-6.1-6.3-12.2-12.6-18.2-19c-11.7-12.4-23.2-25-34.3-37.9
							C903.9,144.9,904.5,144.7,905.1,144.6L905.1,144.6z M1173.2,221.1c-2.5-7.6-5-15.3-7.4-23l-4.2-13.2l-4.4-13.1l-1.5-4.4
							l-5.3-0.2c-5.2-0.2-10.3-0.4-15.5-0.5c4-0.9,7.8-1.8,10.9-2.8c-0.9-5.4-2.2-11.6-3.7-18.2c-1.5-6.6-3.3-13.8-5.4-21.1
							c-2.1-7.3-4.6-14.8-7.7-22.2c-3.1-7.4-6.6-14.5-10.1-21.5l-10.2-20.2l-5.5,20.9c-1.8,6.7-3.4,13.5-4.5,20.5
							c-1.1,6.9-2,14-3.6,20.8s-3.8,13.4-6.8,19.7c-3,6.3-6.9,12.4-10.1,18.6l-4,7.8l0.9,0.1l-0.9,3c-2.8,9.1-5.5,18.2-8,27.4
							l-3.8,13.8l-2.6,10.1c-4-0.7-8.1-1.3-12.3-1.9c-5.9-0.8-12-1.8-18.5-2.9l20.8-43.6c6.7-14.2,13.2-28.1,19.5-41.8
							c3.2-6.9,6.2-13.7,9.2-20.5c3-6.8,6.1-13.6,8.9-20.3c4.9-11.4,9.6-22.9,14.1-34.4c6.2,0.3,12.3,0.6,18.5,0.9l16.1,36
							c6.2,13.7,12.7,27.3,19.4,40.8c6.6,13.5,13.3,27.1,19.7,40.7c5.9,12.8,11.5,25.6,16.8,38.7c-3.3,1.1-6.6,2.2-9.8,3.3
							C1179.2,219.2,1176.2,220.2,1173.2,221.1L1173.2,221.1z M1110.2,140.8l4.9-5.8c0.5,0.5,0.9,1,1.3,1.6c1.6,2.2,2.8,4.5,3.2,7.2
							c-0.7,0.2-1.4,0.5-2.2,0.9l-5.9,2.6c-2.3,1-5.1,2-8.5,3.2C1105.7,146.5,1108,143.5,1110.2,140.8L1110.2,140.8z"/>
						<path class="st16" d="M1744.3,53.4c-4.3-3.2-9.3-7-14.5-10c-5.2-3.1-10.7-5.6-16.3-7.6c-11.2-4.2-23-6.2-34.6-6.9
							c-5.8-0.3-11.5-0.4-17.2-0.3c-5.7,0.1-11.6,0.4-17.3,1.3c-11.5,1.6-22.7,5-33.2,10c-10.4,5.1-20,12-27.6,20.9
							c-3.8,4.4-7.1,9.3-9.6,14.6c-1.2,2.4-2.2,4.9-3.1,7.5c0-6,0-12.1,0-18.1c0.1-9.8,0.2-19.7,0.5-29.5l0.1-3.2l-3.3-0.1
							c-14.2-0.3-28.4-0.9-42.6-1.4l-42.6-1.8c-14.2-0.5-28.4-1-42.6-1.2c-13-0.3-26-0.4-39-0.3l0-0.7l-7.2,0.5l-3.6,0.2h-0.9v0.1
							l-18.5,1.3l-22.9,1.9c-15.3,1.2-30.6,2.5-45.8,3.5c-15.3,0.9-30.6,1.7-45.9,2.1c-15.3,0.4-30.6,0.5-45.9,0.2l-3.7-0.1
							l-0.1,4.1c-0.1,9-0.3,18-0.6,26.9c-0.2,9-0.5,18-0.6,26.9l-0.1,6.6l7.2,0c16.1,0.1,32.2-0.3,48.3-1.2
							c0.7,23.4,1.8,46.8,3.5,69.7c0.8,12.8,1.9,25.4,2.9,37.7c1.1,12.3,2.2,24.4,3.4,36.1l30.7,1.4c10.6,0.5,21.6,0.8,32.7,1l5,0.1
							l0.2-5.6c0.4-12.6,0.9-25.2,1.1-37.8l0.4-18.9l0.2-18.9c0.2-12.6,0.2-25.2,0.3-37.8c0-9.5-0.1-19-0.2-28.5
							c7.6-0.4,15.2-0.7,22.8-1.2l27.2-1.6c0.6,15.3,1.2,30.7,2,45.8c0.8,17.5,1.9,34.7,2.9,51.7c1.1,17,2.2,33.8,3.4,50.1l74.8,2.7
							c12.8,0.4,25.7,0.7,38.7,1.1c13,0.3,26.1,0.4,39.2,0.6l7.5,0.1l0-7.9c0-8.3-0.1-16.6-0.1-24.9l-0.2-24.9l-0.1-8.6l-8.9,0.1
							l-20.9,0.3l-0.5-35.8l-0.1-8.5l-8.3,0.1l-29.8,0.5c-7.6,0.2-15.2,0.3-22.8,0.5l-0.8-18.4l-1-20.3c16-0.6,31.9-1.2,47.9-1.6
							c9-0.3,17.9-0.5,26.9-0.6l13.4-0.2l13.4-0.1h0.1c-0.3,4.3,0,8.7,0.6,12.9c0.8,5.8,2.5,11.7,4.9,17.2c1.2,2.7,2.6,5.4,4.3,8
							c1.6,2.5,3.2,4.9,5,7.3c1.8,2.4,3.7,4.7,5.7,6.9c1,1.1,2.1,2.2,3.3,3.3l3.2,2.9l-0.4-0.4c2.1,2.3,4.3,4.3,6.6,6.2
							c0.2,0.2,0.5,0.4,0.8,0.6l-3.4,5.9c-1.6,2.8-3.1,5.6-4.6,8.3l-0.3,0.5l-17.8,39.4l-1.5,3.3l2.7,1.5c5.6,3.2,11.5,6.5,17.4,9.3
							c6,2.8,12.2,5,18.3,7.3l9.4,3c3.2,0.9,6.3,1.7,9.6,2.3c6.4,1.3,13,2,19.5,2.1c4.2,0,8.3-0.3,12.5-0.9
							c4.1-0.6,8.2-1.6,12.2-3.1c7.9-2.8,15.3-7.7,20.9-14.4c2.8-3.2,5.2-7.1,6.8-11.2c1.7-4.1,2.8-8.4,3.4-12.7
							c0.6-4.3,0.9-8.7,0.7-13.1c-0.2-4.4-1.1-9.1-2.4-13.3c-1.3-4.3-3.1-8.5-5.5-12.5c-2.4-3.9-5-7.5-8.1-10.9
							c-1.5-1.7-3.1-3.3-4.8-4.9c-1.6-1.5-3.2-2.9-4.8-4.3c-3.2-2.8-6.7-5.5-10.1-8l-10-7.3l-2.4-1.7l-2.2-1.7
							c-1.4-1.2-2.8-2.4-4.1-3.6c-0.6-0.6-1.3-1.3-1.9-1.9c-0.6-0.6-1.1-1.2-1.6-1.8c-1-1.2-1.9-2.5-2.7-3.8
							c-0.9-1.5-1.1-2.1-1.4-3.3c-0.2-1-0.3-2.1-0.3-3.4c0.2-2.4,1-4.2,1.3-4.4c0.5-0.6,1-1,1.6-1.3c0.6-0.3,1.2-0.6,2.4-0.8
							c4.3-1,10.7-0.2,16.4,1.6c5.9,1.8,11.8,4.7,17.1,8.1c2.6,1.7,5.1,3.6,7.4,5.7c0.6,0.5,1.1,1,1.7,1.6l1.9,1.9l3.8,3.8l8.6,8.5
							l5.8-10.3l16.3-28.9l16.2-28.9l3.5-6.2L1744.3,53.4L1744.3,53.4z M1547.3,73.1c-15.1-0.3-30.2-0.5-45.4-0.7
							c-17.9-0.2-35.9-0.1-53.8,0l-9.7,0.1l0.2,9.5l1,38.3l1.1,38.3l0.2,8.4l8.1-0.1l29.7-0.6c7.7-0.1,15.3-0.4,23-0.6
							c0,0.1,0,0.1,0,0.2l-51.9,2.1l-4.3,0.2l0.2,4l1,16.9c0.3,5.6,0.6,11.3,0.8,16.9l0.1,3.2l3.1-0.2c7.3-0.4,14.7-0.8,22-1.1
							l22-0.8c7.3-0.2,14.7-0.4,22.1-0.5l18.5-0.1c0,3,0,5.9-0.1,8.9l-0.1,7.6l-27.5-0.8c-10.6-0.3-21.1-0.6-31.7-0.8
							c-10.6-0.2-21.1-0.2-31.7-0.2c-7.9,0.1-15.8,0.2-23.8,0.4c-0.3-12-0.6-24-1.2-36c-0.6-14.7-1.2-29.5-2.2-44.5
							c-0.8-14.9-1.8-30.1-2.8-45.5l-3.3-47.1l73.9,4.2l35.5,1.8l27,1L1547.3,73.1L1547.3,73.1z M1230.7,59.7l13.1,0.2l19.8,0
							c6.6,0,13.2,0,19.8-0.1c6.6,0,13.2-0.1,19.8-0.3c13.2-0.2,26.4-0.7,39.7-1.2l31.2-1.6l0.6,10.6l-7.9,0.6l-16,1.3
							c-5.3,0.4-10.7,1-16,1.5l-16,1.6l-5.2,0.5l0.3,4.6c0.9,12.6,1.8,25.2,2.4,37.7c0.6,12.6,1,25.2,1.1,37.8
							c0.1,12.6-0.1,25.2-0.6,37.8c-0.4,10.4-1,20.8-1.5,31.2l-13-0.2c-3.6,0-7.1,0-10.7,0c-0.2-10.5-0.5-21-1-31.4
							c-0.5-13.1-1.3-26.1-2.2-38.9l-1.5-19.1l-1.6-18.7c-1.2-12.3-2.3-24.4-3.7-35.9l-27.7-1.3c-4.8-0.2-9.7-0.4-14.7-0.5
							c-3-0.1-6.1-0.2-9.2-0.2C1230.5,70.3,1230.6,65,1230.7,59.7L1230.7,59.7z M1624.4,89.6c-2.3,3.4-3.7,7.3-4.6,11.2
							c-0.4,2-0.8,3.7-1,6c-0.1,2.1-0.1,4,0.1,6.1c0.4,4,1.3,8.1,3.1,11.9c1.7,3.7,3.7,7.1,6.1,10.3c1.2,1.6,2.5,3.1,3.8,4.5
							c1.3,1.4,2.7,2.8,4,4.1c2.8,2.6,5.7,5.1,8.7,7.3c2.9,2.1,5.7,4.2,8.6,6.2l4.3,3.1c1.4,1,2.7,1.9,4.1,2.9
							c2.7,2,5.3,4.1,7.8,6.2c2.3,1.9,4.4,4.1,6.3,6.4c2,2.4,3.4,4.6,4.7,7.2c1.2,2.6,2.3,5.4,2.8,8c0.5,2.7,0.7,5.7,0.6,8.8
							c-0.1,3.1-0.4,5.8-1.3,8.3c-0.4,1.2-0.9,2.4-1.5,3.5c-0.6,1-1.4,2.3-2.3,3.3c-1.7,2.2-3.8,3.9-6.2,5.4
							c-4.9,3.1-10.9,4.8-17.3,5.6c-6.3,0.7-13,0.6-19.6-0.6c-1.6-0.3-3.3-0.6-5-0.9c-1.7-0.3-3.3-0.6-5-1.1l-5-1.4l-2.5-0.7
							l-2.5-0.8c-3.3-1.1-6.6-2.1-9.8-3.4c-1.6-0.6-3.2-1.3-4.9-1.9l-2.4-1l-1.2-0.5c-0.6-0.3-0.4-0.1-0.8,0c2.4-3.7,5-7,7.1-10.2
							l3.4-5.4c0.5-0.7,0.9-1.4,1.4-2.2c5,4.3,10.3,8.4,16.4,11.7c3.6,1.9,7.5,3.6,11.8,4.5c4.3,1,8.9,1.2,13.6,0.2
							c2.3-0.5,4.6-1.2,6.7-2.3c1.1-0.5,2.1-1.1,3.1-1.7s2.2-1.4,3.2-2.5c2-2,3.6-4.2,4.7-6.9c1.1-2.7,1.5-5.7,1.3-8.6
							c-0.1-1.4-0.4-2.9-0.8-4.2c-0.4-1.4-0.8-2.4-1.3-3.6c-1-2.2-2.3-4.3-3.6-6.1c-2.7-3.7-5.7-6.7-8.7-9.5c-3-2.7-6.3-5.3-9.4-7.6
							l-9.2-6.8l-9.1-6.7c-3-2.2-6.2-4.4-8.7-6.5c-1.3-1.1-2.6-2.1-3.6-3.1c-0.2-0.3-2-1.9-2.4-2.2l-2.1-1.9c-2.2-2.4-4.5-4.3-6.5-7
							c-1-1.3-2-2.7-3-4.1c-0.5-0.8-0.9-1.3-1.3-1.9c-0.4-0.6-0.8-1.2-1.1-1.9c-0.7-1.3-1.4-2.7-1.9-4.1c-0.6-1.4-1-2.7-1.4-4.2
							c-0.4-1.4-0.7-2.9-0.9-4.5c-0.1-0.7-0.2-1.6-0.3-2.3c-0.1-0.7-0.1-1.4-0.1-2.1c0-1.4,0-2.9,0.2-4.4c0.1-0.8,0.2-1.5,0.3-2.3
							l0.2-1.1c0.1-0.2,0.1-0.5,0.2-0.7c0.1-0.4,0.4-1.3,0.6-2c0.2-0.7,0.5-1.4,0.8-2.1c0.6-1.4,1.2-2.8,2-4.1
							c1.5-2.7,3.2-5.1,5.4-7.5c8.4-9.6,20.9-15.9,34.3-19.2c6.7-1.6,13.6-2.4,20.7-2.5c7.3-0.1,14.6-0.1,21.7,0.5
							c12.8,1,25.5,4.3,36.8,10.5c-2.3,4.4-4.6,8.8-7,13.2c-2.5,4.8-5.1,9.5-7.7,14.2c-4.9-3.5-10.2-6.6-15.6-9.1
							c-6.5-3.1-13.5-5.5-20.7-6.8c-7.1-1.3-14.8-1.7-22.2,0.1C1636,78.2,1628.9,82.8,1624.4,89.6L1624.4,89.6z"/>
					</g>
					<g>
						<path class="st2" d="M759.8,95.2c0,4-0.1,7.8-0.2,11.5s-0.6,7.3-1.4,10.7c-0.8,3.4-2.1,6.8-3.9,10.2s-4.4,6.7-7.7,10.1
							c-3.1,3.6-6.8,6.6-11.3,9.1c-4.4,2.4-9.2,4.5-14.2,6c-5,1.6-10.3,2.8-15.7,3.7s-10.7,1.5-15.7,1.9c-5,0.4-9.8,0.6-14.2,0.7
							c-4.4,0.1-8.2,0.1-11.3,0.1v74.3l-50.7,2.7l-5.3-194.2l53.1-2.7c3.3,0,7,0,11,0.1s8.3,0.2,13,0.6s9.7,0.9,15,1.7
							c5.3,0.8,11,1.8,17,3.2c6,1.4,11.5,3.6,16.7,6.8c5.2,3.2,9.7,7,13.5,11.5c3.8,4.5,6.9,9.5,9,14.9
							C758.7,83.5,759.8,89.2,759.8,95.2L759.8,95.2z M662.4,131.6c1.1,0,3.2,0.1,6.3,0.3c3.1,0.2,6.7,0.2,10.7,0.1
							s8.2-0.5,12.5-1.2s8.3-2,11.8-3.9c3.5-1.9,6.3-4.6,8.3-7.9c2.1-3.4,2.9-7.8,2.5-13.2c-0.5-5.2-2-9.6-4.5-13s-6.1-6-10.7-7.8
							c-4.5-1.8-10-2.9-16.4-3.4c-6.4-0.4-13.6-0.4-21.5,0.3L662.4,131.6L662.4,131.6z"/>
						<path class="st2" d="M835.6,237.3l-53.4-2.7l8-194.8l53.4,2.8L835.6,237.3L835.6,237.3z"/>
						<path class="st2" d="M990.5,138.3c-2.9,3-6.2,5.6-10,7.8c-3.8,2.2-7.7,4.1-11.8,5.7c-4.1,1.6-8.2,2.9-12.4,3.8
							s-8.2,1.6-12,2.1l51.5,52l-26.5,23.8l-62.3-70.8l1.5,70.8l-50.4,2.7l-5.3-193.3l53.1-2.8c6.5,0,14.4,0.2,23.7,0.7
							s19.9,2,32,4.6c5.3,1.2,10.5,3.3,15.5,6.5c5,3.2,9.4,7,13.4,11.5c3.9,4.5,7.2,9.5,9.7,15.1c2.5,5.6,4,11.3,4.5,17.3
							c0.3,4,0.3,7.7,0.2,11.3s-0.7,7-1.6,10.5s-2.4,6.9-4.4,10.2C996.8,131.1,994,134.6,990.5,138.3L990.5,138.3z M958.7,108.8
							c-0.6-5.2-2.2-9.6-4.8-13s-6.1-6-10.6-7.9c-4.5-1.9-9.8-3-16.1-3.4s-13.4-0.3-21.3,0.3v50.7c1.3,0,3.5,0.1,6.8,0.4
							c3.3,0.3,6.9,0.4,11,0.3c4.1,0,8.3-0.4,12.6-1.1s8.3-2.1,11.8-4.1c3.5-2,6.2-4.8,8.3-8.3S959.1,114.6,958.7,108.8z"/>
						<path class="st2" d="M1146.1,180.8h-60.4l-18.6,55.4l-47.3-13L1091,41.4l39.2,2.6l73.8,176.3l-36.8,13.4L1146.1,180.8
							L1146.1,180.8z M1135.5,157.1l-23.6-55.3l-18.3,55.3H1135.5z"/>
						<path class="st2" d="M1325.5,83.2l2.4,151l-50.1,1.9l-2.7-151.3l-56.5,2.7l-1.4-41.2l171.1-5.3l1.4,39.5
							C1389.8,80.7,1325.5,83.2,1325.5,83.2z"/>
						<path class="st2" d="M1454.4,88.1l0.8,64.1h59.5v26.1h-58.4l0.5,21.2l88.2-2.9l1.1,37.1l-139.4,2.4l-2.4-194.5H1562v46.4
							H1454.4L1454.4,88.1z"/>
						<path class="st2" d="M1605.9,181c10.8,9.4,20.2,15.5,28.1,18.2c8,2.7,14.6,1.9,20-2.3c2.2-2.2,2.8-4.6,1.8-7.3
							c-1-2.7-3-5.6-6-8.6c-3-3-6.7-6.1-11.1-9.2c-4.4-3.1-8.8-6.2-13.3-9.2c-4.5-3-8.7-5.9-12.7-8.8c-4-2.8-7.1-5.3-9.4-7.6
							c-0.4-0.4-1.5-1.3-3.3-2.7s-3.7-3.4-5.9-5.8c-2.2-2.4-4.5-5.3-6.9-8.7c-2.4-3.3-4.3-7.1-6-11.3s-2.7-8.8-3.3-13.8
							c-0.5-5-0.2-10.4,1.1-16.2c2.1-7.3,5.5-13.9,10.4-19.8c4.8-5.9,10.7-10.9,17.5-15s14.5-7.3,22.9-9.6
							c8.5-2.3,17.3-3.4,26.6-3.4c7.9,0,15.2,0.4,22,1.1s13.2,1.9,19.2,3.6s11.8,3.9,17.3,6.6c5.5,2.7,10.9,6.1,16.2,10.2
							l-26.6,45.4c-4-4.1-8.5-7.7-13.7-10.9c-5.1-3.2-10.4-5.7-15.8-7.7c-5.4-1.9-10.7-3.2-15.9-3.6c-5.2-0.4-9.9,0-14.1,1.3
							s-7.7,3.7-10.5,7.1s-4.3,8-4.7,13.8c0,5,1,9.4,3.1,13.2c2.1,3.8,4.8,7.4,8.2,10.7c3.3,3.3,7.2,6.3,11.4,9.2
							c4.2,2.9,8.6,5.8,13,8.8s8.6,6.2,12.7,9.6c4.1,3.4,7.6,7.2,10.7,11.5s5.3,9.1,6.9,14.4c1.6,5.3,2.1,11.5,1.4,18.5
							c-0.6,6.7-2.5,12.4-5.7,17.1c-3.2,4.7-7.1,8.4-11.8,11.2c-4.7,2.8-10,4.8-15.8,5.8s-11.8,1.4-17.9,0.9
							c-3.7-0.3-7.4-0.8-11-1.5s-7.2-1.6-10.6-2.7c-3.4-1.1-6.8-2.3-9.9-3.5c-3.2-1.3-6.1-2.5-8.8-3.8c-6.4-3-12.5-6.4-18.3-10.2
							c3.4-6.4,6.5-12.2,9.2-17.2c1.2-2.2,2.3-4.3,3.4-6.4c1.1-2.1,2.1-3.9,2.9-5.6s1.5-2.9,2-3.9
							C1605.6,181.7,1605.8,181.1,1605.9,181L1605.9,181z"/>
					</g>
					<g>
						<path class="st3" d="M712,117.5c-2.1,3.4-4.9,6-8.3,7.9c-3.5,1.9-7.4,3.2-11.8,3.9c-4.3,0.7-8.5,1.1-12.5,1.2
							s-7.5,0.1-10.7-0.1c-0.8,0-1.5-0.1-2.1-0.1l0.2,6.9c1.1,0,3.2,0.1,6.3,0.3c3.1,0.2,6.7,0.2,10.7,0.1s8.2-0.5,12.5-1.2
							s8.3-2,11.8-3.9c3.5-1.9,6.3-4.6,8.3-7.9c2.1-3.4,2.9-7.8,2.5-13.2c-0.5-5.2-2-9.6-4.5-13c-0.5-0.6-0.9-1.2-1.5-1.7
							c0.8,2.3,1.4,4.8,1.7,7.6C714.9,109.7,714.1,114.1,712,117.5L712,117.5z"/>
						<path class="st3" d="M665.7,44.9c3.3,0,7,0,11,0.1s8.3,0.2,13,0.6s9.7,0.9,15,1.7c5.3,0.8,11,1.8,17,3.2
							c6,1.4,11.5,3.6,16.7,6.8c5.2,3.2,9.7,7,13.5,11.5c0.9,1,1.7,2.1,2.5,3.2c-1.9-3.7-4.2-7.1-6.9-10.2
							c-3.8-4.5-8.3-8.3-13.5-11.5c-5.2-3.2-10.7-5.4-16.7-6.8c-6-1.4-11.6-2.4-17-3.2c-5.3-0.8-10.3-1.3-15-1.7
							c-4.7-0.4-9-0.6-13-0.6c-4,0-7.7-0.1-11-0.1l-53.1,2.7l5.3,194.2l4.2-0.2l-5.1-186.9L665.7,44.9L665.7,44.9z"/>
						<polygon class="st3" points="843.3,48 843.6,41.2 790.2,38.4 782.2,233.1 786.9,233.4 794.6,45.4 						"/>
						<path class="st3" d="M960.6,128.4c2-3.5,2.8-8.2,2.4-14c-0.6-5.2-2.2-9.6-4.8-13c-0.4-0.6-0.9-1.1-1.3-1.6
							c0.9,2.2,1.5,4.8,1.8,7.5c0.5,5.8-0.3,10.5-2.4,14s-4.8,6.3-8.3,8.3c-3.5,2-7.4,3.4-11.8,4.1s-8.6,1.1-12.6,1.1
							c-4.1,0.1-7.7-0.1-11-0.3c-0.9-0.1-1.7-0.1-2.4-0.2v6.8c1.3,0,3.5,0.1,6.8,0.4c3.3,0.3,6.9,0.4,11,0.3c4.1,0,8.3-0.4,12.6-1.1
							s8.3-2.1,11.8-4.1C955.8,134.7,958.6,131.9,960.6,128.4z"/>
						<path class="st3" d="M994.4,209.5l1.4-1.2L951,163c-0.8,0.1-1.6,0.2-2.3,0.3L994.4,209.5z"/>
						<path class="st3" d="M910.2,45.7c6.5,0,14.4,0.2,23.7,0.7s19.9,2,32,4.6c5.3,1.2,10.5,3.3,15.5,6.5s9.4,7,13.4,11.5
							c1.3,1.5,2.6,3.1,3.7,4.8c-2.2-4.3-4.9-8.2-8.1-11.8c-3.9-4.5-8.4-8.3-13.4-11.5s-10.1-5.3-15.5-6.5c-12-2.6-22.7-4.2-32-4.6
							c-9.3-0.5-17.2-0.7-23.7-0.7l-53.1,2.8l5.3,193.3l4.2-0.2l-5.1-186L910.2,45.7L910.2,45.7z"/>
						<polygon class="st3" points="1133.1,49.5 1130.2,42.6 1091,40 1019.8,221.7 1026.2,223.5 1095.3,47 						"/>
						<polygon class="st3" points="1115.6,109.3 1135.5,155.7 1100.2,155.7 1097.9,162.8 1139.9,162.8 1116.2,107.5 						"/>
						<polygon class="st3" points="1388.7,46.9 1388.4,39.7 1217.3,45 1218.6,86.2 1222.8,86 1221.6,52.1 						"/>
						<polygon class="st3" points="1275.3,90.7 1277.8,234.8 1282.1,234.6 1279.5,90.5 						"/>
						<polygon class="st3" points="1562,47.3 1562,40.3 1404.3,40.3 1406.8,234.8 1411,234.7 1408.7,47.3 						"/>
						<polygon class="st3" points="1545.2,202.4 1545,195.2 1456.9,199.5 1468.8,203 						"/>
						<polygon class="st3" points="1514.7,157.9 1514.7,150.8 1455.2,152.2 1451.2,153.7 						"/>
						<path class="st3" d="M1582.4,109.5c-0.5-5-0.2-10.4,1.1-16.2c2.1-7.3,5.6-13.9,10.4-19.8c4.8-5.9,10.7-10.9,17.5-15
							s14.5-7.3,22.9-9.6c8.5-2.3,17.3-3.4,26.6-3.4c7.9,0,15.2,0.4,22,1.1s13.2,1.9,19.2,3.6s11.8,3.9,17.3,6.6
							c3.4,1.7,6.8,3.7,10.2,5.9l1.6-2.8c-5.2-4.1-10.6-7.5-16.2-10.2c-5.5-2.7-11.3-4.9-17.3-6.6c-6-1.7-12.4-2.9-19.2-3.6
							c-6.8-0.7-14.1-1.1-22-1.1c-9.2,0-18.1,1.1-26.6,3.4c-8.5,2.3-16.1,5.5-22.9,9.6c-6.8,4.1-12.7,9.1-17.5,15
							c-4.8,5.9-8.3,12.5-10.4,19.8c-1.3,5.8-1.6,11.2-1.1,16.2s1.6,9.6,3.3,13.8s3.6,8,6,11.3c0.3,0.4,0.5,0.7,0.8,1.1
							c-0.9-1.7-1.7-3.5-2.4-5.4C1584,119.1,1582.9,114.5,1582.4,109.5L1582.4,109.5z"/>
						<path class="st3" d="M1604.5,197.8c1.1-2.1,2.1-3.9,2.9-5.6s1.5-2.9,2-3.9c0.5-1,0.8-1.5,0.8-1.6
							c10.8,9.4,20.2,15.5,28.1,18.2c8,2.7,14.6,1.9,20-2.3c2.2-2.2,2.8-4.6,1.8-7.3c-0.8-2.1-2.2-4.4-4.2-6.7
							c0.8,2.6,0.2,4.9-1.9,7c-5.3,4.3-12,5-20,2.3c-8-2.7-17.3-8.8-28.1-18.2c0,0.1-0.2,0.6-0.8,1.6s-1.2,2.3-2,3.9
							s-1.8,3.5-2.9,5.6c-1.1,2.1-2.2,4.2-3.4,6.4c-2.7,5.1-5.8,10.8-9.2,17.2c2,1.3,4,2.6,6.1,3.8c2.7-5.1,5.2-9.8,7.5-14
							C1602.3,202,1603.4,199.9,1604.5,197.8L1604.5,197.8z"/>
						<path class="st3" d="M1645.7,136.1c3.3,3.3,7.2,6.3,11.4,9.2c4.2,2.9,8.6,5.8,13,8.8s8.6,6.2,12.7,9.6
							c3.8,3.1,7.1,6.7,10,10.6c-1.1-2.1-2.3-4.2-3.7-6.1c-3-4.2-6.6-8.1-10.7-11.5c-4.1-3.4-8.3-6.6-12.7-9.6
							c-4.4-3-8.7-5.9-13-8.8c-4.3-2.9-8.1-6-11.4-9.2c-1.7-1.6-3.2-3.3-4.5-5.1c0.2,0.5,0.5,1,0.7,1.5
							C1639.6,129.3,1642.3,132.9,1645.7,136.1L1645.7,136.1z"/>
					</g>
					<g class="st17">
						<g>
							<path class="st5" d="M661.7,123.4c0.2,0,0.4,0,0.6,0l-0.9-41.7c8-0.6,15.1-0.7,21.5-0.3c6.4,0.4,11.8,1.6,16.4,3.4
								c2.2,0.9,4.1,1.9,5.9,3.2c-0.6-1.4-1.4-2.6-2.2-3.8c-2.6-3.4-6.1-6-10.7-7.8c-4.5-1.8-10-2.9-16.4-3.4
								c-6.4-0.4-13.6-0.4-21.5,0.3l1.1,49.8C656.5,123.2,658.6,123.3,661.7,123.4L661.7,123.4z"/>
							<path class="st5" d="M756.6,78c-2.2-5.5-5.2-10.5-9-14.9c-1.1-1.3-2.2-2.5-3.4-3.6c2.2,3.2,4,6.5,5.4,10.1
								c2.2,5.5,3.3,11.2,3.3,17.2c0,4-0.1,7.8-0.2,11.5s-0.6,7.3-1.4,10.7c-0.8,3.4-2.1,6.8-3.9,10.2c-1.8,3.3-4.4,6.7-7.7,10.1
								c-3.1,3.6-6.8,6.6-11.3,9.1c-4.4,2.4-9.2,4.5-14.2,6c-5,1.6-10.3,2.8-15.7,3.7s-10.7,1.5-15.7,1.9c-5,0.4-9.8,0.6-14.2,0.7
								c-4.4,0.1-8.2,0.1-11.3,0.1V225l-43.8,2.4l0.2,8.8l50.7-2.7v-74.3c3.1,0,6.8,0,11.3-0.1c4.4,0,9.2-0.3,14.2-0.7
								c5-0.4,10.2-1,15.7-1.9c5.4-0.9,10.7-2.1,15.7-3.7c5-1.6,9.8-3.6,14.2-6c4.4-2.4,8.2-5.5,11.3-9.1c3.3-3.4,5.9-6.7,7.7-10.1
								c1.8-3.3,3.1-6.8,3.9-10.2s1.3-7,1.4-10.7s0.2-7.6,0.2-11.5C759.8,89.2,758.7,83.5,756.6,78L756.6,78z"/>
						</g>
						<polygon class="st5" points="836.2,42.2 828.6,228.8 782.6,226.5 782.2,234.6 835.6,237.3 843.6,42.6 						"/>
						<g>
							<path class="st5" d="M905.8,127.5V84.9c8-0.6,15.1-0.8,21.3-0.3c6.2,0.4,11.6,1.5,16.1,3.4c2.2,0.9,4.1,2,5.8,3.2
								c-0.7-1.4-1.4-2.6-2.3-3.8c-2.6-3.4-6.1-6-10.6-7.9c-4.5-1.8-9.8-3-16.1-3.4s-13.4-0.3-21.3,0.3v50.7c1.3,0,3.5,0.1,6.8,0.4
								C905.6,127.5,905.7,127.5,905.8,127.5L905.8,127.5z"/>
							<path class="st5" d="M1004.6,95.7c-0.5-6-2-11.8-4.5-17.3c-2.5-5.6-5.8-10.6-9.7-15.1c-1-1.1-1.9-2.1-3-3.1
								c2.1,3.1,4,6.3,5.6,9.8c2.5,5.6,4,11.3,4.5,17.3c0.3,4,0.3,7.7,0.2,11.3c-0.1,3.5-0.7,7-1.6,10.5s-2.4,6.9-4.4,10.2
								c-2,3.4-4.8,6.9-8.3,10.5c-2.9,3-6.2,5.6-10,7.8c-3.8,2.2-7.7,4.1-11.8,5.7c-4.1,1.6-8.2,2.9-12.4,3.8s-8.2,1.6-12,2.1
								l8.2,8.3c3.5-0.4,7.1-1.1,10.9-1.9c4.2-0.9,8.3-2.2,12.4-3.8s8-3.5,11.8-5.7s7.1-4.8,10-7.8c3.5-3.6,6.3-7.1,8.3-10.5
								c2-3.4,3.5-6.8,4.4-10.2c1-3.4,1.5-6.9,1.6-10.5S1004.8,99.7,1004.6,95.7L1004.6,95.7z"/>
							<polygon class="st5" points="962.2,225 899.9,154.3 901.4,225 857.8,227.4 858,236.2 908.4,233.5 906.9,162.7 969.3,233.5 
								995.8,209.7 988,201.9 							"/>
						</g>
						<g>
							<polygon class="st5" points="1139.1,172.3 1078.6,172.3 1060,227.8 1022.1,217.3 1019.8,223.1 1067.1,236.2 1085.7,180.8 
								1142.4,180.8 							"/>
							<polygon class="st5" points="1086.5,148.7 1096.3,148.7 1110.4,106.4 1104.8,93.4 							"/>
							<polygon class="st5" points="1130.2,44 1126.6,43.8 1196.9,211.9 1163.3,224.1 1167.2,233.7 1204,220.3 							"/>
						</g>
						<g>
							<polygon class="st5" points="1389.8,80.7 1388.4,41.1 1381.7,41.3 1382.7,72.2 1318.5,74.8 1320.9,225.9 1277.7,227.5 
								1277.8,236.2 1328,234.3 1325.5,83.2 							"/>
							<polygon class="st5" points="1268.1,76.4 1218.3,78.8 1218.6,87.6 1268.2,85.2 							"/>
						</g>
						<g>
							<polygon class="st5" points="1449.8,191.1 1456.6,190.9 1456.3,178.3 1514.7,178.3 1514.7,152.2 1507.7,152.2 1507.7,169.9 
								1449.3,169.9 							"/>
							<polygon class="st5" points="1538.2,196.9 1539.1,225.3 1406.6,227.6 1406.8,236.2 1546.1,233.7 1545,196.7 							"/>
							<polygon class="st5" points="1554.9,41.7 1554.9,79.7 1447.4,79.7 1448.2,143.8 1455.1,143.8 1454.4,88.1 1562,88.1 
								1562,41.7 							"/>
						</g>
						<g>
							<path class="st5" d="M1618.3,154.2c-4.5-3-8.7-5.9-12.7-8.8c-4-2.8-7.1-5.3-9.4-7.6c-0.4-0.4-1.5-1.3-3.3-2.7
								c-1.3-1.1-2.7-2.4-4.2-4c1.8,2.5,3.6,4.7,5.3,6.6c2.2,2.4,4.2,4.4,5.9,5.8c1.7,1.4,2.8,2.4,3.3,2.7c2.3,2.3,5.4,4.8,9.4,7.6
								s8.2,5.7,12.7,8.8s8.9,6.1,13.3,9.2c3.5,2.5,6.5,4.9,9.1,7.3c-1.1-2.1-2.8-4.3-5.1-6.5c-3-3-6.7-6.1-11.1-9.2
								C1627.2,160.3,1622.8,157.2,1618.3,154.2L1618.3,154.2z"/>
							<path class="st5" d="M1722.7,55.3l-25.2,42.9c-4-4.1-8.5-7.7-13.7-10.9c-5.1-3.2-10.4-5.7-15.8-7.7
								c-5.4-1.9-10.7-3.2-15.9-3.6c-5.2-0.4-9.9,0-14.1,1.3s-7.7,3.7-10.5,7.1s-4.3,8-4.7,13.8c0,5,1,9.4,3.1,13.2
								c2.1,3.8,4.8,7.4,8.2,10.7c0.2,0.2,0.3,0.3,0.5,0.5c-0.6-0.9-1.1-1.8-1.6-2.7c-2.1-3.8-3.1-8.3-3.1-13.2
								c0.4-5.8,1.9-10.4,4.7-13.8c2.8-3.4,6.2-5.8,10.5-7.1s8.9-1.7,14.1-1.3s10.5,1.7,15.9,3.6s10.6,4.5,15.8,7.7
								c5.1,3.2,9.7,6.8,13.7,10.9l26.6-45.4C1728.4,59.1,1725.6,57.1,1722.7,55.3L1722.7,55.3z"/>
							<path class="st5" d="M1689.1,169.6c-2-2.8-4.2-5.3-6.6-7.7c2.8,4.1,5,8.6,6.5,13.7c1.6,5.3,2.1,11.5,1.4,18.5
								c-0.6,6.7-2.5,12.4-5.7,17.1c-3.2,4.7-7.1,8.4-11.8,11.2c-4.7,2.8-10,4.8-15.8,5.8s-11.8,1.4-17.9,0.9
								c-3.7-0.3-7.4-0.8-11-1.5s-7.2-1.6-10.6-2.7c-3.4-1.1-6.8-2.3-9.9-3.5c-3.2-1.3-6.1-2.5-8.8-3.8c-3.3-1.5-6.5-3.2-9.6-4.9
								c-0.6,1-1.1,2.1-1.7,3.1c5.8,3.8,11.9,7.2,18.3,10.2c2.7,1.3,5.7,2.5,8.8,3.8c3.2,1.3,6.5,2.4,9.9,3.5c3.4,1.1,7,2,10.6,2.7
								c3.6,0.7,7.3,1.2,11,1.5c6.1,0.4,12,0.1,17.9-0.9s11.1-3,15.8-5.8s8.7-6.5,11.8-11.2c3.2-4.7,5.1-10.3,5.7-17.1
								c0.6-7,0.2-13.1-1.4-18.5C1694.4,178.7,1692.1,173.9,1689.1,169.6L1689.1,169.6z"/>
						</g>
					</g>
					<g>
						<g>
							<path class="st7" d="M800.7,239.1c2.2-1.5,8.2-8.1,9.2-13.3s6-64.6,6-64.6l-0.7,76.9L800.7,239.1z"/>
							<path class="st3" d="M815.9,159.3l-0.7,78.9c0,0,2.5-21.3,3.2-27.1S815.9,159.3,815.9,159.3L815.9,159.3z"/>
							<path class="st6" d="M803.2,236.8l6.7-10.9l6-66.6c0,0-8.3,63.9-8.5,64.7C807.3,224.7,803.2,236.8,803.2,236.8L803.2,236.8z"
								/>
						</g>
						<g>
							<path class="st7" d="M1176,233.8c1.4-2.2,4.5-10.7,3.4-15.9s-19.5-61.9-19.5-61.9l29.1,71.2L1176,233.8z"/>
							<path class="st3" d="M1159.2,154.2l29.8,73c0,0-5.9-20.6-7.6-26.2C1179.8,195.4,1159.1,154.2,1159.2,154.2L1159.2,154.2z"/>
							<path class="st6" d="M1177.4,230.6l1.9-12.7l-20.2-63.7c0,0,17,62.2,17.2,62.9C1176.5,217.9,1177.4,230.6,1177.4,230.6
								L1177.4,230.6z"/>
						</g>
						<g>
							<path class="st7" d="M1408.4,240.7c2-1.7,7.7-8.6,8.3-13.9c0.7-5.3,1.6-64.8,1.6-64.8l4.5,76.8L1408.4,240.7L1408.4,240.7z"
								/>
							<path class="st3" d="M1418.2,160l4.6,78.8c0,0,1-21.4,1.3-27.3C1424.4,205.6,1418.2,160,1418.2,160z"/>
							<path class="st6" d="M1410.8,238.1l5.9-11.4l1.5-66.8c0,0-4,64.3-4.1,65.1C1414.1,225.9,1410.8,238.1,1410.8,238.1
								L1410.8,238.1z"/>
						</g>
						<g>
							<path class="st7" d="M1712.5,95.7c0,0-4.8-10.1-6-11.1c-1.2-1-7.7-4.8-21.8-9.4s-47-6.4-47-6.4s31.9-3.1,43.9-0.6
								c11.9,2.6,26.9,8.8,27.9,9.7c1,0.8,8.8,10.1,8.8,10.1L1712.5,95.7z"/>
							<path class="st3" d="M1634.9,69.1c0,0,8.2-0.8,25.3,1.7s23.5,3.2,33.4,7.6c9.8,4.4,12.2,5.7,12.2,5.7l6.2,10.6
								c0,0-6.7-8-8.2-8.7c-1.6-0.7-36.3-12.2-44.7-12.8C1650.8,72.5,1634.9,69.1,1634.9,69.1L1634.9,69.1z"/>
							<path class="st6" d="M1709.4,77.9c-0.5,0.1-19-9.3-29.5-9.9c-10.5-0.7-43.1,1-43.1,1s31.5-5.5,37.6-5.7s36.9,11.4,36.9,11.4
								l5.3,11.4L1709.4,77.9L1709.4,77.9z"/>
						</g>
						<g>
							<path class="st7" d="M1002.2,125c0,0-3.7-21.1-4.5-22.4c-0.8-1.3-6-6.9-18-15.5s-43-20.2-43-20.2s31.4,6.6,42,12.6
								c10.6,6,18.3,11.9,19,13c0.7,1.1,10.2,16.9,10.2,16.9L1002.2,125L1002.2,125z"/>
							<path class="st3" d="M934.1,66.3c0,0,8.1,1.7,23.7,9.2c15.5,7.6,21.5,10.1,29.5,17.2c8.1,7.1,10.9,10.1,10.9,10.1l3.3,19.2
								c0,0-5.5-17.9-6.8-19s-31-22.5-38.8-25.6C948.2,74.3,934.1,66.3,934.1,66.3L934.1,66.3z"/>
							<path class="st6" d="M997.2,91.8c-0.5,0-10-9.2-19.8-13c-9.8-3.8-41.5-12-41.5-12s31.7,4.2,37.6,5.8
								c5.8,1.6,23.8,12.3,23.8,12.3l9.7,22.2L997.2,91.8L997.2,91.8z"/>
						</g>
						<g>
							<path class="st7" d="M1214.6,53.5c1.8,2,9,7.2,14.3,7.6s64.8-1.6,64.8-1.6l-76.5,8.2L1214.6,53.5L1214.6,53.5z"/>
							<path class="st3" d="M1295.7,59.4l-78.4,8.4h27.3C1250.5,67.8,1295.7,59.4,1295.7,59.4z"/>
							<path class="st6" d="M1217.3,55.8l11.6,5.3l66.8-1.8c0,0-64.4-0.8-65.2-0.9C1229.7,58.4,1217.3,55.8,1217.3,55.8L1217.3,55.8
								z"/>
						</g>
						<g>
							<path class="st7" d="M1516.9,156.3c-1,2-5,7.2-7.9,7.6s-35.9-1.6-35.9-1.6l42.3,8.2L1516.9,156.3L1516.9,156.3z"/>
							<path class="st3" d="M1472,162.2l43.4,8.4h-15.1C1497.1,170.6,1472,162.2,1472,162.2L1472,162.2z"/>
							<path class="st6" d="M1515.4,158.6l-6.4,5.4l-37-1.8c0,0,35.7-0.8,36.1-0.9C1508.6,161.2,1515.5,158.6,1515.4,158.6
								L1515.4,158.6z"/>
						</g>
						<g>
							<path class="st7" d="M1599.5,189c-0.2,2.2,0.3,8.8,2.6,10.7c2.2,1.9,31.1,18.1,31.1,18.1l-40.1-15.9L1599.5,189z"/>
							<path class="st3" d="M1634.1,218.2l-41.1-16.3c0,0,10,6.4,12.7,8.1C1608.5,211.7,1634.1,218.2,1634.1,218.2z"/>
							<path class="st6" d="M1599.5,191.7l2.5,8l32.1,18.5c0,0-29.6-20-29.9-20.2C1603.9,197.6,1599.5,191.7,1599.5,191.7
								L1599.5,191.7z"/>
						</g>
						<g>
							<path class="st7" d="M612.5,36.5c2.8,1.8,11,10,12.6,16.7s11,82.8,11,82.8L631.2,37L612.5,36.5L612.5,36.5z"/>
							<path class="st3" d="M636.3,138.5L631.2,37c0,0,4.3,27.2,5.5,34.7S636.3,138.5,636.3,138.5L636.3,138.5z"/>
							<path class="st6" d="M615.9,39.5l9.1,13.7l11.2,85.3c0,0-14-81.8-14.3-82.8C621.7,54.7,615.9,39.5,615.9,39.5L615.9,39.5z"/>
						</g>
						<g>
							<path class="st7" d="M792.2,35.6c2.2,1.8,8.1,9.1,8.8,14.6s1.9,68.2,1.9,68.2l4.5-80.8L792.2,35.6L792.2,35.6z"/>
							<path class="st3" d="M802.8,120.5l4.5-82.9c0,0,1.2,22.5,1.5,28.7C809.2,72.5,802.8,120.5,802.8,120.5z"/>
							<path class="st6" d="M794.8,38.3l6.3,11.9l1.8,70.3c0,0-4.4-67.7-4.5-68.5C798.2,51.2,794.7,38.3,794.8,38.3L794.8,38.3z"/>
						</g>
						<g>
							<path class="st7" d="M1110.9,41.1c1.5,0.5,9.5,5.3,11,8.2s14.4,37.2,14.4,37.2l-13.4-45.4H1110.9L1110.9,41.1z"/>
							<path class="st3" d="M1136.7,87.7l-13.7-46.5c0,0,5.1,12.2,6.4,15.5C1130.8,60,1136.7,87.7,1136.7,87.7z"/>
							<path class="st6" d="M1116.1,44l5.8,5.3l14.8,38.4c0,0-15.7-36.4-15.9-36.8C1120.5,50.4,1116.1,44,1116.1,44z"/>
						</g>
						<g>
							<g>
								<path class="st5" d="M1086.5,97.2c0,0-17.4,28-17.4,40.9s-3.1,26.6-8.4,43.7s-11.4,35.1-10.4,33.3
									c1-1.8,17.4-43.7,21.2-55.2c3.7-11.6,4.5-32.7,7.2-39S1086.5,97.2,1086.5,97.2L1086.5,97.2z"/>
								<path class="st3" d="M1088.4,93.3c0,0-9.7,22.7-11.4,34.1s-3.2,30.4-6,35.9c-2.7,5.6-18.3,45.9-18.3,45.9
									s19.7-37.2,22.6-49.1c2.9-11.9,3.1-24.5,4.7-30.8C1081.6,123.1,1088.4,93.3,1088.4,93.3L1088.4,93.3z"/>
							</g>
							<path class="st6" d="M1078.8,105.6c0,0-10,14.8-11.9,24.5s-5.9,34.5-6.9,41.4c-1,6.9-7.3,34.5-7.3,34.5s14.9-43.9,15.6-51.6
								s3.4-23.6,6.8-33.2s13.3-27.8,13.3-27.8L1078.8,105.6L1078.8,105.6z"/>
						</g>
						<g>
							<g>
								<path class="st5" d="M1651.9,160.9c0,0-11-17.4-18.2-20.9s-14.1-9-22.2-16.6s-16.6-15.9-15.8-14.8
									c0.7,1,19.8,21.6,25.2,26.8s17.1,11.4,19.9,14.6S1652,160.9,1651.9,160.9L1651.9,160.9z"/>
								<path class="st3" d="M1653.7,163c0,0-10.1-11.6-16-15.6c-6-4-16.1-10-18.5-13.1c-2.4-3-20.8-22.7-20.8-22.7
									s15.5,21.1,21.4,26c5.9,4.9,12.9,8.4,16,10.9C1638.8,151.2,1653.7,163,1653.7,163L1653.7,163z"/>
							</g>
							<path class="st6" d="M1649.3,154.4c0,0-5.6-9.6-10.5-13.3c-4.9-3.7-17.7-12.6-21.3-15.1s-17.3-13.4-17.3-13.4
								s20.6,20.2,24.7,22.7c4.1,2.5,12.3,8.3,16.8,12.8c4.5,4.5,12,15,12,15L1649.3,154.4L1649.3,154.4z"/>
						</g>
						<g>
							<g>
								<path class="st5" d="M1495.4,55.6c0,0-21.3-3.4-29.1-0.1c-7.8,3.3-16.8,4.9-28.4,6c-11.6,1.1-24,2.1-22.7,2.2
									c1.3,0.1,30.7-0.6,38.6-1.3s20.8-5.6,25.3-5.5C1483.6,57,1495.4,55.6,1495.4,55.6L1495.4,55.6z"/>
								<path class="st3" d="M1498.2,55.7c0,0-16.1-0.1-23.4,1.8s-19.1,5.8-23.1,5.5c-4-0.2-32.3,0.6-32.3,0.6s27.4,2.4,35.3,1.1
									c7.9-1.3,15.5-4.4,19.7-5C1478.6,59.2,1498.2,55.7,1498.2,55.7L1498.2,55.7z"/>
							</g>
							<path class="st6" d="M1488.4,53.1c0,0-11.5-2.2-17.8-1c-6.3,1.3-22.3,5.2-26.6,6.4c-4.4,1.2-22.6,4.3-22.6,4.3
								s30.2-2.2,35-3.7c4.8-1.5,15.1-3.9,21.7-4.3c6.7-0.4,20.1,0.9,20.1,0.9L1488.4,53.1L1488.4,53.1z"/>
						</g>
					</g>
					<g>
						<path class="st18" d="M606.9,214.9c-8-10.1-4.5-21-1.9-23.4l1.3-1.2l1.6,0.7c0.1,0,10.2,4.4,25.1,3.8
							c4.8-0.2,9.7-0.9,14.5-2.1c18.4-4.6,22.3-8.5,22.9-9.2l0.8-3.7l3.2,2.4c0.3,0.2,6.6,4.9,6.3,12.2c-0.2,5.9-4.6,11.4-13,16.3
							c-11.2,6.6-24.8,10.6-37.5,11.1l0,0C623.8,222.1,612.1,221.5,606.9,214.9L606.9,214.9z M648.7,198.4c-5.1,1.3-10.3,2-15.5,2.2
							c-12,0.5-21.1-2-25.2-3.4c-0.9,2.6-1.6,8.1,3,13.9c2.6,3.3,9.9,5.1,19,4.8l0,0c11.7-0.5,24.8-4.4,35.1-10.4
							c6.5-3.8,10-7.8,10.2-11.4c0.1-2.2-1.1-4.1-2.1-5.4C670,191.4,663.2,194.8,648.7,198.4L648.7,198.4z"/>
						<path class="st19" d="M606.8,193.7c0,0,17.6,7.8,41.3,1.9c23.7-5.9,24.8-11,24.8-11s15,10.9-6.5,23.5
							c-21.5,12.6-50.2,14.1-57.5,4.9C601.7,203.9,605.5,194.9,606.8,193.7L606.8,193.7z"/>
						<path class="st20" d="M605,198c0.4,2.8,1.6,6,4.1,9.2c7.2,9.1,36,7.7,57.5-4.9c6.7-3.9,9.8-7.7,11-11
							c1.3,4.3-0.1,10.4-11.2,16.9c-21.5,12.6-50.2,14.1-57.5,4.9C604.4,207.3,604.2,201.7,605,198L605,198z"/>
						<path class="st21" d="M639.8,199.7c16.3-3.2,29.6-9.8,32.3-11.1c2.2-1,4.4,5.1-3.1,10c-7.5,4.9-30,14.9-46.1,9.9
							C606.8,203.5,623.5,202.9,639.8,199.7z"/>
						<g>
							<path class="st18" d="M654.2,216.9c0.3-0.4,7.4-9.3,8.8-16.1c1.3-6.3,3.1-11.2,3.1-11.2l-3.1-1.3c-0.1,0.2-1.9,5.2-3.3,11.7
								c-1.3,6-8,14.5-8.1,14.6L654.2,216.9L654.2,216.9z"/>
							<path class="st18" d="M628.6,221.8c0.2-0.1,2.2-1.4,3.7-4.6c0.4-0.8,0.8-1.5,1.3-2.4c1.2-2,2.7-4.4,4.1-8.9
								c1.9-5.8,5.5-9.9,5.5-9.9l-2.4-2.5c-0.2,0.2-4.1,4.6-6.3,11.1c-1.4,4.1-2.7,6.3-3.8,8.2c-0.5,0.9-1,1.7-1.5,2.7
								c-1.1,2.2-2.5,3.2-2.5,3.2L628.6,221.8L628.6,221.8z"/>
							<path class="st18" d="M608.9,214c0-0.1,1.9-7.3,3.3-11.2c1.3-3.5,4.9-6.4,5-6.4l-1.9-2.9c-0.2,0.1-4.5,3.5-6.1,8
								c-1.5,4.1-3.4,11.2-3.4,11.5L608.9,214z"/>
						</g>
					</g>
					<g>
						<path class="st18" d="M1268.5,137.6c-8-10.1-4.5-21-1.9-23.4l1.3-1.2l1.6,0.7c0.1,0,10.2,4.4,25.1,3.8
							c4.8-0.2,9.7-0.9,14.5-2.1c18.4-4.6,22.3-8.5,22.9-9.2l0.8-3.7l3.2,2.4c0.3,0.2,6.6,4.9,6.3,12.2c-0.2,5.9-4.6,11.4-13,16.3
							c-11.2,6.6-24.8,10.6-37.5,11.1l0,0C1285.4,144.7,1273.7,144.2,1268.5,137.6L1268.5,137.6z M1310.3,121.1
							c-5.1,1.3-10.3,2-15.6,2.2c-12.1,0.5-21.1-2-25.2-3.4c-0.9,2.6-1.6,8.1,3,13.9c2.6,3.3,9.9,5.1,19,4.8l0,0
							c11.7-0.5,24.8-4.4,35.1-10.4c6.5-3.8,10-7.8,10.2-11.4c0.1-2.2-1.1-4.1-2.1-5.4C1331.6,114,1324.8,117.5,1310.3,121.1
							L1310.3,121.1z"/>
						<path class="st19" d="M1268.4,116.3c0,0,17.6,7.8,41.3,1.9c23.7-5.9,24.8-11,24.8-11s15,10.9-6.5,23.5s-50.2,14.1-57.5,4.9
							C1263.3,126.6,1267.1,117.6,1268.4,116.3L1268.4,116.3z"/>
						<path class="st20" d="M1266.6,120.6c0.4,2.8,1.6,6,4.1,9.2c7.2,9.1,36,7.7,57.5-4.9c6.7-3.9,9.8-7.7,11-11
							c1.3,4.3-0.1,10.4-11.2,16.9c-21.5,12.6-50.2,14.1-57.5,4.9C1266,130,1265.8,124.3,1266.6,120.6L1266.6,120.6z"/>
						<path class="st21" d="M1301.4,122.4c16.3-3.2,29.6-9.8,32.3-11.1c2.2-1,4.4,5.1-3.1,10s-30,14.9-46.1,9.9
							C1268.4,126.2,1285.1,125.6,1301.4,122.4z"/>
						<g>
							<path class="st18" d="M1315.9,139.6c0.3-0.4,7.4-9.3,8.8-16.1c1.3-6.3,3.1-11.2,3.1-11.2l-3.1-1.3c-0.1,0.2-1.9,5.2-3.3,11.7
								c-1.3,6-8.1,14.5-8.1,14.6L1315.9,139.6L1315.9,139.6z"/>
							<path class="st18" d="M1290.2,144.4c0.2-0.1,2.2-1.4,3.7-4.6c0.4-0.8,0.8-1.5,1.3-2.4c1.2-2,2.7-4.4,4.1-8.9
								c1.9-5.8,5.5-9.8,5.6-9.9l-2.4-2.5c-0.2,0.2-4.1,4.6-6.3,11.2c-1.4,4.1-2.7,6.3-3.8,8.2c-0.5,0.9-1,1.7-1.5,2.7
								c-1.1,2.2-2.5,3.2-2.5,3.2L1290.2,144.4L1290.2,144.4z"/>
							<path class="st18" d="M1270.5,136.6c0-0.1,1.9-7.3,3.3-11.2c1.3-3.5,4.9-6.4,5-6.4l-1.9-2.9c-0.2,0.1-4.5,3.5-6.1,8
								c-1.5,4.1-3.4,11.2-3.4,11.5L1270.5,136.6L1270.5,136.6z"/>
						</g>
					</g>
					<g>
						<path class="st18" d="M1271.5,165c-8.5-9.6-5.7-20.7-3.1-23.3l1.2-1.2l1.6,0.6c0.1,0,10.5,3.9,25.3,2.4
							c4.8-0.5,9.7-1.4,14.4-2.9c18.1-5.6,21.8-9.7,22.4-10.5l0.7-3.7l3.4,2.2c0.3,0.2,6.8,4.5,6.9,11.9c0.1,5.9-4,11.6-12.1,17
							c-10.8,7.2-24.2,11.9-36.9,13.1l0,0C1288.7,171.2,1277,171.3,1271.5,165L1271.5,165z M1312.4,146.3c-5,1.6-10.2,2.6-15.4,3.1
							c-12,1.1-21.2-0.9-25.3-2c-0.7,2.6-1.1,8.1,3.8,13.7c2.8,3.2,10.2,4.6,19.2,3.7l0,0c11.7-1.1,24.5-5.7,34.5-12.3
							c6.3-4.2,9.6-8.3,9.5-11.9c0-2.2-1.3-4.1-2.4-5.3C1333.2,138,1326.6,141.9,1312.4,146.3L1312.4,146.3z"/>
						<path class="st19" d="M1270.3,143.8c0,0,18,6.9,41.3-0.4c23.3-7.2,24.2-12.3,24.2-12.3s15.6,10-5.2,23.8
							c-20.8,13.8-49.4,16.8-57.1,8.1S1269,145.1,1270.3,143.8L1270.3,143.8z"/>
						<path class="st20" d="M1268.7,148.2c0.6,2.8,1.9,5.9,4.6,9c7.7,8.7,36.4,5.7,57.1-8.1c6.5-4.3,9.4-8.2,10.4-11.6
							c1.5,4.2,0.5,10.4-10.2,17.5c-20.8,13.8-49.4,16.8-57.1,8.1C1268.7,157.6,1268.1,151.9,1268.7,148.2L1268.7,148.2z"/>
						<path class="st21" d="M1303.6,148c16.1-4.1,29-11.4,31.7-12.8c2.1-1.1,4.7,4.9-2.5,10.2c-7.2,5.3-29.1,16.5-45.5,12.4
							S1287.4,152.1,1303.6,148L1303.6,148z"/>
						<g>
							<path class="st18" d="M1318.9,164.4c0.3-0.4,6.8-9.7,7.9-16.6c1-6.3,2.5-11.4,2.5-11.4l-3.1-1.1c-0.1,0.2-1.6,5.3-2.6,11.9
								c-0.9,6-7.2,15-7.3,15.1L1318.9,164.4z"/>
							<path class="st18" d="M1293.6,170.6c0.2-0.1,2.1-1.6,3.5-4.8c0.3-0.8,0.7-1.6,1.2-2.4c1.1-2,2.4-4.6,3.6-9.1
								c1.6-5.9,5-10.1,5-10.2l-2.5-2.3c-0.2,0.2-3.9,4.8-5.7,11.5c-1.1,4.2-2.3,6.4-3.3,8.4c-0.5,0.9-0.9,1.8-1.3,2.7
								c-1,2.3-2.3,3.3-2.3,3.3L1293.6,170.6L1293.6,170.6z"/>
							<path class="st18" d="M1273.4,164c0-0.1,1.5-7.4,2.7-11.4c1.1-3.6,4.6-6.6,4.6-6.7l-2.1-2.8c-0.2,0.1-4.3,3.7-5.7,8.3
								c-1.3,4.2-2.8,11.4-2.8,11.7L1273.4,164L1273.4,164z"/>
						</g>
					</g>
					<g>
						<path class="st18" d="M1642.9,188.6c-9.2-2.1-12.2-10-11.8-12.6l0.2-1.3l1.2-0.3c0.1,0,7.9-2.1,16.2-9.3
							c2.7-2.3,5.2-5,7.4-7.8c8.4-11.1,8.9-15.1,8.9-15.8l-1.2-2.5l2.9-0.1c0.2,0,6-0.2,9.2,4.1c2.6,3.5,2.6,8.6,0,15.3
							c-3.4,8.9-9.4,17.4-16.5,23.5l0,0C1655.9,185,1648.9,190,1642.9,188.6L1642.9,188.6z M1659.4,160.1c-2.3,3.1-5,5.9-7.9,8.4
							c-6.7,5.8-13.1,8.5-16,9.5c0.7,1.9,2.8,5.4,8.1,6.6c3,0.7,8-1.6,13.1-5.9l0,0c6.5-5.6,12.3-13.8,15.4-22c2-5.1,2.2-9,0.6-11.2
							c-0.9-1.3-2.5-1.9-3.7-2.1C1668.4,146.3,1666.1,151.4,1659.4,160.1L1659.4,160.1z"/>
						<path class="st19" d="M1633.2,176.5c0,0,13.7-3.6,24.6-17.8c10.9-14.2,9.2-17.6,9.2-17.6s13.6-0.6,7,16.4
							c-6.6,17.1-22.4,31-30.7,29.1S1633,177.8,1633.2,176.5z"/>
						<path class="st20" d="M1634.1,179.8c1.5,1.4,3.7,2.7,6.6,3.4c8.3,1.9,24.2-12,30.7-29.1c2-5.3,2.1-8.9,1.3-11.4
							c2.7,1.9,4.7,6,1.3,14.8c-6.6,17.1-22.4,31-30.7,29.1C1638.1,185.4,1635.4,182.2,1634.1,179.8L1634.1,179.8z"/>
						<path class="st21" d="M1654.9,164.9c7.9-9.3,12.5-19.2,13.5-21.1c0.8-1.6,4.9,0.9,2.8,7.2s-10.4,22.2-22,26.7
							C1637.7,182.1,1647,174.1,1654.9,164.9z"/>
						<g>
							<path class="st18" d="M1671.1,168.2c0-0.4,0-8.7-2.3-13.3c-2.1-4.2-3.3-7.9-3.3-7.9l-2.3,0.7c0.1,0.2,1.3,3.9,3.5,8.2
								c2,4,2,12,2,12.1L1671.1,168.2z"/>
							<path class="st18" d="M1658.5,182.6c0.1-0.2,0.6-1.8,0-4.4c-0.1-0.6-0.2-1.2-0.3-2c-0.2-1.7-0.5-3.7-1.7-7
								c-1.6-4.2-1.3-8.2-1.3-8.2l-2.5-0.3c0,0.2-0.3,4.5,1.5,9.3c1.1,3,1.3,4.8,1.6,6.4c0.1,0.8,0.2,1.5,0.4,2.2c0.4,1.8,0,3,0,3
								L1658.5,182.6L1658.5,182.6z"/>
							<path class="st18" d="M1643.7,187.2c0-0.1-2.2-5-3.2-7.9c-0.9-2.6-0.1-5.9-0.1-5.9l-2.4-0.8c0,0.2-1,4,0.1,7.4
								c1,3,3.2,8,3.3,8.2L1643.7,187.2L1643.7,187.2z"/>
						</g>
					</g>
				</g>
				<g>
					<g>
						<path class="st7" d="M1517.7,66.5l17.8,1.1c0,0,25-7.8,20.9-7.9c-28.8-0.6-17.9-1.7-17.9-1.7l-4.6,4.2l-5.3-4.9l-7.1-0.1
							c0,0,3.9,4.3,3.7,4.8S1517.7,66.5,1517.7,66.5L1517.7,66.5z"/>
						<path class="st7" d="M1523.8,57.6c3-4.1,8.8-4.9,12.8-1.9c4.1,3,4.9,8.8,1.9,12.8c-3,4.1-8.8,4.9-12.8,1.9
							C1521.6,67.4,1520.8,61.7,1523.8,57.6L1523.8,57.6z"/>
						<g>
							<g>
								<path class="st8" d="M1536.2,66.8c-2.1,2.8-6,3.4-8.8,1.3s-3.4-6-1.3-8.8c2.1-2.8,6-3.4,8.8-1.3S1538.2,64,1536.2,66.8z"/>
								<polygon class="st9" points="1536.5,59.8 1525,64 1525.4,65.6 1537.1,61 								"/>
							</g>
							<path class="st10" d="M1534.9,59.6l-9,3.2c0,0-0.7-2.4,2.2-4.3C1530.8,56.6,1536.4,58.6,1534.9,59.6z"/>
							<path class="st10" d="M1536.1,62.4l-6.9,2.7c0,0,4.4,3.6,6.1,1.5S1537.5,61.6,1536.1,62.4L1536.1,62.4z"/>
							<path class="st11" d="M1533.8,59.4c0,0-3.4,1.3-4.5,0.7c-1-0.7-0.2-2.2,2.1-1.8C1533.8,58.5,1535,59,1533.8,59.4z"/>
						</g>
					</g>
					<g>
						<path class="st7" d="M1229.1,65l17.8,1.1c0,0,25-7.8,20.9-7.9c-28.8-0.6-17.9-1.7-17.9-1.7l-4.6,4.2l-5.3-4.9l-7.1-0.1
							c0,0,3.9,4.3,3.7,4.8S1229.1,65,1229.1,65L1229.1,65z"/>
						<path class="st7" d="M1235.1,56.1c3-4.1,8.8-4.9,12.8-1.9c4.1,3,4.9,8.8,1.9,12.8c-3,4.1-8.8,4.9-12.8,1.9
							C1232.9,65.9,1232.1,60.2,1235.1,56.1L1235.1,56.1z"/>
						<g>
							<g>
								<path class="st8" d="M1247.5,65.3c-2.1,2.8-6,3.4-8.8,1.3s-3.4-6-1.3-8.8c2.1-2.8,6-3.4,8.8-1.3S1249.6,62.5,1247.5,65.3z"
									/>
								<polygon class="st9" points="1247.8,58.3 1236.3,62.5 1236.8,64.1 1248.4,59.5 								"/>
							</g>
							<path class="st10" d="M1246.2,58.1l-9,3.2c0,0-0.7-2.4,2.2-4.3C1242.2,55.1,1247.8,57.1,1246.2,58.1z"/>
							<path class="st10" d="M1247.4,60.9l-6.9,2.7c0,0,4.4,3.6,6.1,1.5C1248.3,63,1248.8,60.1,1247.4,60.9L1247.4,60.9z"/>
							<path class="st11" d="M1245.2,57.9c0,0-3.4,1.3-4.5,0.7c-1-0.7-0.2-2.2,2.1-1.8C1245.1,57,1246.3,57.5,1245.2,57.9z"/>
						</g>
					</g>
					<g>
						<path class="st7" d="M819.1,38.8L814.3,56c0,0,2.4,26.1,3.4,22.1c6.6-28.1,5.4-17.2,5.4-17.2l-3.2-5.4l5.9-4.2l1.6-7
							c0,0-5,2.9-5.5,2.7C821.4,46.8,819.1,38.8,819.1,38.8z"/>
						<path class="st7" d="M826.5,46.6c3.3,3.8,3,9.6-0.8,13c-3.8,3.3-9.6,3-13-0.8c-3.3-3.8-3-9.6,0.8-13
							C817.4,42.4,823.2,42.8,826.5,46.6z"/>
						<g>
							<g>
								<path class="st8" d="M815,56.8c-2.3-2.6-2-6.5,0.6-8.8c2.6-2.3,6.5-2,8.8,0.5c2.3,2.6,2,6.5-0.6,8.8
									C821.2,59.6,817.2,59.4,815,56.8z"/>
								<polygon class="st9" points="821.7,58.6 820,46.4 818.3,46.5 820.4,58.9 								"/>
							</g>
							<path class="st10" d="M822.2,57l-1.2-9.5c0,0,2.5-0.2,3.8,3C826,53.7,822.9,58.8,822.2,57z"/>
							<path class="st10" d="M819.3,57.6l-1.2-7.3c0,0-4.4,3.5-2.7,5.6S819.7,59.1,819.3,57.6z"/>
							<path class="st11" d="M822.7,56.1c0,0-0.6-3.6,0.3-4.5c0.8-0.9,2.2,0.2,1.4,2.4C823.5,56.2,822.8,57.3,822.7,56.1L822.7,56.1
								z"/>
						</g>
					</g>
					<g>
						<path class="st7" d="M1676.3,61.8l-17.7,2.3c0,0-11.2,7.5-8.2,7.4c1.4-0.1,7.2,2.5,7.2,2.5l3.7-5.1l6.2,3.8l7-1.2
							c0,0-4.6-3.5-4.6-4C1669.9,67.2,1676.3,61.9,1676.3,61.8L1676.3,61.8z"/>
						<path class="st7" d="M1672.1,71.8c-2.2,4.6-7.7,6.5-12.2,4.3c-4.6-2.2-6.5-7.7-4.3-12.2c2.2-4.6,7.7-6.5,12.2-4.3
							C1672.3,61.7,1674.2,67.2,1672.1,71.8z"/>
						<g>
							<g>
								<path class="st8" d="M1658.1,65.1c1.5-3.1,5.2-4.4,8.3-2.9c3.1,1.5,4.4,5.2,2.9,8.4s-5.2,4.4-8.3,2.9
									C1657.9,72,1656.6,68.2,1658.1,65.1L1658.1,65.1z"/>
								<polygon class="st9" points="1659.1,72 1669.7,65.7 1668.9,64.2 1658.3,70.9 								"/>
							</g>
							<path class="st10" d="M1660.8,71.8l8.2-4.8c0,0,1.2,2.2-1.3,4.7C1665.3,74.1,1659.4,73.2,1660.8,71.8z"/>
							<path class="st10" d="M1659.1,69.4l6.3-3.9c0,0-5-2.7-6.3-0.3S1657.8,70.4,1659.1,69.4z"/>
							<path class="st11" d="M1661.8,71.9c0,0,3.1-2,4.3-1.5c1.1,0.4,0.7,2.1-1.7,2.2C1662.1,72.7,1660.7,72.5,1661.8,71.9
								L1661.8,71.9z"/>
						</g>
					</g>
					<g>
						<path class="st7" d="M1104.1,54l-0.9,17.9c0,0,5.4,12.4,5.8,9.4c0.2-1.4,3.8-6.6,3.8-6.6l-4.3-4.6l4.9-5.4l0-7.1
							c0,0-4.2,3.9-4.7,3.8C1108.2,61.3,1104.1,54,1104.1,54z"/>
						<path class="st7" d="M1113.1,60c4.1,3,5,8.7,2.1,12.8c-3,4.1-8.7,5-12.8,2.1c-4.1-3-5-8.7-2.1-12.8
							C1103.2,57.9,1109,57,1113.1,60z"/>
						<g>
							<g>
								<path class="st8" d="M1104.1,72.5c-2.8-2-3.4-5.9-1.4-8.8c2-2.8,5.9-3.4,8.7-1.4c2.8,2,3.4,5.9,1.4,8.7
									C1110.8,73.8,1106.9,74.5,1104.1,72.5L1104.1,72.5z"/>
								<polygon class="st9" points="1111,72.7 1106.7,61.2 1105.1,61.7 1109.8,73.3 								"/>
							</g>
							<path class="st10" d="M1111.2,71.1l-3.3-9c0,0,2.4-0.7,4.4,2.1S1112.3,72.6,1111.2,71.1L1111.2,71.1z"/>
							<path class="st10" d="M1108.4,72.3l-2.8-6.9c0,0-3.5,4.4-1.4,6.1C1106.3,73.2,1109.2,73.7,1108.4,72.3L1108.4,72.3z"/>
							<path class="st11" d="M1111.4,70.1c0,0-1.4-3.4-0.7-4.5c0.7-1,2.2-0.3,1.9,2.1C1112.2,69.9,1111.8,71.2,1111.4,70.1z"/>
						</g>
					</g>
					<g>
						<path class="st7" d="M866.4,61l16.8,6c0,0,13.4-1.6,10.7-2.9c-1.2-0.6-5.2-5.5-5.2-5.5l-5.6,2.8l-3.7-6.2l-6.8-2.1
							c0,0,2.5,5.2,2.3,5.6C874.5,59.2,866.4,61,866.4,61z"/>
						<path class="st7" d="M874.7,54.1c4-3.1,9.8-2.3,12.9,1.7c3.1,4,2.3,9.8-1.7,12.9c-4,3.1-9.8,2.3-12.9-1.7
							C869.9,62.9,870.7,57.2,874.7,54.1L874.7,54.1z"/>
						<g>
							<g>
								<path class="st8" d="M884.1,66.4c-2.8,2.1-6.7,1.6-8.8-1.2c-2.1-2.8-1.6-6.7,1.2-8.8c2.8-2.1,6.7-1.6,8.8,1.2
									C887.3,60.3,886.8,64.3,884.1,66.4z"/>
								<polygon class="st9" points="886.3,59.7 874,60.6 874.1,62.3 886.5,61.1 								"/>
							</g>
							<path class="st10" d="M884.8,59.1l-9.5,0.6c0,0,0-2.5,3.3-3.6C881.8,55.1,886.6,58.6,884.8,59.1z"/>
							<path class="st10" d="M885.2,62.1l-7.4,0.7c0,0,3.2,4.6,5.4,3.1C885.4,64.4,886.7,61.8,885.2,62.1L885.2,62.1z"/>
							<path class="st11" d="M883.9,58.6c0,0-3.7,0.3-4.5-0.6s0.4-2.1,2.5-1.2C884,57.8,885.1,58.6,883.9,58.6z"/>
						</g>
					</g>
					<g>
						<path class="st7" d="M612.9,59.1l16.8,6c0,0,13.4-1.6,10.7-2.9c-1.2-0.6-5.2-5.5-5.2-5.5l-5.6,2.8l-3.7-6.2l-6.8-2.1
							c0,0,2.5,5.2,2.3,5.6C621.1,57.3,612.9,59.1,612.9,59.1z"/>
						<path class="st7" d="M621.2,52.2c4-3.1,9.8-2.3,12.9,1.7c3.1,4,2.3,9.8-1.7,12.9c-4,3.1-9.8,2.3-12.9-1.7
							C616.4,61,617.2,55.2,621.2,52.2L621.2,52.2z"/>
						<g>
							<g>
								<path class="st8" d="M630.6,64.4c-2.8,2.1-6.7,1.6-8.8-1.2c-2.1-2.8-1.6-6.7,1.2-8.8c2.8-2.1,6.7-1.6,8.8,1.2
									C633.9,58.4,633.3,62.3,630.6,64.4z"/>
								<polygon class="st9" points="632.8,57.8 620.6,58.7 620.6,60.3 633,59.2 								"/>
							</g>
							<path class="st10" d="M631.3,57.2l-9.5,0.6c0,0,0-2.5,3.3-3.6C628.3,53.2,633.1,56.6,631.3,57.2z"/>
							<path class="st10" d="M631.7,60.2l-7.4,0.7c0,0,3.2,4.6,5.4,3.1C632,62.4,633.3,59.9,631.7,60.2z"/>
							<path class="st11" d="M630.4,56.7c0,0-3.7,0.3-4.5-0.6s0.4-2.1,2.5-1.2C630.6,55.8,631.7,56.6,630.4,56.7z"/>
						</g>
					</g>
				</g>
			</g>
		</g>
	</g>
</g>
</svg>
