<?xml version="1.0" encoding="UTF-8"?><svg id="Layer_2" xmlns="http://www.w3.org/2000/svg" xmlns:xlink="http://www.w3.org/1999/xlink" viewBox="0 0 291.88 216.07"><defs><style>.cls-1{fill:none;}.cls-2{clip-path:url(#clippath);}.cls-3{fill:#e6b555;}.cls-4{fill:#a05f26;}.cls-5,.cls-6{fill:#622e10;}.cls-7,.cls-6{opacity:.5;}</style><clipPath id="clippath"><path class="cls-1" d="M133.65,6.38L2.76,192.4c-7,9.95,.12,23.67,12.29,23.67H276.83c12.17,0,19.29-13.71,12.29-23.67L158.23,6.38c-5.98-8.5-18.59-8.5-24.57,0Z"/></clipPath></defs><g id="Layer_1-2"><g class="cls-2"><g><g><path class="cls-4" d="M456.72,124.15l-95.63,1221.04s-126.47,11.37-129.52,0c-3.05-11.37,34.67-1259.7,34.67-1259.7l79.24-40.94,7.62,70.5,41.14-97.8,82.28,36.39-19.81,70.5Z"/><path class="cls-3" d="M277.06,117.6l71.94-40.56-3.51-32.49-79.24,40.94s-37.72,1248.33-34.67,1259.7c.52,1.93,4.61,3.21,11.03,3.99,3.87-153.7,34.45-1231.58,34.45-1231.58Z"/><g class="cls-7"><path class="cls-5" d="M453.83,43.61l-19.81,70.5-95.63,1221.04s-69.87,6.28-107,4.83c0,2.99,.06,4.76,.17,5.2,3.05,11.37,129.52,0,129.52,0L456.72,124.15l19.81-70.5-22.7-10.04Z"/></g><g><path class="cls-6" d="M306.63,904.63c-1.87-26.57,11.46-131.82,14.42-154.92,2.39-18.59,4.21-429.97,6.26-454.06l9.44-144.6s-24.77,566.04-28.1,597.11c-3.33,31.08-22.04,226.46-24.57,252.37-2.4,24.62-29.92,302.23-32.32,328.32,1.33,.24,4.92-22.66,7.74-31.51,6.21-19.43,23.41-144.99,25.51-170.72,2.1-25.74,23.48-195.42,21.61-221.99Z"/><path class="cls-6" d="M301.68,72.78s-16.78,155.59-20.6,238.91c-3.81,83.32-19.03,566.91-19.03,566.91,0,0,40.24-671.1,40.51-675.46,5.05-81.26-.88-130.35-.88-130.35Z"/><path class="cls-3" d="M310.54,194.36c-4.53,55.64-47.02,675.99-47.02,675.99,0,0,38.87-665.3,40.39-694.51,1.51-29.21-1.55-108.6-1.55-108.6,0,0,12.72,71.47,8.18,127.11Z"/></g></g><g><path class="cls-4" d="M-1752.46,62.88s418.53,14.22,1066.65-54.86C-37.7-61.05,495.51-16.36,495.51-16.36V109.61s-71.11,10.16-65.01,14.22c6.1,4.06,54.86,28.44,54.86,28.44l-4.06,107.68s-1254.46-18.29-1565.31-12.19c-310.85,6.09-656.24-4.06-656.24-4.06l-12.19-30.48,58.92-16.25-93.46-28.44,34.54-105.65Z"/><path class="cls-3" d="M-1737.84,72.07s418.53,14.22,1066.65-54.86C-172.87-35.9,455.56-21.75,495.51-12.38v-3.98S-37.7-61.05-685.81,8.02c-648.12,69.08-1066.65,54.86-1066.65,54.86l-34.54,105.65,16.03,4.88,33.13-101.34Z"/><g class="cls-7"><path class="cls-5" d="M445.53,240.86s-1254.46-18.29-1565.31-12.19c-257.68,5.05-539.09-1.06-627.82-3.3l7.33,18.34s345.39,10.16,656.24,4.06c310.85-6.1,1565.31,12.19,1565.31,12.19l4.06-107.68s-19.84-9.92-35.79-18.16l-4.03,106.75Z"/></g><path class="cls-6" d="M-891.9,124.79c49.79-9.58,262.06-2.94,308.68-1.41,37.52,1.24,160.44-8.06,208.3-8.69l769.65-9.95s-921.74-7.65-983.98-8.32c-62.24-.66-451.92,0-503.63,0s-603.49-1.07-655.46-.77c.51,2.91,47.18,5.82,66.28,10.04,41.92,9.27,296.09,19.97,347.15,19.1,51.07-.87,393.22,9.59,443,0Z"/><path class="cls-6" d="M376.21,164.13s-720.95-36.57-796.64-33.09c-75.7,3.47-169.96,12.19-242.78,20.9-72.84,8.71-249.92,42.33-332.74,39.45-82.85-2.88-315.62,4.09-315.62,4.09,0,0,344.17,13.07,397.01,11.32,52.85-1.74,304.19-45.21,387.02-50.04,82.83-4.83,122.82,11.72,189.94,16.07,67.13,4.36,747.24,2.87,747.24,2.87l-33.41-11.58Z"/><path class="cls-6" d="M326.06,163.7s-704.37-29.62-737.92-28.74c-33.57,.86-128.54,15.66-121.39,14.36,7.13-1.3,125.66,.96,159.94,7.45,34.27,6.49,699.37,6.93,699.37,6.93Z"/><path class="cls-6" d="M444.76,6.82S-229.81,11.69-328.82,25.34c-99.01,13.65-264.79,16.58-264.79,16.58,0,0,881.97,1.42,887.19,.86C390.86,32.31,444.76,6.82,444.76,6.82Z"/><path class="cls-3" d="M308.12,57.53c-67.2,4.88-891.34-14.61-891.34-14.61,0,0,874.48,.03,909.28-4.38,34.81-4.41,125.5-31.71,125.5-31.71,0,0-76.23,45.83-143.44,50.71Z"/></g></g></g></g></svg>