<?xml version="1.0" encoding="UTF-8"?><svg xmlns="http://www.w3.org/2000/svg" viewBox="0 0 216.16 150.69"><defs><style>.cls-1{fill:#f2d265;}.cls-2,.cls-3,.cls-4{fill:#6d310c;}.cls-5{fill:#b66c13;}.cls-6{opacity:.6;}.cls-7{isolation:isolate;}.cls-8{fill:#fff;mix-blend-mode:overlay;opacity:.3;}.cls-3{opacity:.39;}.cls-4{opacity:.67;}</style></defs><g class="cls-7"><g id="Layer_2"><g id="Layer_2-2"><g><g><path class="cls-2" d="M210.34,9.84c-13.12-.98-17.05-2.03-30.18-2.81l-19.69-1.28-19.69-1.13C114.52,3.18,90.84,.27,77.69,.15,51.41-.25,30.62,.24,4.32,.44L0,.48,.73,5.62c1.59,11.22,3.08,22.45,4.58,33.69,1.46,11.24,2.86,22.5,4.24,33.75,1.34,11.27,2.65,22.54,3.84,33.83,1.23,11.29,2.33,22.59,3.39,33.91l.25,2.64,2.18,.11c6.1,.31,12.2,.64,18.31,1.05,6.1,.4,12.2,.77,18.3,1.24,12.2,.87,18.88,1.84,31.08,2.59,12.2,.81,20.73,1.44,32.93,1.81,7.41,.26,14.82,.37,22.23,.45-8-.12-13.24-.31-3.24-.59,24.43-.75,43.34-1.67,67.78-3.75l.62-.05,.09-.78c1.2-10.66,2.32-21.33,3.4-32.01,1.03-10.68,2.11-21.36,3.06-32.04,.98-10.68-1.71-21.37-.82-32.06,.9-10.69,1.86-21.38,2.69-32.08l.54-7.07-5.81-.43Zm-8.71,41.34c-.42,9.88,2.89,19.77,2.41,29.66-.47,9.88-.99,19.76-1.58,29.62-.52,8.88-1.11,17.76-1.75,26.63-23.07-1.08-40.62-3.11-63.68-4.71l55.18-1.91c-11.9-.41-23.82-.55-35.73-.62-23.82-.13-47.64,.03-71.47,.72-23.62,.75-38.04,1.7-61.68,3.79-.54-10.25-1.16-20.5-1.83-30.73-.71-10.5-1.41-21-2.21-31.48l-1.16-15.73-1.26-15.72c-.62-7.62-1.23-15.24-1.87-22.85l12.79,.98c6.38,.49,12.76,.86,19.14,1.3l19.14,1.26,13.62,1.1c25.52,1.38,47.38,2.38,72.91,2.82l19.16,.41,19.16,.32c12.77,.22-65.36,.45-52.58,.56,24.43,.26,39.67-.26,64.11-.48-.25,8.36-.54,16.72-.81,25.07Z"/><polygon class="cls-5" points="204.75 142.87 20.97 137.82 6.53 7.63 208.05 19.32 204.75 142.87"/><path class="cls-3" d="M21.69,106.3s164.25-2.51,166.22-2.51,21.17-7.03,21.17-7.03l-3.11,48.39-108.3,1.16-80.9-5.51s-2.73-38.4,4.92-34.5Z"/><polygon class="cls-4" points="203.96 19.17 201.32 131.16 19.68 126.14 20.97 137.82 204.75 142.87 208.05 19.32 203.96 19.17"/><polygon class="cls-1" points="6.53 7.63 20.97 137.82 27.04 137.92 12.34 18.2 53.51 15.85 207.6 27.26 208.05 19.32 6.53 7.63"/><polygon class="cls-2" points="15.25 100.8 7.52 35.32 68.5 39.95 8.85 28.59 5.53 20.91 15.74 114.58 153.53 104.01 15.25 100.8"/><g><path class="cls-2" d="M194.13,117.35c1-.43,13.61-2.78,13.61-2.78l.44-5.86c-2.75,1.66-14.94,9.01-14.06,8.63Z"/><path class="cls-2" d="M208.74,108.38l.64-59.92h-.33l-.86,60.26c.35-.21,.55-.33,.55-.33Z"/><polygon class="cls-2" points="209.37 41.81 144.19 48.46 209.04 48.46 209.37 44.07 209.37 41.81"/></g><g class="cls-6"><path class="cls-2" d="M91.43,41.5c-36.52,5.68-59.89,38-66.76,38.88-6.88,.87,10.32,5.84,43.45,10.81,33.13,4.97,88.63,14.2,101.01,4.26,12.39-9.94,15.6-13.01,15.6-13.01,0,0-28.98,9.46-37.66,9.46s-74.72-10.97-83.43-11.52c-8.72-.55-13.92-3.39-13.92-3.39,0,0,35.9-33.99,58.16-27.64,22.26,6.35,61.71,19.43,60.33,21.05-1.37,1.63-18.92,1.21-22.07,0-3.15-1.22-49.94-9.73-57.29-5.47-7.34,4.25,9.61,10.64,19.02,11.35,9.41,.71,52.99,7.49,60.33,4.1,7.34-3.39,7.32-9.98,7.32-9.98l12.39,3.76s-59.97-38.33-96.49-32.65Z"/><path class="cls-8" d="M174.86,54.63c-22.25-15.61-70.4-19.52-91.5-18.27-21.1,1.25-58.69,44.02-58.69,44.02,0,0,16.94-10.84,26.86-17.63,9.92-6.79,21.05-18.05,49.07-20.54,28.02-2.48,93.28,34.43,93.28,34.43,0,0,3.23-6.39-19.01-22.01Z"/><path class="cls-8" d="M51.49,77.43s28.42,4.53,47.21,12.69c18.79,8.16,67.75-2.2,67.75-2.2-11.98,3.5-57.87-3.83-67.75-7.54-9.88-3.71-47.21-2.95-47.21-2.95Z"/></g><polygon class="cls-8" points="83.36 111.59 21.47 117.99 21.47 137.82 18.39 114.58 121.69 106.3 83.36 111.59"/><path class="cls-8" d="M75.31,40.91c-1.03-.22-65.36-5.45-65.36-5.45l2.84,24.69s3.94,.98,3.25,.91c-.69-.08-2.72,3.7-2.62,4.54,.1,.84,3.83-1.84,4.51-2.48,.69-.64,.85-6.71,.85-6.71,0,0-3.26-3.54-3.26-4.6v-9.54l59.79-1.35Z"/></g><g><path class="cls-1" d="M180.86,57.76c-1.62-2.1-3.24-4.21-4.87-6.31,1.42-1.44,2.85-2.87,4.23-4.34,2.28-2.41,4.54-4.83,6.73-7.32l3.46-3.92-3.83-3.61c-2.25-2.12-4.55-4.2-6.88-6.24l-4.23-3.69-3.36,4.09c-2.86,3.48-5.67,6.99-8.48,10.51-1.12-1.19-2.26-2.35-3.42-3.5-2.42-2.47-4.98-4.82-7.47-7.24l-2.38-2.32-1.87,2.03-4.42,4.81c-1.49,1.58-2.98,3.16-4.51,4.7l-1.38,1.38,1.24,1.23c2.56,2.54,5.09,5.11,7.5,7.8,1.97,2.19,3.85,4.45,5.68,6.76-2.34,2.05-4.7,4.08-7.11,6.07-2.51,2.08-4.98,4.2-7.4,6.36-.53-1.56-1.07-3.12-1.61-4.68-1.34-3.8-2.82-7.55-4.38-11.26-1.58-3.71-3.34-7.33-5.04-10.99-1.77-3.63-3.46-7.29-5.28-10.89l-1.34-2.65h-2.37c-3.32-.02-6.66,.14-9.99,.34l-2.82,.17-.5,1.94c-1.03,4.01-2.01,8.05-3.18,12.01-1.18,3.96-2.56,7.83-4.16,11.62-1.6,3.79-3.55,7.44-5.6,11.06-.49,.86-.98,1.73-1.47,2.59,.08-3.87,.19-7.75,.15-11.61-.04-3.9-.18-7.8-.32-11.7-.15-3.9-.23-7.8-.48-11.69l-.28-4.32-3.96,.27-9.27,.63-2.66,.18-.73,2.19-2.92,8.79c-.99,2.92-1.85,5.9-2.78,8.84-.92,2.95-1.74,5.94-2.61,8.91-.68,2.47-1.31,4.95-1.93,7.44-1.79-5.76-3.72-11.47-5.73-17.12-1.11-3.08-2.2-6.17-3.37-9.23-1.16-3.06-2.27-6.14-3.48-9.18l-.85-2.14-2.69-.14-10.54-.56-4.33-.23-.12,4.74-.31,12.29c-.12,4.1-.13,8.19-.19,12.29-.05,8.19,.04,16.38,.29,24.56l.16,5.36,5.15-.11,12.5-.27,5.35-.12-.31-5.08c-.07-1.21-.14-2.41-.21-3.62,.86,1.59,1.72,3.17,2.58,4.76l.86,1.58,1.42,.06,5.02,.22,2.05,.09,.55-1.63c1.56-4.6,3.16-9.18,4.88-13.71,.77-2.02,1.51-4.04,2.32-6.05-.04,1.55-.07,3.09-.14,4.64-.13,4.23-.42,8.46-.68,12.69l-.15,2.37,2.75,.18,11.07,.73,3.15,.21,.07-1.14c3.61,1.26,7.31,2.2,11.02,3.09l3.17,.76c-5.05-.06-10.1-.05-15.16,.08l-5.47,.15,.2,5.18c.1,2.66,.22,5.31,.34,7.96-.1-.2-.18-.41-.29-.62-.43-.85-1.03-1.79-1.54-2.51-.64-.84-1.24-1.59-2.01-2.34-1.4-1.41-3.12-2.78-5.12-3.73l-.63-.33c-.42-.16-.5-.22-.77-.34l-1.37-.6c-.45-.19-.98-.39-1.43-.56l-.66-.25-.74-.25c-1.92-.66-3.88-1.14-5.98-1.44-1.03-.15-1.9-.23-2.88-.34l-.35-.03h-.62l-.7-.02-1.4-.02c-3.72,0-7.44,.03-11.14,.25l-5.23,.31,.11,5.24c.09,4.08,.42,8.14,.71,12.21,.35,4.07,.62,8.14,1.05,12.2,.39,4.07,1.07,8.12,1.73,12.18,.64,4.06,1.29,8.12,1.6,12.19l.13,1.7,1.53-.08c4.12-.23,8.24-.2,12.35,.15,4.23,.27,8.55,.85,13.4-.22l.77-.16c.44-.13,.67-.2,1.02-.32,.64-.22,1.28-.51,1.9-.83,.64-.35,1.19-.67,1.89-1.21,.41-.27,1.13-.94,1.61-1.49,.26-.27,.54-.63,.81-1.02l.51-.78c.51-.93,.71-1.32,1.03-2.17l.2-.61,.12-.39,.06-.18,.09-.38,.12-.52c.07-.35,.13-.7,.18-1.08,.04-.37,.08-.95,.08-1.13v-1.09c0-.38-.06-.79-.1-1.19l-.14-.72-.08-.35-.05-.19-.29-.96c-.45-1.41-1.23-2.76-2.22-4-.43-.49-.86-.9-1.3-1.28,.25-.19,.5-.38,.74-.59,.32-.3,.77-.75,1.14-1.14,.68-.78,1.48-1.87,1.81-2.65,.43-.83,.76-1.65,1.04-2.48,.05,.92,.09,1.85,.14,2.77,.39,8.19,1.32,16.38,2.11,24.57l.28,2.86,2.4-.26c5.86-.64,11.73-1.06,17.6-1.35,5.87-.24,11.74-.31,17.63-.02l1.78,.09,.06-2.02c.1-3.13,.31-6.27,.5-9.4l.15-2.38-2.89-.19c-1.09-.07-2.19-.15-3.28-.22l-.08-1.76c-.1-2.2-.18-4.4-.32-6.6l-.25-4.11-3.65,.21c-4.22,.24-8.45,.55-12.67,.96-.22-1.73-.45-3.46-.69-5.19-.37-2.5-.79-5-1.29-7.5,4.34,.72,8.67,1.25,13,1.76,4.53,.5,9.07,.92,13.6,1.29l.58,.05,.1,.72,3.64-.48c3.99-.53,7.98-1.25,11.96-1.91,.63,5.44,.98,10.88,.9,16.33-.06,6.38-1.02,12.78-1.75,19.17l-.37,3.31,4.18,.28c2.12,.14,4.24,.34,6.36,.4,2.12,.06,4.23,.07,6.35-.02l4.45-.19-.09-4.41c-.14-6.37-.53-12.73-1.25-19.09-.33-3.18-.83-6.35-1.33-9.53-.55-2.97-1.11-5.95-1.92-8.91,2.52,.46,5.04,.83,7.56,1.14,2.73,.32,5.45,.62,8.17,.83l2.76,.21,.33-3.55c.31-3.35,.53-6.69,.71-10.03l.2-3.83-4.61-.3c-3.62-.23-7.23-.3-10.85-.44-3.61-.07-7.22-.1-10.83-.01-1.49,.03-2.98,.09-4.47,.16l2.55-2.89c3.83-4.35,7.52-8.83,11.11-13.41,1.58,1.47,3.17,2.93,4.77,4.38,2.68,2.33,5.36,4.66,8.26,6.8l.34,.25,.36-.19c1.92-1.03,3.8-2.11,5.67-3.21,1.84-1.13,3.71-2.22,5.52-3.39l1.9-1.23-1.63-2.36c-2.36-3.42-4.83-6.75-7.29-10.08ZM66.3,125.14h0l-.04-.04c-.06-.05-.09-.05-.13-.08-.09-.07-.2-.04-.19-.06-.02,0,.03,0-.04,.04l-.22,.07,.04-.03,.24-.19,.5-.34c.15-.1,.22-.3,.52-.29l.45,.03,.22,.03h0s.11,.08-.1-.08h.02l.03-.02,.06-.02c.63-.15,1.17,.57,.94,1.4-.12,.37-.46,.64-.83,.56-.11-.2-.33-.16-.54-.25-.19-.06-.37-.18-.51-.29-.12-.19,.09-.46-.35-.36-.07,0-.14,.02-.21,.03h-.06c-.18,.12,.24-.14,.19-.11h0Zm1.48-22.05l.37-.11c.48-.12,1.04-.16,1.45-.02,.91,.31,1.4,1.29,1.05,2.43-.17,.54-.55,1.02-1.01,1.18-.12,.07-.22,.04-.29-.02-.02-.14-.38,.3-.36,.08-.26,.02-.48,.03-.69-.02-.22,.01-.32-.15-.32-.26,.03-.04-.03-.03-.14,0-.08,.02-.18,.04-.25,.07l-.24,.09-.06,.02h-.02c.1-.05-.23,.15,.22-.13h-.08c-.3,.04-.65,.19-.76,.32-.02,.04-.28,.11-.41,.17l-.24,.1-.12,.05s-.03,0,0,0h0s0,0,0,0c.03,0,.07-.01,.16-.03h-.02l-.02,.02-.05,.02c-.26,.09-.52,.25-.78,.35-.27,.13-.5,.27-.72,.4-.18,.16-.71,.29-.85,.46-.6,.31-1.16,.69-1.74,1.12-.06,.04-.13,.08-.19,.12,.24-.36,.47-.71,.67-1.08,.57-1,1.02-2,1.4-3,.15-.44,.29-.88,.42-1.32,.32-.07,.59-.13,.91-.19,.26-.05,.5-.11,.76-.19,.25-.08,.39-.17,.63-.28,.28-.1,.71-.13,1.06-.19-.12-.12,.18-.11,.25-.17Zm-3.66,22.71c.12-.05,.25-.11,.37-.16,.1-.06,.22-.12,.34-.22,.08-.01,.16-.04,.24-.06-.15,.07-.26,.18-.49,.27-.17,.07-.34,.17-.51,.26,.02-.03,.04-.06,.05-.09Zm78.84-42.34c-3.24,.21-6.48,.47-9.72,.74l.05-.63-4.76-.24c-6.65-.33-13.29-.68-19.94-.83-1.23-.03-2.46-.02-3.68-.04l1.07-3.62c1.22-4.12,2.28-8.28,3.21-12.5,1.66-.23,3.31-.47,4.97-.76,2.42-.42,4.83-.92,7.25-1.57,.34,2.31,.75,4.59,1.23,6.84,.47,2.4,1.06,4.75,1.62,7.11l.6,2.53,3.34-.77,4.87-1.12c1.61-.39,3.22-.82,4.82-1.23l3.64-.92c1.24,1.31,2.5,2.61,3.79,3.87l2.86,2.8c-1.73,.09-3.47,.2-5.2,.33Z"/><g><path class="cls-2" d="M63.2,63.94l13.67-34.35,9.28-.28,.79,46.79-11.06,.14-.14-25.38-11.13,26.86-4.98-.55-10.75-23.5,.75,23.7h-12.5l-.65-49.12h10.54l16.18,35.69Z"/><path class="cls-2" d="M122.39,63.43h-15.29l-4.71,14.01-11.95-3.3,18-45.96,9.93,.65,18.65,44.59-9.31,3.4-5.32-13.39Zm-2.68-5.98l-5.98-13.98-4.64,13.98h10.62Z"/><path class="cls-2" d="M176.98,77.65l-13.78-15.97-14.08,15.49-8.31-8.45,15.08-15.91-14.49-16.04,9.69-8.66,13.43,15.77,12.2-13.98,6.8,6.32-13.16,14.91,16.56,18.38-9.93,8.14Z"/><path class="cls-2" d="M85.26,100.82c.21,1.01,.26,2.12,.17,3.33-.09,1.22-.34,2.42-.76,3.61-.41,1.19-.99,2.32-1.72,3.4-.73,1.08-1.62,1.97-2.68,2.68-.57,.39-1.13,.71-1.67,.98-.54,.26-1.08,.49-1.63,.69-.55,.19-1.12,.37-1.72,.53-.59,.16-1.23,.32-1.89,.48,1.7,.99,3.06,2.02,4.09,3.09,1.03,1.07,1.75,2.39,2.17,3.95,.2,.69,.31,1.43,.31,2.23s-.09,1.61-.27,2.42c-.18,.81-.47,1.6-.86,2.37-.39,.77-.88,1.45-1.48,2.04-1.01,1.01-2.23,1.8-3.66,2.37-1.43,.57-2.91,1-4.45,1.29-1.53,.29-3.02,.47-4.46,.55-1.45,.08-2.67,.13-3.68,.16h-12.74l-1.34-48.88,13.43-.72c.82,0,1.71,0,2.66,.02,.95,.01,1.98,.07,3.09,.16,1.11,.09,2.31,.24,3.59,.45,1.28,.21,2.67,.49,4.16,.86,1.47,.37,2.85,.93,4.16,1.68,1.3,.76,2.46,1.66,3.47,2.71,1.01,1.05,1.83,2.22,2.47,3.5,.64,1.28,1.05,2.63,1.24,4.05Zm-24.97,10.65c.25,0,.76,.03,1.51,.1,.76,.07,1.62,.09,2.59,.05,.98-.04,1.99-.15,3.04-.34,1.05-.19,2.01-.54,2.87-1.03,.86-.49,1.54-1.16,2.04-2.01,.51-.85,.71-1.96,.62-3.33-.11-1.26-.5-2.28-1.17-3.06-.66-.78-1.56-1.36-2.69-1.75-1.13-.39-2.46-.62-3.99-.69-1.52-.07-3.2-.02-5.03,.14l.2,11.92Zm.65,18.28c.34,.02,.84,.05,1.49,.08,.65,.04,1.36,.03,2.13-.02,.77-.05,1.55-.14,2.34-.28,.79-.14,1.49-.38,2.09-.72,.61-.34,1.09-.79,1.44-1.36,.36-.56,.49-1.28,.4-2.15-.14-1.24-.57-2.16-1.29-2.77-.72-.61-1.58-1.02-2.58-1.24-1-.22-2.05-.3-3.15-.24-1.1,.06-2.09,.13-2.99,.22l.1,8.45Z"/><path class="cls-2" d="M101.92,99.55l.21,16.22h15.05v6.6h-14.77l.14,5.36,22.3-.72,.27,9.38-35.24,.62-.62-49.19h39.88v11.75h-27.21Z"/><path class="cls-2" d="M160.28,98.31l.62,38.2-12.68,.48-.68-38.27-14.29,.69-.34-10.41,43.28-1.34,.34,10-16.25,.65Z"/></g></g></g></g></g></g></svg>