<?xml version="1.0" encoding="UTF-8"?><svg id="Layer_1" xmlns="http://www.w3.org/2000/svg" xmlns:xlink="http://www.w3.org/1999/xlink" viewBox="0 0 620 1080"><defs><style>.cls-1{fill:none;}.cls-2{clip-path:url(#clippath);}.cls-3{fill:#442813;}.cls-4{fill:#3c1f0f;}.cls-5{opacity:.58;}</style><clipPath id="clippath"><rect class="cls-1" x="-.05" y="-81.07" width="620.05" height="1169.58"/></clipPath></defs><g class="cls-2"><g id="Layer_2"><g id="Layer_33"><rect class="cls-3" x="-1240.1" y="-2.93" width="1860.1" height="1086.4"/><g class="cls-5"><path class="cls-4" d="M348.9,352.97c.4,2.3,.8,4.5,1.3,6.5,0,.1-.5-2.3-1.3-6.5Z"/><path class="cls-4" d="M330.3,461.47l33.2,103.6s26.9-19.8,30.8-65.3c3.8-45.5,9.6-146.2-5.8-262.4s-48.9-166.6-58.2-94.7c-8.1,62.8,13.1,181.3,18.6,210.4-10.4-59.9,.4-190.4,3.2-202,2.9-12,27.8,35.6,28.8,180.9,1,145.4-12.5,208.5-12.5,208.5l-38.1-79h0Z"/><path class="cls-4" d="M370.7,287.67c-5-23.4-15.7,33.2-9.3,53.1,6.4,19.9,3.7,131.5,3.7,131.5,0,0,12.1-153.8,5.6-184.6h0Z"/><path class="cls-4" d="M324.5,53.97s-7.7-2.4-15.5-4.8c-.3-3.2-.4-5-.4-5,0,0,.1,1.8,.3,5-7.5-2.3-15.1-4.7-16.3-5-2.6-.7,16,86,16,86.1-.6,6.4-1.4,12.4-2.5,17.9-7.5,37.9-16.1,149.2,1.8,208.8s-4.8,164.3-4.8,164.3c0,0,29.1-116.2,19.6-153.7-9.4-37.6-9.8-96.8-7.9-166.1,.3-12.6,.4-25.9,.2-39.1l3.3-56.4,6.2-52h0Z"/><path class="cls-4" d="M-49.9,522.17c6.1,137.8,41,260.6,41.9,286.6s6.3-59.8,11.7-184.8c5.4-125,15.3-270.4,4.6-317.1-10.7-46.7-14-58.9-14-58.9,0,0,10.2,109.3,10.2,142.1s-11.8,217.9-12.4,250.8-3.7,73.3-3.7,73.3c0,0-36.7-170.1-29.9-254.1,6.8-84,20.9-154.9,22.7-149.7s1.3,71.4,0,83.3-10.5,110.5-5.9,138.2,11.5-36.3,12.2-71.8,8.1-122,4.4-149.7-10.8-27.6-10.8-27.6l4.1-67.6c.1,0-41.3,169.2-35.1,307h0Z"/><path class="cls-4" d="M211.1,746.27l2.8-37.6s13.8-191.4-2.8-362.1c-16.6-170.7-18.1-187.9-18.1-187.9,10.1,222.4,11.8,223.3,7.5,317.2-3.4,75.9,10.6,270.4,10.6,270.4h0Z"/><path class="cls-4" d="M27.3,761.07c5.1,80.8,24.1,281.9,24.1,281.9l22-.2s-48.9-316.3-36.6-393,44.1-245.5,42.9-299.1-11.4-251.7-24.2-269.2c0,0,29.5,193.1,5.1,320.1-24.4,127-38.4,278.7-33.3,359.5h0Z"/><path class="cls-4" d="M154.7,531.87c-4.8-46.9-33.6-203.6-33.6-203.6,0,0,35.1,193.3,23.1,324.7s-15.9,222.3-15.9,252.4,8.7,97.6,8.7,97.6c0,0-8.2-160.5,6.7-246.8,14.8-86.4,15.8-177.4,11-224.3h0Z"/><path class="cls-4" d="M578.8,819.77l2.8-29.7s13.8-151.1-2.8-285.8-18.1-148.3-18.1-148.3c10.1,175.5,11.8,176.3,7.5,250.4-3.4,59.9,10.6,213.4,10.6,213.4h0Z"/><path class="cls-4" d="M454.4,302.67l1.9-14.1s7.5-44.8,2.7-122.3c-5.1-82.1-16.1-116.7-16.1-116.7,6.7,83.2,7.3,116.8,4.4,151.9-2.2,28.4,7.1,101.2,7.1,101.2h0Z"/><polygon class="cls-4" points="515.3 397.17 534.6 86.47 526 27.37 515.3 20.77 519.9 48.37 519.9 179.07 515.3 397.17"/><path class="cls-4" d="M395,831.47c5.1,63.8,24.1,222.5,24.1,222.5l22-.1s-48.9-249.6-36.6-310.2c12.3-60.6,44.1-193.8,42.9-236.1-1.2-42.3-11.4-198.7-24.2-212.5,0,0,29.5,152.4,5.1,252.6-24.4,100.3-38.4,220-33.3,283.8h0Z"/><path class="cls-4" d="M553.7,650.57c-4.8-37-33.6-160.7-33.6-160.7,0,0,35.1,152.6,23.1,256.3-12,103.7-15.9,175.5-15.9,199.2s8.7,77.1,8.7,77.1c0,0-8.2-126.7,6.7-194.8,14.9-68.3,15.8-140.1,11-177.1h0Z"/></g></g></g></g></svg>