<?xml version="1.0" encoding="UTF-8"?><svg id="Layer_1" xmlns="http://www.w3.org/2000/svg" xmlns:xlink="http://www.w3.org/1999/xlink" viewBox="0 0 620 1080"><defs><style>.cls-1{fill:none;}.cls-2{clip-path:url(#clippath);}.cls-3{fill:#442813;}.cls-4{fill:#3c1f0f;}.cls-5{opacity:.58;}</style><clipPath id="clippath"><rect class="cls-1" y="-22.53" width="620" height="1135.72"/></clipPath></defs><g class="cls-2"><g id="Layer_2"><g id="Layer_33"><rect class="cls-3" x="-620.05" y="-2.93" width="1860.1" height="1086.4"/><g class="cls-5"><path class="cls-4" d="M415.55,726.37c-.4-2.3-.8-4.5-1.3-6.5,0,0,.5,2.3,1.3,6.5Z"/><path class="cls-4" d="M434.05,617.97l-33.2-103.7s-26.9,19.8-30.8,65.3c-3.8,45.5-9.6,146.2,5.8,262.4s48.9,166.6,58.2,94.7c8.1-62.8-13.1-181.3-18.6-210.4,10.4,59.9-.4,190.4-3.2,202-2.9,12-27.8-35.6-28.8-181s12.5-208.5,12.5-208.5l38.1,79.2h0Z"/><path class="cls-4" d="M393.75,791.67c5,23.4,15.7-33.2,9.3-53.1-6.4-19.9-3.7-131.5-3.7-131.5,0,0-12.2,153.8-5.6,184.6h0Z"/><path class="cls-4" d="M78.05,804.07l2.8-29.7s13.8-151.1-2.8-285.8c-16.6-134.7-18.1-148.3-18.1-148.3,10.1,175.5,11.8,176.3,7.5,250.4-3.4,59.9,10.6,213.4,10.6,213.4h0Z"/><path class="cls-4" d="M435.55,286.97l1.9-14.1s7.5-44.8,2.7-122.3c-5.1-82.1-16.1-116.7-16.1-116.7,6.7,83.2,7.3,116.8,4.4,151.9-2.2,28.4,7.1,101.2,7.1,101.2h0Z"/><polygon class="cls-4" points="496.45 381.47 515.75 70.77 507.15 11.67 496.45 5.17 501.05 32.77 501.05 163.37 496.45 381.47"/><polygon class="cls-4" points="14.55 381.47 33.75 70.77 25.15 11.67 14.55 5.17 19.15 32.77 19.15 163.37 14.55 381.47"/><path class="cls-4" d="M439.85,1025.37s7.7,2.4,15.5,4.8c.3,3.2,.4,5,.4,5,0,0-.1-1.8-.3-5,7.5,2.3,15.1,4.7,16.3,5,2.6,.7-16-86-16-86.1,.6-6.4,1.4-12.4,2.5-17.9,7.5-37.9,16.1-149.2-1.8-208.8s4.8-164.3,4.8-164.3c0,0-29.1,116.2-19.6,153.7,9.4,37.6,9.8,96.8,7.9,166.1-.3,12.6-.4,25.9-.2,39.1l-3.3,56.4-6.2,52h0Z"/><polygon class="cls-4" points="551.85 420.37 572.35 110.37 558.15 32.07 540.85 44.67 548.35 72.27 548.35 202.97 551.85 420.37"/><path class="cls-4" d="M570.15,522.17c6.1,137.8,41,260.6,41.9,286.6s6.3-59.8,11.7-184.8c5.4-125,15.3-270.4,4.6-317.1-10.7-46.7-14-58.9-14-58.9,0,0,10.2,109.3,10.2,142.1s-11.8,217.9-12.4,250.8-3.7,73.3-3.7,73.3c0,0-36.7-170.1-29.9-254.1,6.8-84,20.9-154.9,22.7-149.7s1.3,71.4,0,83.3-10.5,110.5-5.9,138.2,11.5-36.3,12.2-71.8,8.1-122,4.4-149.7-10.8-27.6-10.8-27.6l4.1-67.6c.1,0-41.3,169.2-35.1,307h0Z"/><path class="cls-4" d="M190.45,328.07c7.4,113,49.7,213.7,50.8,235s7.6-49,14.1-151.5c6.6-102.5,18.6-221.7,5.6-260.1-13-38.3-17-48.3-17-48.3,0,0,12.4,89.7,12.4,116.5s-14.3,178.7-15.1,205.6c-.7,27-4.4,60.1-4.4,60.1,0,0-44.4-139.6-36.1-208.4s25.4-127,27.5-122.8c2.1,4.3,1.6,58.6,0,68.3s-12.7,90.6-7.2,113.4c5.6,22.7,13.9-29.7,14.8-58.9,.9-29.1,9.8-100.1,5.3-122.8-4.4-22.7-13-22.6-13-22.6l4.9-55.4c.1,.1-50,138.9-42.6,251.9h0Z"/><path class="cls-4" d="M325.45,169.97c-13.7-47.4-31-118.4-31-118.4,0,0-3.5,119.9-6.1,164.4-2.6,44.4,15.1-23.7,11.5-44.4-3.5-20.7,0-50.3,0-50.3,0,0,4.7,5.1,9.7,18.1,6.7,17.7,13.9,50.2,10.3,104.8-6.2,94.8-15.9,170.5-15.9,263.6s28.8,282.1,28.8,282.1c0,0-21.1-289.6-13-379.9,8.3-90.5,19.4-192.7,5.7-240h0Z"/><path class="cls-4" d="M233.45,582.17c-.3-4.3-.5-6.7-.5-6.7,0,0,.2,2.4,.5,6.7Z"/><path class="cls-4" d="M231.15,829.27c-15.6,74.9-16.8,199.1-16.8,199.1l19.1-5.1s-9.4-56.7-7-84.1,17.8-107,17.8-158.1c0-44.7-8.6-168.6-10.8-198.9,2.3,33.2,11.5,180.8-2.3,247.1h0Z"/><path class="cls-4" d="M541.35,616.27s-.1,166.1,0,218.5c.1,52.4-13.2,190.8-13.2,190.8v6.7c10,6.6,30.5-5.8,30.5-5.8l-17.3-410.2h0Z"/><path class="cls-4" d="M52.95,634.87c-4.8-37-33.6-160.7-33.6-160.7,0,0,35.1,152.6,23.1,256.3s-15.9,175.5-15.9,199.2,8.7,77.1,8.7,77.1c0,0-8.3-126.7,6.6-194.9,14.9-68.1,15.9-140,11.1-177h0Z"/></g></g></g><rect class="cls-1" x="250.73" y="2.93" width="620" height="1080.54"/></g></svg>