<?xml version="1.0" encoding="UTF-8"?><svg id="Layer_1" xmlns="http://www.w3.org/2000/svg" xmlns:xlink="http://www.w3.org/1999/xlink" viewBox="0 0 620 1080"><defs><style>.cls-1{fill:none;}.cls-2{clip-path:url(#clippath);}.cls-3{fill:#442813;}.cls-4{fill:#3c1f0f;}.cls-5{opacity:.58;}</style><clipPath id="clippath"><rect class="cls-1" width="620" height="1080.54"/></clipPath></defs><g class="cls-2"><g id="Layer_2"><g id="Layer_33"><rect class="cls-3" y="-5.86" width="1860.1" height="1086.4"/><g class="cls-5"><path class="cls-4" d="M476.8,230.84c-.4-2.3-.8-4.5-1.3-6.6,0,0,.5,2.3,1.3,6.6Z"/><path class="cls-4" d="M495.3,122.34l-33.2-103.6s-26.9,19.8-30.7,65.3c-3.8,45.5-9.6,146.2,5.8,262.4,15.4,116.2,49,166.6,58.2,94.7,8.1-62.8-13.1-181.3-18.6-210.4,10.4,59.9-.4,190.4-3.2,202-2.9,12-27.8-35.6-28.8-181s12.5-208.5,12.5-208.5l38,79.1h0Z"/><path class="cls-4" d="M455,296.14c5,23.4,15.7-33.2,9.3-53.1-6.4-19.9-3.7-131.5-3.7-131.5,0,0-12.2,153.8-5.6,184.6h0Z"/><path class="cls-4" d="M573.7,284.04l1.9-14.1s7.5-44.8,2.7-122.3c-5.1-82.1-16-116.7-16-116.7,6.7,83.2,7.3,116.8,4.4,151.9-2.4,28.4,7,101.2,7,101.2h0Z"/><polygon class="cls-4" points="230.5 384.14 251.1 74.14 236.9 -4.16 219.5 8.54 227 36.14 227 166.74 230.5 384.14"/><path class="cls-4" d="M289.5,369.34c6.1,137.8,41,260.6,41.9,286.6s6.3-59.8,11.6-184.8c5.4-125,15.3-270.4,4.6-317.1-10.7-46.7-14-58.9-14-58.9,0,0,10.2,109.3,10.2,142.1s-11.8,218-12.4,250.9c-.6,32.9-3.6,73.3-3.6,73.3,0,0-36.7-170.1-29.8-254.1s20.9-154.9,22.7-149.7,1.3,71.4,0,83.3-10.5,110.5-5.9,138.2c4.6,27.7,11.5-36.3,12.2-71.8,.8-35.5,8.1-122,4.4-149.7-3.6-27.7-10.8-27.6-10.8-27.6l4-67.6c.1,0-41.2,169.2-35.1,306.9h0Z"/><path class="cls-4" d="M514.2,812.84c5.1,63.8,24.1,222.5,24.1,222.5l22-.1s-48.9-249.6-36.6-310.2c12.3-60.6,44.1-193.8,42.9-236.1-1.2-42.3-11.4-198.7-24.2-212.5,0,0,29.5,152.4,5.1,252.6-24.3,100.3-38.4,220.1-33.3,283.8h0Z"/><path class="cls-4" d="M437.4,578.74c0-66.3-28.8-200.8-28.8-200.8,0,0,21.1,206.1,13,270.4-8.1,64.3-19.3,137-5.5,170.7,13.7,33.7,31,84.3,31,84.3,0,0,3.5-85.3,6.1-117,2.6-31.6-15.1,16.9-11.5,31.6s0,35.8,0,35.8c0,0-26.3-20-20-87.5,6.1-67.4,15.7-121.2,15.7-187.5h0Z"/><path class="cls-4" d="M151.6,597.54c-13.7-32.6-31-81.5-31-81.5,0,0-3.5,82.5-6.1,113.1s15.1-16.3,11.5-30.6c-3.5-14.3,0-34.6,0-34.6,0,0,4.7,3.5,9.7,12.5,6.7,12.2,13.9,34.5,10.3,72.1-6.3,65.2-15.9,117.3-15.9,181.4,0,35.3,6.9,141,14.7,183.5,6.4,34.7,14.1,10.6,14.1,10.6,0,0-21.1-199.3-13-261.4,8.4-62.2,19.5-132.5,5.7-165.1h0Z"/><path class="cls-4" d="M232.6,737.94c14-15.7,11.5-163.2,11.5-163.2,0,0-7.1,62.2-7.4,99.4-.3,37.2-17.3,79.5-35.7,24.2-18.4-55.2-28.3-164-28.3-164,5.2,178.6,45.9,219.3,59.9,203.6h0Z"/><path class="cls-4" d="M236.8,770.74s-15.5,25-35.7,0-30.6-96.6-30.6-96.6c13.2,186.1,66.3,96.6,66.3,96.6Z"/><path class="cls-4" d="M282.7,1031.64s-5-17.6-6.9-33.4-30.8-119.8-30.8-119.8c0,0,13.4,80.8,15.2,103.3,1.8,22.5-9.1,46-9.1,46-7.2,3.9,31.6,3.9,31.6,3.9h0Z"/><path class="cls-4" d="M426.6,1030.54s-5-17.6-6.9-33.4c-1.9-15.8-30.8-119.8-30.8-119.8,0,0,13.5,80.8,15.2,103.3,1.8,22.5-9.1,46-9.1,46-7.3,3.9,31.6,3.9,31.6,3.9h0Z"/></g></g></g></g></svg>