<?xml version="1.0" encoding="UTF-8"?><svg xmlns="http://www.w3.org/2000/svg" viewBox="0 0 518.45 444.96"><defs><style>.cls-1,.cls-2{fill:#fff;}.cls-3{fill:#f2d265;}.cls-4,.cls-5{fill:#824416;}.cls-6{fill:#6d310c;}.cls-7{fill:#9f5e26;}.cls-8{fill:#b2662d;}.cls-9{fill:#242833;}.cls-10{fill:#260503;}.cls-11{fill:#723609;}.cls-12{fill:#6d717e;}.cls-13{fill:#471d06;}.cls-14,.cls-15,.cls-16,.cls-17,.cls-18,.cls-19{fill:#512303;}.cls-15,.cls-16,.cls-17,.cls-20{mix-blend-mode:multiply;}.cls-15,.cls-19,.cls-2{opacity:.39;}.cls-16{opacity:.25;}.cls-17{opacity:.5;}.cls-21{isolation:isolate;}.cls-20{opacity:.3;}.cls-18{opacity:.4;}.cls-5{opacity:.38;}</style></defs><g class="cls-21"><g id="Layer_2"><g id="Layer_8"><g><path class="cls-13" d="M514.44,245.19v-.02c-.27-.4-.53-.8-.81-1.17-.56-.78-1.19-1.53-1.88-2.26-1.02-1.08-2.15-2.07-3.37-2.95-2.02-1.46-4.36-2.67-6.93-3.6-4.43-1.59-9.79-2.39-15.93-2.39-3.01,0-7.9,.52-14.95,1.6l-5.08,.81c-1.31,.21-2.64,.44-3.98,.67-1.35,.23-2.73,.47-4.1,.71-4.62,.82-9.72,1.77-15.21,2.82-2.21-5.62-7.7-9.61-14.09-9.61h-8.07c-3.64-19.88-11.03-39.1-21.63-56.29l5.94-5.94c2.86-2.86,4.43-6.66,4.43-10.7,0-2.12-.43-4.17-1.25-6.06,3.89-2.64,8.36-5.7,12.74-8.75,1.15-.8,2.29-1.6,3.4-2.39,1.12-.79,2.22-1.57,3.3-2.35l4.15-3.01c5.76-4.24,9.59-7.33,11.71-9.45,4.34-4.34,7.57-8.7,9.58-12.96,1.17-2.47,1.96-4.98,2.36-7.45,.24-1.49,.34-3,.3-4.49-.03-.98-.12-1.96-.27-2.88-.07-.49-.17-.96-.27-1.43-.88-3.95-2.89-7.78-5.97-11.41l-8.97-7.6c-.21-.11-.41-.23-.63-.34l-.32-.16c-1.12-.57-2.28-1.05-3.48-1.46l-.33-.1c-1.25-.39-2.53-.68-3.85-.86l-.27-.03c-1.35-.16-2.73-.21-4.09-.13l-.33,.02c-1.37,.1-2.77,.32-4.19,.67l-.29,.07c-1.36,.35-2.75,.83-4.21,1.45l-.25,.11c-.59,.26-1.2,.55-1.88,.9l-.21,.11c-3.81,2.02-7.69,5.01-11.56,8.87-4.24,4.24-12.99,16.15-26.04,35.43-4.81-1.98-10.27-1.37-14.53,1.67l-5.87,5.64c-19.95-14.98-43.02-25.19-67.42-29.84l-.07-9.78-.09-.99c-.86-5.17-4.31-9.46-9.1-11.46,4.41-22.88,6.64-37.49,6.64-43.46,0-5.46-.64-10.32-1.91-14.48l-.07-.23c-.21-.67-.44-1.32-.67-1.91l-.13-.34c-.55-1.38-1.19-2.7-1.93-3.95l-.15-.25c-.74-1.21-1.57-2.36-2.53-3.47l-.18-.2c-.91-1.02-1.91-1.95-3.02-2.82l-.23-.17c-1.01-.77-2.12-1.47-3.33-2.11l-.31-.16c-1.09-.54-2.25-1.02-3.51-1.43l-.31-.1c-.58-.18-1.15-.34-1.74-.48l-.24-.05c-.49-.11-.98-.21-1.49-.3l-.39-.07c-.53-.09-1.06-.16-1.75-.23-.56-.06-1.12-.1-1.7-.13l-.4-.02c-.56-.02-1.11-.04-1.67-.04-5.94,0-11.08,1.35-15.24,3.99-.42,.26-.83,.54-1.21,.82-.77,.56-1.53,1.19-2.26,1.87-1.08,1.01-2.08,2.15-2.97,3.39-1.46,2.02-2.67,4.35-3.6,6.93-1.59,4.43-2.39,9.79-2.39,15.94,0,3,.52,7.9,1.6,14.97l.81,5.07c.21,1.31,.44,2.64,.67,3.99,.23,1.35,.47,2.72,.72,4.09,.82,4.61,1.76,9.71,2.82,15.21-5.62,2.21-9.61,7.7-9.61,14.09v8.23c-24.52,4.62-47.69,14.85-67.71,29.89l-5.11-5-.77-.64c-4.26-3.03-9.72-3.64-14.53-1.66-13.05-19.28-21.8-31.19-26.04-35.43-3.86-3.86-7.75-6.84-11.57-8.88l-.26-.14c-.61-.32-1.22-.6-1.83-.87l-.32-.14c-1.38-.59-2.77-1.07-4.17-1.43l-.28-.07c-1.39-.34-2.79-.56-4.26-.66h-.23c-1.37-.09-2.75-.05-4.13,.12l-.28,.04c-1.28,.17-2.56,.46-3.85,.87l-.33,.11c-1.16,.39-2.31,.87-3.5,1.47l-.29,.15c-.52,.28-1.04,.57-1.6,.91l-.21,.13c-.42,.27-.84,.55-1.2,.8l-.38,.27c-.43,.31-.85,.63-1.4,1.07-.43,.35-.86,.72-1.26,1.09l-.31,.28c-.41,.38-.82,.76-1.22,1.16-4.2,4.2-6.88,8.79-7.96,13.62-.11,.48-.2,.96-.27,1.41-.16,.96-.25,1.95-.28,2.91-.05,1.48,.05,2.99,.3,4.49,.4,2.47,1.19,4.97,2.36,7.45,2.01,4.26,5.23,8.62,9.57,12.96,2.12,2.12,5.95,5.22,11.7,9.44l4.17,3.03c1.07,.77,2.18,1.55,3.29,2.34,1.12,.79,2.26,1.59,3.4,2.39,4.38,3.06,8.86,6.12,12.76,8.76-2.41,5.54-1.35,12.23,3.17,16.76l5.94,5.94c-10.6,17.19-17.98,36.41-21.62,56.29h-8.07c-6.4,0-11.88,3.99-14.09,9.61-5.5-1.06-10.59-2-15.21-2.82-1.38-.25-2.75-.49-4.09-.71-1.35-.23-2.69-.46-4-.68l-5.06-.8c-7.06-1.08-11.95-1.6-14.96-1.6-6.15,0-11.51,.81-15.94,2.39-2.58,.92-4.91,2.13-6.94,3.6-1.22,.88-2.35,1.87-3.39,2.97-.67,.71-1.3,1.47-1.85,2.23-.28,.39-.55,.79-.82,1.21-2.66,4.19-4.01,9.33-4.01,15.27,0,.56,.02,1.12,.04,1.72l.02,.37c.03,.56,.07,1.12,.14,1.82,.06,.53,.13,1.05,.23,1.67l.06,.34c.08,.48,.17,.96,.29,1.48l.06,.26c.14,.59,.3,1.16,.49,1.76l.1,.33c.39,1.19,.86,2.35,1.44,3.51l.14,.28c.6,1.16,1.3,2.27,2.14,3.37l.15,.19c.83,1.07,1.77,2.07,2.84,3.03l.2,.18c1.04,.91,2.19,1.74,3.48,2.52l.21,.13c1.21,.72,2.53,1.36,4,1.95l.23,.09c.6,.23,1.24,.46,1.91,.68l.3,.09c4.12,1.26,8.98,1.9,14.44,1.9,5.99,0,20.6-2.23,43.47-6.64,2,4.79,6.29,8.23,11.45,9.1l10.93,.17c3.76,19.28,10.89,37.46,21.26,54.2l-5.94,5.94c-4.52,4.52-5.58,11.22-3.17,16.76-3.89,2.64-8.37,5.7-12.74,8.76-1.15,.8-2.29,1.6-3.4,2.39-1.12,.79-2.22,1.57-3.3,2.35l-2.11,1.52c-.7,.51-1.39,1.01-2.04,1.49-5.76,4.24-9.59,7.33-11.71,9.45-4.34,4.34-7.57,8.7-9.58,12.96-1.17,2.47-1.96,4.98-2.36,7.45-.24,1.5-.34,3.01-.3,4.47,.03,.98,.12,1.97,.27,2.9,.07,.49,.17,.97,.27,1.43,.88,3.93,2.88,7.75,5.94,11.36l9,7.65c.21,.11,.41,.23,.63,.34l.32,.16c1.12,.57,2.28,1.05,3.49,1.46l.31,.1c1.25,.39,2.53,.68,3.86,.86l.27,.03c1.35,.17,2.73,.21,4.09,.13l.33-.02c1.37-.1,2.77-.32,4.19-.67l.29-.07c1.36-.35,2.75-.82,4.19-1.44l.28-.12c.58-.26,1.19-.55,1.87-.9l.21-.11c3.81-2.02,7.69-5.01,11.56-8.87,4.24-4.24,12.99-16.15,26.04-35.43,4.81,1.98,10.27,1.38,14.53-1.67l5.88-5.64c28.2,21.16,62.75,32.75,98.04,32.75s69.84-11.59,98.04-32.75l5.11,5,.77,.64c4.26,3.03,9.72,3.64,14.53,1.66,13.05,19.28,21.8,31.19,26.04,35.43,3.86,3.86,7.75,6.84,11.57,8.88l.26,.14c.62,.32,1.23,.61,1.81,.86l.33,.15c1.38,.59,2.77,1.07,4.17,1.43l.28,.07c1.39,.34,2.79,.56,4.26,.66h.23c1.37,.09,2.74,.04,4.13-.12l.28-.04c1.28-.17,2.56-.46,3.87-.87l.31-.1c1.16-.39,2.31-.87,3.5-1.47l.29-.15c.52-.28,1.04-.57,1.6-.91l.21-.13c.42-.27,.84-.55,1.2-.8l.38-.27c.43-.31,.85-.63,1.38-1.06,.44-.36,.87-.73,1.28-1.1l.31-.28c.41-.38,.82-.76,1.22-1.16,4.2-4.2,6.88-8.79,7.96-13.62,.11-.48,.2-.96,.27-1.41,.15-.95,.25-1.93,.28-2.93,.04-1.48-.06-2.98-.3-4.48-.4-2.47-1.19-4.97-2.36-7.45-2.01-4.26-5.23-8.62-9.57-12.96-2.12-2.12-5.95-5.22-11.7-9.44-.67-.49-1.35-.99-2.05-1.5l-2.12-1.53c-1.07-.77-2.18-1.55-3.29-2.34-1.12-.79-2.26-1.59-3.4-2.39-4.38-3.06-8.86-6.12-12.75-8.76,.82-1.89,1.25-3.94,1.25-6.06,0-4.05-1.57-7.85-4.43-10.71l-5.94-5.93c10.37-16.74,17.5-34.92,21.26-54.2l9.94-.08,.99-.09c5.15-.86,9.44-4.29,11.45-9.1,22.87,4.41,37.48,6.64,43.47,6.64,5.46,0,10.32-.64,14.42-1.89l.31-.1c.67-.21,1.31-.44,1.89-.67l.34-.13c1.39-.55,2.71-1.2,3.92-1.91l.29-.17c1.22-.74,2.37-1.57,3.43-2.5l.23-.2c1.01-.91,1.95-1.91,2.82-3.02l.17-.23c.78-1.03,1.48-2.14,2.08-3.29l.19-.37c.55-1.1,1.02-2.26,1.42-3.5l.1-.3c.18-.58,.34-1.16,.47-1.72l.07-.31c.11-.48,.2-.96,.29-1.46l.07-.42c.08-.52,.15-1.04,.23-1.72,.06-.56,.1-1.12,.13-1.7l.02-.4c.02-.56,.04-1.11,.04-1.68,0-5.94-1.35-11.08-4.01-15.27Z"/><g><g><g><path class="cls-14" d="M283.05,89.89c-.52-3.09-2.7-5.61-5.69-6.59-.27-.09-.54-.16-.83-.23-.17-.04-.33-.07-.49-.09-.41-.06-.79-.1-1.12-.1h-2.26c3.67-18.61,7.85-41.43,7.85-49.01,0-4.79-.54-8.98-1.61-12.47l-.06-.21c-.17-.53-.35-1.04-.54-1.53l-.1-.26c-.42-1.07-.92-2.08-1.46-2.99l-.13-.22c-.54-.9-1.15-1.73-1.81-2.48l-.16-.18c-.64-.72-1.35-1.38-2.11-1.98l-.19-.15c-.73-.55-1.52-1.05-2.33-1.48l-.25-.13c-.79-.4-1.64-.74-2.52-1.03l-.27-.09c-.43-.13-.87-.26-1.31-.36l-.2-.05c-.37-.08-.75-.16-1.12-.22l-.32-.05c-.42-.07-.85-.13-1.28-.17h-.09c-.45-.05-.9-.09-1.35-.11l-.35-.02c-.46-.02-.92-.03-1.39-.03-4.65,0-8.57,1-11.67,2.96-.29,.18-.57,.37-.84,.57-.55,.4-1.09,.84-1.59,1.32-.77,.72-1.48,1.54-2.12,2.42-1.09,1.51-2.01,3.28-2.72,5.27-1.33,3.7-2,8.3-2,13.67,0,2.62,.51,7.32,1.52,13.95,.12,.8,.25,1.62,.38,2.45,.13,.83,.27,1.68,.41,2.54,.21,1.29,.43,2.61,.66,3.94,.23,1.34,.47,2.69,.71,4.05,1.4,7.92,2.98,16.07,4.16,22.07h-2.43c-4.64,0-8.42,3.78-8.42,8.42v8.8c0,4.64,3.78,8.42,8.42,8.42h30.67c4.64,0,8.42-3.78,8.42-8.42v-6.04l-.07-4.15Zm-3.24,10.19c0,2.81-2.29,5.1-5.1,5.1h-30.67c-2.81,0-5.1-2.29-5.1-5.1v-8.8c0-2.81,2.29-5.1,5.16-5.1h6.41l-.39-1.98c-1.21-6.08-2.98-15.18-4.54-23.98-.24-1.36-.48-2.7-.7-4.03-.23-1.33-.45-2.64-.66-3.92-.14-.85-.28-1.7-.41-2.52-.13-.83-.26-1.64-.38-2.43-.99-6.47-1.48-10.99-1.48-13.45,0-4.99,.61-9.21,1.8-12.55,.61-1.69,1.38-3.19,2.29-4.45,.52-.72,1.09-1.37,1.71-1.95,.4-.38,.83-.73,1.27-1.05,.22-.16,.44-.31,.67-.45,2.59-1.65,5.83-2.45,9.9-2.45,.42,0,.83,.01,1.25,.03h.3c.38,.04,.76,.06,1.13,.1h.09c.4,.05,.78,.11,1.16,.17l.28,.05c.38,.07,.76,.14,1.13,.23l.19,.05c.31,.08,.61,.17,.92,.26l.23,.07c.72,.23,1.42,.52,2.06,.84l.19,.1c.66,.34,1.29,.74,1.87,1.18l.15,.12c.6,.47,1.17,1,1.68,1.58l.13,.14c.53,.61,1.03,1.29,1.48,2.03l.1,.17c.46,.78,.88,1.63,1.24,2.54l.09,.22c.18,.46,.35,.93,.5,1.42l.05,.17c.96,3.14,1.44,6.99,1.44,11.44,0,7.98-5.12,34.96-8.17,50.33l-.39,1.98h6.17c.24,.01,.48,.03,.72,.07,.11,.02,.21,.04,.3,.05,.17,.04,.34,.09,.51,.14,1.57,.51,2.8,1.77,3.29,3.31l.11,.65c.06,.32,.08,.61,.08,.88v8.8Z"/><path class="cls-4" d="M278.65,33.86c0-19.21-8.63-24.55-19.29-24.55s-19.29,5.34-19.29,24.55c0,11.81,10.82,63.52,10.82,63.52h16.94s10.81-51.71,10.81-63.52Z"/><path class="cls-7" d="M242.84,39.63c0-19.21,8.63-24.55,19.29-24.55,6.04,0,11.44,1.72,14.97,6.72-2.95-9.51-9.78-12.5-17.73-12.5-10.65,0-19.29,5.34-19.29,24.55,0,11.81,10.82,63.52,10.82,63.52h1.57c-2.81-13.82-9.63-48.36-9.63-57.74Z"/><rect class="cls-4" x="237.09" y="84.51" width="44.19" height="22.32" rx="3.77" ry="3.77"/><path class="cls-7" d="M239.24,103.94v-8.8c0-3.72,3.04-6.76,6.76-6.76h30.67c1.75,0,3.35,.68,4.56,1.79-.54-3.19-3.32-5.65-6.66-5.65h-30.67c-3.72,0-6.76,3.04-6.76,6.76v8.8c0,1.96,.85,3.74,2.2,4.97-.06-.36-.1-.73-.1-1.11Z"/><path class="cls-14" d="M257.04,9.05s1.71,2.69,2.33,3.15c.62,.46,1.72,7.54,1.44,11.4-.28,3.86-1.86,20.97-1.86,20.97,0,0,2.51-18.76,3.34-21.06,.83-2.3,4.23-10.61,3.5-12.43-.74-1.82-.83-1.69-1.1-2.03-.28-.34-7.63,0-7.63,0Z"/><path class="cls-14" d="M247.75,44.58s-.83,10.48,1.75,17.93c2.58,7.45,3.59,6.35,3.95,12.97,.37,6.62,.74,9.03,.74,9.03,0,0,1.1-7.1,1.1-10.68s-1.1-8.37-2.39-13.52c-1.29-5.15-5.15-15.73-5.15-15.73Z"/><path class="cls-14" d="M281.97,93.65s-1.01,2.02-1.47,2.3c-.46,.28-15.04,.41-14.9,.41s11.54,1.56,12.65,1.56,4,1.84,4.05,1.66c.05-.18-.32-5.93-.32-5.93Z"/><path class="cls-7" d="M264.49,96.23c.14-.05,14.55,1.88,14.55,1.88l2.19,1.01-.27,1.71s-1.7-1.52-2.85-1.79c-1.15-.28-13.61-2.81-13.61-2.81Z"/><path class="cls-7" d="M247.69,51.58s1.42,8.7,2.44,11.95c1.02,3.25,2.45,4.19,2.88,8.07,.43,3.88,1.05,11.96,1.05,11.96,0,0-2.65-12.49-3.94-16.44-1.28-3.95-3.76-8.55-3.76-11.68s1.38-10.85,1.38-10.85l-.06,7Z"/><path class="cls-7" d="M261.46,23.34c-.1-2.02-2.09-11.13-2.09-11.13l-2.33,2.21,2.33,4.69-.78,28.6s2.97-22.35,2.87-24.37Z"/><path class="cls-18" d="M277.1,20.85s-3.73,43.59-7.73,51.6c-4,8-19.27,11.74-19.27,11.74h21.75s8.19-43.06,7.96-46.37c-.23-3.31-.57-13.09-2.71-16.97Z"/><path class="cls-18" d="M281.28,97.97s-8.56,4.41-16.79,4-26.19,2.56-26.19,2.56c0,0,23.65-1.65,33.41-.05,9.76,1.59,9.52,0,9.52,0,0,0,.88-6.91,.05-6.51Z"/></g><g><g><g><path class="cls-14" d="M93.11,284.95h6.04c4.64,0,8.42-3.78,8.42-8.42v-30.67c0-4.64-3.78-8.42-8.42-8.42h-8.8c-4.64,0-8.42,3.78-8.42,8.42v2.42c-6-1.18-14.15-2.75-22.07-4.16-1.36-.24-2.72-.48-4.05-.71-1.33-.23-2.65-.45-3.94-.66-.86-.14-1.71-.28-2.54-.41-.83-.13-1.65-.26-2.45-.38-6.63-1.01-11.32-1.52-13.95-1.52-5.37,0-9.97,.67-13.67,2-1.99,.71-3.76,1.63-5.27,2.72-.88,.64-1.7,1.35-2.42,2.12-.48,.51-.92,1.04-1.32,1.59-.2,.28-.39,.56-.57,.84-1.96,3.1-2.96,7.02-2.96,11.67,0,.47,.01,.93,.03,1.39l.02,.35c.02,.45,.06,.9,.1,1.35v.09c.06,.43,.12,.86,.18,1.28l.05,.32c.07,.38,.14,.75,.22,1.12l.05,.2c.11,.45,.23,.88,.36,1.31l.09,.27c.29,.88,.63,1.73,1.03,2.52l.13,.25c.42,.81,.92,1.6,1.48,2.33l.15,.19c.59,.76,1.26,1.47,1.98,2.11l.18,.16c.75,.65,1.59,1.26,2.48,1.81l.22,.13c.92,.54,1.93,1.03,2.99,1.46l.26,.1c.48,.19,.99,.37,1.53,.54l.21,.06c3.5,1.07,7.68,1.61,12.47,1.61,7.57,0,30.4-4.18,49-7.85v2.26c.01,.33,.05,.71,.11,1.12,.03,.16,.06,.33,.09,.49,.07,.3,.14,.57,.23,.83,.98,2.99,3.51,5.17,6.6,5.69l4.15,.07Zm-2.77-3.31c-.27,0-.55-.03-.88-.08l-.65-.11c-1.53-.49-2.79-1.73-3.31-3.29-.06-.17-.1-.34-.14-.51-.02-.08-.04-.19-.05-.3-.04-.24-.06-.48-.07-.72v-6.17l-1.98,.39c-15.37,3.05-42.36,8.17-50.33,8.17-4.45,0-8.3-.48-11.44-1.44l-.17-.05c-.49-.15-.97-.32-1.42-.5l-.22-.09c-.9-.36-1.76-.78-2.54-1.24l-.17-.1c-.74-.45-1.42-.94-2.03-1.48l-.14-.13c-.57-.51-1.1-1.08-1.58-1.68l-.12-.15c-.44-.58-.84-1.21-1.18-1.87l-.1-.19c-.32-.64-.61-1.34-.84-2.06l-.07-.23c-.09-.3-.18-.61-.26-.92l-.05-.19c-.09-.37-.16-.75-.23-1.13l-.05-.28c-.06-.38-.12-.77-.16-1.16v-.09c-.05-.37-.07-.75-.09-1.13l-.02-.3c-.02-.42-.03-.83-.03-1.25,0-4.06,.8-7.3,2.45-9.9,.14-.23,.3-.45,.45-.67,.32-.44,.67-.86,1.05-1.27,.58-.62,1.24-1.19,1.95-1.71,1.26-.91,2.76-1.68,4.45-2.29,3.34-1.2,7.56-1.8,12.55-1.8,2.46,0,6.98,.5,13.45,1.48,.79,.12,1.6,.25,2.43,.38,.83,.13,1.67,.27,2.52,.41,1.28,.21,2.59,.43,3.92,.66,1.33,.23,2.68,.46,4.03,.7,8.8,1.56,17.89,3.33,23.98,4.54l1.98,.39v-6.41c0-2.86,2.29-5.16,5.1-5.16h8.8c2.81,0,5.1,2.29,5.1,5.1v30.67c0,2.81-2.29,5.1-5.1,5.1h-8.8Z"/><path class="cls-4" d="M32.93,280.48c-19.21,0-24.55-8.63-24.55-19.29s5.34-19.29,24.55-19.29c11.81,0,63.52,10.82,63.52,10.82v16.94s-51.7,10.82-63.52,10.82Z"/><path class="cls-7" d="M30.34,245.71c11.81,0,63.52,10.82,63.52,10.82v13.68c1.65-.34,2.59-.54,2.59-.54v-16.94s-51.7-10.82-63.52-10.82c-13.21,0-19.86,4.08-22.73,10.09,3.66-3.87,9.95-6.3,20.13-6.3Z"/><rect class="cls-4" x="72.65" y="249.85" width="44.19" height="22.32" rx="3.77" ry="3.77" transform="translate(355.76 166.27) rotate(90)"/><path class="cls-7" d="M86.95,278.41v-30.67c0-3.72,3.04-6.76,6.76-6.76h8.8c.58,0,1.14,.08,1.67,.22-1.24-1.39-3.04-2.28-5.04-2.28h-8.8c-3.72,0-6.76,3.04-6.76,6.76v30.67c0,3.14,2.17,5.79,5.09,6.54-1.07-1.2-1.72-2.76-1.72-4.48Z"/><path class="cls-14" d="M87.14,283.8s2.02-1.01,2.3-1.47c.28-.46,.41-15.04,.41-14.9s1.56,11.54,1.56,12.65,1.84,4,1.66,4.05c-.18,.05-5.93-.32-5.93-.32Z"/><path class="cls-7" d="M89.71,266.32c-.05,.14-1.44,14.76-1.44,14.76l-.59,1.41,1.49,.48s.8-1.98,.53-3.13c-.28-1.15,.03-13.52,.03-13.52Z"/><path class="cls-18" d="M83.59,273.59v-25.02s-4.06,18.62-12.06,22.63c-.82,.41-2.03,.82-3.53,1.22-8.62,1.59-17.46,3.11-24.15,4.01-1.48,.18-2.95,.35-4.39,.52-1.8,.18-3.33,.29-4.47,.29-19.21,0-24.55-8.63-24.55-19.29,0-3.33,.52-6.46,1.83-9.19-2.84,3.35-3.89,7.67-3.89,12.39,0,7.94,2.97,14.75,12.43,17.71-.57,.05-.88,.08-.88,.08,3.88,2.14,13.66,2.47,16.97,2.71,3.31,.23,46.69-8.05,46.69-8.05Z"/><path class="cls-18" d="M97.05,283.11s4.41-8.56,4-16.79c-.41-8.23,2.56-26.19,2.56-26.19,0,0-1.65,23.65-.05,33.41,1.59,9.76,0,9.52,0,9.52,0,0-6.91,.88-6.51,.05Z"/></g><path class="cls-14" d="M18.56,254.37s10.48-4.14,21.89-4.6c11.4-.46,22.63,3.49,25.2,3.86,2.58,.37,17.94,1.1,17.94,1.1v7.06s-11.04-5.04-12.51-5.13c-1.47-.09-7.45-1.84-10.3-2.58-2.85-.74-37.52-1.38-42.22,.28Z"/><path class="cls-14" d="M49.46,267.42c-9.01,1.3-20.51,.55-24.19-1.1-3.68-1.65-15.96,1.76-15.96,1.76,0,0-.01,3.4,.89,3.95,.91,.55,1.64-.28,2.56-.55,.92-.28,7.17-3.04,9.75-3.04s15.45,2.33,21.61,1.76c6.16-.57,16.19-4.11,18.21-5.1,2.02-.99-3.86,1.02-12.88,2.32Z"/></g><path class="cls-7" d="M16.76,271.43c.14-.09,4.87-1.72,8.74-1.23,3.86,.49,15.21,2.24,20.48,1.64,5.27-.6,16.16-6.65,16.16-6.65,0,0-13.51,4.35-17.23,4.49-3.72,.14-19.06-.95-20.41-1.08-1.35-.13-3.96-.44-3.96-.44l-9.34,3.99,5.57-.73Z"/><path class="cls-7" d="M78.7,259.63l-18.49-5.63s-34.96-.58-38.06-.2l-3.1,.38s28.2,3.36,32.43,2.46c4.23-.9,8.44-.57,10.66,0,2.22,.57,16.56,2.98,16.56,2.98Z"/></g><g><g><g><path class="cls-14" d="M429.49,284.88c3.09-.52,5.61-2.7,6.6-5.69,.09-.27,.16-.54,.23-.83,.04-.17,.07-.33,.09-.49,.06-.41,.1-.79,.1-1.12v-2.26c18.61,3.67,41.43,7.85,49.01,7.85,4.79,0,8.98-.54,12.47-1.61l.21-.06c.53-.17,1.04-.35,1.53-.54l.26-.1c1.07-.42,2.08-.92,2.99-1.46l.22-.13c.9-.54,1.73-1.15,2.48-1.81l.18-.16c.72-.64,1.38-1.35,1.98-2.11l.15-.19c.55-.73,1.05-1.52,1.48-2.33l.13-.25c.4-.79,.74-1.64,1.03-2.52l.09-.27c.13-.43,.26-.87,.36-1.31l.05-.2c.08-.37,.16-.75,.22-1.12l.05-.32c.07-.42,.13-.85,.17-1.28v-.09c.05-.45,.09-.9,.11-1.35l.02-.35c.02-.46,.03-.92,.03-1.39,0-4.65-1-8.57-2.96-11.67-.18-.29-.37-.57-.57-.84-.4-.55-.84-1.09-1.32-1.59-.72-.77-1.54-1.48-2.42-2.12-1.51-1.09-3.28-2.01-5.27-2.72-3.7-1.33-8.3-2-13.67-2-2.62,0-7.32,.51-13.95,1.52-.8,.12-1.62,.25-2.45,.38-.83,.13-1.68,.27-2.54,.41-1.29,.21-2.61,.43-3.94,.66-1.34,.23-2.69,.47-4.05,.71-7.92,1.4-16.07,2.98-22.07,4.16v-2.42c0-4.64-3.78-8.42-8.42-8.42h-8.8c-4.64,0-8.42,3.78-8.42,8.42v30.67c0,4.64,3.78,8.42,8.42,8.42h6.04l4.15-.07Zm-10.19-3.24c-2.81,0-5.1-2.29-5.1-5.1v-30.67c0-2.81,2.29-5.1,5.1-5.1h8.8c2.81,0,5.1,2.29,5.1,5.16v6.41l1.98-.39c6.08-1.21,15.18-2.98,23.98-4.54,1.36-.24,2.7-.48,4.03-.7,1.33-.23,2.64-.45,3.92-.66,.85-.14,1.7-.28,2.52-.41,.83-.13,1.64-.26,2.43-.38,6.47-.99,10.99-1.48,13.45-1.48,4.99,0,9.21,.61,12.55,1.8,1.69,.61,3.19,1.38,4.45,2.29,.72,.52,1.37,1.09,1.95,1.71,.38,.4,.73,.83,1.05,1.27,.16,.22,.31,.44,.45,.67,1.65,2.59,2.45,5.83,2.45,9.9,0,.42-.01,.83-.03,1.25l-.02,.3c-.02,.38-.05,.76-.08,1.13v.09c-.05,.4-.11,.78-.17,1.16l-.05,.28c-.07,.38-.14,.76-.23,1.13l-.05,.19c-.08,.31-.17,.61-.26,.92l-.07,.23c-.23,.72-.52,1.42-.84,2.06l-.1,.19c-.34,.66-.74,1.29-1.18,1.87l-.12,.15c-.47,.6-1,1.17-1.58,1.68l-.14,.13c-.61,.53-1.29,1.03-2.03,1.48l-.17,.1c-.78,.46-1.63,.88-2.54,1.24l-.22,.09c-.46,.18-.93,.35-1.42,.5l-.17,.05c-3.14,.96-6.99,1.44-11.44,1.44-7.98,0-34.96-5.12-50.33-8.17l-1.98-.39v6.17c-.01,.24-.03,.48-.07,.72-.02,.11-.04,.21-.05,.3-.04,.17-.09,.34-.14,.51-.51,1.56-1.77,2.8-3.31,3.29l-.65,.11c-.32,.06-.61,.08-.88,.08h-8.8Z"/><path class="cls-4" d="M485.52,280.48c19.21,0,24.55-8.63,24.55-19.29s-5.34-19.29-24.55-19.29c-11.81,0-63.52,10.82-63.52,10.82v16.94s51.7,10.82,63.52,10.82Z"/><path class="cls-7" d="M488.11,245.71c-11.81,0-63.52,10.82-63.52,10.82v13.68c-1.65-.34-2.59-.54-2.59-.54v-16.94s51.7-10.82,63.52-10.82c13.21,0,19.86,4.08,22.73,10.09-3.66-3.87-9.95-6.3-20.13-6.3Z"/><rect class="cls-4" x="401.61" y="249.85" width="44.19" height="22.32" rx="3.77" ry="3.77" transform="translate(684.71 -162.69) rotate(90)"/><path class="cls-18" d="M430.66,239.43c.81,1.11,1.29,2.47,1.29,3.94v30.67c0,3.72-3.04,6.76-6.76,6.76h-8.8c-.9,0-1.77-.18-2.56-.51,1.23,1.7,3.23,2.82,5.47,2.82h8.8c3.72,0,6.76-3.04,6.76-6.76v-30.67c0-2.81-1.74-5.24-4.2-6.25Z"/><path class="cls-14" d="M431.31,283.8s-2.02-1.01-2.3-1.47c-.28-.46-.41-15.04-.41-14.9s-1.56,11.54-1.56,12.65-1.84,4-1.66,4.05c.18,.05,5.93-.32,5.93-.32Z"/><path class="cls-7" d="M428.74,266.32c.05,.14,1.44,14.76,1.44,14.76l.59,1.41-1.49,.48s-.8-1.98-.53-3.13c.28-1.15-.03-13.52-.03-13.52Z"/><path class="cls-18" d="M434.86,273.59v-25.02s4.06,18.62,12.06,22.63c.82,.41,2.03,.82,3.53,1.22,8.62,1.59,17.46,3.11,24.15,4.01,1.48,.18,2.95,.35,4.39,.52,1.8,.18,3.33,.29,4.47,.29,19.21,0,24.55-8.63,24.55-19.29,0-3.33-.52-6.46-1.83-9.19,2.84,3.35,3.89,7.67,3.89,12.39,0,7.94-2.97,14.75-12.43,17.71,.57,.05,.88,.08,.88,.08-3.88,2.14-13.66,2.47-16.97,2.71-3.31,.23-46.69-8.05-46.69-8.05Z"/><path class="cls-18" d="M421.4,283.11s-4.41-8.56-4-16.79c.41-8.23-2.56-26.19-2.56-26.19,0,0,1.65,23.65,.05,33.41-1.59,9.76,0,9.52,0,9.52,0,0,6.91,.88,6.51,.05Z"/><path class="cls-7" d="M428.1,238.92h-8.8c-3.72,0-6.76,3.04-6.76,6.76v2.73c0-3.72,3.04-6.76,6.76-6.76h8.8c3.72,0,6.76,3.04,6.76,6.76v-2.73c0-3.72-3.04-6.76-6.76-6.76Z"/></g><path class="cls-14" d="M499.89,265.58s-10.48-4.14-21.89-4.6c-11.4-.46-22.63,3.5-25.2,3.86-2.58,.37-17.94,1.1-17.94,1.1v7.06s11.04-5.04,12.51-5.13,7.45-1.84,10.3-2.58c2.85-.74,37.52-1.38,42.22,.28Z"/></g><path class="cls-7" d="M439.75,270.84l18.49-5.63s34.96-.58,38.06-.2l3.1,.38s-28.2,3.36-32.43,2.46c-4.23-.9-8.44-.57-10.66,0-2.22,.57-16.56,2.98-16.56,2.98Z"/><path class="cls-14" d="M505.76,247.86s1.59,2.21,.97,3.86c-.62,1.66-13.18,1.66-13.86,1.24-.69-.41-19.38-.21-21.11-.07-1.72,.14-8.21,.76-8.21,.76,0,0,17.52,.14,21.11,0,3.59-.14,15.18,1.45,16.62,1.45s5.31,1.03,6.28,1.24c.97,.21,2.52-.69,2.52-.69,0,0-2.18-6-4.32-7.79Z"/><path class="cls-7" d="M462.09,253.73s17.04,0,22.56-.07c5.52-.07,13.57,.76,14.75,.83,1.18,.07,8.14,2.04,8.85,1.85,.71-.18,1.32-.43,1.32-.43,0,0-3.19,2.43-6.29,1.88-3.1-.55-41.18-4.07-41.18-4.07Z"/></g></g><g><g><g><g><path class="cls-14" d="M367.04,391.08c2.55,1.82,5.88,2.06,8.69,.64,.25-.13,.49-.26,.75-.43,.14-.09,.28-.19,.41-.29,.33-.24,.63-.49,.86-.72l1.6-1.59c10.56,15.75,23.74,34.84,29.1,40.19,3.39,3.39,6.73,5.97,9.96,7.69l.19,.1c.5,.26,.99,.49,1.46,.7l.26,.11c1.05,.45,2.12,.82,3.15,1.09l.25,.06c1.02,.25,2.04,.41,3.03,.48h.24c.96,.07,1.93,.04,2.89-.08l.24-.03c.91-.12,1.82-.33,2.69-.61l.26-.08c.84-.28,1.69-.63,2.51-1.05l.25-.13c.4-.21,.79-.43,1.18-.67l.17-.11c.32-.2,.64-.42,.95-.64l.27-.19c.35-.25,.69-.51,1.03-.78l.07-.06c.35-.28,.69-.58,1.02-.88l.26-.23c.34-.31,.68-.63,1-.96,3.29-3.29,5.36-6.77,6.16-10.35,.07-.33,.14-.66,.19-1,.11-.67,.17-1.36,.19-2.06,.03-1.06-.04-2.14-.21-3.21-.3-1.84-.9-3.74-1.8-5.65-1.68-3.55-4.45-7.28-8.25-11.08-1.86-1.86-5.54-4.81-10.94-8.79-.65-.48-1.32-.97-2-1.46-.68-.5-1.38-1-2.09-1.51-1.06-.76-2.15-1.54-3.26-2.32-1.11-.78-2.23-1.57-3.36-2.36-6.59-4.6-13.47-9.26-18.54-12.66l1.71-1.71c3.28-3.28,3.28-8.62,0-11.9l-6.23-6.22c-3.28-3.28-8.62-3.28-11.9,0l-21.69,21.69c-3.28,3.28-3.28,8.62,0,11.9l4.27,4.27,2.99,2.88Zm-4.91-9.49c-1.99-1.99-1.99-5.23,0-7.22l21.69-21.69c1.99-1.99,5.23-1.99,7.22,0l6.22,6.23c1.99,1.99,1.99,5.23-.04,7.25l-4.53,4.53,1.68,1.12c5.16,3.45,12.84,8.63,20.16,13.75,1.13,.79,2.25,1.57,3.35,2.35,1.1,.78,2.18,1.55,3.24,2.3,.7,.5,1.39,1,2.07,1.49,.68,.49,1.34,.97,1.99,1.45,5.27,3.88,8.82,6.72,10.56,8.46,3.53,3.53,6.08,6.94,7.6,10.15,.77,1.62,1.28,3.23,1.53,4.76,.14,.87,.2,1.74,.17,2.59-.02,.55-.07,1.1-.15,1.64-.04,.27-.09,.53-.15,.8-.67,3-2.39,5.85-5.27,8.73-.29,.29-.59,.58-.9,.86l-.22,.2c-.28,.25-.57,.5-.86,.74l-.07,.05c-.31,.25-.62,.49-.93,.71l-.23,.16c-.32,.22-.63,.44-.96,.64l-.17,.1c-.27,.16-.55,.32-.83,.47l-.21,.11c-.68,.34-1.37,.63-2.05,.86l-.2,.07c-.71,.22-1.44,.39-2.16,.49l-.19,.02c-.76,.09-1.53,.12-2.3,.07h-.19c-.81-.07-1.64-.2-2.48-.4l-.19-.05c-.87-.22-1.77-.54-2.67-.92l-.21-.09c-.45-.2-.9-.41-1.36-.65l-.16-.08c-2.9-1.55-5.96-3.92-9.11-7.07-5.64-5.64-21.1-28.34-29.81-41.37l-1.12-1.68-4.27,4.27-.1,.09c-.18,.17-.36,.32-.56,.46-.09,.06-.18,.13-.25,.17-.15,.09-.3,.18-.46,.26-1.47,.74-3.23,.73-4.67,0l-.54-.38c-.27-.19-.49-.37-.68-.56l-6.23-6.23Z"/><path class="cls-4" d="M409.77,427.59c13.58,13.58,23.47,11.26,31,3.73,7.53-7.53,9.86-17.42-3.73-31-8.35-8.35-52.56-37.27-52.56-37.27l-11.98,11.98s28.91,44.21,37.27,52.56Z"/><path class="cls-7" d="M436.19,404.84c-8.35-8.35-52.56-37.27-52.56-37.27l-9.68,9.68c-.93-1.41-1.46-2.21-1.46-2.21l11.98-11.98s44.21,28.91,52.56,37.27c9.34,9.34,11.16,16.93,8.93,23.21,.15-5.32-2.58-11.49-9.78-18.69Z"/><rect class="cls-4" x="357.73" y="358.95" width="44.19" height="22.32" rx="3.77" ry="3.77" transform="translate(910.11 363.25) rotate(135)"/><path class="cls-18" d="M388.08,350.17l6.22,6.22c2.63,2.63,2.63,6.93,0,9.56l-21.69,21.69c-1.24,1.24-2.85,1.89-4.48,1.96,2.64,1.88,6.34,1.65,8.7-.72l21.69-21.69c2.63-2.63,2.63-6.93,0-9.56l-6.23-6.22c-1.39-1.39-3.25-2.04-5.08-1.96,.3,.21,.59,.45,.86,.72Z"/><path class="cls-18" d="M378.82,386.9l17.69-17.69s-10.3,16.04-7.47,24.53c.29,.87,.86,2.02,1.63,3.36,4.97,7.22,10.14,14.55,14.25,19.91,.92,1.17,1.83,2.33,2.73,3.47,1.14,1.4,2.15,2.56,2.95,3.36,13.58,13.58,23.47,11.26,31,3.73,2.35-2.35,4.2-4.94,5.21-7.79-.36,4.38-2.67,8.17-6.01,11.51-5.61,5.61-12.53,8.33-21.31,3.73,.37,.44,.57,.68,.57,.68-4.26-1.23-11.41-7.91-13.91-10.08-2.51-2.18-27.32-38.71-27.32-38.71Z"/><path class="cls-18" d="M365.1,386.68s2.98-10.31,9.09-15.84c6.11-5.53,14.13-21.76,14.13-21.76,0,0-15.56,17.88-23.58,23.66s-6.73,6.73-6.73,6.73c0,0,6.79,8.08,7.1,7.21Z"/></g><path class="cls-14" d="M439.5,433.61s-4.42-.06-5.45-.92c-1.03-.87-27.24-27.08-27.24-27.08,0,0,23.37,25.84,23.38,26.9,.01,1.06,2.48,4.88,2.48,4.88,0,0,5.57-1.48,6.83-3.77Z"/><path class="cls-7" d="M405.22,404.36l24.63,26.63,2.42,5.74s-5.52-3.53-5.93-3.88c-.41-.34-21.11-28.49-21.11-28.49Z"/></g><path class="cls-14" d="M395.16,386.06s8.28,11.4,13.24,14.16c4.97,2.76,13.21,8.46,14.75,9.2,1.53,.74,16.35,15.82,16.35,15.82,0,0-15.64-21.61-18.31-23.27-2.67-1.66-13.04-6.44-14.39-7.73-1.34-1.29-11.64-8.19-11.64-8.19Z"/><path class="cls-7" d="M393.78,384.29s10.04,14.13,13.02,14.85c2.98,.72,17.09,10.83,17.09,10.83l16.7,16.47s-20.05-15.54-19.96-15.91c.09-.37-15.73-10.12-16.28-10.85-.55-.74-10.58-15.38-10.58-15.38Z"/></g><g><g><path class="cls-14" d="M154.4,388.2l4.27-4.27c3.28-3.28,3.28-8.62,0-11.9l-21.69-21.69c-3.28-3.28-8.62-3.28-11.9,0l-6.22,6.22c-3.28,3.28-3.28,8.62,0,11.9l1.71,1.71c-5.08,3.4-11.95,8.06-18.54,12.66-1.13,.79-2.26,1.58-3.36,2.36-1.11,.78-2.19,1.56-3.26,2.32-.71,.51-1.4,1.01-2.09,1.51-.68,.5-1.35,.98-2,1.46-5.4,3.97-9.08,6.93-10.94,8.79-3.8,3.8-6.57,7.52-8.25,11.08-.9,1.91-1.51,3.81-1.8,5.65-.17,1.08-.25,2.16-.21,3.21,.02,.69,.09,1.39,.19,2.06,.05,.34,.12,.67,.19,1,.8,3.58,2.87,7.06,6.16,10.35,.33,.33,.67,.65,1,.96l.26,.23c.33,.3,.68,.6,1.02,.88l.07,.06c.34,.27,.68,.53,1.03,.78l.27,.19c.31,.22,.63,.44,.95,.64l.17,.11c.39,.24,.78,.46,1.18,.67l.25,.13c.82,.42,1.67,.78,2.51,1.05l.26,.08c.88,.28,1.79,.48,2.69,.61l.24,.03c.96,.12,1.93,.15,2.89,.09h.24c.99-.08,2.02-.24,3.03-.49l.25-.06c1.03-.27,2.09-.63,3.15-1.09l.26-.11c.47-.21,.96-.44,1.46-.7l.19-.1c3.23-1.72,6.57-4.3,9.96-7.69,5.36-5.36,18.54-24.45,29.1-40.19l1.6,1.59c.24,.23,.53,.48,.86,.72,.13,.1,.27,.19,.41,.29,.26,.16,.5,.3,.75,.43,2.81,1.42,6.14,1.18,8.69-.64l2.99-2.88Zm-4.3-.38c-.19,.19-.41,.37-.68,.56l-.54,.38c-1.43,.73-3.2,.75-4.67,0-.16-.08-.31-.17-.46-.26-.07-.05-.16-.11-.25-.17-.2-.14-.38-.3-.56-.46l-.1-.09-4.27-4.27-1.12,1.68c-8.71,13.03-24.17,35.73-29.81,41.37-3.15,3.15-6.21,5.52-9.11,7.07l-.16,.08c-.46,.24-.91,.45-1.36,.65l-.22,.09c-.89,.38-1.79,.7-2.67,.92l-.19,.05c-.84,.2-1.67,.34-2.48,.39h-.19c-.77,.05-1.54,.03-2.3-.06l-.19-.02c-.72-.1-1.45-.26-2.16-.49l-.2-.07c-.68-.23-1.37-.52-2.05-.86l-.21-.11c-.28-.15-.56-.3-.83-.47l-.17-.1c-.32-.2-.64-.42-.96-.64l-.23-.16c-.31-.22-.63-.46-.93-.71l-.07-.05c-.29-.24-.57-.49-.86-.74l-.22-.2c-.31-.28-.61-.56-.9-.86-2.87-2.87-4.6-5.73-5.27-8.73-.06-.26-.11-.53-.15-.8-.08-.53-.14-1.08-.15-1.64-.03-.85,.03-1.72,.17-2.59,.25-1.54,.76-3.14,1.53-4.76,1.51-3.21,4.07-6.62,7.6-10.15,1.74-1.74,5.29-4.59,10.56-8.46,.65-.48,1.31-.96,1.99-1.45,.68-.49,1.37-.99,2.07-1.49,1.06-.76,2.14-1.53,3.24-2.3,1.1-.78,2.22-1.57,3.35-2.35,7.33-5.12,15.01-10.3,20.16-13.75l1.68-1.12-4.53-4.53c-2.03-2.03-2.03-5.26-.04-7.25l6.22-6.23c1.99-1.99,5.23-1.99,7.22,0l21.69,21.69c1.99,1.99,1.99,5.23,0,7.22l-6.23,6.23Z"/><path class="cls-4" d="M108.68,427.59c-13.58,13.58-23.47,11.26-31,3.73-7.53-7.53-9.86-17.42,3.73-31,8.35-8.35,52.56-37.27,52.56-37.27l11.98,11.98s-28.91,44.21-37.27,52.56Z"/><path class="cls-7" d="M82.26,404.84c8.35-8.35,52.56-37.27,52.56-37.27l9.68,9.68c.93-1.41,1.46-2.21,1.46-2.21l-11.98-11.98s-44.21,28.91-52.56,37.27c-9.34,9.34-11.16,16.93-8.93,23.21-.15-5.32,2.58-11.49,9.78-18.69Z"/><rect class="cls-4" x="116.53" y="358.95" width="44.19" height="22.32" rx="3.77" ry="3.77" transform="translate(302.32 10.38) rotate(45)"/><path class="cls-18" d="M130.37,350.17l-6.22,6.22c-2.63,2.63-2.63,6.93,0,9.56l21.69,21.69c1.24,1.24,2.85,1.89,4.48,1.96-2.64,1.88-6.34,1.65-8.7-.72l-21.69-21.69c-2.63-2.63-2.63-6.93,0-9.56l6.22-6.22c1.39-1.39,3.25-2.04,5.08-1.96-.3,.21-.59,.45-.86,.72Z"/><path class="cls-18" d="M139.62,386.9l-17.69-17.69s10.3,16.04,7.47,24.53c-.29,.87-.86,2.02-1.63,3.36-4.97,7.22-10.15,14.55-14.25,19.91-.92,1.17-1.83,2.33-2.73,3.47-1.14,1.4-2.15,2.56-2.95,3.36-13.58,13.58-23.47,11.26-31,3.73-2.35-2.35-4.2-4.94-5.21-7.79,.36,4.38,2.67,8.17,6.01,11.51,5.61,5.61,12.53,8.33,21.31,3.73-.37,.44-.57,.68-.57,.68,4.26-1.23,11.41-7.91,13.91-10.08,2.51-2.18,27.32-38.71,27.32-38.71Z"/><path class="cls-7" d="M123.54,361.15l6.22-6.23c2.63-2.63,6.93-2.63,9.56,0l-3.54-3.54c-2.63-2.63-6.93-2.63-9.56,0l-6.22,6.23c-2.63,2.63-2.63,6.93,0,9.56l3.54,3.54c-2.63-2.63-2.63-6.93,0-9.56Z"/><path class="cls-18" d="M155.88,384.11s-2.93-9.17-9.04-14.7c-6.11-5.53-16.7-20.33-16.7-20.33,0,0,15.56,17.88,23.58,23.66,8.03,5.77,6.73,6.73,6.73,6.73,0,0-4.26,5.51-4.57,4.64Z"/></g><path class="cls-14" d="M78.95,433.61s4.42-.06,5.45-.92,27.24-27.08,27.24-27.08c0,0-23.37,25.84-23.38,26.9-.01,1.06-2.48,4.88-2.48,4.88,0,0-5.57-1.48-6.83-3.77Z"/><path class="cls-7" d="M113.23,404.36l-24.63,26.63-2.42,5.74s5.52-3.53,5.93-3.88c.41-.34,21.11-28.49,21.11-28.49Z"/><path class="cls-14" d="M127.33,374.6s-5.62,8.86-10.46,13.06-16.42,8.49-17.9,9.38-25.57,28.61-25.57,28.61l2.34,6.03,3.21-8.15s10.83-15.01,13.04-16.63c2.21-1.62-.23-3.85,8.44-7.24,8.67-3.39,23.85-10.11,24.35-14.93,.5-4.83,2.55-10.12,2.55-10.12Z"/><path class="cls-7" d="M77.57,428.26s1.91-2.28,4.3-5.5,11.59-15.45,12.56-16.37c.96-.92,24.51-10.19,26.99-13.1,2.48-2.91,3.05-7.54,3.05-7.54,0,0-11.68,8.66-16.02,10.54-4.34,1.88-11.54,4.76-12.69,5.7-1.15,.94-3.59,3.61-3.59,3.61l-13.98,18.44-.62,4.22Z"/></g><g><g><path class="cls-14" d="M364.05,132.11l-4.27,4.27c-3.28,3.28-3.28,8.62,0,11.9l21.69,21.69c3.28,3.28,8.62,3.28,11.9,0l6.23-6.23c3.28-3.28,3.28-8.62,0-11.9l-1.71-1.71c5.08-3.4,11.95-8.06,18.54-12.66,1.13-.79,2.26-1.58,3.36-2.36,1.11-.78,2.19-1.56,3.26-2.32,.71-.51,1.4-1.01,2.09-1.51,.68-.5,1.35-.98,2-1.46,5.4-3.97,9.08-6.93,10.94-8.79,3.8-3.8,6.57-7.52,8.25-11.08,.9-1.91,1.51-3.81,1.8-5.65,.17-1.08,.25-2.16,.21-3.21-.02-.69-.09-1.39-.19-2.06-.05-.34-.12-.67-.19-1-.8-3.58-2.87-7.06-6.16-10.35-.33-.33-.67-.65-1-.96l-.26-.23c-.33-.3-.68-.6-1.02-.88l-.07-.06c-.34-.27-.68-.53-1.03-.78l-.27-.19c-.31-.22-.63-.44-.95-.64l-.17-.11c-.39-.24-.78-.46-1.18-.67l-.25-.13c-.82-.42-1.67-.78-2.51-1.05l-.26-.08c-.88-.28-1.79-.48-2.69-.61l-.24-.03c-.96-.12-1.93-.15-2.89-.09h-.24c-.99,.08-2.01,.24-3.03,.49l-.25,.06c-1.03,.27-2.09,.63-3.15,1.09l-.26,.11c-.47,.21-.96,.44-1.46,.7l-.19,.1c-3.23,1.72-6.57,4.3-9.96,7.69-5.36,5.36-18.54,24.45-29.1,40.19l-1.6-1.59c-.24-.23-.53-.48-.86-.72-.13-.1-.27-.19-.41-.29-.26-.16-.5-.3-.75-.43-2.81-1.42-6.14-1.18-8.69,.64l-2.99,2.88Zm4.3,.38c.19-.19,.41-.37,.68-.56l.54-.38c1.43-.73,3.2-.75,4.67,0,.16,.08,.31,.17,.46,.26,.07,.05,.16,.11,.25,.17,.2,.14,.38,.29,.56,.46l.1,.09,4.27,4.27,1.12-1.68c8.71-13.03,24.17-35.73,29.81-41.37,3.15-3.15,6.21-5.52,9.11-7.07l.16-.08c.46-.24,.91-.46,1.36-.65l.21-.09c.89-.38,1.79-.7,2.67-.92l.19-.05c.84-.21,1.67-.34,2.48-.39h.19c.77-.05,1.54-.03,2.3,.06l.19,.02c.72,.1,1.45,.26,2.16,.49l.2,.07c.68,.23,1.37,.52,2.05,.86l.21,.11c.28,.15,.56,.3,.83,.46l.17,.1c.32,.2,.64,.42,.96,.64l.23,.16c.31,.22,.63,.46,.93,.71l.07,.05c.29,.24,.57,.49,.86,.74l.22,.2c.31,.28,.61,.56,.9,.86,2.87,2.87,4.6,5.73,5.27,8.73,.06,.26,.11,.53,.15,.8,.08,.53,.14,1.08,.15,1.64,.03,.85-.03,1.72-.17,2.59-.25,1.53-.76,3.14-1.53,4.76-1.51,3.21-4.07,6.62-7.6,10.15-1.74,1.74-5.29,4.59-10.56,8.46-.65,.48-1.31,.96-1.99,1.45-.68,.49-1.37,.99-2.07,1.49-1.06,.76-2.14,1.53-3.24,2.3-1.1,.78-2.22,1.57-3.35,2.35-7.33,5.12-15.01,10.3-20.16,13.75l-1.68,1.12,4.53,4.53c2.03,2.03,2.03,5.26,.04,7.25l-6.22,6.22c-1.99,1.99-5.23,1.99-7.22,0l-21.69-21.69c-1.99-1.99-1.99-5.23,0-7.22l6.23-6.22Z"/><path class="cls-4" d="M409.77,92.71c13.58-13.58,23.47-11.26,31-3.73,7.53,7.53,9.86,17.42-3.73,31-8.35,8.35-52.56,37.27-52.56,37.27l-11.98-11.98s28.91-44.21,37.27-52.56Z"/><path class="cls-7" d="M411.1,96.85c13.58-13.58,23.47-11.26,31-3.73,1.89,1.9,3.46,3.94,4.53,6.15-.65-3.87-2.83-7.27-5.86-10.29-7.53-7.53-17.41-9.86-31,3.73-8.35,8.35-37.27,52.56-37.27,52.56l2.44,2.44c5.38-8.17,28.78-43.49,36.15-50.87Z"/><path class="cls-18" d="M436.19,115.47c-8.35,8.35-52.56,37.27-52.56,37.27l-9.68-9.68c-.93,1.41-1.46,2.21-1.46,2.21l11.98,11.98s44.21-28.91,52.56-37.27c9.34-9.34,11.16-16.93,8.93-23.21,.15,5.32-2.58,11.49-9.78,18.69Z"/><rect class="cls-4" x="357.73" y="139.03" width="44.19" height="22.32" rx="3.77" ry="3.77" transform="translate(542.2 524.96) rotate(-135)"/><path class="cls-7" d="M361.09,141.15l6.23-6.22c2.63-2.63,6.93-2.63,9.56,0l21.69,21.69c.87,.87,1.42,1.93,1.72,3.05,.59-2.25,.04-4.76-1.72-6.51l-21.69-21.69c-2.63-2.63-6.93-2.63-9.56,0l-6.23,6.22c-1.76,1.76-2.31,4.26-1.72,6.51,.29-1.12,.85-2.18,1.72-3.05Z"/><path class="cls-18" d="M399.01,162.01c2.02-2.64,1.86-6.46-.56-8.87l-3.54-3.54c2.63,2.63,2.63,6.93,0,9.56l-3.48,3.48c-12.78-3.07-30.34-24.97-30.34-24.97-.31-.87-3.08,3.15-3.08,3.15,0,0-1.3,.96,6.73,6.73,5.65,4.06,15.01,14.1,20.07,19.71-2.02,.27-4.14-.34-5.68-1.89l3.54,3.54c1.45,1.45,3.42,2.07,5.33,1.92,.21,.24,.33,.37,.33,.37,0,0,.29-.2,.76-.54,1.15-.29,2.25-.85,3.15-1.75l2.37-2.37c2.84-2.22,5.36-4.41,4.42-4.54Z"/></g><path class="cls-14" d="M439.5,86.69s-4.42,.06-5.45,.92c-1.03,.87-27.24,27.08-27.24,27.08,0,0,23.37-25.84,23.38-26.9,.01-1.06,2.48-4.88,2.48-4.88,0,0,5.57,1.48,6.83,3.77Z"/><path class="cls-7" d="M405.22,115.94l24.63-26.63,2.42-5.74s-5.52,3.53-5.93,3.88c-.41,.34-21.11,28.49-21.11,28.49Z"/><path class="cls-14" d="M391.12,145.7s5.62-8.86,10.46-13.06c4.84-4.2,16.42-8.49,17.9-9.38,1.47-.89,25.57-28.61,25.57-28.61l-2.34-6.03-3.21,8.15s-10.83,15.01-13.04,16.63c-2.21,1.62,.23,3.85-8.44,7.24-8.67,3.39-23.85,10.11-24.35,14.93-.5,4.83-2.55,10.12-2.55,10.12Z"/><path class="cls-7" d="M440.88,92.04s-1.91,2.28-4.3,5.5c-2.39,3.22-11.59,15.45-12.56,16.37-.96,.92-24.51,10.19-26.99,13.1-2.48,2.91-3.05,7.54-3.05,7.54,0,0,11.68-8.66,16.02-10.54,4.34-1.88,11.54-4.76,12.69-5.7,1.15-.94,3.59-3.61,3.59-3.61l13.98-18.44,.62-4.22Z"/></g><g><g><g><g><path class="cls-14" d="M151.41,129.22c-2.55-1.82-5.88-2.06-8.69-.64-.25,.13-.49,.26-.75,.43-.14,.09-.28,.19-.41,.29-.33,.24-.63,.49-.86,.72l-1.6,1.59c-10.56-15.75-23.74-34.84-29.1-40.19-3.39-3.39-6.73-5.97-9.96-7.69l-.19-.1c-.5-.26-.99-.49-1.46-.7l-.26-.11c-1.05-.45-2.12-.82-3.15-1.09l-.25-.06c-1.02-.25-2.04-.41-3.03-.48h-.24c-.96-.07-1.93-.04-2.89,.08l-.24,.03c-.91,.12-1.82,.33-2.69,.61l-.26,.08c-.84,.28-1.69,.63-2.51,1.05l-.25,.13c-.4,.21-.79,.43-1.18,.67l-.17,.11c-.32,.2-.64,.42-.95,.64l-.27,.19c-.35,.25-.69,.51-1.03,.78l-.07,.06c-.35,.28-.69,.58-1.02,.88l-.26,.23c-.34,.31-.68,.63-1,.96-3.29,3.29-5.36,6.77-6.16,10.35-.07,.33-.14,.66-.19,1-.11,.67-.17,1.36-.19,2.06-.03,1.06,.04,2.14,.21,3.21,.3,1.84,.9,3.74,1.8,5.65,1.68,3.55,4.45,7.28,8.25,11.08,1.86,1.86,5.54,4.81,10.94,8.79,.65,.48,1.32,.97,2,1.46,.68,.5,1.38,1,2.09,1.51,1.06,.76,2.15,1.54,3.26,2.32,1.11,.78,2.23,1.57,3.36,2.36,6.59,4.6,13.47,9.26,18.54,12.66l-1.71,1.71c-3.28,3.28-3.28,8.62,0,11.9l6.22,6.23c3.28,3.28,8.62,3.28,11.9,0l21.69-21.69c3.28-3.28,3.28-8.62,0-11.9l-4.27-4.27-2.99-2.88Zm4.91,9.49c1.99,1.99,1.99,5.23,0,7.22l-21.69,21.69c-1.99,1.99-5.23,1.99-7.22,0l-6.22-6.22c-1.99-1.99-1.99-5.23,.04-7.25l4.53-4.53-1.68-1.12c-5.16-3.45-12.84-8.63-20.16-13.75-1.13-.79-2.25-1.57-3.35-2.35-1.1-.78-2.18-1.55-3.24-2.3-.7-.5-1.39-1-2.07-1.49-.68-.49-1.34-.97-1.99-1.45-5.27-3.88-8.82-6.72-10.56-8.46-3.53-3.53-6.08-6.94-7.6-10.15-.77-1.62-1.28-3.23-1.53-4.76-.14-.87-.2-1.74-.17-2.59,.02-.55,.07-1.1,.15-1.64,.04-.27,.09-.53,.15-.8,.67-3,2.39-5.85,5.27-8.73,.29-.29,.59-.58,.9-.86l.22-.2c.28-.25,.57-.5,.86-.74l.07-.05c.31-.25,.62-.49,.93-.71l.23-.16c.32-.22,.63-.44,.96-.64l.17-.1c.27-.16,.55-.32,.83-.46l.21-.11c.68-.34,1.37-.64,2.05-.86l.2-.07c.71-.22,1.44-.39,2.16-.49l.19-.02c.76-.09,1.53-.12,2.3-.07h.19c.81,.07,1.64,.2,2.48,.4l.19,.05c.87,.22,1.77,.54,2.67,.92l.22,.09c.45,.2,.9,.41,1.36,.65l.16,.08c2.9,1.55,5.96,3.92,9.11,7.07,5.64,5.64,21.1,28.34,29.81,41.37l1.12,1.68,4.27-4.27,.1-.09c.18-.17,.36-.32,.56-.46,.09-.06,.18-.13,.25-.17,.15-.09,.3-.18,.46-.26,1.47-.74,3.23-.73,4.67,0l.54,.38c.27,.19,.49,.37,.68,.56l6.23,6.22Z"/><path class="cls-4" d="M108.68,92.71c-13.58-13.58-23.47-11.26-31-3.73-7.53,7.53-9.86,17.42,3.73,31,8.35,8.35,52.56,37.27,52.56,37.27l11.98-11.98s-28.91-44.21-37.27-52.56Z"/><path class="cls-7" d="M79.99,94.49c7.53-7.53,17.42-9.86,31,3.73,6.67,6.67,26.47,36.24,34.16,47.85l.8-.8s-28.91-44.21-37.27-52.56c-13.58-13.58-23.47-11.26-31-3.73-5.81,5.81-8.51,13.01-3.23,22.23-1.71-6.65,.94-12.13,5.53-16.72Z"/><rect class="cls-4" x="116.53" y="139.03" width="44.19" height="22.32" rx="3.77" ry="3.77" transform="translate(-65.6 142.01) rotate(-45)"/><path class="cls-7" d="M119.89,156.42l21.69-21.69c2.63-2.63,6.93-2.63,9.56,0l6.22,6.22c.89,.89,1.46,1.99,1.75,3.14,.55-2.23-.01-4.69-1.75-6.42l-6.22-6.22c-2.63-2.63-6.93-2.63-9.56,0l-21.69,21.69c-1.73,1.73-2.3,4.19-1.75,6.42,.29-1.15,.85-2.24,1.75-3.14Z"/><path class="cls-18" d="M157.23,136.2s-6.86,7.74-12.98,13.26c-6.11,5.53-14.13,21.76-14.13,21.76,0,0,15.56-17.88,23.58-23.66,8.03-5.77,6.73-6.73,6.73-6.73,0,0-2.91-5.5-3.21-4.63Z"/></g><path class="cls-14" d="M70.39,101.47s4.42,.06,5.45,.92c1.03,.87,27.24,27.08,27.24,27.08,0,0-23.37-25.84-23.38-26.9-.01-1.06-7-7.96-7-7.96,0,0-1.05,4.56-2.32,6.85Z"/><path class="cls-7" d="M104.68,130.72l-24.63-26.63-2.42-5.74s5.52,3.53,5.93,3.88c.41,.34,21.11,28.49,21.11,28.49Z"/></g><path class="cls-14" d="M135.26,133.8s-8.28-11.4-13.24-14.16c-4.97-2.76-13.21-8.46-14.75-9.2-1.53-.74-16.35-15.82-16.35-15.82,0,0,15.64,21.61,18.31,23.27,2.67,1.66,13.04,6.44,14.39,7.73,1.34,1.29,11.64,8.19,11.64,8.19Z"/><path class="cls-7" d="M136.64,135.57s-10.04-14.13-13.02-14.85c-2.98-.72-17.09-10.83-17.09-10.83l-16.7-16.47s20.05,15.54,19.96,15.91c-.09,.37,15.73,10.12,16.28,10.85,.55,.74,10.58,15.38,10.58,15.38Z"/></g><path class="cls-18" d="M79.79,119.43s19.22,11.73,26.95,15.43c7.73,3.7,16.92,7.93,19.68,7.93s11.68-7.63,11.68-7.63l-15.67,15.44-42.64-31.16Z"/><g><path class="cls-14" d="M146.36,136.74s-4.9,3.52-6.83,6.42-5.52,8.14-7.24,9.17c-1.72,1.03-13.8,9.79-13.8,9.79l3.66,4.14s-.76-4,1.1-4.83c1.86-.83,8.48-4.24,9.86-5.67,1.38-1.43,13.24-19.02,13.24-19.02Z"/><path class="cls-7" d="M146.98,135.01l-13.86,20.75s-10.85,5.15-10.83,5.95c.02,.8-.25,1.94-.25,1.94,0,0,4.87-2.08,7.01-2.77,2.14-.69,6.48-5.31,7.04-6.14,.55-.83,12.07-19.12,10.9-19.74Z"/></g></g></g><g><g><g><path class="cls-14" d="M259.22,103.36c-86.45,0-156.79,70.34-156.79,156.79s70.34,156.79,156.79,156.79,156.79-70.34,156.79-156.79-70.34-156.79-156.79-156.79Zm0,266.37c-60.42,0-109.57-49.16-109.57-109.57s49.15-109.57,109.57-109.57,109.57,49.15,109.57,109.57-49.16,109.57-109.57,109.57Z"/><path class="cls-11" d="M259.22,104.69c-85.72,0-155.46,69.74-155.46,155.46s69.74,155.46,155.46,155.46,155.46-69.74,155.46-155.46-69.74-155.46-155.46-155.46Zm0,266.37c-61.15,0-110.91-49.75-110.91-110.91s49.75-110.91,110.91-110.91,110.91,49.75,110.91,110.91-49.75,110.91-110.91,110.91Z"/><path class="cls-4" d="M259.22,109.36c-83.15,0-150.79,67.65-150.79,150.79s67.64,150.79,150.79,150.79,150.79-67.64,150.79-150.79-67.65-150.79-150.79-150.79Zm0,269.7c-65.56,0-118.9-53.34-118.9-118.9s53.34-118.9,118.9-118.9,118.9,53.34,118.9,118.9-53.34,118.9-118.9,118.9Z"/><path class="cls-5" d="M369.95,217.56c-.66,5.33-1.72,10.56-3.16,15.68,2.17,8.65,3.34,17.7,3.34,27.02,0,61.15-49.75,110.91-110.91,110.91-37.62,0-70.9-18.84-90.96-47.57-4.87-1.37-9.62-2.93-14.25-4.68,20.36,36.81,59.59,61.75,104.64,61.75,66,0,119.5-53.5,119.5-119.5,0-15.39-2.91-30.1-8.21-43.61Z"/><g><path class="cls-7" d="M259.22,109.24c-83.15,0-150.79,67.65-150.79,150.8,0,.89,.02,1.78,.03,2.67,1.43-81.92,68.5-148.13,150.76-148.13s149.33,66.21,150.76,148.13c.02-.89,.03-1.78,.03-2.67,0-83.15-67.65-150.8-150.79-150.8Z"/><path class="cls-7" d="M259.22,378.94c-64.67,0-117.44-51.9-118.87-116.23-.02,.89-.03,1.78-.03,2.67,0,65.56,53.34,118.9,118.9,118.9s118.9-53.34,118.9-118.9c0-.89-.01-1.78-.03-2.67-1.42,64.34-54.2,116.23-118.87,116.23Z"/></g><g class="cls-20"><path class="cls-10" d="M259.22,136.18c-65.56,0-118.9,53.34-118.9,118.9,0,.86,.02,1.72,.03,2.58,1.38-64.38,54.17-116.33,118.87-116.33s117.49,51.95,118.87,116.33c.02-.86,.03-1.71,.03-2.58,0-65.56-53.34-118.9-118.9-118.9Z"/><path class="cls-10" d="M259.22,405.88c-82.29,0-149.38-66.25-150.76-148.22-.02,.86-.03,1.72-.03,2.58,0,83.15,67.64,150.79,150.79,150.79s150.79-67.64,150.79-150.79c0-.86-.02-1.72-.03-2.58-1.38,81.96-68.47,148.22-150.76,148.22Z"/></g><g><path class="cls-14" d="M378.2,271.35s3.55,2.81,4.2,9.77c.66,6.96-6.03,44.98-22.46,65.03-16.43,20.05-39.17,30.46-49.39,32.84-10.22,2.38-42.12,15.89-44.3,16.22-2.18,.33,33.42-11.24,45.62-12.38,12.2-1.13,42.42-21.15,48.07-27.13,5.65-5.98,13.81-27.04,18.14-34.15,4.33-7.1,9.36-34.87,9.32-40.44-.04-5.56-9.32-14.65-9.32-14.65l.12,4.88Z"/><path class="cls-7" d="M261.66,396.37s33.76-10.77,42.92-12.31c9.16-1.53,6.7-.43,17.3-4.28,10.59-3.85,37.14-22.32,39.26-25.52,2.13-3.2,10.86-23.25,15.07-29.3,4.21-6.05,6.67-17.64,6.67-17.64,0,0-14.99,39.62-18.12,44.96-3.13,5.35-28.35,21-33.79,25.37-5.44,4.37-14.83,9.12-22.91,9.88-8.08,.75-46.42,8.83-46.42,8.83Z"/><g><path class="cls-16" d="M209.73,138.5s-39.47,9.34-53.39,25.12c-13.92,15.78-17.48,28.64-22.16,43.7-4.68,15.06,17.11-32.29,29.07-36.2,11.96-3.91,10.08-10.41,18.66-16.41,8.59-5.99,27.81-16.2,27.81-16.2Z"/><path class="cls-14" d="M183.53,150.34s-17.1,8.15-25.74,15.29c-8.64,7.14-15.08,25.37-15.63,27.18-.55,1.82,7.15-14.6,12.88-18.6,5.73-4,11.97-4.65,14.98-7.93,3.02-3.27,9.57-14.49,13.51-15.94Z"/><path class="cls-7" d="M213.77,135.87s-30.46,16.13-36,22.54c-5.54,6.42-6.96,9.64-10.74,11.17-3.78,1.53-6.16,2.17-13.79,11.36-7.64,9.19-20.56,31.53-20.56,31.53,0,0,20.7-32.56,25.57-34.41,4.88-1.84,13.69-5.62,16.17-9.79,2.48-4.16,8.86-11.4,12.76-13.98,3.9-2.58,26.59-18.43,26.59-18.43Z"/></g><path class="cls-14" d="M300.11,114.87s16.26,6.18,21.54,9.7c5.27,3.52,10.39,11.83,10.49,11.96,.11,.13,0,14.85,0,14.85,0,0,.66-10.77,2.09-13.62,1.43-2.86,4.62-4.78,3.85-5.52-.77-.74-6.92-7.87-6.92-7.87,0,0-19.59-6.78-31.05-9.49Z"/><path class="cls-7" d="M332.04,153.91c0-.33-.48-12.67,2.19-16.15,2.68-3.48,3.85-5.52,3.85-5.52,0,0,19.77,12.96,29.22,23.01,9.45,10.04-19.44-15.17-23.18-17.05-3.74-1.87-5.82-2.86-7.36-.44-1.53,2.42-4.72,16.15-4.72,16.15Z"/><path class="cls-14" d="M120.2,250.22s.66,49.93,12.2,65.75c11.54,15.82,22.08,23.82,28.67,37.29,6.6,13.47,29.55,26.69,40.6,31.83,11.05,5.15,43.87,11.96,43.87,11.96,0,0-56.77-18.99-65.78-27.29-9.01-8.31-14.72-22.81-19.56-28.74-4.84-5.93-14.28-12.88-17.14-15.56-2.86-2.68-12.47-20.26-14.69-30.15-2.23-9.89-8.16-45.1-8.16-45.1Z"/><path class="cls-7" d="M122.34,287.46s3.7,21.6,14.14,33.87c10.44,12.26,20.47,24.08,24.59,31.94,4.12,7.86,12.44,17.26,28.23,25.25,15.79,7.99,22.15,10.11,22.15,10.11,0,0-34.72-14.15-39.5-18.1-4.78-3.96-16.32-17.84-17.64-21.12-1.32-3.28-3.79-9.9-11.21-16.06-7.42-6.17-21.62-26.07-20.76-45.89Z"/><g><path class="cls-7" d="M145.26,224.95l1.07-2.33-10.51-2.74-3.89,2.81,.75,6.29s.11-7.11,1.82-7.28c1.71-.16,1.91,1.81,6,1.98,4.09,.16,1.98,3.61,1.98,3.61l-.89,12.82,3.66-15.16Z"/><path class="cls-7" d="M131.59,226.7s-1.23-4.55-1.23-5.04,2.32-2.76,2.32-2.76l-16.32-4.11s-2.91,10.28-3.16,11.33c-.25,1.05,5.24-8.08,5.24-8.08l9.23,3.08,2.73,9.05,1.2-3.47Z"/><path class="cls-14" d="M130.36,221.66l2.14-2.66c-7.14-1.91-17.07-4.42-17.07-4.42l-4.1-4.53,43.69,13.17-3.28,11.12s-2.89-11.15-3.91-11.32c-.45-.07-6.05-1.55-12.25-3.2l-3.65,2.87,.74,6.15s-2.73,16.7-2.68,16.26c.06-.44,1.59-18.4,1.59-18.4l-1.23-5.04Z"/></g><path class="cls-14" d="M393.99,233.58s-1.98,20.91-.66,25.45c1.32,4.54,8.41,17.89,5.77,27.94-2.64,10.05-11.7,37.5-11.7,37.5,0,0,13.52-35.19,14.34-41.29,.82-6.1-3.95-21.31-5.27-26.31-1.32-5-2.47-23.3-2.47-23.3Z"/><path class="cls-15" d="M399.26,231s-4.78,11.39-.99,23.87c3.79,12.48,6.43,24.61,7.42,21.1,.99-3.51,2.97-25.76,1.32-31.53-1.65-5.77-6.79-16.35-7.75-13.45Z"/><path class="cls-14" d="M398.29,238.38s-2.89,6.88-.6,14.43c2.29,7.54,3.88,14.87,4.48,12.75,.6-2.12,1.79-15.57,.8-19.05-.99-3.48-4.1-9.88-4.68-8.12Z"/><g><path class="cls-15" d="M170.17,355.86s2.83,8.58,10.92,13.65c8.08,5.07,15.36,10.5,14.22,8.09-1.14-2.41-10.74-15.65-14.41-18.04-3.68-2.39-11.6-5.77-10.73-3.7Z"/><path class="cls-15" d="M173.18,360.4s1.71,5.19,6.6,8.25c4.89,3.07,9.29,6.35,8.6,4.89-.69-1.45-6.49-9.45-8.71-10.9-2.22-1.45-7.01-3.49-6.49-2.24Z"/></g><path class="cls-14" d="M173.6,145.67s33.62-24.39,62.84-26.59c29.23-2.2,34.45-.66,46.13,4.83,11.67,5.49,44.19,12.62,44.19,12.62,0,0-39.27-8-51.28-11.08-12.01-3.08-42.33-5.05-46.29-3.3-3.95,1.76-55.59,23.51-55.59,23.51Z"/><path class="cls-7" d="M167.66,148.31s55.74-25.71,65.01-26.7c9.27-.99,32.28,1.47,44.49,4.27,12.21,2.79,52.89,11.89,52.89,11.89,0,0-56.23-10.55-68.99-10.99-12.76-.44-27.7-3.96-31.88-2.2-4.18,1.76-61.53,23.73-61.53,23.73Z"/><path class="cls-14" d="M355.66,162.81c-5.6-5.82-16.04-13.73-16.04-13.73,0,0,.22,5.71,5.82,11.43,5.6,5.71,10.77,6.81,14.17,12.75,3.41,5.93,5.05,11.98,11.32,21.31,6.26,9.34,9.34,18.13,9.45,19.01,.11,.88-3.29-16.81-6.05-21.21-2.75-4.39-18.68-29.56-18.68-29.56Z"/><path class="cls-7" d="M337.2,146.33s5.05,11.71,9.12,15.04c4.07,3.33,10.68,6.11,15.25,15.63,4.57,9.52,19.36,37.57,19.36,37.57,0,0-14.95-23.07-17.03-28.13-2.09-5.06-2.42-11.54-9.56-16.04-7.14-4.5-17.58-18.79-17.14-24.06Z"/><path class="cls-14" d="M350.6,158.85c-4.28-2.86-8.02-6.04-8.02-6.04,0,0,1.21,5.05,6.81,9.01,5.6,3.95,10.6,10.32,10.6,10.32,0,0-5.12-10.43-9.4-13.29Z"/><g><path class="cls-16" d="M136.55,227.77c-.18,.29-5.39,14.23-4.82,27.97,.56,13.74,3.72,17.42,4.72,27.99,1.01,10.58,1.45,13.93,1.45,13.93,0,0,1.24-20.74,.24-24.39-1-3.66-.86-7.22,2.3-22.41,3.17-15.19-3.9-23.1-3.9-23.1Z"/><path class="cls-17" d="M135.65,240.91c.43,.56-2.92,5.72-2.08,15.36,.84,9.64,2.39,15.11,2.39,15.11,0,0-.23-11.5,2.22-18.39,2.45-6.88-1.39-16.99-1.39-16.99l-1.13,4.91Z"/></g></g><path class="cls-14" d="M378.67,266.47s-2.11-.22-4.66,2.45c-2.55,2.67-5.67,15.66-5.89,20.99-.22,5.33,0,13.44,0,13.44,0,0,1.22-11.21,3.66-20.43,2.44-9.22,4.89-10.55,6.42-11.56,1.53-1.01,1.8,.23,1.8,.23l2.11,1-3.44-6.11Z"/></g><path class="cls-14" d="M388.64,174.11s.06,5.33,4.75,13.33c4.69,8,13.82,24.54,14.08,24.28,.83-.85-6.96-23.62-18.83-37.61Z"/></g><g><g><g><path class="cls-19" d="M217.4,133.47l-7.98,1.38-16.36,11.44,20.67,3.22s-.27,3.77,.32,4.08c.59,.31,6.91,2.78,6.91,2.78l1.93-.55,3.57-1.01-2.28-9.86-4.52-4.74,6.43,1.71,6.83-13.8-13.19,7.9-2.32-2.56Z"/><path class="cls-19" d="M211.55,115.72c-3.04,3.18-4.28,12.43-4.21,12.97,.07,.54,9.67,1.03,9.67,1.03,0,0,2.52-3.52,3.4-4.57,.88-1.05,18.99-8.09,19.78-8.56,.79-.47-16.92,2.06-16.92,2.06,0,0-3.73-6.96-4.08-7.51-.36-.54-2.15-.03-2.15-.03,0,0-2.45,1.41-5.49,4.6Z"/></g><path class="cls-14" d="M220.38,156.12s-3.03-12.21-3.59-12.7c-.56-.48-18.88,1.97-18.88,1.97l19.1-7.4s.32-3.3-.21-3.71c-.53-.41-7.61,.95-7.38,.56,.23-.38,7.55-5.58,7.47-7.96-.09-2.38-.41-16.56-1.41-15.96-1,.61,10.14-3.83,10.88-3.88,.74-.05-6.44,3.75-7.31,6.8-.88,3.05,.44,19.84,1.53,18.97,1.09-.87,12.69-4.95,12.34-4.69-.35,.26-12.46,11.94-12.88,12.54-.42,.6,2.86,15.15,2.86,15.15l-2.4,.68-.1-.37Z"/><g><path class="cls-7" d="M214,153.11c-.04-.47-.27-3.61-.27-3.61l-20.42-3.18s17.17,3.93,17.95,4.04c.78,.11,.4,2.31,.32,2.92-.08,.61,.74,1.18,2.05,1.64,1.31,.46,5.75,.82,5.75,.82,0,0-5.34-2.16-5.38-2.64Z"/><path class="cls-7" d="M191.3,131.9s8.59-10.49,11.7-11.03c3.11-.54,4.98-.15,4.44,1.77-.55,1.91-4.97,4.82-7.6,5.38-2.63,.56-4.54,1.28-4.54,1.28,0,0,8.75-1.18,9.63-.42,.88,.75,3.05,1.9,4.21,2.16,1.16,.26,.27,3.82,.27,3.82,0,0,6.3-5.19,5.48-5.24-.81-.05-7.77-.94-7.9-1.24-.12-.3,3.64-11.77,3.91-11.85-.23,.07-5.92,2.25-9.61,3.91-3.76,1.7-10,11.47-10,11.47Z"/><path class="cls-7" d="M225.43,141.75c-.65-.17-5.44-.73-5.44-.73l3.75,4.04,2.51,8.88s.27-3.54,1.36-4.1c1.1-.56,17.53-3.19,17.53-3.19,0,0-3.42,.43-10.52,.71-7.1,.28-8.53,.65-8.94-1.16-.41-1.81-.36-1.49,2.92-2.34,3.28-.84,21.93-6.87,16.59-6.79-5.34,.08-17,4.48-16.92,3.95,.08-.52,4.32-12.29,4.62-12.9,.3-.62-6.83,13.8-7.48,13.62Z"/><path class="cls-7" d="M220.18,132.45c.51,1.19,1.94-.4,4.02-1.24,2.08-.84,10.78-4.35,10.13-4.12-13.57,4.75-12.95-.56-12.95-.56l18.81-9.92s-19.78,8.56-20.46,8.87c-.68,.31-.06,5.78,.44,6.97Z"/><path class="cls-7" d="M235.28,117.04s-7.13-.26-8.57-.37c-1.43-.1-2.48-.13-3-1.66-.52-1.53,6.83-2.51,8.29-3.27,1.46-.76-11.11,2.51-11.11,2.51l2.38,4.42,12.01-1.62Z"/></g></g><g><path class="cls-14" d="M206.54,125.23l-8.94,1.17s-8.7,13.63-7.28,12.12c4.16-4.44,6.74-7.09,6.74-7.09l1.88-2.55,3.11,1.94,3.54-.63s-2.33-1.74-2.31-2.02c.02-.27,3.25-2.95,3.25-2.95Z"/><path class="cls-14" d="M204.4,130.23c-1.1,2.31-3.86,3.28-6.17,2.18-2.3-1.1-3.28-3.87-2.18-6.17,1.1-2.31,3.87-3.28,6.17-2.18,2.31,1.1,3.28,3.87,2.18,6.17Z"/><g><g><path class="cls-12" d="M199.18,125.26c1.65-.58,3.45,.28,4.03,1.93,.58,1.64-.28,3.45-1.93,4.03-1.64,.58-3.45-.28-4.03-1.93-.58-1.64,.28-3.45,1.93-4.03Z"/><polygon class="cls-9" points="197.07 128.09 203.09 129.57 203.34 128.77 197.18 127.41 197.07 128.09"/></g><path class="cls-2" d="M197.71,128.61l4.67,1.21s-.39,1.21-2.12,1.21c-1.73,0-3.5-2.42-2.55-2.42Z"/><path class="cls-2" d="M197.99,127.12l3.65,.84s-.82-2.73-2.12-2.35c-1.3,.38-2.33,1.42-1.53,1.51Z"/><path class="cls-1" d="M198.07,129s1.81,.42,2.05,.98c.24,.57-.51,.97-1.38,.19-.87-.79-1.28-1.34-.67-1.17Z"/></g></g><g><path class="cls-14" d="M208.62,150.83l-8.94,1.18s-11.62,6.27-9.59,5.92c14.34-2.45,9.04-.9,9.04-.9l1.88-2.55,3.11,1.93,3.55-.62s-2.33-1.75-2.31-2.02c.02-.27,3.26-2.95,3.26-2.95Z"/><path class="cls-14" d="M206.49,155.83c-1.1,2.31-3.86,3.28-6.17,2.18-2.31-1.1-3.28-3.87-2.18-6.17,1.1-2.31,3.87-3.28,6.17-2.18,2.31,1.1,3.28,3.87,2.18,6.17Z"/><g><g><path class="cls-12" d="M199.46,152.47c.75-1.57,2.64-2.24,4.21-1.48,1.57,.75,2.24,2.64,1.49,4.21-.75,1.57-2.64,2.24-4.21,1.49-1.57-.75-2.24-2.64-1.49-4.21Z"/><polygon class="cls-9" points="199.98 155.96 205.28 152.76 204.89 152.01 199.57 155.4 199.98 155.96"/></g><path class="cls-2" d="M200.79,155.88l4.16-2.44s.58,1.13-.65,2.35c-1.23,1.22-4.19,.76-3.51,.09Z"/><path class="cls-2" d="M199.94,154.63l3.18-1.99s-2.51-1.35-3.16-.16c-.65,1.19-.64,2.65-.02,2.15Z"/><path class="cls-1" d="M201.33,155.9s1.58-.99,2.15-.76c.57,.23,.33,1.05-.85,1.11-1.17,.06-1.85-.04-1.3-.35Z"/></g></g><g><path class="cls-14" d="M241.88,115.24l-8.94,1.18s-11.63,6.27-9.59,5.92c14.34-2.45,9.04-.9,9.04-.9l1.88-2.55,3.11,1.93,3.55-.62s-2.33-1.74-2.31-2.02c.02-.27,3.26-2.95,3.26-2.95Z"/><path class="cls-14" d="M239.74,120.24c-1.1,2.31-3.86,3.28-6.17,2.18-2.3-1.1-3.28-3.87-2.18-6.17,1.1-2.31,3.87-3.28,6.17-2.18,2.31,1.1,3.28,3.86,2.18,6.17Z"/><g><g><path class="cls-12" d="M232.72,116.88c.75-1.57,2.64-2.24,4.21-1.49,1.57,.75,2.24,2.64,1.49,4.21-.75,1.57-2.64,2.24-4.21,1.49-1.57-.75-2.24-2.64-1.49-4.21Z"/><polygon class="cls-9" points="233.23 120.38 238.53 117.18 238.14 116.43 232.82 119.81 233.23 120.38"/></g><path class="cls-2" d="M234.05,120.29l4.16-2.44s.58,1.13-.65,2.35c-1.23,1.22-4.19,.77-3.51,.09Z"/><path class="cls-2" d="M233.19,119.04l3.18-1.99s-2.51-1.35-3.16-.16c-.65,1.19-.64,2.65-.02,2.15Z"/><path class="cls-1" d="M234.58,120.32s1.58-.99,2.15-.76c.57,.23,.33,1.05-.85,1.11-1.17,.06-1.85-.04-1.3-.35Z"/></g></g><g><path class="cls-14" d="M241.8,141.45l-8.94,1.17s-5.65,3.8-4.16,3.75c.7-.02,3.61,1.28,3.61,1.28l1.88-2.55,3.1,1.93,3.55-.62s-2.33-1.75-2.31-2.01c.01-.27,3.25-2.95,3.25-2.95Z"/><path class="cls-14" d="M239.67,146.45c-1.1,2.31-3.86,3.28-6.17,2.18-2.31-1.1-3.28-3.87-2.18-6.17,1.1-2.31,3.87-3.28,6.17-2.18,2.31,1.1,3.28,3.87,2.18,6.17Z"/><g><g><path class="cls-12" d="M232.64,143.09c.75-1.57,2.64-2.24,4.21-1.48,1.57,.75,2.24,2.64,1.49,4.21-.75,1.57-2.64,2.24-4.21,1.49-1.57-.75-2.24-2.64-1.49-4.21Z"/><polygon class="cls-9" points="233.16 146.58 238.46 143.38 238.07 142.63 232.75 146.02 233.16 146.58"/></g><path class="cls-2" d="M233.98,146.5l4.16-2.44s.58,1.13-.65,2.35c-1.23,1.22-4.19,.77-3.51,.09Z"/><path class="cls-2" d="M233.12,145.25l3.17-1.99s-2.51-1.35-3.16-.16c-.65,1.19-.64,2.65-.02,2.15Z"/><path class="cls-1" d="M234.51,146.52s1.58-.99,2.15-.76c.57,.23,.33,1.05-.85,1.11-1.17,.06-1.85-.04-1.3-.35Z"/></g></g></g><g><g><g><path class="cls-19" d="M300.76,385.7l-8.1,1.4-16.59,11.6,20.96,3.26s-.28,3.82,.32,4.14c.6,.32,7.01,2.82,7.01,2.82l1.96-.55,3.62-1.02-2.32-10-4.59-4.8,6.52,1.74,6.93-13.99-13.38,8.01-2.35-2.6Z"/><path class="cls-19" d="M294.82,367.71c-3.08,3.23-4.34,12.61-4.27,13.16,.07,.55,9.81,1.05,9.81,1.05,0,0,2.56-3.57,3.45-4.64,.89-1.06,19.26-8.21,20.06-8.68,.8-.47-17.16,2.09-17.16,2.09,0,0-3.78-7.06-4.14-7.61-.36-.55-2.18-.03-2.18-.03,0,0-2.48,1.43-5.56,4.66Z"/></g><path class="cls-14" d="M303.77,408.69s-3.08-12.39-3.64-12.88c-.56-.49-19.15,2-19.15,2l19.37-7.51s.33-3.35-.21-3.76c-.54-.42-7.71,.96-7.49,.57,.23-.39,7.66-5.66,7.57-8.08-.09-2.41-.42-16.8-1.43-16.19-1.02,.61,10.29-3.88,11.04-3.93,.75-.05-6.53,3.8-7.42,6.89-.89,3.1,.44,20.13,1.55,19.24,1.11-.88,12.87-5.02,12.51-4.76-.36,.26-12.64,12.11-13.07,12.72-.42,.61,2.9,15.36,2.9,15.36l-2.44,.69-.11-.38Z"/><g><path class="cls-7" d="M297.31,405.63c-.04-.48-.28-3.66-.28-3.66l-20.71-3.22s17.41,3.99,18.21,4.1c.79,.11,.41,2.35,.33,2.97-.08,.62,.75,1.2,2.08,1.66,1.33,.46,5.83,.83,5.83,.83,0,0-5.42-2.2-5.46-2.68Z"/><path class="cls-7" d="M274.28,384.11s8.71-10.64,11.87-11.19c3.16-.55,5.05-.15,4.5,1.79-.55,1.94-5.04,4.89-7.71,5.45-2.67,.57-4.6,1.3-4.6,1.3,0,0,8.88-1.19,9.77-.43,.9,.77,3.09,1.93,4.27,2.19,1.18,.26,.28,3.87,.28,3.87,0,0,6.39-5.26,5.56-5.31-.83-.05-7.89-.95-8.01-1.26-.12-.31,3.69-11.93,3.96-12.02-.23,.07-6,2.28-9.74,3.97-3.81,1.72-10.15,11.63-10.15,11.63Z"/><path class="cls-7" d="M308.9,394.11c-.66-.17-5.51-.74-5.51-.74l3.81,4.1,2.55,9.01s.27-3.59,1.38-4.16c1.11-.57,17.78-3.24,17.78-3.24,0,0-3.47,.43-10.67,.72-7.2,.29-8.65,.66-9.07-1.18-.42-1.84-.36-1.51,2.97-2.37,3.33-.86,22.24-6.97,16.83-6.89-5.42,.08-17.24,4.54-17.16,4.01,.08-.53,4.38-12.47,4.69-13.09,.31-.63-6.93,13.99-7.59,13.82Z"/><path class="cls-7" d="M303.57,384.67c.51,1.21,1.97-.4,4.08-1.26,2.11-.85,10.93-4.41,10.27-4.18-13.76,4.82-13.14-.57-13.14-.57l19.08-10.06s-20.06,8.68-20.75,8.99c-.69,.32-.06,5.86,.45,7.07Z"/><path class="cls-7" d="M318.9,369.05s-7.24-.27-8.69-.38c-1.45-.11-2.52-.13-3.04-1.69-.53-1.56,6.93-2.55,8.41-3.32,1.48-.77-11.27,2.54-11.27,2.54l2.41,4.48,12.19-1.65Z"/></g></g><g><path class="cls-14" d="M289.74,377.35l-9.06,1.19s-8.82,13.82-7.39,12.29c4.22-4.5,6.84-7.19,6.84-7.19l1.91-2.58,3.15,1.96,3.59-.63s-2.36-1.77-2.34-2.04c.02-.27,3.3-2.99,3.3-2.99Z"/><path class="cls-14" d="M287.57,382.43c-1.12,2.34-3.92,3.33-6.26,2.21-2.34-1.12-3.33-3.92-2.21-6.26,1.12-2.34,3.92-3.33,6.26-2.21,2.34,1.12,3.33,3.92,2.21,6.26Z"/><g><g><path class="cls-12" d="M282.27,377.38c1.67-.59,3.5,.29,4.09,1.96,.59,1.67-.29,3.5-1.96,4.09-1.66,.59-3.5-.29-4.09-1.96-.59-1.67,.29-3.5,1.95-4.09Z"/><polygon class="cls-9" points="280.14 380.25 286.23 381.76 286.49 380.94 280.25 379.56 280.14 380.25"/></g><path class="cls-2" d="M280.78,380.78l4.74,1.23s-.39,1.23-2.15,1.22c-1.76,0-3.55-2.45-2.58-2.46Z"/><path class="cls-2" d="M281.06,379.27l3.7,.85s-.83-2.77-2.15-2.38c-1.32,.39-2.36,1.44-1.55,1.53Z"/><path class="cls-1" d="M281.15,381.18s1.84,.42,2.08,1c.25,.58-.52,.99-1.4,.19-.89-.8-1.29-1.36-.68-1.19Z"/></g></g><g><path class="cls-14" d="M291.85,403.32l-9.07,1.19s-11.79,6.36-9.72,6.01c14.54-2.48,9.17-.91,9.17-.91l1.91-2.58,3.15,1.96,3.6-.63s-2.36-1.77-2.34-2.04c.02-.27,3.3-2.99,3.3-2.99Z"/><path class="cls-14" d="M289.69,408.39c-1.12,2.34-3.92,3.33-6.26,2.21-2.34-1.12-3.33-3.93-2.21-6.26,1.12-2.34,3.92-3.33,6.26-2.21,2.34,1.12,3.33,3.92,2.21,6.26Z"/><g><g><path class="cls-12" d="M282.56,404.98c.77-1.6,2.68-2.27,4.27-1.51,1.6,.76,2.27,2.67,1.51,4.27-.76,1.59-2.68,2.27-4.27,1.51-1.59-.76-2.27-2.68-1.51-4.27Z"/><polygon class="cls-9" points="283.08 408.52 288.46 405.27 288.06 404.52 282.67 407.95 283.08 408.52"/></g><path class="cls-2" d="M283.91,408.44l4.22-2.48s.59,1.15-.66,2.39c-1.25,1.24-4.25,.77-3.56,.09Z"/><path class="cls-2" d="M283.04,407.17l3.22-2.02s-2.55-1.37-3.2-.16c-.66,1.21-.65,2.69-.02,2.18Z"/><path class="cls-1" d="M284.45,408.46s1.6-1,2.18-.77c.58,.23,.33,1.06-.86,1.13-1.19,.06-1.88-.05-1.32-.36Z"/></g></g><g><path class="cls-14" d="M325.58,367.22l-9.06,1.19s-11.79,6.36-9.72,6.01c14.54-2.48,9.17-.91,9.17-.91l1.91-2.58,3.15,1.96,3.6-.63s-2.36-1.77-2.34-2.04c.02-.27,3.3-2.99,3.3-2.99Z"/><path class="cls-14" d="M323.42,372.29c-1.12,2.34-3.92,3.33-6.26,2.21-2.34-1.12-3.33-3.92-2.21-6.26,1.12-2.34,3.92-3.33,6.26-2.21,2.34,1.12,3.33,3.92,2.21,6.26Z"/><g><g><path class="cls-12" d="M316.29,368.89c.76-1.6,2.68-2.27,4.27-1.51,1.6,.77,2.27,2.68,1.51,4.27-.76,1.6-2.68,2.27-4.27,1.51-1.59-.76-2.27-2.68-1.51-4.27Z"/><polygon class="cls-9" points="316.81 372.43 322.19 369.18 321.79 368.42 316.4 371.86 316.81 372.43"/></g><path class="cls-2" d="M317.64,372.34l4.22-2.48s.59,1.15-.66,2.39c-1.25,1.24-4.25,.78-3.56,.09Z"/><path class="cls-2" d="M316.77,371.08l3.22-2.02s-2.55-1.37-3.2-.16c-.66,1.2-.65,2.69-.02,2.18Z"/><path class="cls-1" d="M318.18,372.37s1.6-1,2.18-.77c.58,.23,.33,1.06-.86,1.13-1.19,.06-1.88-.04-1.32-.36Z"/></g></g><g><path class="cls-14" d="M325.51,393.8l-9.07,1.19s-5.73,3.85-4.22,3.8c.71-.02,3.67,1.3,3.67,1.3l1.91-2.58,3.15,1.96,3.6-.63s-2.36-1.77-2.34-2.04c.01-.27,3.3-2.99,3.3-2.99Z"/><path class="cls-14" d="M323.34,398.87c-1.12,2.34-3.92,3.33-6.26,2.21-2.34-1.12-3.33-3.92-2.21-6.26,1.12-2.34,3.92-3.33,6.26-2.21,2.34,1.12,3.33,3.92,2.21,6.26Z"/><g><g><path class="cls-12" d="M316.22,395.47c.77-1.6,2.68-2.27,4.27-1.51,1.6,.76,2.27,2.67,1.51,4.27-.76,1.6-2.68,2.27-4.27,1.51-1.6-.76-2.27-2.68-1.51-4.27Z"/><polygon class="cls-9" points="316.74 399.01 322.12 395.76 321.72 395 316.33 398.44 316.74 399.01"/></g><path class="cls-2" d="M317.57,398.93l4.22-2.48s.59,1.15-.66,2.39c-1.25,1.24-4.25,.78-3.56,.09Z"/><path class="cls-2" d="M316.7,397.66l3.22-2.02s-2.55-1.36-3.2-.16c-.66,1.21-.65,2.69-.02,2.18Z"/><path class="cls-1" d="M318.11,398.95s1.6-1,2.18-.77c.58,.23,.33,1.06-.86,1.13-1.19,.06-1.88-.04-1.32-.36Z"/></g></g></g><g><g><g><path class="cls-19" d="M134.88,308.87l1.4,8.1,11.6,16.59,3.26-20.96s3.82,.28,4.14-.32c.32-.6,2.82-7.01,2.82-7.01l-.55-1.96-1.02-3.62-10,2.32-4.8,4.59,1.74-6.52-13.99-6.93,8.01,13.38-2.6,2.35Z"/><path class="cls-19" d="M116.89,314.81c3.23,3.08,12.61,4.34,13.16,4.27,.55-.07,1.05-9.81,1.05-9.81,0,0-3.57-2.56-4.64-3.45-1.06-.89-8.21-19.26-8.68-20.06-.47-.8,2.09,17.17,2.09,17.17,0,0-7.06,3.78-7.61,4.14-.55,.36-.03,2.18-.03,2.18,0,0,1.43,2.48,4.66,5.56Z"/></g><path class="cls-14" d="M157.87,305.86s-12.39,3.08-12.88,3.64c-.49,.56,2,19.15,2,19.15l-7.51-19.37s-3.35-.33-3.76,.21c-.41,.54,.96,7.72,.57,7.49-.39-.23-5.66-7.66-8.08-7.57-2.41,.09-16.8,.42-16.19,1.43,.61,1.02-3.88-10.29-3.93-11.04-.05-.75,3.8,6.53,6.89,7.42,3.1,.89,20.13-.44,19.24-1.55-.88-1.11-5.02-12.87-4.75-12.51,.26,.36,12.11,12.64,12.72,13.06,.61,.42,15.36-2.9,15.36-2.9l.69,2.44-.38,.11Z"/><g><path class="cls-7" d="M154.81,312.32c-.48,.04-3.66,.28-3.66,.28l-3.22,20.71s3.99-17.41,4.1-18.21c.11-.79,2.35-.41,2.96-.33,.62,.08,1.2-.75,1.66-2.08,.46-1.33,.83-5.83,.83-5.83,0,0-2.2,5.42-2.68,5.46Z"/><path class="cls-7" d="M133.29,335.35s-10.64-8.71-11.19-11.87c-.55-3.16-.15-5.05,1.79-4.5,1.94,.55,4.89,5.04,5.45,7.71,.57,2.67,1.3,4.6,1.3,4.6,0,0-1.19-8.88-.43-9.77,.77-.9,1.93-3.09,2.19-4.27,.26-1.18,3.87-.28,3.87-.28,0,0-5.26-6.39-5.31-5.56-.05,.83-.95,7.89-1.26,8.01-.31,.12-11.93-3.69-12.02-3.96,.07,.23,2.28,6,3.97,9.74,1.72,3.81,11.63,10.15,11.63,10.15Z"/><path class="cls-7" d="M143.29,300.73c-.17,.66-.74,5.51-.74,5.51l4.1-3.81,9.01-2.55s-3.59-.27-4.16-1.38c-.57-1.11-3.24-17.78-3.24-17.78,0,0,.43,3.47,.72,10.67,.29,7.2,.66,8.65-1.18,9.07-1.84,.42-1.51,.36-2.37-2.97-.86-3.33-6.97-22.24-6.89-16.83,.08,5.42,4.54,17.24,4.01,17.16-.53-.08-12.47-4.38-13.09-4.69-.63-.31,13.99,6.93,13.82,7.59Z"/><path class="cls-7" d="M133.85,306.05c1.21-.51-.4-1.97-1.26-4.08-.85-2.11-4.41-10.93-4.18-10.27,4.82,13.76-.57,13.14-.57,13.14l-10.06-19.08s8.68,20.06,8.99,20.75c.32,.69,5.86,.06,7.07-.45Z"/><path class="cls-7" d="M118.22,290.73s-.27,7.24-.38,8.69c-.11,1.46-.13,2.52-1.69,3.04-1.56,.53-2.55-6.93-3.32-8.41-.77-1.48,2.54,11.27,2.54,11.27l4.48-2.41-1.65-12.19Z"/></g></g><g><path class="cls-14" d="M126.53,319.89l1.19,9.06s13.82,8.82,12.29,7.39c-4.5-4.22-7.19-6.84-7.19-6.84l-2.58-1.91,1.96-3.15-.63-3.59s-1.77,2.36-2.04,2.34c-.27-.02-2.99-3.3-2.99-3.3Z"/><path class="cls-14" d="M131.6,322.05c2.34,1.12,3.33,3.92,2.21,6.26-1.12,2.34-3.92,3.33-6.26,2.21-2.34-1.12-3.33-3.92-2.21-6.26,1.12-2.34,3.92-3.33,6.26-2.21Z"/><g><g><path class="cls-12" d="M126.56,327.36c-.59-1.67,.29-3.5,1.96-4.09,1.67-.59,3.5,.29,4.09,1.96,.59,1.67-.29,3.5-1.96,4.09-1.67,.59-3.5-.29-4.09-1.95Z"/><polygon class="cls-9" points="129.43 329.49 130.94 323.39 130.12 323.14 128.74 329.38 129.43 329.49"/></g><path class="cls-2" d="M129.96,328.85l1.23-4.74s1.23,.39,1.22,2.15c0,1.76-2.45,3.55-2.46,2.58Z"/><path class="cls-2" d="M128.45,328.56l.85-3.7s-2.77,.83-2.38,2.15c.39,1.32,1.44,2.36,1.53,1.55Z"/><path class="cls-1" d="M130.36,328.48s.42-1.84,1-2.08c.58-.25,.99,.52,.19,1.4-.8,.89-1.36,1.29-1.19,.68Z"/></g></g><g><path class="cls-14" d="M152.5,317.78l1.19,9.07s6.36,11.79,6.01,9.72c-2.48-14.54-.91-9.17-.91-9.17l-2.58-1.91,1.96-3.15-.63-3.6s-1.77,2.36-2.04,2.34c-.27-.02-2.99-3.3-2.99-3.3Z"/><path class="cls-14" d="M157.57,319.94c2.34,1.12,3.33,3.92,2.21,6.26-1.12,2.34-3.93,3.33-6.26,2.21-2.34-1.12-3.33-3.92-2.21-6.26,1.12-2.34,3.92-3.33,6.26-2.21Z"/><g><g><path class="cls-12" d="M154.16,327.07c-1.6-.77-2.27-2.68-1.51-4.27,.76-1.6,2.67-2.27,4.27-1.51,1.6,.76,2.27,2.67,1.51,4.27-.76,1.59-2.68,2.27-4.27,1.51Z"/><polygon class="cls-9" points="157.7 326.54 154.45 321.17 153.7 321.56 157.13 326.96 157.7 326.54"/></g><path class="cls-2" d="M157.62,325.72l-2.48-4.22s1.15-.59,2.39,.66c1.24,1.25,.77,4.25,.09,3.56Z"/><path class="cls-2" d="M156.35,326.58l-2.02-3.22s-1.37,2.55-.16,3.2c1.21,.66,2.69,.65,2.18,.02Z"/><path class="cls-1" d="M157.64,325.18s-1-1.6-.77-2.18c.23-.58,1.06-.33,1.13,.86,.06,1.19-.05,1.88-.36,1.32Z"/></g></g><g><path class="cls-14" d="M116.4,284.05l1.19,9.06s6.36,11.79,6.01,9.72c-2.48-14.54-.91-9.17-.91-9.17l-2.58-1.91,1.96-3.15-.63-3.6s-1.77,2.36-2.04,2.34c-.27-.02-2.99-3.3-2.99-3.3Z"/><path class="cls-14" d="M121.47,286.21c2.34,1.12,3.33,3.92,2.21,6.26-1.12,2.34-3.92,3.33-6.26,2.21-2.34-1.12-3.33-3.92-2.21-6.26,1.12-2.34,3.92-3.33,6.26-2.21Z"/><g><g><path class="cls-12" d="M118.07,293.34c-1.6-.76-2.27-2.68-1.51-4.27,.77-1.6,2.68-2.27,4.27-1.51,1.6,.76,2.27,2.68,1.51,4.27-.76,1.59-2.68,2.27-4.27,1.51Z"/><polygon class="cls-9" points="121.61 292.82 118.36 287.44 117.6 287.83 121.04 293.23 121.61 292.82"/></g><path class="cls-2" d="M121.52,291.99l-2.48-4.22s1.15-.59,2.39,.66c1.24,1.25,.78,4.25,.09,3.56Z"/><path class="cls-2" d="M120.26,292.85l-2.02-3.22s-1.37,2.55-.16,3.2c1.2,.66,2.69,.65,2.18,.02Z"/><path class="cls-1" d="M121.55,291.45s-1-1.6-.77-2.18c.23-.58,1.06-.33,1.13,.86,.06,1.19-.04,1.88-.36,1.32Z"/></g></g><g><path class="cls-14" d="M142.98,284.12l1.19,9.07s3.85,5.73,3.8,4.22c-.02-.71,1.3-3.67,1.3-3.67l-2.58-1.91,1.96-3.15-.63-3.6s-1.77,2.36-2.04,2.34c-.27-.01-2.99-3.3-2.99-3.3Z"/><path class="cls-14" d="M148.05,286.28c2.34,1.12,3.33,3.92,2.21,6.26-1.12,2.34-3.92,3.33-6.26,2.21-2.34-1.12-3.33-3.92-2.21-6.26,1.12-2.34,3.92-3.33,6.26-2.21Z"/><g><g><path class="cls-12" d="M144.65,293.41c-1.6-.77-2.27-2.68-1.51-4.27,.76-1.6,2.67-2.27,4.27-1.51,1.6,.76,2.27,2.68,1.51,4.27-.76,1.6-2.68,2.27-4.27,1.51Z"/><polygon class="cls-9" points="148.19 292.89 144.94 287.51 144.18 287.91 147.62 293.3 148.19 292.89"/></g><path class="cls-2" d="M148.1,292.06l-2.48-4.22s1.15-.59,2.39,.66c1.24,1.25,.78,4.25,.09,3.56Z"/><path class="cls-2" d="M146.84,292.93l-2.02-3.22s-1.36,2.55-.16,3.2c1.21,.66,2.69,.65,2.18,.01Z"/><path class="cls-1" d="M148.13,291.52s-1-1.6-.77-2.18c.23-.58,1.06-.33,1.13,.86,.06,1.19-.04,1.88-.36,1.32Z"/></g></g></g><g><g><g><path class="cls-19" d="M384.8,217.58l1.83,8.01,12.46,15.96,2.16-21.11s3.83,.08,4.12-.54c.28-.62,2.44-7.14,2.44-7.14l-.66-1.93-1.21-3.56-9.86,2.84-4.56,4.83,1.39-6.6-14.34-6.18,8.7,12.94-2.47,2.48Z"/><path class="cls-19" d="M367.14,224.45c3.39,2.91,12.82,3.67,13.37,3.57,.54-.1,.53-9.85,.53-9.85,0,0-3.7-2.37-4.81-3.2-1.11-.83-9.21-18.8-9.72-19.58-.52-.78,2.99,17.03,2.99,17.03,0,0-6.86,4.15-7.38,4.53-.53,.39,.08,2.18,.08,2.18,0,0,1.56,2.4,4.95,5.31Z"/></g><path class="cls-14" d="M407.59,213.36s-12.21,3.72-12.67,4.31c-.46,.59,3,19.01,3,19.01l-8.52-18.95s-3.36-.15-3.75,.41c-.39,.56,1.37,7.65,.96,7.44-.4-.21-6.06-7.35-8.47-7.14-2.41,.21-16.75,1.3-16.09,2.28,.67,.98-4.42-10.07-4.51-10.81-.09-.75,4.14,6.32,7.27,7.04,3.14,.73,20.08-1.5,19.14-2.56-.94-1.06-5.69-12.59-5.41-12.25,.28,.34,12.76,11.99,13.39,12.38,.63,.39,15.19-3.7,15.19-3.7l.82,2.4-.37,.13Z"/><g><path class="cls-7" d="M404.88,219.98c-.48,.07-3.64,.47-3.64,.47l-2.13,20.85s3.07-17.6,3.14-18.4c.07-.8,2.32-.53,2.94-.48,.62,.05,1.16-.81,1.55-2.17,.39-1.35,.52-5.86,.52-5.86,0,0-1.91,5.52-2.38,5.59Z"/><path class="cls-7" d="M384.6,244.1s-11.08-8.14-11.8-11.27c-.71-3.12-.41-5.04,1.55-4.59,1.97,.45,5.15,4.78,5.85,7.41,.71,2.64,1.54,4.53,1.54,4.53,0,0-1.66-8.8-.94-9.74,.72-.94,1.76-3.19,1.96-4.38,.2-1.19,3.85-.48,3.85-.48,0,0-5.59-6.1-5.6-5.27-.01,.83-.54,7.92-.84,8.06-.3,.14-12.11-3.06-12.21-3.33,.08,.23,2.59,5.87,4.47,9.52,1.92,3.71,12.15,9.52,12.15,9.52Z"/><path class="cls-7" d="M392.76,209.01c-.14,.67-.45,5.55-.45,5.55l3.9-4.02,8.86-3.02s-3.6-.08-4.23-1.16c-.63-1.08-4.17-17.58-4.17-17.58,0,0,.62,3.44,1.28,10.62,.67,7.18,1.11,8.6-.7,9.11-1.81,.51-1.49,.44-2.52-2.84-1.03-3.28-8.13-21.85-7.76-16.44,.36,5.41,5.44,16.98,4.91,16.92-.54-.05-12.68-3.72-13.32-4-.64-.27,14.34,6.18,14.2,6.85Z"/><path class="cls-7" d="M383.62,214.82c1.18-.58-.51-1.95-1.47-4.01-.96-2.06-4.98-10.69-4.72-10.04,5.53,13.49,.12,13.15,.12,13.15l-11.05-18.53s9.72,19.58,10.07,20.25c.35,.67,5.86-.25,7.04-.82Z"/><path class="cls-7" d="M367.21,200.34s.11,7.24,.08,8.7c-.03,1.46,0,2.52-1.52,3.13-1.53,.61-2.91-6.78-3.76-8.22-.85-1.44,3.13,11.12,3.13,11.12l4.35-2.65-2.28-12.08Z"/></g></g><g><path class="cls-14" d="M377.04,229.03l1.67,8.99s14.26,8.08,12.66,6.73c-4.72-3.98-7.54-6.45-7.54-6.45l-2.68-1.77,1.79-3.25-.82-3.56s-1.64,2.45-1.92,2.45c-.27,0-3.16-3.14-3.16-3.14Z"/><path class="cls-14" d="M382.22,230.92c2.39,.99,3.53,3.74,2.54,6.14-.99,2.39-3.74,3.53-6.14,2.53-2.39-.99-3.53-3.74-2.53-6.14,.99-2.4,3.74-3.53,6.14-2.54Z"/><g><g><path class="cls-12" d="M377.46,236.48c-.68-1.64,.1-3.51,1.74-4.19,1.63-.68,3.51,.1,4.18,1.74,.68,1.63-.1,3.51-1.74,4.18-1.63,.67-3.51-.1-4.18-1.74Z"/><polygon class="cls-9" points="380.44 238.46 381.62 232.29 380.79 232.08 379.74 238.38 380.44 238.46"/></g><path class="cls-2" d="M380.93,237.79l.98-4.79s1.25,.33,1.34,2.08c.09,1.76-2.26,3.68-2.32,2.71Z"/><path class="cls-2" d="M379.41,237.59l.66-3.74s-2.72,.98-2.27,2.27c.46,1.29,1.57,2.28,1.61,1.47Z"/><path class="cls-1" d="M381.31,237.4s.33-1.86,.89-2.13c.56-.28,1.01,.46,.26,1.39-.75,.93-1.29,1.36-1.15,.74Z"/></g></g><g><path class="cls-14" d="M402.85,225.55l1.67,8.99s6.97,11.44,6.51,9.39c-3.25-14.39-1.39-9.11-1.39-9.11l-2.68-1.77,1.79-3.25-.82-3.56s-1.64,2.45-1.92,2.45c-.28,0-3.16-3.14-3.16-3.14Z"/><path class="cls-14" d="M408.03,227.45c2.39,.99,3.53,3.74,2.54,6.14-.99,2.4-3.75,3.53-6.14,2.54-2.4-.99-3.53-3.74-2.54-6.14,.99-2.4,3.74-3.53,6.14-2.54Z"/><g><g><path class="cls-12" d="M405,234.74c-1.64-.68-2.41-2.56-1.73-4.19,.68-1.64,2.55-2.41,4.19-1.73,1.63,.68,2.4,2.55,1.73,4.19-.68,1.63-2.55,2.41-4.19,1.73Z"/><polygon class="cls-9" points="408.51 234.03 404.98 228.83 404.25 229.27 407.96 234.47 408.51 234.03"/></g><path class="cls-2" d="M408.39,233.21l-2.7-4.08s1.11-.65,2.42,.53c1.3,1.18,1,4.2,.28,3.55Z"/><path class="cls-2" d="M407.17,234.14l-2.19-3.11s-1.23,2.62,0,3.21c1.24,.59,2.72,.51,2.18-.1Z"/><path class="cls-1" d="M408.38,232.67s-1.08-1.55-.88-2.14c.2-.59,1.04-.39,1.17,.8,.12,1.19,.05,1.88-.29,1.34Z"/></g></g><g><path class="cls-14" d="M365.04,193.76l1.67,8.99s6.97,11.44,6.51,9.39c-3.24-14.39-1.39-9.11-1.39-9.11l-2.68-1.77,1.79-3.25-.82-3.56s-1.64,2.45-1.92,2.45c-.27,0-3.16-3.14-3.16-3.14Z"/><path class="cls-14" d="M370.21,195.66c2.39,.99,3.53,3.74,2.54,6.14-.99,2.39-3.74,3.53-6.14,2.54-2.4-1-3.53-3.74-2.53-6.14,.99-2.4,3.74-3.53,6.14-2.53Z"/><g><g><path class="cls-12" d="M367.19,202.95c-1.64-.68-2.41-2.55-1.73-4.18,.68-1.64,2.55-2.41,4.19-1.73,1.63,.68,2.41,2.56,1.73,4.19-.68,1.63-2.55,2.41-4.19,1.73Z"/><polygon class="cls-9" points="370.7 202.25 367.17 197.05 366.43 197.48 370.15 202.69 370.7 202.25"/></g><path class="cls-2" d="M370.57,201.42l-2.69-4.08s1.12-.65,2.42,.53c1.3,1.18,1,4.2,.28,3.55Z"/><path class="cls-2" d="M369.35,202.36l-2.19-3.11s-1.23,2.62,.01,3.21c1.24,.59,2.72,.51,2.18-.1Z"/><path class="cls-1" d="M370.56,200.88s-1.08-1.55-.88-2.14c.2-.59,1.04-.39,1.17,.8,.13,1.19,.05,1.88-.29,1.34Z"/></g></g><g><path class="cls-14" d="M391.59,192.44l1.67,8.99s4.15,5.52,4.02,4.01c-.06-.71,1.1-3.73,1.1-3.73l-2.68-1.77,1.79-3.25-.82-3.56s-1.64,2.45-1.92,2.45c-.27,0-3.16-3.14-3.16-3.14Z"/><path class="cls-14" d="M396.76,194.33c2.4,.99,3.53,3.74,2.54,6.14-.99,2.39-3.74,3.53-6.14,2.54-2.39-1-3.53-3.74-2.54-6.14,.99-2.4,3.74-3.53,6.14-2.54Z"/><g><g><path class="cls-12" d="M393.73,201.63c-1.63-.68-2.41-2.56-1.73-4.19,.68-1.63,2.55-2.41,4.19-1.73,1.64,.68,2.41,2.55,1.73,4.19-.68,1.63-2.55,2.41-4.19,1.73Z"/><polygon class="cls-9" points="397.24 200.92 393.72 195.72 392.98 196.16 396.69 201.36 397.24 200.92"/></g><path class="cls-2" d="M397.12,200.1l-2.7-4.08s1.11-.65,2.42,.53c1.3,1.18,1,4.2,.28,3.55Z"/><path class="cls-2" d="M395.9,201.03l-2.19-3.11s-1.23,2.61,0,3.21c1.24,.59,2.72,.51,2.18-.1Z"/><path class="cls-1" d="M397.11,199.56s-1.09-1.55-.88-2.14c.2-.59,1.04-.39,1.17,.8,.12,1.19,.05,1.88-.29,1.34Z"/></g></g></g></g></g></g></g><g id="Layer_7"><g><g><path class="cls-6" d="M251.11,204.36c-3.59-3.7-7.99-6.9-13.03-9.06-1.26-.56-2.56-1.02-3.7-1.39l-3.57-1.19c-2.39-.73-4.79-1.64-7.23-2.23-2.44-.6-4.91-1.13-7.38-1.67-2.48-.5-5.03-.76-7.56-1.07-5.06-.59-10.09-.78-14.84-.63-9.63,.1-19.25,.48-28.86,1.06l-9.2,.55,.32,9.05c.08,2.32,.19,4.65,.3,6.97-4.59-2.82-9.48-5.15-14.53-6.83-6.39-2.14-13.02-3.38-19.61-4-3.29-.37-6.58-.55-9.87-.75-3.27-.17-6.72-.25-10.1-.04-6.82,.33-13.63,1.67-20.27,4.06-6.59,2.42-13.11,6.19-18.37,11.55-2.63,2.67-5.03,5.83-6.89,9.27-.92,1.73-1.69,3.53-2.36,5.37-.38,1.02-.73,2.4-.89,3.23-.2,.94-.37,1.9-.51,2.88-.27,1.95-.44,3.98-.36,6.04,.08,2.15,.31,3.98,.64,5.93,.68,3.87,2.07,7.78,3.87,11.23,.92,1.73,2.02,3.55,3.2,5.06l3.46,4.28c1.06,1.45,2.55,2.76,3.94,4.08,.7,.64,1.41,1.35,2.1,1.93l1.97,1.57c3.61,3.3,7.14,5.31,10.36,7.41l10.3,6.45,2.57,1.56c.84,.51,1.6,1,2.37,1.52,1.52,1.03,2.98,2.1,4.32,3.21,1.29,1.05,2.33,2.14,2.92,3.01,.07,.12,.12,.18,.16,.24-1.04,.78-2.28,1.23-3.9,1.34-2.1,.16-4.63-.39-7.13-1.3-2.49-.94-5.07-2.07-7.55-3.44l-3.74-2.11-1.86-1.12-.49-.3c-.24-.17-.51-.33-.79-.46-.56-.28-1.12-.4-1.52-.51-.24,.25-.5,.55-.74,.89l-.33,.5-.23,.32-.89,1.28-1.81,2.57-3.57,5.15c-2.41,3.43-4.71,6.93-7.07,10.39l-1.74,2.55,3,2.4c3.79,3.02,7.88,5.72,12.13,8.1,4.25,2.34,8.67,4.42,13.42,6.12l3.63,1.19,1.83,.59c.62,.15,1.26,.27,1.89,.4l3.82,.72c1.27,.24,2.55,.49,3.89,.58,2.66,.24,5.37,.28,8.08,.1,2.67-.19,5.46-.56,8.27-1.33,2.79-.78,5.55-1.89,8.16-3.37,2.7-1.52,5.21-3.49,7.36-5.76,1.08-1.15,2.05-2.31,2.96-3.6,.97-1.37,1.81-2.83,2.5-4.32,1.41-2.98,2.19-6.06,2.64-9.02,.22-1.55,.34-2.85,.42-4.3,.07-1.42,.09-2.88,.02-4.37-.07-1.49-.22-3.01-.49-4.55-.26-1.52-.71-3.18-1.14-4.52-.89-2.81-2.11-5.6-3.66-8.23-1.6-2.71-3.32-4.88-5.28-7.03-.97-1.06-1.99-2.08-3.05-3.04-.53-.48-1.07-.96-1.61-1.41l-1.5-1.15-6.08-4.51c-1.04-.79-1.99-1.41-2.95-2.05l-2.9-1.91c-1.93-1.26-4.01-2.55-5.49-3.59-1.59-1.12-3.1-2.32-4.46-3.58-1.23-1.13-2.27-2.33-3.13-3.62-.2-.3-.45-.71-.58-.93-.13-.22-.25-.44-.36-.68-.22-.47-.4-1-.53-1.61-.07-.3-.12-.62-.16-.96l-.08-.71v-.38l.05-.53c.04-.33,.07-.66,.13-.94,.11-.58,.25-1.04,.39-1.39,.15-.35,.23-.53,.61-.99,.63-.74,1.29-1.24,2.35-1.66,2.46-.95,6.03-1.07,9.8-.41,3.69,.65,7.59,1.85,11.28,3.61,3.73,1.75,7.18,3.8,10.23,6.46l5.88,5.13,3.08-6.23,7.42-15.02c1.29-2.63,2.6-5.24,3.92-7.84,.21,3.33,.43,6.66,.65,9.99,.72,10.27,1.24,20.55,2.32,30.81,.97,10.26,2.42,20.52,3.59,30.78,1.17,10.26,2.11,20.53,2.43,30.81l.08,2.75,2.7-.18c10.72-.71,21.48-.74,32.27-.22l3.47,.17,.47-4.32,1.27-11.8c.41-3.93,.88-7.87,1.23-11.8,.5-5.3,.84-10.59,1.03-15.89,2.21-.13,4.45-.33,6.66-.55,2.45-.13,4.85-.74,7.25-1.16l3.59-.76c1.18-.24,2.38-.51,3.61-.89,4.87-1.39,9.56-3.35,13.99-5.96,2.2-1.32,4.26-2.69,6.32-4.43,2.02-1.71,3.77-3.72,5.23-5.85l-.15,.16c1.62-2.06,3.12-4.25,4.25-6.67,1.14-2.38,1.91-4.85,2.43-7.37,.45-2.51,.69-5.02,.71-7.52-.05-2.45,.03-4.9,.03-7.35,.14-9.9-4.31-19.58-11.49-26.99Zm-146.08,88.39c.14-.41,.41-.49,.25-.2-.09,.08-.17,.16-.26,.23,0-.01,0-.02,0-.03Zm98.99-41.33l-.79,.75c-.62,.54-1.52,1.16-2.77,1.68,1.13-3.78,2.15-7.04,3.11-10.01l2.59-8.08c.5-1.61,.9-3.1,1.25-4.55,.69-.1,1.39-.2,2.07-.28,3.21-.39,6.08-.5,9.02-.85,2.94-.28,5.9-.56,8.31,.99,2.35,1.43,3.62,4.55,3.09,7.66-.23,1.54-.91,2.97-1.84,3.83-.47,.43-.96,.72-1.43,.86-.5,.23-1.14,.5-1.65,.64-1.07,.33-1.91,.41-2.82,.68-1.07,.33-2.09,.81-3.24,1.25-.59,.22-1.13,.42-1.84,.65l-2.25,.73c-1.51,.5-2.99,1.02-4.55,1.57-1.63,.48-3.29,1.13-5,1.89-.42,.19-.89,.39-1.27,.61Z"/><path class="cls-6" d="M436.06,257.31c-.09-10.02-.23-20.04-.49-30.05-.25-10.02-.65-20.03-.96-30.05l-.29-9.22-8.88,.54-28.45,1.74-8.46,.52,.58,8.08,1.4,19.33c.52,6.44,.94,12.89,1.55,19.32,.6,6.44,1.13,12.88,1.83,19.31l.19,1.83-3.66-4.68c-4.88-6.36-9.77-12.71-14.5-19.18-4.82-6.4-9.42-12.95-14.08-19.47-4.66-6.51-9.15-13.14-13.61-19.8l-.79-1.18-1.57-.05c-4.19-.13-8.37-.23-12.56-.42-3.46-.12-6.92-.31-10.38-.5l-.02-3.38-7.51-.02c-2.83,0-5.67-.02-8.51,.04-2.84,.03-5.68,.18-8.52,.29-2.84,.09-5.69,.31-8.53,.48l-8.53,.58-5.39,.37,.35,4.22c.87,10.37,1.33,20.72,.89,31.03-.35,10.32-1.87,20.58-3.85,30.83-1.95,10.25-3.62,20.51-3.93,30.83-.34,10.32-.3,20.65,.25,31l.36,6.75,5.66-.16c6.43-.18,12.81-.71,18.72-1.45,2.96-.37,5.81-.77,8.5-1.21,2.68-.44,5.26-.85,7.6-1.31,.95-3.96,1.82-8.14,2.66-12.43,.06,3.7,.12,7.4,.2,11.1l.17,7.62,7.26-.2,16.61-.45c5.54-.22,11.07-.34,16.61-.64l6.8-.36-.46-6.13c-.43-5.73-.92-11.44-1.5-17.18-.64-5.76-1.44-11.62-2.2-17.66-.81-6.06-1.65-12.38-2.34-18.88-.72-6.55-1.29-13.26-1.75-20.21,4.53,6.88,8.82,13.73,12.87,20.46,4.05,6.72,7.84,13.37,11.49,19.75,3.64,6.44,7.18,12.61,10.77,18.63l5.4,8.98,5.58,8.79,1.97,3.1,4.31-.16c7.79-.29,15.59-.48,23.37-.89l7.23-.38,.1-7.68c.13-10.02,.36-20.05,.41-30.07l.08-15.03-.06-15.03Z"/></g><g><path class="cls-8" d="M78.16,285.87c6.85,5.98,12.8,9.84,17.86,11.56,5.06,1.73,9.29,1.24,12.69-1.47,1.38-1.38,1.75-2.94,1.12-4.66-.63-1.73-1.9-3.54-3.8-5.44-1.9-1.9-4.24-3.84-7.03-5.83-2.79-1.99-5.61-3.94-8.46-5.87-2.85-1.93-5.54-3.78-8.07-5.57-2.53-1.78-4.52-3.39-5.96-4.83-.29-.23-.98-.81-2.07-1.73-1.09-.92-2.34-2.16-3.75-3.71-1.41-1.55-2.86-3.39-4.36-5.52-1.5-2.13-2.76-4.53-3.8-7.21-1.04-2.68-1.73-5.61-2.07-8.8-.35-3.19-.12-6.63,.69-10.31,1.32-4.66,3.52-8.86,6.6-12.6,3.08-3.74,6.79-6.92,11.13-9.54,4.34-2.62,9.2-4.65,14.59-6.08,5.38-1.44,11-2.16,16.87-2.16,5.01,0,9.67,.23,13.98,.69,4.31,.46,8.38,1.22,12.21,2.29,3.82,1.06,7.49,2.46,11,4.18,3.51,1.73,6.93,3.88,10.27,6.47l-16.92,28.82c-2.53-2.59-5.42-4.89-8.67-6.9-3.25-2.01-6.59-3.64-10.01-4.88-3.42-1.24-6.79-2-10.1-2.29-3.31-.29-6.3-.01-8.98,.82-2.68,.83-4.89,2.33-6.64,4.49-1.76,2.16-2.75,5.08-2.98,8.76,0,3.16,.66,5.97,1.98,8.41,1.32,2.45,3.05,4.7,5.18,6.77,2.13,2.07,4.55,4.03,7.25,5.87,2.7,1.84,5.45,3.71,8.24,5.61,2.79,1.9,5.48,3.93,8.07,6.08s4.85,4.59,6.77,7.29c1.93,2.7,3.39,5.75,4.4,9.15,1.01,3.4,1.31,7.31,.91,11.74-.4,4.26-1.61,7.87-3.63,10.83-2.01,2.96-4.52,5.34-7.51,7.12-2.99,1.78-6.34,3.02-10.06,3.71-3.71,.69-7.49,.89-11.35,.6-2.36-.17-4.69-.49-6.99-.95-2.3-.46-4.55-1.04-6.73-1.73-2.19-.69-4.29-1.44-6.3-2.24-2.02-.81-3.89-1.61-5.61-2.42-4.09-1.9-7.97-4.06-11.65-6.47,2.19-4.08,4.14-7.74,5.87-10.96,.75-1.38,1.47-2.73,2.16-4.06,.69-1.32,1.31-2.5,1.85-3.54,.55-1.04,.98-1.87,1.3-2.5,.31-.63,.47-.98,.47-1.04Z"/><path class="cls-8" d="M261.72,231.33c0,2.53-.04,4.98-.13,7.33-.09,2.36-.39,4.63-.91,6.82-.52,2.19-1.35,4.34-2.5,6.47-1.15,2.13-2.79,4.26-4.92,6.39-1.96,2.3-4.34,4.23-7.16,5.78-2.82,1.55-5.83,2.83-9.02,3.84-3.19,1.01-6.52,1.78-9.97,2.33-3.45,.55-6.77,.95-9.97,1.21-3.19,.26-6.2,.4-9.02,.43-2.82,.03-5.21,.04-7.16,.04v47.21l-32.19,1.73-3.37-123.41,33.74-1.73c2.13,0,4.46,.02,6.99,.04,2.53,.03,5.28,.16,8.24,.39,2.96,.23,6.14,.59,9.54,1.08,3.39,.49,6.99,1.16,10.79,2.03,3.8,.86,7.33,2.3,10.61,4.32,3.28,2.02,6.14,4.44,8.59,7.29,2.45,2.85,4.36,6.01,5.74,9.49,1.38,3.48,2.07,7.12,2.07,10.92Zm-61.88,23.13c.69,0,2.03,.06,4.01,.17,1.99,.12,4.24,.14,6.77,.09,2.53-.06,5.18-.32,7.94-.78,2.76-.46,5.25-1.3,7.47-2.5,2.21-1.21,3.98-2.89,5.31-5.05,1.32-2.16,1.84-4.96,1.55-8.42-.29-3.34-1.25-6.08-2.89-8.24-1.64-2.16-3.9-3.81-6.77-4.96-2.88-1.15-6.34-1.87-10.4-2.16-4.06-.29-8.62-.23-13.68,.17l.69,31.67Z"/><path class="cls-8" d="M309.88,321.59l-33.91-1.73,5.09-123.75,33.92,1.81-5.09,123.67Z"/><path class="cls-8" d="M352.25,246l1.73,74.91h-33.22v-123.75h25.11l55.15,78.7-3.71-77.41,28.48-1.12,1.9,120.21-23.3,1.81-52.13-73.35Z"/></g><g><path class="cls-3" d="M65.06,237.8c1.32-4.66,3.52-8.86,6.6-12.6,3.08-3.74,6.79-6.92,11.13-9.54,4.34-2.62,9.2-4.65,14.59-6.08,5.38-1.44,11-2.16,16.87-2.16,5.01,0,9.67,.23,13.98,.69,4.31,.46,8.38,1.22,12.21,2.29,3.82,1.06,7.49,2.46,11,4.18,.91,.45,1.81,.93,2.71,1.43l3.67-6.25c-3.34-2.59-6.76-4.75-10.27-6.47-3.51-1.73-7.18-3.12-11-4.18-3.83-1.06-7.9-1.83-12.21-2.29-4.32-.46-8.98-.69-13.98-.69-5.87,0-11.49,.72-16.87,2.16-5.38,1.44-10.24,3.47-14.59,6.08-4.34,2.62-8.05,5.8-11.13,9.54-3.08,3.74-5.28,7.94-6.6,12.6-.81,3.68-1.04,7.12-.69,10.31,.35,3.19,1.04,6.13,2.07,8.8,.61,1.57,1.32,3.02,2.09,4.4-.1-.63-.19-1.26-.26-1.91-.34-3.19-.12-6.63,.69-10.31Z"/><path class="cls-3" d="M78.43,304.25c.69-1.32,1.31-2.5,1.85-3.54,.55-1.04,.98-1.87,1.29-2.5,.31-.63,.47-.98,.47-1.04,6.85,5.98,12.8,9.84,17.86,11.56,5.06,1.73,9.29,1.24,12.69-1.47,1.38-1.38,1.75-2.94,1.12-4.66-.63-1.73-1.9-3.54-3.8-5.44-.39-.39-.81-.78-1.24-1.18-3.39,2.69-7.61,3.18-12.67,1.45-5.06-1.73-11.02-5.58-17.86-11.56,0,.06-.16,.4-.47,1.04-.32,.63-.75,1.47-1.3,2.5-.55,1.04-1.16,2.21-1.85,3.54-.69,1.32-1.41,2.68-2.16,4.06-1.73,3.22-3.68,6.88-5.87,10.96,2.43,1.59,4.98,3.03,7.58,4.4,.76-1.42,1.49-2.79,2.18-4.07,.75-1.38,1.47-2.73,2.16-4.06Z"/><path class="cls-3" d="M104.58,265.07c2.13,2.07,4.55,4.03,7.25,5.87,2.7,1.84,5.45,3.71,8.24,5.61,2.79,1.9,5.48,3.93,8.07,6.08,2.59,2.16,4.85,4.59,6.77,7.29,.47,.66,.91,1.34,1.32,2.04-.18-1.46-.43-2.87-.82-4.18-1.01-3.39-2.47-6.44-4.4-9.15-1.93-2.7-4.19-5.13-6.77-7.29-2.59-2.16-5.28-4.18-8.07-6.08-2.79-1.9-5.54-3.77-8.24-5.61-2.7-1.84-5.12-3.8-7.25-5.87-1.23-1.19-2.3-2.45-3.26-3.77,.02,3.11,.67,5.87,1.98,8.28,1.32,2.45,3.05,4.7,5.18,6.77Z"/><path class="cls-3" d="M203.05,207.07c2.13,0,4.46,.02,6.99,.04,2.53,.03,5.28,.16,8.24,.39,2.96,.23,6.14,.59,9.54,1.08,3.39,.49,6.99,1.16,10.79,2.03,3.8,.86,7.33,2.3,10.61,4.32,3.28,2.02,6.14,4.44,8.59,7.29,1.39,1.61,2.58,3.34,3.63,5.16-.32-2.38-.89-4.7-1.78-6.95-1.38-3.48-3.29-6.64-5.74-9.49-2.45-2.85-5.31-5.28-8.59-7.29-3.28-2.01-6.82-3.45-10.61-4.32-3.8-.86-7.39-1.54-10.79-2.03-3.4-.49-6.57-.85-9.54-1.08-2.97-.23-5.71-.36-8.24-.39-2.53-.03-4.86-.04-6.99-.04l-33.74,1.73,3.37,123.41,3.58-.19-3.05-111.93,33.74-1.73Z"/><path class="cls-3" d="M231.35,246.4c-1.33,2.16-3.09,3.84-5.31,5.05-2.22,1.21-4.7,2.04-7.47,2.5-2.76,.46-5.41,.72-7.94,.78-2.53,.06-4.79,.03-6.77-.09-.13,0-.24-.01-.36-.02l.24,11.14c.69,0,2.03,.06,4.01,.17,1.99,.12,4.24,.14,6.78,.09,2.53-.06,5.18-.32,7.94-.78,2.76-.46,5.25-1.3,7.47-2.5,2.21-1.21,3.98-2.89,5.31-5.05,1.32-2.16,1.84-4.96,1.55-8.41-.29-3.34-1.25-6.08-2.89-8.24-.29-.38-.62-.73-.95-1.08-.03,2.56-.55,4.72-1.6,6.44Z"/><polygon class="cls-3" points="314.52 209 314.97 197.94 281.05 196.13 275.96 319.89 280.31 320.11 284.95 207.42 314.52 209"/><polygon class="cls-3" points="349.76 208.46 404.9 287.16 401.19 209.75 425.96 208.78 425.78 197.34 397.3 198.46 401.01 275.87 345.86 197.17 320.75 197.17 320.75 320.92 324.65 320.92 324.65 208.46 349.76 208.46"/></g><polygon class="cls-6" points="331.45 322.96 338.39 288.09 338.99 322.96 331.45 322.96"/><polygon class="cls-6" points="181.56 195.3 186.81 206.94 186.81 258.07 193.62 208.45 191.25 194.39 181.56 195.3"/><polygon class="cls-6" points="218.57 253.95 217.82 268.9 226 247.09 218.57 253.95"/><polygon class="cls-6" points="68.85 208.45 78.84 232.5 76.94 202.3 68.85 208.45"/><polygon class="cls-6" points="408.34 196.13 416.38 238.03 416.63 195.3 408.34 196.13"/><polygon class="cls-6" points="293.07 194.39 295.47 270.99 300.81 192.13 293.07 194.39"/></g></g></g></g></svg>