<?xml version="1.0" encoding="UTF-8"?><svg xmlns="http://www.w3.org/2000/svg" viewBox="0 0 517.93 148.62"><defs><style>.cls-1{fill:#f2d265;}.cls-2,.cls-3,.cls-4{fill:#6d310c;}.cls-5{fill:#b66c13;}.cls-6{fill:#471d06;}.cls-7{opacity:.6;}.cls-8{isolation:isolate;}.cls-9{fill:#fff;mix-blend-mode:overlay;opacity:.3;}.cls-3{opacity:.51;}.cls-4{opacity:.67;}</style></defs><g class="cls-8"><g id="Layer_2"><g id="Layer_4"><g><g><path class="cls-2" d="M510.57,9.69c-16.63-.97-53.4-1.99-70.03-2.77l-24.95-1.26-24.95-1.12c-33.27-1.41-131.88-2.45-165.18-2.97l-70.08-.79c-16.66-.21-33.3-.51-49.95-.63C72.12-.24,38.8,.24,5.48,.44L0,.47,.92,5.53c2.02,11.06,3.91,22.12,5.8,33.19,1.85,11.07,3.63,22.16,5.37,33.25,1.69,11.1,3.36,22.2,4.87,33.33,1.56,11.12,2.95,22.26,4.3,33.4l.31,2.6,2.77,.11c7.73,.3,15.46,.63,23.19,1.04,7.73,.39,15.46,.76,23.19,1.22,15.46,.86,30.92,1.81,46.37,2.55,15.46,.8,30.92,1.41,46.38,1.79,15.46,.42,51.08,.47,66.54,.57,30.94,.13,127.2-.05,158.15-.71,30.95-.74,82.04-1.64,113.01-3.69l.78-.05,.11-.77c1.52-10.5,2.93-21.01,4.29-31.53,1.32-10.52,2.68-21.04,3.88-31.56,1.25-10.53,2.49-21.05,3.62-31.59,1.14-10.53,2.36-21.05,3.4-31.6l.68-6.97-7.36-.43Zm-14.64,99.13c-.66,8.74-1.4,17.49-2.21,26.23-29.24-1.06-78.59-3.06-107.82-4.64l-22.62-1.09c-7.54-.32-80.41-.56-87.95-.79-15.08-.41-30.17-.54-45.26-.61-30.18-.13-80.51,.04-110.69,.71-29.93,.74-59.85,1.68-89.8,3.73-.69-10.1-1.47-20.19-2.31-30.27-.91-10.34-1.78-20.69-2.8-31.01l-1.48-15.49-1.6-15.48c-.77-7.51-1.56-15.01-2.37-22.51l16.21,.97c8.08,.48,16.17,.85,24.25,1.28l24.24,1.25,24.25,1.08c32.33,1.36,84.82,2.34,117.18,2.78l24.27,.4,24.27,.32c16.18,.22,97.68,.44,113.87,.55,30.95,.25,82.06-.25,113.02-.47-.32,8.24-.69,16.47-1.03,24.7-.54,9.74-1,19.48-1.6,29.21-.6,9.73-1.25,19.46-2,29.19Z"/><polygon class="cls-5" points="498.83 140.75 26.57 135.77 8.27 7.51 507.66 19.03 498.83 140.75"/><path class="cls-3" d="M28.87,104.72s322.09-5.58,343.97-4.6c21.88,.97,105.89,13.93,105.89,13.93l21.25-5.17,4.49,.31-3.79,33.13H161.32l-138.02-3.15-4.51-34.45h10.07Z"/><polygon class="cls-4" points="502.49 18.88 494.48 129.21 24.93 124.27 26.57 135.77 498.83 140.75 507.66 19.03 502.49 18.88"/><polygon class="cls-1" points="15.63 17.94 67.8 15.61 507.1 26.85 507.66 19.03 8.27 7.51 26.57 135.77 34.26 135.87 15.63 17.94"/><polygon class="cls-2" points="19.31 99.31 9.53 34.79 93.78 39.35 11.22 28.16 7.01 20.6 19.94 112.87 226.3 102.46 19.31 99.31"/><g><path class="cls-2" d="M485.37,115.61c1.26-.42,17.25-2.74,17.25-2.74l.56-5.77c-3.49,1.63-18.93,8.88-17.81,8.51Z"/><path class="cls-2" d="M503.87,106.78l5.48-59.03h-.43l-5.75,59.36c.44-.21,.7-.33,.7-.33Z"/><polygon class="cls-2" points="509.35 41.19 394.96 47.74 508.92 47.74 509.35 43.41 509.35 41.19"/></g><g class="cls-7"><path class="cls-2" d="M195.09,48.83c-79.91,3.84-151.17,25.68-166.22,26.27-15.05,.59,34.66,3.95,107.15,7.3,72.5,3.36,242.27,9.59,269.37,2.88,27.1-6.71,34.14-8.79,34.14-8.79,0,0-63.42,6.39-82.4,6.39s-211.84-7.41-230.91-7.78c-19.07-.37-42.54-2.29-42.54-2.29,0,0,118.84-22.97,167.54-18.68,48.7,4.29,155.17,13.12,152.16,14.22-3.01,1.1-41.41,.82-48.3,0-6.9-.82-149.57-6.57-165.63-3.69-16.06,2.88,41.17,7.19,61.77,7.67,20.59,.48,136.1,5.06,152.16,2.77,16.06-2.29,16-6.75,16-6.75l59.34,2.54s-203.74-25.9-283.64-22.06Z"/><path class="cls-9" d="M417.94,57.7c-48.68-10.55-202.39-13.19-248.56-12.35-46.17,.84-140.51,29.74-140.51,29.74,0,0,37.06-7.33,58.77-11.91,21.71-4.59,86.33-12.2,147.64-13.88,61.31-1.68,256.48,23.26,256.48,23.26,0,0-25.14-4.31-73.82-14.87Z"/><path class="cls-9" d="M87.56,73.11s102.46,3.06,143.57,8.57c41.12,5.51,168.4-1.49,168.4-1.49-26.22,2.37-146.78-2.59-168.4-5.09-21.61-2.51-143.57-1.99-143.57-1.99Z"/></g><polygon class="cls-9" points="112.61 109.93 27.2 116.24 27.2 135.78 23.31 112.87 165.83 104.72 112.61 109.93"/><path class="cls-9" d="M99.14,40.3c-1.26-.21-86.96-5.37-86.96-5.37l3.47,24.32s4.82,.97,3.98,.9c-.84-.08-3.33,3.64-3.21,4.47,.12,.83,4.68-1.81,5.52-2.44,.84-.63,1.04-6.61,1.04-6.61,0,0-3.98-3.49-3.98-4.54v-9.4l80.14-1.33Z"/></g><path class="cls-1" d="M247.03,62.32l-5.64,.18c-3.06,.1-6.1,.36-9.14,.67l-.38-3.99c-.31-3.15-.76-6.3-1.35-9.45-.56-3.14-1.19-6.29-1.67-9.43-.51-3.15-.79-6.3-.92-9.46l-.06-1.54-1.53,.07c-2.1,.1-4.2,.13-6.31,.02-2.11-.11-4.22-.34-6.34-.59l-2.16-.25-.4,3.05c-.5,3.85-1.1,7.7-1.2,11.54-.14,3.84,.18,7.65,.55,11.47,.29,2.81,.69,5.6,1.16,8.4-.21-.61-.41-1.22-.63-1.83-1.25-3.57-2.63-7.08-4.09-10.56-1.48-3.47-3.14-6.87-4.74-10.29-1.67-3.39-3.26-6.82-4.99-10.18l-1.37-2.66h-2.35c-3.11,0-6.24,.18-9.37,.4l-2.84,.2-.48,1.91c-.94,3.77-1.82,7.57-2.9,11.28-1.09,3.71-2.38,7.35-3.87,10.9-1.51,3.55-3.37,6.96-5.32,10.33-1.97,3.37-3.96,6.73-5.67,10.2l-1.93,3.92,4.79,1.78c.23,.08,.46,.16,.69,.24-.54,.04-1.08,.07-1.62,.11-2.92,.2-5.85,.44-8.77,.69l.04-.51-2.7-.14-.04-1.95c-.13-5.96-.52-11.93-1.23-17.88-.32-2.98-.82-5.95-1.32-8.93-.55-2.77-1.1-5.54-1.9-8.3,2.35,.46,4.69,.84,7.03,1.15,2.56,.33,5.11,.63,7.66,.85l2.73,.23,.36-3.57c.32-3.14,.54-6.27,.73-9.4l.22-3.8-4.63-.33c-3.39-.24-6.78-.32-10.16-.46-3.39-.07-6.77-.12-10.15-.03-3.38,.06-6.76,.25-10.13,.51-3.38,.23-6.75,.51-10.12,.8l-4.98,.43,.4,4.45c.15,1.62,.26,3.25,.44,4.87,.02,.16,.03,.33,.05,.49-1.17-1.24-2.46-2.35-3.86-3.26-1.53-1-3.11-1.76-4.79-2.42-1.59-.6-3.29-1.05-4.91-1.39-3.26-.68-6.5-.96-9.67-.98-3.2-.03-6.44,.29-9.71,1.06-.82,.2-1.63,.39-2.48,.68-.77,.22-1.64,.53-2.44,.87-1.59,.66-3.27,1.55-4.73,2.56-1.46,1.05-2.9,2.24-4.2,3.74l-.5,.57c.26-2.78,.47-5.56,.64-8.34l.22-3.8-4.63-.33c-3.39-.24-6.78-.32-10.17-.46-3.39-.07-6.77-.12-10.15-.03-3.38,.06-6.76,.25-10.13,.51-3.38,.23-6.75,.51-10.12,.8l-4.98,.43,.4,4.45c.15,1.62,.26,3.25,.44,4.87,.18,1.62,.29,3.25,.53,4.86l.66,4.43,3.6-.5c3.7-.51,7.39-1.21,11.08-1.86,.61,5.03,.95,10.06,.86,15.11-.07,5.98-1.04,11.97-1.77,17.97l-.4,3.28,4.2,.32c1.99,.15,3.98,.35,5.96,.42,1.99,.06,3.97,.08,5.95,0l4.45-.19-.1-4.41c-.13-5.96-.52-11.93-1.23-17.88-.32-2.98-.82-5.95-1.32-8.93-.55-2.77-1.1-5.54-1.9-8.3,2.35,.46,4.69,.84,7.03,1.15,2.56,.33,5.11,.63,7.66,.85l.39,.03c-1.56,3.29-2.4,6.97-2.45,10.65-.18,7.82,3.66,15.37,9.44,20.23,1.44,1.23,2.99,2.31,4.63,3.2-1.95,.02-3.9,.07-5.85,.19l-5.23,.31,.11,5.24c.08,3.82,.41,7.63,.69,11.44,.34,3.81,.61,7.62,1.03,11.43,.38,3.81,1.06,7.61,1.71,11.41,.64,3.8,1.28,7.6,1.58,11.42l.13,1.7,1.53-.09c3.86-.23,7.72-.2,11.58,.15,3.98,.27,8.02,.87,12.63-.11,2.14-.4,4.93-1.62,6.88-3.8,.24-.26,.52-.61,.78-.99l.48-.73c.48-.88,.67-1.25,.99-2.07,.44-1.24,.78-2.66,.8-4.1v-1.04c0-.37-.06-.76-.1-1.14l-.14-.7-.08-.34-.05-.17-.28-.9c-.43-1.36-1.18-2.65-2.14-3.84-.37-.41-.74-.77-1.12-1.1,.15-.13,.31-.24,.46-.37,.29-.29,.72-.71,1.07-1.09,.63-.75,1.39-1.79,1.69-2.52,.26-.51,.48-1.01,.67-1.51,.03,.58,.05,1.16,.08,1.74,.39,7.68,1.31,15.35,2.09,23.03l.29,2.87,2.38-.28c5.5-.64,11-1.05,16.5-1.33,5.5-.23,11.01-.3,16.52,0l1.77,.09,.07-2.02c.1-2.93,.32-5.87,.52-8.81l.16-2.36-2.9-.21c-.93-.07-1.87-.14-2.81-.21l-.07-1.49c-.09-2.06-.18-4.12-.31-6.18l-.27-4.12-3.63,.22c-3.91,.24-7.83,.55-11.75,.95-.21-1.56-.43-3.11-.66-4.67-.37-2.33-.78-4.65-1.27-6.98,4.04,.72,8.09,1.25,12.13,1.75,4.25,.5,8.5,.92,12.75,1.29l.34,.03,.11,.77,3.6-.5c3.7-.51,7.39-1.21,11.08-1.86,.61,5.03,.95,10.07,.86,15.11-.07,5.98-1.04,11.97-1.77,17.97l-.4,3.28,4.2,.32c1.99,.15,3.98,.35,5.96,.42,1.99,.06,3.97,.08,5.95,0l4.46-.19-.1-4.41c-.13-5.97-.52-11.93-1.23-17.88-.32-2.98-.82-5.95-1.32-8.93-.55-2.77-1.1-5.54-1.9-8.3,2.35,.46,4.69,.84,7.03,1.15,2.56,.33,5.11,.63,7.66,.85l2.73,.23,.36-3.57c.32-3.14,.54-6.27,.73-9.4l.15-2.5,3.06-.68,4.57-1.01c1.52-.35,3.02-.75,4.53-1.12l2.92-.72c.06,.18,.12,.37,.19,.55l.14,.39,.38,.09c2.23,.54,4.45,.93,6.67,1.28,2.22,.32,4.44,.65,6.66,.86,2.21,.25,4.43,.44,6.64,.57,2.21,.17,4.42,.28,6.63,.36l4.41,.15,.19-5.18c.1-2.78,.17-5.55,.14-8.32l-.05-5.27ZM97.08,99.64c-.17,.5-.54,.93-.99,1.06-.11,.06-.21,.02-.28-.05-.01-.15-.37,.29-.34,.04-.25,0-.45,0-.65-.07-.21,0-.29-.18-.28-.3,.03-.04-.02-.03-.13,0-.08,.02-.16,.04-.24,.07l-.23,.08-.06,.02h-.03c.48-.29,.13-.07,.24-.14h-.07c-.28,.02-.59,.16-.66,.28-.01,.03-.26,.1-.38,.16l-.22,.09-.11,.05c.07-.01-.17,.04,.16-.03h-.02l-.02,.02-.05,.02c-.24,.08-.47,.24-.71,.34l-1.45,.85c-.49,.28-.94,.61-1.42,.98,.14-.21,.29-.41,.41-.61,.57-.94,1.02-1.88,1.4-2.82,.12-.33,.23-.65,.34-.98,.21-.05,.41-.1,.63-.15,.23-.05,.46-.11,.7-.19,.22-.08,.35-.17,.57-.29,.25-.1,.67-.14,1-.21h.02c-.28-.1-.07-.03-.14-.05h.02l.04-.03,.08-.04,.17-.07,.35-.12c.45-.14,.97-.2,1.35-.09,.85,.25,1.32,1.14,.96,2.19Zm-4.39,18.06s0,0,0,0c0,0-.01,0,0,0Zm.07,.36s.27-.17,.24-.15h-.01v-.02l.2-.17c.13-.11,.19-.32,.48-.31l.43,.02,.21,.02h0c.1,.08-.13-.1-.1-.09h.02l.02-.02,.06-.02c.59-.18,1.11,.45,.87,1.23-.09,.28-.53,.69-.73,.25-.05-.05-.26,.1-.38,.14l-.11,.05-.05,.02h-.03c.27-.47,.07-.12,.13-.23h-.01l-.15-.06c-.18-.07-.35-.2-.47-.33-.1-.2,.1-.47-.31-.38-.07,0-.14,.01-.2,.02h-.06s-.04,.03-.04,.03h0Zm-5.32-62.52h0l.03-.22c.04-.56,.11-1.07,.2-1.56,.09-.52,.15-.81,.33-1.42,.17-.51,.34-.99,.57-1.45l.32-.62s.17-.25,.3-.41l.1-.13c-.14,.13,0-.01-.02,0l.13-.16c.34-.43,.74-.82,1.18-1.2,.25-.19,.44-.36,.62-.52,.44-.26,.53-.39,.83-.59,.52-.35,1.08-.68,1.7-1l.9-.42,.65-.19c.06-.05,.33-.11,.49-.17,1.49-.39,3.03-.56,4.56-.17,1.52,.38,2.9,1.15,3.88,2.33,.48,.58,.85,1.25,1.08,1.95,.11,.35,.22,.74,.24,1.05l.09,.6c0,.08,.07,.3,.01,.26v.27c0,.71-.08,1.4-.24,2.06-.08,.31-.14,.69-.24,.93-.07,.08-.17,.97-.25,.98l-1.03,3.15-.54,1.73c-.09,.31-.22,.62-.27,.9-.03,.14-.19,.38-.27,.58,.03,.09-.11,.31-.16,.46-.58,1.36-1.39,2.78-2.76,3.87-1.29,1.05-2.94,1.61-4.65,1.58-1.68-.03-3.29-.65-4.54-1.78-1.2-1.1-2.01-2.62-2.43-4.01-.47-1.44-.54-2.64-.75-3.82-.07-.55-.13-1.04-.14-1.54,0-.22,0-.56,.02-.67v-.46l.02-.16v-.12s0,.25,0,.12Zm21.15,22.51l.21,5.18c.09,2.23,.23,4.46,.33,6.69-.81-1.57-1.88-3.05-3.21-4.43-1.31-1.34-2.92-2.66-4.81-3.58l-.59-.32c-.41-.16-.47-.21-.73-.33l-1.28-.58c-.39-.17-.83-.34-1.23-.5,2.95-.57,5.78-1.54,8.39-2.77,.76-.36,1.5-.75,2.26-1.16,.66-.37,1.44-.88,2.12-1.3,1.38-.93,2.75-1.99,3.99-3.05,2.51-2.23,4.86-4.81,6.67-7.88,1.79-2.99,3.12-6.66,3.33-10.32,.14-1.85,.03-3.69-.35-5.6-.1-.55-.19-.91-.29-1.28-.06-.23-.12-.42-.17-.6h0c3.7-.51,7.39-1.21,11.08-1.86,.61,5.03,.95,10.06,.86,15.11-.07,5.98-1.04,11.97-1.77,17.97l-.05,.44c-.2,0-.4-.02-.6-.02-6.23-.17-12.46-.15-18.69,.03l-5.48,.16Zm86.81,.71c-3.39-.24-6.78-.32-10.16-.46-.9-.02-1.79-.03-2.69-.04,1.06-3.66,1.98-7.36,2.79-11.1,1.49-.22,2.98-.45,4.47-.75,2.25-.42,4.51-.92,6.76-1.56,.29,2.16,.64,4.3,1.06,6.41,.42,2.26,.95,4.47,1.45,6.69l.25,1.1-3.93-.28Z"/><g><path class="cls-2" d="M52.65,41.13l.58,35.79-11.88,.45-.64-35.86-13.39,.65-.32-9.75,40.56-1.25,.32,9.37-15.23,.61Z"/><path class="cls-2" d="M95.24,30.38c2.34,0,4.57,.28,6.7,.85,2.12,.57,4.09,1.37,5.91,2.4,1.81,1.03,3.46,2.27,4.94,3.73,1.48,1.46,2.74,3.07,3.78,4.83,1.04,1.76,1.85,3.66,2.41,5.7,.57,2.04,.85,4.15,.85,6.34s-.29,4.25-.85,6.26c-.57,2.01-1.37,3.88-2.41,5.62-1.04,1.74-2.3,3.32-3.78,4.75-1.48,1.43-3.13,2.65-4.94,3.65-1.82,1.01-3.78,1.79-5.91,2.35-2.13,.56-4.36,.84-6.7,.84-2.21,0-4.34-.28-6.39-.84-2.05-.56-3.96-1.34-5.73-2.35-1.77-1.01-3.38-2.23-4.83-3.65-1.45-1.43-2.69-3.01-3.72-4.75-1.03-1.74-1.83-3.61-2.4-5.6-.57-2-.85-4.09-.85-6.28s.29-4.3,.85-6.34c.57-2.04,1.37-3.94,2.4-5.7,1.03-1.76,2.27-3.37,3.72-4.83,1.45-1.46,3.06-2.7,4.83-3.73,1.77-1.03,3.68-1.83,5.73-2.4,2.05-.57,4.18-.85,6.39-.85Zm0,38.11c1.99,0,3.84-.35,5.54-1.06,1.69-.71,3.16-1.66,4.39-2.85,1.23-1.19,2.2-2.56,2.9-4.12,.7-1.56,1.05-3.19,1.05-4.91,0-1.89-.35-3.62-1.05-5.2-.7-1.58-1.66-2.93-2.9-4.06-1.24-1.13-2.7-2.01-4.39-2.64-1.7-.63-3.54-.95-5.54-.95-1.83,0-3.54,.32-5.14,.95-1.6,.63-2.99,1.51-4.18,2.64-1.19,1.13-2.13,2.48-2.82,4.06-.69,1.58-1.03,3.31-1.03,5.2,0,1.72,.34,3.35,1.03,4.91,.69,1.55,1.62,2.93,2.82,4.12,1.19,1.19,2.58,2.14,4.18,2.85,1.6,.71,3.31,1.06,5.14,1.06Z"/><path class="cls-2" d="M148.35,41.13l.58,35.79-11.88,.45-.64-35.86-13.39,.65-.32-9.75,40.56-1.25,.32,9.37-15.23,.61Z"/><path class="cls-2" d="M196.96,64.24h-14.33l-4.41,13.13-11.2-3.09,16.87-43.07,9.3,.61,17.48,41.78-8.72,3.19-4.99-12.55Zm-2.51-5.6l-5.6-13.1-4.34,13.1h9.95Z"/><path class="cls-2" d="M215.73,77.37l-1.9-45.87,12.59-.61,1.25,37.92,14.1-1,.35,8.3-26.39,1.26Z"/><path class="cls-2" d="M110.32,95.36c.19,.94,.25,1.99,.16,3.12-.08,1.14-.32,2.27-.71,3.38-.39,1.12-.92,2.18-1.61,3.19-.69,1.01-1.52,1.84-2.51,2.51-.54,.36-1.06,.67-1.56,.92-.51,.25-1.01,.46-1.53,.64-.51,.18-1.05,.35-1.61,.5-.56,.15-1.15,.3-1.77,.45,1.59,.92,2.87,1.89,3.83,2.9,.97,1.01,1.64,2.24,2.03,3.7,.19,.64,.29,1.34,.29,2.09s-.08,1.51-.26,2.27c-.17,.76-.44,1.5-.8,2.22-.36,.72-.83,1.36-1.38,1.92-.94,.94-2.09,1.68-3.43,2.22-1.34,.54-2.73,.94-4.17,1.21-1.44,.27-2.83,.44-4.19,.52-1.35,.07-2.5,.12-3.44,.15h-11.94l-1.25-45.81,12.59-.67c.77,0,1.6,0,2.49,.02,.89,0,1.85,.06,2.9,.14,1.04,.09,2.16,.22,3.37,.42,1.2,.19,2.5,.46,3.89,.8,1.37,.34,2.67,.87,3.89,1.58,1.22,.71,2.31,1.56,3.25,2.54,.94,.99,1.72,2.08,2.32,3.28,.6,1.2,.99,2.47,1.16,3.8Zm-23.4,9.98c.24,0,.71,.03,1.42,.1,.71,.06,1.52,.08,2.43,.05,.91-.03,1.86-.14,2.85-.32,.99-.18,1.88-.51,2.69-.97,.81-.46,1.44-1.09,1.92-1.88,.47-.79,.66-1.83,.58-3.12-.11-1.18-.47-2.14-1.09-2.87-.62-.73-1.46-1.27-2.53-1.64-1.06-.36-2.31-.58-3.74-.64-1.43-.06-3-.02-4.71,.13l.19,11.17Zm.61,17.13c.32,.02,.79,.05,1.4,.08,.61,.03,1.28,.03,2-.02,.72-.04,1.45-.13,2.19-.26,.74-.13,1.39-.35,1.96-.68,.57-.32,1.02-.75,1.35-1.27,.33-.52,.46-1.2,.37-2.01-.13-1.16-.53-2.02-1.21-2.59-.68-.57-1.48-.95-2.41-1.16-.93-.2-1.92-.28-2.94-.22-1.03,.05-1.96,.12-2.8,.21l.1,7.92Z"/><path class="cls-2" d="M125.93,94.17l.19,15.19h14.1v6.18h-13.84l.13,5.02,20.89-.67,.26,8.79-33.03,.58-.58-46.1h37.37v11.01h-25.49Z"/><path class="cls-2" d="M180.62,93.01l.58,35.79-11.88,.45-.64-35.86-13.39,.65-.32-9.75,40.56-1.25,.32,9.37-15.23,.61Z"/></g><polygon class="cls-6" points="483.43 45.21 474.68 114.05 253.89 111.36 247.71 31.79 485.99 35.2 483.43 45.21"/></g></g></g></g></svg>