<?xml version="1.0" encoding="UTF-8"?><svg xmlns="http://www.w3.org/2000/svg" viewBox="0 0 517.93 148.62"><defs><style>.cls-1{fill:#f2d265;}.cls-2,.cls-3,.cls-4{fill:#6d310c;}.cls-5{fill:#b66c13;}.cls-6{fill:#471d06;}.cls-7{opacity:.6;}.cls-8{isolation:isolate;}.cls-9{fill:#fff;mix-blend-mode:overlay;opacity:.3;}.cls-3{opacity:.51;}.cls-4{opacity:.67;}</style></defs><g class="cls-8"><g id="Layer_2"><g id="Layer_6"><g><g><path class="cls-2" d="M510.57,9.69c-16.63-.97-53.4-1.99-70.03-2.77l-24.95-1.26-24.95-1.12c-33.27-1.41-131.88-2.45-165.18-2.97l-70.08-.79c-16.66-.21-33.3-.51-49.95-.63C72.12-.24,38.8,.24,5.48,.44L0,.47,.92,5.53c2.02,11.06,3.91,22.12,5.8,33.19,1.85,11.07,3.63,22.16,5.37,33.25,1.69,11.1,3.36,22.2,4.87,33.33,1.56,11.12,2.95,22.26,4.3,33.4l.31,2.6,2.77,.11c7.73,.3,15.46,.63,23.19,1.04,7.73,.39,15.46,.76,23.19,1.22,15.46,.86,30.92,1.81,46.37,2.55,15.46,.8,30.92,1.41,46.38,1.79,15.46,.42,51.08,.47,66.54,.57,30.94,.13,127.2-.05,158.15-.71,30.95-.74,82.05-1.64,113.01-3.69l.78-.05,.11-.77c1.52-10.5,2.93-21.01,4.29-31.53,1.32-10.52,2.68-21.04,3.88-31.56,1.25-10.53,2.49-21.05,3.62-31.59,1.14-10.53,2.36-21.05,3.4-31.6l.68-6.97-7.36-.43Zm-14.64,99.13c-.66,8.74-1.4,17.49-2.21,26.23-29.24-1.06-78.59-3.06-107.82-4.64l-22.62-1.09c-7.54-.32-80.41-.56-87.95-.79-15.08-.41-30.17-.54-45.26-.61-30.18-.13-80.51,.04-110.69,.71-29.93,.74-59.85,1.68-89.8,3.73-.69-10.1-1.47-20.19-2.31-30.27-.91-10.34-1.78-20.69-2.8-31.01l-1.48-15.49-1.6-15.48c-.78-7.51-1.56-15.01-2.37-22.51l16.21,.97c8.08,.48,16.17,.85,24.25,1.28l24.24,1.25,24.25,1.08c32.33,1.36,84.82,2.34,117.18,2.78l24.27,.4,24.27,.32c16.18,.22,97.68,.44,113.87,.55,30.95,.25,82.06-.25,113.02-.47-.32,8.24-.69,16.47-1.03,24.7-.54,9.74-1,19.48-1.61,29.21-.6,9.73-1.25,19.46-2,29.19Z"/><polygon class="cls-5" points="498.83 140.75 26.57 135.77 8.27 7.51 507.66 19.03 498.83 140.75"/><path class="cls-3" d="M28.87,104.72s322.09-5.58,343.97-4.6c21.88,.97,105.89,13.93,105.89,13.93l21.25-5.17,4.49,.31-3.79,33.13H161.32l-138.02-3.15-4.51-34.45h10.07Z"/><polygon class="cls-4" points="502.49 18.88 494.48 129.21 24.93 124.27 26.57 135.77 498.83 140.75 507.66 19.03 502.49 18.88"/><polygon class="cls-1" points="15.63 17.94 67.8 15.61 507.1 26.85 507.66 19.03 8.27 7.51 26.57 135.77 34.26 135.87 15.63 17.94"/><polygon class="cls-2" points="19.31 99.31 9.53 34.79 93.78 39.35 11.22 28.16 7.01 20.6 19.95 112.87 226.3 102.46 19.31 99.31"/><g><path class="cls-2" d="M485.37,115.61c1.26-.42,17.25-2.74,17.25-2.74l.56-5.77c-3.49,1.63-18.93,8.88-17.81,8.51Z"/><path class="cls-2" d="M503.87,106.78l5.48-59.03h-.43l-5.75,59.36c.44-.21,.7-.33,.7-.33Z"/><polygon class="cls-2" points="509.35 41.19 394.96 47.74 508.92 47.74 509.35 43.41 509.35 41.19"/></g><g class="cls-7"><path class="cls-2" d="M195.09,48.83c-79.91,3.84-151.17,25.68-166.22,26.27-15.05,.59,34.66,3.95,107.15,7.3,72.5,3.36,242.27,9.59,269.37,2.88,27.1-6.71,34.14-8.79,34.14-8.79,0,0-63.42,6.39-82.4,6.39s-211.84-7.41-230.91-7.78c-19.07-.37-42.54-2.29-42.54-2.29,0,0,118.84-22.97,167.54-18.68,48.7,4.29,155.17,13.12,152.16,14.22-3.01,1.1-41.41,.82-48.3,0-6.9-.82-149.57-6.57-165.63-3.69-16.06,2.88,41.17,7.19,61.77,7.67,20.59,.48,136.1,5.06,152.16,2.77,16.06-2.29,16-6.75,16-6.75l59.34,2.54s-203.74-25.9-283.64-22.06Z"/><path class="cls-9" d="M417.94,57.7c-48.68-10.55-202.39-13.19-248.56-12.35-46.17,.84-140.51,29.74-140.51,29.74,0,0,37.06-7.33,58.77-11.91,21.71-4.59,86.33-12.2,147.64-13.88,61.31-1.68,256.48,23.26,256.48,23.26,0,0-25.14-4.31-73.82-14.87Z"/><path class="cls-9" d="M87.56,73.11s102.46,3.06,143.57,8.57c41.12,5.51,168.4-1.49,168.4-1.49-26.22,2.37-146.78-2.59-168.4-5.09-21.61-2.51-143.57-1.99-143.57-1.99Z"/></g><polygon class="cls-9" points="112.61 109.93 27.2 116.24 27.2 135.78 23.31 112.87 165.83 104.72 112.61 109.93"/><path class="cls-9" d="M99.14,40.3c-1.26-.21-86.96-5.37-86.96-5.37l3.47,24.32s4.82,.97,3.98,.9c-.84-.08-3.33,3.64-3.21,4.47,.12,.83,4.68-1.81,5.52-2.44,.84-.63,1.04-6.61,1.04-6.61,0,0-3.99-3.49-3.99-4.54v-9.4l80.15-1.33Z"/></g><g><path class="cls-1" d="M223.08,44.38l-.28-6.17-5.82,.41-12.98,.92-5.67,.41,.44,5.3,.74,8.81c.28,2.93,.49,5.88,.83,8.81,.24,2.03,.46,4.07,.7,6.1-2.05-2.57-4.1-5.14-6.07-7.77-2.24-2.89-4.34-5.88-6.49-8.84-2.14-2.96-4.17-6-6.17-9.06l-.51-.77-1.06-.04c-2.96-.12-5.92-.29-8.88-.51l-.07-2.6-4.86,.07c-2.59,.04-5.18,.15-7.78,.4-2.6,.22-5.2,.57-7.8,.89l-3.71,.46,.29,2.06-4.31-.61c-4.46-.63-8.94-1.23-13.42-1.76l-3.94-.46-.64,3.42c-.58,3.14-1.25,6.26-1.77,9.41l-1.62,9.45c-.48,3.17-1.01,6.32-1.44,9.49-.25,1.79-.45,3.59-.67,5.39-.66-4.94-1.37-9.86-2.14-14.77l-1.59-9.41c-.51-3.15-1.13-6.26-1.7-9.39l-.46-2.54-3.05-.43c-2.75-.39-5.51-.83-8.26-1.18l-3.34-.42-1.27,3.55c-1.59,4.41-3.22,8.81-4.79,13.23-.98-4.43-1.96-8.85-3.01-13.26l-1.31-5.54-5.43,.76-15.59,2.18-6.67,.93,1.69,6.24c2.45,9.07,4.88,18.14,7.41,27.19,1.24,4.53,2.57,9.04,3.92,13.54l4.18,13.48,.9,2.89,2.57-.16,13.86-.87,2.05-.13,.48-1.67c1.65-5.67,3.35-11.33,5.17-16.94,.87-2.82,1.87-5.6,2.8-8.39,.3-.9,.63-1.78,.94-2.67,.78,3.32,1.53,6.65,2.22,10,1.06,5.31,2.09,10.63,3.05,15.97l.37,2.04,2.55,.47c4.14,.76,8.27,1.55,12.41,2.28l3.37,.6,1.26-3.76c1.46-4.35,2.93-8.7,4.25-13.08,1.34-4.38,2.58-8.79,3.76-13.21,1.15-4.43,2.3-8.86,3.39-13.32,1.1-4.44,2.15-8.9,3.18-13.37l.85-3.64c.59,4.4,.91,8.8,.73,13.17-.14,4.71-1.07,9.38-2.29,14.04-1.21,4.66-2.23,9.33-2.35,14.04-.14,4.7-.02,9.42,.43,14.15l.45,4.66,3.55-.28c2.59-.21,5.2-.53,7.8-.98,1.3-.23,2.61-.48,3.92-.78,1.31-.32,2.62-.63,3.93-1.08l.09-.03,.13,4.23,4.77-.17c5.05-.18,10.1-.38,15.16-.72l4.58-.31-.37-4-.79-8.53-.98-8.52c-.36-2.84-.76-5.68-1.17-8.52-.27-1.72-.59-3.44-.89-5.16,2.66,5.12,5.37,10.18,8.25,15.15,1.7,2.99,3.45,5.94,5.22,8.88,1.74,2.96,3.52,5.89,5.35,8.79l1.26,2.01,2.91-.06c3.56-.07,7.12-.07,10.67-.21l4.73-.19,.13-5.16c.12-4.57,.3-9.15,.37-13.72,.09-4.58,.12-9.14,.11-13.72,0-9.14-.37-18.27-.77-27.41Zm-142.62,27.97c-1.46-7.02-2.96-14.02-4.48-21.01l3.7-.36c.84,3.89,1.68,7.79,2.57,11.68,1.33,5.65,2.68,11.29,4.11,16.92l4.66,18.34-5.81-.37-2.03-11.36c-.86-4.62-1.75-9.24-2.73-13.83Zm50.2,.05c-1.21,4.42-2.33,8.86-3.37,13.32-.79,3.36-1.5,6.75-2.2,10.14-2.2-.08-4.39-.17-6.59-.24-1.48-4.32-2.93-8.64-4.35-12.98-1.65-5.16-3.18-10.34-4.61-15.56l-1.54-5.6-1.84,5.46c-.94,2.8-1.93,5.57-2.96,8.34-1.03,2.77-1.98,5.56-3.08,8.3-1.86,4.87-3.82,9.71-5.82,14.53l-1.68-.11,5.14-17.99c1.63-5.7,3.1-11.45,4.66-17.17,1.27-4.65,2.43-9.34,3.62-14.02,.66,0,1.32,.03,1.98,.03,.65,2.05,1.31,4.11,2.01,6.15l3.05,9.05c2.11,6.01,4.21,12.03,6.55,17.98l.55,1.4,.58-1.4c1.23-2.98,2.36-5.98,3.47-8.98,1.13-3,2.15-6.03,3.23-9.04l3.04-9.09c.61-1.78,1.17-3.57,1.72-5.37,1.58,.37,3.15,.74,4.73,1.1-.86,2.84-1.73,5.67-2.55,8.52-1.3,4.39-2.52,8.81-3.74,13.22Zm29.93,26.7c-1.27-.44-2.55-.82-3.82-1.18-1.04-.29-2.08-.54-3.12-.79,.52-3.55,.85-7.1,1.04-10.67,.27-4.7-.37-9.44-1.18-14.18-.84-4.75-1.37-9.48-1.13-14.18,.14-3.48,.6-6.95,1.26-10.41,1.69,.4,3.38,.78,5.08,1.12,.71,.15,1.43,.26,2.15,.39-.36,3.13-.71,6.26-.93,9.4-.34,4.69-.34,9.4-.15,14.12,.2,4.72,.59,9.44,1.2,14.18,.62,4.45,1.37,8.89,2.6,13.37-1-.42-1.98-.8-2.99-1.16Zm44.14-9.61c-2.19-2.64-4.41-5.26-6.67-7.85-4.49-5.21-9.08-10.33-13.89-15.3l-.86-.89-.19,1.24c-.45,2.86-.77,5.71-1.09,8.57-.28,2.86-.55,5.71-.78,8.57l-.58,8.56-.18,4.02c-2.04-.11-4.09-.21-6.13-.3,.07-3.13,.16-6.25,.19-9.38,.03-4.7-.07-9.41-.3-14.11-.26-4.71-.62-9.41-1.06-14.11-.34-3.9-.73-7.81-1.05-11.71,2.57-.18,5.15-.34,7.72-.44,1.97,2.64,3.92,5.31,5.77,8.03,2.05,3.02,4.14,6.02,6.09,9.11,2.01,3.05,3.9,6.18,5.81,9.31l5.6,9.45,5.84,9.86,.37-11.99,.28-8.86c.11-2.96,.12-5.9,.17-8.86,.06-2.95,0-5.9,0-8.85l-.04-3.18h1.56c-.06,7.2-.06,14.4,.16,21.6,.14,4.57,.31,9.14,.54,13.7,.14,3.01,.33,6.02,.52,9.03-1.04,.15-2.09,.29-3.13,.44-1.54-1.9-3.08-3.8-4.67-5.67Z"/><g><path class="cls-2" d="M120.18,81.91l9.33-37.08,13.31,2.4-14.25,53.06-12.52-1.38-8.23-31.37-11.77,33.38h-13.86l-13.31-54.76,15.63-1.85,7.6,33.97,10.47-33.97,8.31,.67,9.29,36.93Z"/><path class="cls-2" d="M164.35,101.16l-15.47-.78,2.33-56.45,15.47,.82-2.32,56.41Z"/><path class="cls-2" d="M183.68,66.68l.79,34.17h-15.16V44.4h11.46l25.15,35.9-1.69-35.31,12.99-.51,.87,54.84-10.63,.83-23.78-33.46Z"/></g></g><polygon class="cls-6" points="483.43 45.21 474.68 114.05 253.89 111.36 247.71 31.79 485.99 35.2 483.43 45.21"/></g></g></g></g></svg>